<?xml version="1.0" standalone="no"?>
<!DOCTYPE svg PUBLIC "-//W3C//DTD SVG 1.1//EN" "http://www.w3.org/Graphics/SVG/1.1/DTD/svg11.dtd" >
<svg xmlns="http://www.w3.org/2000/svg" xmlns:xlink="http://www.w3.org/1999/xlink" version="1.1">
<metadata>
Created by FontForge 20201107 at Tue Aug 12 14:25:39 2025
 By 
Copyright (c) 2025 by Designova. All rights reserved.
</metadata>
<defs>
<font id="ArenaUno-Medium" horiz-adv-x="1469" >
  <font-face 
    font-family="Arena Uno Med"
    font-weight="500"
    font-stretch="normal"
    units-per-em="2048"
    panose-1="0 0 0 0 0 0 0 0 0 0"
    ascent="1638"
    descent="-410"
    x-height="1044"
    cap-height="1403"
    bbox="-208 -541.636 2548 1940"
    underline-thickness="50"
    underline-position="-125"
    unicode-range="U+000D-25CA"
  />
<missing-glyph horiz-adv-x="1608" 
d="M425 294h-26v-129h31v83h1l62 -83h29v129h-31v-81h-2zM535 213q0 -28 25 -43q18 -6 29 -6q32 0 48 23q6 12 6 26q0 24 -15 37t-39 13q-36 0 -48 -24q-6 -11 -6 -26zM694 230q0 -41 32 -59q19 -7 37 -7q27 0 44.5 14t17.5 40v17h-59v-21h31q0 -16 -16 -22q-5 -4 -18 -4
q-23 0 -33 19q-5 7 -5 23q0 28 18 38q12 5 19 5q28 0 31 -21h31q-1 18 -20 33q-17 11 -42 11q-31 0 -49.5 -18t-18.5 -48zM872 294h-29v-129h29v129zM936 192l-22 71h-33l40 -99l-2 -5q-2 -11 -22 -7l-7 -19q10 -4 20 -4q20 0 32 14q5 3 8 13l41 107h-31l-22 -71h-2z
M1031 263h-30v-134h31v52q6 -10 18 -14q3 -3 13 -3q27 0 39 23q6 10 6 26q0 31 -21 45q-13 5 -24 5q-17 0 -25 -9q-4 -3 -6 -9h-1v18zM1150 294h-27v-129h28v56q0 14 11 18q4 3 11 3q19 0 19 -19v-58h31v62q0 24 -19 33q-12 3 -19 3q-25 0 -34 -18h-1v49zM389 1112l301 -301
l-301 -301l116 -114l299 298l304 -298l118 114l-301 301l296 301l-113 114l-304 -299l-297 299zM565 213q0 12 6.5 21t17.5 9q23 0 23 -30q0 -17 -10 -25q-10 -2 -13 -2q-17 0 -20 14q-4 5 -4 13zM1031 213q0 17 10 25q5 5 12 5q24 0 24 -30q0 -15 -10 -25q-8 -2 -14 -2
q-14 0 -20 14q-2 8 -2 13zM1419 1377v-1378h-1224v1378h1224z" />
    <glyph glyph-name=".notdef" horiz-adv-x="1608" 
d="M425 294h-26v-129h31v83h1l62 -83h29v129h-31v-81h-2zM535 213q0 -28 25 -43q18 -6 29 -6q32 0 48 23q6 12 6 26q0 24 -15 37t-39 13q-36 0 -48 -24q-6 -11 -6 -26zM694 230q0 -41 32 -59q19 -7 37 -7q27 0 44.5 14t17.5 40v17h-59v-21h31q0 -16 -16 -22q-5 -4 -18 -4
q-23 0 -33 19q-5 7 -5 23q0 28 18 38q12 5 19 5q28 0 31 -21h31q-1 18 -20 33q-17 11 -42 11q-31 0 -49.5 -18t-18.5 -48zM872 294h-29v-129h29v129zM936 192l-22 71h-33l40 -99l-2 -5q-2 -11 -22 -7l-7 -19q10 -4 20 -4q20 0 32 14q5 3 8 13l41 107h-31l-22 -71h-2z
M1031 263h-30v-134h31v52q6 -10 18 -14q3 -3 13 -3q27 0 39 23q6 10 6 26q0 31 -21 45q-13 5 -24 5q-17 0 -25 -9q-4 -3 -6 -9h-1v18zM1150 294h-27v-129h28v56q0 14 11 18q4 3 11 3q19 0 19 -19v-58h31v62q0 24 -19 33q-12 3 -19 3q-25 0 -34 -18h-1v49zM389 1112l301 -301
l-301 -301l116 -114l299 298l304 -298l118 114l-301 301l296 301l-113 114l-304 -299l-297 299zM565 213q0 12 6.5 21t17.5 9q23 0 23 -30q0 -17 -10 -25q-10 -2 -13 -2q-17 0 -20 14q-4 5 -4 13zM1031 213q0 17 10 25q5 5 12 5q24 0 24 -30q0 -15 -10 -25q-8 -2 -14 -2
q-14 0 -20 14q-2 8 -2 13zM1419 1377v-1378h-1224v1378h1224z" />
    <glyph glyph-name="uni0000" horiz-adv-x="0" 
 />
    <glyph glyph-name="uni0000" horiz-adv-x="0" 
 />
    <glyph glyph-name="uni000D" unicode="&#xd;" horiz-adv-x="512" 
 />
    <glyph glyph-name="space" unicode=" " horiz-adv-x="645" 
 />
    <glyph glyph-name="exclam" unicode="!" horiz-adv-x="471" 
d="M304 300h-179l-12 1084h203zM215 201q49 0 82 -32.5t33 -79.5q0 -49 -33 -82t-82 -33q-47 0 -81.5 32.5t-34.5 82.5q0 48 34.5 80t81.5 32z" />
    <glyph glyph-name="quotedbl" unicode="&#x22;" horiz-adv-x="304" 
d="M459 1467l-8 -564h-341l-11 564h360z" />
    <glyph glyph-name="numbersign" unicode="#" horiz-adv-x="1518" 
d="M998 786h-438l-41 -172h438zM481 445l-103 -445h-181l104 445h-202v169h240l41 172h-221v171h259l103 443h181l-103 -443h437l103 443h180l-103 -443h202v-171h-240l-41 -172h221v-169h-259l-103 -445h-181l103 445h-437z" />
    <glyph glyph-name="dollar" unicode="$" horiz-adv-x="1156" 
d="M682 572v-417q87 17 132.5 67t45.5 125q0 78 -42.5 132t-135.5 93zM349 1023q0 -79 39.5 -126t120.5 -80v408q-74 -21 -117 -71.5t-43 -130.5zM682 1228v-457q370 -119 370 -416q0 -145 -100.5 -249t-269.5 -127v-145h-173v145q-182 25 -297 146.5t-113 322.5h190
q-1 -120 56.5 -194t163.5 -95v462q-352 107 -352 396q0 156 99 258.5t253 127.5v147h173v-145q121 -18 206.5 -88t125 -165t43.5 -208h-190q-5 238 -185 284z" />
    <glyph glyph-name="percent" unicode="%" horiz-adv-x="1427" 
d="M410 1408q141 0 226 -99t85 -250q0 -149 -85 -249.5t-226 -100.5q-142 0 -226.5 100.5t-84.5 249.5q0 151 84.5 250t226.5 99zM354 0h-216l933 1384h217zM410 1237q-59 0 -91 -46t-32 -132t32 -133t91 -47q58 0 91 47t33 133q0 85 -33 131.5t-91 46.5zM1016 673
q141 0 226 -99t85 -251q0 -148 -85.5 -248.5t-225.5 -100.5q-143 0 -227.5 100.5t-84.5 248.5q0 151 84.5 250.5t227.5 99.5zM1016 503q-60 0 -92 -46.5t-32 -133.5q0 -86 32 -132t92 -46q58 0 90 46.5t32 131.5q0 87 -31.5 133.5t-90.5 46.5z" />
    <glyph glyph-name="ampersand" unicode="&#x26;" horiz-adv-x="1593" 
d="M602 152q193 0 323 121q-113 89 -229.5 203.5t-202.5 215.5q-104 -57 -159.5 -122t-55.5 -155q0 -172 172 -235q72 -28 152 -28zM554 875q40 17 82 42t84.5 58t69.5 73.5t27 79.5q0 44 -27.5 74t-65 41t-80.5 11q-74 0 -128.5 -39t-54.5 -110q0 -87 93 -230zM1068 171
q-91 -96 -215.5 -144.5t-262.5 -48.5q-131 0 -240.5 48.5t-180 148.5t-70.5 235q0 74 23.5 137.5t68 113t92.5 86t113 72.5q-108 171 -108 292q0 101 51 175t129 108.5t171 34.5q150 0 250.5 -81.5t100.5 -213.5q0 -202 -334 -379q71 -80 176.5 -176.5t197.5 -165.5
q69 144 66 296h171q6 -81 -19 -193.5t-74 -202.5q96 -66 163.5 -102.5t155.5 -65.5l-65 -161q-95 30 -169.5 70t-190.5 117z" />
    <glyph glyph-name="quotesingle" unicode="'" horiz-adv-x="387" 
d="M277 903h-170l-8 564h188z" />
    <glyph glyph-name="parenleft" unicode="(" horiz-adv-x="709" 
d="M393 1550h195q-128 -170 -199.5 -390.5t-71.5 -458.5q0 -236 71.5 -457.5t199.5 -391.5h-195q-116 156 -184.5 385.5t-68.5 463.5t68.5 463t184.5 386z" />
    <glyph glyph-name="parenright" unicode=")" horiz-adv-x="709" 
d="M120 1550h195q115 -157 183.5 -386t68.5 -463q0 -233 -68.5 -463t-183.5 -386h-195q129 169 200 390t71 459q0 240 -71 460t-200 389z" />
    <glyph glyph-name="asterisk" unicode="*" horiz-adv-x="997" 
d="M565 661l280 99l52 -168l-280 -84l203 -252l-148 -100l-191 262l-188 -262l-148 99l201 253l-279 84l52 168l281 -99l-9 325h182z" />
    <glyph glyph-name="plus" unicode="+" horiz-adv-x="1086" 
d="M987 556h-358v-396h-171v396h-359v169h359v397h171v-397h358v-169z" />
    <glyph glyph-name="comma" unicode="," horiz-adv-x="585" 
d="M444 192l-163 -408h-182l143 408h202z" />
    <glyph glyph-name="hyphen" unicode="-" horiz-adv-x="797" 
d="M655 492h-515v169h515v-169z" />
    <glyph glyph-name="period" unicode="." horiz-adv-x="471" 
d="M215 201q49 0 82 -32.5t33 -79.5q0 -49 -33 -82t-82 -33q-47 0 -81.5 32.5t-34.5 82.5q0 48 34.5 80t81.5 32z" />
    <glyph glyph-name="slash" unicode="/" horiz-adv-x="900" 
d="M279 -55h-180l519 1494h182z" />
    <glyph glyph-name="zero" unicode="0" horiz-adv-x="1167" 
d="M584 1405q134 0 232.5 -54.5t156 -153.5t84.5 -224.5t27 -280.5t-27 -280.5t-84.5 -224.5t-156 -153.5t-232.5 -54.5q-107 0 -192.5 36t-142.5 100t-95 154.5t-54.5 195t-16.5 227.5q0 124 16.5 229t54.5 195.5t95.5 153.5t142.5 99t192 36zM584 143q315 0 315 549
q0 548 -315 548q-318 0 -318 -548q0 -549 318 -549z" />
    <glyph glyph-name="one" unicode="1" horiz-adv-x="915" 
d="M727 1379v-1374h-165v1209h-375v165h540z" />
    <glyph glyph-name="two" unicode="2" horiz-adv-x="1210" 
d="M1064 169v-164h-960v119l480 453q168 159 229 248t61 177q0 106 -66 172t-186 66q-122 0 -198.5 -73.5t-90.5 -203.5l-8 -65h-176l8 76q21 197 149.5 314t320.5 117q104 0 187 -32t135.5 -86.5t80 -126t27.5 -152.5q0 -133 -82.5 -254t-271.5 -297l-306 -288h667z" />
    <glyph glyph-name="three" unicode="3" horiz-adv-x="1150" 
d="M867 727q199 -98 199 -330q0 -127 -67.5 -223.5t-179 -145.5t-248.5 -49q-200 0 -328.5 110.5t-150.5 318.5l-8 76h176l8 -65q14 -128 93.5 -202t213.5 -74q139 0 223 66.5t84 185.5q0 106 -80.5 167.5t-246.5 61.5h-83v164h83q120 0 211 66t91 173q0 104 -66.5 158.5
t-178.5 54.5q-121 0 -196.5 -66.5t-89.5 -188.5l-8 -65h-175l7 76q19 189 147.5 299t318.5 110q198 0 310.5 -103.5t112.5 -266.5q0 -96 -46 -176.5t-126 -131.5z" />
    <glyph glyph-name="four" unicode="4" horiz-adv-x="1294" 
d="M788 1056l-8 3h-1q-2 -2 -4 -6q-5 -5 -15 -19q-24 -30 -36 -47l-365 -461h429v530zM1147 526v-163h-184v-358h-175v358h-684v110l717 906h142v-853h184z" />
    <glyph glyph-name="five" unicode="5" horiz-adv-x="1197" 
d="M593 915q142 0 247.5 -62t158 -166.5t52.5 -235.5q0 -144 -69.5 -253.5t-179.5 -164t-241 -54.5q-116 0 -212 41t-164.5 134t-82.5 227l-8 75h175l8 -64q15 -115 88.5 -182t195.5 -67q61 0 115 18.5t97 54.5t68.5 95.5t25.5 135.5q0 140 -77.5 222t-205.5 82
q-221 0 -304 -204h-164l132 826h785v-163h-636l-61 -365q112 70 257 70z" />
    <glyph glyph-name="six" unicode="6" horiz-adv-x="1143" 
d="M562 143q140 0 226.5 90t86.5 226q0 149 -81.5 241t-221.5 92q-131 0 -221 -86.5t-90 -220.5q0 -150 80.5 -246t220.5 -96zM582 955q112 0 203.5 -39t150.5 -106.5t91 -156t32 -188.5q0 -207 -140.5 -346.5t-357.5 -139.5q-232 0 -360.5 155.5t-128.5 478.5
q0 400 140 596t388 196q187 0 295 -98t140 -272l17 -80h-179l-14 58q-25 119 -87.5 173t-174.5 54q-49 0 -90.5 -11t-81.5 -38.5t-70.5 -72t-54.5 -115.5t-36 -165q128 117 318 117z" />
    <glyph glyph-name="seven" unicode="7" horiz-adv-x="1111" 
d="M1049 1379v-99l-710 -1275h-198l675 1211h-754v163h987z" />
    <glyph glyph-name="eight" unicode="8" horiz-adv-x="1197" 
d="M603 142q128 0 216.5 63.5t88.5 180.5q0 113 -76 181t-226 68q-152 0 -235 -69t-83 -180q0 -118 90 -181t225 -63zM351 1019q0 -106 74 -163t187 -57q115 0 189.5 57t74.5 163q0 101 -70 161t-194 60q-123 0 -192 -60t-69 -161zM903 724q92 -53 140.5 -139.5t48.5 -196.5
q0 -100 -41.5 -180t-111 -129.5t-157 -75.5t-184.5 -26q-137 0 -247 44.5t-178.5 139.5t-68.5 227q0 111 55.5 198.5t154.5 139.5q-70 48 -108.5 124t-38.5 169q0 168 120.5 277t324.5 109q211 0 328 -108.5t117 -277.5q0 -93 -41 -169.5t-113 -125.5z" />
    <glyph glyph-name="nine" unicode="9" horiz-adv-x="1154" 
d="M570 592q131 0 220 86t89 220q0 151 -79.5 246.5t-219.5 95.5q-142 0 -228 -89.5t-86 -226.5q0 -147 82.5 -239.5t221.5 -92.5zM580 1405q233 0 361.5 -155t128.5 -479q0 -392 -140.5 -592t-387.5 -200q-188 0 -296 99t-141 276l-8 77h173l14 -60q24 -119 87 -173.5
t175 -54.5q273 0 330 402q-130 -116 -315 -116q-149 0 -259.5 68t-164.5 178t-54 244q0 207 140 346.5t357 139.5z" />
    <glyph glyph-name="colon" unicode=":" horiz-adv-x="471" 
d="M215 1110q49 0 82 -33t33 -81t-33 -81t-82 -33q-47 0 -81.5 33.5t-34.5 80.5q0 49 34.5 81.5t81.5 32.5zM215 201q49 0 82 -32.5t33 -79.5q0 -49 -33 -82t-82 -33q-47 0 -81.5 32.5t-34.5 82.5q0 48 34.5 80t81.5 32z" />
    <glyph glyph-name="semicolon" unicode=";" horiz-adv-x="588" 
d="M329 1110q49 0 83 -33t34 -81q0 -47 -34 -80.5t-83 -33.5q-47 0 -81.5 33.5t-34.5 80.5q0 49 34.5 81.5t81.5 32.5zM438 198l-154 -414h-185l143 414h196z" />
    <glyph glyph-name="less" unicode="&#x3c;" horiz-adv-x="1079" 
d="M980 835l-618 -288l618 -290v-192l-881 414v132l881 415v-191z" />
    <glyph glyph-name="equal" unicode="=" horiz-adv-x="1116" 
d="M1017 727h-918v167h918v-167zM1017 386h-918v168h918v-168z" />
    <glyph glyph-name="greater" unicode="&#x3e;" horiz-adv-x="1079" 
d="M980 611v-132l-881 -414v190l620 290l-620 288v193z" />
    <glyph glyph-name="question" unicode="?" horiz-adv-x="1138" 
d="M620 303h-181q3 141 44 227.5t168 209.5q83 81 117.5 145.5t34.5 137.5q0 101 -63 156.5t-176 55.5q-137 0 -208.5 -85t-70.5 -240h-185q-13 218 118.5 359t345.5 141q202 0 317.5 -110t115.5 -277q0 -204 -201 -393q-109 -100 -141 -160t-35 -167zM533 201
q46 0 80.5 -32t34.5 -80q0 -50 -34.5 -82.5t-80.5 -32.5q-50 0 -84 33t-34 82q0 47 34 79.5t84 32.5z" />
    <glyph glyph-name="at" unicode="@" horiz-adv-x="1721" 
d="M991 571l18 74q20 86 -7 136t-88 50q-107 0 -188 -106t-81 -254q0 -175 124 -175q70 0 129.5 67.5t92.5 207.5zM1259 111l84 -149q-143 -88 -270 -121t-274 -33q-106 0 -206.5 27t-190 84.5t-157 138.5t-107 196.5t-39.5 251.5q0 152 48.5 286t132 232t191.5 169.5
t229 107t243 35.5q197 0 352 -83.5t241 -234.5t86 -343q0 -129 -35.5 -233.5t-95 -169.5t-133.5 -99.5t-154 -34.5q-143 0 -209 92q-106 -106 -243 -106q-40 0 -79.5 9.5t-80 34t-71 61.5t-50 97.5t-19.5 136.5q0 140 59 263.5t166.5 200t238.5 76.5q102 0 168 -54l6 21h190
l-120 -481q-18 -83 -18 -122q0 -31 16.5 -45t57.5 -14q94 0 161.5 97t67.5 262q0 236 -141 368t-372 132q-91 0 -184 -28t-177.5 -84.5t-150 -134t-104.5 -184t-39 -226.5q0 -128 42.5 -231.5t115 -168t166.5 -99t200 -34.5q132 0 238.5 30t219.5 104z" />
    <glyph glyph-name="A" unicode="A" horiz-adv-x="1479" 
d="M969 553l-229 577l-233 -577h462zM99 0l563 1410h151l566 -1410h-189l-150 377h-604l-153 -377h-184z" />
    <glyph glyph-name="B" unicode="B" horiz-adv-x="1366" 
d="M645 638h-362v-467h401q37 0 59.5 0.5t59 2.5t60 6t54.5 11.5t51 18.5t42 27.5t34.5 37.5t20.5 50.5t8 64.5q0 47 -13 84.5t-34 63.5t-54 44.5t-67.5 29t-81 16.5t-86.5 8t-92 2zM647 1236h-364v-425h362q147 0 199 9q148 25 168 145q4 20 4 44q0 45 -10 80t-25 59
t-43 40.5t-55 26t-69.5 14.5t-77.5 6t-89 1zM684 0h-577v1410h540q190 0 311 -40q241 -89 241 -361q0 -198 -143 -279q198 -95 198 -340q0 -390 -570 -390z" />
    <glyph glyph-name="C" unicode="C" horiz-adv-x="1572" 
d="M793 -23q-197 0 -351 83q-164 85 -254.5 249.5t-90.5 396.5q0 153 38 276.5t103 206.5t156 139t192.5 80.5t216.5 24.5q267 0 442.5 -151.5t208.5 -429.5h-182q-25 199 -147 305.5t-322 106.5q-247 0 -387.5 -143.5t-140.5 -414.5q0 -276 137 -418t381 -142
q220 0 343 106t145 299h182q-30 -278 -207.5 -426t-462.5 -148z" />
    <glyph glyph-name="D" unicode="D" horiz-adv-x="1456" 
d="M540 1238h-220v-1067h220q133 0 230.5 13.5t181.5 49t135.5 95.5t80.5 154t29 223q0 265 -170 398.5t-487 133.5zM540 0h-400v1410h400q387 0 612 -183t225 -521q0 -518 -412 -648q-178 -58 -425 -58z" />
    <glyph glyph-name="E" unicode="E" horiz-adv-x="1286" 
d="M1166 0h-1026v1410h1006v-174h-826v-436h679v-174h-679v-455h846v-171z" />
    <glyph glyph-name="F" unicode="F" horiz-adv-x="1183" 
d="M320 0h-180v1410h1006v-174h-826v-436h679v-174h-679v-626z" />
    <glyph glyph-name="G" unicode="G" horiz-adv-x="1570" 
d="M781 -33q-313 0 -497.5 198t-184.5 534q0 343 186 538.5t512 195.5q183 0 322.5 -62.5t226.5 -189.5t103 -307h-172q-31 197 -149.5 292t-330.5 95q-256 0 -392 -146t-136 -416q0 -268 136 -415.5t381 -147.5q201 0 325 101t150 283h-532v172h741v-692h-164l-10 191
q-75 -99 -202.5 -161.5t-312.5 -62.5z" />
    <glyph glyph-name="H" unicode="H" horiz-adv-x="1409" 
d="M318 0h-178v1410h178v-593h777v593h173v-1410h-173v648h-777v-648z" />
    <glyph glyph-name="I" unicode="I" horiz-adv-x="519" 
d="M346 0h-174v1403h174v-1403z" />
    <glyph glyph-name="J" unicode="J" horiz-adv-x="1380" 
d="M58 665h173q-14 -257 96.5 -391.5t321.5 -134.5q212 0 317 116.5t105 353.5v801h170v-801q0 -306 -154 -474t-438 -168q-291 0 -449 186.5t-142 511.5z" />
    <glyph glyph-name="K" unicode="K" horiz-adv-x="1402" 
d="M321 -2h-181v1412h181v-666l742 666h278l-710 -630l714 -780h-252l-593 663l-179 -160v-505z" />
    <glyph glyph-name="L" unicode="L" horiz-adv-x="1268" 
d="M140 0v1410h177v-1241h831v-169h-1008z" />
    <glyph glyph-name="M" unicode="M" horiz-adv-x="1637" 
d="M316 938v-938h-176v1405h157l520 -1177l515 1177h163v-1405h-176v954l-418 -954h-174z" />
    <glyph glyph-name="N" unicode="N" horiz-adv-x="1354" 
d="M313 0h-173v1404h152l750 -1073v1073h171v-1404h-146l-754 1082v-1082z" />
    <glyph glyph-name="O" unicode="O" horiz-adv-x="1586" 
d="M792 -33q-220 0 -377.5 91.5t-236.5 256t-79 386.5q0 340 180 536t513 196t513.5 -197.5t180.5 -534.5q0 -341 -184 -537.5t-510 -196.5zM792 139q253 0 385.5 145.5t132.5 416.5q0 275 -131 417.5t-387 142.5t-387.5 -142.5t-131.5 -417.5q0 -274 132.5 -418t386.5 -144
z" />
    <glyph glyph-name="P" unicode="P" horiz-adv-x="1273" 
d="M680 1236h-363v-544h363q166 0 243.5 65t77.5 205q0 145 -75 209.5t-246 64.5zM317 516v-516h-177v1410h540q240 0 366.5 -114.5t126.5 -333.5q0 -213 -130 -329.5t-363 -116.5h-363z" />
    <glyph glyph-name="Q" unicode="Q" horiz-adv-x="1588" 
d="M792 139q253 0 385.5 145.5t132.5 416.5q0 275 -131 417.5t-387 142.5t-387.5 -143t-131.5 -417t132.5 -418t386.5 -144zM792 -33q-220 0 -377.5 91.5t-236.5 256t-79 386.5q0 340 180 536t513 196t513.5 -197.5t180.5 -534.5q0 -326 -169 -520q80 -36 171 -119
l-109 -129q-78 61 -129.5 85t-107.5 26q-152 -77 -350 -77z" />
    <glyph glyph-name="R" unicode="R" horiz-adv-x="1334" 
d="M635 1236h-315v-483h376q186 0 264.5 53.5t78.5 187.5q0 70 -21.5 117t-49.5 71.5t-89.5 37t-107.5 14.5t-136 2zM320 584v-584h-180v1410h495q69 0 125 -3.5t117.5 -14.5t108.5 -30t91.5 -50.5t73 -74.5t45.5 -104.5t17 -138.5q0 -105 -43.5 -191t-126.5 -136
q27 -19 49 -46t37 -57t27 -64.5t18.5 -68.5t11.5 -70t6 -68.5t2.5 -64t0.5 -56.5t0 -45q0 -45 2 -127h-172q0 73 -0.5 116t-2 99.5t-5 89t-9.5 73t-14.5 63t-21.5 48t-30 39.5t-39 25.5t-50 17.5q-60 13 -160 14q-102 2 -256 0q-39 -1 -117 -1z" />
    <glyph glyph-name="S" unicode="S" horiz-adv-x="1378" 
d="M727 -33q-129 0 -241 33.5t-198 97.5t-131 166.5t-35 230.5h170l10 -92q6 -45 21 -76q33 -81 134 -134.5t272 -53.5q88 0 156 17t105 41t60.5 55t30.5 54.5t7 44.5q3 76 -34 122q-66 84 -280 137q-212 51 -280 74q-206 70 -274 193q-44 78 -41 184q8 170 163 271t379 101
q165 0 289.5 -60t188 -179t42.5 -278h-179q15 79 -2 141.5t-53.5 100t-89 61.5t-101 33t-97.5 9q-158 0 -258.5 -60t-105.5 -146q-3 -68 32 -112q72 -83 278 -131q218 -50 307 -84q210 -82 264 -233q24 -64 22 -144q-4 -174 -156 -279t-375 -105z" />
    <glyph glyph-name="T" unicode="T" horiz-adv-x="1307" 
d="M742 0h-175v1238h-468v172h1108v-172h-465v-1238z" />
    <glyph glyph-name="U" unicode="U" 
d="M733 -33q-277 0 -435 171.5t-158 470.5v801h175v-801q0 -231 109.5 -350.5t308.5 -119.5q213 0 317.5 116t104.5 354v801h172v-801q0 -306 -154.5 -474t-439.5 -168z" />
    <glyph glyph-name="V" unicode="V" horiz-adv-x="1357" 
d="M770 0h-188l-546 1410h188l452 -1161l451 1161h193z" />
    <glyph glyph-name="W" unicode="W" horiz-adv-x="2238" 
d="M1687 0h-190l-384 1094l-405 -1094h-189l-483 1410h189l394 -1147l421 1147h149l403 -1148l416 1148h193z" />
    <glyph glyph-name="X" unicode="X" horiz-adv-x="1485" 
d="M295 0h-217l555 747l-500 663h226l381 -517l381 517h226l-494 -663l553 -747h-223l-443 602z" />
    <glyph glyph-name="Y" unicode="Y" horiz-adv-x="1329" 
d="M752 0h-177v533l-497 877h197l392 -684l385 684h198l-498 -877v-533z" />
    <glyph glyph-name="Z" unicode="Z" horiz-adv-x="1392" 
d="M1286 0h-1187v131l934 1105h-844v174h1103v-131l-933 -1106h927v-173z" />
    <glyph glyph-name="bracketleft" unicode="[" horiz-adv-x="671" 
d="M550 1550v-169h-237v-1359h237v-170h-410v1698h410z" />
    <glyph glyph-name="backslash" unicode="\" horiz-adv-x="900" 
d="M800 -55h-182l-519 1494h180z" />
    <glyph glyph-name="bracketright" unicode="]" horiz-adv-x="675" 
d="M533 -148h-413v170h241v1359h-241v169h413v-1698z" />
    <glyph glyph-name="asciicircum" unicode="^" horiz-adv-x="1103" 
d="M814 396l-261 598l-261 -598h-193l383 852h145l377 -852h-190z" />
    <glyph glyph-name="underscore" unicode="_" horiz-adv-x="1162" 
d="M1020 -151h-880v169h880v-169z" />
    <glyph glyph-name="grave" unicode="`" horiz-adv-x="817" 
d="M592 1134h-160l-208 300h198z" />
    <glyph glyph-name="a" unicode="a" horiz-adv-x="1034" 
d="M755 416v66q-114 5 -244 -14q-116 -19 -181.5 -65t-65.5 -116t41.5 -105.5t131.5 -35.5q160 0 239 63t79 207zM574 894h-71q-94 0 -153.5 -60.5t-56.5 -176.5h-178q-13 168 98.5 282t289.5 114h71q170 0 262 -85t98 -238v-729h-144l-19 123q-64 -77 -156.5 -112.5
t-192.5 -35.5q-154 0 -249 80t-95 227q0 146 115.5 235t301.5 116q82 11 122.5 13t137.5 1v58q-7 98 -50.5 143t-130.5 45z" />
    <glyph glyph-name="b" unicode="b" horiz-adv-x="1229" 
d="M657 155q149 0 231.5 99.5t82.5 258.5q0 155 -90 254t-244 99q-133 0 -222 -94.5t-89 -258.5q0 -168 96 -263t235 -95zM651 -23q-208 0 -342 154l-16 -131h-153v1410h182v-499q126 133 326 133q151 0 266.5 -72t175.5 -192t60 -267q0 -232 -139.5 -384t-359.5 -152z" />
    <glyph glyph-name="c" unicode="c" horiz-adv-x="1166" 
d="M590 -23q-233 0 -372.5 143.5t-139.5 378.5q8 247 150.5 396t368.5 149q202 0 338 -117t152 -307h-177q-9 113 -94 180.5t-219 67.5q-150 0 -244.5 -100t-96.5 -271q0 -159 90 -251.5t244 -92.5q137 0 224 67t96 181h177q-15 -184 -154 -304t-343 -120z" />
    <glyph glyph-name="d" unicode="d" horiz-adv-x="1227" 
d="M571 155q138 0 234 95t96 263q0 164 -88.5 258.5t-222.5 94.5q-152 0 -242.5 -99.5t-90.5 -253.5q0 -159 82.5 -258.5t231.5 -99.5zM579 -23q-220 0 -360.5 153t-140.5 383q0 148 61.5 268t177 191.5t264.5 71.5q201 0 326 -134v500h178v-1410h-146l-19 132
q-135 -155 -341 -155z" />
    <glyph glyph-name="e" unicode="e" horiz-adv-x="1152" 
d="M276 633h609q-23 99 -97.5 169.5t-192.5 70.5t-203.5 -65.5t-115.5 -174.5zM584 -23q-122 0 -221 46t-161 123.5t-94 174.5t-30 202q3 147 67 265t182 187t268 69q198 0 330 -128t147 -336l2 -29v-88h-814q13 -149 96.5 -232t227.5 -83q131 0 217 70t89 183h180
q-10 -186 -149.5 -305t-336.5 -119z" />
    <glyph glyph-name="f" unicode="f" horiz-adv-x="773" 
d="M415 0h-180v873h-168v171h171v70q0 75 10 128t29.5 85t47.5 51t64 25.5t80 8t94 -0.5q50 -1 77 -1h86v-172h-86q-170 2 -198.5 -13.5t-28.5 -110.5v-70h312v-171h-310v-873z" />
    <glyph glyph-name="g" unicode="g" horiz-adv-x="1230" 
d="M572 155q138 0 234 95t96 263q0 164 -89 258.5t-223 94.5q-152 0 -242.5 -99.5t-90.5 -253.5q0 -159 83 -258.5t232 -99.5zM933 1044h155v-1064q0 -289 -140 -418q-107 -102 -341 -102t-339 102q-127 112 -139 349h179q5 -48 11 -80t18.5 -67t32.5 -56.5t51.5 -40
t77.5 -27t108 -8.5q131 0 193.5 39t85.5 119q24 91 24 190v141q-134 -144 -331 -144q-220 0 -360.5 153t-140.5 383q0 231 139.5 381t363.5 150q204 0 330 -137z" />
    <glyph glyph-name="h" unicode="h" horiz-adv-x="1171" 
d="M317 0h-177v1410h177v-494q121 128 316 128q122 0 209 -37.5t136 -109t71 -163t22 -212.5v-522h-175v522q0 180 -58.5 264t-200.5 84q-147 0 -233.5 -101t-86.5 -275v-494z" />
    <glyph glyph-name="i" unicode="i" horiz-adv-x="527" 
d="M351 0h-176v1044h176v-1044zM264 1129q-62 0 -93 36.5t-31 84.5t31 83t93 35q67 0 94.5 -35.5t27.5 -82.5q0 -29 -8.5 -54t-37.5 -46t-76 -21z" />
    <glyph glyph-name="j" unicode="j" horiz-adv-x="493" 
d="M232 1129q-64 0 -94.5 36.5t-30.5 84.5q0 47 31 82.5t94 35.5q67 0 94 -35.5t27 -82.5q0 -21 -5 -40t-17 -38.5t-37.5 -31t-61.5 -11.5zM-150 -539v163h6q212 0 247 16.5t35 117.5v1288h174l-2 -1288q0 -66 -4.5 -111.5t-15.5 -80t-29 -53.5t-44.5 -32t-62.5 -16
t-83.5 -5.5t-106.5 0.5q-73 1 -114 1z" />
    <glyph glyph-name="k" unicode="k" horiz-adv-x="1266" 
d="M318 -2h-178v1412h178v-880l566 514h261l-520 -474l508 -575h-237l-401 458l-177 -162v-293z" />
    <glyph glyph-name="l" unicode="l" horiz-adv-x="460" 
d="M318 0h-178v1410h178v-1410z" />
    <glyph glyph-name="m" unicode="m" horiz-adv-x="1733" 
d="M317 0h-177v1044h146l19 -125q110 125 293 125q218 0 314 -181q112 181 343 181q206 0 302 -155q77 -137 77 -367v-522h-177v522q0 36 -1 61.5t-5 64.5t-12 67t-24 59t-37.5 50.5t-55.5 32.5t-76 13q-125 0 -198.5 -100.5t-73.5 -275.5v-494h-174v522q0 35 -1 61t-5.5 65
t-12.5 67t-24 59t-37.5 50.5t-55.5 32.5t-76 13q-124 0 -197.5 -100.5t-73.5 -275.5v-494z" />
    <glyph glyph-name="n" unicode="n" horiz-adv-x="1171" 
d="M317 0h-177v1044h145l22 -139q122 139 326 139q122 0 209 -37.5t136 -109t71 -163t22 -212.5v-522h-175v522q0 180 -58.5 264t-200.5 84q-147 0 -233.5 -101t-86.5 -275v-494z" />
    <glyph glyph-name="o" unicode="o" horiz-adv-x="1150" 
d="M576 -23q-233 0 -365.5 143t-132.5 388q0 249 133 392.5t365 143.5q235 0 365.5 -147t130.5 -389q0 -239 -129 -385t-367 -146zM576 150q163 0 239 97.5t76 260.5q0 80 -17.5 144t-53.5 114t-98 77t-146 27q-161 0 -239 -96.5t-78 -265.5q0 -56 9.5 -106t32.5 -97
t58 -80.5t90.5 -54t126.5 -20.5z" />
    <glyph glyph-name="p" unicode="p" horiz-adv-x="1229" 
d="M657 155q149 0 231.5 99.5t82.5 258.5q0 155 -90 254t-244 99q-133 0 -222 -94.5t-89 -258.5q0 -168 96 -263t235 -95zM320 119v-659h-180v1584h151l19 -145q130 145 338 145q150 0 265.5 -71.5t176 -192t60.5 -269.5t-61.5 -270.5t-176.5 -192.5t-261 -71
q-199 0 -331 142z" />
    <glyph glyph-name="q" unicode="q" horiz-adv-x="1230" 
d="M572 155q138 0 234 95t96 263q0 164 -89 258.5t-223 94.5q-152 0 -243 -99t-91 -254q0 -159 83 -258.5t233 -99.5zM1088 1044v-1584h-179v660q-133 -143 -331 -143q-221 0 -360.5 152t-139.5 382q0 231 141 382t362 151q212 0 337 -146l14 146h156z" />
    <glyph glyph-name="r" unicode="r" horiz-adv-x="736" 
d="M686 1040l13 -175q-37 5 -64 5q-146 0 -232 -101t-86 -275v-494h-177v1044h146l21 -140q123 138 327 138q34 0 52 -2z" />
    <glyph glyph-name="s" unicode="s" horiz-adv-x="1005" 
d="M500 -23q-58 0 -116 9t-124 37t-112 71.5t-68.5 120t-4.5 174.5h182q-13 -44 -9.5 -78.5t13 -60t30.5 -44t44 -30.5t53 -19t57 -10t57 -3q121 0 191.5 34t68.5 102q0 56 -31 84q-26 23 -72.5 40.5t-84.5 26t-112 22.5t-168 42q-217 73 -212 279q1 130 122.5 211.5
t307.5 81.5q34 0 68.5 -3.5t75.5 -12.5t76.5 -23.5t72 -37t61 -53.5t44 -72t21.5 -93t-7 -117h-181q9 38 9.5 69.5t-8 54.5t-22.5 41.5t-34.5 30.5t-42 20.5t-48 13t-50 6.5t-49.5 2q-108 0 -175 -32.5t-67 -87.5q0 -46 28 -68q26 -21 71.5 -37t83.5 -24.5t112 -21.5
q114 -27 173 -47q213 -77 213 -295q0 -80 -35 -140t-97 -95t-138.5 -51.5t-166.5 -16.5z" />
    <glyph glyph-name="t" unicode="t" horiz-adv-x="737" 
d="M660 166v-166q-30 0 -85 -1q-50 -2 -93 0t-79 8.5t-63.5 25.5t-46.5 51t-29 85t-10 128v576h-165v171h165v242h175v-242h228v-171h-228v-576q0 -44 3 -65.5t17.5 -39.5t41.5 -23.5t77 -5.5q38 0 92 3z" />
    <glyph glyph-name="u" unicode="u" horiz-adv-x="1119" 
d="M541 -23q-229 0 -335.5 137t-106.5 385v545h178v-545q0 -63 5.5 -110t22 -94.5t44.5 -77.5t76.5 -48.5t115.5 -18.5q140 0 214 89.5t86 242.5v562h179v-1044h-150l-16 116q-128 -139 -313 -139z" />
    <glyph glyph-name="v" unicode="v" horiz-adv-x="1250" 
d="M969 1044h203l-461 -1044h-170l-463 1044h204l346 -800z" />
    <glyph glyph-name="w" unicode="w" horiz-adv-x="1654" 
d="M78 1044h187l239 -756l253 756h144l256 -757l234 757h184l-328 -1044h-180l-238 705l-235 -705h-175z" />
    <glyph glyph-name="x" unicode="x" horiz-adv-x="1224" 
d="M319 0h-220l396 535l-382 509h222l272 -361l273 361h225l-387 -509l406 -535h-229l-288 388z" />
    <glyph glyph-name="y" unicode="y" horiz-adv-x="1268" 
d="M491 -541h-180l231 541l-464 1045h204l355 -821l350 820h203z" />
    <glyph glyph-name="z" unicode="z" horiz-adv-x="1139" 
d="M1040 0h-941v127l663 747h-633v170h911v-135l-667 -740h667v-169z" />
    <glyph glyph-name="braceleft" unicode="{" horiz-adv-x="769" 
d="M648 1381h-89q-73 0 -103 -18.5t-30 -69.5q0 -30 21 -170q21 -164 21 -230q0 -122 -81 -191q81 -71 81 -192q0 -67 -21 -231q-21 -137 -21 -169q0 -51 30 -69.5t103 -18.5h89v-170h-87q-138 0 -222.5 61.5t-84.5 198.5q0 58 22 201q19 122 19 195q0 120 -155 110v167
q155 -12 155 110q0 73 -19 194q-22 144 -22 202q0 71 24 122.5t67 80.5t96.5 42.5t119.5 13.5h87v-169z" />
    <glyph glyph-name="bar" unicode="|" horiz-adv-x="495" 
d="M333 -369h-172v1955h172v-1955z" />
    <glyph glyph-name="braceright" unicode="}" horiz-adv-x="770" 
d="M473 895q0 -122 155 -110v-167q-155 10 -155 -110q0 -65 20 -195q23 -148 23 -201q0 -71 -24 -122.5t-67.5 -81t-97 -43t-119.5 -13.5h-88v170h90q73 0 103 18.5t30 69.5q0 30 -15 125v6q-2 19 -4 27q0 2 -0.5 5.5t-0.5 5.5q-22 145 -22 231q0 122 81 191q-81 73 -81 192
q0 85 22 230q0 3 0.5 9.5t1.5 9.5q3 23 6 38q12 93 12 113q0 51 -30 69.5t-103 18.5h-90v169h88q66 0 119.5 -13.5t97 -42.5t67.5 -80.5t24 -122.5q0 -51 -23 -202q-20 -129 -20 -194z" />
    <glyph glyph-name="asciitilde" unicode="~" horiz-adv-x="1117" 
d="M843 762h173q14 -165 -48 -250.5t-185 -85.5q-61 0 -115 18t-153 71q-84 45 -119.5 59t-69.5 14q-37 0 -49.5 -37.5t-5.5 -130.5h-170q-15 162 46.5 249t182.5 87q62 0 115 -18.5t155 -72.5q81 -44 117 -57.5t70 -13.5q40 0 51.5 35.5t4.5 132.5z" />
    <glyph glyph-name="exclamdown" unicode="&#xa1;" horiz-adv-x="429" 
d="M215 888q-47 0 -81.5 33.5t-34.5 80.5q0 48 34.5 80.5t81.5 32.5q49 0 82 -32.5t33 -80.5t-33 -81t-82 -33zM125 772h179l12 -1067h-203z" />
    <glyph glyph-name="cent" unicode="&#xa2;" horiz-adv-x="1191" 
d="M291 553q0 -163 63 -262.5t164 -130.5v768q-99 -36 -163 -131.5t-64 -243.5zM690 939v-784q88 22 142.5 86.5t65.5 166.5h188q-15 -176 -122.5 -288.5t-273.5 -137.5v-148h-172v146q-185 30 -302 179.5t-117 385.5q0 222 118.5 373t300.5 187v150h172v-143
q177 -22 286.5 -143.5t114.5 -300.5h-188q-8 112 -62.5 181.5t-150.5 89.5z" />
    <glyph glyph-name="sterling" unicode="&#xa3;" horiz-adv-x="1130" 
d="M1030 174v-174h-931v159q121 19 199.5 91t78.5 183q0 89 -64 199h-197v169h104q-46 102 -46 211q0 175 123.5 286.5t303.5 111.5q111 0 195 -37.5t134.5 -103.5t75.5 -150t24 -183h-190q0 152 -60 225.5t-184 73.5q-98 0 -164 -61t-66 -155q0 -55 16 -103.5t52 -114.5
h463v-169h-371q41 -99 41 -192q0 -155 -103 -266h566z" />
    <glyph glyph-name="currency" unicode="&#xa4;" horiz-adv-x="1109" 
d="M553 391q96 0 158 63t62 157q0 95 -62 157.5t-158 62.5q-95 0 -156 -62.5t-61 -157.5t61 -157.5t156 -62.5zM950 611q0 -113 -60 -209l119 -113l-128 -119l-113 111q-98 -58 -215 -58q-115 0 -213 58l-114 -111l-127 121l119 111q-61 95 -61 209t61 209l-119 114l127 117
l115 -109q99 58 212 58q116 0 213 -60l115 111l128 -117l-119 -115q60 -94 60 -208z" />
    <glyph glyph-name="yen" unicode="&#xa5;" horiz-adv-x="1389" 
d="M861 743h284v-157h-364v-48h364v-157h-364v-371h-176v371h-360v157h360v48h-360v157h281l-427 670h218l379 -619l379 619h214z" />
    <glyph glyph-name="brokenbar" unicode="&#xa6;" horiz-adv-x="455" 
d="M313 645h-173v739h173v-739zM313 -295h-173v741h173v-741z" />
    <glyph glyph-name="section" unicode="&#xa7;" horiz-adv-x="1280" 
d="M734 346q93 7 153 52.5t60 122.5q0 75 -72.5 124t-233.5 84q-75 16 -115 31q-195 -26 -195 -178q0 -71 74 -124t190 -77q72 -13 139 -35zM1139 528q0 -102 -52.5 -178t-140.5 -120q90 -90 90 -231q0 -99 -56 -172.5t-147 -110t-203 -36.5q-191 0 -308.5 104.5
t-139.5 316.5h187q24 -131 88.5 -190.5t177.5 -59.5q93 0 151.5 39t58.5 104q0 53 -23 88t-90.5 66t-191.5 57q-59 13 -113 33t-107.5 52.5t-92.5 72.5t-63 95t-24 118q0 105 51 180t138 118q-85 88 -85 210q0 148 105.5 237t269.5 89q99 0 177.5 -31.5t128 -87.5t77.5 -128
t33 -157h-182q-23 121 -78.5 176t-157.5 55q-80 0 -130.5 -38.5t-50.5 -105.5q0 -76 67 -120t191 -69q445 -88 445 -376z" />
    <glyph glyph-name="dieresis" unicode="&#xa8;" horiz-adv-x="1254" 
d="M720 1376q41 0 70.5 -28.5t29.5 -69.5q0 -39 -29.5 -67.5t-70.5 -28.5q-32 0 -57.5 18.5t-35.5 47.5q-10 -29 -36 -47.5t-58 -18.5q-41 0 -70.5 28.5t-29.5 67.5q0 41 29.5 69.5t70.5 28.5q32 0 58 -19t36 -48q10 30 35.5 48.5t57.5 18.5z" />
    <glyph glyph-name="copyright" unicode="&#xa9;" horiz-adv-x="1721" 
d="M860 1290q-121 0 -230 -45.5t-187 -123t-124 -184.5t-46 -226t46 -226t124 -184.5t187 -122.5t230 -45q162 0 297 76.5t212.5 209.5t77.5 292t-77.5 292t-212.5 210t-297 77zM868 1162q168 0 277 -100t113 -277h-186q-18 204 -204 204q-104 0 -165.5 -78.5t-61.5 -197.5
q0 -122 62 -198.5t159 -76.5q191 0 208 202h191q-17 -180 -125 -278t-283 -98q-169 0 -285 123.5t-116 323.5q0 204 118.5 327.5t297.5 123.5zM860 1460q157 0 298.5 -59t243 -159t161 -238.5t59.5 -292.5t-59.5 -293t-161 -239t-243 -158.5t-298.5 -58.5t-298 58.5
t-242.5 158.5t-161 238.5t-59.5 293.5q0 154 59.5 292.5t161 238.5t242.5 159t298 59z" />
    <glyph glyph-name="guillemotleft" unicode="&#xab;" horiz-adv-x="1078" 
d="M931 124h-188l-320 372l320 372h188l-319 -372zM655 124h-189l-320 372l320 372h189l-319 -372z" />
    <glyph glyph-name="logicalnot" unicode="&#xac;" horiz-adv-x="992" 
d="M892 386h-173v240h-620v169h793v-409z" />
    <glyph glyph-name="registered" unicode="&#xae;" horiz-adv-x="1058" 
d="M529 775q144 0 234 89t90 229q0 137 -90 225t-234 88t-233.5 -88t-89.5 -225q0 -140 89.5 -229t233.5 -89zM495 1211v-79h17q29 0 39 1q36 6 36 37q0 25 -17 33t-45 8h-30zM529 1524q196 0 323 -121.5t127 -309.5q0 -192 -127 -314.5t-323 -122.5q-197 0 -324 122.5
t-127 314.5q0 188 127 309.5t324 121.5zM661 1076q18 -25 23 -65q7 -41 18.5 -68t22 -36.5t23 -19t17.5 -18.5h-165q-25 45 -40 123q-2 16 -7 21t-21 5h-37v-149h-124v458h143q54 0 95.5 -11.5t72.5 -46t31 -89.5q0 -65 -52 -104z" />
    <glyph glyph-name="macron" unicode="&#xaf;" horiz-adv-x="995" 
d="M705 1201h-416v148h416v-148z" />
    <glyph glyph-name="degree" unicode="&#xb0;" horiz-adv-x="720" 
d="M361 1410q111 0 185.5 -71t74.5 -180q0 -108 -74.5 -179.5t-185.5 -71.5q-112 0 -187 71.5t-75 179.5q0 109 75 180t187 71zM361 1241q-41 0 -63.5 -21.5t-22.5 -60.5t22.5 -60.5t63.5 -21.5q40 0 62 21.5t22 60.5t-22 60.5t-62 21.5z" />
    <glyph glyph-name="plusminus" unicode="&#xb1;" horiz-adv-x="1086" 
d="M629 727h358v-169h-358v-372h-171v372h-359v169h359v369h171v-369zM987 0h-888v169h888v-169z" />
    <glyph glyph-name="acute" unicode="&#xb4;" horiz-adv-x="817" 
d="M384 1134h-160l170 300h198z" />
    <glyph glyph-name="paragraph" unicode="&#xb6;" horiz-adv-x="1110" 
d="M1011 1384v-1586h-173v1418h-115v-1418h-172v791q-69 0 -97 2q-112 7 -194 64.5t-121.5 143.5t-39.5 188t39.5 188t121.5 143.5t194 63.5q32 2 109 2h448z" />
    <glyph glyph-name="periodcentered" unicode="&#xb7;" horiz-adv-x="439" 
d="M219 737q51 0 86 -33.5t35 -84.5q0 -50 -35 -85t-86 -35t-85.5 35t-34.5 85q0 51 34.5 84.5t85.5 33.5z" />
    <glyph glyph-name="cedilla" unicode="&#xb8;" horiz-adv-x="1367" 
d="M584 -244q70 0 98 43q23 38 -9 72q-40 43 -140 43q-35 0 -79 -6l135 252h170l-65 -118q52 -15 87.5 -53.5t49 -86t5 -99t-37 -94t-85 -70t-132.5 -27.5q-95 0 -148 39v170q51 -42 76.5 -53.5t74.5 -11.5z" />
    <glyph glyph-name="guillemotright" unicode="&#xbb;" horiz-adv-x="1035" 
d="M633 496l-320 -372h-188l319 372l-319 372h188zM910 496l-320 -372h-189l319 372l-319 372h189z" />
    <glyph glyph-name="questiondown" unicode="&#xbf;" horiz-adv-x="1095" 
d="M562 880q-46 0 -81.5 33.5t-35.5 80.5q0 50 35 82t82 32q48 0 81.5 -33t33.5 -81q0 -47 -33 -80.5t-82 -33.5zM473 804h182q-2 -155 -41.5 -244t-171.5 -218q-82 -81 -115.5 -144.5t-33.5 -137.5q0 -101 63 -157.5t176 -56.5q135 0 206.5 86t69.5 240h185
q12 -219 -118.5 -359.5t-344.5 -140.5q-202 0 -316.5 110.5t-114.5 277.5q0 205 202 394q77 71 112 119.5t47 97t13 133.5z" />
    <glyph glyph-name="Agrave" unicode="&#xc0;" horiz-adv-x="1479" 
d="M969 553l-229 577l-233 -577h462zM99 0l563 1410h151l566 -1410h-189l-150 377h-604l-153 -377h-184zM646 1908l167 -297h-158l-204 297h195z" />
    <glyph glyph-name="Aacute" unicode="&#xc1;" horiz-adv-x="1479" 
d="M969 553l-229 577l-233 -577h462zM99 0l563 1410h151l566 -1410h-189l-150 377h-604l-153 -377h-184zM1020 1901l-205 -296h-157l167 296h195z" />
    <glyph glyph-name="Acircumflex" unicode="&#xc2;" horiz-adv-x="1479" 
d="M969 553l-229 577l-233 -577h462zM99 0l563 1410h151l566 -1410h-189l-150 377h-604l-153 -377h-184zM978 1612h-177l-63 111l-65 -111h-175l184 297h114z" />
    <glyph glyph-name="Atilde" unicode="&#xc3;" horiz-adv-x="1479" 
d="M969 553l-229 577l-233 -577h462zM99 0l563 1410h151l566 -1410h-189l-150 377h-604l-153 -377h-184zM637 1824q43 0 126 -26q54 -17 59 -18q-4 17 0 37h136q14 -86 -18.5 -134t-101.5 -48q-46 0 -127 26q-37 12 -59 17v-5q0 -17 1 -30h-136q-13 84 19.5 132.5
t100.5 48.5z" />
    <glyph glyph-name="Adieresis" unicode="&#xc4;" horiz-adv-x="1479" 
d="M969 553l-229 577l-233 -577h462zM99 0l563 1410h151l566 -1410h-189l-150 377h-604l-153 -377h-184zM586 1810q39 0 67.5 -28t28.5 -68q0 -39 -28.5 -67t-67.5 -28q-41 0 -70 28t-29 67q0 40 29 68t70 28zM861 1810q40 0 69 -28t29 -68q0 -39 -29 -67t-69 -28t-68.5 28
t-28.5 67q0 40 28.5 68t68.5 28z" />
    <glyph glyph-name="Aring" unicode="&#xc5;" horiz-adv-x="1479" 
d="M969 553l-229 577l-233 -577h462zM739 1757q-28 0 -28 -32t28 -32q29 0 29 32t-29 32zM99 0l563 1410h151l566 -1410h-189l-150 377h-604l-153 -377h-184zM739 1895q75 0 126.5 -47t51.5 -123t-51.5 -124t-126.5 -48t-127.5 48t-52.5 124t52 123t128 47z" />
    <glyph glyph-name="AE" unicode="&#xc6;" horiz-adv-x="1816" 
d="M680 553v409l-164 -409h164zM1706 171v-171h-1026v377h-235l-152 -377h-184l563 1410h1012v-174h-825v-436h679v-174h-679v-455h847z" />
    <glyph glyph-name="Ccedilla" unicode="&#xc7;" horiz-adv-x="1572" 
d="M813 -23l-35 -63q65 -19 102 -64.5t37 -114.5q0 -66 -37.5 -113t-93 -67t-120.5 -20q-93 0 -145 39v168q50 -42 74.5 -53.5t73.5 -11.5q95 0 95 58q0 57 -108 57q-48 0 -115 -10l111 207q-113 19 -210 71q-164 85 -254.5 249.5t-90.5 396.5q0 153 38 276.5t103 206.5
t156 139t192.5 80.5t216.5 24.5q267 0 442.5 -151.5t208.5 -429.5h-182q-25 199 -147 305.5t-322 106.5q-247 0 -387.5 -143.5t-140.5 -414.5q0 -276 137 -418t381 -142q220 0 343 106t145 299h182q-29 -273 -201 -421t-449 -153z" />
    <glyph glyph-name="Egrave" unicode="&#xc8;" horiz-adv-x="1286" 
d="M1166 0h-1026v1410h1006v-174h-826v-436h679v-174h-679v-455h846v-171zM767 1611h-158l-204 297h195z" />
    <glyph glyph-name="Eacute" unicode="&#xc9;" horiz-adv-x="1286" 
d="M1166 0h-1026v1410h1006v-174h-826v-436h679v-174h-679v-455h846v-171zM668 1605h-158l167 296h196z" />
    <glyph glyph-name="Ecircumflex" unicode="&#xca;" horiz-adv-x="1286" 
d="M1166 0h-1026v1410h1006v-174h-826v-436h679v-174h-679v-455h846v-171zM712 1612l-63 111l-65 -111h-175l184 297h114l182 -297h-177z" />
    <glyph glyph-name="Edieresis" unicode="&#xcb;" horiz-adv-x="1286" 
d="M1166 0h-1026v1410h1006v-174h-826v-436h679v-174h-679v-455h846v-171zM497 1810q39 0 67.5 -28t28.5 -68q0 -39 -28.5 -67t-67.5 -28q-41 0 -70 28t-29 67q0 40 29 68t70 28zM772 1810q40 0 69 -28t29 -68q0 -39 -29 -67t-69 -28t-68.5 28t-28.5 67q0 40 28.5 68
t68.5 28z" />
    <glyph glyph-name="Igrave" unicode="&#xcc;" horiz-adv-x="565" 
d="M315 0h-174v1403h174v-1403zM405 1611h-159l-204 297h195z" />
    <glyph glyph-name="Iacute" unicode="&#xcd;" horiz-adv-x="565" 
d="M368 0h-174v1403h174v-1403zM299 1605h-158l167 296h196z" />
    <glyph glyph-name="Icircumflex" unicode="&#xce;" horiz-adv-x="553" 
d="M363 0h-174v1403h174v-1403zM338 1612l-63 111l-65 -111h-175l184 297h114l182 -297h-177z" />
    <glyph glyph-name="Idieresis" unicode="&#xcf;" horiz-adv-x="572" 
d="M388 0h-174v1403h174v-1403zM148 1810q39 0 67.5 -28t28.5 -68q0 -39 -28.5 -67t-67.5 -28q-41 0 -70 28t-29 67q0 40 29 68t70 28zM423 1810q40 0 69 -28t29 -68q0 -39 -29 -67t-69 -28t-68.5 28t-28.5 67q0 40 28.5 68t68.5 28z" />
    <glyph glyph-name="Ntilde" unicode="&#xd1;" horiz-adv-x="1354" 
d="M313 0h-173v1404h152l750 -1073v1073h171v-1404h-146l-754 1082v-1082zM586 1824q43 0 126 -26q64 -20 73 -20q24 0 24 -9q-3 -8 -17 -10q-12 0 -19 14t-2 44h136q14 -86 -18.5 -134t-101.5 -48q-46 0 -127 26q-37 12 -59 17q0 -23 1 -35h-136q-13 84 19.5 132.5
t100.5 48.5z" />
    <glyph glyph-name="Ograve" unicode="&#xd2;" horiz-adv-x="1586" 
d="M792 -33q-220 0 -377.5 91.5t-236.5 256t-79 386.5q0 340 180 536t513 196t513.5 -197.5t180.5 -534.5q0 -341 -184 -537.5t-510 -196.5zM792 139q253 0 385.5 145.5t132.5 416.5q0 275 -131 417.5t-387 142.5t-387.5 -142.5t-131.5 -417.5q0 -274 132.5 -418t386.5 -144
zM970 1635h-159l-204 297h195z" />
    <glyph glyph-name="Oacute" unicode="&#xd3;" horiz-adv-x="1586" 
d="M792 -33q-220 0 -377.5 91.5t-236.5 256t-79 386.5q0 340 180 536t513 196t513.5 -197.5t180.5 -534.5q0 -341 -184 -537.5t-510 -196.5zM792 139q253 0 385.5 145.5t132.5 416.5q0 275 -131 417.5t-387 142.5t-387.5 -142.5t-131.5 -417.5q0 -274 132.5 -418t386.5 -144
zM811 1629h-158l167 296h196z" />
    <glyph glyph-name="Ocircumflex" unicode="&#xd4;" horiz-adv-x="1586" 
d="M792 139q253 0 385.5 145.5t132.5 416.5q0 275 -131 417.5t-387 142.5t-387.5 -142.5t-131.5 -417.5q0 -274 132.5 -418t386.5 -144zM792 -33q-220 0 -377.5 91.5t-236.5 256t-79 386.5q0 340 180 536t513 196t513.5 -197.5t180.5 -534.5q0 -341 -184 -537.5t-510 -196.5
zM1032 1636h-177l-63 111l-65 -111h-175l184 297h114z" />
    <glyph glyph-name="Otilde" unicode="&#xd5;" horiz-adv-x="1586" 
d="M792 139q253 0 385.5 145.5t132.5 416.5q0 275 -131 417.5t-387 142.5t-387.5 -142.5t-131.5 -417.5q0 -274 132.5 -418t386.5 -144zM792 -33q-220 0 -377.5 91.5t-236.5 256t-79 386.5q0 340 180 536t513 196t513.5 -197.5t180.5 -534.5q0 -341 -184 -537.5t-510 -196.5
zM691 1848q43 0 126 -26q54 -17 59 -18q-4 17 0 37h136q14 -86 -18.5 -134t-101.5 -48q-46 0 -127 26q-37 12 -59 17v-5q0 -17 1 -30h-136q-13 84 19.5 132.5t100.5 48.5z" />
    <glyph glyph-name="Odieresis" unicode="&#xd6;" horiz-adv-x="1586" 
d="M792 -33q-220 0 -377.5 91.5t-236.5 256t-79 386.5q0 340 180 536t513 196t513.5 -197.5t180.5 -534.5q0 -341 -184 -537.5t-510 -196.5zM792 139q253 0 385.5 145.5t132.5 416.5q0 275 -131 417.5t-387 142.5t-387.5 -142.5t-131.5 -417.5q0 -274 132.5 -418t386.5 -144
zM640 1834q39 0 67.5 -28t28.5 -68q0 -39 -28.5 -67t-67.5 -28q-41 0 -70 28t-29 67q0 40 29 68t70 28zM915 1834q40 0 69 -28t29 -68q0 -39 -29 -67t-69 -28t-68.5 28t-28.5 67q0 40 28.5 68t68.5 28z" />
    <glyph glyph-name="multiply" unicode="&#xd7;" horiz-adv-x="1013" 
d="M631 635l282 -272l-125 -120l-280 273l-284 -273l-125 120l284 272l-284 270l125 119l284 -270l280 270l125 -118z" />
    <glyph glyph-name="Oslash" unicode="&#xd8;" horiz-adv-x="1662" 
d="M304 701q0 -230 93 -367l746 843q-124 84 -320 84q-256 0 -387.5 -142.5t-131.5 -417.5zM823 139q253 0 385.5 145.5t132.5 416.5q0 223 -87 360l-745 -839q122 -83 314 -83zM823 -33q-257 0 -429 125l-84 -94h-211l179 204q-149 194 -149 499q0 340 180.5 536t513.5 196
q261 0 435 -127l90 101h214l-191 -213q146 -190 146 -493q0 -341 -184 -537.5t-510 -196.5z" />
    <glyph glyph-name="Ugrave" unicode="&#xd9;" 
d="M733 -33q-277 0 -435 171.5t-158 470.5v801h175v-801q0 -231 109.5 -350.5t308.5 -119.5q213 0 317.5 116t104.5 354v801h172v-801q0 -306 -154.5 -474t-439.5 -168zM831 1611h-158l-204 297h195z" />
    <glyph glyph-name="Uacute" unicode="&#xda;" 
d="M733 -33q-277 0 -435 171.5t-158 470.5v801h175v-801q0 -231 109.5 -350.5t308.5 -119.5q213 0 317.5 116t104.5 354v801h172v-801q0 -306 -154.5 -474t-439.5 -168zM765 1605h-158l167 296h196z" />
    <glyph glyph-name="Ucircumflex" unicode="&#xdb;" 
d="M733 -33q-277 0 -435 171.5t-158 470.5v801h175v-801q0 -231 109.5 -350.5t308.5 -119.5q213 0 317.5 116t104.5 354v801h172v-801q0 -306 -154.5 -474t-439.5 -168zM809 1612l-63 111l-65 -111h-175l184 297h114l182 -297h-177z" />
    <glyph glyph-name="Udieresis" unicode="&#xdc;" 
d="M733 -33q-277 0 -435 171.5t-158 470.5v801h175v-801q0 -231 109.5 -350.5t308.5 -119.5q213 0 317.5 116t104.5 354v801h172v-801q0 -306 -154.5 -474t-439.5 -168zM594 1810q39 0 67.5 -28t28.5 -68q0 -39 -28.5 -67t-67.5 -28q-41 0 -70 28t-29 67q0 40 29 68t70 28z
M869 1810q40 0 69 -28t29 -68q0 -39 -29 -67t-69 -28t-68.5 28t-28.5 67q0 40 28.5 68t68.5 28z" />
    <glyph glyph-name="Yacute" unicode="&#xdd;" horiz-adv-x="1329" 
d="M752 0h-177v533l-497 877h197l392 -684l385 684h198l-498 -877v-533zM701 1605h-158l167 296h196z" />
    <glyph glyph-name="germandbls" unicode="&#xdf;" horiz-adv-x="1132" 
d="M290 987v-1323h-187v1318l-1 1q0 2 0.5 6t0.5 5v53h8q33 169 160 266t305 97q198 0 313 -105.5t115 -269.5q0 -94 -45.5 -174.5t-122.5 -133.5q193 -101 193 -330q0 -128 -67 -225.5t-177.5 -147t-247.5 -49.5q-18 0 -56 2l-6 174q30 -3 58 -3q137 0 219 65.5t82 181.5
q0 105 -77.5 164.5t-242.5 59.5h-89v174h89q118 0 207 65t89 169q0 102 -65 155t-175 53q-119 0 -193 -64t-87 -184z" />
    <glyph glyph-name="agrave" unicode="&#xe0;" horiz-adv-x="1034" 
d="M755 416v66q-114 5 -244 -14q-116 -19 -181.5 -65t-65.5 -116t41.5 -105.5t131.5 -35.5q160 0 239 63t79 207zM574 894h-71q-94 0 -153.5 -60.5t-56.5 -176.5h-178q-13 168 98.5 282t289.5 114h71q170 0 262 -85t98 -238v-729h-144l-19 123q-64 -77 -156.5 -112.5
t-192.5 -35.5q-154 0 -249 80t-95 227q0 146 115.5 235t301.5 116q82 11 122.5 13t137.5 1v58q-7 98 -50.5 143t-130.5 45zM542 1551l168 -297h-159l-204 297h195z" />
    <glyph glyph-name="aacute" unicode="&#xe1;" horiz-adv-x="1034" 
d="M755 416v66q-114 5 -244 -14q-116 -19 -181.5 -65t-65.5 -116t41.5 -105.5t131.5 -35.5q160 0 239 63t79 207zM574 894h-71q-94 0 -153.5 -60.5t-56.5 -176.5h-178q-13 168 98.5 282t289.5 114h71q170 0 262 -85t98 -238v-729h-144l-19 123q-64 -77 -156.5 -112.5
t-192.5 -35.5q-154 0 -249 80t-95 227q0 146 115.5 235t301.5 116q82 11 122.5 13t137.5 1v58q-7 98 -50.5 143t-130.5 45zM756 1544l-205 -296h-158l167 296h196z" />
    <glyph glyph-name="acircumflex" unicode="&#xe2;" horiz-adv-x="1034" 
d="M755 416v66q-114 5 -244 -14q-116 -19 -181.5 -65t-65.5 -116t41.5 -105.5t131.5 -35.5q160 0 239 63t79 207zM574 894h-71q-94 0 -153.5 -60.5t-56.5 -176.5h-178q-13 168 98.5 282t289.5 114h71q170 0 262 -85t98 -238v-729h-144l-19 123q-64 -77 -156.5 -112.5
t-192.5 -35.5q-154 0 -249 80t-95 227q0 146 115.5 235t301.5 116q82 11 122.5 13t137.5 1v58q-7 98 -50.5 143t-130.5 45zM772 1255h-177l-63 111l-65 -111h-175l184 297h114z" />
    <glyph glyph-name="atilde" unicode="&#xe3;" horiz-adv-x="1034" 
d="M755 416v66q-114 5 -244 -14q-116 -19 -181.5 -65t-65.5 -116t41.5 -105.5t131.5 -35.5q160 0 239 63t79 207zM574 894h-71q-94 0 -153.5 -60.5t-56.5 -176.5h-178q-13 168 98.5 282t289.5 114h71q170 0 262 -85t98 -238v-729h-144l-19 123q-64 -77 -156.5 -112.5
t-192.5 -35.5q-154 0 -249 80t-95 227q0 146 115.5 235t301.5 116q82 11 122.5 13t137.5 1v58q-7 98 -50.5 143t-130.5 45zM431 1467q43 0 126 -26q54 -17 59 -18q-4 17 0 37h136q14 -86 -18.5 -134t-101.5 -48q-46 0 -127 26q-37 12 -59 17v-5q0 -17 1 -30h-136
q-13 84 19.5 132.5t100.5 48.5z" />
    <glyph glyph-name="adieresis" unicode="&#xe4;" horiz-adv-x="1034" 
d="M755 416v66q-114 5 -244 -14q-116 -19 -181.5 -65t-65.5 -116t41.5 -105.5t131.5 -35.5q160 0 239 63t79 207zM574 894h-71q-94 0 -153.5 -60.5t-56.5 -176.5h-178q-13 168 98.5 282t289.5 114h71q170 0 262 -85t98 -238v-729h-144l-19 123q-64 -77 -156.5 -112.5
t-192.5 -35.5q-154 0 -249 80t-95 227q0 146 115.5 235t301.5 116q82 11 122.5 13t137.5 1v58q-7 98 -50.5 143t-130.5 45zM380 1453q39 0 67.5 -28t28.5 -68q0 -39 -28.5 -67t-67.5 -28q-41 0 -70 28t-29 67q0 40 29 68t70 28zM655 1453q40 0 69 -28t29 -68q0 -39 -29 -67
t-69 -28t-68.5 28t-28.5 67q0 40 28.5 68t68.5 28z" />
    <glyph glyph-name="aring" unicode="&#xe5;" horiz-adv-x="1034" 
d="M755 416v66q-114 5 -244 -14q-116 -19 -181.5 -65t-65.5 -116t41.5 -105.5t131.5 -35.5q160 0 239 63t79 207zM533 1400q-28 0 -28 -32t28 -32q29 0 29 32t-29 32zM574 894h-71q-94 0 -153.5 -60.5t-56.5 -176.5h-178q-13 168 98.5 282t289.5 114h71q170 0 262 -85
t98 -238v-729h-144l-19 123q-64 -77 -156.5 -112.5t-192.5 -35.5q-154 0 -249 80t-95 227q0 146 115.5 235t301.5 116q82 11 122.5 13t137.5 1v58q-7 98 -50.5 143t-130.5 45zM533 1538q75 0 126.5 -47t51.5 -123t-51.5 -124t-126.5 -48t-127.5 48t-52.5 124t52 123t128 47z
" />
    <glyph glyph-name="ae" unicode="&#xe6;" horiz-adv-x="1825" 
d="M755 416v66q-114 5 -244 -14q-116 -19 -181.5 -65t-65.5 -116t41.5 -105.5t131.5 -35.5q160 0 239 63t79 207zM955 633h600q-24 99 -98.5 169.5t-193.5 70.5q-117 0 -196.5 -64.5t-111.5 -175.5zM574 884h-71q-95 0 -154 -56t-56 -171h-178q-13 168 98.5 282t289.5 114
h71q236 0 321 -162q140 153 368 153q199 0 330 -127.5t148 -336.5l2 -29v-88h-803q13 -149 96 -232t227 -83q132 0 217.5 69.5t88.5 183.5h178q-5 -123 -71.5 -220.5t-175 -150.5t-237.5 -53q-194 0 -329 117v-93h-162l-4 76q-66 -63 -150 -82t-196 -19q-154 0 -249 80
t-95 227q0 146 115.5 235t301.5 116q111 16 227 14h33q0 36 -0.5 56.5t-4.5 49.5t-10.5 45t-20 34.5t-32.5 28t-47.5 16t-65.5 6.5z" />
    <glyph glyph-name="ccedilla" unicode="&#xe7;" horiz-adv-x="1166" 
d="M670 -18l-40 -72q65 -19 102 -64.5t37 -114.5q0 -66 -37.5 -113t-93 -67t-120.5 -20q-93 0 -145 39v168q50 -42 74.5 -53.5t73.5 -11.5q95 0 95 58q0 57 -108 57q-48 0 -115 -10l110 205q-196 27 -310.5 166t-114.5 350q8 247 150.5 396t368.5 149q202 0 338 -117
t152 -307h-177q-9 113 -94 180.5t-219 67.5q-150 0 -244.5 -100t-96.5 -271q0 -159 90 -251.5t244 -92.5q137 0 224 67t96 181h177q-14 -164 -128 -279.5t-289 -139.5z" />
    <glyph glyph-name="egrave" unicode="&#xe8;" horiz-adv-x="1152" 
d="M276 633h609q-23 99 -97.5 169.5t-192.5 70.5t-203.5 -65.5t-115.5 -174.5zM584 -23q-122 0 -221 46t-161 123.5t-94 174.5t-30 202q3 147 67 265t182 187t268 69q198 0 330 -128t147 -336l2 -29v-88h-814q13 -149 96.5 -232t227.5 -83q131 0 217 70t89 183h180
q-10 -186 -149.5 -305t-336.5 -119zM594 1542l168 -297h-159l-204 297h195z" />
    <glyph glyph-name="eacute" unicode="&#xe9;" horiz-adv-x="1152" 
d="M276 633h609q-23 99 -97.5 169.5t-192.5 70.5t-203.5 -65.5t-115.5 -174.5zM584 -23q-122 0 -221 46t-161 123.5t-94 174.5t-30 202q3 147 67 265t182 187t268 69q198 0 330 -128t147 -336l2 -29v-88h-814q13 -149 96.5 -232t227.5 -83q131 0 217 70t89 183h180
q-10 -186 -149.5 -305t-336.5 -119zM808 1535l-205 -296h-158l167 296h196z" />
    <glyph glyph-name="ecircumflex" unicode="&#xea;" horiz-adv-x="1152" 
d="M276 633h609q-23 99 -97.5 169.5t-192.5 70.5t-203.5 -65.5t-115.5 -174.5zM584 -23q-122 0 -221 46t-161 123.5t-94 174.5t-30 202q3 147 67 265t182 187t268 69q198 0 330 -128t147 -336l2 -29v-88h-814q13 -149 96.5 -232t227.5 -83q131 0 217 70t89 183h180
q-10 -186 -149.5 -305t-336.5 -119zM824 1246h-177l-63 111l-65 -111h-175l184 297h114z" />
    <glyph glyph-name="edieresis" unicode="&#xeb;" horiz-adv-x="1152" 
d="M276 633h609q-23 99 -97.5 169.5t-192.5 70.5t-203.5 -65.5t-115.5 -174.5zM584 -23q-122 0 -221 46t-161 123.5t-94 174.5t-30 202q3 147 67 265t182 187t268 69q198 0 330 -128t147 -336l2 -29v-88h-814q13 -149 96.5 -232t227.5 -83q131 0 217 70t89 183h180
q-10 -186 -149.5 -305t-336.5 -119zM432 1444q39 0 67.5 -28t28.5 -68q0 -39 -28.5 -67t-67.5 -28q-41 0 -70 28t-29 67q0 40 29 68t70 28zM707 1444q40 0 69 -28t29 -68q0 -39 -29 -67t-69 -28t-68.5 28t-28.5 67q0 40 28.5 68t68.5 28z" />
    <glyph glyph-name="igrave" unicode="&#xec;" horiz-adv-x="577" 
d="M322 0h-177v1044h177v-1044zM412 1198h-159l-204 297h195z" />
    <glyph glyph-name="iacute" unicode="&#xed;" horiz-adv-x="577" 
d="M375 0h-177v1044h177v-1044zM306 1192h-158l167 296h196z" />
    <glyph glyph-name="icircumflex" unicode="&#xee;" horiz-adv-x="565" 
d="M370 0h-177v1044h177v-1044zM345 1199l-63 111l-65 -111h-175l184 297h114l182 -297h-177z" />
    <glyph glyph-name="idieresis" unicode="&#xef;" horiz-adv-x="584" 
d="M395 0h-177v1044h177v-1044zM155 1397q39 0 67.5 -28t28.5 -68q0 -39 -28.5 -67t-67.5 -28q-41 0 -70 28t-29 67q0 40 29 68t70 28zM430 1397q40 0 69 -28t29 -68q0 -39 -29 -67t-69 -28t-68.5 28t-28.5 67q0 40 28.5 68t68.5 28z" />
    <glyph glyph-name="ntilde" unicode="&#xf1;" horiz-adv-x="1171" 
d="M317 0h-177v1044h145l22 -139q122 139 326 139q122 0 209 -37.5t136 -109t71 -163t22 -212.5v-522h-175v522q0 180 -58.5 264t-200.5 84q-147 0 -233.5 -101t-86.5 -275v-494zM532 1458q43 0 126 -26q64 -20 73 -20q24 0 24 -9q-3 -8 -17 -10q-12 0 -19 14t-2 44h136
q14 -86 -18.5 -134t-101.5 -48q-46 0 -127 26q-37 12 -59 17q0 -23 1 -35h-136q-13 84 19.5 132.5t100.5 48.5z" />
    <glyph glyph-name="ograve" unicode="&#xf2;" horiz-adv-x="1150" 
d="M576 -23q-233 0 -365.5 143t-132.5 388q0 249 133 392.5t365 143.5q235 0 365.5 -147t130.5 -389q0 -239 -129 -385t-367 -146zM576 150q163 0 239 97.5t76 260.5q0 80 -17.5 144t-53.5 114t-98 77t-146 27q-161 0 -239 -96.5t-78 -265.5q0 -56 9.5 -106t32.5 -97
t58 -80.5t90.5 -54t126.5 -20.5zM754 1245h-159l-204 297h195z" />
    <glyph glyph-name="oacute" unicode="&#xf3;" horiz-adv-x="1150" 
d="M576 -23q-233 0 -365.5 143t-132.5 388q0 249 133 392.5t365 143.5q235 0 365.5 -147t130.5 -389q0 -239 -129 -385t-367 -146zM576 150q163 0 239 97.5t76 260.5q0 80 -17.5 144t-53.5 114t-98 77t-146 27q-161 0 -239 -96.5t-78 -265.5q0 -56 9.5 -106t32.5 -97
t58 -80.5t90.5 -54t126.5 -20.5zM595 1239h-158l167 296h196z" />
    <glyph glyph-name="ocircumflex" unicode="&#xf4;" horiz-adv-x="1150" 
d="M576 150q163 0 239 97.5t76 260.5q0 80 -17.5 144t-53.5 114t-98 77t-146 27q-161 0 -239 -96.5t-78 -265.5q0 -56 9.5 -106t32.5 -97t58 -80.5t90.5 -54t126.5 -20.5zM576 -23q-233 0 -365.5 143t-132.5 388q0 249 133 392.5t365 143.5q235 0 365.5 -147t130.5 -389
q0 -239 -129 -385t-367 -146zM816 1246h-177l-63 111l-65 -111h-175l184 297h114z" />
    <glyph glyph-name="otilde" unicode="&#xf5;" horiz-adv-x="1150" 
d="M576 150q163 0 239 97.5t76 260.5q0 80 -17.5 144t-53.5 114t-98 77t-146 27q-161 0 -239 -96.5t-78 -265.5q0 -56 9.5 -106t32.5 -97t58 -80.5t90.5 -54t126.5 -20.5zM576 -23q-233 0 -365.5 143t-132.5 388q0 249 133 392.5t365 143.5q235 0 365.5 -147t130.5 -389
q0 -239 -129 -385t-367 -146zM475 1458q43 0 126 -26q54 -17 59 -18q-4 17 0 37h136q14 -86 -18.5 -134t-101.5 -48q-46 0 -127 26q-37 12 -59 17v-5q0 -17 1 -30h-136q-13 84 19.5 132.5t100.5 48.5z" />
    <glyph glyph-name="odieresis" unicode="&#xf6;" horiz-adv-x="1150" 
d="M576 -23q-233 0 -365.5 143t-132.5 388q0 249 133 392.5t365 143.5q235 0 365.5 -147t130.5 -389q0 -239 -129 -385t-367 -146zM576 150q163 0 239 97.5t76 260.5q0 80 -17.5 144t-53.5 114t-98 77t-146 27q-161 0 -239 -96.5t-78 -265.5q0 -56 9.5 -106t32.5 -97
t58 -80.5t90.5 -54t126.5 -20.5zM424 1444q39 0 67.5 -28t28.5 -68q0 -39 -28.5 -67t-67.5 -28q-41 0 -70 28t-29 67q0 40 29 68t70 28zM699 1444q40 0 69 -28t29 -68q0 -39 -29 -67t-69 -28t-68.5 28t-28.5 67q0 40 28.5 68t68.5 28z" />
    <glyph glyph-name="divide" unicode="&#xf7;" horiz-adv-x="1086" 
d="M543 1047q52 0 87 -34t35 -85q0 -50 -35 -84t-87 -34q-48 0 -84.5 34t-36.5 84q0 51 36 85t85 34zM987 558h-888v169h888v-169zM543 470q52 0 87 -33.5t35 -83.5t-35 -84.5t-87 -34.5q-49 0 -85 34.5t-36 84.5t36 83.5t85 33.5z" />
    <glyph glyph-name="oslash" unicode="&#xf8;" horiz-adv-x="1195" 
d="M259 508q0 -89 30 -174q10 -24 15 -34l394 552q-51 18 -122 18q-125 0 -188 -50q-129 -97 -129 -312zM576 150q163 0 239 97.5t76 260.5q0 156 -63 246l-409 -573q65 -31 157 -31zM576 -23q-146 0 -260 61l-21 -29h-201l97 135q-113 139 -113 364q0 249 133 392.5
t365 143.5q125 0 227 -47l32 47h202l-101 -141q136 -144 136 -395q0 -239 -129 -385t-367 -146z" />
    <glyph glyph-name="ugrave" unicode="&#xf9;" horiz-adv-x="1119" 
d="M541 -23q-229 0 -335.5 137t-106.5 385v545h178v-545q0 -63 5.5 -110t22 -94.5t44.5 -77.5t76.5 -48.5t115.5 -18.5q140 0 214 89.5t86 242.5v562h179v-1044h-150l-16 116q-128 -139 -313 -139zM708 1217h-159l-204 297h195z" />
    <glyph glyph-name="uacute" unicode="&#xfa;" horiz-adv-x="1119" 
d="M541 -23q-229 0 -335.5 137t-106.5 385v545h178v-545q0 -63 5.5 -110t22 -94.5t44.5 -77.5t76.5 -48.5t115.5 -18.5q140 0 214 89.5t86 242.5v562h179v-1044h-150l-16 116q-128 -139 -313 -139zM549 1211h-158l167 296h196z" />
    <glyph glyph-name="ucircumflex" unicode="&#xfb;" horiz-adv-x="1119" 
d="M541 -23q-229 0 -335.5 137t-106.5 385v545h178v-545q0 -63 5.5 -110t22 -94.5t44.5 -77.5t76.5 -48.5t115.5 -18.5q140 0 214 89.5t86 242.5v562h179v-1044h-150l-16 116q-128 -139 -313 -139zM593 1218l-63 111l-65 -111h-175l184 297h114l182 -297h-177z" />
    <glyph glyph-name="udieresis" unicode="&#xfc;" horiz-adv-x="1119" 
d="M541 -23q-229 0 -335.5 137t-106.5 385v545h178v-545q0 -63 5.5 -110t22 -94.5t44.5 -77.5t76.5 -48.5t115.5 -18.5q140 0 214 89.5t86 242.5v562h179v-1044h-150l-16 116q-128 -139 -313 -139zM378 1416q39 0 67.5 -28t28.5 -68q0 -39 -28.5 -67t-67.5 -28q-41 0 -70 28
t-29 67q0 40 29 68t70 28zM653 1416q40 0 69 -28t29 -68q0 -39 -29 -67t-69 -28t-68.5 28t-28.5 67q0 40 28.5 68t68.5 28z" />
    <glyph glyph-name="yacute" unicode="&#xfd;" horiz-adv-x="1268" 
d="M491 -541h-180l231 541l-464 1045h204l355 -821l350 820h203zM622 1211h-158l167 296h196z" />
    <glyph glyph-name="ydieresis" unicode="&#xff;" horiz-adv-x="1268" 
d="M491 -541h-180l231 541l-464 1045h204l355 -821l350 820h203zM451 1416q39 0 67.5 -28t28.5 -68q0 -39 -28.5 -67t-67.5 -28q-41 0 -70 28t-29 67q0 40 29 68t70 28zM726 1416q40 0 69 -28t29 -68q0 -39 -29 -67t-69 -28t-68.5 28t-28.5 67q0 40 28.5 68t68.5 28z" />
    <glyph glyph-name="Amacron" unicode="&#x100;" horiz-adv-x="1479" 
d="M969 553l-229 577l-233 -577h462zM99 0l563 1410h151l566 -1410h-189l-150 377h-604l-153 -377h-184zM943 1818v-146h-410v146h410z" />
    <glyph glyph-name="amacron" unicode="&#x101;" horiz-adv-x="1034" 
d="M755 416v66q-114 5 -244 -14q-116 -19 -181.5 -65t-65.5 -116t41.5 -105.5t131.5 -35.5q160 0 239 63t79 207zM574 894h-71q-94 0 -153.5 -60.5t-56.5 -176.5h-178q-13 168 98.5 282t289.5 114h71q170 0 262 -85t98 -238v-729h-144l-19 123q-64 -77 -156.5 -112.5
t-192.5 -35.5q-154 0 -249 80t-95 227q0 146 115.5 235t301.5 116q82 11 122.5 13t137.5 1v58q-7 98 -50.5 143t-130.5 45zM737 1461v-146h-410v146h410z" />
    <glyph glyph-name="Abreve" unicode="&#x102;" horiz-adv-x="1479" 
d="M969 553l-229 577l-233 -577h462zM99 0l563 1410h151l566 -1410h-189l-150 377h-604l-153 -377h-184zM816 1886h146q11 -143 -45 -229.5t-178 -86.5q-123 0 -180 86.5t-45 229.5h145q-14 -167 80 -167q90 0 77 167z" />
    <glyph glyph-name="abreve" unicode="&#x103;" horiz-adv-x="1034" 
d="M755 416v66q-114 5 -244 -14q-116 -19 -181.5 -65t-65.5 -116t41.5 -105.5t131.5 -35.5q160 0 239 63t79 207zM574 894h-71q-94 0 -153.5 -60.5t-56.5 -176.5h-178q-13 168 98.5 282t289.5 114h71q170 0 262 -85t98 -238v-729h-144l-19 123q-64 -77 -156.5 -112.5
t-192.5 -35.5q-154 0 -249 80t-95 227q0 146 115.5 235t301.5 116q82 11 122.5 13t137.5 1v58q-7 98 -50.5 143t-130.5 45zM610 1529h146q11 -143 -45 -229.5t-178 -86.5q-123 0 -180 86.5t-45 229.5h145q-14 -167 80 -167q90 0 77 167z" />
    <glyph glyph-name="Aogonek" unicode="&#x104;" horiz-adv-x="1479" 
d="M969 553l-229 577l-233 -577h462zM1167 59l-127 318h-604l-153 -377h-184l563 1410h151l566 -1410h-84q-96 -30 -165 -119q-61 -79 -50 -138q7 -42 53 -52q35 -7 71.5 23t95.5 108v-201q-80 -75 -189 -75q-48 0 -87.5 16t-67.5 58t-28 107q0 108 66 198t173 134z" />
    <glyph glyph-name="aogonek" unicode="&#x105;" horiz-adv-x="1034" 
d="M755 416v66q-114 5 -244 -14q-116 -19 -181.5 -65t-65.5 -116t41.5 -105.5t131.5 -35.5q160 0 239 63t79 207zM778 77l-7 47q-64 -77 -156.5 -112.5t-192.5 -35.5q-154 0 -249 80t-95 227q0 146 115.5 235t301.5 116q82 11 122.5 13t137.5 1v58q-7 98 -50.5 143
t-130.5 45h-71q-94 0 -153.5 -60.5t-56.5 -176.5h-178q-13 168 98.5 282t289.5 114h71q170 0 262 -85t98 -238v-729h-77q-95 -30 -163 -120q-60 -79 -49 -137q7 -42 53 -51q35 -7 71.5 23t95.5 108v-201q-80 -75 -189 -75q-48 0 -87.5 16t-67.5 58t-28 107q0 120 80 216
t205 132z" />
    <glyph glyph-name="Cacute" unicode="&#x106;" horiz-adv-x="1572" 
d="M793 -23q-197 0 -351 83q-164 85 -254.5 249.5t-90.5 396.5q0 153 38 276.5t103 206.5t156 139t192.5 80.5t216.5 24.5q267 0 442.5 -151.5t208.5 -429.5h-182q-25 199 -147 305.5t-322 106.5q-247 0 -387.5 -143.5t-140.5 -414.5q0 -276 137 -418t381 -142
q220 0 343 106t145 299h182q-30 -278 -207.5 -426t-462.5 -148zM822 1629h-158l167 296h196z" />
    <glyph glyph-name="cacute" unicode="&#x107;" horiz-adv-x="1166" 
d="M590 -23q-233 0 -372.5 143.5t-139.5 378.5q8 247 150.5 396t368.5 149q202 0 338 -117t152 -307h-177q-9 113 -94 180.5t-219 67.5q-150 0 -244.5 -100t-96.5 -271q0 -159 90 -251.5t244 -92.5q137 0 224 67t96 181h177q-15 -184 -154 -304t-343 -120zM616 1239h-158
l167 296h196z" />
    <glyph glyph-name="Ccircumflex" unicode="&#x108;" horiz-adv-x="1572" 
d="M793 -23q-197 0 -351 83q-164 85 -254.5 249.5t-90.5 396.5q0 153 38 276.5t103 206.5t156 139t192.5 80.5t216.5 24.5q267 0 442.5 -151.5t208.5 -429.5h-182q-25 199 -147 305.5t-322 106.5q-247 0 -387.5 -143.5t-140.5 -414.5q0 -276 137 -418t381 -142
q220 0 343 106t145 299h182q-30 -278 -207.5 -426t-462.5 -148zM866 1636l-63 111l-65 -111h-175l184 297h114l182 -297h-177z" />
    <glyph glyph-name="ccircumflex" unicode="&#x109;" horiz-adv-x="1166" 
d="M590 -23q-233 0 -372.5 143.5t-139.5 378.5q8 247 150.5 396t368.5 149q202 0 338 -117t152 -307h-177q-9 113 -94 180.5t-219 67.5q-150 0 -244.5 -100t-96.5 -271q0 -159 90 -251.5t244 -92.5q137 0 224 67t96 181h177q-15 -184 -154 -304t-343 -120zM660 1246l-63 111
l-65 -111h-175l184 297h114l182 -297h-177z" />
    <glyph glyph-name="Cdotaccent" unicode="&#x10a;" horiz-adv-x="1572" 
d="M793 -23q-197 0 -351 83q-164 85 -254.5 249.5t-90.5 396.5q0 153 38 276.5t103 206.5t156 139t192.5 80.5t216.5 24.5q267 0 442.5 -151.5t208.5 -429.5h-182q-25 199 -147 305.5t-322 106.5q-247 0 -387.5 -143.5t-140.5 -414.5q0 -276 137 -418t381 -142
q220 0 343 106t145 299h182q-30 -278 -207.5 -426t-462.5 -148zM803 1851q42 0 72.5 -29.5t30.5 -71.5q0 -41 -30.5 -70t-72.5 -29q-43 0 -73 29t-30 70q0 43 30 72t73 29z" />
    <glyph glyph-name="cdotaccent" unicode="&#x10b;" horiz-adv-x="1166" 
d="M590 -23q-233 0 -372.5 143.5t-139.5 378.5q8 247 150.5 396t368.5 149q202 0 338 -117t152 -307h-177q-9 113 -94 180.5t-219 67.5q-150 0 -244.5 -100t-96.5 -271q0 -159 90 -251.5t244 -92.5q137 0 224 67t96 181h177q-15 -184 -154 -304t-343 -120zM597 1461
q42 0 72.5 -29.5t30.5 -71.5q0 -41 -30.5 -70t-72.5 -29q-43 0 -73 29t-30 70q0 43 30 72t73 29z" />
    <glyph glyph-name="Ccaron" unicode="&#x10c;" horiz-adv-x="1572" 
d="M793 -23q-197 0 -351 83q-164 85 -254.5 249.5t-90.5 396.5q0 153 38 276.5t103 206.5t156 139t192.5 80.5t216.5 24.5q267 0 442.5 -151.5t208.5 -429.5h-182q-25 199 -147 305.5t-322 106.5q-247 0 -387.5 -143.5t-140.5 -414.5q0 -276 137 -418t381 -142
q220 0 343 106t145 299h182q-30 -278 -207.5 -426t-462.5 -148zM1043 1924l-183 -296h-113l-185 296h177l64 -111l65 111h175z" />
    <glyph glyph-name="ccaron" unicode="&#x10d;" horiz-adv-x="1166" 
d="M590 -23q-233 0 -372.5 143.5t-139.5 378.5q8 247 150.5 396t368.5 149q202 0 338 -117t152 -307h-177q-9 113 -94 180.5t-219 67.5q-150 0 -244.5 -100t-96.5 -271q0 -159 90 -251.5t244 -92.5q137 0 224 67t96 181h177q-15 -184 -154 -304t-343 -120zM837 1534
l-183 -296h-113l-185 296h177l64 -111l65 111h175z" />
    <glyph glyph-name="Dcaron" unicode="&#x10e;" horiz-adv-x="1456" 
d="M540 1238h-220v-1067h220q133 0 230.5 13.5t181.5 49t135.5 95.5t80.5 154t29 223q0 265 -170 398.5t-487 133.5zM540 0h-400v1410h400q387 0 612 -183t225 -521q0 -518 -412 -648q-178 -58 -425 -58zM730 1900h175l-183 -296h-113l-185 296h177l64 -111z" />
    <glyph glyph-name="dcaron" unicode="&#x10f;" horiz-adv-x="1164" 
d="M571 155q138 0 234 95t96 263q0 164 -88.5 258.5t-222.5 94.5q-152 0 -242.5 -99.5t-90.5 -253.5q0 -159 82.5 -258.5t231.5 -99.5zM579 -23q-220 0 -360.5 153t-140.5 383q0 148 61.5 268t177 191.5t264.5 71.5q201 0 326 -134v500h178v-1410h-146l-19 132
q-135 -155 -341 -155zM644 1900h175l-183 -296h-113l-185 296h177l64 -111z" />
    <glyph glyph-name="Emacron" unicode="&#x112;" horiz-adv-x="1286" 
d="M1166 0h-1026v1410h1006v-174h-826v-436h679v-174h-679v-455h846v-171zM854 1672h-410v146h410v-146z" />
    <glyph glyph-name="emacron" unicode="&#x113;" horiz-adv-x="1152" 
d="M276 633h609q-23 99 -97.5 169.5t-192.5 70.5t-203.5 -65.5t-115.5 -174.5zM584 -23q-122 0 -221 46t-161 123.5t-94 174.5t-30 202q3 147 67 265t182 187t268 69q198 0 330 -128t147 -336l2 -29v-88h-814q13 -149 96.5 -232t227.5 -83q131 0 217 70t89 183h180
q-10 -186 -149.5 -305t-336.5 -119zM789 1452v-146h-410v146h410z" />
    <glyph glyph-name="Edotaccent" unicode="&#x116;" horiz-adv-x="1286" 
d="M1166 0h-1026v1410h1006v-174h-826v-436h679v-174h-679v-455h846v-171zM649 1827q42 0 72.5 -29.5t30.5 -71.5q0 -41 -30.5 -70t-72.5 -29q-43 0 -73 29t-30 70q0 43 30 72t73 29z" />
    <glyph glyph-name="edotaccent" unicode="&#x117;" horiz-adv-x="1152" 
d="M276 633h609q-23 99 -97.5 169.5t-192.5 70.5t-203.5 -65.5t-115.5 -174.5zM584 -23q-122 0 -221 46t-161 123.5t-94 174.5t-30 202q3 147 67 265t182 187t268 69q198 0 330 -128t147 -336l2 -29v-88h-814q13 -149 96.5 -232t227.5 -83q131 0 217 70t89 183h180
q-10 -186 -149.5 -305t-336.5 -119zM584 1461q42 0 72.5 -29.5t30.5 -71.5q0 -41 -30.5 -70t-72.5 -29q-43 0 -73 29t-30 70q0 43 30 72t73 29z" />
    <glyph glyph-name="Eogonek" unicode="&#x118;" horiz-adv-x="1286" 
d="M851 0h-711v1410h1006v-174h-826v-436h679v-174h-679v-455h846v-171h-88q-95 -30 -163 -120q-60 -79 -49 -137q7 -42 53 -51q35 -7 71.5 23t95.5 108v-201q-80 -75 -189 -75q-48 0 -87.5 16t-67.5 58t-28 107q0 79 36.5 150t100.5 122z" />
    <glyph glyph-name="eogonek" unicode="&#x119;" horiz-adv-x="1152" 
d="M276 633h609q-23 99 -97.5 169.5t-192.5 70.5t-203.5 -65.5t-115.5 -174.5zM479 -14q-129 24 -222.5 106t-137 193.5t-41.5 237.5q3 147 67 265t182 187t268 69q198 0 330 -128t147 -336l2 -29v-88h-814q13 -149 96.5 -232t227.5 -83q131 0 217 70t89 183h180
q-7 -135 -86 -237.5t-204 -150.5l6 -3q-3 0 -8.5 -1t-8.5 -1q-40 -13 -77 -21q-91 -40 -148 -127q-53 -81 -33 -132q12 -30 50 -38q35 -7 71.5 23t95.5 108v-201q-80 -75 -189 -75q-48 0 -87.5 16t-67.5 58t-28 107q0 153 123 260z" />
    <glyph glyph-name="Ecaron" unicode="&#x11a;" horiz-adv-x="1286" 
d="M1166 0h-1026v1410h1006v-174h-826v-436h679v-174h-679v-455h846v-171zM889 1900l-183 -296h-113l-185 296h177l64 -111l65 111h175z" />
    <glyph glyph-name="ecaron" unicode="&#x11b;" horiz-adv-x="1152" 
d="M276 633h609q-23 99 -97.5 169.5t-192.5 70.5t-203.5 -65.5t-115.5 -174.5zM584 -23q-122 0 -221 46t-161 123.5t-94 174.5t-30 202q3 147 67 265t182 187t268 69q198 0 330 -128t147 -336l2 -29v-88h-814q13 -149 96.5 -232t227.5 -83q131 0 217 70t89 183h180
q-10 -186 -149.5 -305t-336.5 -119zM649 1534h175l-183 -296h-113l-185 296h177l64 -111z" />
    <glyph glyph-name="Gcircumflex" unicode="&#x11c;" horiz-adv-x="1570" 
d="M781 -33q-313 0 -497.5 198t-184.5 534q0 343 186 538.5t512 195.5q183 0 322.5 -62.5t226.5 -189.5t103 -307h-172q-31 197 -149.5 292t-330.5 95q-256 0 -392 -146t-136 -416q0 -268 136 -415.5t381 -147.5q201 0 325 101t150 283h-532v172h741v-692h-164l-10 191
q-75 -99 -202.5 -161.5t-312.5 -62.5zM1037 1636h-177l-63 111l-65 -111h-175l184 297h114z" />
    <glyph glyph-name="gcircumflex" unicode="&#x11d;" horiz-adv-x="1230" 
d="M572 155q138 0 234 95t96 263q0 164 -89 258.5t-223 94.5q-152 0 -242.5 -99.5t-90.5 -253.5q0 -159 83 -258.5t232 -99.5zM933 1044h155v-1064q0 -289 -140 -418q-107 -102 -341 -102t-339 102q-127 112 -139 349h179q5 -48 11 -80t18.5 -67t32.5 -56.5t51.5 -40
t77.5 -27t108 -8.5q131 0 193.5 39t85.5 119q24 91 24 190v141q-134 -144 -331 -144q-220 0 -360.5 153t-140.5 383q0 231 139.5 381t363.5 150q204 0 330 -137zM821 1246h-177l-63 111l-65 -111h-175l184 297h114z" />
    <glyph glyph-name="Gbreve" unicode="&#x11e;" horiz-adv-x="1570" 
d="M781 -33q-313 0 -497.5 198t-184.5 534q0 343 186 538.5t512 195.5q183 0 322.5 -62.5t226.5 -189.5t103 -307h-172q-31 197 -149.5 292t-330.5 95q-256 0 -392 -146t-136 -416q0 -268 136 -415.5t381 -147.5q201 0 325 101t150 283h-532v172h741v-692h-164l-10 191
q-75 -99 -202.5 -161.5t-312.5 -62.5zM875 1910h146q11 -143 -45 -229.5t-178 -86.5q-123 0 -180 86.5t-45 229.5h145q-14 -167 80 -167q90 0 77 167z" />
    <glyph glyph-name="gbreve" unicode="&#x11f;" horiz-adv-x="1230" 
d="M572 155q138 0 234 95t96 263q0 164 -89 258.5t-223 94.5q-152 0 -242.5 -99.5t-90.5 -253.5q0 -159 83 -258.5t232 -99.5zM933 1044h155v-1064q0 -289 -140 -418q-107 -102 -341 -102t-339 102q-127 112 -139 349h179q5 -48 11 -80t18.5 -67t32.5 -56.5t51.5 -40
t77.5 -27t108 -8.5q131 0 193.5 39t85.5 119q24 91 24 190v141q-134 -144 -331 -144q-220 0 -360.5 153t-140.5 383q0 231 139.5 381t363.5 150q204 0 330 -137zM659 1520h146q11 -143 -45 -229.5t-178 -86.5q-123 0 -180 86.5t-45 229.5h145q-14 -167 80 -167q90 0 77 167z
" />
    <glyph glyph-name="Gdotaccent" unicode="&#x120;" horiz-adv-x="1570" 
d="M781 -33q-313 0 -497.5 198t-184.5 534q0 343 186 538.5t512 195.5q183 0 322.5 -62.5t226.5 -189.5t103 -307h-172q-31 197 -149.5 292t-330.5 95q-256 0 -392 -146t-136 -416q0 -268 136 -415.5t381 -147.5q201 0 325 101t150 283h-532v172h741v-692h-164l-10 191
q-75 -99 -202.5 -161.5t-312.5 -62.5zM797 1851q42 0 72.5 -29.5t30.5 -71.5q0 -41 -30.5 -70t-72.5 -29q-43 0 -73 29t-30 70q0 43 30 72t73 29z" />
    <glyph glyph-name="gdotaccent" unicode="&#x121;" horiz-adv-x="1230" 
d="M572 155q138 0 234 95t96 263q0 164 -89 258.5t-223 94.5q-152 0 -242.5 -99.5t-90.5 -253.5q0 -159 83 -258.5t232 -99.5zM933 1044h155v-1064q0 -289 -140 -418q-107 -102 -341 -102t-339 102q-127 112 -139 349h179q5 -48 11 -80t18.5 -67t32.5 -56.5t51.5 -40
t77.5 -27t108 -8.5q131 0 193.5 39t85.5 119q24 91 24 190v141q-134 -144 -331 -144q-220 0 -360.5 153t-140.5 383q0 231 139.5 381t363.5 150q204 0 330 -137zM581 1461q42 0 72.5 -29.5t30.5 -71.5q0 -41 -30.5 -70t-72.5 -29q-43 0 -73 29t-30 70q0 43 30 72t73 29z" />
    <glyph glyph-name="Hcircumflex" unicode="&#x124;" horiz-adv-x="1409" 
d="M318 0h-178v1410h178v-593h777v593h173v-1410h-173v648h-777v-648zM767 1612l-63 111l-65 -111h-175l184 297h114l182 -297h-177z" />
    <glyph glyph-name="hcircumflex" unicode="&#x125;" horiz-adv-x="1171" 
d="M317 0h-177v1410h177v-494q121 128 316 128q122 0 209 -37.5t136 -109t71 -163t22 -212.5v-522h-175v522q0 180 -58.5 264t-200.5 84q-147 0 -233.5 -101t-86.5 -275v-494zM674 1566l-63 111l-65 -111h-175l184 297h114l182 -297h-177z" />
    <glyph glyph-name="Idotaccent" unicode="&#x130;" horiz-adv-x="497" 
d="M335 0h-174v1403h174v-1403zM247 1827q42 0 72.5 -29.5t30.5 -71.5q0 -41 -30.5 -70t-72.5 -29q-43 0 -73 29t-30 70q0 43 30 72t73 29z" />
    <glyph glyph-name="dotlessi" unicode="&#x131;" horiz-adv-x="532" 
d="M354 0h-177v1044h177v-1044z" />
    <glyph glyph-name="IJ" unicode="&#x132;" horiz-adv-x="1899" 
d="M346 0h-174v1403h174v-1403zM577 665h173q-14 -257 96.5 -391.5t321.5 -134.5q212 0 317 116.5t105 353.5v801h170v-801q0 -306 -154 -474t-438 -168q-291 0 -449 186.5t-142 511.5z" />
    <glyph glyph-name="ij" unicode="&#x133;" horiz-adv-x="1040" 
d="M351 0h-176v1044h176v-1044zM264 1129q-62 0 -93 36.5t-31 84.5t31 83t93 35q67 0 94.5 -35.5t27.5 -82.5q0 -29 -8.5 -54t-37.5 -46t-76 -21zM779 1129q-64 0 -94.5 36.5t-30.5 84.5q0 47 31 82.5t94 35.5q67 0 94 -35.5t27 -82.5q0 -21 -5 -40t-17 -38.5t-37.5 -31
t-61.5 -11.5zM397 -539v163h6q212 0 247 16.5t35 117.5v1288h174l-2 -1288q0 -66 -4.5 -111.5t-15.5 -80t-29 -53.5t-44.5 -32t-62.5 -16t-83.5 -5.5t-106.5 0.5q-73 1 -114 1z" />
    <glyph glyph-name="uni0136" unicode="&#x136;" horiz-adv-x="1402" 
d="M321 -2h-181v1412h181v-666l742 666h278l-710 -630l714 -780h-252l-593 663l-179 -160v-505zM785 -160l-143 -330h-153l121 330h175z" />
    <glyph glyph-name="uni0137" unicode="&#x137;" horiz-adv-x="1266" 
d="M318 -2h-178v1412h178v-880l566 514h261l-520 -474l508 -575h-237l-401 458l-177 -162v-293zM716 -139l-143 -330h-153l121 330h175z" />
    <glyph glyph-name="Lacute" unicode="&#x139;" horiz-adv-x="1264" 
d="M136 0v1410h177v-1241h831v-169h-1008zM305 1607h-157l167 296h195z" />
    <glyph glyph-name="lacute" unicode="&#x13a;" horiz-adv-x="504" 
d="M339 0h-178v1410h178v-1410zM270 1560h-158l167 296h196z" />
    <glyph glyph-name="uni013B" unicode="&#x13b;" horiz-adv-x="1268" 
d="M140 0v1410h177v-1241h831v-169h-1008zM716 -139l-143 -330h-153l121 330h175z" />
    <glyph glyph-name="uni013C" unicode="&#x13c;" horiz-adv-x="495" 
d="M360 0h-178v1410h178v-1410zM343 -139l-143 -330h-153l121 330h175z" />
    <glyph glyph-name="Lcaron" unicode="&#x13d;" horiz-adv-x="1329" 
d="M201 0v1410h177v-1241h831v-169h-1008zM511 1902l-183 -296h-113l-185 296h177l64 -111l65 111h175z" />
    <glyph glyph-name="lcaron" unicode="&#x13e;" horiz-adv-x="493" 
d="M335 0h-178v1410h178v-1410zM487 1855l-183 -296h-113l-185 296h177l64 -111l65 111h175z" />
    <glyph glyph-name="Nacute" unicode="&#x143;" horiz-adv-x="1354" 
d="M313 0h-173v1404h152l750 -1073v1073h171v-1404h-146l-754 1082v-1082zM706 1605h-158l167 296h196z" />
    <glyph glyph-name="nacute" unicode="&#x144;" horiz-adv-x="1171" 
d="M317 0h-177v1044h145l22 -139q122 139 326 139q122 0 209 -37.5t136 -109t71 -163t22 -212.5v-522h-175v522q0 180 -58.5 264t-200.5 84q-147 0 -233.5 -101t-86.5 -275v-494zM652 1239h-158l167 296h196z" />
    <glyph glyph-name="uni0145" unicode="&#x145;" horiz-adv-x="1354" 
d="M313 0h-173v1404h152l750 -1073v1073h171v-1404h-146l-754 1082v-1082zM760 -139l-143 -330h-153l121 330h175z" />
    <glyph glyph-name="uni0146" unicode="&#x146;" horiz-adv-x="1171" 
d="M317 0h-177v1044h145l22 -139q122 139 326 139q122 0 209 -37.5t136 -109t71 -163t22 -212.5v-522h-175v522q0 180 -58.5 264t-200.5 84q-147 0 -233.5 -101t-86.5 -275v-494zM716 -139l-143 -330h-153l121 330h175z" />
    <glyph glyph-name="Ncaron" unicode="&#x147;" horiz-adv-x="1354" 
d="M313 0h-173v1404h152l750 -1073v1073h171v-1404h-146l-754 1082v-1082zM927 1900l-183 -296h-113l-185 296h177l64 -111l65 111h175z" />
    <glyph glyph-name="ncaron" unicode="&#x148;" horiz-adv-x="1171" 
d="M317 0h-177v1044h145l22 -139q122 139 326 139q122 0 209 -37.5t136 -109t71 -163t22 -212.5v-522h-175v522q0 180 -58.5 264t-200.5 84q-147 0 -233.5 -101t-86.5 -275v-494zM873 1534l-183 -296h-113l-185 296h177l64 -111l65 111h175z" />
    <glyph glyph-name="Omacron" unicode="&#x14c;" horiz-adv-x="1586" 
d="M792 -33q-220 0 -377.5 91.5t-236.5 256t-79 386.5q0 340 180 536t513 196t513.5 -197.5t180.5 -534.5q0 -341 -184 -537.5t-510 -196.5zM792 139q253 0 385.5 145.5t132.5 416.5q0 275 -131 417.5t-387 142.5t-387.5 -142.5t-131.5 -417.5q0 -274 132.5 -418t386.5 -144
zM997 1696h-410v146h410v-146z" />
    <glyph glyph-name="omacron" unicode="&#x14d;" horiz-adv-x="1150" 
d="M576 -23q-233 0 -365.5 143t-132.5 388q0 249 133 392.5t365 143.5q235 0 365.5 -147t130.5 -389q0 -239 -129 -385t-367 -146zM576 150q163 0 239 97.5t76 260.5q0 80 -17.5 144t-53.5 114t-98 77t-146 27q-161 0 -239 -96.5t-78 -265.5q0 -56 9.5 -106t32.5 -97
t58 -80.5t90.5 -54t126.5 -20.5zM781 1306h-410v146h410v-146z" />
    <glyph glyph-name="Ohungarumlaut" unicode="&#x150;" horiz-adv-x="1586" 
d="M792 -33q-220 0 -377.5 91.5t-236.5 256t-79 386.5q0 340 180 536t513 196t513.5 -197.5t180.5 -534.5q0 -341 -184 -537.5t-510 -196.5zM792 139q253 0 385.5 145.5t132.5 416.5q0 275 -131 417.5t-387 142.5t-387.5 -142.5t-131.5 -417.5q0 -274 132.5 -418t386.5 -144
zM657 1644h-158l168 296h195zM886 1644h-158l167 296h196z" />
    <glyph glyph-name="ohungarumlaut" unicode="&#x151;" horiz-adv-x="1150" 
d="M576 -23q-233 0 -365.5 143t-132.5 388q0 249 133 392.5t365 143.5q235 0 365.5 -147t130.5 -389q0 -239 -129 -385t-367 -146zM576 150q163 0 239 97.5t76 260.5q0 80 -17.5 144t-53.5 114t-98 77t-146 27q-161 0 -239 -96.5t-78 -265.5q0 -56 9.5 -106t32.5 -97
t58 -80.5t90.5 -54t126.5 -20.5zM441 1254h-158l168 296h195zM670 1254h-158l167 296h196z" />
    <glyph glyph-name="OE" unicode="&#x152;" horiz-adv-x="2463" 
d="M792 139q253 0 385.5 145.5t132.5 416.5q0 275 -131 417.5t-387 142.5t-387.5 -142.5t-131.5 -417.5q0 -274 132.5 -418t386.5 -144zM792 -33q-220 0 -377.5 91.5t-236.5 256t-79 386.5q0 340 180 536t513 196q342 0 524 -209v186h1005v-174h-826v-436h680v-174h-680
v-455h848v-171h-1027v181q-186 -214 -524 -214z" />
    <glyph glyph-name="oe" unicode="&#x153;" horiz-adv-x="1960" 
d="M576 150q84 0 145.5 26.5t97.5 75t53.5 110.5t18.5 140v16q-2 162 -77.5 257t-237.5 95q-125 0 -188 -50q-129 -97 -129 -312q0 -89 30 -174q66 -184 287 -184zM1088 633h599q-24 99 -98.5 169.5t-193.5 70.5q-117 0 -196.5 -64.5t-110.5 -175.5zM576 -23
q-233 0 -365.5 143t-132.5 388q0 249 133 392.5t365 143.5q137 0 241.5 -54t167.5 -152q67 97 172.5 151.5t237.5 54.5q200 0 331.5 -128t146.5 -336l2 -29v-88h-803q14 -150 96.5 -232.5t226.5 -82.5q132 0 218.5 70t87.5 183h181q-10 -186 -149.5 -305t-337.5 -119
q-134 0 -238 55t-170 150q-61 -98 -165.5 -151.5t-245.5 -53.5z" />
    <glyph glyph-name="Racute" unicode="&#x154;" horiz-adv-x="1334" 
d="M635 1236h-315v-483h376q186 0 264.5 53.5t78.5 187.5q0 70 -21.5 117t-49.5 71.5t-89.5 37t-107.5 14.5t-136 2zM320 584v-584h-180v1410h495q69 0 125 -3.5t117.5 -14.5t108.5 -30t91.5 -50.5t73 -74.5t45.5 -104.5t17 -138.5q0 -105 -43.5 -191t-126.5 -136
q27 -19 49 -46t37 -57t27 -64.5t18.5 -68.5t11.5 -70t6 -68.5t2.5 -64t0.5 -56.5t0 -45q0 -45 2 -127h-172q0 73 -0.5 116t-2 99.5t-5 89t-9.5 73t-14.5 63t-21.5 48t-30 39.5t-39 25.5t-50 17.5q-60 13 -160 14q-102 2 -256 0q-39 -1 -117 -1zM859 1901l-205 -296h-158
l167 296h196z" />
    <glyph glyph-name="racute" unicode="&#x155;" horiz-adv-x="736" 
d="M686 1040l13 -175q-37 5 -64 5q-146 0 -232 -101t-86 -275v-494h-177v1044h146l21 -140q123 138 327 138q34 0 52 -2zM403 1260h-158l167 296h196z" />
    <glyph glyph-name="uni0156" unicode="&#x156;" horiz-adv-x="1334" 
d="M635 1236h-315v-483h376q186 0 264.5 53.5t78.5 187.5q0 70 -21.5 117t-49.5 71.5t-89.5 37t-107.5 14.5t-136 2zM320 584v-584h-180v1410h495q69 0 125 -3.5t117.5 -14.5t108.5 -30t91.5 -50.5t73 -74.5t45.5 -104.5t17 -138.5q0 -105 -43.5 -191t-126.5 -136
q27 -19 49 -46t37 -57t27 -64.5t18.5 -68.5t11.5 -70t6 -68.5t2.5 -64t0.5 -56.5t0 -45q0 -45 2 -127h-172q0 73 -0.5 116t-2 99.5t-5 89t-9.5 73t-14.5 63t-21.5 48t-30 39.5t-39 25.5t-50 17.5q-60 13 -160 14q-102 2 -256 0q-39 -1 -117 -1zM584 -139h175l-143 -330h-153
z" />
    <glyph glyph-name="uni0157" unicode="&#x157;" horiz-adv-x="758" 
d="M708 1040l13 -175q-37 5 -64 5q-146 0 -232 -101t-86 -275v-494h-177v1044h146l21 -140q123 138 327 138q34 0 52 -2zM341 -139l-143 -330h-153l121 330h175z" />
    <glyph glyph-name="Rcaron" unicode="&#x158;" horiz-adv-x="1334" 
d="M635 1236h-315v-483h376q186 0 264.5 53.5t78.5 187.5q0 70 -21.5 117t-49.5 71.5t-89.5 37t-107.5 14.5t-136 2zM320 584v-584h-180v1410h495q69 0 125 -3.5t117.5 -14.5t108.5 -30t91.5 -50.5t73 -74.5t45.5 -104.5t17 -138.5q0 -105 -43.5 -191t-126.5 -136
q27 -19 49 -46t37 -57t27 -64.5t18.5 -68.5t11.5 -70t6 -68.5t2.5 -64t0.5 -56.5t0 -45q0 -45 2 -127h-172q0 73 -0.5 116t-2 99.5t-5 89t-9.5 73t-14.5 63t-21.5 48t-30 39.5t-39 25.5t-50 17.5q-60 13 -160 14q-102 2 -256 0q-39 -1 -117 -1zM700 1900h175l-183 -296h-113
l-185 296h177l64 -111z" />
    <glyph glyph-name="rcaron" unicode="&#x159;" horiz-adv-x="736" 
d="M686 1040l13 -175q-37 5 -64 5q-146 0 -232 -101t-86 -275v-494h-177v1044h146l21 -140q123 138 327 138q34 0 52 -2zM624 1555l-183 -296h-113l-185 296h177l64 -111l65 111h175z" />
    <glyph glyph-name="Sacute" unicode="&#x15a;" horiz-adv-x="1378" 
d="M727 -33q-129 0 -241 33.5t-198 97.5t-131 166.5t-35 230.5h170l10 -92q6 -45 21 -76q33 -81 134 -134.5t272 -53.5q88 0 156 17t105 41t60.5 55t30.5 54.5t7 44.5q3 76 -34 122q-66 84 -280 137q-212 51 -280 74q-206 70 -274 193q-44 78 -41 184q8 170 163 271t379 101
q165 0 289.5 -60t188 -179t42.5 -278h-179q15 79 -2 141.5t-53.5 100t-89 61.5t-101 33t-97.5 9q-158 0 -258.5 -60t-105.5 -146q-3 -68 32 -112q72 -83 278 -131q218 -50 307 -84q210 -82 264 -233q24 -64 22 -144q-4 -174 -156 -279t-375 -105zM740 1629h-158l167 296h196
z" />
    <glyph glyph-name="sacute" unicode="&#x15b;" horiz-adv-x="1005" 
d="M500 -23q-58 0 -116 9t-124 37t-112 71.5t-68.5 120t-4.5 174.5h182q-13 -44 -9.5 -78.5t13 -60t30.5 -44t44 -30.5t53 -19t57 -10t57 -3q121 0 191.5 34t68.5 102q0 56 -31 84q-26 23 -72.5 40.5t-84.5 26t-112 22.5t-168 42q-217 73 -212 279q1 130 122.5 211.5
t307.5 81.5q34 0 68.5 -3.5t75.5 -12.5t76.5 -23.5t72 -37t61 -53.5t44 -72t21.5 -93t-7 -117h-181q9 38 9.5 69.5t-8 54.5t-22.5 41.5t-34.5 30.5t-42 20.5t-48 13t-50 6.5t-49.5 2q-108 0 -175 -32.5t-67 -87.5q0 -46 28 -68q26 -21 71.5 -37t83.5 -24.5t112 -21.5
q114 -27 173 -47q213 -77 213 -295q0 -80 -35 -140t-97 -95t-138.5 -51.5t-166.5 -16.5zM531 1262h-158l167 296h196z" />
    <glyph glyph-name="Scircumflex" unicode="&#x15c;" horiz-adv-x="1378" 
d="M727 -33q-129 0 -241 33.5t-198 97.5t-131 166.5t-35 230.5h170l10 -92q6 -45 21 -76q33 -81 134 -134.5t272 -53.5q88 0 156 17t105 41t60.5 55t30.5 54.5t7 44.5q3 76 -34 122q-66 84 -280 137q-212 51 -280 74q-206 70 -274 193q-44 78 -41 184q8 170 163 271t379 101
q165 0 289.5 -60t188 -179t42.5 -278h-179q15 79 -2 141.5t-53.5 100t-89 61.5t-101 33t-97.5 9q-158 0 -258.5 -60t-105.5 -146q-3 -68 32 -112q72 -83 278 -131q218 -50 307 -84q210 -82 264 -233q24 -64 22 -144q-4 -174 -156 -279t-375 -105zM784 1636l-63 111l-65 -111
h-175l184 297h114l182 -297h-177z" />
    <glyph glyph-name="scircumflex" unicode="&#x15d;" horiz-adv-x="1005" 
d="M500 -23q-58 0 -116 9t-124 37t-112 71.5t-68.5 120t-4.5 174.5h182q-13 -44 -9.5 -78.5t13 -60t30.5 -44t44 -30.5t53 -19t57 -10t57 -3q121 0 191.5 34t68.5 102q0 56 -31 84q-26 23 -72.5 40.5t-84.5 26t-112 22.5t-168 42q-217 73 -212 279q1 130 122.5 211.5
t307.5 81.5q34 0 68.5 -3.5t75.5 -12.5t76.5 -23.5t72 -37t61 -53.5t44 -72t21.5 -93t-7 -117h-181q9 38 9.5 69.5t-8 54.5t-22.5 41.5t-34.5 30.5t-42 20.5t-48 13t-50 6.5t-49.5 2q-108 0 -175 -32.5t-67 -87.5q0 -46 28 -68q26 -21 71.5 -37t83.5 -24.5t112 -21.5
q114 -27 173 -47q213 -77 213 -295q0 -80 -35 -140t-97 -95t-138.5 -51.5t-166.5 -16.5zM575 1269l-63 111l-65 -111h-175l184 297h114l182 -297h-177z" />
    <glyph glyph-name="Scedilla" unicode="&#x15e;" horiz-adv-x="1378" 
d="M789 -31l-39 -70q65 -19 102 -64.5t37 -114.5q0 -66 -37.5 -113t-93 -67t-120.5 -20q-93 0 -145 39v168q50 -42 74.5 -53.5t73.5 -11.5q95 0 95 58q0 57 -108 57q-48 0 -115 -10l110 206q-112 12 -205.5 51t-163.5 103t-105.5 158.5t-26.5 209.5h170l10 -92q6 -45 21 -76
q33 -81 134 -134.5t272 -53.5q88 0 156 17t105 41t60.5 55t30.5 54.5t7 44.5q3 76 -34 122q-66 84 -280 137q-212 51 -280 74q-206 70 -274 193q-44 78 -41 184q8 170 163 271t379 101q165 0 289.5 -60t188 -179t42.5 -278h-179q15 79 -2 141.5t-53.5 100t-89 61.5t-101 33
t-97.5 9q-158 0 -258.5 -60t-105.5 -146q-3 -68 32 -112q72 -83 278 -131q218 -50 307 -84q210 -82 264 -233q24 -64 22 -144q-4 -161 -136 -264t-333 -118z" />
    <glyph glyph-name="scedilla" unicode="&#x15f;" horiz-adv-x="1005" 
d="M322 -199l97 181q-40 5 -76.5 13.5t-76.5 24.5t-72 38t-61 53.5t-43.5 71.5t-21.5 91.5t7 114.5h182q-13 -44 -9.5 -78.5t13 -60t30.5 -44t44 -30.5t53 -19t57 -10t57 -3q121 0 191.5 34t68.5 102q0 56 -31 84q-26 23 -72.5 40.5t-84.5 26t-112 22.5t-168 42
q-217 73 -212 279q1 130 122.5 211.5t307.5 81.5q34 0 68.5 -3.5t75.5 -12.5t76.5 -23.5t72 -37t61 -53.5t44 -72t21.5 -93t-7 -117h-181q9 38 9.5 69.5t-8 54.5t-22.5 41.5t-34.5 30.5t-42 20.5t-48 13t-50 6.5t-49.5 2q-108 0 -175 -32.5t-67 -87.5q0 -46 28 -68
q26 -21 71.5 -37t83.5 -24.5t112 -21.5q114 -27 173 -47q213 -77 213 -295q0 -137 -97 -210.5t-255 -88.5l-27 -48q65 -19 102 -64.5t37 -114.5q0 -66 -37.5 -113t-92.5 -67t-120 -20q-94 0 -146 39v168q50 -42 75 -53.5t74 -11.5q94 0 94 58q0 57 -108 57q-48 0 -114 -10z
" />
    <glyph glyph-name="Scaron" unicode="&#x160;" horiz-adv-x="1378" 
d="M727 -33q-129 0 -241 33.5t-198 97.5t-131 166.5t-35 230.5h170l10 -92q6 -45 21 -76q33 -81 134 -134.5t272 -53.5q88 0 156 17t105 41t60.5 55t30.5 54.5t7 44.5q3 76 -34 122q-66 84 -280 137q-212 51 -280 74q-206 70 -274 193q-44 78 -41 184q8 170 163 271t379 101
q165 0 289.5 -60t188 -179t42.5 -278h-179q15 79 -2 141.5t-53.5 100t-89 61.5t-101 33t-97.5 9q-158 0 -258.5 -60t-105.5 -146q-3 -68 32 -112q72 -83 278 -131q218 -50 307 -84q210 -82 264 -233q24 -64 22 -144q-4 -174 -156 -279t-375 -105zM961 1924l-183 -296h-113
l-185 296h177l64 -111l65 111h175z" />
    <glyph glyph-name="scaron" unicode="&#x161;" horiz-adv-x="1005" 
d="M500 -23q-58 0 -116 9t-124 37t-112 71.5t-68.5 120t-4.5 174.5h182q-13 -44 -9.5 -78.5t13 -60t30.5 -44t44 -30.5t53 -19t57 -10t57 -3q121 0 191.5 34t68.5 102q0 56 -31 84q-26 23 -72.5 40.5t-84.5 26t-112 22.5t-168 42q-217 73 -212 279q1 130 122.5 211.5
t307.5 81.5q34 0 68.5 -3.5t75.5 -12.5t76.5 -23.5t72 -37t61 -53.5t44 -72t21.5 -93t-7 -117h-181q9 38 9.5 69.5t-8 54.5t-22.5 41.5t-34.5 30.5t-42 20.5t-48 13t-50 6.5t-49.5 2q-108 0 -175 -32.5t-67 -87.5q0 -46 28 -68q26 -21 71.5 -37t83.5 -24.5t112 -21.5
q114 -27 173 -47q213 -77 213 -295q0 -80 -35 -140t-97 -95t-138.5 -51.5t-166.5 -16.5zM752 1557l-183 -296h-113l-185 296h177l64 -111l65 111h175z" />
    <glyph glyph-name="uni0162" unicode="&#x162;" horiz-adv-x="1307" 
d="M742 0l-58 -78q65 -19 102 -64.5t37 -114.5q0 -66 -37.5 -113t-93 -67t-120.5 -20q-93 0 -145 39v168q50 -42 74.5 -53.5t73.5 -11.5q95 0 95 58q0 57 -108 57q-48 0 -115 -10l120 224v1224h-468v172h1108v-172h-465v-1238z" />
    <glyph glyph-name="uni0163" unicode="&#x163;" horiz-adv-x="737" 
d="M246 -176l107 201q-50 27 -74.5 90t-24.5 182v576h-165v171h165v242h175v-242h228v-171h-228v-576q0 -44 3 -65.5t17.5 -39.5t41.5 -23.5t77 -5.5q38 0 92 3v-166q-21 0 -74.5 -1t-79.5 0l-24 -43q65 -19 102 -64.5t37 -114.5q0 -66 -37.5 -113t-92.5 -67t-120 -20
q-94 0 -146 39v168q50 -42 75 -53.5t74 -11.5q94 0 94 58q0 57 -108 57q-48 0 -114 -10z" />
    <glyph glyph-name="Tcaron" unicode="&#x164;" horiz-adv-x="1307" 
d="M742 0h-175v1238h-468v172h1108v-172h-465v-1238zM892 1900l-183 -296h-113l-185 296h177l64 -111l65 111h175z" />
    <glyph glyph-name="tcaron" unicode="&#x165;" horiz-adv-x="737" 
d="M660 166v-166q-30 0 -85 -1q-50 -2 -93 0t-79 8.5t-63.5 25.5t-46.5 51t-29 85t-10 128v576h-165v171h165v242h175v-242h228v-171h-228v-576q0 -44 3 -65.5t17.5 -39.5t41.5 -23.5t77 -5.5q38 0 92 3zM583 1781l-183 -296h-113l-185 296h177l64 -111l65 111h175z" />
    <glyph glyph-name="Utilde" unicode="&#x168;" 
d="M733 -33q-277 0 -435 171.5t-158 470.5v801h175v-801q0 -231 109.5 -350.5t308.5 -119.5q213 0 317.5 116t104.5 354v801h172v-801q0 -306 -154.5 -474t-439.5 -168zM645 1824q43 0 126 -26q64 -20 73 -20q24 0 24 -9q-3 -8 -17 -10q-12 0 -19 14t-2 44h136
q14 -86 -18.5 -134t-101.5 -48q-46 0 -127 26q-37 12 -59 17q0 -23 1 -35h-136q-13 84 19.5 132.5t100.5 48.5z" />
    <glyph glyph-name="utilde" unicode="&#x169;" horiz-adv-x="1119" 
d="M541 -23q-229 0 -335.5 137t-106.5 385v545h178v-545q0 -63 5.5 -110t22 -94.5t44.5 -77.5t76.5 -48.5t115.5 -18.5q140 0 214 89.5t86 242.5v562h179v-1044h-150l-16 116q-128 -139 -313 -139zM429 1430q43 0 126 -26q64 -20 73 -20q24 0 24 -9q-3 -8 -17 -10
q-12 0 -19 14t-2 44h136q14 -86 -18.5 -134t-101.5 -48q-46 0 -127 26q-37 12 -59 17q0 -23 1 -35h-136q-13 84 19.5 132.5t100.5 48.5z" />
    <glyph glyph-name="Umacron" unicode="&#x16a;" 
d="M733 -33q-277 0 -435 171.5t-158 470.5v801h175v-801q0 -231 109.5 -350.5t308.5 -119.5q213 0 317.5 116t104.5 354v801h172v-801q0 -306 -154.5 -474t-439.5 -168zM951 1672h-410v146h410v-146z" />
    <glyph glyph-name="umacron" unicode="&#x16b;" horiz-adv-x="1119" 
d="M541 -23q-229 0 -335.5 137t-106.5 385v545h178v-545q0 -63 5.5 -110t22 -94.5t44.5 -77.5t76.5 -48.5t115.5 -18.5q140 0 214 89.5t86 242.5v562h179v-1044h-150l-16 116q-128 -139 -313 -139zM735 1278h-410v146h410v-146z" />
    <glyph glyph-name="Ubreve" unicode="&#x16c;" 
d="M733 -33q-277 0 -435 171.5t-158 470.5v801h175v-801q0 -231 109.5 -350.5t308.5 -119.5q213 0 317.5 116t104.5 354v801h172v-801q0 -306 -154.5 -474t-439.5 -168zM824 1886h146q11 -143 -45 -229.5t-178 -86.5q-123 0 -180 86.5t-45 229.5h145q-14 -167 80 -167
q90 0 77 167z" />
    <glyph glyph-name="ubreve" unicode="&#x16d;" horiz-adv-x="1119" 
d="M541 -23q-229 0 -335.5 137t-106.5 385v545h178v-545q0 -63 5.5 -110t22 -94.5t44.5 -77.5t76.5 -48.5t115.5 -18.5q140 0 214 89.5t86 242.5v562h179v-1044h-150l-16 116q-128 -139 -313 -139zM608 1492h146q11 -143 -45 -229.5t-178 -86.5q-123 0 -180 86.5t-45 229.5
h145q-14 -167 80 -167q90 0 77 167z" />
    <glyph glyph-name="Uring" unicode="&#x16e;" 
d="M747 1757q-28 0 -28 -32t28 -32q29 0 29 32t-29 32zM733 -33q-277 0 -435 171.5t-158 470.5v801h175v-801q0 -231 109.5 -350.5t308.5 -119.5q213 0 317.5 116t104.5 354v801h172v-801q0 -306 -154.5 -474t-439.5 -168zM747 1895q75 0 126.5 -47t51.5 -123t-51.5 -124
t-126.5 -48t-127.5 48t-52.5 124t52 123t128 47z" />
    <glyph glyph-name="uring" unicode="&#x16f;" horiz-adv-x="1119" 
d="M531 1363q-28 0 -28 -32t28 -32q29 0 29 32t-29 32zM541 -23q-229 0 -335.5 137t-106.5 385v545h178v-545q0 -63 5.5 -110t22 -94.5t44.5 -77.5t76.5 -48.5t115.5 -18.5q140 0 214 89.5t86 242.5v562h179v-1044h-150l-16 116q-128 -139 -313 -139zM531 1501
q75 0 126.5 -47t51.5 -123t-51.5 -124t-126.5 -48t-127.5 48t-52.5 124t52 123t128 47z" />
    <glyph glyph-name="Uhungarumlaut" unicode="&#x170;" 
d="M733 -33q-277 0 -435 171.5t-158 470.5v801h175v-801q0 -231 109.5 -350.5t308.5 -119.5q213 0 317.5 116t104.5 354v801h172v-801q0 -306 -154.5 -474t-439.5 -168zM611 1620h-158l168 296h195zM840 1620h-158l167 296h196z" />
    <glyph glyph-name="uhungarumlaut" unicode="&#x171;" horiz-adv-x="1119" 
d="M541 -23q-229 0 -335.5 137t-106.5 385v545h178v-545q0 -63 5.5 -110t22 -94.5t44.5 -77.5t76.5 -48.5t115.5 -18.5q140 0 214 89.5t86 242.5v562h179v-1044h-150l-16 116q-128 -139 -313 -139zM395 1226h-158l168 296h195zM624 1226h-158l167 296h196z" />
    <glyph glyph-name="Uogonek" unicode="&#x172;" 
d="M672 -31q-250 20 -391 189t-141 451v801h175v-801q0 -231 109.5 -350.5t308.5 -119.5q213 0 317.5 116t104.5 354v801h172v-801q0 -267 -118.5 -430.5t-340.5 -200.5q-59 -43 -96 -101t-33.5 -105.5t54.5 -58.5q35 -7 71.5 23t95.5 108v-201q-80 -75 -189 -75
q-48 0 -87.5 16t-67.5 58t-28 107q0 123 84 220z" />
    <glyph glyph-name="uogonek" unicode="&#x173;" horiz-adv-x="1119" 
d="M859 75l1 -1l-6 42q-128 -139 -313 -139q-229 0 -335.5 137t-106.5 385v545h178v-545q0 -63 5.5 -110t22 -94.5t44.5 -77.5t76.5 -48.5t115.5 -18.5q140 0 214 89.5t86 242.5v562h179v-1044h-79q-97 -27 -168 -117q-62 -78 -55 -139q6 -45 54 -55q35 -7 71.5 23t95.5 108
v-201q-80 -75 -189 -75q-48 0 -87.5 16t-67.5 58t-28 107q0 122 82.5 219t209.5 131z" />
    <glyph glyph-name="Wcircumflex" unicode="&#x174;" horiz-adv-x="2238" 
d="M1687 0h-190l-384 1094l-405 -1094h-189l-483 1410h189l394 -1147l421 1147h149l403 -1148l416 1148h193zM1169 1612l-63 111l-65 -111h-175l184 297h114l182 -297h-177z" />
    <glyph glyph-name="wcircumflex" unicode="&#x175;" horiz-adv-x="1654" 
d="M78 1044h187l239 -756l253 756h144l256 -757l234 757h184l-328 -1044h-180l-238 705l-235 -705h-175zM914 1228l-63 111l-65 -111h-175l184 297h114l182 -297h-177z" />
    <glyph glyph-name="Ycircumflex" unicode="&#x176;" horiz-adv-x="1329" 
d="M752 0h-177v533l-497 877h197l392 -684l385 684h198l-498 -877v-533zM745 1612l-63 111l-65 -111h-175l184 297h114l182 -297h-177z" />
    <glyph glyph-name="ycircumflex" unicode="&#x177;" horiz-adv-x="1268" 
d="M491 -541h-180l231 541l-464 1045h204l355 -821l350 820h203zM666 1218l-63 111l-65 -111h-175l184 297h114l182 -297h-177z" />
    <glyph glyph-name="Ydieresis" unicode="&#x178;" horiz-adv-x="1329" 
d="M752 0h-177v533l-497 877h197l392 -684l385 684h198l-498 -877v-533zM530 1810q39 0 67.5 -28t28.5 -68q0 -39 -28.5 -67t-67.5 -28q-41 0 -70 28t-29 67q0 40 29 68t70 28zM805 1810q40 0 69 -28t29 -68q0 -39 -29 -67t-69 -28t-68.5 28t-28.5 67q0 40 28.5 68t68.5 28z
" />
    <glyph glyph-name="Zacute" unicode="&#x179;" horiz-adv-x="1392" 
d="M1286 0h-1187v131l934 1105h-844v174h1103v-131l-933 -1106h927v-173zM733 1605h-158l167 296h196z" />
    <glyph glyph-name="zacute" unicode="&#x17a;" horiz-adv-x="1139" 
d="M1040 0h-941v127l663 747h-633v170h911v-135l-667 -740h667v-169zM588 1211h-158l167 296h196z" />
    <glyph glyph-name="Zdotaccent" unicode="&#x17b;" horiz-adv-x="1392" 
d="M1286 0h-1187v131l934 1105h-844v174h1103v-131l-933 -1106h927v-173zM714 1827q42 0 72.5 -29.5t30.5 -71.5q0 -41 -30.5 -70t-72.5 -29q-43 0 -73 29t-30 70q0 43 30 72t73 29z" />
    <glyph glyph-name="zdotaccent" unicode="&#x17c;" horiz-adv-x="1139" 
d="M1040 0h-941v127l663 747h-633v170h911v-135l-667 -740h667v-169zM569 1433q42 0 72.5 -29.5t30.5 -71.5q0 -41 -30.5 -70t-72.5 -29q-43 0 -73 29t-30 70q0 43 30 72t73 29z" />
    <glyph glyph-name="Zcaron" unicode="&#x17d;" horiz-adv-x="1392" 
d="M1286 0h-1187v131l934 1105h-844v174h1103v-131l-933 -1106h927v-173zM954 1900l-183 -296h-113l-185 296h177l64 -111l65 111h175z" />
    <glyph glyph-name="zcaron" unicode="&#x17e;" horiz-adv-x="1139" 
d="M1040 0h-941v127l663 747h-633v170h911v-135l-667 -740h667v-169zM809 1506l-183 -296h-113l-185 296h177l64 -111l65 111h175z" />
    <glyph glyph-name="uni01CD" unicode="&#x1cd;" horiz-adv-x="1479" 
d="M969 553l-229 577l-233 -577h462zM99 0l563 1410h151l566 -1410h-189l-150 377h-604l-153 -377h-184zM803 1900h175l-183 -296h-113l-185 296h177l64 -111z" />
    <glyph glyph-name="uni01CE" unicode="&#x1ce;" horiz-adv-x="1034" 
d="M755 416v66q-114 5 -244 -14q-116 -19 -181.5 -65t-65.5 -116t41.5 -105.5t131.5 -35.5q160 0 239 63t79 207zM574 894h-71q-94 0 -153.5 -60.5t-56.5 -176.5h-178q-13 168 98.5 282t289.5 114h71q170 0 262 -85t98 -238v-729h-144l-19 123q-64 -77 -156.5 -112.5
t-192.5 -35.5q-154 0 -249 80t-95 227q0 146 115.5 235t301.5 116q82 11 122.5 13t137.5 1v58q-7 98 -50.5 143t-130.5 45zM597 1543h175l-183 -296h-113l-185 296h177l64 -111z" />
    <glyph glyph-name="Gcaron" unicode="&#x1e6;" horiz-adv-x="1570" 
d="M781 -33q-313 0 -497.5 198t-184.5 534q0 343 186 538.5t512 195.5q183 0 322.5 -62.5t226.5 -189.5t103 -307h-172q-31 197 -149.5 292t-330.5 95q-256 0 -392 -146t-136 -416q0 -268 136 -415.5t381 -147.5q201 0 325 101t150 283h-532v172h741v-692h-164l-10 191
q-75 -99 -202.5 -161.5t-312.5 -62.5zM862 1924h175l-183 -296h-113l-185 296h177l64 -111z" />
    <glyph glyph-name="gcaron" unicode="&#x1e7;" horiz-adv-x="1230" 
d="M572 155q138 0 234 95t96 263q0 164 -89 258.5t-223 94.5q-152 0 -242.5 -99.5t-90.5 -253.5q0 -159 83 -258.5t232 -99.5zM933 1044h155v-1064q0 -289 -140 -418q-107 -102 -341 -102t-339 102q-127 112 -139 349h179q5 -48 11 -80t18.5 -67t32.5 -56.5t51.5 -40
t77.5 -27t108 -8.5q131 0 193.5 39t85.5 119q24 91 24 190v141q-134 -144 -331 -144q-220 0 -360.5 153t-140.5 383q0 231 139.5 381t363.5 150q204 0 330 -137zM646 1534h175l-183 -296h-113l-185 296h177l64 -111z" />
    <glyph glyph-name="uni0218" unicode="&#x218;" horiz-adv-x="1378" 
d="M775 -139l-143 -330h-153l121 330h175zM727 -33q-129 0 -241 33.5t-198 97.5t-131 166.5t-35 230.5h170l10 -92q6 -45 21 -76q33 -81 134 -134.5t272 -53.5q88 0 156 17t105 41t60.5 55t30.5 54.5t7 44.5q3 76 -34 122q-66 84 -280 137q-212 51 -280 74q-206 70 -274 193
q-44 78 -41 184q8 170 163 271t379 101q165 0 289.5 -60t188 -179t42.5 -278h-179q15 79 -2 141.5t-53.5 100t-89 61.5t-101 33t-97.5 9q-158 0 -258.5 -60t-105.5 -146q-3 -68 32 -112q72 -83 278 -131q218 -50 307 -84q210 -82 264 -233q24 -64 22 -144q-4 -174 -156 -279
t-375 -105z" />
    <glyph glyph-name="uni0219" unicode="&#x219;" horiz-adv-x="1005" 
d="M500 -23q-58 0 -116 9t-124 37t-112 71.5t-68.5 120t-4.5 174.5h182q-13 -44 -9.5 -78.5t13 -60t30.5 -44t44 -30.5t53 -19t57 -10t57 -3q121 0 191.5 34t68.5 102q0 56 -31 84q-26 23 -72.5 40.5t-84.5 26t-112 22.5t-168 42q-217 73 -212 279q1 130 122.5 211.5
t307.5 81.5q34 0 68.5 -3.5t75.5 -12.5t76.5 -23.5t72 -37t61 -53.5t44 -72t21.5 -93t-7 -117h-181q9 38 9.5 69.5t-8 54.5t-22.5 41.5t-34.5 30.5t-42 20.5t-48 13t-50 6.5t-49.5 2q-108 0 -175 -32.5t-67 -87.5q0 -46 28 -68q26 -21 71.5 -37t83.5 -24.5t112 -21.5
q114 -27 173 -47q213 -77 213 -295q0 -80 -35 -140t-97 -95t-138.5 -51.5t-166.5 -16.5zM573 -139l-143 -330h-153l121 330h175z" />
    <glyph glyph-name="uni021A" unicode="&#x21a;" horiz-adv-x="1307" 
d="M742 0h-175v1238h-468v172h1108v-172h-465v-1238zM732 -139l-143 -330h-153l121 330h175z" />
    <glyph glyph-name="uni021B" unicode="&#x21b;" horiz-adv-x="737" 
d="M660 166v-166q-30 0 -85 -1q-50 -2 -93 0t-79 8.5t-63.5 25.5t-46.5 51t-29 85t-10 128v576h-165v171h165v242h175v-242h228v-171h-228v-576q0 -44 3 -65.5t17.5 -39.5t41.5 -23.5t77 -5.5q38 0 92 3zM541 -139l-143 -330h-153l121 330h175z" />
    <glyph glyph-name="circumflex" unicode="&#x2c6;" horiz-adv-x="544" 
d="M336 1134l-64 113l-66 -113h-178l188 300h115l184 -300h-179z" />
    <glyph glyph-name="caron" unicode="&#x2c7;" horiz-adv-x="511" 
d="M499 1434l-186 -300h-114l-188 300h180l65 -113l66 113h177z" />
    <glyph glyph-name="breve" unicode="&#x2d8;" horiz-adv-x="991" 
d="M574 1434h148q11 -145 -45.5 -233t-180.5 -88q-125 0 -182.5 88t-45.5 233h147q-14 -170 81 -170q91 0 78 170z" />
    <glyph glyph-name="dotaccent" unicode="&#x2d9;" horiz-adv-x="1076" 
d="M538 1389q42 0 73 -30t31 -72t-31 -72t-73 -30q-43 0 -74 30t-31 72t31 72t74 30z" />
    <glyph glyph-name="ring" unicode="&#x2da;" horiz-adv-x="1230" 
d="M616 1462q76 0 128 -48t52 -125t-52 -126t-128 -49q-77 0 -130 49t-53 126q0 78 53 125.5t130 47.5zM616 1323q-29 0 -29 -34q0 -33 29 -33t29 33q0 34 -29 34z" />
    <glyph glyph-name="ogonek" unicode="&#x2db;" horiz-adv-x="1084" 
d="M754 110l-11 -51q-103 -1 -175 -69.5t-72 -159.5q0 -29 8.5 -39t31.5 -10q38 0 76.5 29.5t93.5 103.5v-204q-81 -76 -192 -76q-78 0 -131.5 43.5t-53.5 139.5q0 124 83 222.5t213 132.5z" />
    <glyph glyph-name="tilde" unicode="&#x2dc;" horiz-adv-x="1061" 
d="M420 1398q43 0 127 -26q64 -21 74 -21q24 0 24 -9q-3 -8 -16 -10q-32 0 -22 59h138q14 -87 -19.5 -135.5t-102.5 -48.5q-45 0 -129 26q-35 11 -58 17v-5v-31h-138q-13 86 20 135t102 49z" />
    <glyph glyph-name="hungarumlaut" unicode="&#x2dd;" horiz-adv-x="757" 
d="M290 1134h-159l170 300h197zM494 1134h-159l169 300h198z" />
    <glyph glyph-name="gravecomb" unicode="&#x300;" horiz-adv-x="253" 
d="M592 1280h-161l-207 301h198z" />
    <glyph glyph-name="acutecomb" unicode="&#x301;" horiz-adv-x="253" 
d="M384 1274h-160l170 300h198z" />
    <glyph glyph-name="uni0302" unicode="&#x302;" horiz-adv-x="148" 
d="M336 1281l-64 113l-66 -113h-178l187 301h116l184 -301h-179z" />
    <glyph glyph-name="tildecomb" unicode="&#x303;" horiz-adv-x="70" 
d="M453 1496q44 0 128 -26q64 -21 74 -21q24 0 24 -9q-3 -8 -16 -10q-32 0 -22 59h138q14 -87 -19.5 -136t-102.5 -49q-48 0 -129 27q-37 12 -59 17q0 -24 1 -36h-138q-13 86 19.5 135t101.5 49z" />
    <glyph glyph-name="uni0304" unicode="&#x304;" horiz-adv-x="73" 
d="M705 1342h-416v148h416v-148z" />
    <glyph glyph-name="uni0306" unicode="&#x306;" horiz-adv-x="69" 
d="M574 1559h148q11 -145 -45.5 -233t-180.5 -88q-125 0 -182.5 88t-45.5 233h147q-14 -170 81 -170q91 0 78 170z" />
    <glyph glyph-name="uni0307" unicode="&#x307;" horiz-adv-x="146" 
d="M538 1499q42 0 73 -30t31 -72t-31 -71.5t-73 -29.5q-44 0 -74.5 29.5t-30.5 71.5q0 43 30.5 72.5t74.5 29.5z" />
    <glyph glyph-name="uni0308" unicode="&#x308;" horiz-adv-x="167" 
d="M533 1482q40 0 69 -29t29 -69q0 -39 -29 -67.5t-69 -28.5q-41 0 -70.5 28.5t-29.5 67.5q0 40 29.5 69t70.5 29zM812 1482q41 0 70.5 -29t29.5 -69q0 -39 -29.5 -67.5t-70.5 -28.5q-40 0 -69 28.5t-29 67.5q0 40 29 69t69 29z" />
    <glyph glyph-name="uni030A" unicode="&#x30a;" horiz-adv-x="105" 
d="M616 1568q76 0 128 -47.5t52 -124.5t-52 -126t-128 -49q-77 0 -130 49t-53 126t53 124.5t130 47.5zM616 1428q-29 0 -29 -32q0 -33 29 -33t29 33q0 32 -29 32z" />
    <glyph glyph-name="uni030B" unicode="&#x30b;" horiz-adv-x="171" 
d="M291 1289h-160l170 300h198zM523 1289h-160l169 300h199z" />
    <glyph glyph-name="uni030C" unicode="&#x30c;" horiz-adv-x="149" 
d="M499 1573l-186 -300h-114l-188 300h180l65 -113l66 113h177z" />
    <glyph glyph-name="uni0326" unicode="&#x326;" horiz-adv-x="1358" 
d="M829 -67l-117 -264h-156l123 335h150v-71z" />
    <glyph glyph-name="uni0327" unicode="&#x327;" horiz-adv-x="137" 
d="M759 185l-65 -118q66 -19 103.5 -65t37.5 -117q0 -51 -22 -91t-58.5 -63.5t-81 -35.5t-92.5 -12q-95 0 -148 39v170q51 -42 76.5 -53.5t74.5 -11.5q96 0 96 58t-110 58q-49 0 -116 -10l135 252h170z" />
    <glyph glyph-name="uni0328" unicode="&#x328;" horiz-adv-x="144" 
d="M625 166l140 -67q-106 -3 -198 -94q-73 -72 -84 -145q-10 -71 53 -85q36 -7 73.5 23.5t96.5 109.5v-204q-81 -76 -192 -76q-78 0 -131.5 43.5t-53.5 139.5q0 124 83 222.5t213 132.5z" />
    <glyph glyph-name="uni1E20" unicode="&#x1e20;" horiz-adv-x="1570" 
d="M781 -33q-313 0 -497.5 198t-184.5 534q0 343 186 538.5t512 195.5q183 0 322.5 -62.5t226.5 -189.5t103 -307h-172q-31 197 -149.5 292t-330.5 95q-256 0 -392 -146t-136 -416q0 -268 136 -415.5t381 -147.5q201 0 325 101t150 283h-532v172h741v-692h-164l-10 191
q-75 -99 -202.5 -161.5t-312.5 -62.5zM1002 1842v-146h-410v146h410z" />
    <glyph glyph-name="uni1E21" unicode="&#x1e21;" horiz-adv-x="1230" 
d="M572 155q138 0 234 95t96 263q0 164 -89 258.5t-223 94.5q-152 0 -242.5 -99.5t-90.5 -253.5q0 -159 83 -258.5t232 -99.5zM933 1044h155v-1064q0 -289 -140 -418q-107 -102 -341 -102t-339 102q-127 112 -139 349h179q5 -48 11 -80t18.5 -67t32.5 -56.5t51.5 -40
t77.5 -27t108 -8.5q131 0 193.5 39t85.5 119q24 91 24 190v141q-134 -144 -331 -144q-220 0 -360.5 153t-140.5 383q0 231 139.5 381t363.5 150q204 0 330 -137zM786 1452v-146h-410v146h410z" />
    <glyph glyph-name="Wgrave" unicode="&#x1e80;" horiz-adv-x="2238" 
d="M1687 0h-190l-384 1094l-405 -1094h-189l-483 1410h189l394 -1147l421 1147h149l403 -1148l416 1148h193zM1193 1611h-158l-204 297h195z" />
    <glyph glyph-name="wgrave" unicode="&#x1e81;" horiz-adv-x="1654" 
d="M78 1044h187l239 -756l253 756h144l256 -757l234 757h184l-328 -1044h-180l-238 705l-235 -705h-175zM1029 1227h-159l-204 297h195z" />
    <glyph glyph-name="Wacute" unicode="&#x1e82;" horiz-adv-x="2238" 
d="M1687 0h-190l-384 1094l-405 -1094h-189l-483 1410h189l394 -1147l421 1147h149l403 -1148l416 1148h193zM1198 1605h-157l167 296h195z" />
    <glyph glyph-name="wacute" unicode="&#x1e83;" horiz-adv-x="1654" 
d="M78 1044h187l239 -756l253 756h144l256 -757l234 757h184l-328 -1044h-180l-238 705l-235 -705h-175zM870 1221h-158l167 296h196z" />
    <glyph glyph-name="Wdieresis" unicode="&#x1e84;" horiz-adv-x="2238" 
d="M1687 0h-190l-384 1094l-405 -1094h-189l-483 1410h189l394 -1147l421 1147h149l403 -1148l416 1148h193zM988 1810q39 0 68 -28.5t29 -68.5q0 -38 -29 -66t-68 -28q-40 0 -69 28t-29 66q0 40 28.5 68.5t69.5 28.5zM1263 1810q40 0 69.5 -28.5t29.5 -68.5
q0 -38 -29.5 -66t-69.5 -28q-39 0 -67.5 28t-28.5 66q0 40 28.5 68.5t67.5 28.5z" />
    <glyph glyph-name="wdieresis" unicode="&#x1e85;" horiz-adv-x="1654" 
d="M78 1044h187l239 -756l253 756h144l256 -757l234 757h184l-328 -1044h-180l-238 705l-235 -705h-175zM699 1426q39 0 67.5 -28t28.5 -68q0 -39 -28.5 -67t-67.5 -28q-41 0 -70 28t-29 67q0 40 29 68t70 28zM974 1426q40 0 69 -28t29 -68q0 -39 -29 -67t-69 -28t-68.5 28
t-28.5 67q0 40 28.5 68t68.5 28z" />
    <glyph glyph-name="uni1EBC" unicode="&#x1ebc;" horiz-adv-x="1286" 
d="M1166 0h-1026v1410h1006v-174h-826v-436h679v-174h-679v-455h846v-171zM548 1824q43 0 126 -26q64 -20 73 -20q24 0 24 -9q-3 -8 -17 -10q-12 0 -19 14t-2 44h136q14 -86 -18.5 -134t-101.5 -48q-46 0 -127 26q-37 12 -59 17q0 -23 1 -35h-136q-13 84 19.5 132.5
t100.5 48.5z" />
    <glyph glyph-name="uni1EBD" unicode="&#x1ebd;" horiz-adv-x="1152" 
d="M276 633h609q-23 99 -97.5 169.5t-192.5 70.5t-203.5 -65.5t-115.5 -174.5zM584 -23q-122 0 -221 46t-161 123.5t-94 174.5t-30 202q3 147 67 265t182 187t268 69q198 0 330 -128t147 -336l2 -29v-88h-814q13 -149 96.5 -232t227.5 -83q131 0 217 70t89 183h180
q-10 -186 -149.5 -305t-336.5 -119zM483 1458q43 0 126 -26q54 -17 59 -18q-4 17 0 37h136q14 -86 -18.5 -134t-101.5 -48q-46 0 -127 26q-37 12 -59 17v-5q0 -17 1 -30h-136q-13 84 19.5 132.5t100.5 48.5z" />
    <glyph glyph-name="Ygrave" unicode="&#x1ef2;" horiz-adv-x="1329" 
d="M752 0h-177v533l-497 877h197l392 -684l385 684h198l-498 -877v-533zM860 1611h-159l-204 297h195z" />
    <glyph glyph-name="ygrave" unicode="&#x1ef3;" horiz-adv-x="1268" 
d="M491 -541h-180l231 541l-464 1045h204l355 -821l350 820h203zM781 1217h-159l-204 297h195z" />
    <glyph glyph-name="uni1EF8" unicode="&#x1ef8;" horiz-adv-x="1329" 
d="M752 0h-177v533l-497 877h197l392 -684l385 684h198l-498 -877v-533zM581 1824q43 0 126 -26q64 -20 73 -20q24 0 24 -9q-3 -8 -17 -10q-12 0 -19 14t-2 44h136q14 -86 -18.5 -134t-101.5 -48q-46 0 -127 26q-37 12 -59 17q0 -23 1 -35h-136q-13 84 19.5 132.5
t100.5 48.5z" />
    <glyph glyph-name="uni1EF9" unicode="&#x1ef9;" horiz-adv-x="1268" 
d="M491 -541h-180l231 541l-464 1045h204l355 -821l350 820h203zM502 1430q43 0 126 -26q64 -20 73 -20q24 0 24 -9q-3 -8 -17 -10q-12 0 -19 14t-2 44h136q14 -86 -18.5 -134t-101.5 -48q-46 0 -127 26q-37 12 -59 17q0 -23 1 -35h-136q-13 84 19.5 132.5t100.5 48.5z" />
    <glyph glyph-name="endash" unicode="&#x2013;" horiz-adv-x="1085" 
d="M943 509h-803v168h803v-168z" />
    <glyph glyph-name="emdash" unicode="&#x2014;" horiz-adv-x="2042" 
d="M1900 509h-1760v168h1760v-168z" />
    <glyph glyph-name="quoteleft" unicode="&#x2018;" horiz-adv-x="659" 
d="M140 903l196 564h182l-173 -564h-205z" />
    <glyph glyph-name="quoteright" unicode="&#x2019;" horiz-adv-x="510" 
d="M431 1467l-192 -564h-182l173 564h201z" />
    <glyph glyph-name="quotesinglbase" unicode="&#x201a;" horiz-adv-x="504" 
d="M379 192l-165 -408h-182l143 408h204z" />
    <glyph glyph-name="quotedblleft" unicode="&#x201c;" horiz-adv-x="830" 
d="M198 903l199 566h182l-172 -566h-209zM449 903l199 566h182l-173 -566h-208z" />
    <glyph glyph-name="quotedblright" unicode="&#x201d;" horiz-adv-x="482" 
d="M378 1467l-196 -564h-182l173 564h205zM615 1467l-187 -564h-182l173 564h196z" />
    <glyph glyph-name="quotedblbase" unicode="&#x201e;" horiz-adv-x="510" 
d="M379 192l-165 -408h-182l143 408h204zM650 192l-165 -408h-182l143 408h204z" />
    <glyph glyph-name="dagger" unicode="&#x2020;" horiz-adv-x="1094" 
d="M994 728l-354 6l7 -1029h-197l4 1029l-355 -6v183l355 -5l-6 478h199l-7 -478l354 5v-183z" />
    <glyph glyph-name="daggerdbl" unicode="&#x2021;" horiz-adv-x="1094" 
d="M640 734v-380l354 4v-182l-354 6l7 -477h-197l4 477l-355 -6v182l355 -4v380l-355 -6v183l355 -5l-6 478h199l-7 -478l354 5v-183z" />
    <glyph glyph-name="bullet" unicode="&#x2022;" horiz-adv-x="542" 
d="M270 786q72 0 122 -48.5t50 -118.5q0 -71 -50 -119.5t-122 -48.5q-71 0 -121 49t-50 119t50 118.5t121 48.5z" />
    <glyph glyph-name="ellipsis" unicode="&#x2026;" horiz-adv-x="910" 
d="M215 201q49 0 82 -32.5t33 -79.5q0 -49 -33 -82t-82 -33q-47 0 -81.5 32.5t-34.5 82.5q0 48 34.5 80t81.5 32zM454 201q49 0 83 -32t34 -80q0 -49 -34 -82t-83 -33q-47 0 -81.5 32.5t-34.5 82.5q0 48 34.5 80t81.5 32zM693 201q50 0 83.5 -32.5t33.5 -79.5
q0 -49 -33.5 -82t-83.5 -33q-47 0 -81.5 32.5t-34.5 82.5q0 48 34.5 80t81.5 32z" />
    <glyph glyph-name="perthousand" unicode="&#x2030;" horiz-adv-x="2177" 
d="M756 1059q0 -148 -85.5 -249t-225.5 -101q-143 0 -227.5 100.5t-84.5 249.5q0 151 84.5 250t227.5 99q141 0 226 -99t85 -250zM1321 1384l-932 -1384h-216l932 1384h216zM320 1059q0 -86 32.5 -133t92.5 -47q58 0 90.5 47t32.5 133t-32.5 132t-90.5 46q-60 0 -92.5 -46
t-32.5 -132zM1049 673q142 0 227 -99.5t85 -250.5q0 -149 -85 -249t-227 -100t-227 100.5t-85 248.5q0 151 85 250.5t227 99.5zM1731 673q143 0 228 -99.5t85 -250.5q0 -148 -85 -248.5t-228 -100.5q-139 0 -224.5 100.5t-85.5 248.5q0 151 85 250.5t225 99.5zM1049 145
q59 0 92 47t33 131q0 86 -33 133t-92 47t-90.5 -46.5t-31.5 -133.5q0 -85 31.5 -131.5t90.5 -46.5zM1731 145q61 0 93.5 46.5t32.5 131.5q0 87 -32.5 133.5t-93.5 46.5q-58 0 -90 -46.5t-32 -133.5q0 -85 32 -131.5t90 -46.5z" />
    <glyph glyph-name="guilsinglleft" unicode="&#x2039;" horiz-adv-x="796" 
d="M676 875l-312 -361l311 -363h-225l-310 363l310 361h226z" />
    <glyph glyph-name="guilsinglright" unicode="&#x203a;" horiz-adv-x="798" 
d="M657 514l-310 -363h-227l312 363l-312 361h227z" />
    <glyph glyph-name="fraction" unicode="&#x2044;" horiz-adv-x="735" 
d="M10 0h-218l936 1384h215z" />
    <glyph glyph-name="Euro" unicode="&#x20ac;" horiz-adv-x="1385" 
d="M877 1297q-75 0 -141 -23t-123.5 -71t-98.5 -131.5t-59 -196.5h745l-57 -150h-701v-33v-37h680l-45 -150h-624q30 -218 137 -320t291 -102q190 0 341 122v-185q-153 -93 -351 -93q-258 0 -410.5 142t-185.5 436h-172l52 150h110l-1 28v42h-113l52 150h75
q42 283 203.5 430.5t399.5 147.5q135 0 229.5 -38.5t170.5 -124.5l-102 -125q-61 73 -129 102.5t-173 29.5z" />
    <glyph glyph-name="trademark" unicode="&#x2122;" horiz-adv-x="1202" 
d="M541 1408v-114h-161v-344h-125v344h-163v114h449zM1095 1406v-456h-122l2 181l-68 -175h-108l-67 173l2 -179h-124v456h140l105 -278l103 278h137z" />
    <glyph glyph-name="partialdiff" unicode="&#x2202;" horiz-adv-x="1139" 
d="M549 147q145 0 219 118t80 375q-42 81 -109.5 120t-146.5 39q-140 0 -220.5 -93t-80.5 -250q0 -147 72 -228t186 -81zM537 1509q96 0 173.5 -31t132 -89.5t93 -134.5t61 -173.5t32.5 -199t10 -217.5q0 -331 -124 -510.5t-370 -179.5q-194 0 -320 132.5t-126 344.5
q0 231 135 376t354 145q140 0 249 -74q-49 439 -305 439q-86 0 -146 -26t-134 -93l-105 136q88 82 181 118.5t209 36.5z" />
    <glyph glyph-name="emptyset" unicode="&#x2205;" horiz-adv-x="1728" 
d="M864 133q159 0 293.5 75.5t213 208.5t78.5 294q0 187 -108 338l-832 -800q157 -116 355 -116zM279 711q0 -187 109 -339l832 799q-153 119 -356 119q-159 0 -293 -76t-213 -209.5t-79 -293.5zM1506 1446l123 -118l-162 -157q161 -201 161 -460q0 -155 -61 -294.5
t-164 -238t-243.5 -156.5t-295.5 -58q-268 0 -482 164l-159 -153l-124 118l163 156q-161 203 -161 462q0 207 103 379t278 270t382 98q133 0 257 -43t225 -122z" />
    <glyph glyph-name="product" unicode="&#x220f;" horiz-adv-x="1165" 
d="M1082 1211h-110v-1413h-186v1413h-408v-1413h-186v1413h-109v173h999v-173z" />
    <glyph glyph-name="summation" unicode="&#x2211;" horiz-adv-x="1164" 
d="M1090 -29v-173h-1021v134l529 679l-472 639v134h951v-173h-695l447 -602l-501 -638h762z" />
    <glyph glyph-name="minus" unicode="&#x2212;" horiz-adv-x="1086" 
d="M987 558h-888v169h888v-169z" />
    <glyph glyph-name="radical" unicode="&#x221a;" horiz-adv-x="1202" 
d="M1102 1550l-442 -1845h-169l-252 811h-140v168h271l194 -645l361 1511h177z" />
    <glyph glyph-name="infinity" unicode="&#x221e;" horiz-adv-x="2097" 
d="M606 147q59 0 112 20.5t101 65t81 124t45 186.5q-34 212 -125 306t-214 94q-131 0 -222 -104.5t-91 -295.5q0 -189 91 -292.5t222 -103.5zM1491 147q131 0 222.5 103.5t91.5 292.5q0 97 -26 175t-70.5 126t-100 73.5t-117.5 25.5q-60 0 -113.5 -20.5t-101.5 -65
t-81.5 -124t-43.5 -187.5q17 -109 51 -188.5t80.5 -124.5t98 -65.5t110.5 -20.5zM1491 1115q231 0 369 -160.5t138 -411.5q0 -249 -138 -409t-369 -160q-147 0 -260 70.5t-184 208.5q-138 -279 -441 -279q-231 0 -369 160t-138 409q0 251 138 411.5t369 160.5q146 0 259 -70
t184 -206q68 135 181 205.5t261 70.5z" />
    <glyph glyph-name="integral" unicode="&#x222b;" horiz-adv-x="751" 
d="M459 1503q125 0 193 -101l-92 -159q-29 57 -48.5 73.5t-52.5 16.5q-30 0 -50.5 -46.5t-20.5 -148.5q0 -76 14.5 -182t60.5 -334q46 -230 62.5 -347t16.5 -213q0 -180 -72.5 -268.5t-176.5 -88.5q-57 0 -108.5 24.5t-85.5 74.5l89 154q35 -54 54.5 -69t50.5 -15t52.5 47
t21.5 148q0 70 -15.5 176t-62.5 340q-47 245 -63.5 357t-16.5 206q0 178 72.5 266.5t177.5 88.5z" />
    <glyph glyph-name="approxequal" unicode="&#x2248;" horiz-adv-x="1184" 
d="M314 924q56 0 106 -17t132 -59q67 -34 96 -44.5t64 -10.5q54 0 84 26t79 111l130 -104q-100 -204 -295 -204q-55 0 -104.5 17t-133.5 60q-67 34 -96.5 44t-63.5 10q-54 0 -82.5 -24t-82.5 -109l-129 102q100 202 296 202zM314 601q57 0 107.5 -17t130.5 -59
q69 -34 97.5 -44.5t62.5 -10.5q54 0 84 26t79 111l130 -103q-99 -203 -295 -203q-56 0 -106.5 17t-131.5 59q-67 34 -96.5 44t-63.5 10q-54 0 -82.5 -24t-82.5 -109l-129 101q99 202 296 202z" />
    <glyph glyph-name="notequal" unicode="&#x2260;" horiz-adv-x="1116" 
d="M711 727l-106 -173h412v-168h-514l-121 -198h-200l121 198h-204v168h306l105 173h-411v167h513l120 198h201l-122 -198h206v-167h-306z" />
    <glyph glyph-name="lessequal" unicode="&#x2264;" horiz-adv-x="1086" 
d="M99 0v169h828l-828 342v133l888 368v-186l-611 -248l611 -245v-333h-888z" />
    <glyph glyph-name="greaterequal" unicode="&#x2265;" horiz-adv-x="1086" 
d="M99 0v331l614 247l-614 247v187l888 -368v-133l-828 -342h828v-169h-888z" />
    <glyph glyph-name="lozenge" unicode="&#x25ca;" horiz-adv-x="1063" 
d="M532 243l223 448l-224 449l-221 -448zM598 1384l349 -692l-349 -692h-132l-350 692l350 692h132z" />
    <glyph glyph-name="Gcommaaccent" horiz-adv-x="1570" 
d="M781 -33q-313 0 -497.5 198t-184.5 534q0 343 186 538.5t512 195.5q183 0 322.5 -62.5t226.5 -189.5t103 -307h-172q-31 197 -149.5 292t-330.5 95q-256 0 -392 -146t-136 -416q0 -268 136 -415.5t381 -147.5q201 0 325 101t150 283h-532v172h741v-692h-164l-10 191
q-75 -99 -202.5 -161.5t-312.5 -62.5zM716 -139h175l-143 -330h-153z" />
    <glyph glyph-name="Itilde" horiz-adv-x="475" 
d="M324 0h-174v1403h174v-1403zM135 1824q43 0 126 -26q64 -20 73 -20q24 0 24 -9q-3 -8 -17 -10q-12 0 -19 14t-2 44h136q14 -86 -18.5 -134t-101.5 -48q-46 0 -127 26q-37 12 -59 17q0 -23 1 -35h-136q-13 84 19.5 132.5t100.5 48.5z" />
    <glyph glyph-name="Imacron" horiz-adv-x="479" 
d="M326 0h-174v1403h174v-1403zM443 1672h-410v146h410v-146z" />
    <glyph glyph-name="Iogonek" horiz-adv-x="536" 
d="M189 67v1336h174v-1403h-66q-97 -27 -168 -117q-62 -78 -55 -139q6 -45 54 -55q35 -7 71.5 23t95.5 108v-201q-80 -75 -189 -75q-48 0 -87.5 16t-67.5 58t-28 107q0 115 74 208.5t192 133.5z" />
    <glyph glyph-name="_Designova" horiz-adv-x="1401" 
d="M172 798q0 -108 42 -206t112.5 -168.5t168.5 -112.5t206 -42q143 0 264.5 70.5t192.5 192t71 265.5t-70.5 266t-191.5 192.5t-265 70.5t-266 -70.5t-193 -192t-71 -265.5zM360 903q8 0 12 -4q53 -20 107 -29q43 -4 76 3q24 4 49 13q4 0 10.5 3.5t7.5 3.5l-17 8.5t-17.5 9
t-15 10t-14.5 13.5h20q37 0 80 18q123 77 208 77q6 0 23 1.5t25 0.5q62 -4 94 -36q7 -5 31 -34v-2q-3 2 -6 2q-28 11 -52 11q-63 0 -104 -62q-6 -11 -15.5 -33.5t-12.5 -29.5q-5 -12 -15 -36.5t-19 -44.5t-17 -37q-31 -65 -69 -111q-28 -40 -84 -72t-111 -48h-6l26 23
q16 15 28 47q8 25 24.5 71t23.5 68q31 89 60 139v1q-1 -2 -4.5 -6t-5.5 -6q-8 -8 -10 -15q-21 -24 -35 -60q-3 -5 -9 -5q-110 5 -190 73q-1 1 -61 58q-5 7 -15 17zM699 197q-162 0 -300 81t-218.5 219.5t-80.5 300.5q1 122 48.5 233t128 191t191.5 127.5t233 47.5t233 -47.5
t191.5 -127.5t128 -191t47.5 -233q0 -163 -80.5 -301.5t-219.5 -219t-302 -80.5z" />
    <glyph glyph-name="_Origin" horiz-adv-x="1874" 
d="M585 504h-31v-30h31q24 0 24 14q0 16 -24 16zM589 449h-35v-31h35q24 0 24 16q0 15 -24 15zM841 499h-26v-43h26q28 0 28 21q0 22 -28 22zM1731 878h-1588v-625h1588v625zM1392 499h-26v-79h26q13 0 23 5q19 11 19 35q0 16 -5 21q-9 18 -37 18zM946 674q0 -18 11 -29.5
t28 -11.5q18 0 29 11.5t11 29.5q0 19 -11 30.5t-29 11.5q-17 0 -28 -11.5t-11 -30.5zM1128 714h-27v-44h27q28 0 28 22t-28 22zM363 1227h-70v-172h68q43 0 69 22t26 64q0 55 -44 75q-19 11 -49 11zM472 1119q0 -44 33 -58q13 -7 39 -7q35 0 54 17q9 12 12 22l-38 1
q-3 -9 -16 -13q-2 0 -5.5 -0.5t-6.5 -0.5q-22 0 -29 15q-5 8 -5 15h100v11q0 30 -18.5 47.5t-49.5 17.5q-43 0 -63 -32q-7 -18 -7 -35zM661 1094l-40 -1q6 -39 67 -39q39 0 57 20q7 10 7 21q0 26 -41 35l-28 5q-18 3 -18 13q0 12 23 12t23 -14l38 2q-7 38 -62 38
q-38 0 -54 -19q-8 -8 -8 -21q0 -28 41 -37l26 -5q19 -3 19 -12q0 -14 -23 -14q-24 0 -27 16zM809 1184h-41v-129h41v129zM767 1218q0 -7 7 -12.5t15 -5.5q9 0 15.5 5.5t6.5 12.5t-6.5 12.5t-15.5 5.5q-8 0 -15 -5.5t-7 -12.5zM827 1120q0 -29 16 -45.5t44 -16.5q21 0 33 10
q7 5 7 10h2v-23q0 -24 -30 -24q-18 0 -25 7q-2 1 -5 8l-37 -6q3 -15 20 -25t46 -10q43 0 62 22q10 10 10 27v130h-40v-21h-3q-4 13 -21 19q-10 4 -19 4q-35 0 -52 -29q-8 -16 -8 -37zM1033 1184h-40v-129h41v75q0 17 13 23q5 3 14 3q25 0 25 -25v-76h42v82q0 31 -24 42
q-11 7 -27 7q-31 0 -43 -25h-1v23zM1145 1119q0 -32 20 -48.5t52 -16.5q42 0 64 31q8 14 8 34q0 39 -33 59q-19 8 -39 8q-44 0 -63 -32q-9 -18 -9 -35zM1364 1093l-31 91h-43l51 -129h45l52 129h-42l-31 -91h-1zM1439 1092q0 -26 23 -34q9 -4 25 -4q21 0 34 9l8 11h2v-19h37
v88q0 19 -17 33q-22 10 -43 10q-35 0 -53 -18q-9 -7 -12 -20l39 -4q4 16 25 16t21 -16v-1q0 -7 -15 -10q-2 -1 -9 -1.5t-10 -0.5q-55 -4 -55 -39zM319 523v-128h-30v128h30zM370 474v-79h-31v128h25l64 -77v77h29v-128h-24zM592 395h-68v128h63q52 0 52 -32q0 -20 -18 -29
q2 0 2 -2q20 -7 20 -30q0 -35 -51 -35zM762 420v-25h-105v128h107v-24h-78v-27h70v-23h-70v-29h76zM815 432v-37h-31v128h59q24 0 40 -11.5t16 -34.5q0 -14 -7 -24q-11 -13 -21 -18l27 -40h-32l-25 37h-26zM1018 420v-25h-105v128h29v-103h76zM1069 523v-128h-30v128h30z
M1120 474v-79h-30v128h25l63 -77v77h31v-128h-25zM1227 413q0 17 19 17q7 0 12 -5t5 -12q0 -6 -5 -19l-11 -27h-18l9 30q-11 4 -11 16zM1393 395h-57v128h57q23 0 38 -8q33 -14 33 -55q0 -22 -9 -35q-16 -30 -62 -30zM1587 420v-25h-105v128h105v-24h-76v-27h69v-23h-69v-29
h76zM419 633v-23h-107v127h107v-23h-77v-28h70v-22h-70v-31h77zM470 688v-78h-30v127h25l64 -76v76h29v-127h-25zM621 610v104h-42v23h112v-23h-41v-104h-29zM779 610h-31l-44 127h32l29 -89l30 89h27l29 -90l31 90h28l-41 -127h-33l-28 87zM1731 211v1l-1631 -1v1150h1674
v-1149zM915 674q0 29 20.5 47.5t49.5 18.5q30 0 50.5 -18.5t20.5 -47.5t-20.5 -47.5t-49.5 -18.5t-50 18.5t-21 47.5zM1101 646v-36h-28v127h57q22 0 30 -3q26 -14 26 -42q0 -15 -7 -25q-6 -10 -21 -17l28 -40h-32l-25 36h-28zM1231 664v-54h-30v127h107v-23h-77v-28h69v-22
h-69zM1426 633v-23h-107v127h107v-23h-77v-28h69v-22h-69v-31h77zM1476 688v-78h-28v127h22l66 -76v76h29v-127h-25zM359 1087h-26v108h27q37 0 49 -23q7 -19 7 -31q0 -36 -26 -48q-10 -6 -31 -6zM572 1133h-62q1 12 15 22q8 5 17 5q21 0 26 -16q4 -5 4 -11zM869 1120
q0 24 12 33q10 5 18 5q19 0 28 -19q0 -2 1.5 -8.5t1.5 -10.5q0 -36 -31 -36q-18 0 -28 18q-2 10 -2 18zM1187 1120q0 24 13 33q6 5 17 5q30 0 30 -38q0 -24 -13 -34q-8 -5 -17 -5q-19 0 -28 20q-2 10 -2 19zM1477 1093q0 7 12 14q4 2 12 2q19 2 28 6v-13q0 -15 -15 -21
q-12 -3 -16 -3q-21 0 -21 15z" />
    <glyph glyph-name="_Typeface" horiz-adv-x="2648" 
d="M417 795h-28l-128 -321h31l36 89h151l35 -89h33zM606 709h-25v-235h31v111q0 46 24 72t65 22l-2 29q-58 4 -89 -42zM829 469q43 0 74 24.5t35 63.5h-32q-2 -27 -24 -43t-53 -16q-38 0 -59 22.5t-23 63.5h193v14l-1 7q-3 46 -33 75t-74 29q-51 0 -83 -33.5t-34 -83.5
q-1 -51 29.5 -87t84.5 -36zM1004 709h-23v-235h29v111q0 43 22.5 68.5t59.5 25.5t52 -21.5t15 -65.5v-118h30v118q0 117 -98 117q-55 0 -82 -43zM1301 469q60 0 86 37l4 -31h25v166q-3 70 -80 70h-16q-38 0 -62.5 -23.5t-22.5 -58.5h30q1 26 16.5 39.5t38.5 13.5h16
q46 0 50 -45v-22h-14q-147 0 -147 -80q0 -32 21 -49t55 -17zM1737 461q65 0 100 37.5t35 107.5v182h-29v-182q0 -116 -106 -116q-50 0 -77 29.5t-27 86.5v182h-30v-182q0 -68 36 -106.5t98 -38.5zM1942 709h-23v-235h29v111q0 43 22.5 68.5t59.5 25.5t52 -21.5t15 -65.5
v-118h30v118q0 117 -98 117q-55 0 -82 -43zM2278 470q53 0 81.5 32.5t28.5 85.5q0 55 -29 87.5t-81 32.5t-81.5 -32t-29.5 -88q0 -54 29.5 -86t81.5 -32zM403 750l63 -157h-125zM908 612h-158q6 30 28.5 49t53.5 19q32 0 52 -20.5t24 -47.5zM1305 497q-47 0 -47 39
q0 37 63 49q30 3 65 2v-20q0 -70 -81 -70zM2548 895v-540h-2448v540h2448zM2278 500q-42 0 -61 25.5t-19 62.5q0 90 80 90q79 0 79 -90q0 -40 -19.5 -64t-59.5 -24z" />
    <glyph glyph-name="_VendorID" horiz-adv-x="1106" 
d="M116 59q0 -16 12 -16q14 0 14 16v1q0 16 -13 16t-13 -17zM176 62h23q-3 14 -11 14q-11 0 -12 -14zM302 60q0 -17 12 -17q14 0 14 16v1q0 16 -14 16q-12 0 -12 -16zM419 59q0 -16 12 -16q14 0 14 16q0 17 -14 17q-12 0 -12 -17zM529 48q0 -5 8 -5q11 0 11 8v6
q-19 2 -19 -9zM613 59q0 -16 13 -16q12 0 12 16q0 17 -12 17q-13 0 -13 -17zM882 59q0 -16 14 -16q12 0 12 16q0 17 -12 17q-14 0 -14 -17zM255 423q0 -56 39.5 -96t96.5 -40q56 0 94.5 39.5t38.5 96.5q0 58 -37.5 96.5t-95.5 38.5q-11 0 -22 -3l79 112h-60l-90 -128
q-43 -60 -43 -116zM580 423q0 -57 39.5 -96.5t95.5 -39.5t94.5 39.5t38.5 96.5t-38 96t-95 39q-13 0 -23 -3l80 112h-61l-90 -128q-41 -58 -41 -116zM255 861q0 -56 39.5 -95t96.5 -39q56 0 94.5 39t38.5 95q0 58 -37.5 96.5t-95.5 38.5q-15 0 -22 -2l79 114h-60l-90 -132
q-43 -62 -43 -115zM580 861q0 -56 39.5 -95t95.5 -39t94.5 39t38.5 95q0 58 -38 96.5t-95 38.5q-16 0 -24 -2l81 114h-61l-90 -132q-41 -62 -41 -115zM103 59q0 12 7 19t17 7q8 0 11 -3l4 -5v24h12v-67h-12v9l-4 -7q-6 -4 -14 -4q-21 0 -21 27zM163 59q0 11 7 18.5t18 7.5
q10 0 17 -7t7 -18q0 -2 -2 -5h-34q1 -12 12 -12q9 0 11 8h11q-3 -19 -22 -19q-25 0 -25 27zM216 48h13q3 -8 8 -8q9 0 9 7q0 2 -11 8q-17 5 -17 15q0 15 19 15q20 0 20 -15h-13q-2 6 -7 6q-6 0 -6 -5q0 -4 11 -9q16 -3 16 -14q0 -16 -21 -16q-18 0 -21 16zM265 95q0 6 8 6
q7 0 7 -6q0 -8 -7 -8q-8 0 -8 8zM279 85v-51h-13v51h13zM289 31v1h13v-1q0 -8 12 -8q10 0 14 12v8l-4 -7q-8 -2 -13 -2q-22 0 -22 25q0 26 24 26q8 0 11 -3l4 -5v8h13v-38q0 -8 -2 -11q0 -22 -25 -22t-25 17zM364 57v-23h-13v51h13v-10l4 7q4 3 12 3q14 0 18 -14q1 -3 1 -9
v-28h-14v32q0 10 -9 10q-12 0 -12 -19zM406 59q0 11 7 18.5t18 7.5q26 0 26 -26q0 -27 -26 -27q-11 0 -18 7.5t-7 19.5zM495 34h-17l-17 51h14l13 -42l12 42h13zM517 48q0 15 28 15h3v7q0 6 -8 6q-11 0 -11 -8h-12q0 17 23 17q17 0 19 -14v-37h-11v6l-3 -5q-6 -3 -13 -3
q-15 0 -15 16zM573 34v40h-5v9h5v7q0 14 18 14h5v-10q-10 2 -10 -5v-6h10v-9h-10v-40h-13zM600 59q0 26 26 26q25 0 25 -26q0 -27 -25 -27q-26 0 -26 27zM671 57v-23h-11v51h11v-10l5 7q4 3 12 3q14 0 18 -14v-37h-13v32q-3 10 -8 10q-14 0 -14 -19zM720 43v31h-7v9h7v12h13
v-12h9v-9h-9v-26q2 -9 8 -5v-10h-7q-14 0 -14 10zM746 48h14q2 -8 9 -8q8 0 8 7q0 2 -11 8q-16 4 -16 15q0 15 18 15t23 -15h-15q0 6 -9 6q-4 0 -4 -5t10 -9q18 -4 18 -14q0 -16 -22 -16q-19 0 -23 16zM794 39q0 9 9 9q8 0 8 -9q0 -7 -8 -7q-9 0 -9 7zM817 59q0 11 7.5 18.5
t16.5 7.5q23 0 23 -19h-12q-3 10 -11 10q-11 0 -11 -17q0 -16 11 -16q9 0 11 8h12q-1 -19 -23 -19q-24 0 -24 27zM869 59q0 26 27 26q24 0 24 -26q0 -27 -24 -27q-27 0 -27 27zM942 60v-26h-13v51h13v-9l5 6q3 3 8 3q12 0 17 -10l5 7q3 3 10 3q16 0 16 -12q1 -3 1 -11v-28
h-12v26q0 16 -11 16q-8 0 -8 -16v-26h-12v34q-5 8 -9 8q-10 0 -10 -16zM305 423q0 37 24 60.5t62 23.5q36 0 60 -23.5t24 -60.5q0 -39 -24 -63t-60 -24q-38 0 -62 24t-24 63zM629 423q0 37 24 60.5t62 23.5q36 0 58.5 -23.5t22.5 -60.5q0 -39 -22.5 -63t-58.5 -24
q-38 0 -62 24t-24 63zM305 861q0 39 24 62.5t62 23.5q36 0 60 -24.5t24 -61.5t-24 -61.5t-60 -24.5q-38 0 -62 24t-24 62zM1006 1247v-1104h-906v1104h906zM629 861q0 38 24 62t62 24q36 0 58.5 -24t22.5 -62t-22.5 -62t-58.5 -24q-38 0 -62 24t-24 62z" />
    </font>
</defs>
</svg>
