<?xml version="1.0" standalone="no"?>
<!DOCTYPE svg PUBLIC "-//W3C//DTD SVG 1.1//EN" "http://www.w3.org/Graphics/SVG/1.1/DTD/svg11.dtd" >
<svg xmlns="http://www.w3.org/2000/svg" xmlns:xlink="http://www.w3.org/1999/xlink" version="1.1">
<metadata>
Created by FontForge 20201107 at Tue Aug 12 14:25:39 2025
 By 
Copyright (c) 2025 by Designova. All rights reserved.
</metadata>
<defs>
<font id="ArenaUno-Regular" horiz-adv-x="1461" >
  <font-face 
    font-family="Arena Uno"
    font-weight="400"
    font-stretch="normal"
    units-per-em="2048"
    panose-1="0 0 0 0 0 0 0 0 0 0"
    ascent="1638"
    descent="-410"
    x-height="1031"
    cap-height="1403"
    bbox="-208 -541 2548 1897"
    underline-thickness="50"
    underline-position="-125"
    unicode-range="U+000D-25CA"
  />
<missing-glyph horiz-adv-x="1608" 
d="M425 294h-26v-129h31v83h1l62 -83h29v129h-31v-81h-2zM535 213q0 -28 25 -43q18 -6 29 -6q32 0 48 23q6 12 6 26q0 24 -15 37t-39 13q-36 0 -48 -24q-6 -11 -6 -26zM694 230q0 -41 32 -59q19 -7 37 -7q27 0 44.5 14t17.5 40v17h-59v-21h31q0 -16 -16 -22q-5 -4 -18 -4
q-23 0 -33 19q-5 7 -5 23q0 28 18 38q12 5 19 5q28 0 31 -21h31q-1 18 -20 33q-17 11 -42 11q-31 0 -49.5 -18t-18.5 -48zM872 294h-29v-129h29v129zM936 192l-22 71h-33l40 -99l-2 -5q-2 -11 -22 -7l-7 -19q10 -4 20 -4q20 0 32 14q5 3 8 13l41 107h-31l-22 -71h-2z
M1031 263h-30v-134h31v52q6 -10 18 -14q3 -3 13 -3q27 0 39 23q6 10 6 26q0 31 -21 45q-13 5 -24 5q-17 0 -25 -9q-4 -3 -6 -9h-1v18zM1150 294h-27v-129h28v56q0 14 11 18q4 3 11 3q19 0 19 -19v-58h31v62q0 24 -19 33q-12 3 -19 3q-25 0 -34 -18h-1v49zM389 1112l301 -301
l-301 -301l116 -114l299 298l304 -298l118 114l-301 301l296 301l-113 114l-304 -299l-297 299zM565 213q0 12 6.5 21t17.5 9q23 0 23 -30q0 -17 -10 -25q-10 -2 -13 -2q-17 0 -20 14q-4 5 -4 13zM1031 213q0 17 10 25q5 5 12 5q24 0 24 -30q0 -15 -10 -25q-8 -2 -14 -2
q-14 0 -20 14q-2 8 -2 13zM1419 1377v-1378h-1224v1378h1224z" />
    <glyph glyph-name=".notdef" horiz-adv-x="1608" 
d="M425 294h-26v-129h31v83h1l62 -83h29v129h-31v-81h-2zM535 213q0 -28 25 -43q18 -6 29 -6q32 0 48 23q6 12 6 26q0 24 -15 37t-39 13q-36 0 -48 -24q-6 -11 -6 -26zM694 230q0 -41 32 -59q19 -7 37 -7q27 0 44.5 14t17.5 40v17h-59v-21h31q0 -16 -16 -22q-5 -4 -18 -4
q-23 0 -33 19q-5 7 -5 23q0 28 18 38q12 5 19 5q28 0 31 -21h31q-1 18 -20 33q-17 11 -42 11q-31 0 -49.5 -18t-18.5 -48zM872 294h-29v-129h29v129zM936 192l-22 71h-33l40 -99l-2 -5q-2 -11 -22 -7l-7 -19q10 -4 20 -4q20 0 32 14q5 3 8 13l41 107h-31l-22 -71h-2z
M1031 263h-30v-134h31v52q6 -10 18 -14q3 -3 13 -3q27 0 39 23q6 10 6 26q0 31 -21 45q-13 5 -24 5q-17 0 -25 -9q-4 -3 -6 -9h-1v18zM1150 294h-27v-129h28v56q0 14 11 18q4 3 11 3q19 0 19 -19v-58h31v62q0 24 -19 33q-12 3 -19 3q-25 0 -34 -18h-1v49zM389 1112l301 -301
l-301 -301l116 -114l299 298l304 -298l118 114l-301 301l296 301l-113 114l-304 -299l-297 299zM565 213q0 12 6.5 21t17.5 9q23 0 23 -30q0 -17 -10 -25q-10 -2 -13 -2q-17 0 -20 14q-4 5 -4 13zM1031 213q0 17 10 25q5 5 12 5q24 0 24 -30q0 -15 -10 -25q-8 -2 -14 -2
q-14 0 -20 14q-2 8 -2 13zM1419 1377v-1378h-1224v1378h1224z" />
    <glyph glyph-name="uni0000" horiz-adv-x="0" 
 />
    <glyph glyph-name="uni0000" horiz-adv-x="0" 
 />
    <glyph glyph-name="uni000D" unicode="&#xd;" horiz-adv-x="512" 
 />
    <glyph glyph-name="space" unicode=" " horiz-adv-x="668" 
 />
    <glyph glyph-name="exclam" unicode="!" horiz-adv-x="430" 
d="M262 244h-135l-12 1139h159zM194 159q40 0 67.5 -26.5t27.5 -65.5q0 -40 -27 -66.5t-68 -26.5q-39 0 -67 26.5t-28 66.5q0 39 28.5 65.5t66.5 26.5z" />
    <glyph glyph-name="quotedbl" unicode="&#x22;" horiz-adv-x="267" 
d="M237 935h-127l-11 534h146zM413 935h-126l-11 534h146z" />
    <glyph glyph-name="numbersign" unicode="#" horiz-adv-x="1516" 
d="M1029 808h-492l-51 -216h492zM456 458l-106 -458h-145l107 458h-213v134h243l51 216h-232v136h262l106 456h145l-106 -456h491l106 456h144l-106 -456h213v-136h-243l-51 -216h232v-134h-262l-106 -458h-145l106 458h-491z" />
    <glyph glyph-name="dollar" unicode="$" horiz-adv-x="1138" 
d="M652 603v-497q112 15 173 75t61 154q0 95 -56.5 160t-177.5 108zM308 1035q0 -100 54 -156.5t161 -93.5v488q-96 -16 -155.5 -77.5t-59.5 -160.5zM652 1277v-522q383 -116 383 -412q0 -145 -103.5 -247t-279.5 -120v-147h-129v147q-119 12 -211.5 63t-151 148t-61.5 227
h146q6 -130 79.5 -208.5t198.5 -95.5v526q-79 23 -140 53t-114 76t-82 113t-29 151q0 157 102.5 257t262.5 119v150h129v-148q178 -19 276.5 -138.5t110.5 -290.5h-146q-8 128 -70 205.5t-171 93.5z" />
    <glyph glyph-name="percent" unicode="%" horiz-adv-x="1421" 
d="M397 1408q135 0 215.5 -95t80.5 -242q0 -144 -81 -240.5t-215 -96.5q-137 0 -217.5 96t-80.5 241q0 147 80.5 242t217.5 95zM325 0h-162l931 1383h164zM397 1282q-74 0 -113.5 -55.5t-39.5 -155.5q0 -99 40 -154.5t113 -55.5q72 0 112.5 56t40.5 154q0 99 -40.5 155
t-112.5 56zM1023 647q136 0 217 -95t81 -242q0 -145 -81.5 -240.5t-216.5 -95.5q-136 0 -216.5 95.5t-80.5 240.5q0 147 80.5 242t216.5 95zM1023 521q-73 0 -112.5 -55.5t-39.5 -155.5q0 -98 39.5 -154t112.5 -56q72 0 112 56t40 154q0 99 -40 155t-112 56z" />
    <glyph glyph-name="ampersand" unicode="&#x26;" horiz-adv-x="1585" 
d="M597 108q228 0 370 152q-125 96 -255.5 224t-223.5 240q-121 -64 -187 -138.5t-66 -180.5q0 -74 31 -132.5t82.5 -93.5t115 -53t133.5 -18zM537 850l12 5q36 15 73 35.5t77.5 49t71.5 59.5t51.5 68.5t20.5 74.5q0 77 -59.5 116.5t-140.5 39.5q-89 0 -154 -46.5
t-65 -132.5q0 -103 113 -269zM1075 184q-91 -101 -218.5 -154t-267.5 -53q-96 0 -183 27.5t-156 78.5t-110 133t-41 183q0 76 25 140t73 114t99 86.5t122 74.5q-123 184 -123 312q0 143 99 223t240 80q145 0 242 -77.5t97 -202.5q0 -55 -27.5 -108.5t-64 -91.5t-92 -77.5
t-92.5 -60t-85 -45.5q76 -91 203 -207.5t232 -192.5q80 146 85 318h128q2 -87 -26.5 -197.5t-79.5 -195.5q103 -71 174 -110.5t157 -70.5l-49 -121q-93 32 -168.5 74t-192.5 121z" />
    <glyph glyph-name="quotesingle" unicode="'" horiz-adv-x="344" 
d="M234 935h-127l-8 534h145z" />
    <glyph glyph-name="parenleft" unicode="(" horiz-adv-x="650" 
d="M388 1555h141q-121 -176 -188.5 -397t-67.5 -457q0 -234 67.5 -456t188.5 -398h-141q-114 159 -181 389t-67 465t67 465t181 389z" />
    <glyph glyph-name="parenright" unicode=")" horiz-adv-x="652" 
d="M120 1555h141q114 -159 181.5 -389t67.5 -465q0 -234 -67.5 -464.5t-181.5 -389.5h-141q122 174 189.5 396.5t67.5 457.5q0 237 -67 458t-190 396z" />
    <glyph glyph-name="asterisk" unicode="*" horiz-adv-x="965" 
d="M525 623l300 107l40 -126l-301 -89l216 -270l-112 -74l-202 280l-201 -280l-113 74l216 270l-301 89l39 126l301 -107l-10 348h137z" />
    <glyph glyph-name="plus" unicode="+" horiz-adv-x="1069" 
d="M970 576h-371v-411h-129v411h-371v125h371v411h129v-411h371v-125z" />
    <glyph glyph-name="comma" unicode="," horiz-adv-x="529" 
d="M388 150l-151 -373h-138l131 373h158z" />
    <glyph glyph-name="hyphen" unicode="-" horiz-adv-x="765" 
d="M623 509h-483v125h483v-125z" />
    <glyph glyph-name="period" unicode="." horiz-adv-x="430" 
d="M194 159q40 0 67.5 -26.5t27.5 -65.5q0 -40 -27 -66.5t-68 -26.5q-39 0 -67 26.5t-28 66.5q0 39 28.5 65.5t66.5 26.5z" />
    <glyph glyph-name="slash" unicode="/" horiz-adv-x="855" 
d="M234 -57h-135l522 1498h134z" />
    <glyph glyph-name="zero" unicode="0" horiz-adv-x="1152" 
d="M576 1405q106 0 190 -35.5t140.5 -98t93.5 -153t53 -196t16 -230.5q0 -126 -16 -231t-53 -195.5t-93.5 -153t-140 -98t-190.5 -35.5q-131 0 -228 53.5t-154 152t-84 224.5t-27 283q0 126 16.5 231.5t53.5 195.5t93.5 152.5t140 98t189.5 35.5zM576 99q352 0 352 593
t-352 593q-353 0 -353 -593t353 -593z" />
    <glyph glyph-name="one" unicode="1" horiz-adv-x="885" 
d="M697 1378v-1373h-120v1251h-390v122h510z" />
    <glyph glyph-name="two" unicode="2" horiz-adv-x="1195" 
d="M1049 125v-120h-945v87l488 463q179 168 244 263.5t65 193.5q0 120 -75 196.5t-210 76.5q-136 0 -222 -83t-102 -228l-5 -44h-133l5 51q21 195 147 309.5t315 114.5q102 0 183 -30.5t132.5 -84t78.5 -123t27 -149.5q0 -131 -83.5 -253.5t-274.5 -298.5l-365 -341h730z
" />
    <glyph glyph-name="three" unicode="3" horiz-adv-x="1133" 
d="M812 725q113 -41 175 -126t62 -212q0 -124 -66 -218t-176 -142t-246 -48q-198 0 -323.5 107.5t-147.5 313.5l-6 51h133l5 -44q16 -143 105.5 -225.5t237.5 -82.5q153 0 247.5 75.5t94.5 210.5q0 121 -89.5 191t-272.5 70h-62v120h62q85 0 161 32t126 96t50 145
q0 119 -77 182.5t-202 63.5q-134 0 -219.5 -75.5t-100.5 -212.5l-5 -44h-133l5 51q19 186 144.5 293.5t313.5 107.5q193 0 303 -100.5t110 -257.5q0 -105 -56.5 -190.5t-152.5 -131.5z" />
    <glyph glyph-name="four" unicode="4" horiz-adv-x="1282" 
d="M292 495h521v661q-62 -81 -112 -143zM1135 495v-120h-190v-370h-132v370h-709v80l730 923h111v-883h190z" />
    <glyph glyph-name="five" unicode="5" horiz-adv-x="1179" 
d="M584 898q209 0 329 -129t120 -327q0 -142 -68 -249t-176.5 -160.5t-237.5 -53.5q-86 0 -161 23t-136.5 69.5t-102.5 123t-52 176.5l-5 52h133l5 -44q17 -129 99.5 -204.5t219.5 -75.5q67 0 127.5 21t108.5 61.5t76.5 107t28.5 149.5q0 156 -87 247.5t-231 91.5
q-237 0 -330 -211h-126l130 806h768v-120h-657l-77 -454q135 100 302 100z" />
    <glyph glyph-name="six" unicode="6" horiz-adv-x="1128" 
d="M554 99q156 0 252 100t96 252q0 163 -90.5 266t-247.5 103q-146 0 -246 -96t-100 -246q0 -165 90 -272t246 -107zM574 940q146 0 254.5 -66t162 -174.5t53.5 -242.5q0 -204 -139 -341t-353 -137q-229 0 -354.5 153.5t-125.5 477.5q0 403 138.5 599t382.5 196
q184 0 289.5 -95.5t136.5 -267.5l12 -53h-135l-11 42q-27 130 -99 192t-196 62q-58 0 -106 -13.5t-95 -48.5t-81.5 -91.5t-60 -147.5t-36.5 -211q137 167 363 167z" />
    <glyph glyph-name="seven" unicode="7" horiz-adv-x="1096" 
d="M1034 1378v-70l-725 -1303h-148l698 1253h-797v120h972z" />
    <glyph glyph-name="eight" unicode="8" horiz-adv-x="1183" 
d="M596 97q67 0 127 17.5t108.5 51t77 87.5t28.5 122q0 128 -85.5 205t-251.5 77q-169 0 -262 -78.5t-93 -203.5q0 -90 49.5 -154.5t127.5 -94t174 -29.5zM311 1031q0 -122 84.5 -188t210.5 -66q127 0 212 66t85 188q0 116 -78.5 185t-218.5 69q-139 0 -217 -69t-78 -185z
M854 723q108 -47 166 -137t58 -209q0 -97 -40.5 -175t-109 -126.5t-155 -73.5t-182.5 -25q-102 0 -189.5 25t-154.5 73.5t-105 126t-38 175.5q0 118 65.5 209t179.5 138q-85 45 -132 124.5t-47 182.5q0 162 118 268t318 106q207 0 321.5 -105.5t114.5 -268.5
q0 -103 -50 -183.5t-138 -124.5z" />
    <glyph glyph-name="nine" unicode="9" horiz-adv-x="1139" 
d="M562 564q146 0 245 95.5t99 246.5q0 165 -89 272t-245 107q-157 0 -253 -100.5t-96 -252.5q0 -162 91.5 -265t247.5 -103zM572 1405q231 0 357 -154t126 -478q0 -395 -139 -594.5t-382 -199.5q-185 0 -290.5 96t-138.5 269l-5 52h133l8 -42q27 -131 100 -193t197 -62
q325 0 374 510q-133 -165 -360 -165q-110 0 -200 38.5t-148 105t-89.5 153t-31.5 185.5q0 204 138 341.5t351 137.5z" />
    <glyph glyph-name="colon" unicode=":" horiz-adv-x="430" 
d="M194 1099q41 0 68 -26.5t27 -66.5q0 -39 -27.5 -66t-67.5 -27q-39 0 -67 27.5t-28 65.5q0 40 28.5 66.5t66.5 26.5zM194 159q40 0 67.5 -26.5t27.5 -65.5q0 -40 -27 -66.5t-68 -26.5q-39 0 -67 26.5t-28 66.5q0 39 28.5 65.5t66.5 26.5z" />
    <glyph glyph-name="semicolon" unicode=";" horiz-adv-x="541" 
d="M303 1099q41 0 68.5 -26.5t27.5 -66.5q0 -39 -27.5 -66t-68.5 -27q-38 0 -66.5 27.5t-28.5 65.5q0 40 28 66.5t67 26.5zM391 156l-151 -379h-141l131 379h161z" />
    <glyph glyph-name="less" unicode="&#x3c;" horiz-adv-x="1061" 
d="M962 855l-674 -314l674 -316v-143l-863 405v104l863 407v-143z" />
    <glyph glyph-name="equal" unicode="=" horiz-adv-x="1099" 
d="M1000 753h-901v123h901v-123zM1000 400h-901v124h901v-124z" />
    <glyph glyph-name="greater" unicode="&#x3e;" horiz-adv-x="1061" 
d="M962 591v-104l-863 -405v141l676 316l-676 314v145z" />
    <glyph glyph-name="question" unicode="?" horiz-adv-x="1120" 
d="M556 1410q198 0 310.5 -106.5t112.5 -268.5q0 -201 -201 -389q-125 -115 -157 -187t-31 -215h-139q0 89 6.5 142.5t29.5 110.5t64 107t113 119q88 88 126 159.5t38 152.5q0 115 -73 180t-199 65q-147 0 -227.5 -89.5t-85.5 -248.5h-144q-4 206 124.5 337t332.5 131z
M523 159q39 0 67 -26.5t28 -65.5q0 -40 -28 -66.5t-67 -26.5q-41 0 -68.5 26.5t-27.5 66.5q0 39 27.5 65.5t68.5 26.5z" />
    <glyph glyph-name="at" unicode="@" horiz-adv-x="1725" 
d="M1022 561l18 76q24 100 -10.5 162t-110.5 62q-123 0 -213.5 -117t-90.5 -281q0 -207 153 -207q81 0 149.5 76t104.5 229zM1119 955h145l-115 -468q-20 -86 -20 -133q0 -86 102 -86q109 0 185.5 108.5t76.5 290.5q0 254 -153.5 398t-402.5 144q-98 0 -197.5 -30.5
t-190.5 -91t-161 -144t-112 -197.5t-42 -243q0 -139 46 -250t125 -181.5t180.5 -107.5t215.5 -37q154 0 279 40t263 138l65 -110q-165 -112 -305 -153t-304 -41q-106 0 -206.5 27t-190.5 83.5t-157 137.5t-106.5 197t-39.5 253q0 152 49 287t132.5 233.5t192 170
t230.5 107.5t245 36q198 0 352.5 -83t240 -233t85.5 -342q0 -128 -34.5 -231.5t-92.5 -168t-130.5 -98.5t-150.5 -34q-68 0 -125 26.5t-86 83.5l3 6q-112 -131 -259 -131q-51 0 -98 16t-91.5 51t-71 102t-26.5 158q0 139 58.5 261t164.5 197.5t234 75.5q126 0 186 -80z" />
    <glyph glyph-name="A" unicode="A" horiz-adv-x="1451" 
d="M1000 523l-275 690l-278 -690h553zM99 0l563 1410h122l567 -1410h-142l-156 390h-659l-157 -390h-138z" />
    <glyph glyph-name="B" unicode="B" horiz-adv-x="1358" 
d="M640 661h-400v-534h441q49 0 82.5 1t82.5 6.5t81.5 15t69.5 28t59.5 45t37 66.5t14.5 91q0 71 -26 123t-67.5 81.5t-105.5 47.5t-126 23.5t-143 5.5zM642 1281h-402v-491h400q159 0 221 12q162 32 184 168q4 23 4 49q0 70 -20.5 118.5t-53 76.5t-88.5 43t-110 19.5
t-135 4.5zM681 0h-574v1410h535q193 0 313 -40q234 -85 234 -351q0 -83 -34 -157q-37 -89 -153 -133q244 -80 244 -349q0 -79 -23 -141t-65.5 -102.5t-94 -68.5t-119 -42t-129 -20t-134.5 -6z" />
    <glyph glyph-name="C" unicode="C" horiz-adv-x="1568" 
d="M793 -23q-196 0 -352 82q-164 85 -254 249.5t-90 397.5q0 154 37.5 277.5t102.5 206.5t155.5 139t192.5 80.5t218 24.5q261 0 433.5 -143t212.5 -409h-138q-33 205 -165 316t-343 111q-266 0 -418.5 -156t-152.5 -447q0 -296 149.5 -450.5t411.5 -154.5q230 0 364 110.5
t163 309.5h139q-36 -265 -211.5 -404.5t-454.5 -139.5z" />
    <glyph glyph-name="D" unicode="D" horiz-adv-x="1450" 
d="M529 1282h-254v-1155h254q141 0 245 15t194 53.5t146.5 103t88 166.5t31.5 241q0 286 -183.5 431t-521.5 145zM529 0h-389v1410h389q391 0 616.5 -182.5t225.5 -521.5q0 -516 -409 -648q-186 -58 -433 -58z" />
    <glyph glyph-name="E" unicode="E" horiz-adv-x="1273" 
d="M1153 0h-1013v1410h991v-129h-856v-503h704v-130h-704v-521h878v-127z" />
    <glyph glyph-name="F" unicode="F" horiz-adv-x="1168" 
d="M275 0h-135v1410h991v-129h-856v-503h704v-130h-704v-648z" />
    <glyph glyph-name="G" unicode="G" horiz-adv-x="1569" 
d="M781 -33q-314 0 -498 197t-184 535q0 344 186 539.5t512 195.5q271 0 443.5 -136t203.5 -392h-128q-75 400 -519 400q-275 0 -423 -159t-148 -448q0 -287 148 -447.5t412 -160.5q225 0 361.5 118.5t157.5 328.5h-554v129h718v-667h-121l-14 250q-32 -54 -77.5 -101
t-112 -89.5t-160 -67.5t-203.5 -25z" />
    <glyph glyph-name="H" unicode="H" horiz-adv-x="1399" 
d="M274 0h-134v1410h134v-613h854v613h130v-1410h-130v671h-854v-671z" />
    <glyph glyph-name="I" unicode="I" horiz-adv-x="476" 
d="M303 0h-131v1403h131v-1403z" />
    <glyph glyph-name="J" unicode="J" horiz-adv-x="1374" 
d="M57 639h130q-8 -265 113 -405t345 -140q463 0 463 512v804h127v-804q0 -307 -152.5 -473t-437.5 -166q-284 0 -440.5 178.5t-147.5 493.5z" />
    <glyph glyph-name="K" unicode="K" horiz-adv-x="1363" 
d="M276 -2h-136v1412h136v-721l804 721h212l-704 -626l718 -784h-193l-623 697l-214 -190v-509z" />
    <glyph glyph-name="L" unicode="L" horiz-adv-x="1253" 
d="M140 0v1410h133v-1286h860v-124h-993z" />
    <glyph glyph-name="M" unicode="M" horiz-adv-x="1634" 
d="M272 1065v-1065h-132v1405h122l554 -1258l549 1258h127v-1405h-131v1081l-475 -1081h-147z" />
    <glyph glyph-name="N" unicode="N" horiz-adv-x="1342" 
d="M269 0h-129v1404h120l814 -1165v1165h127v-1404h-114l-818 1175v-1175z" />
    <glyph glyph-name="O" unicode="O" horiz-adv-x="1586" 
d="M791 -33q-331 0 -511.5 197t-180.5 537q0 342 179.5 537.5t512.5 195.5q335 0 515 -196.5t180 -536.5q0 -343 -183.5 -538.5t-511.5 -195.5zM791 94q274 0 418 158.5t144 448.5q0 295 -142.5 450t-419.5 155q-276 0 -418.5 -155t-142.5 -450q0 -294 144 -450.5
t417 -156.5z" />
    <glyph glyph-name="P" unicode="P" horiz-adv-x="1260" 
d="M675 1281h-402v-614h402q181 0 268.5 74t87.5 230q0 162 -85 236t-271 74zM273 534v-534h-133v1410h535q239 0 362 -111t123 -328q0 -210 -126.5 -323.5t-358.5 -113.5h-402z" />
    <glyph glyph-name="Q" unicode="Q" horiz-adv-x="1586" 
d="M791 94q274 0 418 158.5t144 448.5q0 295 -142.5 450t-419.5 155q-276 0 -418.5 -155t-142.5 -450q0 -294 144 -450.5t417 -156.5zM791 -33q-331 0 -511.5 197t-180.5 537q0 342 179.5 537.5t512.5 195.5q335 0 515 -196.5t180 -536.5q0 -353 -193 -549q83 -27 185 -115
l-82 -97q-77 59 -131.5 81.5t-116.5 24.5q-152 -79 -357 -79z" />
    <glyph glyph-name="R" unicode="R" horiz-adv-x="1322" 
d="M628 1281h-353v-551h416q202 0 290.5 61.5t88.5 212.5q0 55 -11.5 98t-29.5 72t-51 49.5t-65 31.5t-83.5 17t-93.5 7.5t-108 1.5zM275 604v-604h-135v1410h488q69 0 123.5 -3.5t116 -13.5t108 -28t90.5 -48.5t72.5 -72.5t45.5 -103t17 -137q0 -114 -52 -204t-150 -133
q38 -19 67 -48.5t48 -61t32 -78.5t19.5 -85t10.5 -96t4.5 -97t1 -102.5t1.5 -98.5h-127q0 80 -0.5 129.5t-3.5 110.5t-8.5 98t-15 79t-24 67t-35 49t-48.5 37.5t-63 21.5q-65 12 -171 13q-106 2 -264 0q-49 -1 -148 -1z" />
    <glyph glyph-name="S" unicode="S" horiz-adv-x="1369" 
d="M724 -33q-127 0 -236.5 31.5t-194 91t-131 156t-42.5 217.5h130l9 -73q9 -67 41 -119.5t77 -85t104.5 -53.5t119 -29.5t125.5 -8.5q97 0 172 19.5t116 47t66.5 63.5t33.5 63t8 52q3 89 -40 141q-75 95 -304 150q-219 52 -287 76q-202 68 -270 186q-43 76 -40 181
q5 110 78.5 193t193 125.5t264.5 42.5q161 0 282.5 -56.5t185.5 -167.5t50 -261h-136q7 59 -2.5 109.5t-31.5 86t-54.5 64.5t-69.5 46.5t-78 29.5t-77 16.5t-71 4.5q-173 0 -284.5 -68t-116.5 -169q-3 -81 39 -134q78 -93 302 -143q220 -51 306 -83q203 -77 261 -215
q29 -69 27 -156q-3 -111 -74 -196.5t-188.5 -130t-262.5 -44.5z" />
    <glyph glyph-name="T" unicode="T" horiz-adv-x="1297" 
d="M715 0h-131v1282h-485v128h1098v-128h-482v-1282z" />
    <glyph glyph-name="U" unicode="U" 
d="M729 -33q-276 0 -432.5 169.5t-156.5 469.5v804h131v-804q0 -250 120.5 -381t337.5 -131q462 0 462 512v804h128v-804q0 -307 -152.5 -473t-437.5 -166z" />
    <glyph glyph-name="V" unicode="V" horiz-adv-x="1330" 
d="M743 0h-160l-547 1410h141l485 -1245l486 1245h145z" />
    <glyph glyph-name="W" unicode="W" horiz-adv-x="2244" 
d="M1693 0h-162l-415 1181l-437 -1181h-160l-483 1410h143l424 -1237l455 1237h120l433 -1238l450 1238h146z" />
    <glyph glyph-name="X" unicode="X" horiz-adv-x="1432" 
d="M240 0h-162l555 749l-498 661h172l406 -552l407 552h172l-494 -661l555 -749h-168l-472 640z" />
    <glyph glyph-name="Y" unicode="Y" horiz-adv-x="1285" 
d="M709 0h-134v533l-497 877h147l421 -733l414 733h146l-497 -877v-533z" />
    <glyph glyph-name="Z" unicode="Z" horiz-adv-x="1385" 
d="M1278 0h-1179v101l996 1180h-902v129h1092v-102l-996 -1179h989v-129z" />
    <glyph glyph-name="bracketleft" unicode="[" horiz-adv-x="635" 
d="M514 1555v-125h-245v-1457h245v-126h-374v1708h374z" />
    <glyph glyph-name="backslash" unicode="\" horiz-adv-x="855" 
d="M755 -57h-134l-522 1498h135z" />
    <glyph glyph-name="bracketright" unicode="]" horiz-adv-x="639" 
d="M497 -153h-377v126h248v1457h-248v125h377v-1708z" />
    <glyph glyph-name="asciicircum" unicode="^" horiz-adv-x="1058" 
d="M816 410l-286 657l-287 -657h-144l374 832h118l368 -832h-143z" />
    <glyph glyph-name="underscore" unicode="_" horiz-adv-x="1143" 
d="M1001 -157h-861v126h861v-126z" />
    <glyph glyph-name="grave" unicode="`" horiz-adv-x="772" 
d="M547 1106h-131l-192 277h165z" />
    <glyph glyph-name="a" unicode="a" horiz-adv-x="1014" 
d="M424 101q176 0 265.5 72.5t89.5 232.5v91q-55 3 -96 3q-36 0 -73.5 -2t-84 -9t-88 -17t-82 -28t-69.5 -41t-47 -57t-18 -74q0 -171 203 -171zM409 -24q-150 0 -240.5 76t-90.5 216t112.5 226t297.5 113q113 16 231 14h60v90q-9 107 -60.5 155.5t-152.5 48.5h-73
q-102 0 -170 -59t-72 -177h-136q-4 156 103.5 259t274.5 103h73q165 0 253.5 -81t94.5 -228v-731h-109l-17 141q-123 -166 -379 -166z" />
    <glyph glyph-name="b" unicode="b" horiz-adv-x="1214" 
d="M649 111q167 0 259.5 110.5t92.5 284.5q0 170 -100.5 280.5t-270.5 110.5q-148 0 -248 -105t-100 -286q0 -124 52.5 -215.5t134.5 -135.5t180 -44zM644 -23q-237 0 -375 200l-16 -177h-113v1410h137v-562q129 183 364 183q223 0 358.5 -150.5t135.5 -374.5
q0 -230 -137 -379.5t-354 -149.5z" />
    <glyph glyph-name="c" unicode="c" horiz-adv-x="1149" 
d="M583 -23q-231 0 -368 141t-137 374q8 245 148.5 392t363.5 147q192 0 323.5 -106.5t156.5 -282.5h-133q-18 118 -112 187.5t-235 69.5q-165 0 -270 -111t-108 -299q0 -174 100.5 -277t270.5 -103q144 0 240 69t114 188h133q-24 -171 -158.5 -280t-328.5 -109z" />
    <glyph glyph-name="d" unicode="d" horiz-adv-x="1212" 
d="M563 111q153 0 260 105t107 290q0 182 -99 286.5t-248 104.5q-168 0 -268.5 -110.5t-100.5 -280.5q0 -174 91.5 -284.5t257.5 -110.5zM571 -23q-216 0 -354.5 150.5t-138.5 378.5q0 146 60.5 265.5t174 189.5t260.5 70q237 0 363 -184v563h134v-1410h-108l-18 178
q-135 -201 -373 -201z" />
    <glyph glyph-name="e" unicode="e" horiz-adv-x="1139" 
d="M227 606h694q-8 54 -32 104.5t-63 95t-101 71.5t-136 27q-139 0 -237 -82.5t-125 -215.5zM576 -23q-121 0 -218.5 45.5t-158 121.5t-92 172t-29.5 200q5 223 146.5 369t364.5 146q196 0 325.5 -125t144.5 -331l2 -30v-65h-847q8 -176 102 -276t260 -100q138 0 233 72
t107 190h136q-19 -172 -153.5 -280.5t-322.5 -108.5z" />
    <glyph glyph-name="f" unicode="f" horiz-adv-x="745" 
d="M377 0h-137v904h-173v127h176v98q0 71 8.5 121t25.5 81t43 48.5t60 24t77 8t95 -0.5q54 -1 83 -1h63v-128h-63q-195 3 -228 -12.5t-32 -106.5v-34v-98h322v-127h-320v-904z" />
    <glyph glyph-name="g" unicode="g" horiz-adv-x="1215" 
d="M564 111q73 0 138.5 26t117 74.5t81.5 124.5t30 170q0 181 -99.5 286t-248.5 105q-168 0 -268.5 -110.5t-100.5 -280.5q0 -174 92 -284.5t258 -110.5zM939 -25v194q-138 -192 -368 -192q-216 0 -354.5 150.5t-138.5 378.5q0 229 137.5 377t357.5 148q236 0 363 -182
l13 182h124v-1056q0 -290 -136 -415q-106 -100 -336 -100t-335 100q-116 103 -134 318h136l6 -36q11 -59 15 -73q17 -59 50.5 -97t98.5 -60.5t163 -22.5q144 0 215 46t97 136q26 88 26 204z" />
    <glyph glyph-name="h" unicode="h" horiz-adv-x="1154" 
d="M273 0h-133v1410h133v-555q123 176 352 176q122 0 207 -37t133 -108t68.5 -161t20.5 -210v-515h-131v515q0 194 -66.5 290t-226.5 96q-164 0 -260.5 -112t-96.5 -302v-487z" />
    <glyph glyph-name="i" unicode="i" horiz-adv-x="485" 
d="M309 0h-133v1031h133v-1031zM243 1128q-53 0 -78 29.5t-25 71.5q0 41 25.5 69.5t77.5 28.5q101 0 101 -98q0 -101 -101 -101z" />
    <glyph glyph-name="j" unicode="j" horiz-adv-x="450" 
d="M-150 -538v126h81q160 -1 186 14t25 105v37v1287h136l-2 -1287q0 -71 -1.5 -110t-9 -76t-18.5 -52.5t-34.5 -28.5t-52 -15.5t-76.5 -2.5q-24 0 -101.5 1.5t-132.5 1.5zM210 1128q-54 0 -79 29.5t-25 71.5q0 40 25.5 69t78.5 29q100 0 100 -98q0 -101 -100 -101z" />
    <glyph glyph-name="k" unicode="k" horiz-adv-x="1212" 
d="M1088 -5h-179l-424 484l-211 -191v-290h-134v1412h134v-942l620 563h197l-508 -463z" />
    <glyph glyph-name="l" unicode="l" horiz-adv-x="416" 
d="M274 0h-134v1410h134v-1410z" />
    <glyph glyph-name="m" unicode="m" horiz-adv-x="1735" 
d="M273 0h-133v1031h104l22 -172q109 172 323 172q235 0 322 -216q46 92 134.5 154t223.5 62q199 0 291 -147q76 -137 76 -369v-515h-132v515q0 38 -1 65.5t-6 70.5t-14.5 74.5t-27.5 66.5t-43 57t-64 37t-88 15q-140 0 -223 -112t-83 -302v-487h-131v515q0 37 -1 65.5
t-6.5 71t-15 74t-27.5 66.5t-43.5 57.5t-64 37t-87.5 14.5q-140 0 -222.5 -112t-82.5 -302v-487z" />
    <glyph glyph-name="n" unicode="n" horiz-adv-x="1154" 
d="M273 0h-133v1031h103l24 -185q123 185 358 185q122 0 207 -37t133 -108t68.5 -161t20.5 -210v-515h-131v515q0 194 -66.5 290t-226.5 96q-164 0 -260.5 -112t-96.5 -302v-487z" />
    <glyph glyph-name="o" unicode="o" horiz-adv-x="1135" 
d="M568 -23q-230 0 -360 140t-130 384q0 248 130 389t360 141q232 0 360.5 -144.5t128.5 -385.5q0 -238 -126 -381t-363 -143zM568 106q94 0 163 30.5t109.5 85.5t60 124.5t19.5 154.5q0 181 -85 290.5t-267 109.5q-178 0 -265 -109.5t-87 -290.5q0 -62 10.5 -116.5
t36 -106.5t64.5 -89.5t100.5 -60t140.5 -22.5z" />
    <glyph glyph-name="p" unicode="p" horiz-adv-x="1214" 
d="M649 111q167 0 259.5 110.5t92.5 284.5q0 170 -100.5 280.5t-270.5 110.5q-148 0 -248 -105t-100 -286q0 -124 52.5 -215.5t134.5 -135.5t180 -44zM275 169v-709h-135v1571h116l15 -193q127 193 370 193q147 0 261 -70.5t173.5 -189.5t59.5 -267t-61 -268t-173.5 -189.5
t-256.5 -69.5q-232 0 -369 192z" />
    <glyph glyph-name="q" unicode="q" horiz-adv-x="1215" 
d="M564 111q73 0 138.5 26t117 74.5t81.5 124.5t30 170q0 181 -99.5 286t-248.5 105q-169 0 -269.5 -110.5t-100.5 -280.5q0 -174 92 -284.5t259 -110.5zM1073 1031v-1571h-135v708q-137 -191 -368 -191q-144 0 -256.5 69t-174 188.5t-61.5 269.5q0 229 139 378t356 149
q241 0 370 -194l13 194h117z" />
    <glyph glyph-name="r" unicode="r" horiz-adv-x="703" 
d="M273 0h-133v1031h108l19 -186q132 197 389 184l10 -129q-178 14 -285.5 -99t-107.5 -314v-487z" />
    <glyph glyph-name="s" unicode="s" horiz-adv-x="990" 
d="M494 -23q-56 0 -112 8.5t-120 34t-109 65.5t-69.5 110.5t-11.5 160.5h137q-10 -61 4 -108.5t43 -75t72.5 -44.5t83.5 -23t84 -6q133 0 215 41t79 125q0 70 -41 106q-42 37 -110.5 57.5t-178.5 39.5q-90 18 -172 44q-207 68 -202 265q1 121 119.5 199t300.5 78
q56 0 110.5 -8.5t116 -33.5t104.5 -65t66 -109.5t10 -160.5h-137q10 61 -4 107.5t-42 72.5t-71.5 42t-82.5 21t-84 5q-122 0 -198.5 -39t-76.5 -111q0 -60 39 -90q29 -23 80 -41.5t88.5 -26.5t117.5 -23q49 -10 81.5 -18.5t76 -23t72.5 -30t60 -40.5t49 -54.5t29.5 -71
t11.5 -91.5q0 -76 -33.5 -133t-93.5 -90t-135 -49t-166 -16z" />
    <glyph glyph-name="t" unicode="t" horiz-adv-x="708" 
d="M631 128v-128q-22 0 -64 -1q-52 -1 -95 0t-77 8t-59 24.5t-41.5 48.5t-25 81t-8.5 121v622h-172v127h172v251h131v-251h236v-127h-236v-622v-46t2 -35t5 -28.5t10 -19t16 -14.5t24 -7.5t33 -5t45 -0.5q20 0 104 2z" />
    <glyph glyph-name="u" unicode="u" horiz-adv-x="1102" 
d="M533 -23q-434 0 -434 514v540h135v-540q0 -68 6 -119.5t25 -104t51.5 -86t87 -54.5t129.5 -21q155 0 238 100t97 267v558h135v-1031h-108l-19 160q-56 -81 -143.5 -132t-199.5 -51z" />
    <glyph glyph-name="v" unicode="v" horiz-adv-x="1211" 
d="M678 0h-143l-457 1031h156l375 -866l369 866h155z" />
    <glyph glyph-name="w" unicode="w" horiz-adv-x="1639" 
d="M560 0h-145l-337 1031h140l266 -839l280 839h113l285 -839l260 839h138l-325 -1031h-151l-262 784z" />
    <glyph glyph-name="x" unicode="x" horiz-adv-x="1161" 
d="M265 0h-166l391 530l-377 501h168l294 -390l296 390h170l-382 -501l402 -530h-174l-312 419z" />
    <glyph glyph-name="y" unicode="y" horiz-adv-x="1211" 
d="M537 -5l-459 1036h156l375 -866l369 866h155l-694 -1571h-130z" />
    <glyph glyph-name="z" unicode="z" horiz-adv-x="1123" 
d="M1024 0h-925v97l717 809h-685v125h893v-105l-721 -802h721v-124z" />
    <glyph glyph-name="braceleft" unicode="{" horiz-adv-x="737" 
d="M616 1430h-67q-84 0 -123.5 -26.5t-39.5 -89.5q0 -35 21 -179q23 -165 23 -235q0 -59 -24.5 -112.5t-76.5 -85.5q52 -34 76.5 -87.5t24.5 -111.5q0 -71 -23 -236q-21 -140 -21 -178q0 -64 39 -90t124 -26h67v-126h-65q-294 0 -294 244q0 60 24 205q19 128 19 205
q0 140 -160 140v121q160 -1 160 140q0 77 -19 204q-24 148 -24 206q0 243 294 243h65v-125z" />
    <glyph glyph-name="bar" unicode="|" horiz-adv-x="452" 
d="M290 -382h-129v1975h129v-1975z" />
    <glyph glyph-name="braceright" unicode="}" horiz-adv-x="738" 
d="M435 902q0 -141 161 -140v-121q-161 0 -161 -140q0 -70 20 -205q24 -153 24 -205q0 -244 -294 -244h-65v126h67q85 0 124 26t39 90q0 35 -15 132q-5 33 -7 46q-22 158 -22 236q0 59 24.5 112t76.5 85q-51 35 -76 88.5t-25 111.5q0 77 22 235q22 119 22 179
q0 63 -39.5 89.5t-123.5 26.5h-67v125h65q294 0 294 -243q0 -51 -24 -206q-20 -134 -20 -204z" />
    <glyph glyph-name="asciitilde" unicode="~" horiz-adv-x="1100" 
d="M872 739h128q8 -148 -49 -223t-168 -75q-60 0 -112.5 17.5t-154.5 71.5q-85 46 -126 62t-80 16q-49 0 -69 -41t-15 -132h-127q-8 146 49 222t166 76q61 0 111.5 -18t156.5 -74q86 -46 126.5 -61t77.5 -15q52 0 71.5 40t14.5 134z" />
    <glyph glyph-name="exclamdown" unicode="&#xa1;" horiz-adv-x="388" 
d="M194 919q-39 0 -67 27.5t-28 65.5q0 40 28.5 66.5t66.5 26.5q41 0 68 -26.5t27 -66.5q0 -39 -27.5 -66t-67.5 -27zM127 836h135l12 -1141h-159z" />
    <glyph glyph-name="cent" unicode="&#xa2;" horiz-adv-x="1175" 
d="M248 548q0 -190 80.5 -302.5t204.5 -136.5v860q-121 -30 -203 -139t-82 -282zM662 975v-869q105 17 174.5 85.5t87.5 181.5h145q-22 -168 -132 -272.5t-275 -122.5v-149h-129v147q-191 23 -312.5 171.5t-121.5 391.5q0 227 123 379t311 181v151h129v-147
q177 -14 288.5 -126t124.5 -285h-145q-14 123 -83 196.5t-185 86.5z" />
    <glyph glyph-name="sterling" unicode="&#xa3;" horiz-adv-x="1114" 
d="M1014 130v-130h-915v120q125 25 206.5 104t81.5 199q0 57 -18 109.5t-59 121.5h-193v125h122q-62 126 -62 243q0 171 120 279.5t297 108.5q105 0 186 -34t130.5 -94.5t75 -139t27.5 -173.5h-147q-9 311 -277 311q-111 0 -187 -70.5t-76 -178.5q0 -64 19 -120t61 -132h471
v-125h-399q56 -115 56 -223q0 -185 -145 -301h625z" />
    <glyph glyph-name="currency" unicode="&#xa4;" horiz-adv-x="1070" 
d="M533 355q110 0 181.5 72t71.5 181t-71.5 181t-181.5 72q-108 0 -179 -72.5t-71 -180.5t71 -180.5t179 -72.5zM919 608q0 -120 -69 -220l120 -114l-97 -89l-114 113q-102 -67 -226 -67q-123 0 -224 67l-115 -113l-94 91l119 112q-71 96 -71 220t71 220l-120 114l96 87
l115 -110q101 66 223 66q126 0 224 -68l116 112l97 -87l-120 -115q69 -100 69 -219z" />
    <glyph glyph-name="yen" unicode="&#xa5;" horiz-adv-x="1310" 
d="M1210 1383l-419 -656h290v-124h-356v-76h356v-125h-356v-402h-143v402h-352v125h352v76h-352v124h287l-418 656h178l380 -619l379 619h174z" />
    <glyph glyph-name="brokenbar" unicode="&#xa6;" horiz-adv-x="411" 
d="M269 668h-129v715h129v-715zM269 -305h-129v716h129v-716z" />
    <glyph glyph-name="section" unicode="&#xa7;" horiz-adv-x="1265" 
d="M726 309q106 6 177 59.5t71 145.5q0 89 -81 145.5t-255 94.5q-86 20 -121 33q-47 -6 -85.5 -19t-72 -36.5t-52.5 -62.5t-19 -91q0 -85 83 -145.5t210 -87.5q76 -14 145 -36zM1124 522q0 -108 -60.5 -185t-159.5 -116q115 -91 115 -246q0 -142 -113.5 -224.5t-283.5 -82.5
q-182 0 -294.5 95.5t-140.5 290.5h144q28 -133 101.5 -195.5t195.5 -62.5q106 0 174 46.5t68 126.5q0 61 -26 102.5t-100.5 77.5t-208.5 64q-74 16 -141 44.5t-125.5 71.5t-93.5 105.5t-35 137.5q0 111 58.5 187t156.5 114q-108 89 -108 224q0 143 102 228t262 85
q184 0 285.5 -101t119.5 -267h-143q-27 122 -90.5 181t-173.5 59q-92 0 -152.5 -46.5t-60.5 -128.5q0 -47 21.5 -83.5t61.5 -62.5t90 -43.5t115 -30.5q440 -88 440 -365z" />
    <glyph glyph-name="dieresis" unicode="&#xa8;" horiz-adv-x="1232" 
d="M520 1325q35 0 61 -25t26 -61q0 -34 -26 -59t-61 -25q-36 0 -61.5 25t-25.5 59q0 36 25.5 61t61.5 25zM711 1325q36 0 61.5 -25t25.5 -61q0 -34 -26 -59t-61 -25q-34 0 -59.5 25t-25.5 59q0 36 25 61t60 25z" />
    <glyph glyph-name="copyright" unicode="&#xa9;" horiz-adv-x="1725" 
d="M862 1335q-130 0 -247.5 -49t-201.5 -132.5t-133.5 -199t-49.5 -243.5t49.5 -243.5t133.5 -198.5t201.5 -132t247.5 -49q131 0 248.5 49t201.5 132t133.5 198.5t49.5 243.5t-49.5 243.5t-133.5 199t-201.5 132.5t-248.5 49zM871 1154q159 0 262.5 -90t115.5 -251h-145
q-13 100 -70.5 155.5t-162.5 55.5q-119 0 -189.5 -89t-70.5 -222q0 -137 70.5 -223.5t182.5 -86.5q101 0 162.5 53.5t75.5 156.5h148q-23 -164 -126 -252t-269 -88q-165 0 -278 120.5t-113 317.5q0 200 116 321.5t291 121.5zM862 1462q158 0 299.5 -59t243.5 -159
t161.5 -239t59.5 -294t-59.5 -294t-161.5 -239.5t-243.5 -159t-299.5 -58.5q-157 0 -298.5 58.5t-243 159t-161.5 239.5t-60 294q0 154 60 293.5t161.5 239.5t243 159t298.5 59z" />
    <glyph glyph-name="guillemotleft" unicode="&#xab;" horiz-adv-x="1025" 
d="M878 139h-148l-307 357l307 357h148l-306 -357zM602 139h-149l-307 357l307 357h149l-306 -357z" />
    <glyph glyph-name="logicalnot" unicode="&#xac;" horiz-adv-x="971" 
d="M871 400h-130v248h-642v125h772v-373z" />
    <glyph glyph-name="registered" unicode="&#xae;" horiz-adv-x="1058" 
d="M529 775q144 0 234 89t90 229q0 137 -90 225t-234 88t-233.5 -88t-89.5 -225q0 -140 89.5 -229t233.5 -89zM495 1211v-79h17q29 0 39 1q36 6 36 37q0 25 -17 33t-45 8h-30zM529 1524q196 0 323 -121.5t127 -309.5q0 -192 -127 -314.5t-323 -122.5q-197 0 -324 122.5
t-127 314.5q0 188 127 309.5t324 121.5zM661 1076q18 -25 23 -65q7 -41 18.5 -68t22 -36.5t23 -19t17.5 -18.5h-165q-25 45 -40 123q-2 16 -7 21t-21 5h-37v-149h-124v458h143q54 0 95.5 -11.5t72.5 -46t31 -89.5q0 -65 -52 -104z" />
    <glyph glyph-name="macron" unicode="&#xaf;" horiz-adv-x="974" 
d="M684 1175h-395v122h395v-122z" />
    <glyph glyph-name="degree" unicode="&#xb0;" horiz-adv-x="690" 
d="M346 1410q105 0 175 -66t70 -168t-70 -169t-175 -67q-106 0 -176.5 67t-70.5 169t70.5 168t176.5 66zM346 1285q-53 0 -83.5 -29.5t-30.5 -79.5q0 -51 31 -81t83 -30q51 0 81.5 30t30.5 81q0 50 -30.5 79.5t-81.5 29.5z" />
    <glyph glyph-name="plusminus" unicode="&#xb1;" horiz-adv-x="1069" 
d="M599 703h371v-125h-371v-385h-129v385h-371v125h371v383h129v-383zM970 0h-871v124h871v-124z" />
    <glyph glyph-name="acute" unicode="&#xb4;" horiz-adv-x="773" 
d="M356 1106h-132l158 277h166z" />
    <glyph glyph-name="paragraph" unicode="&#xb6;" horiz-adv-x="1092" 
d="M993 1383v-1593h-128v1469h-170v-1469h-128v820h-12q-78 0 -112 2q-109 6 -188.5 61.5t-117.5 139.5t-38 184q0 155 91 265t253 119q34 2 112 2h438z" />
    <glyph glyph-name="periodcentered" unicode="&#xb7;" horiz-adv-x="398" 
d="M199 714q43 0 71.5 -28t28.5 -70t-28.5 -70.5t-71.5 -28.5t-71.5 28.5t-28.5 70.5t28.5 70t71.5 28z" />
    <glyph glyph-name="cedilla" unicode="&#xb8;" horiz-adv-x="1342" 
d="M726 83l-64 -116q152 -34 152 -176q0 -94 -72 -142.5t-173 -48.5q-88 0 -136 33v134q38 -30 65 -40t74 -10q113 0 113 74t-131 74q-37 0 -88 -6l120 224h140z" />
    <glyph glyph-name="guillemotright" unicode="&#xbb;" horiz-adv-x="982" 
d="M580 496l-307 -357h-148l306 357l-306 357h148zM857 496l-307 -357h-149l306 357l-306 357h149z" />
    <glyph glyph-name="questiondown" unicode="&#xbf;" horiz-adv-x="1077" 
d="M553 911q-38 0 -66.5 27.5t-28.5 65.5q0 40 28 66.5t67 26.5q40 0 67.5 -26.5t27.5 -66.5q0 -38 -27.5 -65.5t-67.5 -27.5zM520 -340q-198 0 -309.5 107t-111.5 270q0 203 202 390q85 79 123.5 135.5t50 111t12.5 154.5h138q-1 -118 -15 -184.5t-58.5 -135.5t-139.5 -161
q-88 -88 -125 -158t-37 -152q0 -116 73 -181.5t199 -65.5q146 0 226.5 90t83.5 248h144q4 -206 -123.5 -337t-332.5 -131z" />
    <glyph glyph-name="Agrave" unicode="&#xc0;" horiz-adv-x="1451" 
d="M1000 523l-275 690l-278 -690h553zM99 0l563 1410h122l567 -1410h-142l-156 390h-659l-157 -390h-138zM630 1887l158 -278h-131l-192 278h165z" />
    <glyph glyph-name="Aacute" unicode="&#xc1;" horiz-adv-x="1451" 
d="M1000 523l-275 690l-278 -690h553zM99 0l563 1410h122l567 -1410h-142l-156 390h-659l-157 -390h-138zM983 1880l-192 -277h-132l158 277h166z" />
    <glyph glyph-name="Acircumflex" unicode="&#xc2;" horiz-adv-x="1451" 
d="M1000 523l-275 690l-278 -690h553zM99 0l563 1410h122l567 -1410h-142l-156 390h-659l-157 -390h-138zM944 1578h-147l-75 130l-76 -130h-146l173 278h102z" />
    <glyph glyph-name="Atilde" unicode="&#xc3;" horiz-adv-x="1451" 
d="M1000 523l-275 690l-278 -690h553zM99 0l563 1410h122l567 -1410h-142l-156 390h-659l-157 -390h-138zM618 1801q42 0 126 -27q66 -21 80 -21l-4 40h118q10 -76 -20.5 -117.5t-91.5 -41.5q-49 0 -127 26q-61 20 -81 20q2 0 2 -38h-113q-9 76 20.5 117.5t90.5 41.5z" />
    <glyph glyph-name="Adieresis" unicode="&#xc4;" horiz-adv-x="1451" 
d="M1000 523l-275 690l-278 -690h553zM99 0l563 1410h122l567 -1410h-142l-156 390h-659l-157 -390h-138zM607 1786q35 0 61 -25t26 -60q0 -34 -26 -59t-61 -25q-36 0 -61.5 24.5t-25.5 59.5t25.5 60t61.5 25zM868 1786q35 0 61 -25t26 -60q0 -34 -26 -59t-61 -25t-60 25
t-25 59q0 35 25 60t60 25z" />
    <glyph glyph-name="Aring" unicode="&#xc5;" horiz-adv-x="1451" 
d="M1000 523l-275 690l-278 -690h553zM724 1760q-45 0 -45 -48t45 -48q21 0 33 13.5t12 34.5q0 22 -12 35t-33 13zM99 0l563 1410h122l567 -1410h-142l-156 390h-659l-157 -390h-138zM724 1874q72 0 120.5 -44.5t48.5 -117.5q0 -71 -49 -117t-120 -46q-73 0 -122.5 45.5
t-49.5 117.5q0 73 49.5 117.5t122.5 44.5z" />
    <glyph glyph-name="AE" unicode="&#xc6;" horiz-adv-x="1811" 
d="M689 523v576l-233 -576h233zM1701 127v-127h-1012v390h-285l-158 -390h-137l563 1410h1007v-129h-855v-503h704v-130h-704v-521h877z" />
    <glyph glyph-name="Ccedilla" unicode="&#xc7;" horiz-adv-x="1568" 
d="M844 -22l-41 -74q152 -34 152 -176q0 -94 -72 -142.5t-173 -48.5q-88 0 -136 33v134q38 -30 65 -40t74 -10q113 0 113 74t-131 74q-37 0 -88 -6l99 185q-145 15 -265 78q-164 85 -254 249.5t-90 397.5q0 154 37.5 277.5t102.5 206.5t155.5 139t192.5 80.5t218 24.5
q261 0 433.5 -143t212.5 -409h-138q-33 205 -165 316t-343 111q-266 0 -418.5 -156t-152.5 -447q0 -296 149.5 -450.5t411.5 -154.5q230 0 364 110.5t163 309.5h139q-35 -253 -196 -391.5t-419 -151.5z" />
    <glyph glyph-name="Egrave" unicode="&#xc8;" horiz-adv-x="1273" 
d="M1153 0h-1013v1410h991v-129h-856v-503h704v-130h-704v-521h878v-127zM799 1609h-131l-192 278h165z" />
    <glyph glyph-name="Eacute" unicode="&#xc9;" horiz-adv-x="1273" 
d="M1153 0h-1013v1410h991v-129h-856v-503h704v-130h-704v-521h878v-127zM654 1603h-132l158 277h166z" />
    <glyph glyph-name="Ecircumflex" unicode="&#xca;" horiz-adv-x="1273" 
d="M1153 0h-1013v1410h991v-129h-856v-503h704v-130h-704v-521h878v-127zM715 1578l-75 130l-76 -130h-146l173 278h102l169 -278h-147z" />
    <glyph glyph-name="Edieresis" unicode="&#xcb;" horiz-adv-x="1273" 
d="M1153 0h-1013v1410h991v-129h-856v-503h704v-130h-704v-521h878v-127zM525 1786q35 0 61 -25t26 -60q0 -34 -26 -59t-61 -25q-36 0 -61.5 24.5t-25.5 59.5t25.5 60t61.5 25zM786 1786q35 0 61 -25t26 -60q0 -34 -26 -59t-61 -25t-60 25t-25 59q0 35 25 60t60 25z" />
    <glyph glyph-name="Igrave" unicode="&#xcc;" horiz-adv-x="525" 
d="M273 0h-131v1403h131v-1403zM365 1609h-131l-192 278h165z" />
    <glyph glyph-name="Iacute" unicode="&#xcd;" horiz-adv-x="526" 
d="M326 0h-131v1403h131v-1403zM273 1603h-132l158 277h166z" />
    <glyph glyph-name="Icircumflex" unicode="&#xce;" horiz-adv-x="517" 
d="M324 0h-131v1403h131v-1403zM332 1578l-75 130l-76 -130h-146l173 278h102l169 -278h-147z" />
    <glyph glyph-name="Idieresis" unicode="&#xcf;" horiz-adv-x="535" 
d="M318 0h-131v1403h131v-1403zM136 1786q35 0 61 -25t26 -60q0 -34 -26 -59t-61 -25q-36 0 -61.5 24.5t-25.5 59.5t25.5 60t61.5 25zM397 1786q35 0 61 -25t26 -60q0 -34 -26 -59t-61 -25t-60 25t-25 59q0 35 25 60t60 25z" />
    <glyph glyph-name="Ntilde" unicode="&#xd1;" horiz-adv-x="1342" 
d="M269 0h-129v1404h120l814 -1165v1165h127v-1404h-114l-818 1175v-1175zM576 1801q42 0 126 -27q66 -21 80 -21l-4 40h118q10 -76 -20.5 -117.5t-91.5 -41.5q-49 0 -127 26q-61 20 -81 20q2 0 2 -38h-113q-9 76 20.5 117.5t90.5 41.5z" />
    <glyph glyph-name="Ograve" unicode="&#xd2;" horiz-adv-x="1586" 
d="M791 -33q-331 0 -511.5 197t-180.5 537q0 342 179.5 537.5t512.5 195.5q335 0 515 -196.5t180 -536.5q0 -343 -183.5 -538.5t-511.5 -195.5zM791 94q274 0 418 158.5t144 448.5q0 295 -142.5 450t-419.5 155q-276 0 -418.5 -155t-142.5 -450q0 -294 144 -450.5
t417 -156.5zM884 1609h-131l-192 278h165z" />
    <glyph glyph-name="Oacute" unicode="&#xd3;" horiz-adv-x="1586" 
d="M791 -33q-331 0 -511.5 197t-180.5 537q0 342 179.5 537.5t512.5 195.5q335 0 515 -196.5t180 -536.5q0 -343 -183.5 -538.5t-511.5 -195.5zM791 94q274 0 418 158.5t144 448.5q0 295 -142.5 450t-419.5 155q-276 0 -418.5 -155t-142.5 -450q0 -294 144 -450.5
t417 -156.5zM825 1603h-132l158 277h166z" />
    <glyph glyph-name="Ocircumflex" unicode="&#xd4;" horiz-adv-x="1586" 
d="M791 94q274 0 418 158.5t144 448.5q0 295 -142.5 450t-419.5 155q-276 0 -418.5 -155t-142.5 -450q0 -294 144 -450.5t417 -156.5zM791 -33q-331 0 -511.5 197t-180.5 537q0 342 179.5 537.5t512.5 195.5q335 0 515 -196.5t180 -536.5q0 -343 -183.5 -538.5
t-511.5 -195.5zM1033 1578h-147l-75 130l-76 -130h-146l173 278h102z" />
    <glyph glyph-name="Otilde" unicode="&#xd5;" horiz-adv-x="1586" 
d="M791 94q274 0 418 158.5t144 448.5q0 295 -142.5 450t-419.5 155q-276 0 -418.5 -155t-142.5 -450q0 -294 144 -450.5t417 -156.5zM791 -33q-331 0 -511.5 197t-180.5 537q0 342 179.5 537.5t512.5 195.5q335 0 515 -196.5t180 -536.5q0 -343 -183.5 -538.5
t-511.5 -195.5zM707 1801q42 0 126 -27q66 -21 80 -21l-4 40h118q10 -76 -20.5 -117.5t-91.5 -41.5q-49 0 -127 26q-61 20 -81 20q2 0 2 -38h-113q-9 76 20.5 117.5t90.5 41.5z" />
    <glyph glyph-name="Odieresis" unicode="&#xd6;" horiz-adv-x="1586" 
d="M791 -33q-331 0 -511.5 197t-180.5 537q0 342 179.5 537.5t512.5 195.5q335 0 515 -196.5t180 -536.5q0 -343 -183.5 -538.5t-511.5 -195.5zM791 94q274 0 418 158.5t144 448.5q0 295 -142.5 450t-419.5 155q-276 0 -418.5 -155t-142.5 -450q0 -294 144 -450.5
t417 -156.5zM696 1786q35 0 61 -25t26 -60q0 -34 -26 -59t-61 -25q-36 0 -61.5 24.5t-25.5 59.5t25.5 60t61.5 25zM957 1786q35 0 61 -25t26 -60q0 -34 -26 -59t-61 -25t-60 25t-25 59q0 35 25 60t60 25z" />
    <glyph glyph-name="multiply" unicode="&#xd7;" horiz-adv-x="969" 
d="M577 632l291 -282l-92 -88l-291 281l-294 -281l-92 88l293 282l-293 280l92 89l294 -280l291 280l93 -87z" />
    <glyph glyph-name="Oslash" unicode="&#xd8;" horiz-adv-x="1604" 
d="M232 701q0 -264 118 -419l813 916q-140 108 -370 108q-276 0 -418.5 -155t-142.5 -450zM793 94q274 0 418 158.5t144 448.5q0 261 -112 414l-811 -915q140 -106 361 -106zM793 -33q-271 0 -445 137l-95 -106h-154l165 186q-163 192 -163 517q0 342 179.5 537.5
t512.5 195.5q278 0 455 -141l101 114h155l-174 -195q158 -193 158 -511q0 -343 -183.5 -538.5t-511.5 -195.5z" />
    <glyph glyph-name="Ugrave" unicode="&#xd9;" 
d="M729 -33q-276 0 -432.5 169.5t-156.5 469.5v804h131v-804q0 -250 120.5 -381t337.5 -131q462 0 462 512v804h128v-804q0 -307 -152.5 -473t-437.5 -166zM900 1609h-131l-192 278h165z" />
    <glyph glyph-name="Uacute" unicode="&#xda;" 
d="M729 -33q-276 0 -432.5 169.5t-156.5 469.5v804h131v-804q0 -250 120.5 -381t337.5 -131q462 0 462 512v804h128v-804q0 -307 -152.5 -473t-437.5 -166zM755 1603h-132l158 277h166z" />
    <glyph glyph-name="Ucircumflex" unicode="&#xdb;" 
d="M729 -33q-276 0 -432.5 169.5t-156.5 469.5v804h131v-804q0 -250 120.5 -381t337.5 -131q462 0 462 512v804h128v-804q0 -307 -152.5 -473t-437.5 -166zM816 1578l-75 130l-76 -130h-146l173 278h102l169 -278h-147z" />
    <glyph glyph-name="Udieresis" unicode="&#xdc;" 
d="M729 -33q-276 0 -432.5 169.5t-156.5 469.5v804h131v-804q0 -250 120.5 -381t337.5 -131q462 0 462 512v804h128v-804q0 -307 -152.5 -473t-437.5 -166zM626 1786q35 0 61 -25t26 -60q0 -34 -26 -59t-61 -25q-36 0 -61.5 24.5t-25.5 59.5t25.5 60t61.5 25zM887 1786
q35 0 61 -25t26 -60q0 -34 -26 -59t-61 -25t-60 25t-25 59q0 35 25 60t60 25z" />
    <glyph glyph-name="Yacute" unicode="&#xdd;" horiz-adv-x="1285" 
d="M709 0h-134v533l-497 877h147l421 -733l414 733h146l-497 -877v-533zM674 1603h-132l158 277h166z" />
    <glyph glyph-name="germandbls" unicode="&#xdf;" horiz-adv-x="1115" 
d="M246 999v-1348h-144v1384h5q28 175 153 275t307 100q195 0 306.5 -102t111.5 -261q0 -104 -55 -189t-148 -133q110 -42 170 -127.5t60 -210.5q0 -131 -70.5 -228.5t-188 -144.5t-261.5 -40l-4 130q166 -9 269 66t103 215q0 118 -88 187t-269 69h-67v130h67
q84 0 158.5 31.5t123.5 94t49 142.5q0 117 -75 179t-198 62q-132 0 -216 -73.5t-99 -207.5z" />
    <glyph glyph-name="agrave" unicode="&#xe0;" horiz-adv-x="1014" 
d="M424 101q176 0 265.5 72.5t89.5 232.5v91q-55 3 -96 3q-36 0 -73.5 -2t-84 -9t-88 -17t-82 -28t-69.5 -41t-47 -57t-18 -74q0 -171 203 -171zM409 -24q-150 0 -240.5 76t-90.5 216t112.5 226t297.5 113q113 16 231 14h60v90q-9 107 -60.5 155.5t-152.5 48.5h-73
q-102 0 -170 -59t-72 -177h-136q-4 156 103.5 259t274.5 103h73q165 0 253.5 -81t94.5 -228v-731h-109l-17 141q-123 -166 -379 -166zM532 1565l158 -278h-131l-192 278h165z" />
    <glyph glyph-name="aacute" unicode="&#xe1;" horiz-adv-x="1014" 
d="M424 101q176 0 265.5 72.5t89.5 232.5v91q-55 3 -96 3q-36 0 -73.5 -2t-84 -9t-88 -17t-82 -28t-69.5 -41t-47 -57t-18 -74q0 -171 203 -171zM409 -24q-150 0 -240.5 76t-90.5 216t112.5 226t297.5 113q113 16 231 14h60v90q-9 107 -60.5 155.5t-152.5 48.5h-73
q-102 0 -170 -59t-72 -177h-136q-4 156 103.5 259t274.5 103h73q165 0 253.5 -81t94.5 -228v-731h-109l-17 141q-123 -166 -379 -166zM737 1558l-192 -277h-132l158 277h166z" />
    <glyph glyph-name="acircumflex" unicode="&#xe2;" horiz-adv-x="1014" 
d="M424 101q176 0 265.5 72.5t89.5 232.5v91q-55 3 -96 3q-36 0 -73.5 -2t-84 -9t-88 -17t-82 -28t-69.5 -41t-47 -57t-18 -74q0 -171 203 -171zM409 -24q-150 0 -240.5 76t-90.5 216t112.5 226t297.5 113q113 16 231 14h60v90q-9 107 -60.5 155.5t-152.5 48.5h-73
q-102 0 -170 -59t-72 -177h-136q-4 156 103.5 259t274.5 103h73q165 0 253.5 -81t94.5 -228v-731h-109l-17 141q-123 -166 -379 -166zM753 1256h-147l-75 130l-76 -130h-146l173 278h102z" />
    <glyph glyph-name="atilde" unicode="&#xe3;" horiz-adv-x="1014" 
d="M424 101q176 0 265.5 72.5t89.5 232.5v91q-55 3 -96 3q-36 0 -73.5 -2t-84 -9t-88 -17t-82 -28t-69.5 -41t-47 -57t-18 -74q0 -171 203 -171zM409 -24q-150 0 -240.5 76t-90.5 216t112.5 226t297.5 113q113 16 231 14h60v90q-9 107 -60.5 155.5t-152.5 48.5h-73
q-102 0 -170 -59t-72 -177h-136q-4 156 103.5 259t274.5 103h73q165 0 253.5 -81t94.5 -228v-731h-109l-17 141q-123 -166 -379 -166zM427 1479q42 0 126 -27q66 -21 80 -21l-4 40h118q10 -76 -20.5 -117.5t-91.5 -41.5q-49 0 -127 26q-61 20 -81 20q2 0 2 -38h-113
q-9 76 20.5 117.5t90.5 41.5z" />
    <glyph glyph-name="adieresis" unicode="&#xe4;" horiz-adv-x="1014" 
d="M424 101q176 0 265.5 72.5t89.5 232.5v91q-55 3 -96 3q-36 0 -73.5 -2t-84 -9t-88 -17t-82 -28t-69.5 -41t-47 -57t-18 -74q0 -171 203 -171zM409 -24q-150 0 -240.5 76t-90.5 216t112.5 226t297.5 113q113 16 231 14h60v90q-9 107 -60.5 155.5t-152.5 48.5h-73
q-102 0 -170 -59t-72 -177h-136q-4 156 103.5 259t274.5 103h73q165 0 253.5 -81t94.5 -228v-731h-109l-17 141q-123 -166 -379 -166zM416 1464q35 0 61 -25t26 -60q0 -34 -26 -59t-61 -25q-36 0 -61.5 24.5t-25.5 59.5t25.5 60t61.5 25zM677 1464q35 0 61 -25t26 -60
q0 -34 -26 -59t-61 -25t-60 25t-25 59q0 35 25 60t60 25z" />
    <glyph glyph-name="aring" unicode="&#xe5;" horiz-adv-x="1014" 
d="M424 101q176 0 265.5 72.5t89.5 232.5v91q-55 3 -96 3q-36 0 -73.5 -2t-84 -9t-88 -17t-82 -28t-69.5 -41t-47 -57t-18 -74q0 -171 203 -171zM533 1438q-45 0 -45 -48t45 -48q21 0 33 13.5t12 34.5q0 22 -12 35t-33 13zM409 -24q-150 0 -240.5 76t-90.5 216t112.5 226
t297.5 113q113 16 231 14h60v90q-9 107 -60.5 155.5t-152.5 48.5h-73q-102 0 -170 -59t-72 -177h-136q-4 156 103.5 259t274.5 103h73q165 0 253.5 -81t94.5 -228v-731h-109l-17 141q-123 -166 -379 -166zM533 1552q72 0 120.5 -44.5t48.5 -117.5q0 -71 -49 -117t-120 -46
q-73 0 -122.5 45.5t-49.5 117.5q0 73 49.5 117.5t122.5 44.5z" />
    <glyph glyph-name="ae" unicode="&#xe6;" horiz-adv-x="1833" 
d="M779 406v91q-55 3 -96 3q-36 0 -73.5 -2t-84 -9t-88 -17t-82 -28t-69.5 -41t-47 -57t-18 -74q0 -171 203 -171q176 0 265.5 72.5t89.5 232.5zM930 606h682q-8 54 -32 104.5t-63 95t-101 71.5t-136 27q-138 0 -230 -81.5t-120 -216.5zM566 915h-73q-102 0 -170 -59
t-72 -177h-136q-4 156 103.5 259t274.5 103h73q256 0 326 -190q66 86 165 133t223 47q196 0 325 -125t145 -331l2 -30v-65h-834q8 -176 102 -276t260 -100q137 0 232 71.5t108 190.5h135q-18 -172 -152.5 -280.5t-322.5 -108.5q-229 0 -366 155v-131h-119l-7 115
q-35 -47 -79 -77t-97.5 -42.5t-96.5 -16.5t-106 -4q-150 0 -240.5 76t-90.5 216t112.5 226t297.5 113q113 16 231 14h60v8q0 80 -3 118q-14 168 -210 168z" />
    <glyph glyph-name="ccedilla" unicode="&#xe7;" horiz-adv-x="1149" 
d="M425 -198l95 178q-204 19 -323 157.5t-119 354.5q8 245 148.5 392t363.5 147q192 0 323.5 -106.5t156.5 -282.5h-133q-18 118 -112 187.5t-235 69.5q-165 0 -270 -111t-108 -299q0 -174 100.5 -277t270.5 -103q144 0 240 69t114 188h133q-22 -153 -133 -257.5
t-276 -126.5l-40 -72q152 -34 152 -176q0 -94 -72 -142.5t-173 -48.5q-88 0 -136 33v134q38 -30 65 -40t74 -10q113 0 113 74t-131 74q-37 0 -88 -6z" />
    <glyph glyph-name="egrave" unicode="&#xe8;" horiz-adv-x="1139" 
d="M227 606h694q-8 54 -32 104.5t-63 95t-101 71.5t-136 27q-139 0 -237 -82.5t-125 -215.5zM576 -23q-121 0 -218.5 45.5t-158 121.5t-92 172t-29.5 200q5 223 146.5 369t364.5 146q196 0 325.5 -125t144.5 -331l2 -30v-65h-847q8 -176 102 -276t260 -100q138 0 233 72
t107 190h136q-19 -172 -153.5 -280.5t-322.5 -108.5zM576 1542l158 -278h-131l-192 278h165z" />
    <glyph glyph-name="eacute" unicode="&#xe9;" horiz-adv-x="1139" 
d="M227 606h694q-8 54 -32 104.5t-63 95t-101 71.5t-136 27q-139 0 -237 -82.5t-125 -215.5zM576 -23q-121 0 -218.5 45.5t-158 121.5t-92 172t-29.5 200q5 223 146.5 369t364.5 146q196 0 325.5 -125t144.5 -331l2 -30v-65h-847q8 -176 102 -276t260 -100q138 0 233 72
t107 190h136q-19 -172 -153.5 -280.5t-322.5 -108.5zM781 1535l-192 -277h-132l158 277h166z" />
    <glyph glyph-name="ecircumflex" unicode="&#xea;" horiz-adv-x="1139" 
d="M227 606h694q-8 54 -32 104.5t-63 95t-101 71.5t-136 27q-139 0 -237 -82.5t-125 -215.5zM576 -23q-121 0 -218.5 45.5t-158 121.5t-92 172t-29.5 200q5 223 146.5 369t364.5 146q196 0 325.5 -125t144.5 -331l2 -30v-65h-847q8 -176 102 -276t260 -100q138 0 233 72
t107 190h136q-19 -172 -153.5 -280.5t-322.5 -108.5zM797 1233h-147l-75 130l-76 -130h-146l173 278h102z" />
    <glyph glyph-name="edieresis" unicode="&#xeb;" horiz-adv-x="1139" 
d="M227 606h694q-8 54 -32 104.5t-63 95t-101 71.5t-136 27q-139 0 -237 -82.5t-125 -215.5zM576 -23q-121 0 -218.5 45.5t-158 121.5t-92 172t-29.5 200q5 223 146.5 369t364.5 146q196 0 325.5 -125t144.5 -331l2 -30v-65h-847q8 -176 102 -276t260 -100q138 0 233 72
t107 190h136q-19 -172 -153.5 -280.5t-322.5 -108.5zM460 1441q35 0 61 -25t26 -60q0 -34 -26 -59t-61 -25q-36 0 -61.5 24.5t-25.5 59.5t25.5 60t61.5 25zM721 1441q35 0 61 -25t26 -60q0 -34 -26 -59t-61 -25t-60 25t-25 59q0 35 25 60t60 25z" />
    <glyph glyph-name="igrave" unicode="&#xec;" horiz-adv-x="537" 
d="M372 0h-133v1031h133v-1031zM372 1230h-131l-192 278h165z" />
    <glyph glyph-name="iacute" unicode="&#xed;" horiz-adv-x="538" 
d="M290 0h-133v1031h133v-1031zM280 1224h-132l158 277h166z" />
    <glyph glyph-name="icircumflex" unicode="&#xee;" horiz-adv-x="529" 
d="M331 0h-133v1031h133v-1031zM339 1220l-75 130l-76 -130h-146l173 278h102l169 -278h-147z" />
    <glyph glyph-name="idieresis" unicode="&#xef;" horiz-adv-x="547" 
d="M325 0h-133v1031h133v-1031zM143 1407q35 0 61 -25t26 -60q0 -34 -26 -59t-61 -25q-36 0 -61.5 24.5t-25.5 59.5t25.5 60t61.5 25zM404 1407q35 0 61 -25t26 -60q0 -34 -26 -59t-61 -25t-60 25t-25 59q0 35 25 60t60 25z" />
    <glyph glyph-name="ntilde" unicode="&#xf1;" horiz-adv-x="1154" 
d="M273 0h-133v1031h103l24 -185q123 185 358 185q122 0 207 -37t133 -108t68.5 -161t20.5 -210v-515h-131v515q0 194 -66.5 290t-226.5 96q-164 0 -260.5 -112t-96.5 -302v-487zM498 1422q42 0 126 -27q66 -21 80 -21l-4 40h118q10 -76 -20.5 -117.5t-91.5 -41.5
q-49 0 -127 26q-61 20 -81 20q2 0 2 -38h-113q-9 76 20.5 117.5t90.5 41.5z" />
    <glyph glyph-name="ograve" unicode="&#xf2;" horiz-adv-x="1135" 
d="M568 -23q-230 0 -360 140t-130 384q0 248 130 389t360 141q232 0 360.5 -144.5t128.5 -385.5q0 -238 -126 -381t-363 -143zM568 106q94 0 163 30.5t109.5 85.5t60 124.5t19.5 154.5q0 181 -85 290.5t-267 109.5q-178 0 -265 -109.5t-87 -290.5q0 -62 10.5 -116.5
t36 -106.5t64.5 -89.5t100.5 -60t140.5 -22.5zM639 1264h-131l-192 278h165z" />
    <glyph glyph-name="oacute" unicode="&#xf3;" horiz-adv-x="1135" 
d="M568 -23q-230 0 -360 140t-130 384q0 248 130 389t360 141q232 0 360.5 -144.5t128.5 -385.5q0 -238 -126 -381t-363 -143zM568 106q94 0 163 30.5t109.5 85.5t60 124.5t19.5 154.5q0 181 -85 290.5t-267 109.5q-178 0 -265 -109.5t-87 -290.5q0 -62 10.5 -116.5
t36 -106.5t64.5 -89.5t100.5 -60t140.5 -22.5zM581 1258h-132l158 277h166z" />
    <glyph glyph-name="ocircumflex" unicode="&#xf4;" horiz-adv-x="1135" 
d="M568 106q94 0 163 30.5t109.5 85.5t60 124.5t19.5 154.5q0 181 -85 290.5t-267 109.5q-178 0 -265 -109.5t-87 -290.5q0 -62 10.5 -116.5t36 -106.5t64.5 -89.5t100.5 -60t140.5 -22.5zM568 -23q-230 0 -360 140t-130 384q0 248 130 389t360 141q232 0 360.5 -144.5
t128.5 -385.5q0 -238 -126 -381t-363 -143zM789 1233h-147l-75 130l-76 -130h-146l173 278h102z" />
    <glyph glyph-name="otilde" unicode="&#xf5;" horiz-adv-x="1135" 
d="M568 106q94 0 163 30.5t109.5 85.5t60 124.5t19.5 154.5q0 181 -85 290.5t-267 109.5q-178 0 -265 -109.5t-87 -290.5q0 -62 10.5 -116.5t36 -106.5t64.5 -89.5t100.5 -60t140.5 -22.5zM568 -23q-230 0 -360 140t-130 384q0 248 130 389t360 141q232 0 360.5 -144.5
t128.5 -385.5q0 -238 -126 -381t-363 -143zM463 1456q42 0 126 -27q66 -21 80 -21l-4 40h118q10 -76 -20.5 -117.5t-91.5 -41.5q-49 0 -127 26q-61 20 -81 20q2 0 2 -38h-113q-9 76 20.5 117.5t90.5 41.5z" />
    <glyph glyph-name="odieresis" unicode="&#xf6;" horiz-adv-x="1135" 
d="M568 -23q-230 0 -360 140t-130 384q0 248 130 389t360 141q232 0 360.5 -144.5t128.5 -385.5q0 -238 -126 -381t-363 -143zM568 106q94 0 163 30.5t109.5 85.5t60 124.5t19.5 154.5q0 181 -85 290.5t-267 109.5q-178 0 -265 -109.5t-87 -290.5q0 -62 10.5 -116.5
t36 -106.5t64.5 -89.5t100.5 -60t140.5 -22.5zM452 1441q35 0 61 -25t26 -60q0 -34 -26 -59t-61 -25q-36 0 -61.5 24.5t-25.5 59.5t25.5 60t61.5 25zM713 1441q35 0 61 -25t26 -60q0 -34 -26 -59t-61 -25t-60 25t-25 59q0 35 25 60t60 25z" />
    <glyph glyph-name="divide" unicode="&#xf7;" horiz-adv-x="1069" 
d="M535 1035q43 0 71.5 -28t28.5 -71q0 -41 -28.5 -69t-71.5 -28q-41 0 -71 28t-30 69q0 42 30 70.5t71 28.5zM970 578h-871v125h871v-125zM535 438q43 0 71.5 -28t28.5 -69t-29 -70t-71 -29t-71.5 28.5t-29.5 70.5q0 41 30 69t71 28z" />
    <glyph glyph-name="oslash" unicode="&#xf8;" horiz-adv-x="1180" 
d="M216 501q0 -67 17 -138.5t50 -123.5l451 630q-72 32 -166 32q-136 0 -209 -57q-143 -107 -143 -343zM568 106q94 0 163 30.5t109.5 85.5t60 124.5t19.5 154.5q0 192 -91 297l-459 -643q77 -49 198 -49zM568 -23q-161 0 -275 70l-28 -38h-147l84 115q-124 139 -124 377
q0 248 130 389t360 141q138 0 243 -54l38 54h148l-88 -123q148 -143 148 -407q0 -238 -126 -381t-363 -143z" />
    <glyph glyph-name="ugrave" unicode="&#xf9;" horiz-adv-x="1102" 
d="M533 -23q-434 0 -434 514v540h135v-540q0 -68 6 -119.5t25 -104t51.5 -86t87 -54.5t129.5 -21q155 0 238 100t97 267v558h135v-1031h-108l-19 160q-56 -81 -143.5 -132t-199.5 -51zM600 1230h-131l-192 278h165z" />
    <glyph glyph-name="uacute" unicode="&#xfa;" horiz-adv-x="1102" 
d="M533 -23q-434 0 -434 514v540h135v-540q0 -68 6 -119.5t25 -104t51.5 -86t87 -54.5t129.5 -21q155 0 238 100t97 267v558h135v-1031h-108l-19 160q-56 -81 -143.5 -132t-199.5 -51zM586 1224h-132l158 277h166z" />
    <glyph glyph-name="ucircumflex" unicode="&#xfb;" horiz-adv-x="1102" 
d="M533 -23q-434 0 -434 514v540h135v-540q0 -68 6 -119.5t25 -104t51.5 -86t87 -54.5t129.5 -21q155 0 238 100t97 267v558h135v-1031h-108l-19 160q-56 -81 -143.5 -132t-199.5 -51zM622 1199l-75 130l-76 -130h-146l173 278h102l169 -278h-147z" />
    <glyph glyph-name="udieresis" unicode="&#xfc;" horiz-adv-x="1102" 
d="M533 -23q-434 0 -434 514v540h135v-540q0 -68 6 -119.5t25 -104t51.5 -86t87 -54.5t129.5 -21q155 0 238 100t97 267v558h135v-1031h-108l-19 160q-56 -81 -143.5 -132t-199.5 -51zM405 1407q35 0 61 -25t26 -60q0 -34 -26 -59t-61 -25q-36 0 -61.5 24.5t-25.5 59.5
t25.5 60t61.5 25zM666 1407q35 0 61 -25t26 -60q0 -34 -26 -59t-61 -25t-60 25t-25 59q0 35 25 60t60 25z" />
    <glyph glyph-name="yacute" unicode="&#xfd;" horiz-adv-x="1211" 
d="M537 -5l-459 1036h156l375 -866l369 866h155l-694 -1571h-130zM624 1224h-132l158 277h166z" />
    <glyph glyph-name="ydieresis" unicode="&#xff;" horiz-adv-x="1211" 
d="M537 -5l-459 1036h156l375 -866l369 866h155l-694 -1571h-130zM495 1407q35 0 61 -25t26 -60q0 -34 -26 -59t-61 -25q-36 0 -61.5 24.5t-25.5 59.5t25.5 60t61.5 25zM756 1407q35 0 61 -25t26 -60q0 -34 -26 -59t-61 -25t-60 25t-25 59q0 35 25 60t60 25z" />
    <glyph glyph-name="Amacron" unicode="&#x100;" horiz-adv-x="1451" 
d="M1000 523l-275 690l-278 -690h553zM99 0l563 1410h122l567 -1410h-142l-156 390h-659l-157 -390h-138zM920 1762v-122h-395v122h395z" />
    <glyph glyph-name="amacron" unicode="&#x101;" horiz-adv-x="1014" 
d="M424 101q176 0 265.5 72.5t89.5 232.5v91q-55 3 -96 3q-36 0 -73.5 -2t-84 -9t-88 -17t-82 -28t-69.5 -41t-47 -57t-18 -74q0 -171 203 -171zM409 -24q-150 0 -240.5 76t-90.5 216t112.5 226t297.5 113q113 16 231 14h60v90q-9 107 -60.5 155.5t-152.5 48.5h-73
q-102 0 -170 -59t-72 -177h-136q-4 156 103.5 259t274.5 103h73q165 0 253.5 -81t94.5 -228v-731h-109l-17 141q-123 -166 -379 -166zM729 1440v-122h-395v122h395z" />
    <glyph glyph-name="Abreve" unicode="&#x102;" horiz-adv-x="1451" 
d="M1000 523l-275 690l-278 -690h553zM99 0l563 1410h122l567 -1410h-142l-156 390h-659l-157 -390h-138zM819 1857h122q7 -137 -47.5 -217.5t-170.5 -80.5t-171.5 81t-47.5 217h121q-10 -173 98 -173q105 0 96 173z" />
    <glyph glyph-name="abreve" unicode="&#x103;" horiz-adv-x="1014" 
d="M424 101q176 0 265.5 72.5t89.5 232.5v91q-55 3 -96 3q-36 0 -73.5 -2t-84 -9t-88 -17t-82 -28t-69.5 -41t-47 -57t-18 -74q0 -171 203 -171zM409 -24q-150 0 -240.5 76t-90.5 216t112.5 226t297.5 113q113 16 231 14h60v90q-9 107 -60.5 155.5t-152.5 48.5h-73
q-102 0 -170 -59t-72 -177h-136q-4 156 103.5 259t274.5 103h73q165 0 253.5 -81t94.5 -228v-731h-109l-17 141q-123 -166 -379 -166zM628 1535h122q7 -137 -47.5 -217.5t-170.5 -80.5t-171.5 81t-47.5 217h121q-10 -173 98 -173q105 0 96 173z" />
    <glyph glyph-name="Aogonek" unicode="&#x104;" horiz-adv-x="1451" 
d="M1000 523l-275 690l-278 -690h553zM1184 62l-131 328h-659l-157 -390h-138l563 1410h122l567 -1410h-12l2 -1q-2 0 -6.5 0.5t-6.5 0.5h-16q-95 -4 -175.5 -85t-80.5 -182q0 -36 13.5 -50.5t42.5 -14.5q38 0 75 24.5t84 83.5v-159q-78 -70 -181 -70q-75 0 -125 40.5
t-50 131.5q0 116 75 210t194 133z" />
    <glyph glyph-name="aogonek" unicode="&#x105;" horiz-adv-x="1016" 
d="M424 101q176 0 265.5 72.5t89.5 232.5v91q-55 3 -96 3q-36 0 -73.5 -2t-84 -9t-88 -17t-82 -28t-69.5 -41t-47 -57t-18 -74q0 -171 203 -171zM793 68l4 -2l-9 76q-123 -166 -379 -166q-150 0 -240.5 76t-90.5 216t112.5 226t297.5 113q113 16 231 14h60v90
q-9 107 -60.5 155.5t-152.5 48.5h-73q-102 0 -170 -59t-72 -177h-136q-4 156 103.5 259t274.5 103h73q165 0 253.5 -81t94.5 -228v-731l2 -1q-2 0 -6.5 0.5t-6.5 0.5h-15q-93 -4 -167 -84.5t-74 -182.5q0 -36 13.5 -50.5t42.5 -14.5q38 0 75 24.5t84 83.5v-159
q-78 -70 -181 -70q-75 0 -125 40.5t-50 131.5q0 121 80.5 217t206.5 131z" />
    <glyph glyph-name="Cacute" unicode="&#x106;" horiz-adv-x="1568" 
d="M793 -23q-196 0 -352 82q-164 85 -254 249.5t-90 397.5q0 154 37.5 277.5t102.5 206.5t155.5 139t192.5 80.5t218 24.5q261 0 433.5 -143t212.5 -409h-138q-33 205 -165 316t-343 111q-266 0 -418.5 -156t-152.5 -447q0 -296 149.5 -450.5t411.5 -154.5q230 0 364 110.5
t163 309.5h139q-36 -265 -211.5 -404.5t-454.5 -139.5zM802 1603h-132l158 277h166z" />
    <glyph glyph-name="cacute" unicode="&#x107;" horiz-adv-x="1149" 
d="M583 -23q-231 0 -368 141t-137 374q8 245 148.5 392t363.5 147q192 0 323.5 -106.5t156.5 -282.5h-133q-18 118 -112 187.5t-235 69.5q-165 0 -270 -111t-108 -299q0 -174 100.5 -277t270.5 -103q144 0 240 69t114 188h133q-24 -171 -158.5 -280t-328.5 -109zM603 1258
h-132l158 277h166z" />
    <glyph glyph-name="Ccircumflex" unicode="&#x108;" horiz-adv-x="1568" 
d="M793 -23q-196 0 -352 82q-164 85 -254 249.5t-90 397.5q0 154 37.5 277.5t102.5 206.5t155.5 139t192.5 80.5t218 24.5q261 0 433.5 -143t212.5 -409h-138q-33 205 -165 316t-343 111q-266 0 -418.5 -156t-152.5 -447q0 -296 149.5 -450.5t411.5 -154.5q230 0 364 110.5
t163 309.5h139q-36 -265 -211.5 -404.5t-454.5 -139.5zM863 1578l-75 130l-76 -130h-146l173 278h102l169 -278h-147z" />
    <glyph glyph-name="ccircumflex" unicode="&#x109;" horiz-adv-x="1149" 
d="M583 -23q-231 0 -368 141t-137 374q8 245 148.5 392t363.5 147q192 0 323.5 -106.5t156.5 -282.5h-133q-18 118 -112 187.5t-235 69.5q-165 0 -270 -111t-108 -299q0 -174 100.5 -277t270.5 -103q144 0 240 69t114 188h133q-24 -171 -158.5 -280t-328.5 -109zM664 1233
l-75 130l-76 -130h-146l173 278h102l169 -278h-147z" />
    <glyph glyph-name="Cdotaccent" unicode="&#x10a;" horiz-adv-x="1568" 
d="M793 -23q-196 0 -352 82q-164 85 -254 249.5t-90 397.5q0 154 37.5 277.5t102.5 206.5t155.5 139t192.5 80.5t218 24.5q261 0 433.5 -143t212.5 -409h-138q-33 205 -165 316t-343 111q-266 0 -418.5 -156t-152.5 -447q0 -296 149.5 -450.5t411.5 -154.5q230 0 364 110.5
t163 309.5h139q-36 -265 -211.5 -404.5t-454.5 -139.5zM789 1803q37 0 64 -26t27 -63t-27 -63t-64 -26q-38 0 -65 26t-27 63t27 63t65 26z" />
    <glyph glyph-name="cdotaccent" unicode="&#x10b;" horiz-adv-x="1149" 
d="M583 -23q-231 0 -368 141t-137 374q8 245 148.5 392t363.5 147q192 0 323.5 -106.5t156.5 -282.5h-133q-18 118 -112 187.5t-235 69.5q-165 0 -270 -111t-108 -299q0 -174 100.5 -277t270.5 -103q144 0 240 69t114 188h133q-24 -171 -158.5 -280t-328.5 -109zM590 1458
q37 0 64 -26t27 -63t-27 -63t-64 -26q-38 0 -65 26t-27 63t27 63t65 26z" />
    <glyph glyph-name="Ccaron" unicode="&#x10c;" horiz-adv-x="1568" 
d="M793 -23q-196 0 -352 82q-164 85 -254 249.5t-90 397.5q0 154 37.5 277.5t102.5 206.5t155.5 139t192.5 80.5t218 24.5q261 0 433.5 -143t212.5 -409h-138q-33 205 -165 316t-343 111q-266 0 -418.5 -156t-152.5 -447q0 -296 149.5 -450.5t411.5 -154.5q230 0 364 110.5
t163 309.5h139q-36 -265 -211.5 -404.5t-454.5 -139.5zM1011 1865l-171 -277h-101l-174 277h149l76 -130l75 130h146z" />
    <glyph glyph-name="ccaron" unicode="&#x10d;" horiz-adv-x="1149" 
d="M583 -23q-231 0 -368 141t-137 374q8 245 148.5 392t363.5 147q192 0 323.5 -106.5t156.5 -282.5h-133q-18 118 -112 187.5t-235 69.5q-165 0 -270 -111t-108 -299q0 -174 100.5 -277t270.5 -103q144 0 240 69t114 188h133q-24 -171 -158.5 -280t-328.5 -109zM812 1520
l-171 -277h-101l-174 277h149l76 -130l75 130h146z" />
    <glyph glyph-name="Dcaron" unicode="&#x10e;" horiz-adv-x="1450" 
d="M529 1282h-254v-1155h254q141 0 245 15t194 53.5t146.5 103t88 166.5t31.5 241q0 286 -183.5 431t-521.5 145zM529 0h-389v1410h389q391 0 616.5 -182.5t225.5 -521.5q0 -516 -409 -648q-186 -58 -433 -58zM734 1865h146l-171 -277h-101l-174 277h149l76 -130z" />
    <glyph glyph-name="dcaron" unicode="&#x10f;" horiz-adv-x="1149" 
d="M563 111q153 0 260 105t107 290q0 182 -99 286.5t-248 104.5q-168 0 -268.5 -110.5t-100.5 -280.5q0 -174 91.5 -284.5t257.5 -110.5zM571 -23q-216 0 -354.5 150.5t-138.5 378.5q0 146 60.5 265.5t174 189.5t260.5 70q237 0 363 -184v563h134v-1410h-108l-18 178
q-135 -201 -373 -201zM648 1551h146l-171 -277h-101l-174 277h149l76 -130z" />
    <glyph glyph-name="Emacron" unicode="&#x112;" horiz-adv-x="1273" 
d="M1153 0h-1013v1410h991v-129h-856v-503h704v-130h-704v-521h878v-127zM838 1640h-395v122h395v-122z" />
    <glyph glyph-name="emacron" unicode="&#x113;" horiz-adv-x="1139" 
d="M227 606h694q-8 54 -32 104.5t-63 95t-101 71.5t-136 27q-139 0 -237 -82.5t-125 -215.5zM576 -23q-121 0 -218.5 45.5t-158 121.5t-92 172t-29.5 200q5 223 146.5 369t364.5 146q196 0 325.5 -125t144.5 -331l2 -30v-65h-847q8 -176 102 -276t260 -100q138 0 233 72
t107 190h136q-19 -172 -153.5 -280.5t-322.5 -108.5zM773 1417v-122h-395v122h395z" />
    <glyph glyph-name="Edotaccent" unicode="&#x116;" horiz-adv-x="1273" 
d="M1153 0h-1013v1410h991v-129h-856v-503h704v-130h-704v-521h878v-127zM641 1803q37 0 64 -26t27 -63t-27 -63t-64 -26q-38 0 -65 26t-27 63t27 63t65 26z" />
    <glyph glyph-name="edotaccent" unicode="&#x117;" horiz-adv-x="1139" 
d="M227 606h694q-8 54 -32 104.5t-63 95t-101 71.5t-136 27q-139 0 -237 -82.5t-125 -215.5zM576 -23q-121 0 -218.5 45.5t-158 121.5t-92 172t-29.5 200q5 223 146.5 369t364.5 146q196 0 325.5 -125t144.5 -331l2 -30v-65h-847q8 -176 102 -276t260 -100q138 0 233 72
t107 190h136q-19 -172 -153.5 -280.5t-322.5 -108.5zM576 1458q37 0 64 -26t27 -63t-27 -63t-64 -26q-38 0 -65 26t-27 63t27 63t65 26z" />
    <glyph glyph-name="Eogonek" unicode="&#x118;" horiz-adv-x="1273" 
d="M865 0h-725v1410h991v-129h-856v-503h704v-130h-704v-521h878v-127h-72q-86 -21 -150.5 -96.5t-64.5 -164.5q0 -36 13.5 -50.5t42.5 -14.5q38 0 75 24.5t84 83.5v-159q-78 -70 -181 -70q-75 0 -125 40.5t-50 131.5q0 80 37 152t103 123z" />
    <glyph glyph-name="eogonek" unicode="&#x119;" horiz-adv-x="1139" 
d="M227 606h694q-8 54 -32 104.5t-63 95t-101 71.5t-136 27q-139 0 -237 -82.5t-125 -215.5zM474 -14q-128 23 -220.5 104t-135 191t-40.5 235q5 223 146.5 369t364.5 146q196 0 325.5 -125t144.5 -331l2 -30v-65h-847q8 -176 102 -276t260 -100q138 0 233 72t107 190h136
q-17 -157 -131.5 -262t-280.5 -123q-56 -39 -91 -98t-35 -123q0 -36 13.5 -50.5t42.5 -14.5q38 0 75 24.5t84 83.5v-159q-78 -70 -181 -70q-75 0 -125 40.5t-50 131.5q0 136 101 240z" />
    <glyph glyph-name="Ecaron" unicode="&#x11a;" horiz-adv-x="1273" 
d="M1153 0h-1013v1410h991v-129h-856v-503h704v-130h-704v-521h878v-127zM863 1865l-171 -277h-101l-174 277h149l76 -130l75 130h146z" />
    <glyph glyph-name="ecaron" unicode="&#x11b;" horiz-adv-x="1139" 
d="M227 606h694q-8 54 -32 104.5t-63 95t-101 71.5t-136 27q-139 0 -237 -82.5t-125 -215.5zM576 -23q-121 0 -218.5 45.5t-158 121.5t-92 172t-29.5 200q5 223 146.5 369t364.5 146q196 0 325.5 -125t144.5 -331l2 -30v-65h-847q8 -176 102 -276t260 -100q138 0 233 72
t107 190h136q-19 -172 -153.5 -280.5t-322.5 -108.5zM652 1520h146l-171 -277h-101l-174 277h149l76 -130z" />
    <glyph glyph-name="Gcircumflex" unicode="&#x11c;" horiz-adv-x="1569" 
d="M781 -33q-314 0 -498 197t-184 535q0 344 186 539.5t512 195.5q271 0 443.5 -136t203.5 -392h-128q-75 400 -519 400q-275 0 -423 -159t-148 -448q0 -287 148 -447.5t412 -160.5q225 0 361.5 118.5t157.5 328.5h-554v129h718v-667h-121l-14 250q-32 -54 -77.5 -101
t-112 -89.5t-160 -67.5t-203.5 -25zM1019 1578h-147l-75 130l-76 -130h-146l173 278h102z" />
    <glyph glyph-name="gcircumflex" unicode="&#x11d;" horiz-adv-x="1215" 
d="M564 111q73 0 138.5 26t117 74.5t81.5 124.5t30 170q0 181 -99.5 286t-248.5 105q-168 0 -268.5 -110.5t-100.5 -280.5q0 -174 92 -284.5t258 -110.5zM939 -25v194q-138 -192 -368 -192q-216 0 -354.5 150.5t-138.5 378.5q0 229 137.5 377t357.5 148q236 0 363 -182
l13 182h124v-1056q0 -290 -136 -415q-106 -100 -336 -100t-335 100q-116 103 -134 318h136l6 -36q11 -59 15 -73q17 -59 50.5 -97t98.5 -60.5t163 -22.5q144 0 215 46t97 136q26 88 26 204zM862 1199h-147l-75 130l-76 -130h-146l173 278h102z" />
    <glyph glyph-name="Gbreve" unicode="&#x11e;" horiz-adv-x="1569" 
d="M781 -33q-314 0 -498 197t-184 535q0 344 186 539.5t512 195.5q271 0 443.5 -136t203.5 -392h-128q-75 400 -519 400q-275 0 -423 -159t-148 -448q0 -287 148 -447.5t412 -160.5q225 0 361.5 118.5t157.5 328.5h-554v129h718v-667h-121l-14 250q-32 -54 -77.5 -101
t-112 -89.5t-160 -67.5t-203.5 -25zM894 1857h122q7 -137 -47.5 -217.5t-170.5 -80.5t-171.5 81t-47.5 217h121q-10 -173 98 -173q105 0 96 173z" />
    <glyph glyph-name="gbreve" unicode="&#x11f;" horiz-adv-x="1215" 
d="M564 111q73 0 138.5 26t117 74.5t81.5 124.5t30 170q0 181 -99.5 286t-248.5 105q-168 0 -268.5 -110.5t-100.5 -280.5q0 -174 92 -284.5t258 -110.5zM939 -25v194q-138 -192 -368 -192q-216 0 -354.5 150.5t-138.5 378.5q0 229 137.5 377t357.5 148q236 0 363 -182
l13 182h124v-1056q0 -290 -136 -415q-106 -100 -336 -100t-335 100q-116 103 -134 318h136l6 -36q11 -59 15 -73q17 -59 50.5 -97t98.5 -60.5t163 -22.5q144 0 215 46t97 136q26 88 26 204zM737 1478h122q7 -137 -47.5 -217.5t-170.5 -80.5t-171.5 81t-47.5 217h121
q-10 -173 98 -173q105 0 96 173z" />
    <glyph glyph-name="Gdotaccent" unicode="&#x120;" horiz-adv-x="1569" 
d="M781 -33q-314 0 -498 197t-184 535q0 344 186 539.5t512 195.5q271 0 443.5 -136t203.5 -392h-128q-75 400 -519 400q-275 0 -423 -159t-148 -448q0 -287 148 -447.5t412 -160.5q225 0 361.5 118.5t157.5 328.5h-554v129h718v-667h-121l-14 250q-32 -54 -77.5 -101
t-112 -89.5t-160 -67.5t-203.5 -25zM798 1803q37 0 64 -26t27 -63t-27 -63t-64 -26q-38 0 -65 26t-27 63t27 63t65 26z" />
    <glyph glyph-name="gdotaccent" unicode="&#x121;" horiz-adv-x="1215" 
d="M564 111q73 0 138.5 26t117 74.5t81.5 124.5t30 170q0 181 -99.5 286t-248.5 105q-168 0 -268.5 -110.5t-100.5 -280.5q0 -174 92 -284.5t258 -110.5zM939 -25v194q-138 -192 -368 -192q-216 0 -354.5 150.5t-138.5 378.5q0 229 137.5 377t357.5 148q236 0 363 -182
l13 182h124v-1056q0 -290 -136 -415q-106 -100 -336 -100t-335 100q-116 103 -134 318h136l6 -36q11 -59 15 -73q17 -59 50.5 -97t98.5 -60.5t163 -22.5q144 0 215 46t97 136q26 88 26 204zM641 1424q37 0 64 -26t27 -63t-27 -63t-64 -26q-38 0 -65 26t-27 63t27 63t65 26z
" />
    <glyph glyph-name="Hcircumflex" unicode="&#x124;" horiz-adv-x="1399" 
d="M274 0h-134v1410h134v-613h854v613h130v-1410h-130v671h-854v-671zM773 1578l-75 130l-76 -130h-146l173 278h102l169 -278h-147z" />
    <glyph glyph-name="hcircumflex" unicode="&#x125;" horiz-adv-x="1154" 
d="M273 0h-133v1410h133v-555q123 176 352 176q122 0 207 -37t133 -108t68.5 -161t20.5 -210v-515h-131v515q0 194 -66.5 290t-226.5 96q-164 0 -260.5 -112t-96.5 -302v-487zM677 1257l-75 130l-76 -130h-146l173 278h102l169 -278h-147z" />
    <glyph glyph-name="Idotaccent" unicode="&#x130;" horiz-adv-x="474" 
d="M302 0h-131v1403h131v-1403zM236 1803q37 0 64 -26t27 -63t-27 -63t-64 -26q-38 0 -65 26t-27 63t27 63t65 26z" />
    <glyph glyph-name="dotlessi" unicode="&#x131;" horiz-adv-x="488" 
d="M310 0h-133v1031h133v-1031z" />
    <glyph glyph-name="IJ" unicode="&#x132;" horiz-adv-x="1850" 
d="M303 0h-131v1403h131v-1403zM533 639h130q-8 -265 113 -405t345 -140q463 0 463 512v804h127v-804q0 -307 -152.5 -473t-437.5 -166q-284 0 -440.5 178.5t-147.5 493.5z" />
    <glyph glyph-name="ij" unicode="&#x133;" horiz-adv-x="955" 
d="M309 0h-133v1031h133v-1031zM243 1128q-53 0 -78 29.5t-25 71.5q0 41 25.5 69.5t77.5 28.5q101 0 101 -98q0 -101 -101 -101zM355 -538v126h81q160 -1 186 14t25 105v37v1287h136l-2 -1287q0 -71 -1.5 -110t-9 -76t-18.5 -52.5t-34.5 -28.5t-52 -15.5t-76.5 -2.5
q-24 0 -101.5 1.5t-132.5 1.5zM715 1128q-54 0 -79 29.5t-25 71.5q0 40 25.5 69t78.5 29q100 0 100 -98q0 -101 -100 -101z" />
    <glyph glyph-name="uni0136" unicode="&#x136;" horiz-adv-x="1363" 
d="M276 -2h-136v1412h136v-721l804 721h212l-704 -626l718 -784h-193l-623 697l-214 -190v-509zM741 -84l-141 -313h-129l115 313h155z" />
    <glyph glyph-name="uni0137" unicode="&#x137;" horiz-adv-x="1212" 
d="M1088 -5h-179l-424 484l-211 -191v-290h-134v1412h134v-942l620 563h197l-508 -463zM741 -84l-141 -313h-129l115 313h155z" />
    <glyph glyph-name="Lacute" unicode="&#x139;" horiz-adv-x="1277" 
d="M164 0v1410h133v-1286h860v-124h-993zM268 1620h-132l158 277h166z" />
    <glyph glyph-name="lacute" unicode="&#x13a;" horiz-adv-x="465" 
d="M297 0h-134v1410h134v-1410zM244 1605h-132l158 277h166z" />
    <glyph glyph-name="uni013B" unicode="&#x13b;" horiz-adv-x="1253" 
d="M140 0v1410h133v-1286h860v-124h-993zM741 -84l-141 -313h-129l115 313h155z" />
    <glyph glyph-name="uni013C" unicode="&#x13c;" horiz-adv-x="452" 
d="M309 0h-134v1410h134v-1410zM317 -84l-141 -313h-129l115 313h155z" />
    <glyph glyph-name="Lcaron" unicode="&#x13d;" horiz-adv-x="1276" 
d="M163 0v1410h133v-1286h860v-124h-993zM476 1882l-171 -277h-101l-174 277h149l76 -130l75 130h146z" />
    <glyph glyph-name="lcaron" unicode="&#x13e;" horiz-adv-x="458" 
d="M296 0h-134v1410h134v-1410zM452 1867l-171 -277h-101l-174 277h149l76 -130l75 130h146z" />
    <glyph glyph-name="Nacute" unicode="&#x143;" horiz-adv-x="1342" 
d="M269 0h-129v1404h120l814 -1165v1165h127v-1404h-114l-818 1175v-1175zM694 1603h-132l158 277h166z" />
    <glyph glyph-name="nacute" unicode="&#x144;" horiz-adv-x="1154" 
d="M273 0h-133v1031h103l24 -185q123 185 358 185q122 0 207 -37t133 -108t68.5 -161t20.5 -210v-515h-131v515q0 194 -66.5 290t-226.5 96q-164 0 -260.5 -112t-96.5 -302v-487zM616 1224h-132l158 277h166z" />
    <glyph glyph-name="uni0145" unicode="&#x145;" horiz-adv-x="1342" 
d="M269 0h-129v1404h120l814 -1165v1165h127v-1404h-114l-818 1175v-1175zM741 -84l-141 -313h-129l115 313h155z" />
    <glyph glyph-name="uni0146" unicode="&#x146;" horiz-adv-x="1154" 
d="M273 0h-133v1031h103l24 -185q123 185 358 185q122 0 207 -37t133 -108t68.5 -161t20.5 -210v-515h-131v515q0 194 -66.5 290t-226.5 96q-164 0 -260.5 -112t-96.5 -302v-487zM741 -84l-141 -313h-129l115 313h155z" />
    <glyph glyph-name="Ncaron" unicode="&#x147;" horiz-adv-x="1342" 
d="M269 0h-129v1404h120l814 -1165v1165h127v-1404h-114l-818 1175v-1175zM903 1865l-171 -277h-101l-174 277h149l76 -130l75 130h146z" />
    <glyph glyph-name="ncaron" unicode="&#x148;" horiz-adv-x="1154" 
d="M273 0h-133v1031h103l24 -185q123 185 358 185q122 0 207 -37t133 -108t68.5 -161t20.5 -210v-515h-131v515q0 194 -66.5 290t-226.5 96q-164 0 -260.5 -112t-96.5 -302v-487zM825 1486l-171 -277h-101l-174 277h149l76 -130l75 130h146z" />
    <glyph glyph-name="Omacron" unicode="&#x14c;" horiz-adv-x="1586" 
d="M791 -33q-331 0 -511.5 197t-180.5 537q0 342 179.5 537.5t512.5 195.5q335 0 515 -196.5t180 -536.5q0 -343 -183.5 -538.5t-511.5 -195.5zM791 94q274 0 418 158.5t144 448.5q0 295 -142.5 450t-419.5 155q-276 0 -418.5 -155t-142.5 -450q0 -294 144 -450.5
t417 -156.5zM1009 1640h-395v122h395v-122z" />
    <glyph glyph-name="omacron" unicode="&#x14d;" horiz-adv-x="1135" 
d="M568 -23q-230 0 -360 140t-130 384q0 248 130 389t360 141q232 0 360.5 -144.5t128.5 -385.5q0 -238 -126 -381t-363 -143zM568 106q94 0 163 30.5t109.5 85.5t60 124.5t19.5 154.5q0 181 -85 290.5t-267 109.5q-178 0 -265 -109.5t-87 -290.5q0 -62 10.5 -116.5
t36 -106.5t64.5 -89.5t100.5 -60t140.5 -22.5zM765 1295h-395v122h395v-122z" />
    <glyph glyph-name="Ohungarumlaut" unicode="&#x150;" horiz-adv-x="1586" 
d="M791 -33q-331 0 -511.5 197t-180.5 537q0 342 179.5 537.5t512.5 195.5q335 0 515 -196.5t180 -536.5q0 -343 -183.5 -538.5t-511.5 -195.5zM791 94q274 0 418 158.5t144 448.5q0 295 -142.5 450t-419.5 155q-276 0 -418.5 -155t-142.5 -450q0 -294 144 -450.5
t417 -156.5zM680 1597h-131l158 277h164zM888 1597h-130l156 277h166z" />
    <glyph glyph-name="ohungarumlaut" unicode="&#x151;" horiz-adv-x="1135" 
d="M568 -23q-230 0 -360 140t-130 384q0 248 130 389t360 141q232 0 360.5 -144.5t128.5 -385.5q0 -238 -126 -381t-363 -143zM568 106q94 0 163 30.5t109.5 85.5t60 124.5t19.5 154.5q0 181 -85 290.5t-267 109.5q-178 0 -265 -109.5t-87 -290.5q0 -62 10.5 -116.5
t36 -106.5t64.5 -89.5t100.5 -60t140.5 -22.5zM507 1252h-131l158 277h164zM715 1252h-130l156 277h166z" />
    <glyph glyph-name="OE" unicode="&#x152;" horiz-adv-x="2492" 
d="M791 94q274 0 418 158.5t144 448.5q0 295 -142.5 450t-419.5 155q-276 0 -418.5 -155t-142.5 -450q0 -294 144 -450.5t417 -156.5zM791 -33q-331 0 -511.5 197t-180.5 537q0 342 179.5 537.5t512.5 195.5q388 0 569 -264v240h990v-129h-855v-503h704v-130h-704v-521h877
v-127h-1012v235q-89 -130 -233.5 -199t-335.5 -69z" />
    <glyph glyph-name="oe" unicode="&#x153;" horiz-adv-x="1971" 
d="M568 106q92 0 161 30t110 84t60.5 122.5t20.5 151.5v17q-1 85 -21 154t-60.5 123t-109.5 83.5t-161 29.5q-136 0 -209 -57q-143 -107 -143 -343q0 -95 32 -189q73 -206 320 -206zM1068 606h681q-8 54 -32 104.5t-63 95t-101 71.5t-136 27q-138 0 -229.5 -81.5
t-119.5 -216.5zM568 -23q-230 0 -360 140t-130 384q0 248 130 389t360 141q149 0 256.5 -61.5t167.5 -174.5q63 111 172.5 173.5t252.5 62.5q196 0 325.5 -125t144.5 -331l2 -30v-65h-833v-10q11 -171 104.5 -268.5t256.5 -97.5q138 0 233 72t107 190h136
q-19 -172 -153.5 -280.5t-322.5 -108.5q-145 0 -253 63t-170 171q-58 -112 -166 -173t-260 -61z" />
    <glyph glyph-name="Racute" unicode="&#x154;" horiz-adv-x="1322" 
d="M628 1281h-353v-551h416q202 0 290.5 61.5t88.5 212.5q0 55 -11.5 98t-29.5 72t-51 49.5t-65 31.5t-83.5 17t-93.5 7.5t-108 1.5zM275 604v-604h-135v1410h488q69 0 123.5 -3.5t116 -13.5t108 -28t90.5 -48.5t72.5 -72.5t45.5 -103t17 -137q0 -114 -52 -204t-150 -133
q38 -19 67 -48.5t48 -61t32 -78.5t19.5 -85t10.5 -96t4.5 -97t1 -102.5t1.5 -98.5h-127q0 80 -0.5 129.5t-3.5 110.5t-8.5 98t-15 79t-24 67t-35 49t-48.5 37.5t-63 21.5q-65 12 -171 13q-106 2 -264 0q-49 -1 -148 -1zM861 1880l-192 -277h-132l158 277h166z" />
    <glyph glyph-name="racute" unicode="&#x155;" horiz-adv-x="703" 
d="M273 0h-133v1031h108l19 -186q132 197 389 184l10 -129q-178 14 -285.5 -99t-107.5 -314v-487zM381 1224h-132l158 277h166z" />
    <glyph glyph-name="uni0156" unicode="&#x156;" horiz-adv-x="1322" 
d="M628 1281h-353v-551h416q202 0 290.5 61.5t88.5 212.5q0 55 -11.5 98t-29.5 72t-51 49.5t-65 31.5t-83.5 17t-93.5 7.5t-108 1.5zM275 604v-604h-135v1410h488q69 0 123.5 -3.5t116 -13.5t108 -28t90.5 -48.5t72.5 -72.5t45.5 -103t17 -137q0 -114 -52 -204t-150 -133
q38 -19 67 -48.5t48 -61t32 -78.5t19.5 -85t10.5 -96t4.5 -97t1 -102.5t1.5 -98.5h-127q0 80 -0.5 129.5t-3.5 110.5t-8.5 98t-15 79t-24 67t-35 49t-48.5 37.5t-63 21.5q-65 12 -171 13q-106 2 -264 0q-49 -1 -148 -1zM586 -84h155l-141 -313h-129z" />
    <glyph glyph-name="uni0157" unicode="&#x157;" horiz-adv-x="720" 
d="M290 0h-133v1031h108l19 -186q132 197 389 184l10 -129q-178 14 -285.5 -99t-107.5 -314v-487zM315 -84l-141 -313h-129l115 313h155z" />
    <glyph glyph-name="Rcaron" unicode="&#x158;" horiz-adv-x="1322" 
d="M628 1281h-353v-551h416q202 0 290.5 61.5t88.5 212.5q0 55 -11.5 98t-29.5 72t-51 49.5t-65 31.5t-83.5 17t-93.5 7.5t-108 1.5zM275 604v-604h-135v1410h488q69 0 123.5 -3.5t116 -13.5t108 -28t90.5 -48.5t72.5 -72.5t45.5 -103t17 -137q0 -114 -52 -204t-150 -133
q38 -19 67 -48.5t48 -61t32 -78.5t19.5 -85t10.5 -96t4.5 -97t1 -102.5t1.5 -98.5h-127q0 80 -0.5 129.5t-3.5 110.5t-8.5 98t-15 79t-24 67t-35 49t-48.5 37.5t-63 21.5q-65 12 -171 13q-106 2 -264 0q-49 -1 -148 -1zM732 1865h146l-171 -277h-101l-174 277h149l76 -130z
" />
    <glyph glyph-name="rcaron" unicode="&#x159;" horiz-adv-x="703" 
d="M273 0h-133v1031h108l19 -186q132 197 389 184l10 -129q-178 14 -285.5 -99t-107.5 -314v-487zM590 1486l-171 -277h-101l-174 277h149l76 -130l75 130h146z" />
    <glyph glyph-name="Sacute" unicode="&#x15a;" horiz-adv-x="1369" 
d="M724 -33q-127 0 -236.5 31.5t-194 91t-131 156t-42.5 217.5h130l9 -73q9 -67 41 -119.5t77 -85t104.5 -53.5t119 -29.5t125.5 -8.5q97 0 172 19.5t116 47t66.5 63.5t33.5 63t8 52q3 89 -40 141q-75 95 -304 150q-219 52 -287 76q-202 68 -270 186q-43 76 -40 181
q5 110 78.5 193t193 125.5t264.5 42.5q161 0 282.5 -56.5t185.5 -167.5t50 -261h-136q7 59 -2.5 109.5t-31.5 86t-54.5 64.5t-69.5 46.5t-78 29.5t-77 16.5t-71 4.5q-173 0 -284.5 -68t-116.5 -169q-3 -81 39 -134q78 -93 302 -143q220 -51 306 -83q203 -77 261 -215
q29 -69 27 -156q-3 -111 -74 -196.5t-188.5 -130t-262.5 -44.5zM700 1603h-132l158 277h166z" />
    <glyph glyph-name="sacute" unicode="&#x15b;" horiz-adv-x="990" 
d="M494 -23q-56 0 -112 8.5t-120 34t-109 65.5t-69.5 110.5t-11.5 160.5h137q-10 -61 4 -108.5t43 -75t72.5 -44.5t83.5 -23t84 -6q133 0 215 41t79 125q0 70 -41 106q-42 37 -110.5 57.5t-178.5 39.5q-90 18 -172 44q-207 68 -202 265q1 121 119.5 199t300.5 78
q56 0 110.5 -8.5t116 -33.5t104.5 -65t66 -109.5t10 -160.5h-137q10 61 -4 107.5t-42 72.5t-71.5 42t-82.5 21t-84 5q-122 0 -198.5 -39t-76.5 -111q0 -60 39 -90q29 -23 80 -41.5t88.5 -26.5t117.5 -23q49 -10 81.5 -18.5t76 -23t72.5 -30t60 -40.5t49 -54.5t29.5 -71
t11.5 -91.5q0 -76 -33.5 -133t-93.5 -90t-135 -49t-166 -16zM505 1224h-132l158 277h166z" />
    <glyph glyph-name="Scircumflex" unicode="&#x15c;" horiz-adv-x="1369" 
d="M724 -33q-127 0 -236.5 31.5t-194 91t-131 156t-42.5 217.5h130l9 -73q9 -67 41 -119.5t77 -85t104.5 -53.5t119 -29.5t125.5 -8.5q97 0 172 19.5t116 47t66.5 63.5t33.5 63t8 52q3 89 -40 141q-75 95 -304 150q-219 52 -287 76q-202 68 -270 186q-43 76 -40 181
q5 110 78.5 193t193 125.5t264.5 42.5q161 0 282.5 -56.5t185.5 -167.5t50 -261h-136q7 59 -2.5 109.5t-31.5 86t-54.5 64.5t-69.5 46.5t-78 29.5t-77 16.5t-71 4.5q-173 0 -284.5 -68t-116.5 -169q-3 -81 39 -134q78 -93 302 -143q220 -51 306 -83q203 -77 261 -215
q29 -69 27 -156q-3 -111 -74 -196.5t-188.5 -130t-262.5 -44.5zM761 1578l-75 130l-76 -130h-146l173 278h102l169 -278h-147z" />
    <glyph glyph-name="scircumflex" unicode="&#x15d;" horiz-adv-x="990" 
d="M494 -23q-56 0 -112 8.5t-120 34t-109 65.5t-69.5 110.5t-11.5 160.5h137q-10 -61 4 -108.5t43 -75t72.5 -44.5t83.5 -23t84 -6q133 0 215 41t79 125q0 70 -41 106q-42 37 -110.5 57.5t-178.5 39.5q-90 18 -172 44q-207 68 -202 265q1 121 119.5 199t300.5 78
q56 0 110.5 -8.5t116 -33.5t104.5 -65t66 -109.5t10 -160.5h-137q10 61 -4 107.5t-42 72.5t-71.5 42t-82.5 21t-84 5q-122 0 -198.5 -39t-76.5 -111q0 -60 39 -90q29 -23 80 -41.5t88.5 -26.5t117.5 -23q49 -10 81.5 -18.5t76 -23t72.5 -30t60 -40.5t49 -54.5t29.5 -71
t11.5 -91.5q0 -76 -33.5 -133t-93.5 -90t-135 -49t-166 -16zM566 1199l-75 130l-76 -130h-146l173 278h102l169 -278h-147z" />
    <glyph glyph-name="Scedilla" unicode="&#x15e;" horiz-adv-x="1369" 
d="M566 -208l95 177q-116 8 -214.5 42.5t-173.5 94.5t-116 151.5t-37 205.5h130l9 -73q9 -67 41 -119.5t77 -85t104.5 -53.5t119 -29.5t125.5 -8.5q97 0 172 19.5t116 47t66.5 63.5t33.5 63t8 52q3 89 -40 141q-75 95 -304 150q-219 52 -287 76q-202 68 -270 186
q-43 76 -40 181q5 110 78.5 193t193 125.5t264.5 42.5q161 0 282.5 -56.5t185.5 -167.5t50 -261h-136q7 59 -2.5 109.5t-31.5 86t-54.5 64.5t-69.5 46.5t-78 29.5t-77 16.5t-71 4.5q-173 0 -284.5 -68t-116.5 -169q-3 -81 39 -134q78 -93 302 -143q220 -51 306 -83
q203 -77 261 -215q29 -69 27 -156q-4 -152 -129 -251t-319 -117l-39 -70q152 -34 152 -176q0 -94 -72 -142.5t-173 -48.5q-88 0 -136 33v134q38 -30 65 -40t74 -10q113 0 113 74t-131 74q-37 0 -88 -6z" />
    <glyph glyph-name="scedilla" unicode="&#x15f;" horiz-adv-x="990" 
d="M336 -198l95 178q-56 5 -106.5 17.5t-103.5 41t-89 68.5t-53.5 104.5t-6.5 144.5h137q-10 -61 4 -108.5t43 -75t72.5 -44.5t83.5 -23t84 -6q133 0 215 41t79 125q0 70 -41 106q-42 37 -110.5 57.5t-178.5 39.5q-90 18 -172 44q-207 68 -202 265q1 121 119.5 199t300.5 78
q56 0 110.5 -8.5t116 -33.5t104.5 -65t66 -109.5t10 -160.5h-137q10 61 -4 107.5t-42 72.5t-71.5 42t-82.5 21t-84 5q-122 0 -198.5 -39t-76.5 -111q0 -60 39 -90q29 -23 80 -41.5t88.5 -26.5t117.5 -23q49 -10 81.5 -18.5t76 -23t72.5 -30t60 -40.5t49 -54.5t29.5 -71
t11.5 -91.5q0 -132 -95.5 -202t-255.5 -83l-39 -70q152 -34 152 -176q0 -94 -72 -142.5t-173 -48.5q-88 0 -136 33v134q38 -30 65 -40t74 -10q113 0 113 74t-131 74q-37 0 -88 -6z" />
    <glyph glyph-name="Scaron" unicode="&#x160;" horiz-adv-x="1369" 
d="M724 -33q-127 0 -236.5 31.5t-194 91t-131 156t-42.5 217.5h130l9 -73q9 -67 41 -119.5t77 -85t104.5 -53.5t119 -29.5t125.5 -8.5q97 0 172 19.5t116 47t66.5 63.5t33.5 63t8 52q3 89 -40 141q-75 95 -304 150q-219 52 -287 76q-202 68 -270 186q-43 76 -40 181
q5 110 78.5 193t193 125.5t264.5 42.5q161 0 282.5 -56.5t185.5 -167.5t50 -261h-136q7 59 -2.5 109.5t-31.5 86t-54.5 64.5t-69.5 46.5t-78 29.5t-77 16.5t-71 4.5q-173 0 -284.5 -68t-116.5 -169q-3 -81 39 -134q78 -93 302 -143q220 -51 306 -83q203 -77 261 -215
q29 -69 27 -156q-3 -111 -74 -196.5t-188.5 -130t-262.5 -44.5zM909 1865l-171 -277h-101l-174 277h149l76 -130l75 130h146z" />
    <glyph glyph-name="scaron" unicode="&#x161;" horiz-adv-x="990" 
d="M494 -23q-56 0 -112 8.5t-120 34t-109 65.5t-69.5 110.5t-11.5 160.5h137q-10 -61 4 -108.5t43 -75t72.5 -44.5t83.5 -23t84 -6q133 0 215 41t79 125q0 70 -41 106q-42 37 -110.5 57.5t-178.5 39.5q-90 18 -172 44q-207 68 -202 265q1 121 119.5 199t300.5 78
q56 0 110.5 -8.5t116 -33.5t104.5 -65t66 -109.5t10 -160.5h-137q10 61 -4 107.5t-42 72.5t-71.5 42t-82.5 21t-84 5q-122 0 -198.5 -39t-76.5 -111q0 -60 39 -90q29 -23 80 -41.5t88.5 -26.5t117.5 -23q49 -10 81.5 -18.5t76 -23t72.5 -30t60 -40.5t49 -54.5t29.5 -71
t11.5 -91.5q0 -76 -33.5 -133t-93.5 -90t-135 -49t-166 -16zM714 1486l-171 -277h-101l-174 277h149l76 -130l75 130h146z" />
    <glyph glyph-name="uni0162" unicode="&#x162;" horiz-adv-x="1297" 
d="M720 49l-64 -116q152 -34 152 -176q0 -94 -72 -142.5t-173 -48.5q-88 0 -136 33v134q38 -30 65 -40t74 -10q113 0 113 74t-131 74q-37 0 -88 -6l120 224h4v1233h-485v128h1098v-128h-482v-1233h5z" />
    <glyph glyph-name="uni0163" unicode="&#x163;" horiz-adv-x="708" 
d="M254 -175l104 194q-50 23 -73.5 83.5t-23.5 179.5v622h-172v127h172v251h131v-251h236v-127h-236v-622v-46t2 -35t5 -28.5t10 -19t16 -14.5t24 -7.5t33 -5t45 -0.5q20 0 104 2v-128q-20 0 -70.5 -1t-74.5 0l-36 -66q152 -34 152 -176q0 -94 -72 -142.5t-173 -48.5
q-88 0 -136 33v134q38 -30 65 -40t74 -10q113 0 113 74t-131 74q-37 0 -88 -6z" />
    <glyph glyph-name="Tcaron" unicode="&#x164;" horiz-adv-x="1297" 
d="M715 0h-131v1282h-485v128h1098v-128h-482v-1282zM869 1865l-171 -277h-101l-174 277h149l76 -130l75 130h146z" />
    <glyph glyph-name="tcaron" unicode="&#x165;" horiz-adv-x="708" 
d="M631 128v-128q-22 0 -64 -1q-52 -1 -95 0t-77 8t-59 24.5t-41.5 48.5t-25 81t-8.5 121v622h-172v127h172v251h131v-251h236v-127h-236v-622v-46t2 -35t5 -28.5t10 -19t16 -14.5t24 -7.5t33 -5t45 -0.5q20 0 104 2zM550 1737l-171 -277h-101l-174 277h149l76 -130l75 130
h146z" />
    <glyph glyph-name="Utilde" unicode="&#x168;" 
d="M729 -33q-276 0 -432.5 169.5t-156.5 469.5v804h131v-804q0 -250 120.5 -381t337.5 -131q462 0 462 512v804h128v-804q0 -307 -152.5 -473t-437.5 -166zM637 1801q42 0 126 -27q66 -21 80 -21l-4 40h118q10 -76 -20.5 -117.5t-91.5 -41.5q-49 0 -127 26q-61 20 -81 20
q2 0 2 -38h-113q-9 76 20.5 117.5t90.5 41.5z" />
    <glyph glyph-name="utilde" unicode="&#x169;" horiz-adv-x="1102" 
d="M533 -23q-434 0 -434 514v540h135v-540q0 -68 6 -119.5t25 -104t51.5 -86t87 -54.5t129.5 -21q155 0 238 100t97 267v558h135v-1031h-108l-19 160q-56 -81 -143.5 -132t-199.5 -51zM468 1422q42 0 126 -27q66 -21 80 -21l-4 40h118q10 -76 -20.5 -117.5t-91.5 -41.5
q-49 0 -127 26q-61 20 -81 20q2 0 2 -38h-113q-9 76 20.5 117.5t90.5 41.5z" />
    <glyph glyph-name="Umacron" unicode="&#x16a;" 
d="M729 -33q-276 0 -432.5 169.5t-156.5 469.5v804h131v-804q0 -250 120.5 -381t337.5 -131q462 0 462 512v804h128v-804q0 -307 -152.5 -473t-437.5 -166zM939 1640h-395v122h395v-122z" />
    <glyph glyph-name="umacron" unicode="&#x16b;" horiz-adv-x="1102" 
d="M533 -23q-434 0 -434 514v540h135v-540q0 -68 6 -119.5t25 -104t51.5 -86t87 -54.5t129.5 -21q155 0 238 100t97 267v558h135v-1031h-108l-19 160q-56 -81 -143.5 -132t-199.5 -51zM770 1261h-395v122h395v-122z" />
    <glyph glyph-name="Ubreve" unicode="&#x16c;" 
d="M729 -33q-276 0 -432.5 169.5t-156.5 469.5v804h131v-804q0 -250 120.5 -381t337.5 -131q462 0 462 512v804h128v-804q0 -307 -152.5 -473t-437.5 -166zM838 1857h122q7 -137 -47.5 -217.5t-170.5 -80.5t-171.5 81t-47.5 217h121q-10 -173 98 -173q105 0 96 173z" />
    <glyph glyph-name="ubreve" unicode="&#x16d;" horiz-adv-x="1102" 
d="M533 -23q-434 0 -434 514v540h135v-540q0 -68 6 -119.5t25 -104t51.5 -86t87 -54.5t129.5 -21q155 0 238 100t97 267v558h135v-1031h-108l-19 160q-56 -81 -143.5 -132t-199.5 -51zM669 1478h122q7 -137 -47.5 -217.5t-170.5 -80.5t-171.5 81t-47.5 217h121
q-10 -173 98 -173q105 0 96 173z" />
    <glyph glyph-name="Uring" unicode="&#x16e;" 
d="M743 1760q-45 0 -45 -48t45 -48q21 0 33 13.5t12 34.5q0 22 -12 35t-33 13zM729 -33q-276 0 -432.5 169.5t-156.5 469.5v804h131v-804q0 -250 120.5 -381t337.5 -131q462 0 462 512v804h128v-804q0 -307 -152.5 -473t-437.5 -166zM743 1874q72 0 120.5 -44.5t48.5 -117.5
q0 -71 -49 -117t-120 -46q-73 0 -122.5 45.5t-49.5 117.5q0 73 49.5 117.5t122.5 44.5z" />
    <glyph glyph-name="uring" unicode="&#x16f;" horiz-adv-x="1102" 
d="M574 1381q-45 0 -45 -48t45 -48q21 0 33 13.5t12 34.5q0 22 -12 35t-33 13zM533 -23q-434 0 -434 514v540h135v-540q0 -68 6 -119.5t25 -104t51.5 -86t87 -54.5t129.5 -21q155 0 238 100t97 267v558h135v-1031h-108l-19 160q-56 -81 -143.5 -132t-199.5 -51zM574 1495
q72 0 120.5 -44.5t48.5 -117.5q0 -71 -49 -117t-120 -46q-73 0 -122.5 45.5t-49.5 117.5q0 73 49.5 117.5t122.5 44.5z" />
    <glyph glyph-name="Uhungarumlaut" unicode="&#x170;" 
d="M729 -33q-276 0 -432.5 169.5t-156.5 469.5v804h131v-804q0 -250 120.5 -381t337.5 -131q462 0 462 512v804h128v-804q0 -307 -152.5 -473t-437.5 -166zM610 1597h-131l158 277h164zM818 1597h-130l156 277h166z" />
    <glyph glyph-name="uhungarumlaut" unicode="&#x171;" horiz-adv-x="1102" 
d="M533 -23q-434 0 -434 514v540h135v-540q0 -68 6 -119.5t25 -104t51.5 -86t87 -54.5t129.5 -21q155 0 238 100t97 267v558h135v-1031h-108l-19 160q-56 -81 -143.5 -132t-199.5 -51zM441 1218h-131l158 277h164zM649 1218h-130l156 277h166z" />
    <glyph glyph-name="Uogonek" unicode="&#x172;" 
d="M673 -31q-251 17 -392 185t-141 452v804h131v-804q0 -250 120.5 -381t337.5 -131q462 0 462 512v804h128v-804q0 -273 -121 -435t-350 -196q-53 -39 -86 -96t-33 -119q0 -36 13.5 -50.5t42.5 -14.5q38 0 75 24.5t84 83.5v-159q-78 -70 -181 -70q-75 0 -125 40.5
t-50 131.5q0 124 85 223z" />
    <glyph glyph-name="uogonek" unicode="&#x173;" horiz-adv-x="1102" 
d="M890 46l-14 114q-56 -81 -143.5 -132t-199.5 -51q-434 0 -434 514v540h135v-540q0 -68 6 -119.5t25 -104t51.5 -86t87 -54.5t129.5 -21q155 0 238 100t97 267v558h135v-1031h-60q-89 -15 -159 -93t-70 -171q0 -36 13.5 -50.5t42.5 -14.5q38 0 75 24.5t84 83.5v-159
q-78 -70 -181 -70q-75 0 -125 40.5t-50 131.5q0 113 92 199t225 125z" />
    <glyph glyph-name="Wcircumflex" unicode="&#x174;" horiz-adv-x="2244" 
d="M1693 0h-162l-415 1181l-437 -1181h-160l-483 1410h143l424 -1237l455 1237h120l433 -1238l450 1238h146zM1176 1578l-75 130l-76 -130h-146l173 278h102l169 -278h-147z" />
    <glyph glyph-name="wcircumflex" unicode="&#x175;" horiz-adv-x="1639" 
d="M560 0h-145l-337 1031h140l266 -839l280 839h113l285 -839l260 839h138l-325 -1031h-151l-262 784zM896 1239l-75 130l-76 -130h-146l173 278h102l169 -278h-147z" />
    <glyph glyph-name="Ycircumflex" unicode="&#x176;" horiz-adv-x="1285" 
d="M709 0h-134v533l-497 877h147l421 -733l414 733h146l-497 -877v-533zM697 1578l-75 130l-76 -130h-146l173 278h102l169 -278h-147z" />
    <glyph glyph-name="ycircumflex" unicode="&#x177;" horiz-adv-x="1211" 
d="M537 -5l-459 1036h156l375 -866l369 866h155l-694 -1571h-130zM685 1199l-75 130l-76 -130h-146l173 278h102l169 -278h-147z" />
    <glyph glyph-name="Ydieresis" unicode="&#x178;" horiz-adv-x="1285" 
d="M709 0h-134v533l-497 877h147l421 -733l414 733h146l-497 -877v-533zM511 1786q35 0 61 -25t26 -60q0 -34 -26 -59t-61 -25q-36 0 -61.5 24.5t-25.5 59.5t25.5 60t61.5 25zM772 1786q35 0 61 -25t26 -60q0 -34 -26 -59t-61 -25t-60 25t-25 59q0 35 25 60t60 25z" />
    <glyph glyph-name="Zacute" unicode="&#x179;" horiz-adv-x="1385" 
d="M1278 0h-1179v101l996 1180h-902v129h1092v-102l-996 -1179h989v-129zM724 1603h-132l158 277h166z" />
    <glyph glyph-name="zacute" unicode="&#x17a;" horiz-adv-x="1123" 
d="M1024 0h-925v97l717 809h-685v125h893v-105l-721 -802h721v-124zM574 1224h-132l158 277h166z" />
    <glyph glyph-name="Zdotaccent" unicode="&#x17b;" horiz-adv-x="1385" 
d="M1278 0h-1179v101l996 1180h-902v129h1092v-102l-996 -1179h989v-129zM711 1803q37 0 64 -26t27 -63t-27 -63t-64 -26q-38 0 -65 26t-27 63t27 63t65 26z" />
    <glyph glyph-name="zdotaccent" unicode="&#x17c;" horiz-adv-x="1123" 
d="M1024 0h-925v97l717 809h-685v125h893v-105l-721 -802h721v-124zM561 1424q37 0 64 -26t27 -63t-27 -63t-64 -26q-38 0 -65 26t-27 63t27 63t65 26z" />
    <glyph glyph-name="Zcaron" unicode="&#x17d;" horiz-adv-x="1385" 
d="M1278 0h-1179v101l996 1180h-902v129h1092v-102l-996 -1179h989v-129zM933 1865l-171 -277h-101l-174 277h149l76 -130l75 130h146z" />
    <glyph glyph-name="zcaron" unicode="&#x17e;" horiz-adv-x="1123" 
d="M1024 0h-925v97l717 809h-685v125h893v-105l-721 -802h721v-124zM783 1486l-171 -277h-101l-174 277h149l76 -130l75 130h146z" />
    <glyph glyph-name="uni01CD" unicode="&#x1cd;" horiz-adv-x="1451" 
d="M1000 523l-275 690l-278 -690h553zM99 0l563 1410h122l567 -1410h-142l-156 390h-659l-157 -390h-138zM799 1865h146l-171 -277h-101l-174 277h149l76 -130z" />
    <glyph glyph-name="uni01CE" unicode="&#x1ce;" horiz-adv-x="1014" 
d="M424 101q176 0 265.5 72.5t89.5 232.5v91q-55 3 -96 3q-36 0 -73.5 -2t-84 -9t-88 -17t-82 -28t-69.5 -41t-47 -57t-18 -74q0 -171 203 -171zM409 -24q-150 0 -240.5 76t-90.5 216t112.5 226t297.5 113q113 16 231 14h60v90q-9 107 -60.5 155.5t-152.5 48.5h-73
q-102 0 -170 -59t-72 -177h-136q-4 156 103.5 259t274.5 103h73q165 0 253.5 -81t94.5 -228v-731h-109l-17 141q-123 -166 -379 -166zM608 1543h146l-171 -277h-101l-174 277h149l76 -130z" />
    <glyph glyph-name="Gcaron" unicode="&#x1e6;" horiz-adv-x="1569" 
d="M781 -33q-314 0 -498 197t-184 535q0 344 186 539.5t512 195.5q271 0 443.5 -136t203.5 -392h-128q-75 400 -519 400q-275 0 -423 -159t-148 -448q0 -287 148 -447.5t412 -160.5q225 0 361.5 118.5t157.5 328.5h-554v129h718v-667h-121l-14 250q-32 -54 -77.5 -101
t-112 -89.5t-160 -67.5t-203.5 -25zM874 1865h146l-171 -277h-101l-174 277h149l76 -130z" />
    <glyph glyph-name="gcaron" unicode="&#x1e7;" horiz-adv-x="1215" 
d="M564 111q73 0 138.5 26t117 74.5t81.5 124.5t30 170q0 181 -99.5 286t-248.5 105q-168 0 -268.5 -110.5t-100.5 -280.5q0 -174 92 -284.5t258 -110.5zM939 -25v194q-138 -192 -368 -192q-216 0 -354.5 150.5t-138.5 378.5q0 229 137.5 377t357.5 148q236 0 363 -182
l13 182h124v-1056q0 -290 -136 -415q-106 -100 -336 -100t-335 100q-116 103 -134 318h136l6 -36q11 -59 15 -73q17 -59 50.5 -97t98.5 -60.5t163 -22.5q144 0 215 46t97 136q26 88 26 204zM717 1486h146l-171 -277h-101l-174 277h149l76 -130z" />
    <glyph glyph-name="uni0218" unicode="&#x218;" horiz-adv-x="1369" 
d="M724 -33q-127 0 -236.5 31.5t-194 91t-131 156t-42.5 217.5h130l9 -73q9 -67 41 -119.5t77 -85t104.5 -53.5t119 -29.5t125.5 -8.5q97 0 172 19.5t116 47t66.5 63.5t33.5 63t8 52q3 89 -40 141q-75 95 -304 150q-219 52 -287 76q-202 68 -270 186q-43 76 -40 181
q5 110 78.5 193t193 125.5t264.5 42.5q161 0 282.5 -56.5t185.5 -167.5t50 -261h-136q7 59 -2.5 109.5t-31.5 86t-54.5 64.5t-69.5 46.5t-78 29.5t-77 16.5t-71 4.5q-173 0 -284.5 -68t-116.5 -169q-3 -81 39 -134q78 -93 302 -143q220 -51 306 -83q203 -77 261 -215
q29 -69 27 -156q-3 -111 -74 -196.5t-188.5 -130t-262.5 -44.5zM809 -84l-141 -313h-129l115 313h155z" />
    <glyph glyph-name="uni0219" unicode="&#x219;" horiz-adv-x="990" 
d="M494 -23q-56 0 -112 8.5t-120 34t-109 65.5t-69.5 110.5t-11.5 160.5h137q-10 -61 4 -108.5t43 -75t72.5 -44.5t83.5 -23t84 -6q133 0 215 41t79 125q0 70 -41 106q-42 37 -110.5 57.5t-178.5 39.5q-90 18 -172 44q-207 68 -202 265q1 121 119.5 199t300.5 78
q56 0 110.5 -8.5t116 -33.5t104.5 -65t66 -109.5t10 -160.5h-137q10 61 -4 107.5t-42 72.5t-71.5 42t-82.5 21t-84 5q-122 0 -198.5 -39t-76.5 -111q0 -60 39 -90q29 -23 80 -41.5t88.5 -26.5t117.5 -23q49 -10 81.5 -18.5t76 -23t72.5 -30t60 -40.5t49 -54.5t29.5 -71
t11.5 -91.5q0 -76 -33.5 -133t-93.5 -90t-135 -49t-166 -16zM530 -84l-141 -313h-129l115 313h155z" />
    <glyph glyph-name="uni021A" unicode="&#x21a;" horiz-adv-x="1297" 
d="M715 0h-131v1282h-485v128h1098v-128h-482v-1282zM741 -84l-141 -313h-129l115 313h155z" />
    <glyph glyph-name="uni021B" unicode="&#x21b;" horiz-adv-x="708" 
d="M631 128v-128q-22 0 -64 -1q-52 -1 -95 0t-77 8t-59 24.5t-41.5 48.5t-25 81t-8.5 121v622h-172v127h172v251h131v-251h236v-127h-236v-622v-46t2 -35t5 -28.5t10 -19t16 -14.5t24 -7.5t33 -5t45 -0.5q20 0 104 2zM511 -84l-141 -313h-129l115 313h155z" />
    <glyph glyph-name="circumflex" unicode="&#x2c6;" horiz-adv-x="501" 
d="M325 1106l-75 130l-76 -130h-146l173 277h101l170 -277h-147z" />
    <glyph glyph-name="caron" unicode="&#x2c7;" horiz-adv-x="469" 
d="M457 1383l-171 -277h-101l-174 277h149l76 -130l75 130h146z" />
    <glyph glyph-name="breve" unicode="&#x2d8;" horiz-adv-x="972" 
d="M582 1383h122q7 -137 -47.5 -217.5t-170.5 -80.5t-171.5 81t-47.5 217h121q-10 -173 98 -173q105 0 96 173z" />
    <glyph glyph-name="dotaccent" unicode="&#x2d9;" horiz-adv-x="1050" 
d="M525 1337q37 0 64 -26t27 -63t-27 -63t-64 -26q-38 0 -65 26t-27 63t27 63t65 26z" />
    <glyph glyph-name="ring" unicode="&#x2da;" horiz-adv-x="1208" 
d="M605 1412q72 0 120.5 -44.5t48.5 -117.5q0 -72 -49 -117.5t-120 -45.5q-73 0 -122.5 45.5t-49.5 117.5q0 73 49.5 117.5t122.5 44.5zM605 1299q-45 0 -45 -49q0 -22 12 -35t33 -13t33 13t12 35q0 23 -12 36t-33 13z" />
    <glyph glyph-name="ogonek" unicode="&#x2db;" horiz-adv-x="1137" 
d="M616 95l191 -93q-32 7 -66 7q-113 0 -192 -74t-79 -174q0 -36 13.5 -50.5t42.5 -14.5q38 0 75 24.5t84 83.5v-159q-78 -70 -181 -70q-75 0 -125 40.5t-50 131.5q0 121 80.5 217t206.5 131z" />
    <glyph glyph-name="tilde" unicode="&#x2dc;" horiz-adv-x="1042" 
d="M409 1347q45 0 126 -26q63 -22 79 -22l-3 40h117q10 -76 -20.5 -117t-91.5 -41q-48 0 -127 26q-64 20 -80 20q2 0 2 -38h-114q-8 75 21.5 116.5t90.5 41.5z" />
    <glyph glyph-name="hungarumlaut" unicode="&#x2dd;" horiz-adv-x="717" 
d="M262 1106h-131l158 277h164zM470 1106h-130l156 277h166z" />
    <glyph glyph-name="gravecomb" unicode="&#x300;" horiz-adv-x="208" 
d="M547 1230h-131l-192 278h165z" />
    <glyph glyph-name="acutecomb" unicode="&#x301;" horiz-adv-x="209" 
d="M356 1224h-132l158 277h166z" />
    <glyph glyph-name="uni0302" unicode="&#x302;" horiz-adv-x="105" 
d="M325 1199l-75 130l-76 -130h-146l173 278h102l169 -278h-147z" />
    <glyph glyph-name="tildecomb" unicode="&#x303;" horiz-adv-x="50" 
d="M441 1422q42 0 126 -27q66 -21 80 -21l-4 40h118q10 -76 -20.5 -117.5t-91.5 -41.5q-49 0 -127 26q-61 20 -81 20q2 0 2 -38h-113q-9 76 20.5 117.5t90.5 41.5z" />
    <glyph glyph-name="uni0304" unicode="&#x304;" horiz-adv-x="52" 
d="M684 1261h-395v122h395v-122z" />
    <glyph glyph-name="uni0306" unicode="&#x306;" horiz-adv-x="50" 
d="M582 1478h122q7 -137 -47.5 -217.5t-170.5 -80.5t-171.5 81t-47.5 217h121q-10 -173 98 -173q105 0 96 173z" />
    <glyph glyph-name="uni0307" unicode="&#x307;" horiz-adv-x="120" 
d="M525 1424q37 0 64 -26t27 -63t-27 -63t-64 -26q-38 0 -65 26t-27 63t27 63t65 26z" />
    <glyph glyph-name="uni0308" unicode="&#x308;" horiz-adv-x="123" 
d="M520 1407q35 0 61 -25t26 -60q0 -34 -26 -59t-61 -25q-36 0 -61.5 24.5t-25.5 59.5t25.5 60t61.5 25zM781 1407q35 0 61 -25t26 -60q0 -34 -26 -59t-61 -25t-60 25t-25 59q0 35 25 60t60 25z" />
    <glyph glyph-name="uni030A" unicode="&#x30a;" horiz-adv-x="83" 
d="M605 1495q72 0 120.5 -44.5t48.5 -117.5q0 -71 -49 -117t-120 -46q-73 0 -122.5 45.5t-49.5 117.5q0 73 49.5 117.5t122.5 44.5zM605 1381q-45 0 -45 -48t45 -48q21 0 33 13.5t12 34.5q0 22 -12 35t-33 13z" />
    <glyph glyph-name="uni030B" unicode="&#x30b;" horiz-adv-x="102" 
d="M262 1218h-131l158 277h164zM470 1218h-130l156 277h166z" />
    <glyph glyph-name="uni030C" unicode="&#x30c;" horiz-adv-x="107" 
d="M457 1486l-171 -277h-101l-174 277h149l76 -130l75 130h146z" />
    <glyph glyph-name="uni0326" unicode="&#x326;" horiz-adv-x="1329" 
d="M800 -139l-115 -258h-129l115 313h129v-55z" />
    <glyph glyph-name="uni0327" unicode="&#x327;" horiz-adv-x="116" 
d="M726 83l-64 -116q152 -34 152 -176q0 -94 -72 -142.5t-173 -48.5q-88 0 -136 33v134q38 -30 65 -40t74 -10q113 0 113 74t-131 74q-37 0 -88 -6l120 224h140z" />
    <glyph glyph-name="uni0328" unicode="&#x328;" horiz-adv-x="134" 
d="M616 95l139 -68q-100 11 -192.5 -72.5t-92.5 -193.5q0 -36 13.5 -50.5t42.5 -14.5q38 0 75 24.5t84 83.5v-159q-78 -70 -181 -70q-75 0 -125 40.5t-50 131.5q0 121 80.5 217t206.5 131z" />
    <glyph glyph-name="uni1E20" unicode="&#x1e20;" horiz-adv-x="1569" 
d="M781 -33q-314 0 -498 197t-184 535q0 344 186 539.5t512 195.5q271 0 443.5 -136t203.5 -392h-128q-75 400 -519 400q-275 0 -423 -159t-148 -448q0 -287 148 -447.5t412 -160.5q225 0 361.5 118.5t157.5 328.5h-554v129h718v-667h-121l-14 250q-32 -54 -77.5 -101
t-112 -89.5t-160 -67.5t-203.5 -25zM995 1762v-122h-395v122h395z" />
    <glyph glyph-name="uni1E21" unicode="&#x1e21;" horiz-adv-x="1215" 
d="M564 111q73 0 138.5 26t117 74.5t81.5 124.5t30 170q0 181 -99.5 286t-248.5 105q-168 0 -268.5 -110.5t-100.5 -280.5q0 -174 92 -284.5t258 -110.5zM939 -25v194q-138 -192 -368 -192q-216 0 -354.5 150.5t-138.5 378.5q0 229 137.5 377t357.5 148q236 0 363 -182
l13 182h124v-1056q0 -290 -136 -415q-106 -100 -336 -100t-335 100q-116 103 -134 318h136l6 -36q11 -59 15 -73q17 -59 50.5 -97t98.5 -60.5t163 -22.5q144 0 215 46t97 136q26 88 26 204zM838 1383v-122h-395v122h395z" />
    <glyph glyph-name="Wgrave" unicode="&#x1e80;" horiz-adv-x="2244" 
d="M1693 0h-162l-415 1181l-437 -1181h-160l-483 1410h143l424 -1237l455 1237h120l433 -1238l450 1238h146zM1159 1609h-131l-192 278h165z" />
    <glyph glyph-name="wgrave" unicode="&#x1e81;" horiz-adv-x="1639" 
d="M560 0h-145l-337 1031h140l266 -839l280 839h113l285 -839l260 839h138l-325 -1031h-151l-262 784zM888 1270h-131l-192 278h165z" />
    <glyph glyph-name="Wacute" unicode="&#x1e82;" horiz-adv-x="2244" 
d="M1693 0h-162l-415 1181l-437 -1181h-160l-483 1410h143l424 -1237l455 1237h120l433 -1238l450 1238h146zM1179 1603h-132l158 277h166z" />
    <glyph glyph-name="wacute" unicode="&#x1e83;" horiz-adv-x="1639" 
d="M560 0h-145l-337 1031h140l266 -839l280 839h113l285 -839l260 839h138l-325 -1031h-151l-262 784zM893 1264h-132l158 277h166z" />
    <glyph glyph-name="Wdieresis" unicode="&#x1e84;" horiz-adv-x="2244" 
d="M1693 0h-162l-415 1181l-437 -1181h-160l-483 1410h143l424 -1237l455 1237h120l433 -1238l450 1238h146zM972 1786q35 0 61 -25t26 -60q0 -34 -26 -59t-61 -25q-36 0 -61.5 24.5t-25.5 59.5t25.5 60t61.5 25zM1233 1786q35 0 61 -25t26 -60q0 -34 -26 -59t-61 -25
t-60 25t-25 59q0 35 25 60t60 25z" />
    <glyph glyph-name="wdieresis" unicode="&#x1e85;" horiz-adv-x="1639" 
d="M560 0h-145l-337 1031h140l266 -839l280 839h113l285 -839l260 839h138l-325 -1031h-151l-262 784zM706 1447q35 0 61 -25t26 -60q0 -34 -26 -59t-61 -25q-36 0 -61.5 24.5t-25.5 59.5t25.5 60t61.5 25zM967 1447q35 0 61 -25t26 -60q0 -34 -26 -59t-61 -25t-60 25
t-25 59q0 35 25 60t60 25z" />
    <glyph glyph-name="uni1EBC" unicode="&#x1ebc;" horiz-adv-x="1273" 
d="M1153 0h-1013v1410h991v-129h-856v-503h704v-130h-704v-521h878v-127zM536 1801q42 0 126 -27q66 -21 80 -21l-4 40h118q10 -76 -20.5 -117.5t-91.5 -41.5q-49 0 -127 26q-61 20 -81 20q2 0 2 -38h-113q-9 76 20.5 117.5t90.5 41.5z" />
    <glyph glyph-name="uni1EBD" unicode="&#x1ebd;" horiz-adv-x="1139" 
d="M227 606h694q-8 54 -32 104.5t-63 95t-101 71.5t-136 27q-139 0 -237 -82.5t-125 -215.5zM576 -23q-121 0 -218.5 45.5t-158 121.5t-92 172t-29.5 200q5 223 146.5 369t364.5 146q196 0 325.5 -125t144.5 -331l2 -30v-65h-847q8 -176 102 -276t260 -100q138 0 233 72
t107 190h136q-19 -172 -153.5 -280.5t-322.5 -108.5zM471 1456q42 0 126 -27q66 -21 80 -21l-4 40h118q10 -76 -20.5 -117.5t-91.5 -41.5q-49 0 -127 26q-61 20 -81 20q2 0 2 -38h-113q-9 76 20.5 117.5t90.5 41.5z" />
    <glyph glyph-name="Ygrave" unicode="&#x1ef2;" horiz-adv-x="1285" 
d="M709 0h-134v533l-497 877h147l421 -733l414 733h146l-497 -877v-533zM688 1609h-131l-192 278h165z" />
    <glyph glyph-name="ygrave" unicode="&#x1ef3;" horiz-adv-x="1148" 
d="M1070 1031l-759 -1572l-140 2l317 668l-410 902h147l338 -746l358 746h149zM646 1230h-131l-192 278h165z" />
    <glyph glyph-name="uni1EF8" unicode="&#x1ef8;" horiz-adv-x="1285" 
d="M709 0h-134v533l-497 877h147l421 -733l414 733h146l-497 -877v-533zM556 1801q42 0 126 -27q66 -21 80 -21l-4 40h118q10 -76 -20.5 -117.5t-91.5 -41.5q-49 0 -127 26q-61 20 -81 20q2 0 2 -38h-113q-9 76 20.5 117.5t90.5 41.5z" />
    <glyph glyph-name="uni1EF9" unicode="&#x1ef9;" horiz-adv-x="1211" 
d="M537 -5l-459 1036h156l375 -866l369 866h155l-694 -1571h-130zM506 1422q42 0 126 -27q66 -21 80 -21l-4 40h118q10 -76 -20.5 -117.5t-91.5 -41.5q-49 0 -127 26q-61 20 -81 20q2 0 2 -38h-113q-9 76 20.5 117.5t90.5 41.5z" />
    <glyph glyph-name="endash" unicode="&#x2013;" horiz-adv-x="1063" 
d="M921 527h-781v124h781v-124z" />
    <glyph glyph-name="emdash" unicode="&#x2014;" horiz-adv-x="2054" 
d="M1912 527h-1772v124h1772v-124z" />
    <glyph glyph-name="quoteleft" unicode="&#x2018;" horiz-adv-x="612" 
d="M140 935l194 534h137l-164 -534h-167z" />
    <glyph glyph-name="quoteright" unicode="&#x2019;" horiz-adv-x="466" 
d="M387 1469l-192 -534h-138l164 534h166z" />
    <glyph glyph-name="quotesinglbase" unicode="&#x201a;" horiz-adv-x="446" 
d="M321 150l-152 -373h-137l130 373h159z" />
    <glyph glyph-name="quotedblleft" unicode="&#x201c;" horiz-adv-x="744" 
d="M198 935l190 536h138l-164 -536h-164zM420 942l186 529h138l-163 -536z" />
    <glyph glyph-name="quotedblright" unicode="&#x201d;" horiz-adv-x="413" 
d="M330 1469l-192 -534h-138l164 534h166zM546 1469l-190 -534h-138l164 534h164z" />
    <glyph glyph-name="quotedblbase" unicode="&#x201e;" horiz-adv-x="374" 
d="M322 150l-153 -373h-137l130 373h160zM514 150l-156 -373h-137l129 373h164z" />
    <glyph glyph-name="dagger" unicode="&#x2020;" horiz-adv-x="1076" 
d="M976 755l-367 5l8 -1065h-155l4 1065l-367 -5v139l367 -6l-6 495h157l-7 -495l366 6v-139z" />
    <glyph glyph-name="daggerdbl" unicode="&#x2021;" horiz-adv-x="1076" 
d="M609 760v-444l367 5v-138l-366 6l7 -494h-155l4 494l-367 -6v138l367 -5v444l-367 -5v139l367 -6l-6 495h157l-7 -495l366 6v-139z" />
    <glyph glyph-name="bullet" unicode="&#x2022;" horiz-adv-x="505" 
d="M252 764q64 0 108.5 -43t44.5 -105q0 -63 -44.5 -106t-108.5 -43t-108.5 43t-44.5 106q0 62 44.5 105t108.5 43z" />
    <glyph glyph-name="ellipsis" unicode="&#x2026;" horiz-adv-x="886" 
d="M194 159q40 0 67.5 -26.5t27.5 -65.5q0 -40 -27 -66.5t-68 -26.5q-39 0 -67 26.5t-28 66.5q0 39 28.5 65.5t66.5 26.5zM442 159q41 0 68.5 -26.5t27.5 -65.5q0 -40 -27.5 -66.5t-68.5 -26.5q-39 0 -67 26.5t-28 66.5q0 39 28 65.5t67 26.5zM690 159q41 0 68.5 -26.5
t27.5 -65.5q0 -40 -27.5 -66.5t-68.5 -26.5q-39 0 -67 26.5t-28 66.5q0 39 28 65.5t67 26.5z" />
    <glyph glyph-name="perthousand" unicode="&#x2030;" horiz-adv-x="2111" 
d="M728 1071q0 -144 -81.5 -240.5t-215.5 -96.5q-136 0 -217 96.5t-81 240.5q0 147 80.5 242t217.5 95q135 0 216 -95t81 -242zM1291 1383l-932 -1383h-163l933 1383h162zM278 1071q0 -98 40 -154t113 -56q72 0 112 56t40 154q0 99 -40 155t-112 56q-73 0 -113 -55.5
t-40 -155.5zM1057 647q136 0 217.5 -95.5t81.5 -241.5q0 -145 -81.5 -240.5t-217.5 -95.5q-135 0 -216 96t-81 240q0 147 80.5 242t216.5 95zM1680 647q137 0 217.5 -95t80.5 -242q0 -144 -81 -240t-217 -96q-134 0 -215.5 96t-81.5 240q0 146 81 241.5t216 95.5zM1057 100
q72 0 113 56.5t41 153.5q0 99 -40.5 155t-113.5 56t-112.5 -55.5t-39.5 -155.5q0 -98 39.5 -154t112.5 -56zM1680 100q74 0 114 56t40 154q0 100 -40 155.5t-114 55.5q-72 0 -112 -56t-40 -155q0 -98 40 -154t112 -56z" />
    <glyph glyph-name="guilsinglleft" unicode="&#x2039;" horiz-adv-x="728" 
d="M608 857l-300 -350l300 -350h-168l-300 350l300 350h168z" />
    <glyph glyph-name="guilsinglright" unicode="&#x203a;" horiz-adv-x="731" 
d="M590 507l-301 -350h-169l302 350l-302 350h169z" />
    <glyph glyph-name="fraction" unicode="&#x2044;" horiz-adv-x="681" 
d="M-44 0h-164l934 1383h163z" />
    <glyph glyph-name="Euro" unicode="&#x20ac;" horiz-adv-x="1330" 
d="M849 1317q-80 0 -150.5 -25t-131.5 -77.5t-104 -144.5t-60 -215h740l-42 -110h-706q-1 -17 -1 -53q0 -39 1 -57h673l-33 -110h-632q27 -238 140 -350t310 -112q177 0 321 101v-133q-144 -84 -331 -84q-521 0 -578 578h-162l38 110h117l-2 48q0 42 1 62h-106l38 110h79
q24 190 106.5 322t203.5 194t275 62q126 0 214 -34t159 -109l-76 -94q-60 66 -129.5 93.5t-171.5 27.5z" />
    <glyph glyph-name="trademark" unicode="&#x2122;" horiz-adv-x="1202" 
d="M541 1410v-114h-161v-344h-125v344h-163v114h449zM1095 1408v-456h-122l2 181l-68 -175h-108l-67 173l2 -179h-124v456h140l105 -278l103 278h137z" />
    <glyph glyph-name="partialdiff" unicode="&#x2202;" horiz-adv-x="1123" 
d="M541 102q163 0 245.5 131t88.5 411q-47 94 -123.5 138.5t-166.5 44.5q-157 0 -247 -104t-90 -276q0 -162 82 -253.5t211 -91.5zM528 1514q495 0 495 -851q0 -333 -122 -511t-364 -178q-191 0 -314.5 129.5t-123.5 338.5q0 230 133 372t349 142q173 0 288 -108
q-42 536 -347 536q-87 0 -151 -25t-135 -86l-79 100q84 75 172.5 108t198.5 33z" />
    <glyph glyph-name="emptyset" unicode="&#x2205;" horiz-adv-x="1729" 
d="M864 88q171 0 316 81.5t230 225t85 316.5q0 220 -134 387l-902 -866q176 -144 405 -144zM234 711q0 -218 135 -388l902 867q-175 145 -407 145q-171 0 -315.5 -81.5t-229.5 -225.5t-85 -317zM1528 1438l93 -88l-166 -160q175 -207 175 -479q0 -208 -103.5 -380.5
t-279 -270.5t-383.5 -98q-140 0 -268 47t-232 132l-163 -157l-93 87l167 161q-176 207 -176 479q0 155 61 294.5t164.5 239t244 157.5t295.5 58q139 0 268 -47t233 -132z" />
    <glyph glyph-name="product" unicode="&#x220f;" horiz-adv-x="1152" 
d="M1069 1253h-115v-1463h-143v1463h-471v-1463h-143v1463h-114v130h986v-130z" />
    <glyph glyph-name="summation" unicode="&#x2211;" horiz-adv-x="1151" 
d="M1077 -79v-131h-1008v106l554 712l-495 670v105h936v-130h-745l481 -647l-539 -685h816z" />
    <glyph glyph-name="minus" unicode="&#x2212;" horiz-adv-x="1069" 
d="M970 578h-871v125h871v-125z" />
    <glyph glyph-name="radical" unicode="&#x221a;" horiz-adv-x="1182" 
d="M1082 1555l-446 -1860h-137l-261 839h-139v125h237l223 -740l390 1636h133z" />
    <glyph glyph-name="infinity" unicode="&#x221e;" horiz-adv-x="2114" 
d="M600 102q65 0 124 23t112 72t90 136.5t49 204.5q-18 119 -56 206.5t-89.5 136.5t-108 72t-121.5 23q-69 0 -131.5 -28t-111.5 -81t-78 -138.5t-29 -191.5q0 -105 29 -189.5t78 -137t111.5 -80.5t131.5 -28zM1516 102q69 0 131 28t111.5 80.5t78.5 137t29 189.5
q0 208 -102.5 323.5t-247.5 115.5q-66 0 -125.5 -23t-113.5 -71.5t-91 -136t-48 -205.5q18 -119 56 -206t89.5 -136.5t109 -72.5t123.5 -23zM1516 1105q228 0 363.5 -159t135.5 -409q0 -248 -135.5 -405.5t-363.5 -157.5q-158 0 -275 81.5t-185 240.5q-131 -322 -456 -322
q-229 0 -365 157.5t-136 405.5q0 250 136 409t365 159q157 0 273.5 -81t184.5 -240q65 157 181.5 239t276.5 82z" />
    <glyph glyph-name="integral" unicode="&#x222b;" horiz-adv-x="712" 
d="M442 1506q107 0 171 -80l-67 -113q-24 41 -46.5 54t-57.5 13q-44 0 -71.5 -55t-27.5 -172q0 -148 79 -538q48 -243 65 -361.5t17 -214.5q0 -90 -19.5 -158.5t-53.5 -108t-74.5 -58.5t-86.5 -19q-109 0 -171 79l64 110q28 -39 51 -51.5t56 -12.5q44 0 72.5 55t28.5 172
q0 74 -16 185t-64 354q-49 256 -66 369t-17 208q0 173 67.5 258t166.5 85z" />
    <glyph glyph-name="approxequal" unicode="&#x2248;" horiz-adv-x="1155" 
d="M291 907q55 0 105 -17t131 -59q72 -37 105 -48.5t72 -11.5q60 0 95.5 26.5t79.5 102.5l97 -76q-98 -180 -274 -180q-54 0 -102 16.5t-133 60.5q-73 36 -106 47.5t-72 11.5q-59 0 -93 -25.5t-84 -100.5l-94 76q94 177 273 177zM291 573q55 0 105 -17t131 -59
q73 -36 106 -47.5t71 -11.5q60 0 95.5 26.5t79.5 101.5l97 -76q-97 -179 -274 -179q-55 0 -103 16.5t-132 59.5q-73 36 -106 47.5t-72 11.5q-59 0 -93 -25.5t-84 -100.5l-94 76q94 177 273 177z" />
    <glyph glyph-name="notequal" unicode="&#x2260;" horiz-adv-x="1099" 
d="M694 753l-140 -229h446v-124h-521l-125 -205h-149l126 205h-232v124h306l140 229h-446v123h521l124 206h149l-125 -206h232v-123h-306z" />
    <glyph glyph-name="lessequal" unicode="&#x2264;" horiz-adv-x="1069" 
d="M970 847l-675 -273l675 -271v-142l-871 360v106l871 359v-139zM99 124h871v-124h-871v124z" />
    <glyph glyph-name="greaterequal" unicode="&#x2265;" horiz-adv-x="1069" 
d="M970 627v-106l-871 -360v140l678 273l-678 273v139zM99 124h871v-124h-871v124z" />
    <glyph glyph-name="lozenge" unicode="&#x25ca;" horiz-adv-x="1036" 
d="M519 171l258 520l-260 520l-256 -519zM571 1383l349 -691l-349 -692h-106l-349 692l349 691h106z" />
    <glyph glyph-name="Gcommaaccent" horiz-adv-x="1569" 
d="M781 -33q-314 0 -498 197t-184 535q0 344 186 539.5t512 195.5q271 0 443.5 -136t203.5 -392h-128q-75 400 -519 400q-275 0 -423 -159t-148 -448q0 -287 148 -447.5t412 -160.5q225 0 361.5 118.5t157.5 328.5h-554v129h718v-667h-121l-14 250q-32 -54 -77.5 -101
t-112 -89.5t-160 -67.5t-203.5 -25zM741 -84h155l-141 -313h-129z" />
    <glyph glyph-name="Itilde" horiz-adv-x="462" 
d="M296 0h-131v1403h131v-1403zM125 1801q42 0 126 -27q66 -21 80 -21l-4 40h118q10 -76 -20.5 -117.5t-91.5 -41.5q-49 0 -127 26q-61 20 -81 20q2 0 2 -38h-113q-9 76 20.5 117.5t90.5 41.5z" />
    <glyph glyph-name="Imacron" horiz-adv-x="464" 
d="M297 0h-131v1403h131v-1403zM428 1640h-395v122h395v-122z" />
    <glyph glyph-name="Iogonek" horiz-adv-x="523" 
d="M219 50v1353h131v-1403h-57q-89 -15 -159 -93t-70 -171q0 -36 13.5 -50.5t42.5 -14.5q38 0 75 24.5t84 83.5v-159q-78 -70 -181 -70q-75 0 -125 40.5t-50 131.5q0 114 84.5 202t211.5 126z" />
    <glyph glyph-name="_Designova" horiz-adv-x="1401" 
d="M172 798q0 -108 42 -206t112.5 -168.5t168.5 -112.5t206 -42q143 0 264.5 70.5t192.5 192t71 265.5t-70.5 266t-191.5 192.5t-265 70.5t-266 -70.5t-193 -192t-71 -265.5zM360 903q8 0 12 -4q53 -20 107 -29q43 -4 76 3q24 4 49 13q4 0 10.5 3.5t7.5 3.5l-17 8.5t-17.5 9
t-15 10t-14.5 13.5h20q37 0 80 18q123 77 208 77q6 0 23 1.5t25 0.5q62 -4 94 -36q7 -5 31 -34v-2q-3 2 -6 2q-28 11 -52 11q-63 0 -104 -62q-6 -11 -15.5 -33.5t-12.5 -29.5q-5 -12 -15 -36.5t-19 -44.5t-17 -37q-31 -65 -69 -111q-28 -40 -84 -72t-111 -48h-6l26 23
q16 15 28 47q8 25 24.5 71t23.5 68q31 89 60 139v1q-1 -2 -4.5 -6t-5.5 -6q-8 -8 -10 -15q-21 -24 -35 -60q-3 -5 -9 -5q-110 5 -190 73q-1 1 -61 58q-5 7 -15 17zM699 197q-162 0 -300 81t-218.5 219.5t-80.5 300.5q1 122 48.5 233t128 191t191.5 127.5t233 47.5t233 -47.5
t191.5 -127.5t128 -191t47.5 -233q0 -163 -80.5 -301.5t-219.5 -219t-302 -80.5z" />
    <glyph glyph-name="_Origin" horiz-adv-x="1874" 
d="M585 504h-31v-30h31q24 0 24 14q0 16 -24 16zM589 449h-35v-31h35q24 0 24 16q0 15 -24 15zM841 499h-26v-43h26q28 0 28 21q0 22 -28 22zM1731 878h-1588v-625h1588v625zM1392 499h-26v-79h26q13 0 23 5q19 11 19 35q0 16 -5 21q-9 18 -37 18zM946 674q0 -18 11 -29.5
t28 -11.5q18 0 29 11.5t11 29.5q0 19 -11 30.5t-29 11.5q-17 0 -28 -11.5t-11 -30.5zM1128 714h-27v-44h27q28 0 28 22t-28 22zM363 1227h-70v-172h68q43 0 69 22t26 64q0 55 -44 75q-19 11 -49 11zM472 1119q0 -44 33 -58q13 -7 39 -7q35 0 54 17q9 12 12 22l-38 1
q-3 -9 -16 -13q-2 0 -5.5 -0.5t-6.5 -0.5q-22 0 -29 15q-5 8 -5 15h100v11q0 30 -18.5 47.5t-49.5 17.5q-43 0 -63 -32q-7 -18 -7 -35zM661 1094l-40 -1q6 -39 67 -39q39 0 57 20q7 10 7 21q0 26 -41 35l-28 5q-18 3 -18 13q0 12 23 12t23 -14l38 2q-7 38 -62 38
q-38 0 -54 -19q-8 -8 -8 -21q0 -28 41 -37l26 -5q19 -3 19 -12q0 -14 -23 -14q-24 0 -27 16zM809 1184h-41v-129h41v129zM767 1218q0 -7 7 -12.5t15 -5.5q9 0 15.5 5.5t6.5 12.5t-6.5 12.5t-15.5 5.5q-8 0 -15 -5.5t-7 -12.5zM827 1120q0 -29 16 -45.5t44 -16.5q21 0 33 10
q7 5 7 10h2v-23q0 -24 -30 -24q-18 0 -25 7q-2 1 -5 8l-37 -6q3 -15 20 -25t46 -10q43 0 62 22q10 10 10 27v130h-40v-21h-3q-4 13 -21 19q-10 4 -19 4q-35 0 -52 -29q-8 -16 -8 -37zM1033 1184h-40v-129h41v75q0 17 13 23q5 3 14 3q25 0 25 -25v-76h42v82q0 31 -24 42
q-11 7 -27 7q-31 0 -43 -25h-1v23zM1145 1119q0 -32 20 -48.5t52 -16.5q42 0 64 31q8 14 8 34q0 39 -33 59q-19 8 -39 8q-44 0 -63 -32q-9 -18 -9 -35zM1364 1093l-31 91h-43l51 -129h45l52 129h-42l-31 -91h-1zM1439 1092q0 -26 23 -34q9 -4 25 -4q21 0 34 9l8 11h2v-19h37
v88q0 19 -17 33q-22 10 -43 10q-35 0 -53 -18q-9 -7 -12 -20l39 -4q4 16 25 16t21 -16v-1q0 -7 -15 -10q-2 -1 -9 -1.5t-10 -0.5q-55 -4 -55 -39zM319 523v-128h-30v128h30zM370 474v-79h-31v128h25l64 -77v77h29v-128h-24zM592 395h-68v128h63q52 0 52 -32q0 -20 -18 -29
q2 0 2 -2q20 -7 20 -30q0 -35 -51 -35zM762 420v-25h-105v128h107v-24h-78v-27h70v-23h-70v-29h76zM815 432v-37h-31v128h59q24 0 40 -11.5t16 -34.5q0 -14 -7 -24q-11 -13 -21 -18l27 -40h-32l-25 37h-26zM1018 420v-25h-105v128h29v-103h76zM1069 523v-128h-30v128h30z
M1120 474v-79h-30v128h25l63 -77v77h31v-128h-25zM1227 413q0 17 19 17q7 0 12 -5t5 -12q0 -6 -5 -19l-11 -27h-18l9 30q-11 4 -11 16zM1393 395h-57v128h57q23 0 38 -8q33 -14 33 -55q0 -22 -9 -35q-16 -30 -62 -30zM1587 420v-25h-105v128h105v-24h-76v-27h69v-23h-69v-29
h76zM419 633v-23h-107v127h107v-23h-77v-28h70v-22h-70v-31h77zM470 688v-78h-30v127h25l64 -76v76h29v-127h-25zM621 610v104h-42v23h112v-23h-41v-104h-29zM779 610h-31l-44 127h32l29 -89l30 89h27l29 -90l31 90h28l-41 -127h-33l-28 87zM1731 211v1l-1631 -1v1150h1674
v-1149zM915 674q0 29 20.5 47.5t49.5 18.5q30 0 50.5 -18.5t20.5 -47.5t-20.5 -47.5t-49.5 -18.5t-50 18.5t-21 47.5zM1101 646v-36h-28v127h57q22 0 30 -3q26 -14 26 -42q0 -15 -7 -25q-6 -10 -21 -17l28 -40h-32l-25 36h-28zM1231 664v-54h-30v127h107v-23h-77v-28h69v-22
h-69zM1426 633v-23h-107v127h107v-23h-77v-28h69v-22h-69v-31h77zM1476 688v-78h-28v127h22l66 -76v76h29v-127h-25zM359 1087h-26v108h27q37 0 49 -23q7 -19 7 -31q0 -36 -26 -48q-10 -6 -31 -6zM572 1133h-62q1 12 15 22q8 5 17 5q21 0 26 -16q4 -5 4 -11zM869 1120
q0 24 12 33q10 5 18 5q19 0 28 -19q0 -2 1.5 -8.5t1.5 -10.5q0 -36 -31 -36q-18 0 -28 18q-2 10 -2 18zM1187 1120q0 24 13 33q6 5 17 5q30 0 30 -38q0 -24 -13 -34q-8 -5 -17 -5q-19 0 -28 20q-2 10 -2 19zM1477 1093q0 7 12 14q4 2 12 2q19 2 28 6v-13q0 -15 -15 -21
q-12 -3 -16 -3q-21 0 -21 15z" />
    <glyph glyph-name="_Typeface" horiz-adv-x="2648" 
d="M417 795h-28l-128 -321h31l36 89h151l35 -89h33zM606 709h-25v-235h31v111q0 46 24 72t65 22l-2 29q-58 4 -89 -42zM829 469q43 0 74 24.5t35 63.5h-32q-2 -27 -24 -43t-53 -16q-38 0 -59 22.5t-23 63.5h193v14l-1 7q-3 46 -33 75t-74 29q-51 0 -83 -33.5t-34 -83.5
q-1 -51 29.5 -87t84.5 -36zM1004 709h-23v-235h29v111q0 43 22.5 68.5t59.5 25.5t52 -21.5t15 -65.5v-118h30v118q0 117 -98 117q-55 0 -82 -43zM1301 469q60 0 86 37l4 -31h25v166q-3 70 -80 70h-16q-38 0 -62.5 -23.5t-22.5 -58.5h30q1 26 16.5 39.5t38.5 13.5h16
q46 0 50 -45v-22h-14q-147 0 -147 -80q0 -32 21 -49t55 -17zM1737 461q65 0 100 37.5t35 107.5v182h-29v-182q0 -116 -106 -116q-50 0 -77 29.5t-27 86.5v182h-30v-182q0 -68 36 -106.5t98 -38.5zM1942 709h-23v-235h29v111q0 43 22.5 68.5t59.5 25.5t52 -21.5t15 -65.5
v-118h30v118q0 117 -98 117q-55 0 -82 -43zM2278 470q53 0 81.5 32.5t28.5 85.5q0 55 -29 87.5t-81 32.5t-81.5 -32t-29.5 -88q0 -54 29.5 -86t81.5 -32zM403 750l63 -157h-125zM908 612h-158q6 30 28.5 49t53.5 19q32 0 52 -20.5t24 -47.5zM1305 497q-47 0 -47 39
q0 37 63 49q30 3 65 2v-20q0 -70 -81 -70zM2548 895v-540h-2448v540h2448zM2278 500q-42 0 -61 25.5t-19 62.5q0 90 80 90q79 0 79 -90q0 -40 -19.5 -64t-59.5 -24z" />
    <glyph glyph-name="_VendorID" horiz-adv-x="1106" 
d="M116 59q0 -16 12 -16q14 0 14 16v1q0 16 -13 16t-13 -17zM176 62h23q-3 14 -11 14q-11 0 -12 -14zM302 60q0 -17 12 -17q14 0 14 16v1q0 16 -14 16q-12 0 -12 -16zM419 59q0 -16 12 -16q14 0 14 16q0 17 -14 17q-12 0 -12 -17zM529 48q0 -5 8 -5q11 0 11 8v6
q-19 2 -19 -9zM613 59q0 -16 13 -16q12 0 12 16q0 17 -12 17q-13 0 -13 -17zM882 59q0 -16 14 -16q12 0 12 16q0 17 -12 17q-14 0 -14 -17zM255 423q0 -56 39.5 -96t96.5 -40q56 0 94.5 39.5t38.5 96.5q0 58 -37.5 96.5t-95.5 38.5q-11 0 -22 -3l79 112h-60l-90 -128
q-43 -60 -43 -116zM580 423q0 -57 39.5 -96.5t95.5 -39.5t94.5 39.5t38.5 96.5t-38 96t-95 39q-13 0 -23 -3l80 112h-61l-90 -128q-41 -58 -41 -116zM255 861q0 -56 39.5 -95t96.5 -39q56 0 94.5 39t38.5 95q0 58 -37.5 96.5t-95.5 38.5q-15 0 -22 -2l79 114h-60l-90 -132
q-43 -62 -43 -115zM580 861q0 -56 39.5 -95t95.5 -39t94.5 39t38.5 95q0 58 -38 96.5t-95 38.5q-16 0 -24 -2l81 114h-61l-90 -132q-41 -62 -41 -115zM103 59q0 12 7 19t17 7q8 0 11 -3l4 -5v24h12v-67h-12v9l-4 -7q-6 -4 -14 -4q-21 0 -21 27zM163 59q0 11 7 18.5t18 7.5
q10 0 17 -7t7 -18q0 -2 -2 -5h-34q1 -12 12 -12q9 0 11 8h11q-3 -19 -22 -19q-25 0 -25 27zM216 48h13q3 -8 8 -8q9 0 9 7q0 2 -11 8q-17 5 -17 15q0 15 19 15q20 0 20 -15h-13q-2 6 -7 6q-6 0 -6 -5q0 -4 11 -9q16 -3 16 -14q0 -16 -21 -16q-18 0 -21 16zM265 95q0 6 8 6
q7 0 7 -6q0 -8 -7 -8q-8 0 -8 8zM279 85v-51h-13v51h13zM289 31v1h13v-1q0 -8 12 -8q10 0 14 12v8l-4 -7q-8 -2 -13 -2q-22 0 -22 25q0 26 24 26q8 0 11 -3l4 -5v8h13v-38q0 -8 -2 -11q0 -22 -25 -22t-25 17zM364 57v-23h-13v51h13v-10l4 7q4 3 12 3q14 0 18 -14q1 -3 1 -9
v-28h-14v32q0 10 -9 10q-12 0 -12 -19zM406 59q0 11 7 18.5t18 7.5q26 0 26 -26q0 -27 -26 -27q-11 0 -18 7.5t-7 19.5zM495 34h-17l-17 51h14l13 -42l12 42h13zM517 48q0 15 28 15h3v7q0 6 -8 6q-11 0 -11 -8h-12q0 17 23 17q17 0 19 -14v-37h-11v6l-3 -5q-6 -3 -13 -3
q-15 0 -15 16zM573 34v40h-5v9h5v7q0 14 18 14h5v-10q-10 2 -10 -5v-6h10v-9h-10v-40h-13zM600 59q0 26 26 26q25 0 25 -26q0 -27 -25 -27q-26 0 -26 27zM671 57v-23h-11v51h11v-10l5 7q4 3 12 3q14 0 18 -14v-37h-13v32q-3 10 -8 10q-14 0 -14 -19zM720 43v31h-7v9h7v12h13
v-12h9v-9h-9v-26q2 -9 8 -5v-10h-7q-14 0 -14 10zM746 48h14q2 -8 9 -8q8 0 8 7q0 2 -11 8q-16 4 -16 15q0 15 18 15t23 -15h-15q0 6 -9 6q-4 0 -4 -5t10 -9q18 -4 18 -14q0 -16 -22 -16q-19 0 -23 16zM794 39q0 9 9 9q8 0 8 -9q0 -7 -8 -7q-9 0 -9 7zM817 59q0 11 7.5 18.5
t16.5 7.5q23 0 23 -19h-12q-3 10 -11 10q-11 0 -11 -17q0 -16 11 -16q9 0 11 8h12q-1 -19 -23 -19q-24 0 -24 27zM869 59q0 26 27 26q24 0 24 -26q0 -27 -24 -27q-27 0 -27 27zM942 60v-26h-13v51h13v-9l5 6q3 3 8 3q12 0 17 -10l5 7q3 3 10 3q16 0 16 -12q1 -3 1 -11v-28
h-12v26q0 16 -11 16q-8 0 -8 -16v-26h-12v34q-5 8 -9 8q-10 0 -10 -16zM305 423q0 37 24 60.5t62 23.5q36 0 60 -23.5t24 -60.5q0 -39 -24 -63t-60 -24q-38 0 -62 24t-24 63zM629 423q0 37 24 60.5t62 23.5q36 0 58.5 -23.5t22.5 -60.5q0 -39 -22.5 -63t-58.5 -24
q-38 0 -62 24t-24 63zM305 861q0 39 24 62.5t62 23.5q36 0 60 -24.5t24 -61.5t-24 -61.5t-60 -24.5q-38 0 -62 24t-24 62zM1006 1247v-1104h-906v1104h906zM629 861q0 38 24 62t62 24q36 0 58.5 -24t22.5 -62t-22.5 -62t-58.5 -24q-38 0 -62 24t-24 62z" />
    </font>
</defs>
</svg>
