<?xml version="1.0" standalone="no"?>
<!DOCTYPE svg PUBLIC "-//W3C//DTD SVG 1.1//EN" "http://www.w3.org/Graphics/SVG/1.1/DTD/svg11.dtd" >
<svg xmlns="http://www.w3.org/2000/svg" xmlns:xlink="http://www.w3.org/1999/xlink" version="1.1">
<metadata>
Created by FontForge 20201107 at Tue Aug 12 14:40:41 2025
 By 
Copyright \(c\) 2025 by Designova\(R\). All rights reserved.
</metadata>
<defs>
<font id="ArenaUno-Italic" horiz-adv-x="0" >
  <font-face 
    font-family="Arena Uno"
    font-weight="400"
    font-style="italic"
    font-stretch="normal"
    units-per-em="2048"
    panose-1="0 0 0 0 0 0 0 0 0 0"
    ascent="1638"
    descent="-410"
    x-height="1031"
    cap-height="1403"
    bbox="-235 -541 2573 1897"
    underline-thickness="100"
    underline-position="-175"
    slope="-9"
    unicode-range="U+000D-25CA"
  />
<missing-glyph horiz-adv-x="1608" 
d="M446 294l-21 -129h31l13 83h1l49 -83h29l21 129h-31l-13 -81h-2l-51 81h-26zM569 213q-4 -28 18 -43q16 -6 28 -6q31 0 52 23q7 10 10 26q5 30 -18 44q-12 6 -28 6q-37 0 -52 -24q-9 -12 -10 -26zM730 230q-6 -41 23 -59q17 -7 36 -7q27 0 47 14.5t24 39.5l2 17h-59
l-3 -21h31q-3 -16 -20 -22q-5 -4 -18 -4q-24 0 -30 19q-4 7 -2 23q5 28 24 38q15 5 20 5q28 0 28 -21h31q1 18 -15 33q-16 11 -40 11q-64 0 -79 -66zM890 294l-21 -129h29l21 129h-29zM956 263h-33l24 -99l-3 -5q-4 -11 -23 -7l-10 -19q10 -4 19 -4q19 0 35 14q5 3 10 13
l58 107h-31l-34 -71h-2zM1043 263l-22 -134h31l9 52q4 -10 15 -14q3 -3 13 -3q43 0 53 49q5 31 -14 45q-13 5 -23 5q-18 0 -27 -9q-6 -4 -7 -9h-1l3 18h-30zM1170 294l-21 -129h28l9 56q2 14 14 18q4 3 11 3q19 0 16 -19l-9 -58h31l10 62q3 24 -14 33q-12 3 -18 3
q-25 0 -37 -18h-1l8 49h-27zM818 811l-348 -301l98 -114l346 298l257 -298l136 114l-254 301l344 301l-95 114l-351 -299l-250 299l-136 -114zM599 213q2 15 15 26q4 4 13 4q16 0 19 -14q1 -7 0 -16q-3 -17 -14 -25q-10 -2 -14 -2q-17 0 -17 14q-4 5 -2 13zM1065 213
q3 17 14 25q5 5 12 5q17 0 19 -14q2 -10 1 -16q-3 -15 -14 -25q-8 -2 -15 -2q-14 0 -17 14q-1 6 0 13zM1419 -1h-1224l218 1378h1224z" />
    <glyph glyph-name=".notdef" horiz-adv-x="1608" 
d="M446 294l-21 -129h31l13 83h1l49 -83h29l21 129h-31l-13 -81h-2l-51 81h-26zM569 213q-4 -28 18 -43q16 -6 28 -6q31 0 52 23q7 10 10 26q5 30 -18 44q-12 6 -28 6q-37 0 -52 -24q-9 -12 -10 -26zM730 230q-6 -41 23 -59q17 -7 36 -7q27 0 47 14.5t24 39.5l2 17h-59
l-3 -21h31q-3 -16 -20 -22q-5 -4 -18 -4q-24 0 -30 19q-4 7 -2 23q5 28 24 38q15 5 20 5q28 0 28 -21h31q1 18 -15 33q-16 11 -40 11q-64 0 -79 -66zM890 294l-21 -129h29l21 129h-29zM956 263h-33l24 -99l-3 -5q-4 -11 -23 -7l-10 -19q10 -4 19 -4q19 0 35 14q5 3 10 13
l58 107h-31l-34 -71h-2zM1043 263l-22 -134h31l9 52q4 -10 15 -14q3 -3 13 -3q43 0 53 49q5 31 -14 45q-13 5 -23 5q-18 0 -27 -9q-6 -4 -7 -9h-1l3 18h-30zM1170 294l-21 -129h28l9 56q2 14 14 18q4 3 11 3q19 0 16 -19l-9 -58h31l10 62q3 24 -14 33q-12 3 -18 3
q-25 0 -37 -18h-1l8 49h-27zM818 811l-348 -301l98 -114l346 298l257 -298l136 114l-254 301l344 301l-95 114l-351 -299l-250 299l-136 -114zM599 213q2 15 15 26q4 4 13 4q16 0 19 -14q1 -7 0 -16q-3 -17 -14 -25q-10 -2 -14 -2q-17 0 -17 14q-4 5 -2 13zM1065 213
q3 17 14 25q5 5 12 5q17 0 19 -14q2 -10 1 -16q-3 -15 -14 -25q-8 -2 -15 -2q-14 0 -17 14q-1 6 0 13zM1419 -1h-1224l218 1378h1224z" />
    <glyph glyph-name=".null" 
 />
    <glyph glyph-name="uni000D" unicode="&#xd;" horiz-adv-x="512" 
 />
    <glyph glyph-name="space" unicode=" " horiz-adv-x="668" 
 />
    <glyph glyph-name="space" unicode="&#xa0;" horiz-adv-x="668" 
 />
    <glyph glyph-name="exclam" unicode="!" horiz-adv-x="430" 
d="M166 244l168 1139h159l-192 -1139h-135zM219 159q40 0 63.5 -26.5t17.5 -65.5q-7 -40 -38 -66.5t-72 -26.5q-39 0 -63 26.5t-17 66.5q6 39 38.5 65.5t70.5 26.5z" />
    <glyph glyph-name="quotedbl" unicode="&#x22;" horiz-adv-x="267" 
d="M258 935l74 534h146l-93 -534h-127zM435 935l74 534h146l-94 -534h-126z" />
    <glyph glyph-name="numbersign" unicode="#" horiz-adv-x="1516" 
d="M665 808l-85 -216h492l85 216h-492zM350 0h-145l180 458h-213l21 134h243l85 216h-232l22 136h262l178 456h145l-178 -456h491l178 456h144l-178 -456h213l-22 -136h-243l-85 -216h232l-21 -134h-262l-179 -458h-145l179 458h-491z" />
    <glyph glyph-name="dollar" unicode="$" horiz-adv-x="1138" 
d="M669 106q115 15 185 75t85 154q15 95 -31.5 160t-159.5 108zM472 1035q-16 -100 29 -157t146 -93l78 488q-99 -16 -168 -77.5t-85 -160.5zM772 755q365 -116 317 -412q-23 -145 -142.5 -247t-298.5 -120l-23 -147h-129l23 147q-180 18 -280 131.5t-74 306.5h146
q-15 -130 46 -208.5t183 -95.5l84 526q-75 23 -131.5 53t-102.5 76t-64 113t-5 151q25 157 143.5 257t281.5 119l23 150h129l-23 -148q175 -19 254.5 -138.5t64.5 -290.5h-146q12 128 -37.5 205.5t-156.5 93.5z" />
    <glyph glyph-name="percent" unicode="%" horiz-adv-x="1421" 
d="M620 1408q135 0 200.5 -95t42.5 -242q-23 -144 -119.5 -240.5t-230.5 -96.5q-137 0 -202 96t-42 241q23 147 118.5 242t232.5 95zM163 0l1150 1383h164l-1152 -1383h-162zM600 1282q-74 0 -122 -55.5t-64 -155.5q-16 -99 15 -154.5t104 -55.5q72 0 121.5 56t65.5 154
q15 99 -16.5 155t-103.5 56zM1125 647q136 0 202.5 -95t42.5 -242q-23 -145 -119.5 -240.5t-231.5 -95.5q-136 0 -201.5 96t-42.5 240q23 147 118.5 242t231.5 95zM1106 521q-73 0 -121.5 -55.5t-64.5 -155.5q-15 -99 15.5 -154.5t103.5 -55.5q72 0 121 56t64 154
q16 100 -15 155.5t-103 55.5z" />
    <glyph glyph-name="ampersand" unicode="&#x26;" horiz-adv-x="1585" 
d="M614 108q228 0 394 152q-110 96 -220.5 224.5t-184.5 239.5q-132 -64 -209.5 -138.5t-94.5 -180.5q-30 -196 152 -267q77 -30 163 -30zM684 855q40 16 90 43q98 49 168.5 113.5t81.5 130.5q9 61 -23.5 99.5t-96.5 51.5q-32 5 -55 5q-90 0 -162 -47t-86 -132
q-16 -105 71 -269zM1104 184q-105 -99 -240 -153t-278 -54q-117 0 -215 40q-115 48 -173 146t-36 236q12 76 47.5 140t91.5 114t113 86.5t133 74.5q-93 183 -74 312q23 143 134.5 223t252.5 80q145 0 230 -77.5t65 -202.5q-9 -55 -44.5 -108.5t-78 -91.5t-105 -77.5
t-102.5 -60.5t-92 -45q62 -91 170.5 -207.5t201.5 -192.5q103 147 135 318h128q-12 -87 -58 -197.5t-110 -195.5q92 -71 156.5 -110.5t145.5 -70.5l-68 -121q-88 32 -157.5 74.5t-172.5 120.5z" />
    <glyph glyph-name="quotesingle" unicode="'" horiz-adv-x="344" 
d="M255 935l77 534h145l-95 -534h-127z" />
    <glyph glyph-name="parenleft" unicode="(" horiz-adv-x="650" 
d="M775 1555q-149 -176 -251 -397t-140 -457q-36 -239 -4 -459t125 -395h-141q-89 159 -119.5 388.5t6.5 465.5q37 235 140.5 465t242.5 389h141z" />
    <glyph glyph-name="parenright" unicode=")" horiz-adv-x="652" 
d="M507 1555q89 -159 120 -388t-6 -466q-37 -234 -141 -464.5t-243 -389.5h-141q150 175 252.5 397t139.5 457q37 241 5 460t-127 394h141z" />
    <glyph glyph-name="asterisk" unicode="*" horiz-adv-x="965" 
d="M941 730l20 -126l-315 -89l173 -270l-124 -74l-158 280l-245 -280l-101 74l259 270l-287 89l59 126l284 -107l45 348h137l-64 -348z" />
    <glyph glyph-name="plus" unicode="+" horiz-adv-x="1069" 
d="M690 576l-65 -411h-129l65 411h-371l20 125h371l65 411h129l-65 -411h371l-20 -125h-371z" />
    <glyph glyph-name="comma" unicode="," horiz-adv-x="529" 
d="M202 -223h-138l190 373h158z" />
    <glyph glyph-name="hyphen" unicode="-" horiz-adv-x="765" 
d="M221 509l19 125h483l-19 -125h-483z" />
    <glyph glyph-name="period" unicode="." horiz-adv-x="430" 
d="M219 159q40 0 63.5 -26.5t17.5 -65.5q-7 -40 -38 -66.5t-72 -26.5q-39 0 -63 26.5t-17 66.5q6 39 38.5 65.5t70.5 26.5z" />
    <glyph glyph-name="slash" unicode="/" horiz-adv-x="855" 
d="M90 -57l759 1498h134l-758 -1498h-135z" />
    <glyph glyph-name="zero" unicode="0" horiz-adv-x="1152" 
d="M799 1405q106 0 184.5 -35.5t125 -98t69 -153.5t22 -196t-20.5 -230q-20 -126 -53 -231t-84 -195.5t-117.5 -153t-155.5 -98t-196 -35.5q-106 0 -184 35.5t-124.5 98.5t-69.5 153.5t-22.5 195.5t20.5 230q25 158 72 284.5t119.5 224.5t178 151t236.5 53zM592 99
q351 0 446 593q93 593 -258 593q-354 0 -447 -593q-95 -593 259 -593z" />
    <glyph glyph-name="one" unicode="1" horiz-adv-x="885" 
d="M698 5h-120l198 1251h-390l19 122h510z" />
    <glyph glyph-name="two" unicode="2" horiz-adv-x="1195" 
d="M1050 5h-945l14 87l561 463q205 168 285 263.5t96 193.5q19 120 -43.5 196.5t-197.5 76.5q-136 0 -235.5 -83t-138.5 -228l-12 -44h-133l13 51q52 195 196.5 309.5t333.5 114.5q135 0 223.5 -53.5t120.5 -139.5t15 -194q-21 -131 -123.5 -253t-321.5 -299l-419 -341h730z
" />
    <glyph glyph-name="three" unicode="3" horiz-adv-x="1133" 
d="M927 725q106 -41 154.5 -126.5t28.5 -211.5q-19 -124 -100 -218t-198.5 -142t-253.5 -48q-198 0 -306.5 107.5t-98.5 313.5l2 51h133l-2 -44q-6 -143 70.5 -225.5t224.5 -82.5q153 0 259.5 75.5t127.5 210.5q19 121 -59.5 191t-261.5 70h-62l19 120h62q85 0 166 32
t141.5 96t73.5 145q18 119 -48.5 182.5t-191.5 63.5q-134 0 -232 -75.5t-134 -212.5l-12 -44h-133l13 51q49 186 191.5 293.5t330.5 107.5q193 0 287 -100.5t69 -257.5q-17 -105 -87.5 -190.5t-172.5 -131.5z" />
    <glyph glyph-name="four" unicode="4" horiz-adv-x="1282" 
d="M996 1156q-94 -101 -135 -143l-491 -518h521zM1194 375h-190l-58 -370h-132l58 370h-709l13 80l876 923h111l-140 -883h190z" />
    <glyph glyph-name="five" unicode="5" horiz-adv-x="1179" 
d="M726 898q139 0 233 -61t129.5 -163.5t14.5 -231.5q-22 -141 -107 -248.5t-202 -161t-246 -53.5q-86 0 -157.5 23t-126 69.5t-83 123t-23.5 176.5l3 52h133l-2 -44q-3 -129 67.5 -204.5t207.5 -75.5q142 0 255 88t139 251q25 156 -47.5 247.5t-216.5 91.5
q-237 0 -363 -211h-126l257 806h768l-19 -120h-657l-149 -454q151 100 318 100z" />
    <glyph glyph-name="six" unicode="6" horiz-adv-x="1128" 
d="M570 99q156 0 267.5 100t135.5 252q26 163 -48 266t-231 103q-146 0 -261 -96t-139 -246q-26 -165 47 -272t229 -107zM723 940q146 0 244 -66t134 -174.5t15 -242.5q-32 -204 -192.5 -341t-374.5 -137q-229 0 -330.5 153.5t-49.5 477.5q64 403 233.5 599t413.5 196
q184 0 274 -95.5t94 -267.5l4 -53h-135l-5 42q-6 130 -68 192t-186 62q-73 0 -135.5 -23t-124 -78t-113 -158.5t-88.5 -252.5q164 167 390 167z" />
    <glyph glyph-name="seven" unicode="7" horiz-adv-x="1096" 
d="M1241 1308l-931 -1303h-148l896 1253h-797l19 120h972z" />
    <glyph glyph-name="eight" unicode="8" horiz-adv-x="1183" 
d="M611 97q90 0 170.5 29.5t140.5 94.5t74 154q20 128 -53 205t-239 77q-169 0 -274.5 -78.5t-125.5 -203.5q-14 -90 25.5 -154.5t112.5 -94t169 -29.5zM474 1031q-19 -122 55 -188t200 -66q127 0 222.5 66t114.5 188q19 116 -48.5 185t-207.5 69q-139 0 -228 -69t-108 -185
zM969 723q100 -47 144 -137t25 -209q-16 -97 -68.5 -175t-129 -126.5t-167 -73.5t-186.5 -25q-137 0 -238.5 43t-153.5 135t-31 222q18 118 98 209t202 138q-79 45 -113 124.5t-18 182.5q26 162 161 268t335 106q206 0 304 -105.5t72 -268.5q-16 -103 -78.5 -183.5
t-157.5 -124.5z" />
    <glyph glyph-name="nine" unicode="9" horiz-adv-x="1139" 
d="M651 564q146 0 260 95.5t138 246.5q26 165 -45.5 272t-227.5 107q-158 0 -269.5 -100.5t-135.5 -252.5q-26 -162 49 -265t231 -103zM795 1405q231 0 332.5 -154t49.5 -478q-62 -395 -232.5 -594.5t-413.5 -199.5q-185 0 -276 96t-96 269l4 52h133l1 -42
q6 -130 69.5 -192.5t187.5 -62.5q325 0 454 510q-159 -165 -386 -165q-110 0 -194 38.5t-131.5 104.5t-65 153t-1.5 186q32 204 192 341.5t373 137.5z" />
    <glyph glyph-name="colon" unicode=":" horiz-adv-x="430" 
d="M368 1099q41 0 64 -26.5t16 -66.5q-6 -39 -37.5 -66t-71.5 -27q-39 0 -63 27.5t-18 65.5q7 40 39.5 66.5t70.5 26.5zM219 159q40 0 63.5 -26.5t17.5 -65.5q-7 -40 -38 -66.5t-72 -26.5q-39 0 -63 26.5t-17 66.5q6 39 38.5 65.5t70.5 26.5z" />
    <glyph glyph-name="semicolon" unicode=";" horiz-adv-x="541" 
d="M477 1099q41 0 64.5 -26.5t16.5 -66.5q-6 -39 -37.5 -66t-72.5 -27q-38 0 -62.5 27.5t-18.5 65.5q7 40 39 66.5t71 26.5zM205 -223h-141l191 379h161z" />
    <glyph glyph-name="less" unicode="&#x3c;" horiz-adv-x="1061" 
d="M374 541l624 -316l-23 -143l-799 405l17 104l927 407l-23 -143z" />
    <glyph glyph-name="equal" unicode="=" horiz-adv-x="1099" 
d="M218 753l20 123h901l-20 -123h-901zM162 400l20 124h901l-20 -124h-901z" />
    <glyph glyph-name="greater" unicode="&#x3e;" horiz-adv-x="1061" 
d="M1039 487l-927 -405l22 141l726 316l-626 314l23 145l799 -407z" />
    <glyph glyph-name="question" unicode="?" horiz-adv-x="1120" 
d="M779 1410q198 0 294 -106.5t70 -268.5q-31 -201 -263 -389q-100 -80 -147.5 -136.5t-68 -111t-35.5 -154.5h-139q14 89 29 143t47 110.5t81 106.5t132 119q102 88 151 159.5t62 152.5q18 115 -44.5 180t-188.5 65q-147 0 -242 -89.5t-125 -248.5h-144q28 206 177.5 337
t353.5 131zM548 159q39 0 63 -26.5t18 -65.5q-7 -40 -39 -66.5t-71 -26.5q-41 0 -64.5 26.5t-16.5 66.5q6 39 37.5 65.5t72.5 26.5z" />
    <glyph glyph-name="at" unicode="@" horiz-adv-x="1725" 
d="M1141 637q39 102 14.5 163t-100.5 61q-123 0 -232 -117t-135 -281q-32 -207 121 -207q81 0 161 76t141 229zM1226 487q-34 -88 -41 -133q-7 -42 14.5 -64t73.5 -22q109 0 203 108.5t123 290.5q40 254 -91 398t-380 144q-98 0 -202.5 -30.5t-204.5 -91t-183.5 -144
t-143.5 -197.5t-80 -243q-22 -139 6 -250t96 -181.5t163.5 -107.5t209.5 -37q154 0 285.5 40t285.5 138l47 -110q-183 -112 -329.5 -153t-310.5 -41q-106 0 -202 27.5t-177 82.5t-135 138.5t-76 196t1 253.5q24 152 94.5 287t169.5 233.5t219 170t247.5 107.5t250.5 36
q198 0 339.5 -83t203.5 -233t31 -342q-20 -128 -71 -231.5t-119.5 -168t-146 -98.5t-155.5 -34q-68 0 -121 26.5t-73 83.5l4 6q-132 -131 -280 -131q-51 0 -95.5 16t-83 51t-54.5 102t-2 158q22 139 99.5 261t196 197.5t246.5 75.5q125 0 173 -80l19 46h145z" />
    <glyph glyph-name="A" unicode="A" horiz-adv-x="1451" 
d="M917 1213l-387 -690h553zM885 1410h122l344 -1410h-142l-94 390h-659l-219 -390h-138z" />
    <glyph glyph-name="B" unicode="B" horiz-adv-x="1358" 
d="M345 661l-85 -534h441q49 0 82.5 1t83.5 6.5t84 15t74 28t66.5 45t47.5 66.5t29 91q11 71 -6.5 123t-54 81.5t-97.5 47.5t-122.5 23.5t-142.5 5.5h-400zM443 1281l-78 -491h400q159 0 224 12q175 33 214 182q4 17 7 35q14 86 -5.5 140.5t-76 80t-119 33.5t-164.5 8h-402z
M107 0l223 1410h535q194 0 307 -40q220 -85 178 -351q-12 -81 -58 -157q-54 -90 -175 -133q233 -80 189 -349q-14 -92 -58 -161.5t-103 -110.5t-139.5 -66t-157 -33.5t-167.5 -8.5h-574z" />
    <glyph glyph-name="C" unicode="C" horiz-adv-x="1568" 
d="M789 -23q-195 0 -339 82q-150 85 -214 249.5t-27 397.5q24 154 81.5 277.5t135.5 206.5t177 139t205 80.5t222 24.5q261 0 411 -143t148 -409h-138q-1 205 -115.5 316t-325.5 111q-266 0 -443 -156t-223 -447q-47 -295 78 -450t387 -155q230 0 381.5 110.5t212.5 309.5
h139q-78 -265 -276 -404.5t-477 -139.5z" />
    <glyph glyph-name="D" unicode="D" horiz-adv-x="1450" 
d="M478 1282l-183 -1155h254q141 0 247.5 15t202.5 53.5t162.5 103t114.5 166.5t70 241q45 286 -115.5 431t-498.5 145h-254zM140 0l223 1410h389q258 0 433.5 -79.5t254.5 -239t43 -385.5q-81 -516 -512 -648q-195 -58 -442 -58h-389z" />
    <glyph glyph-name="E" unicode="E" horiz-adv-x="1273" 
d="M140 0l223 1410h991l-20 -129h-856l-80 -503h704l-20 -130h-704l-83 -521h878l-20 -127h-1013z" />
    <glyph glyph-name="F" unicode="F" horiz-adv-x="1168" 
d="M140 0l223 1410h991l-20 -129h-856l-80 -503h704l-20 -130h-704l-103 -648h-135z" />
    <glyph glyph-name="G" unicode="G" horiz-adv-x="1569" 
d="M776 -33q-315 0 -467.5 197t-98.5 535q54 344 271 539.5t543 195.5q178 0 306 -59t195.5 -178.5t61.5 -290.5h-128q-6 202 -119.5 301t-335.5 99q-275 0 -448.5 -159t-218.5 -448q-46 -287 76.5 -447.5t386.5 -160.5q225 0 380.5 118.5t209.5 328.5h-554l21 129h718
l-106 -667h-121l26 250q-41 -54 -94 -101t-126 -89.5t-170.5 -67.5t-207.5 -25z" />
    <glyph glyph-name="H" unicode="H" horiz-adv-x="1399" 
d="M140 0l223 1410h134l-97 -613h854l97 613h130l-223 -1410h-130l106 671h-854l-106 -671h-134z" />
    <glyph glyph-name="I" unicode="I" horiz-adv-x="476" 
d="M172 0l222 1403h131l-222 -1403h-131z" />
    <glyph glyph-name="J" unicode="J" horiz-adv-x="1374" 
d="M288 639q-50 -265 49 -405t323 -140q463 0 544 512l127 804h127l-127 -804q-49 -307 -227.5 -473t-463.5 -166q-284 0 -412 178.5t-70 493.5h130z" />
    <glyph glyph-name="K" unicode="K" horiz-adv-x="1363" 
d="M140 -2l223 1412h136l-114 -721l918 721h212l-803 -626l594 -784h-193l-513 697l-244 -190l-80 -509h-136z" />
    <glyph glyph-name="L" unicode="L" horiz-adv-x="1253" 
d="M363 1410h133l-203 -1286h860l-20 -124h-993z" />
    <glyph glyph-name="M" unicode="M" horiz-adv-x="1634" 
d="M272 0h-132l223 1405h122l354 -1258l749 1258h127l-223 -1405h-131l171 1081l-646 -1081h-147l-298 1065z" />
    <glyph glyph-name="N" unicode="N" horiz-adv-x="1342" 
d="M140 0l222 1404h120l630 -1165l184 1165h127l-222 -1404h-114l-632 1175l-186 -1175h-129z" />
    <glyph glyph-name="O" unicode="O" horiz-adv-x="1586" 
d="M786 -33q-331 0 -480.5 197t-95.5 537q54 342 264.5 537.5t543.5 195.5q224 0 367 -91t195 -254.5t17 -387.5q-54 -343 -268.5 -538.5t-542.5 -195.5zM806 94q273 0 442.5 158.5t215.5 448.5q47 295 -71 450t-395 155q-276 0 -443 -155t-214 -450q-47 -294 72 -450.5
t393 -156.5z" />
    <glyph glyph-name="P" unicode="P" horiz-adv-x="1260" 
d="M476 1281l-97 -614h402q181 0 280 74t124 230q26 162 -47.5 236t-259.5 74h-402zM273 0h-133l223 1410h535q239 0 344.5 -111.5t71.5 -327.5q-34 -210 -178.5 -323.5t-375.5 -113.5h-402z" />
    <glyph glyph-name="Q" unicode="Q" horiz-adv-x="1586" 
d="M806 94q273 0 442.5 158.5t215.5 448.5q47 295 -71 450t-395 155q-276 0 -443 -155t-214 -450q-47 -294 72 -450.5t393 -156.5zM786 -33q-331 0 -480.5 197t-95.5 537q54 342 264.5 537.5t543.5 195.5q224 0 367 -91t195 -254.5t17 -387.5q-56 -353 -280 -549
q79 -27 167 -115l-98 -97q-68 59 -118.5 81.5t-112.5 24.5q-164 -79 -369 -79z" />
    <glyph glyph-name="R" unicode="R" horiz-adv-x="1322" 
d="M478 1281l-87 -551h416q202 0 300 61.5t122 212.5q12 77 -2 129.5t-42.5 81.5t-89.5 44t-116 18.5t-148 3.5h-353zM275 0h-135l223 1410h488q187 0 299 -32q128 -36 181.5 -126.5t28.5 -247.5q-18 -113 -84 -203.5t-171 -133.5q31 -17 53.5 -40.5t36 -55t22 -64t10 -75.5
t0.5 -79.5t-7 -87t-11 -87t-13.5 -91t-12.5 -87.5h-127q15 92 22.5 147t14 122t4.5 106t-9.5 81t-24.5 66t-44.5 42.5t-66.5 27.5q-63 12 -169 13q-106 2 -264 0l-148 -1z" />
    <glyph glyph-name="S" unicode="S" horiz-adv-x="1369" 
d="M719 -33q-127 0 -231.5 31.5t-179.5 91t-106.5 156t-8.5 217.5h130l-2 -73q-2 -45 8 -86q23 -91 125 -150.5t287 -59.5q97 0 175 19.5t123.5 47t77 63.5t43.5 63t16 52q16 90 -18 141q-60 96 -280 150q-207 52 -271 74q-186 66 -239 176q-38 80 -17 193q22 110 109 193
t213 125.5t271 42.5q247 0 372 -130t69 -355h-136q19 61 15.5 109.5t-18.5 86t-44.5 65t-62 46t-72.5 29.5t-75 16t-70 5q-173 0 -295.5 -68t-143.5 -169q-16 -81 18 -134q64 -93 279 -143q209 -50 290 -82q185 -73 227 -203q23 -73 6 -169q-21 -111 -105.5 -196.5
t-209 -130t-269.5 -44.5z" />
    <glyph glyph-name="T" unicode="T" horiz-adv-x="1297" 
d="M584 0l203 1282h-485l20 128h1098l-20 -128h-482l-203 -1282h-131z" />
    <glyph glyph-name="U" unicode="U" horiz-adv-x="1461" 
d="M724 -33q-276 0 -406 169.5t-82 469.5l127 804h131l-127 -804q-39 -250 60.5 -381t316.5 -131q462 0 543 512l127 804h128l-127 -804q-49 -307 -227.5 -473t-463.5 -166z" />
    <glyph glyph-name="V" unicode="V" horiz-adv-x="1330" 
d="M583 0l-324 1410h141l288 -1245l683 1245h145l-773 -1410h-160z" />
    <glyph glyph-name="W" unicode="W" horiz-adv-x="2244" 
d="M1531 0l-228 1181l-624 -1181h-160l-260 1410h143l228 -1237l651 1237h120l237 -1238l646 1238h146l-737 -1410h-162z" />
    <glyph glyph-name="X" unicode="X" horiz-adv-x="1432" 
d="M78 0l674 749l-394 661h172l319 -552l494 552h172l-598 -661l436 -749h-168l-371 640l-574 -640h-162z" />
    <glyph glyph-name="Y" unicode="Y" horiz-adv-x="1285" 
d="M575 0l84 533l-358 877h147l305 -733l530 733h146l-636 -877l-84 -533h-134z" />
    <glyph glyph-name="Z" unicode="Z" horiz-adv-x="1385" 
d="M99 0l16 101l1183 1180h-902l20 129h1092l-16 -102l-1183 -1179h989l-20 -129h-1179z" />
    <glyph glyph-name="bracketleft" unicode="[" horiz-adv-x="635" 
d="M740 1430h-245l-230 -1457h245l-20 -126h-374l270 1708h374z" />
    <glyph glyph-name="backslash" unicode="\" horiz-adv-x="855" 
d="M612 -57l-285 1498h135l284 -1498h-134z" />
    <glyph glyph-name="bracketright" unicode="]" horiz-adv-x="639" 
d="M96 -153l20 126h248l230 1457h-248l20 125h377l-270 -1708h-377z" />
    <glyph glyph-name="asciicircum" unicode="^" horiz-adv-x="1058" 
d="M699 1067l-391 -657h-144l506 832h118l236 -832h-143z" />
    <glyph glyph-name="underscore" unicode="_" horiz-adv-x="1143" 
d="M115 -157l20 126h861l-20 -126h-861z" />
    <glyph glyph-name="grave" unicode="`" horiz-adv-x="772" 
d="M591 1106l-148 277h165l114 -277h-131z" />
    <glyph glyph-name="a" unicode="a" horiz-adv-x="1014" 
d="M440 101q176 0 277 72.5t126 232.5l15 91q-54 3 -96 3q-55 0 -111.5 -5t-124.5 -20.5t-120.5 -39.5t-92.5 -66t-49 -97q-13 -83 30 -127t146 -44zM405 -24q-150 0 -228.5 76t-56.5 216t148.5 226t315.5 113q116 16 233 14h60l15 90q8 107 -36 155.5t-145 48.5h-73
q-102 0 -179 -59t-100 -177h-136q20 155 144 258.5t291 103.5h73q165 0 241 -81t58 -228l-116 -731h-109l5 141q-148 -166 -405 -166z" />
    <glyph glyph-name="b" unicode="b" horiz-adv-x="1214" 
d="M667 111q167 0 277 110.5t137 284.5q27 170 -56 280.5t-253 110.5q-148 0 -264.5 -105t-145.5 -286q-29 -185 62 -290t243 -105zM640 -23q-235 0 -343 200l-44 -177h-113l223 1410h137l-89 -562q158 183 393 183q149 0 251.5 -71t142.5 -189.5t17 -264.5
q-36 -230 -197 -379.5t-378 -149.5z" />
    <glyph glyph-name="c" unicode="c" horiz-adv-x="1149" 
d="M579 -23q-231 0 -345.5 141t-77.5 374q47 245 210.5 392t386.5 147q192 0 307 -106.5t112 -282.5h-133q1 118 -82.5 187.5t-224.5 69.5q-165 0 -287.5 -111t-155.5 -299q-27 -174 57 -277t254 -103q144 0 251 69t144 188h133q-51 -171 -203 -280t-346 -109z" />
    <glyph glyph-name="d" unicode="d" horiz-adv-x="1212" 
d="M581 111q73 0 143 26t128.5 74.5t100.5 124.5t57 170q29 181 -53.5 286t-231.5 105q-168 0 -286 -110.5t-145 -280.5q-18 -113 7 -201.5t97 -141t183 -52.5zM567 -23q-216 0 -330.5 150.5t-78.5 378.5q36 224 196.5 374.5t381.5 150.5q237 0 334 -184l89 563h134
l-223 -1410h-108l10 178q-166 -201 -405 -201z" />
    <glyph glyph-name="e" unicode="e" horiz-adv-x="1139" 
d="M1017 606q0 54 -15.5 104.5t-48 95t-89.5 71.5t-132 27q-139 0 -249.5 -82.5t-159.5 -215.5h694zM572 -23q-97 0 -175.5 30t-127.5 81t-81 120t-36 147t8 161q40 223 204.5 369t387.5 146q196 0 306 -125t92 -331l-3 -30l-10 -65h-847q-20 -176 58 -276t244 -100
q138 0 245 72t137 190h136q-46 -172 -198 -280.5t-340 -108.5z" />
    <glyph glyph-name="f" unicode="f" horiz-adv-x="745" 
d="M240 0l143 904h-173l20 127h176l16 98q11 71 27.5 121t38.5 81t50.5 48.5t63.5 24t78.5 8t94.5 -0.5q54 -1 83 -1h63l-20 -128h-63q-57 1 -86.5 1.5t-64.5 -2t-48.5 -4t-31 -9.5t-22 -13.5t-12 -22.5t-9 -29.5t-5.5 -39.5q-3 -22 -5 -34l-16 -98h322l-20 -127h-320
l-143 -904h-137z" />
    <glyph glyph-name="g" unicode="g" horiz-adv-x="1215" 
d="M582 111q98 0 187 44t155.5 135.5t86.5 215.5q29 181 -54 286t-232 105q-168 0 -286 -110.5t-145 -280.5q-18 -113 7.5 -201.5t97.5 -141t183 -52.5zM966 169q-168 -192 -399 -192q-216 0 -330.5 150.5t-78.5 378.5q36 229 197 377t381 148q238 0 334 -182l42 182h124
l-167 -1056q-46 -290 -202 -415q-122 -100 -352 -100t-319 100q-100 104 -83 318h136v-36q3 -69 3 -73q13 -89 76.5 -134.5t207.5 -45.5t222.5 46t118.5 136t58 204z" />
    <glyph glyph-name="h" unicode="h" horiz-adv-x="1154" 
d="M140 0l223 1410h133l-88 -555q151 176 380 176q207 0 293 -108q99 -128 55 -408l-82 -515h-131l82 515q31 194 -20.5 290t-211.5 96q-164 0 -278.5 -112t-144.5 -302l-77 -487h-133z" />
    <glyph glyph-name="i" unicode="i" horiz-adv-x="485" 
d="M176 0l163 1031h133l-163 -1031h-133zM422 1128q-53 0 -73.5 29.5t-13.5 71.5q6 41 36 69.5t82 28.5q102 0 86 -98q-18 -101 -117 -101z" />
    <glyph glyph-name="j" unicode="j" horiz-adv-x="450" 
d="M-215 -412h81q46 2 78.5 -0.5t56.5 2t39 6.5t25 13t14.5 21.5t9 32t7.5 44.5q3 24 5 37l204 1287h136l-206 -1287q-11 -71 -19 -110t-21 -76t-26.5 -52.5t-38.5 -28.5t-54 -15.5t-77 -2.5q-25 0 -102 1.5t-132 1.5zM389 1128q-54 0 -74.5 29.5t-13.5 71.5q6 40 36 69
t83 29q56 0 73.5 -28.5t11.5 -69.5q-18 -101 -116 -101z" />
    <glyph glyph-name="k" unicode="k" horiz-adv-x="1212" 
d="M908 -5l-347 484l-241 -191l-46 -290h-134l223 1412h134l-149 -942l709 563h197l-581 -463l414 -573h-179z" />
    <glyph glyph-name="l" unicode="l" horiz-adv-x="416" 
d="M140 0l223 1410h134l-223 -1410h-134z" />
    <glyph glyph-name="m" unicode="m" horiz-adv-x="1735" 
d="M140 0l163 1031h104l-5 -172q138 172 350 172q235 0 288 -216q60 91 158 153.5t234 62.5q199 0 268 -147q54 -137 18 -369l-82 -515h-132l82 515q6 39 9 65.5t5 70.5t-2.5 74.5t-17 66t-34 57.5t-58 37t-85.5 15q-140 0 -241 -112t-131 -302l-77 -487h-131l82 515
q6 38 9 65.5t4.5 70.5t-3 74.5t-17 66.5t-34 57t-58 37t-85.5 15q-140 0 -240.5 -112t-130.5 -302l-77 -487h-133z" />
    <glyph glyph-name="n" unicode="n" horiz-adv-x="1154" 
d="M140 0l163 1031h103l-5 -185q152 185 387 185q207 0 293 -108q99 -128 55 -408l-82 -515h-131l82 515q31 194 -20.5 290t-211.5 96q-164 0 -278.5 -112t-144.5 -302l-77 -487h-133z" />
    <glyph glyph-name="o" unicode="o" horiz-adv-x="1135" 
d="M564 -23q-230 0 -337.5 140t-69.5 384q40 248 192 389t382 141q233 0 338 -144.5t67 -385.5q-37 -238 -186 -381t-386 -143zM585 106q94 0 168 30.5t123 85.5t79.5 124.5t43.5 154.5q9 68 8.5 128t-20 110t-53.5 86t-91 56t-132 20q-178 0 -282.5 -109.5t-133.5 -290.5
q-7 -59 -7.5 -116t18.5 -107.5t51 -88.5t90.5 -60.5t137.5 -22.5z" />
    <glyph glyph-name="p" unicode="p" horiz-adv-x="1214" 
d="M667 111q167 0 277 110.5t137 284.5q27 170 -56 280.5t-253 110.5q-148 0 -264.5 -105t-145.5 -286q-29 -185 62 -290t243 -105zM189 -540h-135l249 1571h116l-15 -193q157 193 400 193q147 0 250 -70.5t144 -189.5t17 -267q-23 -148 -103 -268t-204 -189.5t-268 -69.5
q-231 0 -338 192z" />
    <glyph glyph-name="q" unicode="q" horiz-adv-x="1215" 
d="M582 111q98 0 187 44t155.5 135.5t86.5 215.5q29 181 -54 286t-232 105q-169 0 -287 -110.5t-145 -280.5q-27 -174 47.5 -284.5t241.5 -110.5zM987 -540h-135l113 708q-167 -191 -399 -191q-144 0 -245.5 69t-144 188.5t-18.5 269.5q36 229 198.5 378t379.5 149
q241 0 340 -194l43 194h117z" />
    <glyph glyph-name="r" unicode="r" horiz-adv-x="703" 
d="M140 0l163 1031h108l-10 -186q163 197 418 184l-10 -129q-176 14 -301.5 -99t-157.5 -314l-77 -487h-133z" />
    <glyph glyph-name="s" unicode="s" horiz-adv-x="990" 
d="M490 -23q-33 0 -67 3.5t-72.5 11t-72.5 22t-66.5 34t-54.5 49.5t-35.5 66t-12 85.5t18.5 107.5h137q-15 -44 -15.5 -81.5t10.5 -63.5t31.5 -46t46 -32.5t56.5 -20t59.5 -10.5t58.5 -3q133 0 221 40.5t99 125.5q11 69 -24 106q-37 37 -102 57.5t-172 39.5q-89 18 -165 44
q-93 32 -136.5 95t-23.5 170q21 121 151.5 199t312.5 78q33 0 66 -3.5t71 -11t70.5 -21.5t63.5 -33.5t52 -49t33 -65.5t10 -85.5t-19 -107.5h-137q15 44 15.5 81t-10 62t-31 44.5t-45 30.5t-56 18t-59 9.5t-58.5 2.5q-122 0 -205 -39t-94 -111q-10 -59 24 -90
q26 -23 74 -41.5t84.5 -26.5t113.5 -23q96 -21 169 -47q192 -75 159 -282q-12 -76 -54.5 -133t-107.5 -90t-143 -49t-169 -16z" />
    <glyph glyph-name="t" unicode="t" horiz-adv-x="708" 
d="M631 0q-22 0 -64 -1q-45 -1 -82.5 -0.5t-68 5t-54 15t-38.5 30.5t-22.5 50.5t-6.5 76t11 106.5l98 622h-172l20 127h172l40 251h131l-40 -251h236l-20 -127h-236l-98 -622q-14 -66 -10.5 -100.5t27 -45t92.5 -10.5l105 2z" />
    <glyph glyph-name="u" unicode="u" horiz-adv-x="1102" 
d="M529 -23q-434 0 -352 514l85 540h135l-85 -540q-11 -67 -13 -119t9 -104t37.5 -86t78 -55t126.5 -21q155 0 254 100t139 267l88 558h135l-163 -1031h-108l6 160q-68 -81 -163.5 -132t-208.5 -51z" />
    <glyph glyph-name="v" unicode="v" horiz-adv-x="1211" 
d="M535 0l-294 1031h156l238 -866l506 866h155l-618 -1031h-143z" />
    <glyph glyph-name="w" unicode="w" horiz-adv-x="1639" 
d="M415 0l-174 1031h140l133 -839l413 839h113l152 -839l393 839h138l-488 -1031h-151l-138 784l-386 -784h-145z" />
    <glyph glyph-name="x" unicode="x" horiz-adv-x="1161" 
d="M99 0l475 530l-298 501h168l233 -390l357 390h170l-461 -501l318 -530h-174l-246 419l-376 -419h-166z" />
    <glyph glyph-name="y" unicode="y" horiz-adv-x="1211" 
d="M241 1031h156l238 -866l506 866h155l-943 -1571h-130l313 535z" />
    <glyph glyph-name="z" unicode="z" horiz-adv-x="1123" 
d="M99 0l15 97l845 809h-685l20 125h893l-16 -105l-848 -802h721l-20 -124h-925z" />
    <glyph glyph-name="braceleft" unicode="{" horiz-adv-x="737" 
d="M775 1430q-84 0 -127.5 -26t-53.5 -90q-6 -39 -7 -179q-4 -165 -14 -235q-23 -135 -133 -198q46 -34 62.5 -87.5t7.5 -111.5q-13 -78 -61 -236q-42 -135 -49 -178q-10 -64 25 -90t120 -26h67l-20 -126h-65q-135 0 -205.5 57.5t-50.5 186.5q10 58 57 205q39 129 51 205
q23 140 -137 140l19 121q159 -1 182 140q12 78 13 204q0 152 9 206q39 243 332 243h65l-20 -125h-67z" />
    <glyph glyph-name="bar" unicode="|" horiz-adv-x="452" 
d="M100 -382l313 1975h129l-313 -1975h-129z" />
    <glyph glyph-name="braceright" unicode="}" horiz-adv-x="738" 
d="M578 902q-11 -65 21 -103t118 -37l-19 -121q-161 0 -184 -140q-11 -71 -12 -205q0 -151 -9 -205q-39 -244 -332 -244h-65l20 126h67q85 0 128 26t53 90q6 41 6 132v46q4 164 16 236q9 59 42 112t90 85q-46 35 -62.5 89t-6.5 111q11 77 59 235q1 4 7.5 26t10.5 31
q28 96 32 122q10 63 -25 89.5t-120 26.5h-67l20 125h65q136 0 206 -57t50 -186q-9 -55 -57 -206q-41 -134 -52 -204z" />
    <glyph glyph-name="asciitilde" unicode="~" horiz-adv-x="1100" 
d="M1117 739q-15 -148 -84 -223t-180 -75q-60 0 -109.5 17.5t-143.5 71.5q-78 46 -116.5 62t-77.5 16q-49 0 -75 -41t-36 -132h-127q15 146 84 222t178 76q61 0 109 -18t145 -74q78 -46 116 -61t75 -15q52 0 77.5 40t36.5 134h128z" />
    <glyph glyph-name="exclamdown" unicode="&#xa1;" horiz-adv-x="388" 
d="M340 919q-39 0 -63 27.5t-18 65.5q7 40 39.5 66.5t70.5 26.5q41 0 64 -26.5t16 -66.5q-6 -39 -37.5 -66t-71.5 -27zM394 836l-168 -1141h-159l192 1141h135z" />
    <glyph glyph-name="cent" unicode="&#xa2;" horiz-adv-x="1175" 
d="M335 548q-15 -101 -5.5 -177.5t41.5 -131t77 -86.5t102 -44l136 860q-59 -14 -114 -47.5t-103.5 -84.5t-84 -125.5t-49.5 -163.5zM679 106q107 17 187.5 85.5t116.5 181.5h145q-49 -168 -175 -272.5t-294 -122.5l-24 -149h-129l23 147q-187 23 -285 171.5t-60 391.5
q24 152 102 274t187 194.5t234 91.5l24 151h129l-23 -147q175 -14 268.5 -126t79.5 -285h-145q5 123 -52.5 196.5t-171.5 86.5z" />
    <glyph glyph-name="sterling" unicode="&#xa3;" horiz-adv-x="1114" 
d="M1014 0h-915l19 120q129 25 223 104t113 199q9 57 -0.5 109.5t-39.5 121.5h-193l19 125h122q-42 127 -23 243q27 171 164 279.5t314 108.5q85 0 150.5 -22t107 -62t66.5 -95t29.5 -121t-4.5 -141h-147q41 311 -227 311q-111 0 -198.5 -70.5t-104.5 -178.5q-10 -64 0 -120
t40 -132h471l-19 -125h-399q38 -115 20 -223q-28 -185 -192 -301h625z" />
    <glyph glyph-name="currency" unicode="&#xa4;" horiz-adv-x="1070" 
d="M589 355q110 0 193 72t100 181t-43 181t-170 72q-108 0 -190.5 -72t-99.5 -181q-17 -108 42.5 -180.5t167.5 -72.5zM1015 608q-19 -120 -104 -220l102 -114l-111 -89l-96 113q-112 -67 -236 -67q-123 0 -214 67l-133 -113l-79 91l136 112q-55 96 -36 220t106 220
l-102 114l110 87l98 -110q111 66 233 66q126 0 213 -68l134 112l83 -87l-138 -115q53 -101 34 -219z" />
    <glyph glyph-name="yen" unicode="&#xa5;" horiz-adv-x="1310" 
d="M906 727h290l-19 -124h-357l-12 -76h356l-19 -125h-356l-64 -402h-143l64 402h-352l19 125h352l13 76h-352l19 124h287l-314 656h178l282 -619l477 619h174z" />
    <glyph glyph-name="brokenbar" unicode="&#xa6;" horiz-adv-x="411" 
d="M246 668l113 715h129l-113 -715h-129zM92 -305l113 716h129l-113 -716h-129z" />
    <glyph glyph-name="section" unicode="&#xa7;" horiz-adv-x="1265" 
d="M775 309q107 6 186.5 59.5t93.5 145.5q15 89 -57 145.5t-241 94.5q-84 20 -115 33q-234 -27 -262 -209q-9 -57 24.5 -105.5t93 -79.5t138.5 -48q73 -14 139 -36zM1207 522q-17 -108 -89.5 -185t-178.5 -116q100 -91 76 -246q-23 -142 -149.5 -224.5t-296.5 -82.5
q-182 0 -279.5 95.5t-93.5 290.5h144q7 -133 70.5 -195.5t185.5 -62.5q106 0 181.5 46.5t87.5 126.5q7 46 -1.5 79t-40 64t-94 55.5t-160.5 45.5q-72 16 -134 44.5t-114 71.5t-77 105.5t-13 137.5q17 111 87.5 187t174.5 114q-94 90 -72 224q22 143 137.5 228t275.5 85
q184 0 269.5 -101t77.5 -267h-143q-8 122 -62 181t-164 59q-92 0 -160 -46.5t-81 -128.5q-14 -90 54 -142t199 -78q202 -42 304 -130t79 -235z" />
    <glyph glyph-name="dieresis" unicode="&#xa8;" horiz-adv-x="1232" 
d="M730 1325q35 0 57 -25t16 -61q-5 -34 -35 -59t-65 -25q-36 0 -57.5 25t-16.5 59q6 36 35.5 61t65.5 25zM921 1325q36 0 57.5 -25t15.5 -61q-5 -34 -35 -59t-65 -25q-34 0 -55.5 25t-16.5 59q6 36 35 61t64 25z" />
    <glyph glyph-name="copyright" unicode="&#xa9;" horiz-adv-x="1725" 
d="M1073 1335q-174 0 -332.5 -83t-264.5 -226.5t-133 -314.5q-21 -128 10 -243.5t102 -198.5t180.5 -132t240.5 -49q175 0 333.5 82.5t264.5 226t134 314.5q20 128 -11 243.5t-102 199t-181 132.5t-241 49zM1054 1154q159 0 248.5 -90t75.5 -251h-145q2 100 -46.5 155.5
t-153.5 55.5q-119 0 -203.5 -89t-105.5 -222q-22 -137 35 -223.5t169 -86.5q101 0 170.5 53.5t100.5 156.5h148q-49 -164 -166 -252t-283 -88q-165 0 -258.5 120.5t-62.5 317.5q32 200 167 321.5t310 121.5zM1094 1462q158 0 290 -59t218 -159t123.5 -239t13.5 -294
q-33 -207 -161.5 -379.5t-319.5 -272t-402 -99.5q-210 0 -369.5 99.5t-233.5 272t-41 379.5q32 206 161 379t320 272.5t401 99.5z" />
    <glyph glyph-name="guillemotleft" unicode="&#xab;" horiz-adv-x="1025" 
d="M752 139l-250 357l363 357h148l-362 -357l249 -357h-148zM475 139l-250 357l363 357h149l-362 -357l249 -357h-149z" />
    <glyph glyph-name="logicalnot" unicode="&#xac;" horiz-adv-x="971" 
d="M804 400l40 248h-642l19 125h772l-59 -373h-130z" />
    <glyph glyph-name="registered" unicode="&#xae;" horiz-adv-x="1058" 
d="M529 775q144 0 234 89t90 229q0 137 -90 225t-234 88t-233.5 -88t-89.5 -225q0 -140 89.5 -229t233.5 -89zM512 1132q29 0 39 1q36 6 36 37q0 25 -17 33t-45 8h-30v-79h17zM529 1524q196 0 323 -121.5t127 -309.5q0 -192 -127 -314.5t-323 -122.5q-197 0 -324 122.5
t-127 314.5q0 188 127 309.5t324 121.5zM661 1076q18 -25 23 -65q7 -41 18.5 -68t22 -36.5t23 -19t17.5 -18.5h-165q-25 45 -40 123q-2 16 -7 21t-21 5h-37v-149h-124v458h143q54 0 95.5 -11.5t72.5 -46t31 -89.5q0 -65 -52 -104z" />
    <glyph glyph-name="macron" unicode="&#xaf;" horiz-adv-x="974" 
d="M475 1175l19 122h395l-19 -122h-395z" />
    <glyph glyph-name="degree" unicode="&#xb0;" horiz-adv-x="690" 
d="M569 1410q105 0 164.5 -66t43.5 -168t-96.5 -169t-185.5 -67q-106 0 -166 67t-44 169t97 168t187 66zM550 1285q-53 0 -88.5 -29.5t-43.5 -79.5q-8 -51 18 -81t79 -30q51 0 86 30t43 81q8 50 -17.5 79.5t-76.5 29.5z" />
    <glyph glyph-name="plusminus" unicode="&#xb1;" horiz-adv-x="1069" 
d="M1081 703l-19 -125h-371l-61 -385h-129l61 385h-371l19 125h371l61 383h129l-61 -383h371zM99 0l20 124h871l-20 -124h-871z" />
    <glyph glyph-name="acute" unicode="&#xb4;" horiz-adv-x="773" 
d="M399 1106l202 277h166l-236 -277h-132z" />
    <glyph glyph-name="paragraph" unicode="&#xb6;" horiz-adv-x="1092" 
d="M960 -210h-128l232 1469h-170l-232 -1469h-128l130 820h-12q-78 0 -112 2q-108 6 -178.5 61.5t-95.5 139.5t-9 184q25 155 133.5 265t271.5 119q34 2 112 2h438z" />
    <glyph glyph-name="periodcentered" unicode="&#xb7;" horiz-adv-x="398" 
d="M312 714q43 0 67 -28t18 -70q-7 -42 -40.5 -70.5t-75.5 -28.5q-43 0 -67 29t-17 70q6 42 39 70t76 28z" />
    <glyph glyph-name="cedilla" unicode="&#xb8;" horiz-adv-x="1342" 
d="M657 -33q147 -35 124 -176q-15 -94 -94.5 -142.5t-180.5 -48.5q-88 0 -131 33l21 134q33 -30 58.5 -40t72.5 -10q113 0 125 74q5 36 -22.5 55t-96.5 19q-37 0 -89 -6l155 224h140z" />
    <glyph glyph-name="guillemotright" unicode="&#xbb;" horiz-adv-x="982" 
d="M295 139h-148l363 357l-250 357h148l251 -357zM572 139h-149l363 357l-250 357h149l251 -357z" />
    <glyph glyph-name="questiondown" unicode="&#xbf;" horiz-adv-x="1077" 
d="M697 911q-38 0 -62 27.5t-18 65.5q7 40 39 66.5t71 26.5q40 0 63.5 -26.5t16.5 -66.5q-6 -38 -38 -65.5t-72 -27.5zM466 -340q-198 0 -292.5 107t-68.5 270q32 203 264 390q97 79 144 135t68 111t37 155h138q-15 -89 -30 -142.5t-47 -110.5t-80.5 -107.5t-131.5 -120.5
q-102 -88 -150 -158.5t-61 -151.5q-19 -116 43.5 -181.5t189.5 -65.5q146 0 240.5 90t122.5 248h144q-28 -206 -176.5 -337t-353.5 -131z" />
    <glyph glyph-name="Agrave" unicode="&#xc0;" horiz-adv-x="1451" 
d="M917 1213l-387 -690h553zM885 1410h122l344 -1410h-142l-94 390h-659l-219 -390h-138zM1043 1609h-131l-148 278h165z" />
    <glyph glyph-name="Aacute" unicode="&#xc1;" horiz-adv-x="1451" 
d="M917 1213l-387 -690h553zM885 1410h122l344 -1410h-142l-94 390h-659l-219 -390h-138zM1045 1603h-132l202 277h166z" />
    <glyph glyph-name="Acircumflex" unicode="&#xc2;" horiz-adv-x="1451" 
d="M917 1213l-387 -690h553zM885 1410h122l344 -1410h-142l-94 390h-659l-219 -390h-138zM1047 1578l-55 130l-96 -130h-146l217 278h102l125 -278h-147z" />
    <glyph glyph-name="Atilde" unicode="&#xc3;" horiz-adv-x="1451" 
d="M917 1213l-387 -690h553zM885 1410h122l344 -1410h-142l-94 390h-659l-219 -390h-138zM903 1801q43 0 122 -27q63 -21 77 -21l2 40h118q-3 -77 -40 -118t-97 -41q-49 0 -123 26q-59 20 -78 20q2 0 -4 -38h-113q3 76 39 117.5t97 41.5z" />
    <glyph glyph-name="Adieresis" unicode="&#xc4;" horiz-adv-x="1451" 
d="M917 1213l-387 -690h553zM885 1410h122l344 -1410h-142l-94 390h-659l-219 -390h-138zM890 1786q35 0 57 -25t16 -60q-5 -34 -35 -59t-65 -25q-36 0 -57.5 24.5t-16.5 59.5q6 35 35.5 60t65.5 25zM1151 1786q35 0 57 -25t16 -60q-5 -34 -35 -59t-65 -25t-56 25t-16 59
q6 35 35 60t64 25z" />
    <glyph glyph-name="Aring" unicode="&#xc5;" horiz-adv-x="1451" 
d="M917 1213l-387 -690h553zM1003 1760q-45 0 -53 -48t38 -48q21 0 35 13.5t17 34.5q4 22 -6 35t-31 13zM885 1410h122l344 -1410h-142l-94 390h-659l-219 -390h-138zM1021 1874q72 0 113.5 -44.5t29.5 -117.5q-11 -71 -67.5 -117t-127.5 -46q-72 0 -114.5 45.5t-31.5 117.5
q12 73 68.5 117.5t129.5 44.5z" />
    <glyph glyph-name="AE" unicode="&#xc6;" horiz-adv-x="1811" 
d="M863 1099l-324 -576h233zM1701 0h-1012l62 390h-285l-220 -390h-137l786 1410h1007l-20 -129h-855l-80 -503h704l-20 -130h-704l-83 -521h877z" />
    <glyph glyph-name="Ccedilla" unicode="&#xc7;" horiz-adv-x="1568" 
d="M788 -96q147 -35 124 -176q-15 -94 -94.5 -142.5t-180.5 -48.5q-88 0 -131 33l21 134q33 -30 58.5 -40t72.5 -10q113 0 125 74q5 36 -22.5 55t-96.5 19q-36 0 -89 -6l128 185q-142 15 -253 78q-150 85 -214 249.5t-27 397.5q24 154 81.5 277.5t135.5 206.5t177 139
t205 80.5t222 24.5q261 0 411 -143t148 -409h-138q-1 205 -115.5 316t-325.5 111q-266 0 -443 -156t-223 -447q-47 -295 78 -450t387 -155q230 0 381.5 110.5t212.5 309.5h139q-75 -253 -258.5 -391.5t-442.5 -151.5z" />
    <glyph glyph-name="Egrave" unicode="&#xc8;" horiz-adv-x="1273" 
d="M140 0l223 1410h991l-20 -129h-856l-80 -503h704l-20 -130h-704l-83 -521h878l-20 -127h-1013zM923 1609l-148 278h165l114 -278h-131z" />
    <glyph glyph-name="Eacute" unicode="&#xc9;" horiz-adv-x="1273" 
d="M140 0l223 1410h991l-20 -129h-856l-80 -503h704l-20 -130h-704l-83 -521h878l-20 -127h-1013zM776 1603l202 277h166l-236 -277h-132z" />
    <glyph glyph-name="Ecircumflex" unicode="&#xca;" horiz-adv-x="1273" 
d="M140 0l223 1410h991l-20 -129h-856l-80 -503h704l-20 -130h-704l-83 -521h878l-20 -127h-1013zM910 1708l-96 -130h-146l217 278h102l125 -278h-147z" />
    <glyph glyph-name="Edieresis" unicode="&#xcb;" horiz-adv-x="1273" 
d="M140 0l223 1410h991l-20 -129h-856l-80 -503h704l-20 -130h-704l-83 -521h878l-20 -127h-1013zM808 1786q35 0 57 -25t16 -60q-5 -34 -35 -59t-65 -25q-36 0 -57.5 24.5t-16.5 59.5q6 35 35.5 60t65.5 25zM1069 1786q35 0 57 -25t16 -60q-5 -34 -35 -59t-65 -25t-56 25
t-16 59q6 35 35 60t64 25z" />
    <glyph glyph-name="Igrave" unicode="&#xcc;" horiz-adv-x="525" 
d="M142 0l222 1403h131l-222 -1403h-131zM489 1609l-148 278h165l114 -278h-131z" />
    <glyph glyph-name="Iacute" unicode="&#xcd;" horiz-adv-x="526" 
d="M195 0l222 1403h131l-222 -1403h-131zM395 1603l202 277h166l-236 -277h-132z" />
    <glyph glyph-name="Icircumflex" unicode="&#xce;" horiz-adv-x="517" 
d="M193 0l222 1403h131l-222 -1403h-131zM527 1708l-96 -130h-146l217 278h102l125 -278h-147z" />
    <glyph glyph-name="Idieresis" unicode="&#xcf;" horiz-adv-x="535" 
d="M187 0l222 1403h131l-222 -1403h-131zM419 1786q35 0 57 -25t16 -60q-5 -34 -35 -59t-65 -25q-36 0 -57.5 24.5t-16.5 59.5q6 35 35.5 60t65.5 25zM680 1786q35 0 57 -25t16 -60q-5 -34 -35 -59t-65 -25t-56 25t-16 59q6 35 35 60t64 25z" />
    <glyph glyph-name="Ntilde" unicode="&#xd1;" horiz-adv-x="1342" 
d="M140 0l222 1404h120l630 -1165l184 1165h127l-222 -1404h-114l-632 1175l-186 -1175h-129zM861 1801q43 0 122 -27q63 -21 77 -21l2 40h118q-3 -77 -40 -118t-97 -41q-49 0 -123 26q-59 20 -78 20q2 0 -4 -38h-113q3 76 39 117.5t97 41.5z" />
    <glyph glyph-name="Ograve" unicode="&#xd2;" horiz-adv-x="1586" 
d="M786 -33q-331 0 -480.5 197t-95.5 537q54 342 264.5 537.5t543.5 195.5q224 0 367 -91t195 -254.5t17 -387.5q-54 -343 -268.5 -538.5t-542.5 -195.5zM806 94q273 0 442.5 158.5t215.5 448.5q47 295 -71 450t-395 155q-276 0 -443 -155t-214 -450q-47 -294 72 -450.5
t393 -156.5zM1008 1609l-148 278h165l114 -278h-131z" />
    <glyph glyph-name="Oacute" unicode="&#xd3;" horiz-adv-x="1586" 
d="M786 -33q-331 0 -480.5 197t-95.5 537q54 342 264.5 537.5t543.5 195.5q224 0 367 -91t195 -254.5t17 -387.5q-54 -343 -268.5 -538.5t-542.5 -195.5zM806 94q273 0 442.5 158.5t215.5 448.5q47 295 -71 450t-395 155q-276 0 -443 -155t-214 -450q-47 -294 72 -450.5
t393 -156.5zM947 1603l202 277h166l-236 -277h-132z" />
    <glyph glyph-name="Ocircumflex" unicode="&#xd4;" horiz-adv-x="1586" 
d="M806 94q273 0 442.5 158.5t215.5 448.5q47 295 -71 450t-395 155q-276 0 -443 -155t-214 -450q-47 -294 72 -450.5t393 -156.5zM786 -33q-331 0 -480.5 197t-95.5 537q54 342 264.5 537.5t543.5 195.5q224 0 367 -91t195 -254.5t17 -387.5q-54 -343 -268.5 -538.5
t-542.5 -195.5zM1136 1578l-55 130l-96 -130h-146l217 278h102l125 -278h-147z" />
    <glyph glyph-name="Otilde" unicode="&#xd5;" horiz-adv-x="1586" 
d="M806 94q273 0 442.5 158.5t215.5 448.5q47 295 -71 450t-395 155q-276 0 -443 -155t-214 -450q-47 -294 72 -450.5t393 -156.5zM786 -33q-331 0 -480.5 197t-95.5 537q54 342 264.5 537.5t543.5 195.5q224 0 367 -91t195 -254.5t17 -387.5q-54 -343 -268.5 -538.5
t-542.5 -195.5zM992 1801q42 0 122 -27q63 -21 77 -21l2 40h118q-3 -77 -40 -118t-97 -41q-49 0 -123 26q-59 20 -78 20q2 0 -4 -38h-113q3 76 39 117.5t97 41.5z" />
    <glyph glyph-name="Odieresis" unicode="&#xd6;" horiz-adv-x="1586" 
d="M786 -33q-331 0 -480.5 197t-95.5 537q54 342 264.5 537.5t543.5 195.5q224 0 367 -91t195 -254.5t17 -387.5q-54 -343 -268.5 -538.5t-542.5 -195.5zM806 94q273 0 442.5 158.5t215.5 448.5q47 295 -71 450t-395 155q-276 0 -443 -155t-214 -450q-47 -294 72 -450.5
t393 -156.5zM979 1786q35 0 57 -25t16 -60q-5 -34 -35 -59t-65 -25q-36 0 -57.5 24.5t-16.5 59.5q6 35 35.5 60t65.5 25zM1240 1786q35 0 57 -25t16 -60q-5 -34 -35 -59t-65 -25t-56 25t-16 59q6 35 35 60t64 25z" />
    <glyph glyph-name="multiply" unicode="&#xd7;" horiz-adv-x="969" 
d="M923 350l-106 -88l-246 281l-339 -281l-78 88l338 282l-249 280l107 89l249 -280l336 280l79 -87l-337 -282z" />
    <glyph glyph-name="Oslash" unicode="&#xd8;" horiz-adv-x="1604" 
d="M343 701q-42 -264 52 -419l958 916q-123 108 -353 108q-276 0 -443 -155t-214 -450zM808 94q273 0 442.5 158.5t215.5 448.5q42 261 -46 414l-956 -915q123 -106 344 -106zM788 -33q-270 0 -424 137l-111 -106h-154l194 186q-133 192 -81 517q54 342 264.5 537.5
t543.5 195.5q278 0 433 -141l119 114h155l-205 -195q127 -192 77 -511q-54 -343 -268.5 -538.5t-542.5 -195.5z" />
    <glyph glyph-name="Ugrave" unicode="&#xd9;" horiz-adv-x="1461" 
d="M724 -33q-276 0 -406 169.5t-82 469.5l127 804h131l-127 -804q-39 -250 60.5 -381t316.5 -131q462 0 543 512l127 804h128l-127 -804q-49 -307 -227.5 -473t-463.5 -166zM1024 1609l-148 278h165l114 -278h-131z" />
    <glyph glyph-name="Uacute" unicode="&#xda;" horiz-adv-x="1461" 
d="M724 -33q-276 0 -406 169.5t-82 469.5l127 804h131l-127 -804q-39 -250 60.5 -381t316.5 -131q462 0 543 512l127 804h128l-127 -804q-49 -307 -227.5 -473t-463.5 -166zM877 1603l202 277h166l-236 -277h-132z" />
    <glyph glyph-name="Ucircumflex" unicode="&#xdb;" horiz-adv-x="1461" 
d="M724 -33q-276 0 -406 169.5t-82 469.5l127 804h131l-127 -804q-39 -250 60.5 -381t316.5 -131q462 0 543 512l127 804h128l-127 -804q-49 -307 -227.5 -473t-463.5 -166zM1011 1708l-96 -130h-146l217 278h102l125 -278h-147z" />
    <glyph glyph-name="Udieresis" unicode="&#xdc;" horiz-adv-x="1461" 
d="M724 -33q-276 0 -406 169.5t-82 469.5l127 804h131l-127 -804q-39 -250 60.5 -381t316.5 -131q462 0 543 512l127 804h128l-127 -804q-49 -307 -227.5 -473t-463.5 -166zM909 1786q35 0 57 -25t16 -60q-5 -34 -35 -59t-65 -25q-36 0 -57.5 24.5t-16.5 59.5q6 35 35.5 60
t65.5 25zM1170 1786q35 0 57 -25t16 -60q-5 -34 -35 -59t-65 -25t-56 25t-16 59q6 35 35 60t64 25z" />
    <glyph glyph-name="Yacute" unicode="&#xdd;" horiz-adv-x="1285" 
d="M575 0l84 533l-358 877h147l305 -733l530 733h146l-636 -877l-84 -533h-134zM796 1603l202 277h166l-236 -277h-132z" />
    <glyph glyph-name="germandbls" unicode="&#xdf;" horiz-adv-x="1115" 
d="M191 -349h-144l219 1384h5q56 175 196.5 275t322.5 100q195 0 290.5 -102t70.5 -261q-17 -104 -85.5 -189t-168.5 -133q103 -42 149.5 -127.5t26.5 -210.5q-20 -131 -106 -228.5t-211 -144.5t-268 -40l16 130q165 -9 280 65.5t137 215.5q19 118 -58 187t-258 69h-67
l20 130h67q84 0 163.5 31.5t138.5 94t72 142.5q18 117 -47 179t-188 62q-132 0 -228 -73.5t-132 -207.5z" />
    <glyph glyph-name="agrave" unicode="&#xe0;" horiz-adv-x="1014" 
d="M440 101q176 0 277 72.5t126 232.5l15 91q-54 3 -96 3q-55 0 -111.5 -5t-124.5 -20.5t-120.5 -39.5t-92.5 -66t-49 -97q-13 -83 30 -127t146 -44zM405 -24q-150 0 -228.5 76t-56.5 216t148.5 226t315.5 113q116 16 233 14h60l15 90q8 107 -36 155.5t-145 48.5h-73
q-102 0 -179 -59t-100 -177h-136q20 155 144 258.5t291 103.5h73q165 0 241 -81t58 -228l-116 -731h-109l5 141q-148 -166 -405 -166zM894 1287h-131l-148 278h165z" />
    <glyph glyph-name="aacute" unicode="&#xe1;" horiz-adv-x="1014" 
d="M440 101q176 0 277 72.5t126 232.5l15 91q-54 3 -96 3q-55 0 -111.5 -5t-124.5 -20.5t-120.5 -39.5t-92.5 -66t-49 -97q-13 -83 30 -127t146 -44zM405 -24q-150 0 -228.5 76t-56.5 216t148.5 226t315.5 113q116 16 233 14h60l15 90q8 107 -36 155.5t-145 48.5h-73
q-102 0 -179 -59t-100 -177h-136q20 155 144 258.5t291 103.5h73q165 0 241 -81t58 -228l-116 -731h-109l5 141q-148 -166 -405 -166zM748 1281h-132l202 277h166z" />
    <glyph glyph-name="acircumflex" unicode="&#xe2;" horiz-adv-x="1014" 
d="M440 101q176 0 277 72.5t126 232.5l15 91q-54 3 -96 3q-55 0 -111.5 -5t-124.5 -20.5t-120.5 -39.5t-92.5 -66t-49 -97q-13 -83 30 -127t146 -44zM405 -24q-150 0 -228.5 76t-56.5 216t148.5 226t315.5 113q116 16 233 14h60l15 90q8 107 -36 155.5t-145 48.5h-73
q-102 0 -179 -59t-100 -177h-136q20 155 144 258.5t291 103.5h73q165 0 241 -81t58 -228l-116 -731h-109l5 141q-148 -166 -405 -166zM805 1256l-55 130l-96 -130h-146l217 278h102l125 -278h-147z" />
    <glyph glyph-name="atilde" unicode="&#xe3;" horiz-adv-x="1014" 
d="M440 101q176 0 277 72.5t126 232.5l15 91q-54 3 -96 3q-55 0 -111.5 -5t-124.5 -20.5t-120.5 -39.5t-92.5 -66t-49 -97q-13 -83 30 -127t146 -44zM405 -24q-150 0 -228.5 76t-56.5 216t148.5 226t315.5 113q116 16 233 14h60l15 90q8 107 -36 155.5t-145 48.5h-73
q-102 0 -179 -59t-100 -177h-136q20 155 144 258.5t291 103.5h73q165 0 241 -81t58 -228l-116 -731h-109l5 141q-148 -166 -405 -166zM661 1479q43 0 122 -27q63 -21 77 -21l2 40h118q-3 -77 -40 -118t-97 -41q-49 0 -123 26q-59 20 -78 20q2 0 -4 -38h-113q3 76 39 117.5
t97 41.5z" />
    <glyph glyph-name="adieresis" unicode="&#xe4;" horiz-adv-x="1014" 
d="M440 101q176 0 277 72.5t126 232.5l15 91q-54 3 -96 3q-55 0 -111.5 -5t-124.5 -20.5t-120.5 -39.5t-92.5 -66t-49 -97q-13 -83 30 -127t146 -44zM405 -24q-150 0 -228.5 76t-56.5 216t148.5 226t315.5 113q116 16 233 14h60l15 90q8 107 -36 155.5t-145 48.5h-73
q-102 0 -179 -59t-100 -177h-136q20 155 144 258.5t291 103.5h73q165 0 241 -81t58 -228l-116 -731h-109l5 141q-148 -166 -405 -166zM648 1464q35 0 57 -25t16 -60q-5 -34 -35 -59t-65 -25q-36 0 -57.5 24.5t-16.5 59.5q6 35 35.5 60t65.5 25zM909 1464q35 0 57 -25t16 -60
q-5 -34 -35 -59t-65 -25t-56 25t-16 59q6 35 35 60t64 25z" />
    <glyph glyph-name="aring" unicode="&#xe5;" horiz-adv-x="1014" 
d="M440 101q176 0 277 72.5t126 232.5l15 91q-54 3 -96 3q-55 0 -111.5 -5t-124.5 -20.5t-120.5 -39.5t-92.5 -66t-49 -97q-13 -83 30 -127t146 -44zM761 1438q-45 0 -53 -48t38 -48q21 0 35 13.5t17 34.5q4 22 -6 35t-31 13zM405 -24q-150 0 -228.5 76t-56.5 216t148.5 226
t315.5 113q116 16 233 14h60l15 90q8 107 -36 155.5t-145 48.5h-73q-102 0 -179 -59t-100 -177h-136q20 155 144 258.5t291 103.5h73q165 0 241 -81t58 -228l-116 -731h-109l5 141q-148 -166 -405 -166zM779 1552q72 0 113.5 -44.5t29.5 -117.5q-11 -71 -67.5 -117
t-127.5 -46q-72 0 -114.5 45.5t-31.5 117.5q12 73 68.5 117.5t129.5 44.5z" />
    <glyph glyph-name="ae" unicode="&#xe6;" horiz-adv-x="1833" 
d="M858 497q-54 3 -96 3q-55 0 -111.5 -5t-124.5 -20.5t-120.5 -39.5t-92.5 -66t-49 -97q-13 -83 30 -127t146 -44q176 0 277 72.5t126 232.5zM1708 606q0 54 -15.5 104.5t-48 95t-89.5 71.5t-132 27q-138 0 -243 -81.5t-154 -216.5h682zM638 915q-102 0 -179 -59t-100 -177
h-136q20 155 144 258.5t291 103.5h73q128 0 202.5 -49t93.5 -141q167 180 416 180q196 0 305.5 -125t92.5 -331l-3 -30l-10 -65h-834q-20 -176 58 -276t244 -100q138 0 244.5 72t137.5 190h135q-45 -172 -197 -280.5t-340 -108.5q-228 0 -341 155l-21 -131h-119l11 115
q-42 -47 -90.5 -77t-104.5 -42.5t-99.5 -16.5t-106.5 -4q-150 0 -228.5 76t-56.5 216t148.5 226t315.5 113q116 16 233 14h60l2 8q11 71 15 118q7 83 -38.5 125.5t-144.5 42.5h-73z" />
    <glyph glyph-name="ccedilla" unicode="&#xe7;" horiz-adv-x="1149" 
d="M517 -20q-201 19 -298.5 157.5t-62.5 354.5q47 245 210.5 392t386.5 147q192 0 307 -106.5t112 -282.5h-133q1 118 -82.5 187.5t-224.5 69.5q-165 0 -287.5 -111t-155.5 -299q-27 -174 57 -277t254 -103q144 0 251 69t144 188h133q-46 -153 -173.5 -257.5t-296.5 -126.5
l-51 -72q147 -35 124 -176q-15 -94 -94.5 -142.5t-180.5 -48.5q-88 0 -131 33l21 134q33 -30 58.5 -40t72.5 -10q113 0 125 74q5 36 -22.5 55t-96.5 19q-37 0 -89 -6z" />
    <glyph glyph-name="egrave" unicode="&#xe8;" horiz-adv-x="1139" 
d="M1017 606q0 54 -15.5 104.5t-48 95t-89.5 71.5t-132 27q-139 0 -249.5 -82.5t-159.5 -215.5h694zM572 -23q-97 0 -175.5 30t-127.5 81t-81 120t-36 147t8 161q40 223 204.5 369t387.5 146q196 0 306 -125t92 -331l-3 -30l-10 -65h-847q-20 -176 58 -276t244 -100
q138 0 245 72t137 190h136q-46 -172 -198 -280.5t-340 -108.5zM934 1264h-131l-148 278h165z" />
    <glyph glyph-name="eacute" unicode="&#xe9;" horiz-adv-x="1139" 
d="M1017 606q0 54 -15.5 104.5t-48 95t-89.5 71.5t-132 27q-139 0 -249.5 -82.5t-159.5 -215.5h694zM572 -23q-97 0 -175.5 30t-127.5 81t-81 120t-36 147t8 161q40 223 204.5 369t387.5 146q196 0 306 -125t92 -331l-3 -30l-10 -65h-847q-20 -176 58 -276t244 -100
q138 0 245 72t137 190h136q-46 -172 -198 -280.5t-340 -108.5zM788 1258h-132l202 277h166z" />
    <glyph glyph-name="ecircumflex" unicode="&#xea;" horiz-adv-x="1139" 
d="M1017 606q0 54 -15.5 104.5t-48 95t-89.5 71.5t-132 27q-139 0 -249.5 -82.5t-159.5 -215.5h694zM572 -23q-97 0 -175.5 30t-127.5 81t-81 120t-36 147t8 161q40 223 204.5 369t387.5 146q196 0 306 -125t92 -331l-3 -30l-10 -65h-847q-20 -176 58 -276t244 -100
q138 0 245 72t137 190h136q-46 -172 -198 -280.5t-340 -108.5zM845 1233l-55 130l-96 -130h-146l217 278h102l125 -278h-147z" />
    <glyph glyph-name="edieresis" unicode="&#xeb;" horiz-adv-x="1139" 
d="M1017 606q0 54 -15.5 104.5t-48 95t-89.5 71.5t-132 27q-139 0 -249.5 -82.5t-159.5 -215.5h694zM572 -23q-97 0 -175.5 30t-127.5 81t-81 120t-36 147t8 161q40 223 204.5 369t387.5 146q196 0 306 -125t92 -331l-3 -30l-10 -65h-847q-20 -176 58 -276t244 -100
q138 0 245 72t137 190h136q-46 -172 -198 -280.5t-340 -108.5zM688 1441q35 0 57 -25t16 -60q-5 -34 -35 -59t-65 -25q-36 0 -57.5 24.5t-16.5 59.5q6 35 35.5 60t65.5 25zM949 1441q35 0 57 -25t16 -60q-5 -34 -35 -59t-65 -25t-56 25t-16 59q6 35 35 60t64 25z" />
    <glyph glyph-name="igrave" unicode="&#xec;" horiz-adv-x="537" 
d="M239 0l163 1031h133l-163 -1031h-133zM436 1230l-148 278h165l114 -278h-131z" />
    <glyph glyph-name="iacute" unicode="&#xed;" horiz-adv-x="538" 
d="M157 0l163 1031h133l-163 -1031h-133zM342 1224l202 277h166l-236 -277h-132z" />
    <glyph glyph-name="icircumflex" unicode="&#xee;" horiz-adv-x="529" 
d="M198 0l163 1031h133l-163 -1031h-133zM478 1350l-97 -130h-146l217 278h102l125 -278h-147z" />
    <glyph glyph-name="idieresis" unicode="&#xef;" horiz-adv-x="547" 
d="M192 0l163 1031h133l-163 -1031h-133zM366 1407q35 0 57 -25t16 -60q-5 -34 -35 -59t-65 -25q-36 0 -57.5 24.5t-16.5 59.5q6 35 35.5 60t65.5 25zM627 1407q35 0 57 -25t16 -60q-5 -34 -35 -59t-65 -25t-56 25t-16 59q6 35 35 60t64 25z" />
    <glyph glyph-name="ntilde" unicode="&#xf1;" horiz-adv-x="1154" 
d="M140 0l163 1031h103l-5 -185q152 185 387 185q207 0 293 -108q99 -128 55 -408l-82 -515h-131l82 515q31 194 -20.5 290t-211.5 96q-164 0 -278.5 -112t-144.5 -302l-77 -487h-133zM723 1422q43 0 122 -27q63 -21 77 -21l2 40h118q-3 -77 -40 -118t-97 -41q-49 0 -123 26
q-59 20 -78 20q2 0 -4 -38h-113q3 76 39 117.5t97 41.5z" />
    <glyph glyph-name="ograve" unicode="&#xf2;" horiz-adv-x="1135" 
d="M564 -23q-230 0 -337.5 140t-69.5 384q40 248 192 389t382 141q233 0 338 -144.5t67 -385.5q-37 -238 -186 -381t-386 -143zM585 106q94 0 168 30.5t123 85.5t79.5 124.5t43.5 154.5q9 68 8.5 128t-20 110t-53.5 86t-91 56t-132 20q-178 0 -282.5 -109.5t-133.5 -290.5
q-7 -59 -7.5 -116t18.5 -107.5t51 -88.5t90.5 -60.5t137.5 -22.5zM708 1264l-148 278h165l114 -278h-131z" />
    <glyph glyph-name="oacute" unicode="&#xf3;" horiz-adv-x="1135" 
d="M564 -23q-230 0 -337.5 140t-69.5 384q40 248 192 389t382 141q233 0 338 -144.5t67 -385.5q-37 -238 -186 -381t-386 -143zM585 106q94 0 168 30.5t123 85.5t79.5 124.5t43.5 154.5q9 68 8.5 128t-20 110t-53.5 86t-91 56t-132 20q-178 0 -282.5 -109.5t-133.5 -290.5
q-7 -59 -7.5 -116t18.5 -107.5t51 -88.5t90.5 -60.5t137.5 -22.5zM648 1258l202 277h166l-236 -277h-132z" />
    <glyph glyph-name="ocircumflex" unicode="&#xf4;" horiz-adv-x="1135" 
d="M585 106q94 0 168 30.5t123 85.5t79.5 124.5t43.5 154.5q9 68 8.5 128t-20 110t-53.5 86t-91 56t-132 20q-178 0 -282.5 -109.5t-133.5 -290.5q-7 -59 -7.5 -116t18.5 -107.5t51 -88.5t90.5 -60.5t137.5 -22.5zM564 -23q-230 0 -337.5 140t-69.5 384q40 248 192 389
t382 141q233 0 338 -144.5t67 -385.5q-37 -238 -186 -381t-386 -143zM837 1233l-55 130l-96 -130h-146l217 278h102l125 -278h-147z" />
    <glyph glyph-name="otilde" unicode="&#xf5;" horiz-adv-x="1135" 
d="M585 106q94 0 168 30.5t123 85.5t79.5 124.5t43.5 154.5q9 68 8.5 128t-20 110t-53.5 86t-91 56t-132 20q-178 0 -282.5 -109.5t-133.5 -290.5q-7 -59 -7.5 -116t18.5 -107.5t51 -88.5t90.5 -60.5t137.5 -22.5zM564 -23q-230 0 -337.5 140t-69.5 384q40 248 192 389
t382 141q233 0 338 -144.5t67 -385.5q-37 -238 -186 -381t-386 -143zM693 1456q43 0 122 -27q63 -21 77 -21l2 40h118q-3 -77 -40 -118t-97 -41q-49 0 -123 26q-59 20 -78 20q2 0 -4 -38h-113q3 76 39 117.5t97 41.5z" />
    <glyph glyph-name="odieresis" unicode="&#xf6;" horiz-adv-x="1135" 
d="M564 -23q-230 0 -337.5 140t-69.5 384q40 248 192 389t382 141q233 0 338 -144.5t67 -385.5q-37 -238 -186 -381t-386 -143zM585 106q94 0 168 30.5t123 85.5t79.5 124.5t43.5 154.5q9 68 8.5 128t-20 110t-53.5 86t-91 56t-132 20q-178 0 -282.5 -109.5t-133.5 -290.5
q-7 -59 -7.5 -116t18.5 -107.5t51 -88.5t90.5 -60.5t137.5 -22.5zM680 1441q35 0 57 -25t16 -60q-5 -34 -35 -59t-65 -25q-36 0 -57.5 24.5t-16.5 59.5q6 35 35.5 60t65.5 25zM941 1441q35 0 57 -25t16 -60q-5 -34 -35 -59t-65 -25t-56 25t-16 59q6 35 35 60t64 25z" />
    <glyph glyph-name="divide" unicode="&#xf7;" horiz-adv-x="1069" 
d="M699 1035q43 0 67 -28t17 -71q-6 -41 -39 -69t-76 -28q-41 0 -67 28t-19 69q7 42 41.5 70.5t75.5 28.5zM191 578l19 125h871l-19 -125h-871zM604 438q43 0 67.5 -28t17.5 -69t-40.5 -70t-75.5 -29t-67 28.5t-18 70.5q7 41 41 69t75 28z" />
    <glyph glyph-name="oslash" unicode="&#xf8;" horiz-adv-x="1180" 
d="M295 501q-15 -96 2 -189q11 -46 24 -73l551 630q-67 32 -161 32q-135 0 -218 -57q-159 -106 -198 -343zM585 106q94 0 168 30.5t123 85.5t79.5 124.5t43.5 154.5q31 192 -44 297l-560 -643q67 -49 190 -49zM564 -23q-161 0 -264 70l-34 -38h-147l103 115
q-102 138 -65 377q40 248 192 389t382 141q138 0 235 -54l46 54h148l-107 -123q125 -143 83 -407q-37 -238 -186 -381t-386 -143z" />
    <glyph glyph-name="ugrave" unicode="&#xf9;" horiz-adv-x="1102" 
d="M529 -23q-434 0 -352 514l85 540h135l-85 -540q-11 -67 -13 -119t9 -104t37.5 -86t78 -55t126.5 -21q155 0 254 100t139 267l88 558h135l-163 -1031h-108l6 160q-68 -81 -163.5 -132t-208.5 -51zM664 1230l-148 278h165l114 -278h-131z" />
    <glyph glyph-name="uacute" unicode="&#xfa;" horiz-adv-x="1102" 
d="M529 -23q-434 0 -352 514l85 540h135l-85 -540q-11 -67 -13 -119t9 -104t37.5 -86t78 -55t126.5 -21q155 0 254 100t139 267l88 558h135l-163 -1031h-108l6 160q-68 -81 -163.5 -132t-208.5 -51zM648 1224l202 277h166l-236 -277h-132z" />
    <glyph glyph-name="ucircumflex" unicode="&#xfb;" horiz-adv-x="1102" 
d="M529 -23q-434 0 -352 514l85 540h135l-85 -540q-11 -67 -13 -119t9 -104t37.5 -86t78 -55t126.5 -21q155 0 254 100t139 267l88 558h135l-163 -1031h-108l6 160q-68 -81 -163.5 -132t-208.5 -51zM757 1329l-96 -130h-146l217 278h102l125 -278h-147z" />
    <glyph glyph-name="udieresis" unicode="&#xfc;" horiz-adv-x="1102" 
d="M529 -23q-434 0 -352 514l85 540h135l-85 -540q-11 -67 -13 -119t9 -104t37.5 -86t78 -55t126.5 -21q155 0 254 100t139 267l88 558h135l-163 -1031h-108l6 160q-68 -81 -163.5 -132t-208.5 -51zM628 1407q35 0 57 -25t16 -60q-5 -34 -35 -59t-65 -25q-36 0 -57.5 24.5
t-16.5 59.5q6 35 35.5 60t65.5 25zM889 1407q35 0 57 -25t16 -60q-5 -34 -35 -59t-65 -25t-56 25t-16 59q6 35 35 60t64 25z" />
    <glyph glyph-name="yacute" unicode="&#xfd;" horiz-adv-x="1211" 
d="M241 1031h156l238 -866l506 866h155l-943 -1571h-130l313 535zM686 1224l202 277h166l-236 -277h-132z" />
    <glyph glyph-name="ydieresis" unicode="&#xff;" horiz-adv-x="1211" 
d="M241 1031h156l238 -866l506 866h155l-943 -1571h-130l313 535zM718 1407q35 0 57 -25t16 -60q-5 -34 -35 -59t-65 -25q-36 0 -57.5 24.5t-16.5 59.5q6 35 35.5 60t65.5 25zM979 1407q35 0 57 -25t16 -60q-5 -34 -35 -59t-65 -25t-56 25t-16 59q6 35 35 60t64 25z" />
    <glyph glyph-name="Amacron" unicode="&#x100;" horiz-adv-x="1451" 
d="M917 1213l-387 -690h553zM885 1410h122l344 -1410h-142l-94 390h-659l-219 -390h-138zM1180 1640h-395l19 122h395z" />
    <glyph glyph-name="amacron" unicode="&#x101;" horiz-adv-x="1014" 
d="M440 101q176 0 277 72.5t126 232.5l15 91q-54 3 -96 3q-55 0 -111.5 -5t-124.5 -20.5t-120.5 -39.5t-92.5 -66t-49 -97q-13 -83 30 -127t146 -44zM405 -24q-150 0 -228.5 76t-56.5 216t148.5 226t315.5 113q116 16 233 14h60l15 90q8 107 -36 155.5t-145 48.5h-73
q-102 0 -179 -59t-100 -177h-136q20 155 144 258.5t291 103.5h73q165 0 241 -81t58 -228l-116 -731h-109l5 141q-148 -166 -405 -166zM938 1318h-395l19 122h395z" />
    <glyph glyph-name="Abreve" unicode="&#x102;" horiz-adv-x="1451" 
d="M917 1213l-387 -690h553zM885 1410h122l344 -1410h-142l-94 390h-659l-219 -390h-138zM1235 1857q-15 -137 -82 -217.5t-183 -80.5t-159 81t-13 217h121q-38 -173 71 -173q104 0 123 173h122z" />
    <glyph glyph-name="abreve" unicode="&#x103;" horiz-adv-x="1014" 
d="M440 101q176 0 277 72.5t126 232.5l15 91q-54 3 -96 3q-55 0 -111.5 -5t-124.5 -20.5t-120.5 -39.5t-92.5 -66t-49 -97q-13 -83 30 -127t146 -44zM405 -24q-150 0 -228.5 76t-56.5 216t148.5 226t315.5 113q116 16 233 14h60l15 90q8 107 -36 155.5t-145 48.5h-73
q-102 0 -179 -59t-100 -177h-136q20 155 144 258.5t291 103.5h73q165 0 241 -81t58 -228l-116 -731h-109l5 141q-148 -166 -405 -166zM993 1535q-15 -137 -82 -217.5t-183 -80.5t-159 81t-13 217h121q-38 -173 71 -173q104 0 123 173h122z" />
    <glyph glyph-name="Aogonek" unicode="&#x104;" horiz-adv-x="1451" 
d="M917 1213l-387 -690h553zM1115 390h-659l-219 -390h-138l786 1410h122l344 -1410h-12l2 -1q-2 0 -6 0.5t-7 0.5h-15q-96 -4 -189.5 -85t-109.5 -182q-6 -36 5.5 -50.5t40.5 -14.5q38 0 78.5 24.5t97.5 83.5l-25 -159q-90 -70 -192 -70q-35 0 -63 9t-51 28t-32.5 53.5
t-1.5 81.5q19 116 108.5 210t214.5 133z" />
    <glyph glyph-name="aogonek" unicode="&#x105;" horiz-adv-x="1016" 
d="M440 101q176 0 277 72.5t126 232.5l15 91q-54 3 -96 3q-55 0 -111.5 -5t-124.5 -20.5t-120.5 -39.5t-92.5 -66t-49 -97q-13 -83 30 -127t146 -44zM810 142q-148 -166 -405 -166q-150 0 -228.5 76t-56.5 216t148.5 226t315.5 113q116 16 233 14h60l15 90q8 107 -36 155.5
t-145 48.5h-73q-102 0 -179 -59t-100 -177h-136q20 155 144 258.5t291 103.5h73q165 0 241 -81t58 -228l-116 -731l2 -1q-2 0 -6 0.5t-7 0.5h-15q-94 -4 -180.5 -84.5t-102.5 -182.5q-6 -36 5.5 -50.5t40.5 -14.5q38 0 78.5 24.5t97.5 83.5l-26 -159q-88 -70 -192 -70
q-35 0 -63 9t-50.5 28t-32 53.5t-1.5 81.5q19 121 114.5 217t227.5 131l3 -2z" />
    <glyph glyph-name="Cacute" unicode="&#x106;" horiz-adv-x="1568" 
d="M789 -23q-195 0 -339 82q-150 85 -214 249.5t-27 397.5q24 154 81.5 277.5t135.5 206.5t177 139t205 80.5t222 24.5q261 0 411 -143t148 -409h-138q-1 205 -115.5 316t-325.5 111q-266 0 -443 -156t-223 -447q-47 -295 78 -450t387 -155q230 0 381.5 110.5t212.5 309.5
h139q-78 -265 -276 -404.5t-477 -139.5zM924 1603l202 277h166l-236 -277h-132z" />
    <glyph glyph-name="cacute" unicode="&#x107;" horiz-adv-x="1149" 
d="M579 -23q-231 0 -345.5 141t-77.5 374q47 245 210.5 392t386.5 147q192 0 307 -106.5t112 -282.5h-133q1 118 -82.5 187.5t-224.5 69.5q-165 0 -287.5 -111t-155.5 -299q-27 -174 57 -277t254 -103q144 0 251 69t144 188h133q-51 -171 -203 -280t-346 -109zM670 1258
l202 277h166l-236 -277h-132z" />
    <glyph glyph-name="Ccircumflex" unicode="&#x108;" horiz-adv-x="1568" 
d="M789 -23q-195 0 -339 82q-150 85 -214 249.5t-27 397.5q24 154 81.5 277.5t135.5 206.5t177 139t205 80.5t222 24.5q261 0 411 -143t148 -409h-138q-1 205 -115.5 316t-325.5 111q-266 0 -443 -156t-223 -447q-47 -295 78 -450t387 -155q230 0 381.5 110.5t212.5 309.5
h139q-78 -265 -276 -404.5t-477 -139.5zM1058 1708l-96 -130h-146l217 278h102l125 -278h-147z" />
    <glyph glyph-name="ccircumflex" unicode="&#x109;" horiz-adv-x="1149" 
d="M579 -23q-231 0 -345.5 141t-77.5 374q47 245 210.5 392t386.5 147q192 0 307 -106.5t112 -282.5h-133q1 118 -82.5 187.5t-224.5 69.5q-165 0 -287.5 -111t-155.5 -299q-27 -174 57 -277t254 -103q144 0 251 69t144 188h133q-51 -171 -203 -280t-346 -109zM804 1363
l-96 -130h-146l217 278h102l125 -278h-147z" />
    <glyph glyph-name="Cdotaccent" unicode="&#x10a;" horiz-adv-x="1568" 
d="M789 -23q-195 0 -339 82q-150 85 -214 249.5t-27 397.5q24 154 81.5 277.5t135.5 206.5t177 139t205 80.5t222 24.5q261 0 411 -143t148 -409h-138q-1 205 -115.5 316t-325.5 111q-266 0 -443 -156t-223 -447q-47 -295 78 -450t387 -155q230 0 381.5 110.5t212.5 309.5
h139q-78 -265 -276 -404.5t-477 -139.5zM1075 1803q37 0 59.5 -26t16.5 -63q-5 -36 -36.5 -62.5t-68.5 -26.5q-38 0 -60.5 26t-17.5 63q6 37 37.5 63t69.5 26z" />
    <glyph glyph-name="cdotaccent" unicode="&#x10b;" horiz-adv-x="1149" 
d="M579 -23q-231 0 -345.5 141t-77.5 374q47 245 210.5 392t386.5 147q192 0 307 -106.5t112 -282.5h-133q1 118 -82.5 187.5t-224.5 69.5q-165 0 -287.5 -111t-155.5 -299q-27 -174 57 -277t254 -103q144 0 251 69t144 188h133q-51 -171 -203 -280t-346 -109zM821 1458
q37 0 59.5 -26t16.5 -63q-5 -36 -36.5 -62.5t-68.5 -26.5q-38 0 -60.5 26t-17.5 63q6 37 37.5 63t69.5 26z" />
    <glyph glyph-name="Ccaron" unicode="&#x10c;" horiz-adv-x="1568" 
d="M789 -23q-195 0 -339 82q-150 85 -214 249.5t-27 397.5q24 154 81.5 277.5t135.5 206.5t177 139t205 80.5t222 24.5q261 0 411 -143t148 -409h-138q-1 205 -115.5 316t-325.5 111q-266 0 -443 -156t-223 -447q-47 -295 78 -450t387 -155q230 0 381.5 110.5t212.5 309.5
h139q-78 -265 -276 -404.5t-477 -139.5zM1091 1588h-101l-130 277h149l56 -130l95 130h146z" />
    <glyph glyph-name="ccaron" unicode="&#x10d;" horiz-adv-x="1149" 
d="M579 -23q-231 0 -345.5 141t-77.5 374q47 245 210.5 392t386.5 147q192 0 307 -106.5t112 -282.5h-133q1 118 -82.5 187.5t-224.5 69.5q-165 0 -287.5 -111t-155.5 -299q-27 -174 57 -277t254 -103q144 0 251 69t144 188h133q-51 -171 -203 -280t-346 -109zM837 1243
h-101l-130 277h149l56 -130l95 130h146z" />
    <glyph glyph-name="Dcaron" unicode="&#x10e;" horiz-adv-x="1450" 
d="M478 1282l-183 -1155h254q141 0 247.5 15t202.5 53.5t162.5 103t114.5 166.5t70 241q45 286 -115.5 431t-498.5 145h-254zM140 0l223 1410h389q258 0 433.5 -79.5t254.5 -239t43 -385.5q-81 -516 -512 -648q-195 -58 -442 -58h-389zM1175 1865l-215 -277h-101l-130 277
h149l56 -130l95 130h146z" />
    <glyph glyph-name="dcaron" unicode="&#x10f;" horiz-adv-x="1149" 
d="M581 111q73 0 143 26t128.5 74.5t100.5 124.5t57 170q29 181 -53.5 286t-231.5 105q-168 0 -286 -110.5t-145 -280.5q-18 -113 7 -201.5t97 -141t183 -52.5zM567 -23q-216 0 -330.5 150.5t-78.5 378.5q36 224 196.5 374.5t381.5 150.5q237 0 334 -184l89 563h134
l-223 -1410h-108l10 178q-166 -201 -405 -201zM1040 1551l-215 -277h-101l-130 277h149l55 -130l96 130h146z" />
    <glyph glyph-name="Emacron" unicode="&#x112;" horiz-adv-x="1273" 
d="M140 0l223 1410h991l-20 -129h-856l-80 -503h704l-20 -130h-704l-83 -521h878l-20 -127h-1013zM703 1640l19 122h395l-19 -122h-395z" />
    <glyph glyph-name="emacron" unicode="&#x113;" horiz-adv-x="1139" 
d="M1017 606q0 54 -15.5 104.5t-48 95t-89.5 71.5t-132 27q-139 0 -249.5 -82.5t-159.5 -215.5h694zM572 -23q-97 0 -175.5 30t-127.5 81t-81 120t-36 147t8 161q40 223 204.5 369t387.5 146q196 0 306 -125t92 -331l-3 -30l-10 -65h-847q-20 -176 58 -276t244 -100
q138 0 245 72t137 190h136q-46 -172 -198 -280.5t-340 -108.5zM978 1295h-395l19 122h395z" />
    <glyph glyph-name="Edotaccent" unicode="&#x116;" horiz-adv-x="1273" 
d="M140 0l223 1410h991l-20 -129h-856l-80 -503h704l-20 -130h-704l-83 -521h878l-20 -127h-1013zM927 1803q37 0 59.5 -26t16.5 -63q-5 -36 -36.5 -62.5t-68.5 -26.5q-38 0 -60.5 26t-17.5 63q6 37 37.5 63t69.5 26z" />
    <glyph glyph-name="edotaccent" unicode="&#x117;" horiz-adv-x="1139" 
d="M1017 606q0 54 -15.5 104.5t-48 95t-89.5 71.5t-132 27q-139 0 -249.5 -82.5t-159.5 -215.5h694zM572 -23q-97 0 -175.5 30t-127.5 81t-81 120t-36 147t8 161q40 223 204.5 369t387.5 146q196 0 306 -125t92 -331l-3 -30l-10 -65h-847q-20 -176 58 -276t244 -100
q138 0 245 72t137 190h136q-46 -172 -198 -280.5t-340 -108.5zM807 1458q37 0 59.5 -26t16.5 -63q-5 -36 -36.5 -62.5t-68.5 -26.5q-38 0 -60.5 26t-17.5 63q6 37 37.5 63t69.5 26z" />
    <glyph glyph-name="Eogonek" unicode="&#x118;" horiz-adv-x="1273" 
d="M140 0l223 1410h991l-20 -129h-856l-80 -503h704l-20 -130h-704l-83 -521h878l-20 -127h-72q-89 -21 -165 -96t-91 -165q-6 -36 5.5 -50.5t40.5 -14.5q38 0 78.5 24.5t97.5 83.5l-25 -159q-90 -70 -192 -70q-35 0 -63 9t-51 28t-32.5 53.5t-1.5 81.5q13 80 61.5 152
t122.5 123h-726z" />
    <glyph glyph-name="eogonek" unicode="&#x119;" horiz-adv-x="1139" 
d="M1017 606q0 54 -15.5 104.5t-48 95t-89.5 71.5t-132 27q-139 0 -249.5 -82.5t-159.5 -215.5h694zM472 -14q-124 23 -204 104t-105 191t-3 235q40 223 204.5 369t387.5 146q196 0 306 -125t92 -331l-3 -30l-10 -65h-847q-20 -176 58 -276t244 -100q138 0 245 72t137 190
h136q-41 -156 -172.5 -261t-299.5 -124q-63 -39 -107.5 -98t-54.5 -123q-6 -36 5.5 -50.5t40.5 -14.5q38 0 78.5 24.5t97.5 83.5l-25 -159q-90 -70 -192 -70q-35 0 -63 9t-51 28t-32.5 53.5t-1.5 81.5q22 136 139 240z" />
    <glyph glyph-name="Ecaron" unicode="&#x11a;" horiz-adv-x="1273" 
d="M140 0l223 1410h991l-20 -129h-856l-80 -503h704l-20 -130h-704l-83 -521h878l-20 -127h-1013zM943 1588h-101l-130 277h149l56 -130l95 130h146z" />
    <glyph glyph-name="ecaron" unicode="&#x11b;" horiz-adv-x="1139" 
d="M1017 606q0 54 -15.5 104.5t-48 95t-89.5 71.5t-132 27q-139 0 -249.5 -82.5t-159.5 -215.5h694zM572 -23q-97 0 -175.5 30t-127.5 81t-81 120t-36 147t8 161q40 223 204.5 369t387.5 146q196 0 306 -125t92 -331l-3 -30l-10 -65h-847q-20 -176 58 -276t244 -100
q138 0 245 72t137 190h136q-46 -172 -198 -280.5t-340 -108.5zM1038 1520l-215 -277h-101l-130 277h149l56 -130l95 130h146z" />
    <glyph glyph-name="Gcircumflex" unicode="&#x11c;" horiz-adv-x="1569" 
d="M776 -33q-315 0 -467.5 197t-98.5 535q54 344 271 539.5t543 195.5q178 0 306 -59t195.5 -178.5t61.5 -290.5h-128q-6 202 -119.5 301t-335.5 99q-275 0 -448.5 -159t-218.5 -448q-46 -287 76.5 -447.5t386.5 -160.5q225 0 380.5 118.5t209.5 328.5h-554l21 129h718
l-106 -667h-121l26 250q-41 -54 -94 -101t-126 -89.5t-170.5 -67.5t-207.5 -25zM1122 1578l-55 130l-96 -130h-146l217 278h102l125 -278h-147z" />
    <glyph glyph-name="gcircumflex" unicode="&#x11d;" horiz-adv-x="1215" 
d="M582 111q98 0 187 44t155.5 135.5t86.5 215.5q29 181 -54 286t-232 105q-168 0 -286 -110.5t-145 -280.5q-18 -113 7.5 -201.5t97.5 -141t183 -52.5zM966 169q-168 -192 -399 -192q-216 0 -330.5 150.5t-78.5 378.5q36 229 197 377t381 148q238 0 334 -182l42 182h124
l-167 -1056q-46 -290 -202 -415q-122 -100 -352 -100t-319 100q-100 104 -83 318h136v-36q3 -69 3 -73q13 -89 76.5 -134.5t207.5 -45.5t222.5 46t118.5 136t58 204zM905 1199l-55 130l-96 -130h-146l217 278h102l125 -278h-147z" />
    <glyph glyph-name="Gbreve" unicode="&#x11e;" horiz-adv-x="1569" 
d="M776 -33q-315 0 -467.5 197t-98.5 535q54 344 271 539.5t543 195.5q178 0 306 -59t195.5 -178.5t61.5 -290.5h-128q-6 202 -119.5 301t-335.5 99q-275 0 -448.5 -159t-218.5 -448q-46 -287 76.5 -447.5t386.5 -160.5q225 0 380.5 118.5t209.5 328.5h-554l21 129h718
l-106 -667h-121l26 250q-41 -54 -94 -101t-126 -89.5t-170.5 -67.5t-207.5 -25zM1310 1857q-15 -137 -82 -217.5t-183 -80.5t-159 81t-13 217h121q-38 -173 71 -173q104 0 123 173h122z" />
    <glyph glyph-name="gbreve" unicode="&#x11f;" horiz-adv-x="1215" 
d="M582 111q98 0 187 44t155.5 135.5t86.5 215.5q29 181 -54 286t-232 105q-168 0 -286 -110.5t-145 -280.5q-18 -113 7.5 -201.5t97.5 -141t183 -52.5zM966 169q-168 -192 -399 -192q-216 0 -330.5 150.5t-78.5 378.5q36 229 197 377t381 148q238 0 334 -182l42 182h124
l-167 -1056q-46 -290 -202 -415q-122 -100 -352 -100t-319 100q-100 104 -83 318h136v-36q3 -69 3 -73q13 -89 76.5 -134.5t207.5 -45.5t222.5 46t118.5 136t58 204zM1093 1478q-15 -137 -82 -217.5t-183 -80.5t-159 81t-13 217h121q-38 -173 71 -173q104 0 123 173h122z
" />
    <glyph glyph-name="Gdotaccent" unicode="&#x120;" horiz-adv-x="1569" 
d="M776 -33q-315 0 -467.5 197t-98.5 535q54 344 271 539.5t543 195.5q178 0 306 -59t195.5 -178.5t61.5 -290.5h-128q-6 202 -119.5 301t-335.5 99q-275 0 -448.5 -159t-218.5 -448q-46 -287 76.5 -447.5t386.5 -160.5q225 0 380.5 118.5t209.5 328.5h-554l21 129h718
l-106 -667h-121l26 250q-41 -54 -94 -101t-126 -89.5t-170.5 -67.5t-207.5 -25zM1084 1803q37 0 59.5 -26t16.5 -63q-5 -36 -36.5 -62.5t-68.5 -26.5q-38 0 -60.5 26t-17.5 63q6 37 37.5 63t69.5 26z" />
    <glyph glyph-name="gdotaccent" unicode="&#x121;" horiz-adv-x="1215" 
d="M582 111q98 0 187 44t155.5 135.5t86.5 215.5q29 181 -54 286t-232 105q-168 0 -286 -110.5t-145 -280.5q-18 -113 7.5 -201.5t97.5 -141t183 -52.5zM966 169q-168 -192 -399 -192q-216 0 -330.5 150.5t-78.5 378.5q36 229 197 377t381 148q238 0 334 -182l42 182h124
l-167 -1056q-46 -290 -202 -415q-122 -100 -352 -100t-319 100q-100 104 -83 318h136v-36q3 -69 3 -73q13 -89 76.5 -134.5t207.5 -45.5t222.5 46t118.5 136t58 204zM867 1424q37 0 59.5 -26t16.5 -63q-5 -36 -36.5 -62.5t-68.5 -26.5q-38 0 -60.5 26t-17.5 63q6 37 37.5 63
t69.5 26z" />
    <glyph glyph-name="Hcircumflex" unicode="&#x124;" horiz-adv-x="1399" 
d="M140 0l223 1410h134l-97 -613h854l97 613h130l-223 -1410h-130l106 671h-854l-106 -671h-134zM968 1708l-96 -130h-146l217 278h102l125 -278h-147z" />
    <glyph glyph-name="hcircumflex" unicode="&#x125;" horiz-adv-x="1154" 
d="M140 0l223 1410h133l-88 -555q151 176 380 176q207 0 293 -108q99 -128 55 -408l-82 -515h-131l82 515q31 194 -20.5 290t-211.5 96q-164 0 -278.5 -112t-144.5 -302l-77 -487h-133zM822 1387l-97 -130h-146l217 278h102l125 -278h-147z" />
    <glyph glyph-name="Idotaccent" unicode="&#x130;" horiz-adv-x="474" 
d="M171 0l222 1403h131l-222 -1403h-131zM522 1803q37 0 59.5 -26t16.5 -63q-5 -36 -36.5 -62.5t-68.5 -26.5q-38 0 -60.5 26t-17.5 63q6 37 37.5 63t69.5 26z" />
    <glyph glyph-name="dotlessi" unicode="&#x131;" horiz-adv-x="488" 
d="M177 0l163 1031h133l-163 -1031h-133z" />
    <glyph glyph-name="IJ" unicode="&#x132;" horiz-adv-x="1850" 
d="M172 0l222 1403h131l-222 -1403h-131zM764 639q-50 -265 49 -405t323 -140q463 0 544 512l127 804h127l-127 -804q-49 -307 -227.5 -473t-463.5 -166q-284 0 -412 178.5t-70 493.5h130z" />
    <glyph glyph-name="ij" unicode="&#x133;" horiz-adv-x="955" 
d="M176 0l163 1031h133l-163 -1031h-133zM422 1128q-53 0 -73.5 29.5t-13.5 71.5q6 41 36 69.5t82 28.5q102 0 86 -98q-18 -101 -117 -101zM290 -412h81q46 2 78.5 -0.5t56.5 2t39 6.5t25 13t14.5 21.5t9 32t7.5 44.5q3 24 5 37l204 1287h136l-206 -1287q-11 -71 -19 -110
t-21 -76t-26.5 -52.5t-38.5 -28.5t-54 -15.5t-77 -2.5q-24 0 -102 1.5t-132 1.5zM894 1128q-54 0 -74.5 29.5t-13.5 71.5q6 40 36 69t83 29q56 0 73.5 -28.5t11.5 -69.5q-18 -101 -116 -101z" />
    <glyph glyph-name="uni0136" unicode="&#x136;" horiz-adv-x="1363" 
d="M140 -2l223 1412h136l-114 -721l918 721h212l-803 -626l594 -784h-193l-513 697l-244 -190l-80 -509h-136zM537 -397h-129l165 313h155z" />
    <glyph glyph-name="uni0137" unicode="&#x137;" horiz-adv-x="1212" 
d="M908 -5l-347 484l-241 -191l-46 -290h-134l223 1412h134l-149 -942l709 563h197l-581 -463l414 -573h-179zM537 -397h-129l165 313h155z" />
    <glyph glyph-name="Lacute" unicode="&#x139;" horiz-adv-x="1277" 
d="M387 1410h133l-203 -1286h860l-20 -124h-993zM393 1620l202 277h166l-236 -277h-132z" />
    <glyph glyph-name="lacute" unicode="&#x13a;" horiz-adv-x="465" 
d="M163 0l223 1410h134l-223 -1410h-134zM366 1605l202 277h166l-236 -277h-132z" />
    <glyph glyph-name="uni013B" unicode="&#x13b;" horiz-adv-x="1253" 
d="M363 1410h133l-203 -1286h860l-20 -124h-993zM537 -397h-129l165 313h155z" />
    <glyph glyph-name="uni013C" unicode="&#x13c;" horiz-adv-x="452" 
d="M175 0l223 1410h134l-223 -1410h-134zM113 -397h-129l165 313h155z" />
    <glyph glyph-name="Lcaron" unicode="&#x13d;" horiz-adv-x="1276" 
d="M386 1410h133l-203 -1286h860l-20 -124h-993zM559 1605h-101l-130 277h149l56 -130l95 130h146z" />
    <glyph glyph-name="lcaron" unicode="&#x13e;" horiz-adv-x="458" 
d="M162 0l223 1410h134l-223 -1410h-134zM532 1590h-101l-130 277h149l56 -130l95 130h146z" />
    <glyph glyph-name="Nacute" unicode="&#x143;" horiz-adv-x="1342" 
d="M140 0l222 1404h120l630 -1165l184 1165h127l-222 -1404h-114l-632 1175l-186 -1175h-129zM816 1603l202 277h166l-236 -277h-132z" />
    <glyph glyph-name="nacute" unicode="&#x144;" horiz-adv-x="1154" 
d="M140 0l163 1031h103l-5 -185q152 185 387 185q207 0 293 -108q99 -128 55 -408l-82 -515h-131l82 515q31 194 -20.5 290t-211.5 96q-164 0 -278.5 -112t-144.5 -302l-77 -487h-133zM678 1224l202 277h166l-236 -277h-132z" />
    <glyph glyph-name="uni0145" unicode="&#x145;" horiz-adv-x="1342" 
d="M140 0l222 1404h120l630 -1165l184 1165h127l-222 -1404h-114l-632 1175l-186 -1175h-129zM537 -397h-129l165 313h155z" />
    <glyph glyph-name="uni0146" unicode="&#x146;" horiz-adv-x="1154" 
d="M140 0l163 1031h103l-5 -185q152 185 387 185q207 0 293 -108q99 -128 55 -408l-82 -515h-131l82 515q31 194 -20.5 290t-211.5 96q-164 0 -278.5 -112t-144.5 -302l-77 -487h-133zM537 -397h-129l165 313h155z" />
    <glyph glyph-name="Ncaron" unicode="&#x147;" horiz-adv-x="1342" 
d="M140 0l222 1404h120l630 -1165l184 1165h127l-222 -1404h-114l-632 1175l-186 -1175h-129zM983 1588h-101l-130 277h149l56 -130l95 130h146z" />
    <glyph glyph-name="ncaron" unicode="&#x148;" horiz-adv-x="1154" 
d="M140 0l163 1031h103l-5 -185q152 185 387 185q207 0 293 -108q99 -128 55 -408l-82 -515h-131l82 515q31 194 -20.5 290t-211.5 96q-164 0 -278.5 -112t-144.5 -302l-77 -487h-133zM845 1209h-101l-130 277h149l56 -130l95 130h146z" />
    <glyph glyph-name="Omacron" unicode="&#x14c;" horiz-adv-x="1586" 
d="M786 -33q-331 0 -480.5 197t-95.5 537q54 342 264.5 537.5t543.5 195.5q224 0 367 -91t195 -254.5t17 -387.5q-54 -343 -268.5 -538.5t-542.5 -195.5zM806 94q273 0 442.5 158.5t215.5 448.5q47 295 -71 450t-395 155q-276 0 -443 -155t-214 -450q-47 -294 72 -450.5
t393 -156.5zM874 1640l19 122h395l-19 -122h-395z" />
    <glyph glyph-name="omacron" unicode="&#x14d;" horiz-adv-x="1135" 
d="M564 -23q-230 0 -337.5 140t-69.5 384q40 248 192 389t382 141q233 0 338 -144.5t67 -385.5q-37 -238 -186 -381t-386 -143zM585 106q94 0 168 30.5t123 85.5t79.5 124.5t43.5 154.5q9 68 8.5 128t-20 110t-53.5 86t-91 56t-132 20q-178 0 -282.5 -109.5t-133.5 -290.5
q-7 -59 -7.5 -116t18.5 -107.5t51 -88.5t90.5 -60.5t137.5 -22.5zM575 1295l19 122h395l-19 -122h-395z" />
    <glyph glyph-name="Ohungarumlaut" unicode="&#x150;" horiz-adv-x="1586" 
d="M786 -33q-331 0 -480.5 197t-95.5 537q54 342 264.5 537.5t543.5 195.5q224 0 367 -91t195 -254.5t17 -387.5q-54 -343 -268.5 -538.5t-542.5 -195.5zM806 94q273 0 442.5 158.5t215.5 448.5q47 295 -71 450t-395 155q-276 0 -443 -155t-214 -450q-47 -294 72 -450.5
t393 -156.5zM802 1597l202 277h164l-235 -277h-131zM1011 1597l200 277h166l-236 -277h-130z" />
    <glyph glyph-name="ohungarumlaut" unicode="&#x151;" horiz-adv-x="1135" 
d="M564 -23q-230 0 -337.5 140t-69.5 384q40 248 192 389t382 141q233 0 338 -144.5t67 -385.5q-37 -238 -186 -381t-386 -143zM585 106q94 0 168 30.5t123 85.5t79.5 124.5t43.5 154.5q9 68 8.5 128t-20 110t-53.5 86t-91 56t-132 20q-178 0 -282.5 -109.5t-133.5 -290.5
q-7 -59 -7.5 -116t18.5 -107.5t51 -88.5t90.5 -60.5t137.5 -22.5zM574 1252l202 277h164l-235 -277h-131zM783 1252l200 277h166l-236 -277h-130z" />
    <glyph glyph-name="OE" unicode="&#x152;" horiz-adv-x="2492" 
d="M806 94q273 0 442.5 158.5t215.5 448.5q47 295 -71 450t-395 155q-276 0 -443 -155t-214 -450q-47 -294 72 -450.5t393 -156.5zM786 -33q-331 0 -480.5 197t-95.5 537q54 342 264.5 537.5t543.5 195.5q194 0 327 -68t200 -196l38 240h990l-20 -129h-855l-80 -503h704
l-20 -130h-704l-83 -521h877l-20 -127h-1012l37 235q-109 -130 -264.5 -199t-346.5 -69z" />
    <glyph glyph-name="oe" unicode="&#x153;" horiz-adv-x="1971" 
d="M585 106q92 0 166 30t123 84t79.5 122t44.5 152l3 17q15 83 4 154t-42 123.5t-95.5 82.5t-156.5 30q-135 0 -218 -57q-159 -106 -198 -343q-15 -96 2 -189q41 -206 288 -206zM1845 606q0 54 -15.5 104.5t-48 95t-89.5 71.5t-132 27q-138 0 -242.5 -81.5t-153.5 -216.5
h681zM564 -23q-230 0 -337.5 140t-69.5 384q40 248 192 389t382 141q149 0 247 -61.5t140 -174.5q81 111 200.5 173.5t261.5 62.5q196 0 306 -125t92 -331l-3 -30l-10 -65h-833l-2 -10q-16 -172 62 -269t241 -97q138 0 245 72t137 190h136q-46 -172 -198 -280.5t-340 -108.5
q-145 0 -242.5 63t-143.5 171q-76 -112 -193.5 -173t-269.5 -61z" />
    <glyph glyph-name="Racute" unicode="&#x154;" horiz-adv-x="1322" 
d="M478 1281l-87 -551h416q202 0 300 61.5t122 212.5q12 77 -2 129.5t-42.5 81.5t-89.5 44t-116 18.5t-148 3.5h-353zM275 0h-135l223 1410h488q187 0 299 -32q128 -36 181.5 -126.5t28.5 -247.5q-18 -113 -84 -203.5t-171 -133.5q31 -17 53.5 -40.5t36 -55t22 -64t10 -75.5
t0.5 -79.5t-7 -87t-11 -87t-13.5 -91t-12.5 -87.5h-127q15 92 22.5 147t14 122t4.5 106t-9.5 81t-24.5 66t-44.5 42.5t-66.5 27.5q-63 12 -169 13q-106 2 -264 0l-148 -1zM923 1603h-132l202 277h166z" />
    <glyph glyph-name="racute" unicode="&#x155;" horiz-adv-x="703" 
d="M140 0l163 1031h108l-10 -186q163 197 418 184l-10 -129q-176 14 -301.5 -99t-157.5 -314l-77 -487h-133zM443 1224l202 277h166l-236 -277h-132z" />
    <glyph glyph-name="uni0156" unicode="&#x156;" horiz-adv-x="1322" 
d="M478 1281l-87 -551h416q202 0 300 61.5t122 212.5q12 77 -2 129.5t-42.5 81.5t-89.5 44t-116 18.5t-148 3.5h-353zM275 0h-135l223 1410h488q187 0 299 -32q128 -36 181.5 -126.5t28.5 -247.5q-18 -113 -84 -203.5t-171 -133.5q31 -17 53.5 -40.5t36 -55t22 -64t10 -75.5
t0.5 -79.5t-7 -87t-11 -87t-13.5 -91t-12.5 -87.5h-127q15 92 22.5 147t14 122t4.5 106t-9.5 81t-24.5 66t-44.5 42.5t-66.5 27.5q-63 12 -169 13q-106 2 -264 0l-148 -1zM728 -84l-191 -313h-129l165 313h155z" />
    <glyph glyph-name="uni0157" unicode="&#x157;" horiz-adv-x="720" 
d="M157 0l163 1031h108l-10 -186q163 197 418 184l-10 -129q-176 14 -301.5 -99t-157.5 -314l-77 -487h-133zM111 -397h-129l165 313h155z" />
    <glyph glyph-name="Rcaron" unicode="&#x158;" horiz-adv-x="1322" 
d="M478 1281l-87 -551h416q202 0 300 61.5t122 212.5q12 77 -2 129.5t-42.5 81.5t-89.5 44t-116 18.5t-148 3.5h-353zM275 0h-135l223 1410h488q187 0 299 -32q128 -36 181.5 -126.5t28.5 -247.5q-18 -113 -84 -203.5t-171 -133.5q31 -17 53.5 -40.5t36 -55t22 -64t10 -75.5
t0.5 -79.5t-7 -87t-11 -87t-13.5 -91t-12.5 -87.5h-127q15 92 22.5 147t14 122t4.5 106t-9.5 81t-24.5 66t-44.5 42.5t-66.5 27.5q-63 12 -169 13q-106 2 -264 0l-148 -1zM1173 1865l-215 -277h-101l-130 277h149l56 -130l95 130h146z" />
    <glyph glyph-name="rcaron" unicode="&#x159;" horiz-adv-x="703" 
d="M140 0l163 1031h108l-10 -186q163 197 418 184l-10 -129q-176 14 -301.5 -99t-157.5 -314l-77 -487h-133zM610 1209h-101l-130 277h149l56 -130l95 130h146z" />
    <glyph glyph-name="Sacute" unicode="&#x15a;" horiz-adv-x="1369" 
d="M719 -33q-127 0 -231.5 31.5t-179.5 91t-106.5 156t-8.5 217.5h130l-2 -73q-2 -45 8 -86q23 -91 125 -150.5t287 -59.5q97 0 175 19.5t123.5 47t77 63.5t43.5 63t16 52q16 90 -18 141q-60 96 -280 150q-207 52 -271 74q-186 66 -239 176q-38 80 -17 193q22 110 109 193
t213 125.5t271 42.5q247 0 372 -130t69 -355h-136q19 61 15.5 109.5t-18.5 86t-44.5 65t-62 46t-72.5 29.5t-75 16t-70 5q-173 0 -295.5 -68t-143.5 -169q-16 -81 18 -134q64 -93 279 -143q209 -50 290 -82q185 -73 227 -203q23 -73 6 -169q-21 -111 -105.5 -196.5
t-209 -130t-269.5 -44.5zM822 1603l202 277h166l-236 -277h-132z" />
    <glyph glyph-name="sacute" unicode="&#x15b;" horiz-adv-x="990" 
d="M490 -23q-33 0 -67 3.5t-72.5 11t-72.5 22t-66.5 34t-54.5 49.5t-35.5 66t-12 85.5t18.5 107.5h137q-15 -44 -15.5 -81.5t10.5 -63.5t31.5 -46t46 -32.5t56.5 -20t59.5 -10.5t58.5 -3q133 0 221 40.5t99 125.5q11 69 -24 106q-37 37 -102 57.5t-172 39.5q-89 18 -165 44
q-93 32 -136.5 95t-23.5 170q21 121 151.5 199t312.5 78q33 0 66 -3.5t71 -11t70.5 -21.5t63.5 -33.5t52 -49t33 -65.5t10 -85.5t-19 -107.5h-137q15 44 15.5 81t-10 62t-31 44.5t-45 30.5t-56 18t-59 9.5t-58.5 2.5q-122 0 -205 -39t-94 -111q-10 -59 24 -90
q26 -23 74 -41.5t84.5 -26.5t113.5 -23q96 -21 169 -47q192 -75 159 -282q-12 -76 -54.5 -133t-107.5 -90t-143 -49t-169 -16zM567 1224l202 277h166l-236 -277h-132z" />
    <glyph glyph-name="Scircumflex" unicode="&#x15c;" horiz-adv-x="1369" 
d="M719 -33q-127 0 -231.5 31.5t-179.5 91t-106.5 156t-8.5 217.5h130l-2 -73q-2 -45 8 -86q23 -91 125 -150.5t287 -59.5q97 0 175 19.5t123.5 47t77 63.5t43.5 63t16 52q16 90 -18 141q-60 96 -280 150q-207 52 -271 74q-186 66 -239 176q-38 80 -17 193q22 110 109 193
t213 125.5t271 42.5q247 0 372 -130t69 -355h-136q19 61 15.5 109.5t-18.5 86t-44.5 65t-62 46t-72.5 29.5t-75 16t-70 5q-173 0 -295.5 -68t-143.5 -169q-16 -81 18 -134q64 -93 279 -143q209 -50 290 -82q185 -73 227 -203q23 -73 6 -169q-21 -111 -105.5 -196.5
t-209 -130t-269.5 -44.5zM956 1708l-96 -130h-146l217 278h102l125 -278h-147z" />
    <glyph glyph-name="scircumflex" unicode="&#x15d;" horiz-adv-x="990" 
d="M490 -23q-33 0 -67 3.5t-72.5 11t-72.5 22t-66.5 34t-54.5 49.5t-35.5 66t-12 85.5t18.5 107.5h137q-15 -44 -15.5 -81.5t10.5 -63.5t31.5 -46t46 -32.5t56.5 -20t59.5 -10.5t58.5 -3q133 0 221 40.5t99 125.5q11 69 -24 106q-37 37 -102 57.5t-172 39.5q-89 18 -165 44
q-93 32 -136.5 95t-23.5 170q21 121 151.5 199t312.5 78q33 0 66 -3.5t71 -11t70.5 -21.5t63.5 -33.5t52 -49t33 -65.5t10 -85.5t-19 -107.5h-137q15 44 15.5 81t-10 62t-31 44.5t-45 30.5t-56 18t-59 9.5t-58.5 2.5q-122 0 -205 -39t-94 -111q-10 -59 24 -90
q26 -23 74 -41.5t84.5 -26.5t113.5 -23q96 -21 169 -47q192 -75 159 -282q-12 -76 -54.5 -133t-107.5 -90t-143 -49t-169 -16zM701 1329l-96 -130h-146l217 278h102l125 -278h-147z" />
    <glyph glyph-name="Scedilla" unicode="&#x15e;" horiz-adv-x="1369" 
d="M656 -31q-115 8 -208 42.5t-158.5 94.5t-92 152t-4.5 205h130l-2 -73q-2 -45 8 -86q23 -91 125 -150.5t287 -59.5q97 0 175 19.5t123.5 47t77 63.5t43.5 63t16 52q16 90 -18 141q-60 96 -280 150q-207 52 -271 74q-186 66 -239 176q-38 80 -17 193q22 110 109 193
t213 125.5t271 42.5q247 0 372 -130t69 -355h-136q19 61 15.5 109.5t-18.5 86t-44.5 65t-62 46t-72.5 29.5t-75 16t-70 5q-173 0 -295.5 -68t-143.5 -169q-16 -81 18 -134q64 -93 279 -143q209 -50 290 -82q185 -73 227 -203q23 -73 6 -169q-29 -153 -169.5 -251.5
t-337.5 -116.5l-50 -70q147 -35 124 -176q-15 -94 -94.5 -142.5t-180.5 -48.5q-88 0 -131 33l21 134q33 -30 58.5 -40t72.5 -10q113 0 125 74q5 36 -22.5 55t-96.5 19q-36 0 -89 -6z" />
    <glyph glyph-name="scedilla" unicode="&#x15f;" horiz-adv-x="990" 
d="M428 -20q-38 3 -73.5 10.5t-73 21.5t-68 34t-55 49.5t-37 66t-11.5 86.5t18 108h137q-15 -44 -15.5 -81.5t10.5 -63.5t31.5 -46t46 -32.5t56.5 -20t59.5 -10.5t58.5 -3q133 0 221 40.5t99 125.5q11 69 -24 106q-37 37 -102 57.5t-172 39.5q-89 18 -165 44
q-93 32 -136.5 95t-23.5 170q21 121 151.5 199t312.5 78q33 0 66 -3.5t71 -11t70.5 -21.5t63.5 -33.5t52 -49t33 -65.5t10 -85.5t-19 -107.5h-137q15 44 15.5 81t-10 62t-31 44.5t-45 30.5t-56 18t-59 9.5t-58.5 2.5q-122 0 -205 -39t-94 -111q-10 -59 24 -90
q26 -23 74 -41.5t84.5 -26.5t113.5 -23q96 -21 169 -47q192 -75 159 -282q-21 -132 -128 -202t-268 -83l-50 -70q147 -35 124 -176q-15 -94 -94.5 -142.5t-180.5 -48.5q-88 0 -131 33l21 134q33 -30 58.5 -40t72.5 -10q113 0 125 74q5 36 -22.5 55t-96.5 19q-36 0 -89 -6z
" />
    <glyph glyph-name="Scaron" unicode="&#x160;" horiz-adv-x="1369" 
d="M719 -33q-127 0 -231.5 31.5t-179.5 91t-106.5 156t-8.5 217.5h130l-2 -73q-2 -45 8 -86q23 -91 125 -150.5t287 -59.5q97 0 175 19.5t123.5 47t77 63.5t43.5 63t16 52q16 90 -18 141q-60 96 -280 150q-207 52 -271 74q-186 66 -239 176q-38 80 -17 193q22 110 109 193
t213 125.5t271 42.5q247 0 372 -130t69 -355h-136q19 61 15.5 109.5t-18.5 86t-44.5 65t-62 46t-72.5 29.5t-75 16t-70 5q-173 0 -295.5 -68t-143.5 -169q-16 -81 18 -134q64 -93 279 -143q209 -50 290 -82q185 -73 227 -203q23 -73 6 -169q-21 -111 -105.5 -196.5
t-209 -130t-269.5 -44.5zM989 1588h-101l-130 277h149l56 -130l95 130h146z" />
    <glyph glyph-name="scaron" unicode="&#x161;" horiz-adv-x="990" 
d="M490 -23q-33 0 -67 3.5t-72.5 11t-72.5 22t-66.5 34t-54.5 49.5t-35.5 66t-12 85.5t18.5 107.5h137q-15 -44 -15.5 -81.5t10.5 -63.5t31.5 -46t46 -32.5t56.5 -20t59.5 -10.5t58.5 -3q133 0 221 40.5t99 125.5q11 69 -24 106q-37 37 -102 57.5t-172 39.5q-89 18 -165 44
q-93 32 -136.5 95t-23.5 170q21 121 151.5 199t312.5 78q33 0 66 -3.5t71 -11t70.5 -21.5t63.5 -33.5t52 -49t33 -65.5t10 -85.5t-19 -107.5h-137q15 44 15.5 81t-10 62t-31 44.5t-45 30.5t-56 18t-59 9.5t-58.5 2.5q-122 0 -205 -39t-94 -111q-10 -59 24 -90
q26 -23 74 -41.5t84.5 -26.5t113.5 -23q96 -21 169 -47q192 -75 159 -282q-12 -76 -54.5 -133t-107.5 -90t-143 -49t-169 -16zM734 1209h-101l-130 277h149l56 -130l95 130h146z" />
    <glyph glyph-name="uni0162" unicode="&#x162;" horiz-adv-x="1297" 
d="M645 -67q146 -34 125 -176q-10 -63 -54 -107.5t-100.5 -64t-121.5 -19.5q-87 0 -131 33l22 134q32 -30 58 -40t73 -10q113 0 125 74q5 36 -23 55t-97 19q-37 0 -89 -6l156 224h4l195 1233h-485l20 128h1098l-20 -128h-482l-195 -1233h5z" />
    <glyph glyph-name="uni0163" unicode="&#x163;" horiz-adv-x="708" 
d="M361 19q-46 23 -59.5 81.5t4.5 181.5l98 622h-172l20 127h172l40 251h131l-40 -251h236l-20 -127h-236l-98 -622q-14 -66 -10.5 -100.5t27 -45t92.5 -10.5l105 2l-20 -128q-20 0 -70.5 -1t-74.5 0l-46 -66q147 -35 124 -176q-15 -94 -94.5 -142.5t-180.5 -48.5
q-88 0 -131 33l21 134q33 -30 58.5 -40t72.5 -10q113 0 125 74q5 36 -22.5 55t-96.5 19q-36 0 -89 -6z" />
    <glyph glyph-name="Tcaron" unicode="&#x164;" horiz-adv-x="1297" 
d="M584 0l203 1282h-485l20 128h1098l-20 -128h-482l-203 -1282h-131zM949 1588h-101l-130 277h149l56 -130l95 130h146z" />
    <glyph glyph-name="tcaron" unicode="&#x165;" horiz-adv-x="708" 
d="M631 0q-22 0 -64 -1q-45 -1 -82.5 -0.5t-68 5t-54 15t-38.5 30.5t-22.5 50.5t-6.5 76t11 106.5l98 622h-172l20 127h172l40 251h131l-40 -251h236l-20 -127h-236l-98 -622q-14 -66 -10.5 -100.5t27 -45t92.5 -10.5l105 2zM610 1460h-101l-130 277h149l56 -130l95 130h146
z" />
    <glyph glyph-name="Utilde" unicode="&#x168;" horiz-adv-x="1461" 
d="M724 -33q-276 0 -406 169.5t-82 469.5l127 804h131l-127 -804q-39 -250 60.5 -381t316.5 -131q462 0 543 512l127 804h128l-127 -804q-49 -307 -227.5 -473t-463.5 -166zM922 1801q42 0 122 -27q63 -21 77 -21l2 40h118q-3 -77 -40 -118t-97 -41q-49 0 -123 26
q-59 20 -78 20q2 0 -4 -38h-113q3 76 39 117.5t97 41.5z" />
    <glyph glyph-name="utilde" unicode="&#x169;" horiz-adv-x="1102" 
d="M529 -23q-434 0 -352 514l85 540h135l-85 -540q-11 -67 -13 -119t9 -104t37.5 -86t78 -55t126.5 -21q155 0 254 100t139 267l88 558h135l-163 -1031h-108l6 160q-68 -81 -163.5 -132t-208.5 -51zM693 1422q43 0 122 -27q63 -21 77 -21l2 40h118q-3 -77 -40 -118t-97 -41
q-49 0 -123 26q-59 20 -78 20q2 0 -4 -38h-113q3 76 39 117.5t97 41.5z" />
    <glyph glyph-name="Umacron" unicode="&#x16a;" horiz-adv-x="1461" 
d="M724 -33q-276 0 -406 169.5t-82 469.5l127 804h131l-127 -804q-39 -250 60.5 -381t316.5 -131q462 0 543 512l127 804h128l-127 -804q-49 -307 -227.5 -473t-463.5 -166zM804 1640l19 122h395l-19 -122h-395z" />
    <glyph glyph-name="umacron" unicode="&#x16b;" horiz-adv-x="1102" 
d="M529 -23q-434 0 -352 514l85 540h135l-85 -540q-11 -67 -13 -119t9 -104t37.5 -86t78 -55t126.5 -21q155 0 254 100t139 267l88 558h135l-163 -1031h-108l6 160q-68 -81 -163.5 -132t-208.5 -51zM575 1261l19 122h395l-19 -122h-395z" />
    <glyph glyph-name="Ubreve" unicode="&#x16c;" horiz-adv-x="1461" 
d="M724 -33q-276 0 -406 169.5t-82 469.5l127 804h131l-127 -804q-39 -250 60.5 -381t316.5 -131q462 0 543 512l127 804h128l-127 -804q-49 -307 -227.5 -473t-463.5 -166zM1254 1857q-15 -137 -82 -217.5t-183 -80.5t-159 81t-13 217h121q-38 -173 71 -173q104 0 123 173
h122z" />
    <glyph glyph-name="ubreve" unicode="&#x16d;" horiz-adv-x="1102" 
d="M529 -23q-434 0 -352 514l85 540h135l-85 -540q-11 -67 -13 -119t9 -104t37.5 -86t78 -55t126.5 -21q155 0 254 100t139 267l88 558h135l-163 -1031h-108l6 160q-68 -81 -163.5 -132t-208.5 -51zM1025 1478q-15 -137 -82 -217.5t-183 -80.5t-159 81t-13 217h121
q-38 -173 71 -173q104 0 123 173h122z" />
    <glyph glyph-name="Uring" unicode="&#x16e;" horiz-adv-x="1461" 
d="M1022 1760q-45 0 -53 -48t38 -48q21 0 35 13.5t17 34.5q4 22 -6 35t-31 13zM724 -33q-276 0 -406 169.5t-82 469.5l127 804h131l-127 -804q-39 -250 60.5 -381t316.5 -131q462 0 543 512l127 804h128l-127 -804q-49 -307 -227.5 -473t-463.5 -166zM1040 1874
q72 0 113.5 -44.5t29.5 -117.5q-11 -71 -67.5 -117t-127.5 -46q-72 0 -114.5 45.5t-31.5 117.5q12 73 68.5 117.5t129.5 44.5z" />
    <glyph glyph-name="uring" unicode="&#x16f;" horiz-adv-x="1102" 
d="M793 1381q-45 0 -53 -48t38 -48q21 0 35 13.5t17 34.5q4 22 -6 35t-31 13zM529 -23q-434 0 -352 514l85 540h135l-85 -540q-11 -67 -13 -119t9 -104t37.5 -86t78 -55t126.5 -21q155 0 254 100t139 267l88 558h135l-163 -1031h-108l6 160q-68 -81 -163.5 -132t-208.5 -51z
M811 1495q72 0 113.5 -44.5t29.5 -117.5q-11 -71 -67.5 -117t-127.5 -46q-72 0 -114.5 45.5t-31.5 117.5q12 73 68.5 117.5t129.5 44.5z" />
    <glyph glyph-name="Uhungarumlaut" unicode="&#x170;" horiz-adv-x="1461" 
d="M724 -33q-276 0 -406 169.5t-82 469.5l127 804h131l-127 -804q-39 -250 60.5 -381t316.5 -131q462 0 543 512l127 804h128l-127 -804q-49 -307 -227.5 -473t-463.5 -166zM732 1597l202 277h164l-235 -277h-131zM941 1597l200 277h166l-236 -277h-130z" />
    <glyph glyph-name="uhungarumlaut" unicode="&#x171;" horiz-adv-x="1102" 
d="M529 -23q-434 0 -352 514l85 540h135l-85 -540q-11 -67 -13 -119t9 -104t37.5 -86t78 -55t126.5 -21q155 0 254 100t139 267l88 558h135l-163 -1031h-108l6 160q-68 -81 -163.5 -132t-208.5 -51zM503 1218l202 277h164l-235 -277h-131zM712 1218l200 277h166l-236 -277
h-130z" />
    <glyph glyph-name="Uogonek" unicode="&#x172;" horiz-adv-x="1461" 
d="M669 -31q-249 17 -364 185t-69 452l127 804h131l-127 -804q-39 -250 60.5 -381t316.5 -131q462 0 543 512l127 804h128l-127 -804q-43 -273 -190 -435t-381 -196q-59 -38 -101 -95t-52 -120q-6 -36 5.5 -50.5t40.5 -14.5q38 0 78.5 24.5t97.5 83.5l-25 -159
q-90 -70 -192 -70q-35 0 -63 9t-51 28t-32.5 53.5t-1.5 81.5q19 123 121 223z" />
    <glyph glyph-name="uogonek" unicode="&#x173;" horiz-adv-x="1102" 
d="M901 160q-68 -81 -163.5 -132t-208.5 -51q-434 0 -352 514l85 540h135l-85 -540q-11 -67 -13 -119t9 -104t37.5 -86t78 -55t126.5 -21q155 0 254 100t139 267l88 558h135l-163 -1031h-60q-91 -15 -173.5 -93t-97.5 -171q-6 -36 5.5 -50.5t40.5 -14.5q38 0 78.5 24.5
t97.5 83.5l-25 -159q-88 -70 -192 -70q-35 0 -63 9t-51 28t-32.5 53.5t-1.5 81.5q18 113 123 199t245 125z" />
    <glyph glyph-name="Wcircumflex" unicode="&#x174;" horiz-adv-x="2244" 
d="M1531 0l-228 1181l-624 -1181h-160l-260 1410h143l228 -1237l651 1237h120l237 -1238l646 1238h146l-737 -1410h-162zM1372 1708l-97 -130h-146l217 278h102l125 -278h-147z" />
    <glyph glyph-name="wcircumflex" unicode="&#x175;" horiz-adv-x="1639" 
d="M415 0l-174 1031h140l133 -839l413 839h113l152 -839l393 839h138l-488 -1031h-151l-138 784l-386 -784h-145zM1037 1369l-96 -130h-146l217 278h102l125 -278h-147z" />
    <glyph glyph-name="Ycircumflex" unicode="&#x176;" horiz-adv-x="1285" 
d="M575 0l84 533l-358 877h147l305 -733l530 733h146l-636 -877l-84 -533h-134zM893 1708l-97 -130h-146l217 278h102l125 -278h-147z" />
    <glyph glyph-name="ycircumflex" unicode="&#x177;" horiz-adv-x="1211" 
d="M241 1031h156l238 -866l506 866h155l-943 -1571h-130l313 535zM820 1329l-96 -130h-146l217 278h102l125 -278h-147z" />
    <glyph glyph-name="Ydieresis" unicode="&#x178;" horiz-adv-x="1285" 
d="M575 0l84 533l-358 877h147l305 -733l530 733h146l-636 -877l-84 -533h-134zM794 1786q35 0 57 -25t16 -60q-5 -34 -35 -59t-65 -25q-36 0 -57.5 24.5t-16.5 59.5q6 35 35.5 60t65.5 25zM1055 1786q35 0 57 -25t16 -60q-5 -34 -35 -59t-65 -25t-56 25t-16 59q6 35 35 60
t64 25z" />
    <glyph glyph-name="Zacute" unicode="&#x179;" horiz-adv-x="1385" 
d="M99 0l16 101l1183 1180h-902l20 129h1092l-16 -102l-1183 -1179h989l-20 -129h-1179zM846 1603l202 277h166l-236 -277h-132z" />
    <glyph glyph-name="zacute" unicode="&#x17a;" horiz-adv-x="1123" 
d="M99 0l15 97l845 809h-685l20 125h893l-16 -105l-848 -802h721l-20 -124h-925zM636 1224l202 277h166l-236 -277h-132z" />
    <glyph glyph-name="Zdotaccent" unicode="&#x17b;" horiz-adv-x="1385" 
d="M99 0l16 101l1183 1180h-902l20 129h1092l-16 -102l-1183 -1179h989l-20 -129h-1179zM997 1803q37 0 59.5 -26t16.5 -63q-5 -36 -36.5 -62.5t-68.5 -26.5q-38 0 -60.5 26t-17.5 63q6 37 37.5 63t69.5 26z" />
    <glyph glyph-name="zdotaccent" unicode="&#x17c;" horiz-adv-x="1123" 
d="M99 0l15 97l845 809h-685l20 125h893l-16 -105l-848 -802h721l-20 -124h-925zM787 1424q37 0 59.5 -26t16.5 -63q-5 -36 -36.5 -62.5t-68.5 -26.5q-38 0 -60.5 26t-17.5 63q6 37 37.5 63t69.5 26z" />
    <glyph glyph-name="Zcaron" unicode="&#x17d;" horiz-adv-x="1385" 
d="M99 0l16 101l1183 1180h-902l20 129h1092l-16 -102l-1183 -1179h989l-20 -129h-1179zM1013 1588h-101l-130 277h149l56 -130l95 130h146z" />
    <glyph glyph-name="zcaron" unicode="&#x17e;" horiz-adv-x="1123" 
d="M99 0l15 97l845 809h-685l20 125h893l-16 -105l-848 -802h721l-20 -124h-925zM803 1209h-101l-130 277h149l56 -130l95 130h146z" />
    <glyph glyph-name="uni01CD" unicode="&#x1cd;" horiz-adv-x="1451" 
d="M917 1213l-387 -690h553zM885 1410h122l344 -1410h-142l-94 390h-659l-219 -390h-138zM1240 1865l-215 -277h-101l-130 277h149l56 -130l95 130h146z" />
    <glyph glyph-name="uni01CE" unicode="&#x1ce;" horiz-adv-x="1014" 
d="M440 101q176 0 277 72.5t126 232.5l15 91q-54 3 -96 3q-55 0 -111.5 -5t-124.5 -20.5t-120.5 -39.5t-92.5 -66t-49 -97q-13 -83 30 -127t146 -44zM405 -24q-150 0 -228.5 76t-56.5 216t148.5 226t315.5 113q116 16 233 14h60l15 90q8 107 -36 155.5t-145 48.5h-73
q-102 0 -179 -59t-100 -177h-136q20 155 144 258.5t291 103.5h73q165 0 241 -81t58 -228l-116 -731h-109l5 141q-148 -166 -405 -166zM998 1543l-215 -277h-101l-130 277h149l56 -130l95 130h146z" />
    <glyph glyph-name="Gcaron" unicode="&#x1e6;" horiz-adv-x="1569" 
d="M776 -33q-315 0 -467.5 197t-98.5 535q54 344 271 539.5t543 195.5q178 0 306 -59t195.5 -178.5t61.5 -290.5h-128q-6 202 -119.5 301t-335.5 99q-275 0 -448.5 -159t-218.5 -448q-46 -287 76.5 -447.5t386.5 -160.5q225 0 380.5 118.5t209.5 328.5h-554l21 129h718
l-106 -667h-121l26 250q-41 -54 -94 -101t-126 -89.5t-170.5 -67.5t-207.5 -25zM1315 1865l-215 -277h-101l-130 277h149l56 -130l95 130h146z" />
    <glyph glyph-name="gcaron" unicode="&#x1e7;" horiz-adv-x="1215" 
d="M582 111q98 0 187 44t155.5 135.5t86.5 215.5q29 181 -54 286t-232 105q-168 0 -286 -110.5t-145 -280.5q-18 -113 7.5 -201.5t97.5 -141t183 -52.5zM966 169q-168 -192 -399 -192q-216 0 -330.5 150.5t-78.5 378.5q36 229 197 377t381 148q238 0 334 -182l42 182h124
l-167 -1056q-46 -290 -202 -415q-122 -100 -352 -100t-319 100q-100 104 -83 318h136v-36q3 -69 3 -73q13 -89 76.5 -134.5t207.5 -45.5t222.5 46t118.5 136t58 204zM1098 1486l-215 -277h-101l-130 277h149l56 -130l95 130h146z" />
    <glyph glyph-name="uni0218" unicode="&#x218;" horiz-adv-x="1369" 
d="M719 -33q-127 0 -231.5 31.5t-179.5 91t-106.5 156t-8.5 217.5h130l-2 -73q-2 -45 8 -86q23 -91 125 -150.5t287 -59.5q97 0 175 19.5t123.5 47t77 63.5t43.5 63t16 52q16 90 -18 141q-60 96 -280 150q-207 52 -271 74q-186 66 -239 176q-38 80 -17 193q22 110 109 193
t213 125.5t271 42.5q247 0 372 -130t69 -355h-136q19 61 15.5 109.5t-18.5 86t-44.5 65t-62 46t-72.5 29.5t-75 16t-70 5q-173 0 -295.5 -68t-143.5 -169q-16 -81 18 -134q64 -93 279 -143q209 -50 290 -82q185 -73 227 -203q23 -73 6 -169q-21 -111 -105.5 -196.5
t-209 -130t-269.5 -44.5zM605 -397h-129l165 313h155z" />
    <glyph glyph-name="uni0219" unicode="&#x219;" horiz-adv-x="990" 
d="M490 -23q-33 0 -67 3.5t-72.5 11t-72.5 22t-66.5 34t-54.5 49.5t-35.5 66t-12 85.5t18.5 107.5h137q-15 -44 -15.5 -81.5t10.5 -63.5t31.5 -46t46 -32.5t56.5 -20t59.5 -10.5t58.5 -3q133 0 221 40.5t99 125.5q11 69 -24 106q-37 37 -102 57.5t-172 39.5q-89 18 -165 44
q-93 32 -136.5 95t-23.5 170q21 121 151.5 199t312.5 78q33 0 66 -3.5t71 -11t70.5 -21.5t63.5 -33.5t52 -49t33 -65.5t10 -85.5t-19 -107.5h-137q15 44 15.5 81t-10 62t-31 44.5t-45 30.5t-56 18t-59 9.5t-58.5 2.5q-122 0 -205 -39t-94 -111q-10 -59 24 -90
q26 -23 74 -41.5t84.5 -26.5t113.5 -23q96 -21 169 -47q192 -75 159 -282q-12 -76 -54.5 -133t-107.5 -90t-143 -49t-169 -16zM326 -397h-129l165 313h155z" />
    <glyph glyph-name="uni021A" unicode="&#x21a;" horiz-adv-x="1297" 
d="M584 0l203 1282h-485l20 128h1098l-20 -128h-482l-203 -1282h-131zM537 -397h-129l165 313h155z" />
    <glyph glyph-name="uni021B" unicode="&#x21b;" horiz-adv-x="708" 
d="M631 0q-22 0 -64 -1q-45 -1 -82.5 -0.5t-68 5t-54 15t-38.5 30.5t-22.5 50.5t-6.5 76t11 106.5l98 622h-172l20 127h172l40 251h131l-40 -251h236l-20 -127h-236l-98 -622q-14 -66 -10.5 -100.5t27 -45t92.5 -10.5l105 2zM307 -397h-129l165 313h155z" />
    <glyph glyph-name="circumflex" unicode="&#x2c6;" horiz-adv-x="501" 
d="M446 1236l-97 -130h-146l217 277h101l126 -277h-147z" />
    <glyph glyph-name="caron" unicode="&#x2c7;" horiz-adv-x="469" 
d="M461 1106h-101l-130 277h149l55 -130l96 130h146z" />
    <glyph glyph-name="breve" unicode="&#x2d8;" horiz-adv-x="972" 
d="M923 1383q-15 -137 -82 -217.5t-183 -80.5t-159 81t-13 217h121q-38 -173 71 -173q104 0 123 173h122z" />
    <glyph glyph-name="dotaccent" unicode="&#x2d9;" horiz-adv-x="1050" 
d="M737 1337q37 0 60 -26t17 -63t-37 -63t-68 -26q-38 0 -61 26t-17 63t37 63t69 26z" />
    <glyph glyph-name="ring" unicode="&#x2da;" horiz-adv-x="1208" 
d="M829 1412q72 0 113.5 -44.5t29.5 -117.5q-12 -72 -68 -117.5t-127 -45.5q-73 0 -115.5 45.5t-30.5 117.5q12 73 68.5 117.5t129.5 44.5zM811 1299q-45 0 -53 -49q-4 -22 6 -35t31 -13t35 13t18 35q4 23 -6 36t-31 13z" />
    <glyph glyph-name="ogonek" unicode="&#x2db;" horiz-adv-x="1137" 
d="M807 2q-31 7 -65 7q-112 0 -203 -74t-107 -174q-6 -36 5.5 -50.5t40.5 -14.5q38 0 78.5 24.5t97.5 83.5l-25 -159q-90 -70 -192 -70q-35 0 -63 9t-51 28t-32.5 53.5t-1.5 81.5q19 121 114.5 217t227.5 131z" />
    <glyph glyph-name="tilde" unicode="&#x2dc;" horiz-adv-x="1042" 
d="M622 1347q45 0 122 -26q60 -22 76 -22l3 40h117q-2 -76 -39 -117t-98 -41q-48 0 -123 26q-61 20 -77 20q2 0 -4 -38h-114q4 75 40 116.5t97 41.5z" />
    <glyph glyph-name="hungarumlaut" unicode="&#x2dd;" horiz-adv-x="717" 
d="M306 1106l202 277h164l-235 -277h-131zM515 1106l200 277h166l-236 -277h-130z" />
    <glyph glyph-name="gravecomb" unicode="&#x300;" 
d="M611 1230l-148 278h165l114 -278h-131z" />
    <glyph glyph-name="acutecomb" unicode="&#x301;" 
d="M418 1224l202 277h166l-236 -277h-132z" />
    <glyph glyph-name="uni0302" unicode="&#x302;" 
d="M460 1329l-96 -130h-146l217 278h102l125 -278h-147z" />
    <glyph glyph-name="tildecomb" unicode="&#x303;" 
d="M666 1422q42 0 122 -27q63 -21 77 -21l2 40h118q-3 -77 -40 -118t-97 -41q-49 0 -123 26q-59 20 -78 20q2 0 -4 -38h-113q3 76 39 117.5t97 41.5z" />
    <glyph glyph-name="uni0304" unicode="&#x304;" 
d="M489 1261l19 122h395l-19 -122h-395z" />
    <glyph glyph-name="uni0306" unicode="&#x306;" 
d="M938 1478q-15 -137 -82 -217.5t-183 -80.5t-159 81t-13 217h121q-38 -173 71 -173q104 0 123 173h122z" />
    <glyph glyph-name="uni0307" unicode="&#x307;" 
d="M751 1424q37 0 59.5 -26t16.5 -63q-5 -36 -36.5 -62.5t-68.5 -26.5q-38 0 -60.5 26t-17.5 63q6 37 37.5 63t69.5 26z" />
    <glyph glyph-name="uni0308" unicode="&#x308;" 
d="M743 1407q35 0 57 -25t16 -60q-5 -34 -35 -59t-65 -25q-36 0 -57.5 24.5t-16.5 59.5q6 35 35.5 60t65.5 25zM1004 1407q35 0 57 -25t16 -60q-5 -34 -35 -59t-65 -25t-56 25t-16 59q6 35 35 60t64 25z" />
    <glyph glyph-name="uni030A" unicode="&#x30a;" 
d="M842 1495q72 0 113.5 -44.5t29.5 -117.5q-11 -71 -67.5 -117t-127.5 -46q-72 0 -114.5 45.5t-31.5 117.5q12 73 68.5 117.5t129.5 44.5zM824 1381q-45 0 -53 -48t38 -48q21 0 35 13.5t17 34.5q4 22 -6 35t-31 13z" />
    <glyph glyph-name="uni030B" unicode="&#x30b;" 
d="M324 1218l202 277h164l-235 -277h-131zM533 1218l200 277h166l-236 -277h-130z" />
    <glyph glyph-name="uni030C" unicode="&#x30c;" 
d="M477 1209h-101l-130 277h149l56 -130l95 130h146z" />
    <glyph glyph-name="uni0326" unicode="&#x326;" 
d="M622 -397h-129l165 313h129l-9 -55z" />
    <glyph glyph-name="uni0327" unicode="&#x327;" 
d="M657 -33q147 -35 124 -176q-15 -94 -94.5 -142.5t-180.5 -48.5q-88 0 -131 33l21 134q33 -30 58.5 -40t72.5 -10q113 0 125 74q5 36 -22.5 55t-96.5 19q-37 0 -89 -6l155 224h140z" />
    <glyph glyph-name="uni0328" unicode="&#x328;" 
d="M759 27q-98 11 -203.5 -72.5t-123.5 -193.5q-6 -36 5.5 -50.5t40.5 -14.5q38 0 78.5 24.5t97.5 83.5l-25 -159q-90 -70 -192 -70q-35 0 -63 9t-51 28t-32.5 53.5t-1.5 81.5q19 121 114.5 217t227.5 131z" />
    <glyph glyph-name="uni1E20" unicode="&#x1e20;" horiz-adv-x="1569" 
d="M776 -33q-315 0 -467.5 197t-98.5 535q54 344 271 539.5t543 195.5q178 0 306 -59t195.5 -178.5t61.5 -290.5h-128q-6 202 -119.5 301t-335.5 99q-275 0 -448.5 -159t-218.5 -448q-46 -287 76.5 -447.5t386.5 -160.5q225 0 380.5 118.5t209.5 328.5h-554l21 129h718
l-106 -667h-121l26 250q-41 -54 -94 -101t-126 -89.5t-170.5 -67.5t-207.5 -25zM1255 1640h-395l19 122h395z" />
    <glyph glyph-name="uni1E21" unicode="&#x1e21;" horiz-adv-x="1215" 
d="M582 111q98 0 187 44t155.5 135.5t86.5 215.5q29 181 -54 286t-232 105q-168 0 -286 -110.5t-145 -280.5q-18 -113 7.5 -201.5t97.5 -141t183 -52.5zM966 169q-168 -192 -399 -192q-216 0 -330.5 150.5t-78.5 378.5q36 229 197 377t381 148q238 0 334 -182l42 182h124
l-167 -1056q-46 -290 -202 -415q-122 -100 -352 -100t-319 100q-100 104 -83 318h136v-36q3 -69 3 -73q13 -89 76.5 -134.5t207.5 -45.5t222.5 46t118.5 136t58 204zM1038 1261h-395l19 122h395z" />
    <glyph glyph-name="Wgrave" unicode="&#x1e80;" horiz-adv-x="2244" 
d="M1531 0l-228 1181l-624 -1181h-160l-260 1410h143l228 -1237l651 1237h120l237 -1238l646 1238h146l-737 -1410h-162zM1283 1609l-148 278h165l114 -278h-131z" />
    <glyph glyph-name="wgrave" unicode="&#x1e81;" horiz-adv-x="1639" 
d="M415 0l-174 1031h140l133 -839l413 839h113l152 -839l393 839h138l-488 -1031h-151l-138 784l-386 -784h-145zM958 1270l-148 278h165l114 -278h-131z" />
    <glyph glyph-name="Wacute" unicode="&#x1e82;" horiz-adv-x="2244" 
d="M1531 0l-228 1181l-624 -1181h-160l-260 1410h143l228 -1237l651 1237h120l237 -1238l646 1238h146l-737 -1410h-162zM1301 1603l202 277h166l-236 -277h-132z" />
    <glyph glyph-name="wacute" unicode="&#x1e83;" horiz-adv-x="1639" 
d="M415 0l-174 1031h140l133 -839l413 839h113l152 -839l393 839h138l-488 -1031h-151l-138 784l-386 -784h-145zM961 1264l202 277h166l-236 -277h-132z" />
    <glyph glyph-name="Wdieresis" unicode="&#x1e84;" horiz-adv-x="2244" 
d="M1531 0l-228 1181l-624 -1181h-160l-260 1410h143l228 -1237l651 1237h120l237 -1238l646 1238h146l-737 -1410h-162zM1255 1786q35 0 57 -25t16 -60q-5 -34 -35 -59t-65 -25q-36 0 -57.5 24.5t-16.5 59.5q6 35 35.5 60t65.5 25zM1516 1786q35 0 57 -25t16 -60
q-5 -34 -35 -59t-65 -25t-56 25t-16 59q6 35 35 60t64 25z" />
    <glyph glyph-name="wdieresis" unicode="&#x1e85;" horiz-adv-x="1639" 
d="M415 0l-174 1031h140l133 -839l413 839h113l152 -839l393 839h138l-488 -1031h-151l-138 784l-386 -784h-145zM935 1447q35 0 57 -25t16 -60q-5 -34 -35 -59t-65 -25q-36 0 -57.5 24.5t-16.5 59.5q6 35 35.5 60t65.5 25zM1196 1447q35 0 57 -25t16 -60q-5 -34 -35 -59
t-65 -25t-56 25t-16 59q6 35 35 60t64 25z" />
    <glyph glyph-name="uni1EBC" unicode="&#x1ebc;" horiz-adv-x="1273" 
d="M140 0l223 1410h991l-20 -129h-856l-80 -503h704l-20 -130h-704l-83 -521h878l-20 -127h-1013zM821 1801q43 0 122 -27q63 -21 77 -21l2 40h118q-3 -77 -40 -118t-97 -41q-49 0 -123 26q-59 20 -78 20q2 0 -4 -38h-113q3 76 39 117.5t97 41.5z" />
    <glyph glyph-name="uni1EBD" unicode="&#x1ebd;" horiz-adv-x="1139" 
d="M1017 606q0 54 -15.5 104.5t-48 95t-89.5 71.5t-132 27q-139 0 -249.5 -82.5t-159.5 -215.5h694zM572 -23q-97 0 -175.5 30t-127.5 81t-81 120t-36 147t8 161q40 223 204.5 369t387.5 146q196 0 306 -125t92 -331l-3 -30l-10 -65h-847q-20 -176 58 -276t244 -100
q138 0 245 72t137 190h136q-46 -172 -198 -280.5t-340 -108.5zM701 1456q43 0 122 -27q63 -21 77 -21l2 40h118q-3 -77 -40 -118t-97 -41q-49 0 -123 26q-59 20 -78 20q2 0 -4 -38h-113q3 76 39 117.5t97 41.5z" />
    <glyph glyph-name="Ygrave" unicode="&#x1ef2;" horiz-adv-x="1285" 
d="M575 0l84 533l-358 877h147l305 -733l530 733h146l-636 -877l-84 -533h-134zM812 1609l-148 278h165l114 -278h-131z" />
    <glyph glyph-name="ygrave" unicode="&#x1ef3;" horiz-adv-x="1148" 
d="M225 -541l-139 2l422 668l-267 902h147l220 -746l476 746h149zM710 1230l-148 278h165l114 -278h-131z" />
    <glyph glyph-name="uni1EF8" unicode="&#x1ef8;" horiz-adv-x="1285" 
d="M575 0l84 533l-358 877h147l305 -733l530 733h146l-636 -877l-84 -533h-134zM841 1801q42 0 122 -27q63 -21 77 -21l2 40h118q-3 -77 -40 -118t-97 -41q-49 0 -123 26q-59 20 -78 20q2 0 -4 -38h-113q3 76 39 117.5t97 41.5z" />
    <glyph glyph-name="uni1EF9" unicode="&#x1ef9;" horiz-adv-x="1211" 
d="M241 1031h156l238 -866l506 866h155l-943 -1571h-130l313 535zM731 1422q43 0 122 -27q63 -21 77 -21l2 40h118q-3 -77 -40 -118t-97 -41q-49 0 -123 26q-59 20 -78 20q2 0 -4 -38h-113q3 76 39 117.5t97 41.5z" />
    <glyph glyph-name="endash" unicode="&#x2013;" horiz-adv-x="1063" 
d="M223 527l20 124h781l-20 -124h-781z" />
    <glyph glyph-name="emdash" unicode="&#x2014;" horiz-adv-x="2054" 
d="M223 527l20 124h1772l-20 -124h-1772z" />
    <glyph glyph-name="quoteleft" unicode="&#x2018;" horiz-adv-x="612" 
d="M567 1469h137l-249 -534h-167z" />
    <glyph glyph-name="quoteright" unicode="&#x2019;" horiz-adv-x="466" 
d="M343 935h-138l249 534h166z" />
    <glyph glyph-name="quotesinglbase" unicode="&#x201a;" horiz-adv-x="446" 
d="M134 -223h-137l189 373h159z" />
    <glyph glyph-name="quotedblleft" unicode="&#x201c;" horiz-adv-x="744" 
d="M621 1471h138l-249 -536h-164zM839 1471h138l-248 -536l-160 7z" />
    <glyph glyph-name="quotedblright" unicode="&#x201d;" horiz-adv-x="413" 
d="M286 935h-138l249 534h166zM504 935h-138l249 534h164z" />
    <glyph glyph-name="quotedblbase" unicode="&#x201e;" horiz-adv-x="374" 
d="M134 -223h-137l189 373h160zM323 -223h-137l188 373h164z" />
    <glyph glyph-name="dagger" unicode="&#x2020;" horiz-adv-x="1076" 
d="M729 760l-160 -1065h-155l172 1065l-367 -5l22 139l366 -6l72 495h157l-85 -495l367 6l-22 -139z" />
    <glyph glyph-name="daggerdbl" unicode="&#x2021;" horiz-adv-x="1076" 
d="M659 316l368 5l-22 -138l-365 6l-71 -494h-155l82 494l-368 -6l22 138l366 -5l70 444l-367 -5l22 139l366 -6l72 495h157l-85 -495l367 6l-22 -139l-367 5z" />
    <glyph glyph-name="bullet" unicode="&#x2022;" horiz-adv-x="505" 
d="M373 764q64 0 102 -43t28 -105q-10 -63 -61.5 -106t-115.5 -43t-101.5 43t-27.5 106q10 62 61 105t115 43z" />
    <glyph glyph-name="ellipsis" unicode="&#x2026;" horiz-adv-x="886" 
d="M219 159q40 0 63.5 -26.5t17.5 -65.5q-7 -40 -38 -66.5t-72 -26.5q-39 0 -63 26.5t-17 66.5q6 39 38.5 65.5t70.5 26.5zM467 159q41 0 64.5 -26.5t17.5 -65.5q-7 -40 -38.5 -66.5t-72.5 -26.5q-39 0 -63 26.5t-17 66.5q6 39 38 65.5t71 26.5zM715 159q41 0 64.5 -26.5
t17.5 -65.5q-7 -40 -38.5 -66.5t-72.5 -26.5q-39 0 -63 26.5t-17 66.5q6 39 38 65.5t71 26.5z" />
    <glyph glyph-name="perthousand" unicode="&#x2030;" horiz-adv-x="2111" 
d="M898 1071q-23 -144 -120 -240.5t-231 -96.5q-136 0 -201.5 96.5t-42.5 240.5q23 147 118.5 242t232.5 95q135 0 201 -95t43 -242zM359 0h-163l1152 1383h162zM448 1071q-16 -98 15 -154t104 -56q72 0 121 56t65 154q15 99 -16 155t-103 56q-73 0 -121.5 -55.5
t-64.5 -155.5zM1159 647q136 0 202.5 -95.5t43.5 -241.5q-23 -145 -119.5 -240.5t-232.5 -95.5q-135 0 -201 96t-43 240q23 147 118.5 242t231.5 95zM1782 647q137 0 202.5 -95t42.5 -242q-23 -144 -119 -240t-232 -96q-134 0 -200.5 96t-43.5 240q23 146 119 241.5
t231 95.5zM1073 100q72 0 122 56.5t65 153.5q16 99 -15.5 155t-104.5 56t-121.5 -55.5t-64.5 -155.5q-15 -99 15.5 -154.5t103.5 -55.5zM1696 100q74 0 123 56t64 154q16 100 -15 155.5t-105 55.5q-72 0 -121 -56t-65 -155q-15 -98 16 -154t103 -56z" />
    <glyph glyph-name="guilsinglleft" unicode="&#x2039;" horiz-adv-x="728" 
d="M388 507l245 -350h-168l-245 350l356 350h168z" />
    <glyph glyph-name="guilsinglright" unicode="&#x203a;" horiz-adv-x="731" 
d="M314 157h-169l357 350l-246 350h169l245 -350z" />
    <glyph glyph-name="fraction" unicode="&#x2044;" horiz-adv-x="681" 
d="M-208 0l1153 1383h163l-1152 -1383h-164z" />
    <glyph glyph-name="Euro" unicode="&#x20ac;" horiz-adv-x="1330" 
d="M1058 1317q-80 0 -154.5 -25t-144 -77.5t-127 -144.5t-94.5 -215h740l-59 -110h-706q-6 -25 -9 -53q-7 -33 -8 -57h673l-51 -110h-632q-10 -238 85 -350t292 -112q178 0 337 101l-21 -133q-158 -84 -344 -84q-521 0 -487 578h-162l56 110h117l5 48l11 62h-106l55 110h79
q82 284 262 431t415 147q126 0 208.5 -34t141.5 -109l-91 -94q-49 66 -114 93.5t-167 27.5z" />
    <glyph glyph-name="trademark" unicode="&#x2122;" horiz-adv-x="1202" 
d="M541 1296h-161v-344h-125v344h-163v114h449v-114zM1095 952h-122l2 181l-68 -175h-108l-67 173l2 -179h-124v456h140l105 -278l103 278h137v-456z" />
    <glyph glyph-name="partialdiff" unicode="&#x2202;" horiz-adv-x="1123" 
d="M557 102q163 0 266.5 131t153.5 411q-32 94 -101.5 138.5t-159.5 44.5q-157 0 -263.5 -104t-133.5 -276q-26 -162 41.5 -253.5t196.5 -91.5zM768 1514q495 0 360 -851q-52 -333 -202.5 -511t-392.5 -178q-191 0 -294 129.5t-70 338.5q36 230 191.5 372t371.5 142
q174 0 271 -108q44 536 -262 536q-87 0 -155 -25t-148 -86l-64 100q97 75 190.5 108t203.5 33z" />
    <glyph glyph-name="emptyset" unicode="&#x2205;" horiz-adv-x="1729" 
d="M878 88q171 0 329 81.5t266 225t135 316.5q34 219 -73 387l-1039 -866q152 -144 382 -144zM347 711q-35 -217 73 -388l1039 867q-151 145 -384 145q-128 0 -251.5 -48.5t-221.5 -131t-166 -198.5t-89 -246zM1643 1190q143 -207 100 -479q-33 -208 -164 -380.5
t-322 -270.5t-399 -98q-139 0 -260 46.5t-212 132.5l-188 -157l-79 87l193 161q-144 207 -100 479q25 155 108 294.5t201.5 239t268.5 157.5t305 58q139 0 260.5 -47t212.5 -132l188 157l79 -88z" />
    <glyph glyph-name="product" unicode="&#x220f;" horiz-adv-x="1152" 
d="M1152 1253l-231 -1463h-143l231 1463h-471l-231 -1463h-143l231 1463h-114l21 130h986l-21 -130h-115z" />
    <glyph glyph-name="summation" unicode="&#x2211;" horiz-adv-x="1151" 
d="M1044 -210h-1008l17 106l666 712l-389 670l17 105h936l-21 -130h-745l379 -647l-648 -685h816z" />
    <glyph glyph-name="minus" unicode="&#x2212;" horiz-adv-x="1069" 
d="M191 578l19 125h871l-19 -125h-871z" />
    <glyph glyph-name="radical" unicode="&#x221a;" horiz-adv-x="1182" 
d="M588 -305h-137l-128 839h-139l19 125h237l106 -740l649 1636h133z" />
    <glyph glyph-name="infinity" unicode="&#x221e;" horiz-adv-x="2114" 
d="M616 102q65 0 127.5 23t123.5 72t112 136.5t81 204.5q0 96 -16 171.5t-43.5 125t-67 82t-83.5 46t-95 13.5q-146 0 -266.5 -115t-153.5 -324q-16 -109 -1 -190.5t56 -136t99 -81.5t127 -27zM1532 102q145 0 265.5 114.5t153.5 320.5q16 110 1 192.5t-56 137t-98.5 82
t-126.5 27.5q-66 0 -129.5 -23t-125 -71.5t-112 -136t-80.5 -205.5q-1 -119 23 -206t68 -136.5t97.5 -72.5t119.5 -23zM1691 1105q151 0 253.5 -73.5t142 -202t13.5 -292.5q-39 -248 -199.5 -405.5t-388.5 -157.5q-158 0 -262.5 81.5t-146.5 240.5q-182 -322 -507 -322
q-229 0 -340 157.5t-72 405.5q40 250 201 409t390 159q157 0 261 -81t146 -240q89 157 219 239t290 82z" />
    <glyph glyph-name="integral" unicode="&#x222b;" horiz-adv-x="712" 
d="M681 1506q107 0 158 -80l-85 -113q-18 41 -38 54t-55 13q-44 0 -80.5 -55t-54.5 -172q-13 -77 -15 -175.5t8 -362.5q9 -231 7.5 -355.5t-16.5 -220.5q-14 -90 -44.5 -158.5t-70.5 -108t-83.5 -58.5t-89.5 -19q-110 0 -159 79l82 110q22 -39 42.5 -51.5t53.5 -12.5
q44 0 81.5 55t55.5 172q12 74 14 175.5t-8 363.5q-9 230 -8 356t16 221q27 173 108.5 258t180.5 85z" />
    <glyph glyph-name="approxequal" unicode="&#x2248;" horiz-adv-x="1155" 
d="M435 907q55 0 102 -17t122 -59q65 -37 96.5 -48.5t70.5 -11.5q60 0 100 26.5t96 102.5l85 -76q-126 -180 -303 -180q-54 0 -99 16.5t-124 60.5q-68 36 -98.5 47.5t-69.5 11.5q-59 0 -97.5 -25.5t-99.5 -100.5l-82 76q122 177 301 177zM382 573q55 0 102 -17t122 -59
q68 -36 98.5 -47.5t68.5 -11.5q60 0 100 26.5t96 101.5l85 -76q-125 -179 -303 -179q-55 0 -100 16.5t-123 59.5q-68 36 -98.5 47.5t-69.5 11.5q-59 0 -97.5 -25.5t-99.5 -100.5l-82 76q122 177 301 177z" />
    <glyph glyph-name="notequal" unicode="&#x2260;" horiz-adv-x="1099" 
d="M637 524h446l-20 -124h-521l-157 -205h-149l158 205h-232l20 124h306l176 229h-446l20 123h521l156 206h149l-157 -206h232l-20 -123h-306z" />
    <glyph glyph-name="lessequal" unicode="&#x2264;" horiz-adv-x="1069" 
d="M386 574l632 -271l-23 -142l-813 360l16 106l928 359l-22 -139zM990 124l-20 -124h-871l20 124h871z" />
    <glyph glyph-name="greaterequal" unicode="&#x2265;" horiz-adv-x="1069" 
d="M1053 521l-929 -360l23 140l721 273l-635 273l22 139l814 -359zM990 124l-20 -124h-871l20 124h871z" />
    <glyph glyph-name="lozenge" unicode="&#x25ca;" horiz-adv-x="1036" 
d="M886 691l-177 520l-338 -519l175 -521zM1030 692l-459 -692h-106l-239 692l458 691h106z" />
    <glyph glyph-name="NULL" 
 />
    <glyph glyph-name="uni0122" horiz-adv-x="1569" 
d="M776 -33q-315 0 -467.5 197t-98.5 535q54 344 271 539.5t543 195.5q178 0 306 -59t195.5 -178.5t61.5 -290.5h-128q-6 202 -119.5 301t-335.5 99q-275 0 -448.5 -159t-218.5 -448q-46 -287 76.5 -447.5t386.5 -160.5q225 0 380.5 118.5t209.5 328.5h-554l21 129h718
l-106 -667h-121l26 250q-41 -54 -94 -101t-126 -89.5t-170.5 -67.5t-207.5 -25zM883 -84l-191 -313h-129l165 313h155z" />
    <glyph glyph-name="Itilde" horiz-adv-x="462" 
d="M165 0l222 1403h131l-222 -1403h-131zM410 1801q42 0 122 -27q63 -21 77 -21l2 40h118q-3 -77 -40 -118t-97 -41q-49 0 -123 26q-59 20 -78 20q2 0 -4 -38h-113q3 76 39 117.5t97 41.5z" />
    <glyph glyph-name="Imacron" horiz-adv-x="464" 
d="M166 0l222 1403h131l-222 -1403h-131zM293 1640l19 122h395l-19 -122h-395z" />
    <glyph glyph-name="Iogonek" horiz-adv-x="523" 
d="M441 1403h131l-222 -1403h-57q-91 -15 -173.5 -93t-97.5 -171q-6 -36 5.5 -50.5t40.5 -14.5q38 0 78.5 24.5t97.5 83.5l-25 -159q-88 -70 -192 -70q-35 0 -63 9t-51 28t-32.5 53.5t-1.5 81.5q18 114 116 201.5t232 126.5z" />
    <glyph glyph-name="_Designova" horiz-adv-x="1401" 
d="M172 798q0 -108 42 -206t112.5 -168.5t168.5 -112.5t206 -42q143 0 264.5 70.5t192.5 192t71 265.5t-70.5 266t-191.5 192.5t-265 70.5t-266 -70.5t-193 -192t-71 -265.5zM360 903q8 0 12 -4q53 -20 107 -29q43 -4 76 3q24 4 49 13q4 0 10.5 3.5t7.5 3.5l-17 8.5t-17.5 9
t-15 10t-14.5 13.5h20q37 0 80 18q123 77 208 77q6 0 23 1.5t25 0.5q62 -4 94 -36q7 -5 31 -34v-2q-3 2 -6 2q-28 11 -52 11q-63 0 -104 -62q-6 -11 -15.5 -33.5t-12.5 -29.5q-5 -12 -15 -36.5t-19 -44.5t-17 -37q-31 -65 -69 -111q-28 -40 -84 -72t-111 -48h-6l26 23
q16 15 28 47q8 25 24.5 71t23.5 68q31 89 60 139v1l-10 -12q-8 -8 -10 -15q-21 -24 -35 -60q-3 -5 -9 -5q-110 5 -190 73l-61 58q-5 7 -15 17zM699 197q-162 0 -300 81t-218.5 219.5t-80.5 300.5q1 122 48.5 233t128 191t191.5 127.5t233 47.5t233 -47.5t191.5 -127.5
t128 -191t47.5 -233q0 -163 -80.5 -301.5t-219.5 -219t-302 -80.5z" />
    <glyph glyph-name="_Origin" horiz-adv-x="1874" 
d="M554 504v-30h31q24 0 24 14q0 16 -24 16h-31zM554 449v-31h35q24 0 24 16q0 15 -24 15h-35zM815 499v-43h26q28 0 28 21q0 22 -28 22h-26zM143 878v-625h1588v625h-1588zM1366 499v-79h26q13 0 23 5q19 11 19 35q0 16 -5 21q-9 18 -37 18h-26zM946 674q0 -18 11 -29.5
t28 -11.5q18 0 29 11.5t11 29.5q0 19 -11 30.5t-29 11.5q-17 0 -28 -11.5t-11 -30.5zM1101 714v-44h27q28 0 28 22t-28 22h-27zM293 1227v-172h68q43 0 69 22t26 64q0 55 -44 75q-19 11 -49 11h-70zM472 1119q0 -44 33 -58q13 -7 39 -7q35 0 54 17q9 12 12 22l-38 1
q-3 -9 -16 -13q-2 0 -5.5 -0.5t-6.5 -0.5q-22 0 -29 15q-5 8 -5 15h100v11q0 30 -18.5 47.5t-49.5 17.5q-43 0 -63 -32q-7 -18 -7 -35zM621 1093q6 -39 67 -39q39 0 57 20q7 10 7 21q0 26 -41 35l-28 5q-18 3 -18 13q0 12 23 12t23 -14l38 2q-7 38 -62 38q-38 0 -54 -19
q-8 -8 -8 -21q0 -28 41 -37l26 -5q19 -3 19 -12q0 -14 -23 -14q-24 0 -27 16zM768 1184v-129h41v129h-41zM767 1218q0 -7 7 -12.5t15 -5.5q9 0 15.5 5.5t6.5 12.5t-6.5 12.5t-15.5 5.5q-8 0 -15 -5.5t-7 -12.5zM827 1120q0 -29 16 -45.5t44 -16.5q21 0 33 10q7 5 7 10h2v-23
q0 -24 -30 -24q-18 0 -25 7q-2 1 -5 8l-37 -6q3 -15 20 -25t46 -10q43 0 62 22q10 10 10 27v130h-40v-21h-3q-4 13 -21 19q-10 4 -19 4q-35 0 -52 -29q-8 -16 -8 -37zM993 1184v-129h41v75q0 17 13 23q5 3 14 3q25 0 25 -25v-76h42v82q0 31 -24 42q-11 7 -27 7
q-31 0 -43 -25h-1v23h-40zM1145 1119q0 -32 20 -48.5t52 -16.5q42 0 64 31q8 14 8 34q0 39 -33 59q-19 8 -39 8q-44 0 -63 -32q-9 -18 -9 -35zM1333 1184h-43l51 -129h45l52 129h-42l-31 -91h-1zM1439 1092q0 -26 23 -34q9 -4 25 -4q21 0 34 9l8 11h2v-19h37v88q0 19 -17 33
q-22 10 -43 10q-35 0 -53 -18q-9 -7 -12 -20l39 -4q4 16 25 16t21 -16v-1q0 -7 -15 -10q-2 -1 -9 -1.5t-10 -0.5q-55 -4 -55 -39zM319 395h-30v128h30v-128zM370 395h-31v128h25l64 -77v77h29v-128h-24l-63 79v-79zM524 395v128h63q52 0 52 -32q0 -20 -18 -29q2 0 2 -2
q20 -7 20 -30q0 -35 -51 -35h-68zM762 395h-105v128h107v-24h-78v-27h70v-23h-70v-29h76v-25zM815 395h-31v128h59q24 0 40 -11.5t16 -34.5q0 -14 -7 -24q-11 -13 -21 -18l27 -40h-32l-25 37h-26v-37zM1018 395h-105v128h29v-103h76v-25zM1069 395h-30v128h30v-128z
M1120 395h-30v128h25l63 -77v77h31v-128h-25l-64 79v-79zM1227 413q0 17 19 17q7 0 12 -5t5 -12q0 -6 -5 -19l-11 -27h-18l9 30q-11 4 -11 16zM1336 395v128h57q23 0 38 -8q33 -14 33 -55q0 -22 -9 -35q-16 -30 -62 -30h-57zM1587 395h-105v128h105v-24h-76v-27h69v-23h-69
v-29h76v-25zM419 610h-107v127h107v-23h-77v-28h70v-22h-70v-31h77v-23zM470 610h-30v127h25l64 -76v76h29v-127h-25l-63 78v-78zM621 714h-42v23h112v-23h-41v-104h-29v104zM748 610l-44 127h32l29 -89l30 89h27l29 -90l31 90h28l-41 -127h-33l-28 87l-29 -87h-31z
M1731 212l-1631 -1v1150h1674v-1149l-43 -1v1zM915 674q0 29 20.5 47.5t49.5 18.5q30 0 50.5 -18.5t20.5 -47.5t-20.5 -47.5t-49.5 -18.5t-50 18.5t-21 47.5zM1101 610h-28v127h57q22 0 30 -3q26 -14 26 -42q0 -15 -7 -25q-6 -10 -21 -17l28 -40h-32l-25 36h-28v-36z
M1231 610h-30v127h107v-23h-77v-28h69v-22h-69v-54zM1426 610h-107v127h107v-23h-77v-28h69v-22h-69v-31h77v-23zM1476 610h-28v127h22l66 -76v76h29v-127h-25l-64 78v-78zM333 1087v108h27q37 0 49 -23q7 -19 7 -31q0 -36 -26 -48q-10 -6 -31 -6h-26zM510 1133q1 12 15 22
q8 5 17 5q21 0 26 -16q4 -5 4 -11h-62zM869 1120q0 24 12 33q10 5 18 5q19 0 28 -19q0 -2 1.5 -8.5t1.5 -10.5q0 -36 -31 -36q-18 0 -28 18q-2 10 -2 18zM1187 1120q0 24 13 33q6 5 17 5q30 0 30 -38q0 -24 -13 -34q-8 -5 -17 -5q-19 0 -28 20q-2 10 -2 19zM1477 1093
q0 7 12 14q4 2 12 2q19 2 28 6v-13q0 -15 -15 -21q-12 -3 -16 -3q-21 0 -21 15z" />
    <glyph glyph-name="_Typeface" horiz-adv-x="2648" 
d="M389 795l-128 -321h31l36 89h151l35 -89h33l-130 321h-28zM581 709v-235h31v111q0 46 24 72t65 22l-2 29q-58 4 -89 -42l-4 43h-25zM829 469q43 0 74 24.5t35 63.5h-32q-2 -27 -24 -43t-53 -16q-38 0 -59 22.5t-23 63.5h193v14l-1 7q-3 46 -33 75t-74 29q-51 0 -83 -33.5
t-34 -83.5q-1 -51 29.5 -87t84.5 -36zM981 709v-235h29v111q0 43 22.5 68.5t59.5 25.5t52 -21.5t15 -65.5v-118h30v118q0 117 -98 117q-55 0 -82 -43l-5 43h-23zM1301 469q60 0 86 37l4 -31h25v166q-3 70 -80 70h-16q-38 0 -62.5 -23.5t-22.5 -58.5h30q1 26 16.5 39.5
t38.5 13.5h16q46 0 50 -45v-22h-14q-147 0 -147 -80q0 -32 21 -49t55 -17zM1737 461q65 0 100 37.5t35 107.5v182h-29v-182q0 -116 -106 -116q-50 0 -77 29.5t-27 86.5v182h-30v-182q0 -68 36 -106.5t98 -38.5zM1919 709v-235h29v111q0 43 22.5 68.5t59.5 25.5t52 -21.5
t15 -65.5v-118h30v118q0 117 -98 117q-55 0 -82 -43l-5 43h-23zM2278 470q53 0 81.5 32.5t28.5 85.5q0 55 -29 87.5t-81 32.5t-81.5 -32t-29.5 -88q0 -54 29.5 -86t81.5 -32zM466 593h-125l62 157zM750 612q6 30 28.5 49t53.5 19q32 0 52 -20.5t24 -47.5h-158zM1305 497
q-47 0 -47 39q0 37 63 49q30 3 65 2v-20q0 -70 -81 -70zM2548 355h-2448v540h2448v-540zM2278 500q-42 0 -61 25.5t-19 62.5q0 90 80 90q79 0 79 -90q0 -40 -19.5 -64t-59.5 -24z" />
    <glyph glyph-name="_VendorID" horiz-adv-x="1106" 
d="M116 59q0 -16 12 -16q14 0 14 16v1q0 16 -13 16t-13 -17zM199 62q-3 14 -11 14q-11 0 -12 -14h23zM302 60q0 -17 12 -17q14 0 14 16v1q0 16 -14 16q-12 0 -12 -16zM419 59q0 -16 12 -16q14 0 14 16q0 17 -14 17q-12 0 -12 -17zM529 48q0 -5 8 -5q11 0 11 8v6
q-19 2 -19 -9zM613 59q0 -16 13 -16q12 0 12 16q0 17 -12 17q-13 0 -13 -17zM882 59q0 -16 14 -16q12 0 12 16q0 17 -12 17q-14 0 -14 -17zM255 423q0 -56 39.5 -96t96.5 -40q56 0 94.5 39.5t38.5 96.5q0 58 -37.5 96.5t-95.5 38.5q-11 0 -22 -3l79 112h-60l-90 -128
q-43 -60 -43 -116zM580 423q0 -57 39.5 -96.5t95.5 -39.5t94.5 39.5t38.5 96.5t-38 96t-95 39q-13 0 -23 -3l80 112h-61l-90 -128q-41 -58 -41 -116zM255 861q0 -56 39.5 -95t96.5 -39q56 0 94.5 39t38.5 95q0 58 -37.5 96.5t-95.5 38.5q-15 0 -22 -2l79 114h-60l-90 -132
q-43 -62 -43 -115zM580 861q0 -56 39.5 -95t95.5 -39t94.5 39t38.5 95q0 58 -38 96.5t-95 38.5q-16 0 -24 -2l81 114h-61l-90 -132q-41 -62 -41 -115zM103 59q0 12 7 19t17 7q8 0 11 -3l4 -5v24h12v-67h-12v9l-4 -7q-6 -4 -14 -4q-21 0 -21 27zM163 59q0 11 7 18.5t18 7.5
q10 0 17 -7t7 -18q0 -2 -2 -5h-34q1 -12 12 -12q9 0 11 8h11q-3 -19 -22 -19q-25 0 -25 27zM229 48q3 -8 8 -8q9 0 9 7q0 2 -11 8q-17 5 -17 15q0 15 19 15q20 0 20 -15h-13q-2 6 -7 6q-6 0 -6 -5q0 -4 11 -9q16 -3 16 -14q0 -16 -21 -16q-18 0 -21 16h13zM265 95q0 6 8 6
q7 0 7 -6q0 -8 -7 -8q-8 0 -8 8zM279 34h-13v51h13v-51zM289 32h13v-1q0 -8 12 -8q10 0 14 12v8l-4 -7q-8 -2 -13 -2q-22 0 -22 25q0 26 24 26q8 0 11 -3l4 -5v8h13v-38q0 -8 -2 -11q0 -22 -25 -22t-25 17v1zM364 34h-13v51h13v-10l4 7q4 3 12 3q14 0 18 -14q1 -3 1 -9v-28
h-14v32q0 10 -9 10q-12 0 -12 -19v-23zM406 59q0 11 7 18.5t18 7.5q26 0 26 -26q0 -27 -26 -27q-11 0 -18 7.5t-7 19.5zM478 34l-17 51h14l13 -42l12 42h13l-18 -51h-17zM517 48q0 15 28 15h3v7q0 6 -8 6q-11 0 -11 -8h-12q0 17 23 17q17 0 19 -14v-37h-11v6l-3 -5
q-6 -3 -13 -3q-15 0 -15 16zM573 74h-5v9h5v7q0 14 18 14h5v-10q-10 2 -10 -5v-6h10v-9h-10v-40h-13v40zM600 59q0 26 26 26q25 0 25 -26q0 -27 -25 -27q-26 0 -26 27zM671 34h-11v51h11v-10l5 7q4 3 12 3q14 0 18 -14v-37h-13v32q-3 10 -8 10q-14 0 -14 -19v-23zM720 74h-7
v9h7v12h13v-12h9v-9h-9v-26q2 -9 8 -5v-10h-7q-14 0 -14 10v31zM760 48q2 -8 9 -8q8 0 8 7q0 2 -11 8q-16 4 -16 15q0 15 18 15t23 -15h-15q0 6 -9 6q-4 0 -4 -5t10 -9q18 -4 18 -14q0 -16 -22 -16q-19 0 -23 16h14zM794 39q0 9 9 9q8 0 8 -9q0 -7 -8 -7q-9 0 -9 7zM817 59
q0 11 7.5 18.5t16.5 7.5q23 0 23 -19h-12q-3 10 -11 10q-11 0 -11 -17q0 -16 11 -16q9 0 11 8h12q-1 -19 -23 -19q-24 0 -24 27zM869 59q0 26 27 26q24 0 24 -26q0 -27 -24 -27q-27 0 -27 27zM942 34h-13v51h13v-9l5 6q3 3 8 3q12 0 17 -10l5 7q3 3 10 3q16 0 16 -12
q1 -3 1 -11v-28h-12v26q0 16 -11 16q-8 0 -8 -16v-26h-12v34q-5 8 -9 8q-10 0 -10 -16v-26zM305 423q0 37 24 60.5t62 23.5q36 0 60 -23.5t24 -60.5q0 -39 -24 -63t-60 -24q-38 0 -62 24t-24 63zM629 423q0 37 24 60.5t62 23.5q36 0 58.5 -23.5t22.5 -60.5q0 -39 -22.5 -63
t-58.5 -24q-38 0 -62 24t-24 63zM305 861q0 39 24 62.5t62 23.5q36 0 60 -24.5t24 -61.5t-24 -61.5t-60 -24.5q-38 0 -62 24t-24 62zM1006 143h-906v1104h906v-1104zM629 861q0 38 24 62t62 24q36 0 58.5 -24t22.5 -62t-22.5 -62t-58.5 -24q-38 0 -62 24t-24 62z" />
    </font>
</defs>
</svg>
