<?xml version="1.0" standalone="no"?>
<!DOCTYPE svg PUBLIC "-//W3C//DTD SVG 1.1//EN" "http://www.w3.org/Graphics/SVG/1.1/DTD/svg11.dtd" >
<svg xmlns="http://www.w3.org/2000/svg" xmlns:xlink="http://www.w3.org/1999/xlink" version="1.1">
<metadata>
Created by FontForge 20201107 at Tue Aug 12 14:39:29 2025
 By 
Copyright \(c\) 2025 by Designova\(R\). All rights reserved.
</metadata>
<defs>
<font id="ArenaUno-BoldItalic" horiz-adv-x="0" >
  <font-face 
    font-family="Arena Uno"
    font-weight="700"
    font-style="italic"
    font-stretch="normal"
    units-per-em="2048"
    panose-1="0 0 0 0 0 0 0 0 0 0"
    ascent="1638"
    descent="-410"
    x-height="1070"
    cap-height="1419"
    bbox="-235 -541 2645 2024"
    underline-thickness="100"
    underline-position="-355"
    slope="-9"
    unicode-range="U+000D-25CA"
  />
<missing-glyph horiz-adv-x="1608" 
d="M446 294l-21 -129h31l13 83h1l49 -83h29l21 129h-31l-13 -81h-2l-51 81h-26zM569 213q-4 -28 18 -43q16 -6 28 -6q31 0 52 23q7 10 10 26q5 30 -18 44q-12 6 -28 6q-37 0 -52 -24q-9 -12 -10 -26zM730 230q-6 -41 23 -59q17 -7 36 -7q27 0 47 14.5t24 39.5l2 17h-59
l-3 -21h31q-3 -16 -20 -22q-5 -4 -18 -4q-24 0 -30 19q-4 7 -2 23q5 28 24 38q15 5 20 5q28 0 28 -21h31q1 18 -15 33q-16 11 -40 11q-64 0 -79 -66zM890 294l-21 -129h29l21 129h-29zM956 263h-33l24 -99l-3 -5q-4 -11 -23 -7l-10 -19q10 -4 19 -4q19 0 35 14q5 3 10 13
l58 107h-31l-34 -71h-2zM1043 263l-22 -134h31l9 52q4 -10 15 -14q3 -3 13 -3q43 0 53 49q5 31 -14 45q-13 5 -23 5q-18 0 -27 -9q-6 -4 -7 -9h-1l3 18h-30zM1170 294l-21 -129h28l9 56q2 14 14 18q4 3 11 3q19 0 16 -19l-9 -58h31l10 62q3 24 -14 33q-12 3 -18 3
q-25 0 -37 -18h-1l8 49h-27zM818 811l-348 -301l98 -114l346 298l257 -298l136 114l-254 301l344 301l-95 114l-351 -299l-250 299l-136 -114zM599 213q2 15 15 26q4 4 13 4q16 0 19 -14q1 -7 0 -16q-3 -17 -14 -25q-10 -2 -14 -2q-17 0 -17 14q-4 5 -2 13zM1065 213
q3 17 14 25q5 5 12 5q17 0 19 -14q2 -10 1 -16q-3 -15 -14 -25q-8 -2 -15 -2q-14 0 -17 14q-1 6 0 13zM1419 -1h-1224l218 1378h1224z" />
    <glyph glyph-name=".notdef" horiz-adv-x="1608" 
d="M446 294l-21 -129h31l13 83h1l49 -83h29l21 129h-31l-13 -81h-2l-51 81h-26zM569 213q-4 -28 18 -43q16 -6 28 -6q31 0 52 23q7 10 10 26q5 30 -18 44q-12 6 -28 6q-37 0 -52 -24q-9 -12 -10 -26zM730 230q-6 -41 23 -59q17 -7 36 -7q27 0 47 14.5t24 39.5l2 17h-59
l-3 -21h31q-3 -16 -20 -22q-5 -4 -18 -4q-24 0 -30 19q-4 7 -2 23q5 28 24 38q15 5 20 5q28 0 28 -21h31q1 18 -15 33q-16 11 -40 11q-64 0 -79 -66zM890 294l-21 -129h29l21 129h-29zM956 263h-33l24 -99l-3 -5q-4 -11 -23 -7l-10 -19q10 -4 19 -4q19 0 35 14q5 3 10 13
l58 107h-31l-34 -71h-2zM1043 263l-22 -134h31l9 52q4 -10 15 -14q3 -3 13 -3q43 0 53 49q5 31 -14 45q-13 5 -23 5q-18 0 -27 -9q-6 -4 -7 -9h-1l3 18h-30zM1170 294l-21 -129h28l9 56q2 14 14 18q4 3 11 3q19 0 16 -19l-9 -58h31l10 62q3 24 -14 33q-12 3 -18 3
q-25 0 -37 -18h-1l8 49h-27zM818 811l-348 -301l98 -114l346 298l257 -298l136 114l-254 301l344 301l-95 114l-351 -299l-250 299l-136 -114zM599 213q2 15 15 26q4 4 13 4q16 0 19 -14q1 -7 0 -16q-3 -17 -14 -25q-10 -2 -14 -2q-17 0 -17 14q-4 5 -2 13zM1065 213
q3 17 14 25q5 5 12 5q17 0 19 -14q2 -10 1 -16q-3 -15 -14 -25q-8 -2 -15 -2q-14 0 -17 14q-1 6 0 13zM1419 -1h-1224l218 1378h1224z" />
    <glyph glyph-name=".null" 
 />
    <glyph glyph-name="uni000D" unicode="&#xd;" horiz-adv-x="512" 
 />
    <glyph glyph-name="space" unicode=" " horiz-adv-x="700" 
 />
    <glyph glyph-name="space" unicode="&#xa0;" horiz-adv-x="700" 
 />
    <glyph glyph-name="exclam" unicode="!" horiz-adv-x="497" 
d="M166 250l167 1135h226l-191 -1135h-202zM251 154q56 0 87 -35.5t22 -90.5q-8 -55 -50.5 -91t-98.5 -36q-53 0 -84.5 36.5t-23.5 90.5q9 54 52 90t96 36z" />
    <glyph glyph-name="quotedbl" unicode="&#x22;" horiz-adv-x="428" 
d="M250 883l81 583h215l-102 -583h-194zM519 883l80 583h216l-102 -583h-194z" />
    <glyph glyph-name="numbersign" unicode="#" horiz-adv-x="1522" 
d="M712 754l-43 -108h361l43 108h-361zM419 0h-233l167 427h-186l34 219h236l43 108h-204l35 221h254l167 425h233l-167 -425h360l166 425h232l-166 -425h186l-35 -221h-236l-43 -108h204l-34 -219h-254l-167 -427h-233l167 427h-360z" />
    <glyph glyph-name="dollar" unicode="$" horiz-adv-x="1175" 
d="M732 185q73 18 118 62.5t55 107.5q20 127 -115 197zM539 1017q-10 -66 15.5 -108.5t82.5 -72.5l57 357q-61 -21 -103 -66t-52 -110zM827 780q344 -124 296 -418q-23 -146 -136 -250.5t-287 -129.5l-23 -145h-198l23 146q-163 28 -253 152t-76 334h214q-5 -116 34 -188
t114 -93l67 423q-74 24 -128 56t-95.5 78.5t-56.5 113.5t-2 152q25 157 136.5 259t270.5 130l23 147h198l-23 -145q152 -32 227 -162t71 -315h-216q4 110 -25.5 179.5t-89.5 91.5z" />
    <glyph glyph-name="percent" unicode="%" horiz-adv-x="1431" 
d="M642 1408q145 0 216 -100t46 -257q-25 -155 -128 -256t-247 -101q-147 0 -218 101t-46 256q25 158 127.5 257.5t249.5 99.5zM126 0l1151 1385h246l-1152 -1385h-245zM611 1212q-51 0 -86 -43.5t-47 -117.5q-12 -73 9.5 -116.5t72.5 -43.5q49 0 84 43.5t46 116.5
q12 74 -8.5 117.5t-70.5 43.5zM1120 689q146 0 217 -100t47 -257q-25 -155 -128.5 -256.5t-248.5 -101.5q-146 0 -217 101.5t-46 256.5q24 157 126.5 257t249.5 100zM1089 492q-51 0 -85.5 -43t-45.5 -117q-12 -73 8.5 -117t71.5 -44q50 0 85 44t47 117q11 73 -10 116.5
t-71 43.5z" />
    <glyph glyph-name="ampersand" unicode="&#x26;" horiz-adv-x="1643" 
d="M663 198q11 0 18 1q134 5 252 82q-86 81 -171 180t-147 187q-184 -100 -204 -226q-9 -57 8.5 -101.5t55 -70.5t85 -39t103.5 -13zM697 1096q-11 -66 41 -180q88 40 160.5 95.5t80.5 107.5q7 42 -29 65.5t-87 23.5q-59 0 -108.5 -29.5t-57.5 -82.5zM608 -42
q-101 0 -188 30.5t-150.5 87t-92.5 144.5t-12 195q12 76 43 139.5t78.5 113t100 87t120.5 73.5q-68 161 -49 275q17 109 83.5 189t157 118t192.5 38q163 0 257 -89.5t71 -233.5q-34 -212 -367 -379q115 -148 252 -271q64 119 93 269h238q-49 -249 -152 -412
q133 -95 288 -157l-124 -221q-180 67 -338 183q-101 -82 -221.5 -127.5t-241.5 -50.5z" />
    <glyph glyph-name="quotesingle" unicode="'" horiz-adv-x="414" 
d="M249 883l82 583h215l-104 -583h-193z" />
    <glyph glyph-name="parenleft" unicode="(" horiz-adv-x="763" 
d="M889 1557q-167 -210 -275 -431t-141 -425q-32 -202 6 -424t138 -432h-244q-91 172 -124 400t2 456q36 225 142.5 455t251.5 401h244z" />
    <glyph glyph-name="parenright" unicode=")" horiz-adv-x="765" 
d="M611 1557q91 -171 124.5 -399t-1.5 -457q-36 -225 -142.5 -454.5t-252.5 -401.5h-244q168 210 276 431.5t140 424.5q33 205 -5 426t-139 430h244z" />
    <glyph glyph-name="asterisk" unicode="*" horiz-adv-x="1018" 
d="M979 777l31 -193l-280 -79l155 -243l-187 -115l-143 252l-221 -251l-152 113l233 244l-256 79l93 193l253 -95l42 313h207l-58 -313z" />
    <glyph glyph-name="plus" unicode="+" horiz-adv-x="1097" 
d="M734 544l-61 -387h-199l61 387h-350l31 195h350l62 390h199l-62 -390h350l-31 -195h-350z" />
    <glyph glyph-name="comma" unicode="," horiz-adv-x="625" 
d="M275 -211h-209l217 429h236z" />
    <glyph glyph-name="hyphen" unicode="-" horiz-adv-x="816" 
d="M216 481l31 195h534l-31 -195h-534z" />
    <glyph glyph-name="period" unicode="." horiz-adv-x="497" 
d="M263 227q56 0 87 -35.5t22 -90.5t-51.5 -91t-97.5 -36q-53 0 -85 36.5t-23 90.5t52 90t96 36z" />
    <glyph glyph-name="slash" unicode="/" horiz-adv-x="926" 
d="M90 -54l756 1493h208l-756 -1493h-208z" />
    <glyph glyph-name="zero" unicode="0" horiz-adv-x="1260" 
d="M627 -19q-105 0 -185.5 29t-131 82t-82 121t-42 152.5t-8 168.5t17.5 177q13 79 31.5 152t48.5 147.5t67.5 137t89.5 117.5t113.5 93.5t141 60.5t170.5 22t163.5 -22t122 -60.5t84.5 -93.5t53 -117.5t24 -137t2 -147t-17 -152.5q-18 -114 -48.5 -213t-84.5 -196.5
t-125 -166.5t-175 -111.5t-230 -42.5zM661 196q270 0 353 515q80 515 -190 515q-52 0 -97 -20t-78 -51.5t-61 -77t-46 -90t-33 -98.5t-23 -94t-15 -84q-7 -43 -11.5 -83.5t-6.5 -94t2.5 -98.5t18 -90.5t36 -77t61.5 -51.5t90 -20z" />
    <glyph glyph-name="one" unicode="1" horiz-adv-x="1008" 
d="M565 5l190 1198h-377l34 217h633l-224 -1415h-256z" />
    <glyph glyph-name="two" unicode="2" horiz-adv-x="1305" 
d="M105 5l24 152l562 467q11 9 64 51.5t76.5 62.5t68.5 62.5t68 73t45 70.5t28 77q15 94 -32 148t-145 54q-222 0 -308 -330h-267q16 81 47.5 157.5t84 148t120 125t161 85.5t201.5 32q205 0 322 -110t87 -304q-7 -42 -23.5 -84t-36 -76.5t-52.5 -74.5t-58.5 -67.5
t-68.5 -67t-68.5 -61t-73 -61.5t-67.5 -57l-299 -258h629l-34 -215h-1055z" />
    <glyph glyph-name="three" unicode="3" horiz-adv-x="1242" 
d="M612 -19q-134 0 -227.5 32.5t-145 95t-71.5 145t-14 191.5h273q0 -56 9 -97t32 -77.5t69 -55.5t113 -19q116 0 197.5 54t98.5 163q9 58 -8.5 98.5t-57 60.5t-84 27.5t-101.5 7.5l-129 -1l34 215h130q97 0 186.5 61t104.5 154q14 90 -33 140t-138 50q-124 0 -188 -65
t-94 -180h-268q47 211 195 335.5t394 124.5q126 0 224 -44.5t150.5 -136.5t32.5 -216q-13 -87 -68.5 -171t-134.5 -137q82 -52 114.5 -135t16.5 -186q-17 -105 -73 -189t-139 -137t-185 -80.5t-215 -27.5z" />
    <glyph glyph-name="four" unicode="4" horiz-adv-x="1389" 
d="M521 567h360l73 461zM160 352l22 140l885 928h216l-135 -853h184l-34 -215h-184l-55 -347h-267l55 347h-687z" />
    <glyph glyph-name="five" unicode="5" horiz-adv-x="1284" 
d="M608 -19q-228 0 -341.5 114t-106.5 324h268q2 -101 50 -157t166 -56q122 0 197.5 69.5t93.5 187.5q18 114 -31 190t-165 76q-179 0 -279 -162h-260l271 853h876l-34 -215h-644l-112 -344q61 46 126 65t163 19q143 0 234.5 -63t122.5 -169.5t9 -246.5
q-35 -217 -206.5 -351t-397.5 -134z" />
    <glyph glyph-name="six" unicode="6" horiz-adv-x="1237" 
d="M432 500q-13 -80 2.5 -146.5t68 -112t137.5 -45.5q121 0 206.5 80.5t104.5 198.5q20 124 -33 209t-178 85q-117 0 -203.5 -77t-104.5 -192zM485 853q117 131 330 131q103 0 188 -37t141 -102t79.5 -160t5.5 -205q-35 -219 -215 -359t-410 -140q-99 0 -176.5 23
t-128.5 66.5t-84 101t-46.5 131t-12.5 152.5t15 169q19 121 50.5 229t89 218.5t132 190t186 129.5t245.5 50q399 0 428 -396h-239q-6 30 -10.5 47.5t-14.5 41.5t-25 38t-38 28t-58 20t-80 6q-128 0 -219 -103t-133 -270z" />
    <glyph glyph-name="seven" unicode="7" horiz-adv-x="1205" 
d="M418 5h-293l866 1200h-738l34 215h1081l-21 -129z" />
    <glyph glyph-name="eight" unicode="8" horiz-adv-x="1292" 
d="M444 403q-9 -54 7.5 -96t51.5 -65.5t80 -35.5t98 -12q108 0 193 54t101 155q17 110 -44.5 162t-178.5 52q-55 0 -104 -12t-92.5 -36.5t-73 -67t-38.5 -98.5zM605 1018q-14 -90 39 -138t148 -48q96 0 164.5 47.5t82.5 138.5q15 95 -37.5 151.5t-147.5 56.5t-164.5 -56.5
t-84.5 -151.5zM168 405q16 102 81 188t165 142q-54 54 -76 127.5t-9 155.5q21 129 107.5 227t204.5 147t247 49q97 0 181 -28.5t144 -81t88 -133.5t12 -180q-13 -83 -61 -158t-123 -128q76 -56 107 -141t15 -186q-17 -104 -76.5 -187.5t-145 -134.5t-184.5 -77.5t-203 -26.5
q-84 0 -159.5 15.5t-139.5 49.5t-107.5 83t-62.5 120.5t-5 157.5z" />
    <glyph glyph-name="nine" unicode="9" horiz-adv-x="1248" 
d="M1029 922q13 80 -2.5 146.5t-68 112t-137.5 45.5q-121 0 -206.5 -80.5t-104.5 -198.5q-11 -58 -2 -111t32.5 -94t70 -65.5t110.5 -24.5q117 0 203.5 78t104.5 192zM975 568q-117 -130 -329 -130q-103 0 -188 37t-140.5 102t-79 159.5t-6.5 204.5q35 219 215 359.5
t410 140.5q85 0 154.5 -17.5t119 -49t85 -77t55.5 -100t28.5 -120t5.5 -134t-15 -145.5q-19 -121 -50.5 -229t-89 -218.5t-132 -190t-186 -129.5t-245.5 -50q-400 0 -427 396h239q6 -36 12 -57t21 -48t37 -41t61 -24.5t93 -10.5q129 0 223 106t129 266z" />
    <glyph glyph-name="colon" unicode=":" horiz-adv-x="497" 
d="M404 1116q56 0 86.5 -35.5t22.5 -90.5q-8 -53 -51 -89.5t-98 -36.5q-53 0 -84.5 37t-23.5 89q8 54 51.5 90t96.5 36zM263 227q56 0 87 -35.5t22 -90.5t-51.5 -91t-97.5 -36q-53 0 -85 36.5t-23 90.5t52 90t96 36z" />
    <glyph glyph-name="semicolon" unicode=";" horiz-adv-x="620" 
d="M522 1116q56 0 86.5 -35.5t22.5 -90.5q-8 -53 -50.5 -89.5t-98.5 -36.5q-53 0 -84.5 37t-23.5 89q8 54 51.5 90t96.5 36zM278 -211h-212l217 434l230 -4z" />
    <glyph glyph-name="less" unicode="&#x3c;" horiz-adv-x="1090" 
d="M492 550l543 -275l-35 -219l-826 419l23 146l959 422l-35 -220z" />
    <glyph glyph-name="equal" unicode="=" horiz-adv-x="1126" 
d="M212 712l30 193h928l-30 -193h-928zM159 378l30 193h928l-30 -193h-928z" />
    <glyph glyph-name="greater" unicode="&#x3e;" horiz-adv-x="1090" 
d="M1066 475l-958 -419l34 217l631 275l-544 272l35 223l825 -422z" />
    <glyph glyph-name="question" unicode="?" horiz-adv-x="1151" 
d="M794 1410q207 0 305.5 -111t71.5 -282q-33 -209 -266 -396q-117 -95 -160 -170t-67 -220h-209q34 192 91 293t205 226q86 73 131 136.5t55 130.5q14 90 -37 141.5t-151 51.5q-114 0 -195.5 -85.5t-116.5 -233.5h-211q46 232 199.5 375.5t354.5 143.5zM565 161
q53 0 85 -36t24 -90q-9 -54 -52.5 -90.5t-96.5 -36.5q-56 0 -86.5 36t-21.5 91q8 55 50 90.5t98 35.5z" />
    <glyph glyph-name="at" unicode="@" horiz-adv-x="1719" 
d="M1092 649q14 33 18 60q8 47 -11 75.5t-58 28.5q-101 0 -191 -99.5t-112 -237.5q-12 -79 10 -118t72 -39q63 0 128 66t116 192zM1254 -74q-137 -64 -250.5 -89t-234.5 -25q-107 0 -203.5 27.5t-177.5 82.5t-134.5 138.5t-75 196t1.5 253.5q24 151 93.5 285t167.5 231.5
t217 169t245.5 107t248.5 35.5q199 0 341 -83.5t203.5 -234.5t30.5 -344q-21 -131 -73.5 -236.5t-123.5 -170.5t-151.5 -99.5t-162.5 -34.5q-140 0 -195 82q-121 -97 -248 -97q-45 0 -84.5 10t-78 34t-61.5 64t-34.5 99.5t3.5 141.5q17 106 68.5 205t125 173t168.5 119
t194 45q89 0 148 -44l5 12h216l-198 -489q-31 -79 -37 -117q-3 -21 10 -32t42 -11q87 0 163 93t100 246q35 222 -80 348t-332 126q-88 0 -181 -27t-182.5 -81t-164 -128t-128 -176t-71.5 -217q-19 -122 6 -220t85 -159.5t144 -94.5t183 -33q189 0 384 92z" />
    <glyph glyph-name="A" unicode="A" horiz-adv-x="1600" 
d="M960 1014l-295 -513h424zM99 0l814 1425h221l366 -1425h-283l-70 273h-613l-156 -273h-279z" />
    <glyph glyph-name="B" unicode="B" horiz-adv-x="1462" 
d="M768 223h13q42 0 65 0.5t64 4t65 10t56.5 20t51.5 32.5t35.5 49t22.5 69q9 60 -10.5 102t-50 63t-88.5 32.5t-97 13t-104 1.5h-318l-63 -397h358zM864 844h15q37 0 56.5 0.5t54 3.5t54.5 8.5t46 17.5t41 29t28.5 43.5t18.5 60.5q9 56 -3 94.5t-31.5 58t-66.5 29.5
t-77.5 11t-94.5 1h-20h-320l-56 -357h355zM107 0l226 1425h636q96 0 170.5 -10t143.5 -37.5t110.5 -73t58.5 -121t1 -176.5q-12 -79 -55 -152.5t-110 -115.5q161 -104 127 -331q-16 -98 -60 -172t-103.5 -118t-140.5 -71.5t-159 -37t-171 -9.5h-674z" />
    <glyph glyph-name="C" unicode="C" horiz-adv-x="1679" 
d="M1436 860q-7 365 -405 365q-126 0 -224 -37t-164 -106.5t-107 -162t-60 -210.5q-21 -114 -7 -209.5t57 -163.5t129.5 -106t211.5 -38q203 0 333 98.5t189 274.5h270q-84 -278 -300 -436.5t-527 -158.5q-350 0 -513.5 199.5t-109.5 539.5q55 342 280.5 540.5t576.5 198.5
q311 0 476.5 -156t162.5 -432h-269z" />
    <glyph glyph-name="D" unicode="D" horiz-adv-x="1551" 
d="M812 1425q218 0 380 -53t254.5 -148.5t128 -224.5t10.5 -285q-26 -165 -91 -290.5t-155 -205t-212.5 -129.5t-253 -69.5t-287.5 -19.5h-446l226 1425h446zM621 223q121 0 208.5 10t174 40.5t144.5 83.5t101.5 142.5t63.5 214.5q38 238 -94.5 363t-442.5 125h-176
l-155 -979h176z" />
    <glyph glyph-name="E" unicode="E" horiz-adv-x="1381" 
d="M366 1425h1099l-36 -224h-829l-58 -368h682l-36 -225h-682l-61 -385h851l-35 -223h-1121z" />
    <glyph glyph-name="F" unicode="F" horiz-adv-x="1276" 
d="M366 1425h1099l-36 -224h-829l-58 -368h682l-36 -225h-682l-96 -608h-270z" />
    <glyph glyph-name="G" unicode="G" horiz-adv-x="1671" 
d="M1352 182q-203 -212 -518 -212q-350 0 -513.5 199.5t-109.5 539.5q55 342 280.5 540.5t576.5 198.5q311 0 476.5 -156t162.5 -432h-269q-7 365 -405 365q-126 0 -224 -37t-164 -106.5t-107 -162t-60 -210.5q-21 -114 -7 -209.5t57 -163.5t129.5 -106t211.5 -38
q185 0 310 82t190 231h-534l32 203h811l-112 -708h-206z" />
    <glyph glyph-name="H" unicode="H" horiz-adv-x="1503" 
d="M366 1425h269l-91 -574h688l91 574h265l-226 -1425h-265l100 629h-688l-100 -629h-269z" />
    <glyph glyph-name="I" unicode="I" horiz-adv-x="611" 
d="M397 1419h266l-225 -1419h-266z" />
    <glyph glyph-name="J" unicode="J" horiz-adv-x="1475" 
d="M424 702q-11 -67 -14 -123.5t1 -117t24.5 -107t55.5 -84.5t94.5 -58t139.5 -20q88 0 158.5 22.5t118.5 60.5t83 94t54.5 116.5t31.5 134.5l128 805h263l-128 -805q-14 -92 -43.5 -176t-87.5 -173t-137.5 -153.5t-202.5 -106t-273 -41.5q-141 0 -245.5 36t-166.5 101.5
t-96.5 157t-34 201.5t20.5 236h256z" />
    <glyph glyph-name="K" unicode="K" horiz-adv-x="1535" 
d="M366 1425h271l-93 -588l770 588h390l-848 -641l617 -784h-358l-475 621l-149 -113l-80 -509h-271z" />
    <glyph glyph-name="L" unicode="L" horiz-adv-x="1361" 
d="M366 1425h268l-191 -1205h833l-35 -220h-1101z" />
    <glyph glyph-name="M" unicode="M" horiz-adv-x="1711" 
d="M366 1425h221l319 -1097l662 1097h227l-226 -1425h-246l126 797l-483 -797h-230l-225 781l-124 -781h-247z" />
    <glyph glyph-name="N" unicode="N" horiz-adv-x="1448" 
d="M366 1425h227l528 -944l150 944h262l-226 -1425h-222l-531 947l-150 -947h-264z" />
    <glyph glyph-name="O" unicode="O" horiz-adv-x="1682" 
d="M211 709q55 342 280.5 540.5t576.5 198.5q352 0 516.5 -199t109.5 -540q-54 -341 -281.5 -540t-578.5 -199q-350 0 -513.5 199.5t-109.5 539.5zM478 709q-21 -114 -7 -209.5t57 -163.5t129.5 -106t211.5 -38q242 0 380.5 139t176.5 378q21 115 7.5 210t-57 163
t-130.5 105.5t-213 37.5t-224 -37t-164 -106.5t-107 -162t-60 -210.5z" />
    <glyph glyph-name="P" unicode="P" horiz-adv-x="1367" 
d="M804 729q314 0 351 233q20 123 -48.5 181t-227.5 58h-281l-75 -472h281zM487 501l-79 -501h-268l226 1425h588q98 0 176.5 -17t131 -47.5t90 -73t53.5 -94t21 -110.5t-7 -121q-15 -95 -58 -175.5t-115.5 -146t-185 -102.5t-253.5 -37h-320z" />
    <glyph glyph-name="Q" unicode="Q" horiz-adv-x="1692" 
d="M478 709q-21 -114 -7 -209.5t57 -163.5t129.5 -106t211.5 -38q242 0 380.5 139t176.5 378q21 115 7.5 210t-57 163t-130.5 105.5t-213 37.5t-224 -37t-164 -106.5t-107 -162t-60 -210.5zM834 -30q-350 0 -513.5 199.5t-109.5 539.5q55 342 280.5 540.5t576.5 198.5
q352 0 516.5 -199t109.5 -540q-46 -300 -232 -493q22 -13 45 -31.5t33.5 -28t37.5 -37t28 -28.5l-183 -178q-40 42 -58.5 59.5t-56.5 42.5t-78 36q-179 -81 -396 -81z" />
    <glyph glyph-name="R" unicode="R" horiz-adv-x="1448" 
d="M906 792q54 0 101 10t91 33t74 67t39 105q9 56 -5 94.5t-36 58t-72.5 29.5t-82.5 11t-97 1h-20h-300l-65 -409h373zM1304 0h-273l57 362q5 31 6 56t-4 44.5t-10.5 35t-19.5 26t-24 18.5t-31.5 13t-35.5 7.5t-41.5 4t-43 1.5h-47.5h-2h-337l-89 -568h-269l226 1425h616
q52 0 97.5 -3t92.5 -10t85.5 -18.5t76 -28.5t63.5 -40.5t49.5 -54.5t33 -70t14 -87t-7.5 -106q-13 -84 -73.5 -169.5t-159.5 -124.5q82 -53 107 -125t9 -180z" />
    <glyph glyph-name="S" unicode="S" horiz-adv-x="1473" 
d="M769 -30q-146 0 -260 33.5t-193.5 101t-109 178t-0.5 255.5h258q-6 -100 5 -162t49.5 -105.5t107.5 -61t180 -17.5q42 0 82 4.5t86 17t81.5 33t62 55t33.5 79.5q8 53 -16.5 92t-73.5 63.5t-114.5 44t-138 37t-145 38t-136 52.5t-109.5 74.5t-66.5 109t-7.5 152.5
q14 84 62 153.5t115.5 115t150.5 77t164.5 45t159.5 13.5q297 0 413 -139.5t72 -418.5h-252q31 167 -27 251t-242 84q-43 0 -95 -9t-108 -27.5t-96.5 -55t-48.5 -83.5q-8 -52 12.5 -89.5t77 -64t103.5 -40t137 -35.5q98 -23 150 -38t132 -50.5t118 -77t61.5 -113t9.5 -162.5
q-16 -104 -83 -186t-161.5 -129t-196.5 -71t-203 -24z" />
    <glyph glyph-name="T" unicode="T" horiz-adv-x="1402" 
d="M759 1202h-470l36 223h1203l-36 -223h-467l-190 -1202h-266z" />
    <glyph glyph-name="U" unicode="U" horiz-adv-x="1563" 
d="M775 -30q-206 0 -338.5 84t-180.5 229t-18 337l128 805h266l-128 -805q-8 -67 -9 -129.5t19 -117t54.5 -95t96.5 -63.5t145 -23q88 0 158.5 22.5t118.5 60.5t83 94t54.5 116.5t31.5 134.5l128 805h263l-128 -805q-14 -92 -43.5 -176t-87.5 -173t-137.5 -153.5
t-202.5 -106t-273 -41.5z" />
    <glyph glyph-name="V" unicode="V" horiz-adv-x="1476" 
d="M262 1425h281l253 -1038l585 1038h284l-800 -1425h-258z" />
    <glyph glyph-name="W" unicode="W" horiz-adv-x="2358" 
d="M1323 966l-522 -966h-261l-278 1425h282l198 -1015l547 1015h222l206 -1017l544 1017h286l-764 -1425h-262z" />
    <glyph glyph-name="X" unicode="X" horiz-adv-x="1631" 
d="M774 754l-415 671h327l279 -464l427 464h328l-626 -671l458 -754h-323l-329 547l-505 -547h-317z" />
    <glyph glyph-name="Y" unicode="Y" horiz-adv-x="1461" 
d="M680 538l-376 887h293l265 -610l453 610h293l-659 -887l-85 -538h-269z" />
    <glyph glyph-name="Z" unicode="Z" horiz-adv-x="1487" 
d="M125 162l1071 1039h-864l36 224h1245l-26 -162l-1071 -1039h900l-35 -224h-1282z" />
    <glyph glyph-name="bracketleft" unicode="[" horiz-adv-x="692" 
d="M785 1352h-232l-206 -1302h232l-31 -195h-431l268 1692h431z" />
    <glyph glyph-name="backslash" unicode="\" horiz-adv-x="926" 
d="M609 -54l-282 1493h208l282 -1493h-208z" />
    <glyph glyph-name="bracketright" unicode="]" horiz-adv-x="695" 
d="M97 -145l31 195h235l206 1302h-235l31 195h433l-268 -1692h-433z" />
    <glyph glyph-name="asciicircum" unicode="^" horiz-adv-x="1127" 
d="M716 952l-336 -565h-220l524 864h161l244 -864h-218z" />
    <glyph glyph-name="underscore" unicode="_" horiz-adv-x="1173" 
d="M117 -148l30 195h891l-30 -195h-891z" />
    <glyph glyph-name="grave" unicode="`" horiz-adv-x="891" 
d="M639 1146l-180 339h250l139 -339h-209z" />
    <glyph glyph-name="a" unicode="a" horiz-adv-x="1127" 
d="M405 307q-10 -62 21 -85.5t115 -23.5q115 0 191 59.5t94 175.5l5 37q-45 0 -86 -2t-104 -11.5t-109 -25.5t-83 -48.5t-44 -75.5zM126 303q11 66 44.5 120t78.5 89.5t108.5 61.5t123.5 40.5t133.5 23t128 10.5t117.5 2q16 96 -16.5 152t-123.5 56q-83 0 -147.5 -41.5
t-77.5 -119.5h-271q20 125 101.5 216t193 134.5t238.5 43.5q203 0 306.5 -105t72.5 -299l-109 -686h-219l-10 99q-146 -122 -333 -122q-80 0 -146.5 20.5t-114.5 59.5t-69.5 102t-8.5 143z" />
    <glyph glyph-name="b" unicode="b" horiz-adv-x="1322" 
d="M1057 549q13 65 5.5 122.5t-30.5 101t-73 69t-123 25.5q-145 0 -230.5 -88.5t-108.5 -229.5q-13 -66 -4 -125t34.5 -103t79 -70t128.5 -26q142 0 220.5 89.5t101.5 234.5zM1330 549q-20 -124 -70 -227t-126 -180t-183.5 -119.5t-235.5 -42.5q-201 0 -303 139l-41 -119
h-231l226 1425h270l-75 -469q153 135 340 135q252 0 360.5 -145.5t68.5 -396.5z" />
    <glyph glyph-name="c" unicode="c" horiz-adv-x="1241" 
d="M983 642q-14 203 -227 203q-74 0 -132 -25.5t-95.5 -71.5t-60.5 -102t-34 -124q-13 -65 -5.5 -123t30 -101.5t72.5 -69t123 -25.5q232 0 305 240h273q-57 -215 -217.5 -339.5t-395.5 -124.5q-255 0 -376 147.5t-82 395.5q39 252 209.5 410.5t424.5 158.5q221 0 341 -123
t122 -326h-275z" />
    <glyph glyph-name="d" unicode="d" horiz-adv-x="1323" 
d="M438 549q-13 -66 -6 -124.5t29.5 -103t72.5 -70.5t124 -26q147 0 232 90.5t108 233.5q23 141 -35.5 229.5t-203.5 88.5q-73 0 -130.5 -25t-95.5 -69.5t-61 -100t-34 -123.5zM165 549q40 251 194.5 396.5t406.5 145.5q186 0 296 -135l75 469h270l-226 -1425h-231l-3 119
q-147 -139 -347 -139q-102 0 -183.5 28t-135 78.5t-86.5 121t-38.5 156.5t8.5 185z" />
    <glyph glyph-name="e" unicode="e" horiz-adv-x="1246" 
d="M984 672q-20 190 -224 190q-103 0 -175 -51.5t-112 -138.5h511zM163 535q40 254 208.5 405t424.5 151q257 0 378.5 -151.5t78.5 -404.5l-11 -64h-814q-6 -118 48.5 -190t179.5 -72q192 0 276 170h280q-70 -187 -223.5 -293.5t-368.5 -106.5q-256 0 -376.5 151t-80.5 405z
" />
    <glyph glyph-name="f" unicode="f" horiz-adv-x="865" 
d="M369 848h-168l35 222h171l28 176q17 103 68.5 141t153.5 38h387l-36 -223h-271q-42 0 -49 -49l-14 -83h312l-35 -222h-310l-134 -848h-272z" />
    <glyph glyph-name="g" unicode="g" horiz-adv-x="1323" 
d="M434 522q-13 -65 -5.5 -123t30 -101.5t72.5 -69t123 -25.5q145 0 231 89t109 230q23 142 -34.5 232.5t-203.5 90.5q-74 0 -132 -25.5t-95.5 -71.5t-60.5 -102t-34 -124zM929 115q-154 -136 -339 -136q-252 0 -360.5 145.5t-68.5 397.5q40 254 201 411.5t414 157.5
q198 0 303 -139l40 118h231l-170 -1078q-42 -261 -200 -397t-413 -136q-205 0 -322.5 99.5t-128.5 296.5h273q11 -91 58.5 -131.5t155.5 -40.5q141 0 212 79.5t96 237.5z" />
    <glyph glyph-name="h" unicode="h" horiz-adv-x="1265" 
d="M366 1425h268l-81 -507q53 77 155.5 125t196.5 48q80 0 142.5 -19.5t103.5 -55.5t68 -83.5t37.5 -107.5t10 -124t-11.5 -135l-90 -566h-267l85 535q7 44 10 76t2 70.5t-11.5 65.5t-29.5 50.5t-53.5 35.5t-82.5 12q-72 0 -131.5 -28.5t-99 -77t-64 -107t-35.5 -124.5
l-80 -508h-268z" />
    <glyph glyph-name="i" unicode="i" horiz-adv-x="618" 
d="M344 1070h268l-169 -1070h-268zM361 1394q4 23 16 46.5t33.5 46t58.5 36.5t83 14q49 0 82 -14.5t45.5 -36t18.5 -46.5t0 -46q-9 -55 -54 -99.5t-137 -44.5q-46 0 -78.5 14t-47 37t-19.5 46.5t-1 46.5z" />
    <glyph glyph-name="j" unicode="j" horiz-adv-x="572" 
d="M-79 -313q47 0 71 3t50 15.5t39.5 40.5t21.5 76l197 1248h266l-198 -1256q-11 -72 -29 -126t-38.5 -91.5t-52 -63t-60 -39.5t-74 -21.5t-82 -9t-95.5 -1.5h-172l35 225h121zM652 1391q-4 -24 -15 -46.5t-31.5 -45.5t-57.5 -37t-86 -14q-88 0 -121.5 45t-25.5 98
q4 23 16 46.5t34 46.5t59 37t83 14q49 0 82 -14.5t45.5 -36.5t18 -47t-0.5 -46z" />
    <glyph glyph-name="k" unicode="k" horiz-adv-x="1401" 
d="M635 1425l-126 -794l568 439h372l-631 -489l437 -581h-341l-311 416l-146 -113l-48 -303h-269l226 1425h269z" />
    <glyph glyph-name="l" unicode="l" horiz-adv-x="551" 
d="M366 1425h269l-226 -1425h-269z" />
    <glyph glyph-name="m" unicode="m" horiz-adv-x="1805" 
d="M309 1070h208l6 -152q67 82 166 127.5t213 45.5q94 0 155.5 -39.5t86.5 -110.5q132 150 348 150q88 0 151.5 -28.5t99 -76.5t52 -116.5t16 -142.5t-14.5 -161l-90 -566h-267l85 535q7 45 10.5 76t5 70.5t-5.5 65.5t-20.5 50.5t-39.5 36t-64 11.5q-97 0 -171 -91t-90 -188
l-90 -566h-266l85 535q7 45 10.5 76t5 70.5t-5.5 65.5t-20.5 50.5t-39.5 36t-64 11.5q-105 0 -179 -99.5t-96 -237.5l-80 -508h-269z" />
    <glyph glyph-name="n" unicode="n" horiz-adv-x="1265" 
d="M309 1070h208l6 -152q65 79 171.5 126t210.5 47q80 0 142.5 -19.5t103.5 -55.5t68 -83.5t37.5 -107.5t10 -124t-11.5 -135l-90 -566h-267l85 535q7 44 10 76t2 70.5t-11.5 65.5t-29.5 50.5t-53.5 35.5t-82.5 12q-72 0 -131.5 -28.5t-99 -77t-64 -107t-35.5 -124.5
l-80 -508h-268z" />
    <glyph glyph-name="o" unicode="o" horiz-adv-x="1245" 
d="M163 535q40 254 208.5 405t424.5 151q257 0 376.5 -151t79.5 -405q-40 -255 -207.5 -405.5t-424.5 -150.5q-256 0 -376.5 151t-80.5 405zM979 535q13 67 6.5 127t-29 104t-72.5 70t-124 26q-73 0 -131 -25.5t-96.5 -71.5t-62 -103.5t-34.5 -126.5q-13 -66 -5.5 -125.5
t30 -104t72.5 -70.5t123 -26q143 0 221 89t102 237z" />
    <glyph glyph-name="p" unicode="p" horiz-adv-x="1322" 
d="M1053 522q13 65 5.5 123.5t-29.5 103t-72 70.5t-124 26q-147 0 -232 -90t-108 -233q-13 -66 -3.5 -124t35.5 -101.5t79 -68.5t127 -25q73 0 130.5 25t95.5 70t61.5 100.5t34.5 123.5zM1326 522q-40 -252 -194.5 -397.5t-406.5 -145.5q-187 0 -297 136l-91 -573h-270
l242 1528h231l4 -118q147 139 347 139q128 0 222 -43t145 -119t70.5 -180t-2.5 -227z" />
    <glyph glyph-name="q" unicode="q" horiz-adv-x="1323" 
d="M434 522q-13 -65 -5.5 -123t30 -101.5t72.5 -69t123 -25.5q145 0 231 89t109 230q23 142 -34.5 232.5t-203.5 90.5q-74 0 -132 -25.5t-95.5 -71.5t-60.5 -102t-34 -124zM161 522q40 254 201 411.5t414 157.5q198 0 303 -139l40 118h231l-242 -1528h-270l91 573
q-154 -136 -339 -136q-252 0 -360.5 145.5t-68.5 397.5z" />
    <glyph glyph-name="r" unicode="r" horiz-adv-x="836" 
d="M309 1070h218l6 -152q66 80 167.5 126.5t204.5 46.5q45 0 66 -3l-50 -265q-39 22 -103 22q-72 0 -131.5 -28.5t-99 -77t-64 -107t-35.5 -124.5l-80 -508h-268z" />
    <glyph glyph-name="s" unicode="s" horiz-adv-x="1100" 
d="M864 698q9 35 11 61.5t-10.5 45t-28.5 30.5t-42.5 19.5t-52.5 10t-58 2.5q-28 0 -56.5 -3t-64.5 -11t-60 -27.5t-29 -47.5q-6 -36 28 -59t92.5 -36t129 -26t139.5 -36.5t123.5 -59.5t81.5 -102.5t13 -158.5q-15 -90 -70 -156t-134.5 -100t-161.5 -49.5t-169 -15.5
q-100 0 -184.5 25.5t-147 78t-84 132.5t4.5 188h271q-32 -105 18.5 -156t157.5 -51q215 0 231 100q6 37 -13 63t-56.5 41t-86.5 26t-104 21.5t-109.5 23.5t-102 36t-82 55.5t-49.5 86t-4 122.5q13 83 69 148t134.5 100.5t161.5 53.5t163 18q103 0 184 -21.5t140.5 -68.5
t79 -121.5t-0.5 -181.5h-272z" />
    <glyph glyph-name="t" unicode="t" horiz-adv-x="831" 
d="M632 0q-41 0 -68 1t-60.5 3.5t-55 8t-46 14.5t-39 22.5t-29.5 33t-21.5 45t-10.5 58.5t-1 74.5t11 91.5l78 496h-167l35 222h167l38 235h266l-38 -235h229l-35 -222h-229l-77 -488q-4 -24 -4.5 -43t3 -33t8.5 -24t16 -16.5t20.5 -10t27 -5.5t31.5 -2.5t37 -0.5h72
l-36 -225h-122z" />
    <glyph glyph-name="u" unicode="u" horiz-adv-x="1223" 
d="M1124 0h-218l-6 152q-53 -76 -164 -124.5t-207 -48.5t-167 28t-111 77.5t-62.5 116t-21.5 143.5t12 161l89 565h267l-84 -534q-7 -44 -10 -76.5t-2 -71t11.5 -65.5t29.5 -50.5t53.5 -35.5t82.5 -12q72 0 131 28.5t98.5 77t64 107t35.5 124.5l80 508h268z" />
    <glyph glyph-name="v" unicode="v" horiz-adv-x="1371" 
d="M247 1070h298l202 -698l418 698h297l-657 -1070h-237z" />
    <glyph glyph-name="w" unicode="w" horiz-adv-x="1770" 
d="M247 1070h279l107 -625l314 625h217l122 -624l297 624h277l-518 -1070h-254l-108 580l-291 -580h-249z" />
    <glyph glyph-name="x" unicode="x" horiz-adv-x="1371" 
d="M603 549l-323 521h323l196 -314l296 314h325l-492 -521l343 -549h-331l-207 341l-314 -341h-320z" />
    <glyph glyph-name="y" unicode="y" horiz-adv-x="1371" 
d="M198 -539l354 591l-305 1018h298l202 -698l418 698h297l-988 -1609h-276z" />
    <glyph glyph-name="z" unicode="z" horiz-adv-x="1234" 
d="M124 159l743 691h-602l34 220h1005l-26 -166l-744 -684h636l-35 -220h-1036z" />
    <glyph glyph-name="braceleft" unicode="{" horiz-adv-x="788" 
d="M779 1352q-115 0 -126 -72q-9 -53 -7 -163q-4 -158 -14 -228q-19 -117 -101 -188q60 -71 41 -187q-10 -66 -58 -228l-8 -30q-31 -98 -37 -134q-6 -39 21 -55.5t83 -16.5h102l-31 -195h-100q-151 0 -224 62.5t-50 206.5q7 52 55 200q36 117 48 188q6 37 -26.5 64
t-109.5 35l28 180q80 8 121 35.5t47 64.5q11 63 12 187q-1 144 7 200q24 145 116.5 207t243.5 62h100l-31 -195h-102z" />
    <glyph glyph-name="bar" unicode="|" horiz-adv-x="523" 
d="M104 -361l308 1944h200l-308 -1944h-200z" />
    <glyph glyph-name="braceright" unicode="}" horiz-adv-x="789" 
d="M637 891q-6 -37 25.5 -64t109.5 -35l-28 -182q-154 -15 -167 -98q-11 -64 -12 -188q0 -144 -8 -200q-24 -145 -116.5 -207t-243.5 -62h-100l31 195h102q116 0 127 72q6 38 6 134v30q4 161 14 228q20 117 102 187q-60 73 -42 188q9 63 58 228l12 41q30 94 34 122
q6 39 -21 55.5t-84 16.5h-102l31 195h100q151 0 224 -62.5t50 -206.5q-7 -49 -54 -200q-35 -111 -48 -187z" />
    <glyph glyph-name="asciitilde" unicode="~" horiz-adv-x="1127" 
d="M1151 775q-58 -359 -302 -359q-62 0 -110 17t-146 73q-68 40 -101.5 54.5t-63.5 14.5q-42 0 -69 -164h-196q29 181 105.5 270t193.5 89q64 0 111 -17.5t146 -73.5q66 -40 100.5 -54t64.5 -14q44 0 70 164h197z" />
    <glyph glyph-name="exclamdown" unicode="&#xa1;" horiz-adv-x="455" 
d="M376 942q-53 0 -84.5 37t-23.5 89q9 54 52 90t96 36q56 0 87 -35.5t22 -90.5q-8 -52 -51 -89t-98 -37zM461 842l-167 -1131h-226l191 1131h202z" />
    <glyph glyph-name="cent" unicode="&#xa2;" horiz-adv-x="1205" 
d="M404 557q-23 -145 15.5 -238t119.5 -127l113 709q-92 -37 -159.5 -124t-88.5 -220zM738 189q69 26 126 87.5t92 152.5h215q-68 -185 -192.5 -301t-273.5 -144l-23 -147h-199l23 146q-178 33 -268 180.5t-52 384.5q35 220 174 370.5t325 190.5l23 150h199l-23 -145
q154 -27 240.5 -150t84.5 -310h-213q-2 106 -39 173t-104 87z" />
    <glyph glyph-name="sterling" unicode="&#xa3;" horiz-adv-x="1144" 
d="M1040 0h-941l29 180q123 31 210.5 98t101.5 160q13 78 -27 180h-199l31 195h94q-23 90 -8 191q28 179 170 292.5t326 113.5q105 0 180 -36.5t117 -104t58 -155.5t7 -198h-216q23 294 -181 294q-88 0 -157.5 -56t-83.5 -141q-13 -92 28 -200h461l-31 -195h-358
q20 -85 5 -173q-23 -143 -120 -245h536z" />
    <glyph glyph-name="currency" unicode="&#xa4;" horiz-adv-x="1132" 
d="M629 413q88 0 153 57t79 143t-33 143t-135 57q-85 0 -150 -57.5t-79 -142.5q-14 -86 33 -143t132 -57zM1064 613q-18 -110 -86 -202l101 -115l-169 -135l-94 111q-106 -54 -217 -54q-112 0 -197 54l-132 -112l-124 139l136 112q-40 97 -23 202q17 111 88 203l-101 113
l168 136l96 -110q106 53 214 53q114 0 199 -54l132 111l124 -136l-137 -114q40 -92 22 -202z" />
    <glyph glyph-name="yen" unicode="&#xa5;" horiz-adv-x="1389" 
d="M1184 283h-340l-45 -283h-211l45 283h-330l31 195h330l15 97l-335 -5l31 194h241l-298 621h259l251 -551l425 551h255l-494 -621h243l-31 -194l-336 5l-15 -97h340z" />
    <glyph glyph-name="brokenbar" unicode="&#xa6;" horiz-adv-x="481" 
d="M240 631l119 754h199l-119 -754h-199zM94 -289l120 754h199l-120 -754h-199z" />
    <glyph glyph-name="section" unicode="&#xa7;" horiz-adv-x="1289" 
d="M794 369q83 7 145 47t73 108q11 69 -52.5 113.5t-204.5 76.5q-66 15 -106 30q-77 -11 -132 -49.5t-67 -110.5q-10 -66 53 -113.5t165 -68.5q69 -15 126 -33zM1232 532q-16 -100 -75.5 -174.5t-149.5 -120.5q63 -90 42 -223q-16 -100 -82.5 -175.5t-166 -114t-216.5 -38.5
q-369 0 -389 442h213q26 -244 214 -244q81 0 140.5 33.5t68.5 91.5q11 70 -42.5 114t-212.5 79q-75 16 -139 46t-116.5 75.5t-77 111.5t-11.5 144q31 199 221 295q-60 88 -42 202q24 153 145 243.5t292 90.5q179 0 268.5 -115t93.5 -311h-211q-24 228 -184 228
q-69 0 -122 -34t-62 -93q-11 -68 48 -108.5t166 -62.5q208 -42 309.5 -134.5t77.5 -247.5z" />
    <glyph glyph-name="dieresis" unicode="&#xa8;" horiz-adv-x="1427" 
d="M780 1429q49 0 79 -35t22 -84q-7 -47 -48 -82t-90 -35t-79.5 34.5t-23.5 82.5q8 49 49 84t91 35zM1099 1429q50 0 79.5 -35t21.5 -84q-7 -47 -48 -82t-90 -35q-48 0 -78 35t-23 82q8 49 49 84t89 35z" />
    <glyph glyph-name="copyright" unicode="&#xa9;" horiz-adv-x="1719" 
d="M1059 1262q-235 0 -422.5 -160.5t-224.5 -391.5q-24 -151 30 -277.5t171 -199.5t271 -73q235 0 423 160t224 390q24 152 -29.5 278.5t-171 200t-271.5 73.5zM1052 1168q157 0 249 -104.5t92 -295.5h-214q-5 93 -44.5 146.5t-114.5 53.5q-95 0 -163 -74t-85 -182
q-18 -111 27 -182.5t135 -71.5q73 0 131 51t94 147h219q-73 -194 -198 -296t-287 -102q-174 0 -271.5 124t-65.5 328q33 208 173 333t323 125zM1090 1459q157 0 288.5 -58.5t217.5 -158.5t123.5 -239t12.5 -293q-24 -154 -105.5 -292.5t-199 -238.5t-267.5 -158.5
t-307 -58.5t-288.5 58.5t-217 158.5t-123 238.5t-13.5 292.5q33 206 161 378t318.5 271.5t399.5 99.5z" />
    <glyph glyph-name="guillemotleft" unicode="&#xab;" horiz-adv-x="1269" 
d="M885 148l-258 369l375 370h260l-376 -370l259 -369h-260zM485 148l-257 369l374 370h261l-376 -370l259 -369h-261z" />
    <glyph glyph-name="logicalnot" unicode="&#xac;" horiz-adv-x="1005" 
d="M766 378l37 235h-607l31 195h806l-68 -430h-199z" />
    <glyph glyph-name="registered" unicode="&#xae;" horiz-adv-x="1058" 
d="M529 775q144 0 234 89t90 229q0 137 -90 225t-234 88t-233.5 -88t-89.5 -225q0 -140 89.5 -229t233.5 -89zM512 1132q29 0 39 1q36 6 36 37q0 25 -17 33t-45 8h-30v-79h17zM529 1524q196 0 323 -121.5t127 -309.5q0 -192 -127 -314.5t-323 -122.5q-197 0 -324 122.5
t-127 314.5q0 188 127 309.5t324 121.5zM661 1076q18 -25 23 -65q7 -41 18.5 -68t22 -36.5t23 -19t17.5 -18.5h-165q-25 45 -40 123q-2 16 -7 21t-21 5h-37v-149h-124v458h143q54 0 95.5 -11.5t72.5 -46t31 -89.5q0 -65 -52 -104z" />
    <glyph glyph-name="macron" unicode="&#xaf;" horiz-adv-x="1029" 
d="M481 1211l30 193h450l-30 -193h-450z" />
    <glyph glyph-name="degree" unicode="&#xb0;" horiz-adv-x="739" 
d="M593 1410q118 0 183 -72.5t46 -187.5q-18 -114 -106 -187.5t-205 -73.5q-118 0 -183 73.5t-47 187.5q19 115 106.5 187.5t205.5 72.5zM562 1215q-31 0 -52.5 -18t-26.5 -47q-5 -30 11.5 -48t47.5 -18t52.5 18t25.5 48q5 29 -11 47t-47 18z" />
    <glyph glyph-name="plusminus" unicode="&#xb1;" horiz-adv-x="1097" 
d="M1115 741l-31 -195h-350l-57 -364h-199l57 364h-350l31 195h350l58 362h199l-58 -362h350zM84 -93l31 194h899l-31 -194h-899z" />
    <glyph glyph-name="acute" unicode="&#xb4;" horiz-adv-x="892" 
d="M406 1146l245 339h251l-287 -339h-209z" />
    <glyph glyph-name="paragraph" unicode="&#xb6;" horiz-adv-x="1120" 
d="M989 -199h-198l220 1389h-83l-220 -1389h-199l123 776l-80 2q-110 9 -184.5 66.5t-102 144.5t-11.5 191q26 159 141 274t284 128l108 2h453z" />
    <glyph glyph-name="periodcentered" unicode="&#xb7;" horiz-adv-x="464" 
d="M350 752q59 0 91 -37t22 -95q-8 -55 -52.5 -93.5t-102.5 -38.5q-57 0 -88 38t-23 94q10 58 52.5 95t100.5 37z" />
    <glyph glyph-name="cedilla" unicode="&#xb8;" horiz-adv-x="1399" 
d="M398 -221q60 -33 120 -33q73 0 109 44q29 34 7 60q-20 23 -72 23l-144 -6l201 288h220l-89 -125q130 -55 90 -218q-8 -120 -97.5 -183.5t-210.5 -63.5q-38 0 -58 1t-49.5 7.5t-55.5 20.5z" />
    <glyph glyph-name="guillemotright" unicode="&#xbb;" horiz-adv-x="1226" 
d="M408 148h-260l377 369l-260 370h260l259 -370zM808 148h-261l377 369l-260 370h261l258 -370z" />
    <glyph glyph-name="questiondown" unicode="&#xbf;" horiz-adv-x="1109" 
d="M715 935q-53 0 -85 37t-24 89q9 54 52.5 90t96.5 36q55 0 86 -36t22 -90q-8 -52 -51 -89t-97 -37zM484 -321q-207 0 -303.5 111t-69.5 284q32 207 264 395q116 94 158.5 169.5t68.5 221.5h207q-34 -193 -90.5 -294t-204.5 -226q-87 -75 -130.5 -137t-53.5 -129
q-15 -91 36 -143t152 -52q112 0 193 85t116 234h212q-47 -232 -199.5 -375.5t-355.5 -143.5z" />
    <glyph glyph-name="Agrave" unicode="&#xc0;" horiz-adv-x="1600" 
d="M960 1014l-295 -513h424zM99 0l814 1425h221l366 -1425h-283l-70 273h-613l-156 -273h-279zM1292 1661h-209l-179 339h250z" />
    <glyph glyph-name="Aacute" unicode="&#xc1;" horiz-adv-x="1600" 
d="M960 1014l-295 -513h424zM99 0l814 1425h221l366 -1425h-283l-70 273h-613l-156 -273h-279zM1058 1655h-209l246 339h251z" />
    <glyph glyph-name="Acircumflex" unicode="&#xc2;" horiz-adv-x="1600" 
d="M960 1014l-295 -513h424zM99 0l814 1425h221l366 -1425h-283l-70 273h-613l-156 -273h-279zM1115 1632l-34 86l-64 -86h-229l265 339h138l154 -339h-230z" />
    <glyph glyph-name="Atilde" unicode="&#xc3;" horiz-adv-x="1600" 
d="M960 1014l-295 -513h424zM99 0l814 1425h221l366 -1425h-283l-70 273h-613l-156 -273h-279zM978 1919q48 0 126 -27l39 -13q-14 9 -11 33h187q-37 -228 -182 -228q-46 0 -127 27l-39 13q14 -8 11 -32h-185q36 227 181 227z" />
    <glyph glyph-name="Adieresis" unicode="&#xc4;" horiz-adv-x="1600" 
d="M960 1014l-295 -513h424zM99 0l814 1425h221l366 -1425h-283l-70 273h-613l-156 -273h-279zM951 1906q48 0 77.5 -35t22.5 -84q-7 -48 -48.5 -83t-89.5 -35q-50 0 -80 35t-22 83q8 49 49 84t91 35zM1271 1905q50 0 80 -34.5t22 -84.5q-8 -48 -49 -82.5t-91 -34.5
q-48 0 -78 35t-22 82q7 49 48.5 84t89.5 35z" />
    <glyph glyph-name="Aring" unicode="&#xc5;" horiz-adv-x="1600" 
d="M960 1014l-295 -513h424zM1073 1832q4 21 -8 33.5t-30 12.5q-17 0 -31 -12t-18 -34q-3 -21 7.5 -32t27.5 -11q19 0 34 11.5t18 31.5zM99 0l814 1425h221l366 -1425h-283l-70 273h-613l-156 -273h-279zM1062 2024q86 0 134 -52.5t34 -138.5q-13 -86 -78.5 -139.5
t-150.5 -53.5q-86 0 -135 53.5t-36 139.5q14 86 79.5 138.5t152.5 52.5z" />
    <glyph glyph-name="AE" unicode="&#xc6;" horiz-adv-x="2178" 
d="M1136 1215l-73 1l-388 -715h348zM2068 0h-1124l43 273h-443l-156 -273h-279l814 1425h1349l-36 -224h-832l-58 -368h682l-36 -225h-682l-61 -385h854z" />
    <glyph glyph-name="Ccedilla" unicode="&#xc7;" horiz-adv-x="1679" 
d="M735 -26q-302 28 -439 224t-87 511q55 342 280.5 540.5t576.5 198.5q311 0 476.5 -156t162.5 -432h-269q-7 365 -405 365q-126 0 -224 -37t-164 -106.5t-107 -162t-60 -210.5q-21 -114 -7 -209.5t57 -163.5t129.5 -106t211.5 -38q203 0 333 98.5t189 274.5h270
q-75 -248 -256.5 -402.5t-443.5 -185.5l-59 -82q119 -50 96 -189q-11 -72 -58 -123.5t-110 -74t-136 -22.5q-77 0 -161 44l32 207q118 -64 161 -64q68 0 73 33q5 30 -23 48.5t-66 23t-73 6.5t-45 -1zM588 -218q1 0 2 1v-1h-2z" />
    <glyph glyph-name="Egrave" unicode="&#xc8;" horiz-adv-x="1381" 
d="M366 1425h1099l-36 -224h-829l-58 -368h682l-36 -225h-682l-61 -385h851l-35 -223h-1121zM1012 1661l-179 339h250l138 -339h-209z" />
    <glyph glyph-name="Eacute" unicode="&#xc9;" horiz-adv-x="1381" 
d="M366 1425h1099l-36 -224h-829l-58 -368h682l-36 -225h-682l-61 -385h851l-35 -223h-1121zM778 1655l246 339h251l-288 -339h-209z" />
    <glyph glyph-name="Ecircumflex" unicode="&#xca;" horiz-adv-x="1381" 
d="M366 1425h1099l-36 -224h-829l-58 -368h682l-36 -225h-682l-61 -385h851l-35 -223h-1121zM1010 1718l-64 -86h-229l265 339h138l154 -339h-230z" />
    <glyph glyph-name="Edieresis" unicode="&#xcb;" horiz-adv-x="1381" 
d="M366 1425h1099l-36 -224h-829l-58 -368h682l-36 -225h-682l-61 -385h851l-35 -223h-1121zM880 1906q48 0 77.5 -35t22.5 -84q-7 -48 -48.5 -83t-89.5 -35q-50 0 -80 35t-22 83q8 49 49 84t91 35zM1200 1905q50 0 80 -34.5t22 -84.5q-8 -48 -49 -82.5t-91 -34.5
q-48 0 -78 35t-22 82q7 49 48.5 84t89.5 35z" />
    <glyph glyph-name="Igrave" unicode="&#xcc;" horiz-adv-x="644" 
d="M348 1419h266l-225 -1419h-266zM538 1661l-179 339h250l138 -339h-209z" />
    <glyph glyph-name="Iacute" unicode="&#xcd;" horiz-adv-x="645" 
d="M447 1419h266l-225 -1419h-266zM403 1655l246 339h251l-288 -339h-209z" />
    <glyph glyph-name="Icircumflex" unicode="&#xce;" horiz-adv-x="630" 
d="M398 1419h266l-225 -1419h-266zM586 1718l-64 -86h-229l265 339h138l154 -339h-230z" />
    <glyph glyph-name="Idieresis" unicode="&#xcf;" horiz-adv-x="662" 
d="M414 1419h266l-225 -1419h-266zM472 1906q48 0 77.5 -35t22.5 -84q-7 -48 -48.5 -83t-89.5 -35q-50 0 -80 35t-22 83q8 49 49 84t91 35zM792 1905q50 0 80 -34.5t22 -84.5q-8 -48 -49 -82.5t-91 -34.5q-48 0 -78 35t-22 82q7 49 48.5 84t89.5 35z" />
    <glyph glyph-name="Ntilde" unicode="&#xd1;" horiz-adv-x="1448" 
d="M366 1425h227l528 -944l150 944h262l-226 -1425h-222l-531 947l-150 -947h-264zM949 1919q48 0 126 -27l39 -13q-14 9 -11 33h187q-37 -228 -182 -228q-46 0 -127 27l-39 13q14 -8 11 -32h-185q36 227 181 227z" />
    <glyph glyph-name="Ograve" unicode="&#xd2;" horiz-adv-x="1682" 
d="M211 709q55 342 280.5 540.5t576.5 198.5q352 0 516.5 -199t109.5 -540q-54 -341 -281.5 -540t-578.5 -199q-350 0 -513.5 199.5t-109.5 539.5zM478 709q-21 -114 -7 -209.5t57 -163.5t129.5 -106t211.5 -38q242 0 380.5 139t176.5 378q21 115 7.5 210t-57 163
t-130.5 105.5t-213 37.5t-224 -37t-164 -106.5t-107 -162t-60 -210.5zM1028 1661l-179 339h250l138 -339h-209z" />
    <glyph glyph-name="Oacute" unicode="&#xd3;" horiz-adv-x="1682" 
d="M211 709q55 342 280.5 540.5t576.5 198.5q352 0 516.5 -199t109.5 -540q-54 -341 -281.5 -540t-578.5 -199q-350 0 -513.5 199.5t-109.5 539.5zM478 709q-21 -114 -7 -209.5t57 -163.5t129.5 -106t211.5 -38q242 0 380.5 139t176.5 378q21 115 7.5 210t-57 163
t-130.5 105.5t-213 37.5t-224 -37t-164 -106.5t-107 -162t-60 -210.5zM967 1655l246 339h251l-288 -339h-209z" />
    <glyph glyph-name="Ocircumflex" unicode="&#xd4;" horiz-adv-x="1682" 
d="M478 709q-21 -114 -7 -209.5t57 -163.5t129.5 -106t211.5 -38q242 0 380.5 139t176.5 378q21 115 7.5 210t-57 163t-130.5 105.5t-213 37.5t-224 -37t-164 -106.5t-107 -162t-60 -210.5zM211 709q55 342 280.5 540.5t576.5 198.5q352 0 516.5 -199t109.5 -540
q-54 -341 -281.5 -540t-578.5 -199q-350 0 -513.5 199.5t-109.5 539.5zM1141 1632l-34 86l-64 -86h-229l265 339h138l154 -339h-230z" />
    <glyph glyph-name="Otilde" unicode="&#xd5;" horiz-adv-x="1682" 
d="M478 709q-21 -114 -7 -209.5t57 -163.5t129.5 -106t211.5 -38q242 0 380.5 139t176.5 378q21 115 7.5 210t-57 163t-130.5 105.5t-213 37.5t-224 -37t-164 -106.5t-107 -162t-60 -210.5zM211 709q55 342 280.5 540.5t576.5 198.5q352 0 516.5 -199t109.5 -540
q-54 -341 -281.5 -540t-578.5 -199q-350 0 -513.5 199.5t-109.5 539.5zM1088 1919q48 0 126 -27l39 -13q-14 9 -11 33h187q-37 -228 -182 -228q-46 0 -127 27l-39 13q14 -8 11 -32h-185q36 227 181 227z" />
    <glyph glyph-name="Odieresis" unicode="&#xd6;" horiz-adv-x="1682" 
d="M211 709q55 342 280.5 540.5t576.5 198.5q352 0 516.5 -199t109.5 -540q-54 -341 -281.5 -540t-578.5 -199q-350 0 -513.5 199.5t-109.5 539.5zM478 709q-21 -114 -7 -209.5t57 -163.5t129.5 -106t211.5 -38q242 0 380.5 139t176.5 378q21 115 7.5 210t-57 163
t-130.5 105.5t-213 37.5t-224 -37t-164 -106.5t-107 -162t-60 -210.5zM964 1906q48 0 77.5 -35t22.5 -84q-7 -48 -48.5 -83t-89.5 -35q-50 0 -80 35t-22 83q8 49 49 84t91 35zM1284 1905q50 0 80 -34.5t22 -84.5q-8 -48 -49 -82.5t-91 -34.5q-48 0 -78 35t-22 82
q7 49 48.5 84t89.5 35z" />
    <glyph glyph-name="multiply" unicode="&#xd7;" horiz-adv-x="1037" 
d="M995 369l-164 -137l-233 267l-320 -267l-121 137l321 267l-236 265l163 137l236 -265l317 265l122 -137l-318 -265z" />
    <glyph glyph-name="Oslash" unicode="&#xd8;" horiz-adv-x="1755" 
d="M679 258q99 -66 263 -66q242 0 380.5 139t176.5 378q33 202 -24 327zM551 709q-24 -158 3 -264l762 744q-88 36 -210 36q-126 0 -224 -37t-164 -106.5t-107 -162t-60 -210.5zM284 709q55 342 280.5 540.5t576.5 198.5q212 0 362 -76l55 53h315l-200 -195
q146 -194 94 -521q-54 -341 -281.5 -540t-578.5 -199q-253 0 -413 108l-79 -78h-316l246 240q-105 185 -61 469z" />
    <glyph glyph-name="Ugrave" unicode="&#xd9;" horiz-adv-x="1563" 
d="M775 -30q-206 0 -338.5 84t-180.5 229t-18 337l128 805h266l-128 -805q-8 -67 -9 -129.5t19 -117t54.5 -95t96.5 -63.5t145 -23q88 0 158.5 22.5t118.5 60.5t83 94t54.5 116.5t31.5 134.5l128 805h263l-128 -805q-14 -92 -43.5 -176t-87.5 -173t-137.5 -153.5
t-202.5 -106t-273 -41.5zM951 1661l-179 339h250l138 -339h-209z" />
    <glyph glyph-name="Uacute" unicode="&#xda;" horiz-adv-x="1563" 
d="M775 -30q-206 0 -338.5 84t-180.5 229t-18 337l128 805h266l-128 -805q-8 -67 -9 -129.5t19 -117t54.5 -95t96.5 -63.5t145 -23q88 0 158.5 22.5t118.5 60.5t83 94t54.5 116.5t31.5 134.5l128 805h263l-128 -805q-14 -92 -43.5 -176t-87.5 -173t-137.5 -153.5
t-202.5 -106t-273 -41.5zM934 1655l246 339h251l-288 -339h-209z" />
    <glyph glyph-name="Ucircumflex" unicode="&#xdb;" horiz-adv-x="1563" 
d="M775 -30q-206 0 -338.5 84t-180.5 229t-18 337l128 805h266l-128 -805q-8 -67 -9 -129.5t19 -117t54.5 -95t96.5 -63.5t145 -23q88 0 158.5 22.5t118.5 60.5t83 94t54.5 116.5t31.5 134.5l128 805h263l-128 -805q-14 -92 -43.5 -176t-87.5 -173t-137.5 -153.5
t-202.5 -106t-273 -41.5zM1053 1718l-64 -86h-229l265 339h138l154 -339h-230z" />
    <glyph glyph-name="Udieresis" unicode="&#xdc;" horiz-adv-x="1563" 
d="M775 -30q-206 0 -338.5 84t-180.5 229t-18 337l128 805h266l-128 -805q-8 -67 -9 -129.5t19 -117t54.5 -95t96.5 -63.5t145 -23q88 0 158.5 22.5t118.5 60.5t83 94t54.5 116.5t31.5 134.5l128 805h263l-128 -805q-14 -92 -43.5 -176t-87.5 -173t-137.5 -153.5
t-202.5 -106t-273 -41.5zM904 1906q48 0 77.5 -35t22.5 -84q-7 -48 -48.5 -83t-89.5 -35q-50 0 -80 35t-22 83q8 49 49 84t91 35zM1224 1905q50 0 80 -34.5t22 -84.5q-8 -48 -49 -82.5t-91 -34.5q-48 0 -78 35t-22 82q7 49 48.5 84t89.5 35z" />
    <glyph glyph-name="Yacute" unicode="&#xdd;" horiz-adv-x="1461" 
d="M680 538l-376 887h293l265 -610l453 610h293l-659 -887l-85 -538h-269zM777 1655l246 339h251l-288 -339h-209z" />
    <glyph glyph-name="germandbls" unicode="&#xdf;" horiz-adv-x="1268" 
d="M290 -456h-260l235 1479q57 219 226.5 347t389.5 128q228 0 341 -123t83 -313q-15 -98 -71 -183.5t-140 -147.5q168 -121 130 -361q-23 -146 -116.5 -258.5t-230.5 -171t-296 -58.5l37 246q138 0 228.5 63t108.5 177q17 101 -51.5 157.5t-234.5 56.5h-125l39 246h125
q117 0 215 63t114 163q15 99 -38.5 148.5t-162.5 49.5q-117 0 -199 -62.5t-115 -180.5z" />
    <glyph glyph-name="agrave" unicode="&#xe0;" horiz-adv-x="1127" 
d="M405 307q-10 -62 21 -85.5t115 -23.5q115 0 191 59.5t94 175.5l5 37q-45 0 -86 -2t-104 -11.5t-109 -25.5t-83 -48.5t-44 -75.5zM126 303q11 66 44.5 120t78.5 89.5t108.5 61.5t123.5 40.5t133.5 23t128 10.5t117.5 2q16 96 -16.5 152t-123.5 56q-83 0 -147.5 -41.5
t-77.5 -119.5h-271q20 125 101.5 216t193 134.5t238.5 43.5q203 0 306.5 -105t72.5 -299l-109 -686h-219l-10 99q-146 -122 -333 -122q-80 0 -146.5 20.5t-114.5 59.5t-69.5 102t-8.5 143zM1049 1273h-209l-179 339h250z" />
    <glyph glyph-name="aacute" unicode="&#xe1;" horiz-adv-x="1127" 
d="M405 307q-10 -62 21 -85.5t115 -23.5q115 0 191 59.5t94 175.5l5 37q-45 0 -86 -2t-104 -11.5t-109 -25.5t-83 -48.5t-44 -75.5zM126 303q11 66 44.5 120t78.5 89.5t108.5 61.5t123.5 40.5t133.5 23t128 10.5t117.5 2q16 96 -16.5 152t-123.5 56q-83 0 -147.5 -41.5
t-77.5 -119.5h-271q20 125 101.5 216t193 134.5t238.5 43.5q203 0 306.5 -105t72.5 -299l-109 -686h-219l-10 99q-146 -122 -333 -122q-80 0 -146.5 20.5t-114.5 59.5t-69.5 102t-8.5 143zM815 1267h-209l246 339h251z" />
    <glyph glyph-name="acircumflex" unicode="&#xe2;" horiz-adv-x="1127" 
d="M405 307q-10 -62 21 -85.5t115 -23.5q115 0 191 59.5t94 175.5l5 37q-45 0 -86 -2t-104 -11.5t-109 -25.5t-83 -48.5t-44 -75.5zM126 303q11 66 44.5 120t78.5 89.5t108.5 61.5t123.5 40.5t133.5 23t128 10.5t117.5 2q16 96 -16.5 152t-123.5 56q-83 0 -147.5 -41.5
t-77.5 -119.5h-271q20 125 101.5 216t193 134.5t238.5 43.5q203 0 306.5 -105t72.5 -299l-109 -686h-219l-10 99q-146 -122 -333 -122q-80 0 -146.5 20.5t-114.5 59.5t-69.5 102t-8.5 143zM872 1244l-34 86l-64 -86h-229l265 339h138l154 -339h-230z" />
    <glyph glyph-name="atilde" unicode="&#xe3;" horiz-adv-x="1127" 
d="M405 307q-10 -62 21 -85.5t115 -23.5q115 0 191 59.5t94 175.5l5 37q-45 0 -86 -2t-104 -11.5t-109 -25.5t-83 -48.5t-44 -75.5zM126 303q11 66 44.5 120t78.5 89.5t108.5 61.5t123.5 40.5t133.5 23t128 10.5t117.5 2q16 96 -16.5 152t-123.5 56q-83 0 -147.5 -41.5
t-77.5 -119.5h-271q20 125 101.5 216t193 134.5t238.5 43.5q203 0 306.5 -105t72.5 -299l-109 -686h-219l-10 99q-146 -122 -333 -122q-80 0 -146.5 20.5t-114.5 59.5t-69.5 102t-8.5 143zM735 1531q48 0 126 -27l39 -13q-14 9 -11 33h187q-37 -228 -182 -228q-46 0 -127 27
l-39 13q14 -8 11 -32h-185q36 227 181 227z" />
    <glyph glyph-name="adieresis" unicode="&#xe4;" horiz-adv-x="1127" 
d="M405 307q-10 -62 21 -85.5t115 -23.5q115 0 191 59.5t94 175.5l5 37q-45 0 -86 -2t-104 -11.5t-109 -25.5t-83 -48.5t-44 -75.5zM126 303q11 66 44.5 120t78.5 89.5t108.5 61.5t123.5 40.5t133.5 23t128 10.5t117.5 2q16 96 -16.5 152t-123.5 56q-83 0 -147.5 -41.5
t-77.5 -119.5h-271q20 125 101.5 216t193 134.5t238.5 43.5q203 0 306.5 -105t72.5 -299l-109 -686h-219l-10 99q-146 -122 -333 -122q-80 0 -146.5 20.5t-114.5 59.5t-69.5 102t-8.5 143zM708 1518q48 0 77.5 -35t22.5 -84q-7 -48 -48.5 -83t-89.5 -35q-50 0 -80 35t-22 83
q8 49 49 84t91 35zM1028 1517q50 0 80 -34.5t22 -84.5q-8 -48 -49 -82.5t-91 -34.5q-48 0 -78 35t-22 82q7 49 48.5 84t89.5 35z" />
    <glyph glyph-name="aring" unicode="&#xe5;" horiz-adv-x="1127" 
d="M405 307q-10 -62 21 -85.5t115 -23.5q115 0 191 59.5t94 175.5l5 37q-45 0 -86 -2t-104 -11.5t-109 -25.5t-83 -48.5t-44 -75.5zM830 1444q4 21 -8 33.5t-30 12.5q-17 0 -31 -12t-18 -34q-3 -21 7.5 -32t27.5 -11q19 0 34 11.5t18 31.5zM126 303q11 66 44.5 120
t78.5 89.5t108.5 61.5t123.5 40.5t133.5 23t128 10.5t117.5 2q16 96 -16.5 152t-123.5 56q-83 0 -147.5 -41.5t-77.5 -119.5h-271q20 125 101.5 216t193 134.5t238.5 43.5q203 0 306.5 -105t72.5 -299l-109 -686h-219l-10 99q-146 -122 -333 -122q-80 0 -146.5 20.5
t-114.5 59.5t-69.5 102t-8.5 143zM819 1636q86 0 134 -52.5t34 -138.5q-13 -86 -78.5 -139.5t-150.5 -53.5q-86 0 -135 53.5t-36 139.5q14 86 79.5 138.5t152.5 52.5z" />
    <glyph glyph-name="ae" unicode="&#xe6;" horiz-adv-x="1925" 
d="M405 307q-10 -62 21 -85.5t115 -23.5q115 0 191 59.5t94 175.5l5 37q-45 0 -86 -2t-104 -11.5t-109 -25.5t-83 -48.5t-44 -75.5zM1663 672q-20 190 -224 190q-103 0 -175 -51.5t-112 -138.5h511zM126 303q11 66 44.5 120t78.5 89.5t108.5 61.5t123.5 40.5t133.5 23
t128 10.5t117.5 2q16 96 -16.5 152t-123.5 56q-83 0 -147.5 -41.5t-77.5 -119.5h-271q20 125 101.5 216t193 134.5t238.5 43.5q225 0 324 -126q163 126 394 126q257 0 378.5 -151.5t78.5 -404.5l-11 -64h-814q-6 -118 48.5 -190t179.5 -72q192 0 276 170h280
q-70 -187 -223.5 -293.5t-368.5 -106.5q-157 0 -266 60l-6 -38h-219l-10 99q-146 -122 -333 -122q-80 0 -146.5 20.5t-114.5 59.5t-69.5 102t-8.5 143z" />
    <glyph glyph-name="ccedilla" unicode="&#xe7;" horiz-adv-x="1241" 
d="M541 -17q-216 23 -316 167.5t-64 371.5q39 252 209.5 410.5t424.5 158.5q221 0 341 -123t122 -326h-275q-14 203 -227 203q-74 0 -132 -25.5t-95.5 -71.5t-60.5 -102t-34 -124q-13 -65 -5.5 -123t30 -101.5t72.5 -69t123 -25.5q232 0 305 240h273q-48 -178 -167.5 -295.5
t-295.5 -153.5l-88 -124q119 -50 96 -189q-11 -72 -58 -123.5t-110 -74t-136 -22.5q-77 0 -161 44l32 207q118 -64 161 -64q68 0 73 33q5 30 -23 48.5t-66 23t-73 6.5t-45 -1zM369 -243q1 0 2 1v-1h-2z" />
    <glyph glyph-name="egrave" unicode="&#xe8;" horiz-adv-x="1246" 
d="M984 672q-20 190 -224 190q-103 0 -175 -51.5t-112 -138.5h511zM163 535q40 254 208.5 405t424.5 151q257 0 378.5 -151.5t78.5 -404.5l-11 -64h-814q-6 -118 48.5 -190t179.5 -72q192 0 276 170h280q-70 -187 -223.5 -293.5t-368.5 -106.5q-256 0 -376.5 151t-80.5 405z
M1093 1263h-209l-179 339h250z" />
    <glyph glyph-name="eacute" unicode="&#xe9;" horiz-adv-x="1246" 
d="M984 672q-20 190 -224 190q-103 0 -175 -51.5t-112 -138.5h511zM163 535q40 254 208.5 405t424.5 151q257 0 378.5 -151.5t78.5 -404.5l-11 -64h-814q-6 -118 48.5 -190t179.5 -72q192 0 276 170h280q-70 -187 -223.5 -293.5t-368.5 -106.5q-256 0 -376.5 151t-80.5 405z
M859 1257h-209l246 339h251z" />
    <glyph glyph-name="ecircumflex" unicode="&#xea;" horiz-adv-x="1246" 
d="M984 672q-20 190 -224 190q-103 0 -175 -51.5t-112 -138.5h511zM163 535q40 254 208.5 405t424.5 151q257 0 378.5 -151.5t78.5 -404.5l-11 -64h-814q-6 -118 48.5 -190t179.5 -72q192 0 276 170h280q-70 -187 -223.5 -293.5t-368.5 -106.5q-256 0 -376.5 151t-80.5 405z
M916 1234l-34 86l-64 -86h-229l265 339h138l154 -339h-230z" />
    <glyph glyph-name="edieresis" unicode="&#xeb;" horiz-adv-x="1246" 
d="M984 672q-20 190 -224 190q-103 0 -175 -51.5t-112 -138.5h511zM163 535q40 254 208.5 405t424.5 151q257 0 378.5 -151.5t78.5 -404.5l-11 -64h-814q-6 -118 48.5 -190t179.5 -72q192 0 276 170h280q-70 -187 -223.5 -293.5t-368.5 -106.5q-256 0 -376.5 151t-80.5 405z
M752 1508q48 0 77.5 -35t22.5 -84q-7 -48 -48.5 -83t-89.5 -35q-50 0 -80 35t-22 83q8 49 49 84t91 35zM1072 1507q50 0 80 -34.5t22 -84.5q-8 -48 -49 -82.5t-91 -34.5q-48 0 -78 35t-22 82q7 49 48.5 84t89.5 35z" />
    <glyph glyph-name="igrave" unicode="&#xec;" horiz-adv-x="656" 
d="M289 1018h268l-161 -1018h-268zM482 1263l-179 339h250l138 -339h-209z" />
    <glyph glyph-name="iacute" unicode="&#xed;" horiz-adv-x="657" 
d="M388 1018h268l-161 -1018h-268zM347 1257l246 339h251l-288 -339h-209z" />
    <glyph glyph-name="icircumflex" unicode="&#xee;" horiz-adv-x="642" 
d="M339 1018h268l-161 -1018h-268zM530 1320l-64 -86h-229l265 339h138l154 -339h-230z" />
    <glyph glyph-name="idieresis" unicode="&#xef;" horiz-adv-x="674" 
d="M355 1018h268l-161 -1018h-268zM416 1508q48 0 77.5 -35t22.5 -84q-7 -48 -48.5 -83t-89.5 -35q-50 0 -80 35t-22 83q8 49 49 84t91 35zM736 1507q50 0 80 -34.5t22 -84.5q-8 -48 -49 -82.5t-91 -34.5q-48 0 -78 35t-22 82q7 49 48.5 84t89.5 35z" />
    <glyph glyph-name="ntilde" unicode="&#xf1;" horiz-adv-x="1265" 
d="M309 1070h208l6 -152q65 79 171.5 126t210.5 47q80 0 142.5 -19.5t103.5 -55.5t68 -83.5t37.5 -107.5t10 -124t-11.5 -135l-90 -566h-267l85 535q7 44 10 76t2 70.5t-11.5 65.5t-29.5 50.5t-53.5 35.5t-82.5 12q-72 0 -131.5 -28.5t-99 -77t-64 -107t-35.5 -124.5
l-80 -508h-268zM804 1521q48 0 126 -27l39 -13q-14 9 -11 33h187q-37 -228 -182 -228q-46 0 -127 27l-39 13q14 -8 11 -32h-185q36 227 181 227z" />
    <glyph glyph-name="ograve" unicode="&#xf2;" horiz-adv-x="1245" 
d="M163 535q40 254 208.5 405t424.5 151q257 0 376.5 -151t79.5 -405q-40 -255 -207.5 -405.5t-424.5 -150.5q-256 0 -376.5 151t-80.5 405zM979 535q13 67 6.5 127t-29 104t-72.5 70t-124 26q-73 0 -131 -25.5t-96.5 -71.5t-62 -103.5t-34.5 -126.5q-13 -66 -5.5 -125.5
t30 -104t72.5 -70.5t123 -26q143 0 221 89t102 237zM894 1263l-179 339h250l138 -339h-209z" />
    <glyph glyph-name="oacute" unicode="&#xf3;" horiz-adv-x="1245" 
d="M163 535q40 254 208.5 405t424.5 151q257 0 376.5 -151t79.5 -405q-40 -255 -207.5 -405.5t-424.5 -150.5q-256 0 -376.5 151t-80.5 405zM979 535q13 67 6.5 127t-29 104t-72.5 70t-124 26q-73 0 -131 -25.5t-96.5 -71.5t-62 -103.5t-34.5 -126.5q-13 -66 -5.5 -125.5
t30 -104t72.5 -70.5t123 -26q143 0 221 89t102 237zM660 1257l246 339h251l-288 -339h-209z" />
    <glyph glyph-name="ocircumflex" unicode="&#xf4;" horiz-adv-x="1245" 
d="M979 535q13 67 6.5 127t-29 104t-72.5 70t-124 26q-73 0 -131 -25.5t-96.5 -71.5t-62 -103.5t-34.5 -126.5q-13 -66 -5.5 -125.5t30 -104t72.5 -70.5t123 -26q143 0 221 89t102 237zM163 535q40 254 208.5 405t424.5 151q257 0 376.5 -151t79.5 -405
q-40 -255 -207.5 -405.5t-424.5 -150.5q-256 0 -376.5 151t-80.5 405zM926 1234l-34 86l-64 -86h-229l265 339h138l154 -339h-230z" />
    <glyph glyph-name="otilde" unicode="&#xf5;" horiz-adv-x="1245" 
d="M979 535q13 67 6.5 127t-29 104t-72.5 70t-124 26q-73 0 -131 -25.5t-96.5 -71.5t-62 -103.5t-34.5 -126.5q-13 -66 -5.5 -125.5t30 -104t72.5 -70.5t123 -26q143 0 221 89t102 237zM163 535q40 254 208.5 405t424.5 151q257 0 376.5 -151t79.5 -405
q-40 -255 -207.5 -405.5t-424.5 -150.5q-256 0 -376.5 151t-80.5 405zM789 1521q48 0 126 -27l39 -13q-14 9 -11 33h187q-37 -228 -182 -228q-46 0 -127 27l-39 13q14 -8 11 -32h-185q36 227 181 227z" />
    <glyph glyph-name="odieresis" unicode="&#xf6;" horiz-adv-x="1245" 
d="M163 535q40 254 208.5 405t424.5 151q257 0 376.5 -151t79.5 -405q-40 -255 -207.5 -405.5t-424.5 -150.5q-256 0 -376.5 151t-80.5 405zM979 535q13 67 6.5 127t-29 104t-72.5 70t-124 26q-73 0 -131 -25.5t-96.5 -71.5t-62 -103.5t-34.5 -126.5q-13 -66 -5.5 -125.5
t30 -104t72.5 -70.5t123 -26q143 0 221 89t102 237zM762 1508q48 0 77.5 -35t22.5 -84q-7 -48 -48.5 -83t-89.5 -35q-50 0 -80 35t-22 83q8 49 49 84t91 35zM1082 1507q50 0 80 -34.5t22 -84.5q-8 -48 -49 -82.5t-91 -34.5q-48 0 -78 35t-22 82q7 49 48.5 84t89.5 35z" />
    <glyph glyph-name="divide" unicode="&#xf7;" horiz-adv-x="1097" 
d="M716 1055q58 0 90 -37t22 -95q-9 -56 -52 -93t-101 -37q-56 0 -89.5 37t-24.5 93q10 58 54.5 95t100.5 37zM185 546l31 195h899l-31 -195h-899zM627 490q58 0 89.5 -37t22.5 -93q-9 -55 -53 -93t-101 -38q-56 0 -89 38t-24 93q9 56 54 93t101 37z" />
    <glyph glyph-name="oslash" unicode="&#xf8;" horiz-adv-x="1423" 
d="M1043 535q10 67 7 118l-430 -428q45 -16 100 -16q143 0 221 89t102 237zM500 535q-11 -69 -7 -122l435 432q-43 17 -104 17q-73 0 -131 -25.5t-96.5 -71.5t-62 -103.5t-34.5 -126.5zM227 535q40 254 208.5 405t424.5 151q151 0 260 -56l34 35h315l-192 -192
q71 -137 39 -343q-40 -255 -207.5 -405.5t-424.5 -150.5q-149 0 -257 54l-33 -33h-316l190 189q-74 142 -41 346z" />
    <glyph glyph-name="ugrave" unicode="&#xf9;" horiz-adv-x="1223" 
d="M1124 0h-218l-6 152q-53 -76 -164 -124.5t-207 -48.5t-167 28t-111 77.5t-62.5 116t-21.5 143.5t12 161l89 565h267l-84 -534q-7 -44 -10 -76.5t-2 -71t11.5 -65.5t29.5 -50.5t53.5 -35.5t82.5 -12q72 0 131 28.5t98.5 77t64 107t35.5 124.5l80 508h268zM796 1263
l-179 339h250l138 -339h-209z" />
    <glyph glyph-name="uacute" unicode="&#xfa;" horiz-adv-x="1223" 
d="M1124 0h-218l-6 152q-53 -76 -164 -124.5t-207 -48.5t-167 28t-111 77.5t-62.5 116t-21.5 143.5t12 161l89 565h267l-84 -534q-7 -44 -10 -76.5t-2 -71t11.5 -65.5t29.5 -50.5t53.5 -35.5t82.5 -12q72 0 131 28.5t98.5 77t64 107t35.5 124.5l80 508h268zM645 1257
l246 339h251l-288 -339h-209z" />
    <glyph glyph-name="ucircumflex" unicode="&#xfb;" horiz-adv-x="1223" 
d="M1124 0h-218l-6 152q-53 -76 -164 -124.5t-207 -48.5t-167 28t-111 77.5t-62.5 116t-21.5 143.5t12 161l89 565h267l-84 -534q-7 -44 -10 -76.5t-2 -71t11.5 -65.5t29.5 -50.5t53.5 -35.5t82.5 -12q72 0 131 28.5t98.5 77t64 107t35.5 124.5l80 508h268zM834 1320
l-64 -86h-229l265 339h138l154 -339h-230z" />
    <glyph glyph-name="udieresis" unicode="&#xfc;" horiz-adv-x="1223" 
d="M1124 0h-218l-6 152q-53 -76 -164 -124.5t-207 -48.5t-167 28t-111 77.5t-62.5 116t-21.5 143.5t12 161l89 565h267l-84 -534q-7 -44 -10 -76.5t-2 -71t11.5 -65.5t29.5 -50.5t53.5 -35.5t82.5 -12q72 0 131 28.5t98.5 77t64 107t35.5 124.5l80 508h268zM695 1508
q48 0 77.5 -35t22.5 -84q-7 -48 -48.5 -83t-89.5 -35q-50 0 -80 35t-22 83q8 49 49 84t91 35zM1015 1507q50 0 80 -34.5t22 -84.5q-8 -48 -49 -82.5t-91 -34.5q-48 0 -78 35t-22 82q7 49 48.5 84t89.5 35z" />
    <glyph glyph-name="yacute" unicode="&#xfd;" horiz-adv-x="1371" 
d="M198 -539l354 591l-305 1018h298l202 -698l418 698h297l-988 -1609h-276zM709 1257l246 339h251l-288 -339h-209z" />
    <glyph glyph-name="ydieresis" unicode="&#xff;" horiz-adv-x="1371" 
d="M198 -539l354 591l-305 1018h298l202 -698l418 698h297l-988 -1609h-276zM742 1508q48 0 77.5 -35t22.5 -84q-7 -48 -48.5 -83t-89.5 -35q-50 0 -80 35t-22 83q8 49 49 84t91 35zM1062 1507q50 0 80 -34.5t22 -84.5q-8 -48 -49 -82.5t-91 -34.5q-48 0 -78 35t-22 82
q7 49 48.5 84t89.5 35z" />
    <glyph glyph-name="Amacron" unicode="&#x100;" horiz-adv-x="1600" 
d="M960 1014l-295 -513h424zM99 0l814 1425h221l366 -1425h-283l-70 273h-613l-156 -273h-279zM1241 1728h-450l30 193h450z" />
    <glyph glyph-name="amacron" unicode="&#x101;" horiz-adv-x="1127" 
d="M405 307q-10 -62 21 -85.5t115 -23.5q115 0 191 59.5t94 175.5l5 37q-45 0 -86 -2t-104 -11.5t-109 -25.5t-83 -48.5t-44 -75.5zM126 303q11 66 44.5 120t78.5 89.5t108.5 61.5t123.5 40.5t133.5 23t128 10.5t117.5 2q16 96 -16.5 152t-123.5 56q-83 0 -147.5 -41.5
t-77.5 -119.5h-271q20 125 101.5 216t193 134.5t238.5 43.5q203 0 306.5 -105t72.5 -299l-109 -686h-219l-10 99q-146 -122 -333 -122q-80 0 -146.5 20.5t-114.5 59.5t-69.5 102t-8.5 143zM998 1340h-450l30 193h450z" />
    <glyph glyph-name="Abreve" unicode="&#x102;" horiz-adv-x="1600" 
d="M960 1014l-295 -513h424zM99 0l814 1425h221l366 -1425h-283l-70 273h-613l-156 -273h-279zM1301 1982q-27 -171 -103 -265t-199 -94t-170 94t-20 265h190q-23 -164 31 -164q52 0 81 164h190z" />
    <glyph glyph-name="abreve" unicode="&#x103;" horiz-adv-x="1127" 
d="M405 307q-10 -62 21 -85.5t115 -23.5q115 0 191 59.5t94 175.5l5 37q-45 0 -86 -2t-104 -11.5t-109 -25.5t-83 -48.5t-44 -75.5zM126 303q11 66 44.5 120t78.5 89.5t108.5 61.5t123.5 40.5t133.5 23t128 10.5t117.5 2q16 96 -16.5 152t-123.5 56q-83 0 -147.5 -41.5
t-77.5 -119.5h-271q20 125 101.5 216t193 134.5t238.5 43.5q203 0 306.5 -105t72.5 -299l-109 -686h-219l-10 99q-146 -122 -333 -122q-80 0 -146.5 20.5t-114.5 59.5t-69.5 102t-8.5 143zM1058 1594q-27 -171 -103 -265t-199 -94t-170 94t-20 265h190q-23 -164 31 -164
q52 0 81 164h190z" />
    <glyph glyph-name="Aogonek" unicode="&#x104;" horiz-adv-x="1600" 
d="M960 1014l-295 -513h424zM1147 273h-613l-156 -273h-279l814 1425h221l366 -1425h-5q-159 -37 -268.5 -104t-120.5 -132q-4 -24 11 -24q32 0 210 140l-39 -245q-119 -86 -222 -86q-91 0 -140 47t-32 155q17 107 98 199t201 144z" />
    <glyph glyph-name="aogonek" unicode="&#x105;" horiz-adv-x="1137" 
d="M405 307q-10 -62 21 -85.5t115 -23.5q115 0 191 59.5t94 175.5l5 37q-45 0 -86 -2t-104 -11.5t-109 -25.5t-83 -48.5t-44 -75.5zM575 -10q-54 -12 -110 -12q-80 0 -146.5 20.5t-114.5 59.5t-69.5 102t-8.5 143q11 66 44.5 120t78.5 89.5t108.5 61.5t123.5 40.5t133.5 23
t128 10.5t117.5 2q16 96 -16.5 152t-123.5 56q-83 0 -147.5 -41.5t-77.5 -119.5h-271q20 125 101.5 216t193 134.5t238.5 43.5q203 0 306.5 -105t72.5 -299l-108 -679l8 -4l-9 -3h-2q-153 -37 -257.5 -102t-114.5 -128q-4 -24 11 -24q31 0 207 138l-39 -241
q-118 -85 -219 -85q-89 0 -137.5 46t-31.5 153q19 127 131 232z" />
    <glyph glyph-name="Cacute" unicode="&#x106;" horiz-adv-x="1679" 
d="M1436 860q-7 365 -405 365q-126 0 -224 -37t-164 -106.5t-107 -162t-60 -210.5q-21 -114 -7 -209.5t57 -163.5t129.5 -106t211.5 -38q203 0 333 98.5t189 274.5h270q-84 -278 -300 -436.5t-527 -158.5q-350 0 -513.5 199.5t-109.5 539.5q55 342 280.5 540.5t576.5 198.5
q311 0 476.5 -156t162.5 -432h-269zM935 1655l246 339h251l-288 -339h-209z" />
    <glyph glyph-name="cacute" unicode="&#x107;" horiz-adv-x="1241" 
d="M983 642q-14 203 -227 203q-74 0 -132 -25.5t-95.5 -71.5t-60.5 -102t-34 -124q-13 -65 -5.5 -123t30 -101.5t72.5 -69t123 -25.5q232 0 305 240h273q-57 -215 -217.5 -339.5t-395.5 -124.5q-255 0 -376 147.5t-82 395.5q39 252 209.5 410.5t424.5 158.5q221 0 341 -123
t122 -326h-275zM664 1257l246 339h251l-288 -339h-209z" />
    <glyph glyph-name="Ccircumflex" unicode="&#x108;" horiz-adv-x="1679" 
d="M1436 860q-7 365 -405 365q-126 0 -224 -37t-164 -106.5t-107 -162t-60 -210.5q-21 -114 -7 -209.5t57 -163.5t129.5 -106t211.5 -38q203 0 333 98.5t189 274.5h270q-84 -278 -300 -436.5t-527 -158.5q-350 0 -513.5 199.5t-109.5 539.5q55 342 280.5 540.5t576.5 198.5
q311 0 476.5 -156t162.5 -432h-269zM1167 1718l-64 -86h-229l265 339h138l154 -339h-230z" />
    <glyph glyph-name="ccircumflex" unicode="&#x109;" horiz-adv-x="1241" 
d="M983 642q-14 203 -227 203q-74 0 -132 -25.5t-95.5 -71.5t-60.5 -102t-34 -124q-13 -65 -5.5 -123t30 -101.5t72.5 -69t123 -25.5q232 0 305 240h273q-57 -215 -217.5 -339.5t-395.5 -124.5q-255 0 -376 147.5t-82 395.5q39 252 209.5 410.5t424.5 158.5q221 0 341 -123
t122 -326h-275zM896 1320l-64 -86h-229l265 339h138l154 -339h-230z" />
    <glyph glyph-name="Cdotaccent" unicode="&#x10a;" horiz-adv-x="1679" 
d="M1436 860q-7 365 -405 365q-126 0 -224 -37t-164 -106.5t-107 -162t-60 -210.5q-21 -114 -7 -209.5t57 -163.5t129.5 -106t211.5 -38q203 0 333 98.5t189 274.5h270q-84 -278 -300 -436.5t-527 -158.5q-350 0 -513.5 199.5t-109.5 539.5q55 342 280.5 540.5t576.5 198.5
q311 0 476.5 -156t162.5 -432h-269zM1139 1922q51 0 82 -36t23 -87t-50.5 -87t-93.5 -36q-52 0 -83 36t-23 87t50.5 87t94.5 36z" />
    <glyph glyph-name="cdotaccent" unicode="&#x10b;" horiz-adv-x="1241" 
d="M983 642q-14 203 -227 203q-74 0 -132 -25.5t-95.5 -71.5t-60.5 -102t-34 -124q-13 -65 -5.5 -123t30 -101.5t72.5 -69t123 -25.5q232 0 305 240h273q-57 -215 -217.5 -339.5t-395.5 -124.5q-255 0 -376 147.5t-82 395.5q39 252 209.5 410.5t424.5 158.5q221 0 341 -123
t122 -326h-275zM868 1524q51 0 82 -36t23 -87t-50.5 -87t-93.5 -36q-52 0 -83 36t-23 87t50.5 87t94.5 36z" />
    <glyph glyph-name="Ccaron" unicode="&#x10c;" horiz-adv-x="1679" 
d="M1436 860q-7 365 -405 365q-126 0 -224 -37t-164 -106.5t-107 -162t-60 -210.5q-21 -114 -7 -209.5t57 -163.5t129.5 -106t211.5 -38q203 0 333 98.5t189 274.5h270q-84 -278 -300 -436.5t-527 -158.5q-350 0 -513.5 199.5t-109.5 539.5q55 342 280.5 540.5t576.5 198.5
q311 0 476.5 -156t162.5 -432h-269zM1225 1635h-137l-158 339h231l35 -87l64 87h227z" />
    <glyph glyph-name="ccaron" unicode="&#x10d;" horiz-adv-x="1241" 
d="M983 642q-14 203 -227 203q-74 0 -132 -25.5t-95.5 -71.5t-60.5 -102t-34 -124q-13 -65 -5.5 -123t30 -101.5t72.5 -69t123 -25.5q232 0 305 240h273q-57 -215 -217.5 -339.5t-395.5 -124.5q-255 0 -376 147.5t-82 395.5q39 252 209.5 410.5t424.5 158.5q221 0 341 -123
t122 -326h-275zM954 1237h-137l-158 339h231l35 -87l64 87h227z" />
    <glyph glyph-name="Dcaron" unicode="&#x10e;" horiz-adv-x="1551" 
d="M621 223q121 0 208.5 10t174 40.5t144.5 83.5t101.5 142.5t63.5 214.5q38 238 -94.5 363t-442.5 125h-176l-155 -979h176zM140 0l226 1425h446q218 0 380 -53t254.5 -148.5t128 -224.5t10.5 -285q-26 -165 -91 -290.5t-155 -205t-212.5 -129.5t-253 -69.5t-287.5 -19.5
h-446zM1348 1974l-262 -339h-137l-158 339h231l35 -87l64 87h227z" />
    <glyph glyph-name="dcaron" unicode="&#x10f;" horiz-adv-x="1260" 
d="M438 549q-13 -66 -6 -124.5t29.5 -103t72.5 -70.5t124 -26q147 0 232 90.5t108 233.5q23 141 -35.5 229.5t-203.5 88.5q-73 0 -130.5 -25t-95.5 -69.5t-61 -100t-34 -123.5zM165 549q40 251 194.5 396.5t406.5 145.5q186 0 296 -135l75 469h270l-226 -1425h-231l-3 119
q-147 -139 -347 -139q-102 0 -183.5 28t-135 78.5t-86.5 121t-38.5 156.5t8.5 185zM1260 1974l-262 -339h-137l-158 339h231l35 -87l64 87h227z" />
    <glyph glyph-name="Emacron" unicode="&#x112;" horiz-adv-x="1381" 
d="M366 1425h1099l-36 -224h-829l-58 -368h682l-36 -225h-682l-61 -385h851l-35 -223h-1121zM720 1728l30 193h450l-30 -193h-450z" />
    <glyph glyph-name="emacron" unicode="&#x113;" horiz-adv-x="1246" 
d="M984 672q-20 190 -224 190q-103 0 -175 -51.5t-112 -138.5h511zM163 535q40 254 208.5 405t424.5 151q257 0 378.5 -151.5t78.5 -404.5l-11 -64h-814q-6 -118 48.5 -190t179.5 -72q192 0 276 170h280q-70 -187 -223.5 -293.5t-368.5 -106.5q-256 0 -376.5 151t-80.5 405z
M1042 1330h-450l30 193h450z" />
    <glyph glyph-name="Edotaccent" unicode="&#x116;" horiz-adv-x="1381" 
d="M366 1425h1099l-36 -224h-829l-58 -368h682l-36 -225h-682l-61 -385h851l-35 -223h-1121zM982 1922q51 0 82 -36t23 -87t-50.5 -87t-93.5 -36q-52 0 -83 36t-23 87t50.5 87t94.5 36z" />
    <glyph glyph-name="edotaccent" unicode="&#x117;" horiz-adv-x="1246" 
d="M984 672q-20 190 -224 190q-103 0 -175 -51.5t-112 -138.5h511zM163 535q40 254 208.5 405t424.5 151q257 0 378.5 -151.5t78.5 -404.5l-11 -64h-814q-6 -118 48.5 -190t179.5 -72q192 0 276 170h280q-70 -187 -223.5 -293.5t-368.5 -106.5q-256 0 -376.5 151t-80.5 405z
M854 1524q51 0 82 -36t23 -87t-50.5 -87t-93.5 -36q-52 0 -83 36t-23 87t50.5 87t94.5 36z" />
    <glyph glyph-name="Eogonek" unicode="&#x118;" horiz-adv-x="1381" 
d="M140 0l226 1425h1099l-36 -224h-829l-58 -368h682l-36 -225h-682l-61 -385h851l-35 -223h-16q-152 -38 -255 -102t-113 -127q-4 -24 11 -24q31 0 207 138l-39 -241q-118 -85 -219 -85q-89 0 -137.5 46t-31.5 153q21 135 142 242h-670z" />
    <glyph glyph-name="eogonek" unicode="&#x119;" horiz-adv-x="1246" 
d="M984 672q-20 190 -224 190q-103 0 -175 -51.5t-112 -138.5h511zM395 19q-141 58 -201.5 193t-30.5 323q40 254 208.5 405t424.5 151q257 0 378.5 -151.5t78.5 -404.5l-11 -64h-814q-6 -118 48.5 -190t179.5 -72q192 0 276 170h280q-52 -140 -153 -236.5t-241 -136.5l4 -2
q-157 -37 -264.5 -102.5t-118.5 -130.5q-4 -24 11 -24q31 0 207 138l-39 -241q-118 -85 -219 -85q-89 0 -137.5 46t-31.5 153q11 73 54.5 140t110.5 121z" />
    <glyph glyph-name="Ecaron" unicode="&#x11a;" horiz-adv-x="1381" 
d="M366 1425h1099l-36 -224h-829l-58 -368h682l-36 -225h-682l-61 -385h851l-35 -223h-1121zM1068 1635h-137l-158 339h231l35 -87l64 87h227z" />
    <glyph glyph-name="ecaron" unicode="&#x11b;" horiz-adv-x="1246" 
d="M984 672q-20 190 -224 190q-103 0 -175 -51.5t-112 -138.5h511zM163 535q40 254 208.5 405t424.5 151q257 0 378.5 -151.5t78.5 -404.5l-11 -64h-814q-6 -118 48.5 -190t179.5 -72q192 0 276 170h280q-70 -187 -223.5 -293.5t-368.5 -106.5q-256 0 -376.5 151t-80.5 405z
M1202 1576l-262 -339h-137l-158 339h231l35 -87l64 87h227z" />
    <glyph glyph-name="Gcircumflex" unicode="&#x11c;" horiz-adv-x="1671" 
d="M1352 182q-203 -212 -518 -212q-350 0 -513.5 199.5t-109.5 539.5q55 342 280.5 540.5t576.5 198.5q311 0 476.5 -156t162.5 -432h-269q-7 365 -405 365q-126 0 -224 -37t-164 -106.5t-107 -162t-60 -210.5q-21 -114 -7 -209.5t57 -163.5t129.5 -106t211.5 -38
q185 0 310 82t190 231h-534l32 203h811l-112 -708h-206zM1176 1718l-64 -86h-229l265 339h138l154 -339h-230z" />
    <glyph glyph-name="gcircumflex" unicode="&#x11d;" horiz-adv-x="1323" 
d="M434 522q-13 -65 -5.5 -123t30 -101.5t72.5 -69t123 -25.5q145 0 231 89t109 230q23 142 -34.5 232.5t-203.5 90.5q-74 0 -132 -25.5t-95.5 -71.5t-60.5 -102t-34 -124zM929 115q-154 -136 -339 -136q-252 0 -360.5 145.5t-68.5 397.5q40 254 201 411.5t414 157.5
q198 0 303 -139l40 118h231l-170 -1078q-42 -261 -200 -397t-413 -136q-205 0 -322.5 99.5t-128.5 296.5h273q11 -91 58.5 -131.5t155.5 -40.5q141 0 212 79.5t96 237.5zM984 1234l-34 86l-64 -86h-229l265 339h138l154 -339h-230z" />
    <glyph glyph-name="Gbreve" unicode="&#x11e;" horiz-adv-x="1671" 
d="M1352 182q-203 -212 -518 -212q-350 0 -513.5 199.5t-109.5 539.5q55 342 280.5 540.5t576.5 198.5q311 0 476.5 -156t162.5 -432h-269q-7 365 -405 365q-126 0 -224 -37t-164 -106.5t-107 -162t-60 -210.5q-21 -114 -7 -209.5t57 -163.5t129.5 -106t211.5 -38
q185 0 310 82t190 231h-534l32 203h811l-112 -708h-206zM1396 1982q-27 -171 -103 -265t-199 -94t-170 94t-20 265h190q-23 -164 31 -164q52 0 81 164h190z" />
    <glyph glyph-name="gbreve" unicode="&#x11f;" horiz-adv-x="1323" 
d="M434 522q-13 -65 -5.5 -123t30 -101.5t72.5 -69t123 -25.5q145 0 231 89t109 230q23 142 -34.5 232.5t-203.5 90.5q-74 0 -132 -25.5t-95.5 -71.5t-60.5 -102t-34 -124zM929 115q-154 -136 -339 -136q-252 0 -360.5 145.5t-68.5 397.5q40 254 201 411.5t414 157.5
q198 0 303 -139l40 118h231l-170 -1078q-42 -261 -200 -397t-413 -136q-205 0 -322.5 99.5t-128.5 296.5h273q11 -91 58.5 -131.5t155.5 -40.5q141 0 212 79.5t96 237.5zM1045 1584q-27 -171 -103 -265t-199 -94t-170 94t-20 265h190q-23 -164 31 -164q52 0 81 164h190z" />
    <glyph glyph-name="Gdotaccent" unicode="&#x120;" horiz-adv-x="1671" 
d="M1352 182q-203 -212 -518 -212q-350 0 -513.5 199.5t-109.5 539.5q55 342 280.5 540.5t576.5 198.5q311 0 476.5 -156t162.5 -432h-269q-7 365 -405 365q-126 0 -224 -37t-164 -106.5t-107 -162t-60 -210.5q-21 -114 -7 -209.5t57 -163.5t129.5 -106t211.5 -38
q185 0 310 82t190 231h-534l32 203h811l-112 -708h-206zM1148 1922q51 0 82 -36t23 -87t-50.5 -87t-93.5 -36q-52 0 -83 36t-23 87t50.5 87t94.5 36z" />
    <glyph glyph-name="gdotaccent" unicode="&#x121;" horiz-adv-x="1323" 
d="M434 522q-13 -65 -5.5 -123t30 -101.5t72.5 -69t123 -25.5q145 0 231 89t109 230q23 142 -34.5 232.5t-203.5 90.5q-74 0 -132 -25.5t-95.5 -71.5t-60.5 -102t-34 -124zM929 115q-154 -136 -339 -136q-252 0 -360.5 145.5t-68.5 397.5q40 254 201 411.5t414 157.5
q198 0 303 -139l40 118h231l-170 -1078q-42 -261 -200 -397t-413 -136q-205 0 -322.5 99.5t-128.5 296.5h273q11 -91 58.5 -131.5t155.5 -40.5q141 0 212 79.5t96 237.5zM922 1524q51 0 82 -36t23 -87t-50.5 -87t-93.5 -36q-52 0 -83 36t-23 87t50.5 87t94.5 36z" />
    <glyph glyph-name="Hcircumflex" unicode="&#x124;" horiz-adv-x="1503" 
d="M366 1425h269l-91 -574h688l91 574h265l-226 -1425h-265l100 629h-688l-100 -629h-269zM1071 1718l-64 -86h-229l265 339h138l154 -339h-230z" />
    <glyph glyph-name="hcircumflex" unicode="&#x125;" horiz-adv-x="1265" 
d="M366 1425h268l-81 -507q53 77 155.5 125t196.5 48q80 0 142.5 -19.5t103.5 -55.5t68 -83.5t37.5 -107.5t10 -124t-11.5 -135l-90 -566h-267l85 535q7 44 10 76t2 70.5t-11.5 65.5t-29.5 50.5t-53.5 35.5t-82.5 12q-72 0 -131.5 -28.5t-99 -77t-64 -107t-35.5 -124.5
l-80 -508h-268zM970 1718l-64 -86h-229l265 339h138l154 -339h-230z" />
    <glyph glyph-name="Idotaccent" unicode="&#x130;" horiz-adv-x="602" 
d="M414 1419h266l-225 -1419h-266zM574 1922q51 0 82 -36t23 -87t-50.5 -87t-93.5 -36q-52 0 -83 36t-23 87t50.5 87t94.5 36z" />
    <glyph glyph-name="dotlessi" unicode="&#x131;" horiz-adv-x="623" 
d="M338 1018h268l-161 -1018h-268z" />
    <glyph glyph-name="IJ" unicode="&#x132;" horiz-adv-x="1887" 
d="M397 1419h266l-225 -1419h-266zM836 702q-11 -67 -14 -123.5t1 -117t24.5 -107t55.5 -84.5t94.5 -58t139.5 -20q88 0 158.5 22.5t118.5 60.5t83 94t54.5 116.5t31.5 134.5l128 805h263l-128 -805q-14 -92 -43.5 -176t-87.5 -173t-137.5 -153.5t-202.5 -106t-273 -41.5
q-141 0 -245.5 36t-166.5 101.5t-96.5 157t-34 201.5t20.5 236h256z" />
    <glyph glyph-name="ij" unicode="&#x133;" horiz-adv-x="1180" 
d="M344 1070h268l-169 -1070h-268zM361 1394q4 23 16 46.5t33.5 46t58.5 36.5t83 14q49 0 82 -14.5t45.5 -36t18.5 -46.5t0 -46q-9 -55 -54 -99.5t-137 -44.5q-46 0 -78.5 14t-47 37t-19.5 46.5t-1 46.5zM529 -313q47 0 71 3t50 15.5t39.5 40.5t21.5 76l197 1248h266
l-198 -1256q-11 -72 -29 -126t-38.5 -91.5t-52 -63t-60 -39.5t-74 -21.5t-82 -9t-95.5 -1.5h-172l35 225h121zM1260 1391q-4 -24 -15 -46.5t-31.5 -45.5t-57.5 -37t-86 -14q-88 0 -121.5 45t-25.5 98q4 23 16 46.5t34 46.5t59 37t83 14q49 0 82 -14.5t45.5 -36.5t18 -47
t-0.5 -46z" />
    <glyph glyph-name="uni0136" unicode="&#x136;" horiz-adv-x="1535" 
d="M366 1425h271l-93 -588l770 588h390l-848 -641l617 -784h-358l-475 621l-149 -113l-80 -509h-271zM655 -435h-200l195 371h229z" />
    <glyph glyph-name="uni0137" unicode="&#x137;" horiz-adv-x="1401" 
d="M635 1425l-126 -794l568 439h372l-631 -489l437 -581h-341l-311 416l-146 -113l-48 -303h-269l226 1425h269zM495 -435h-200l195 371h229z" />
    <glyph glyph-name="Lacute" unicode="&#x139;" horiz-adv-x="1411" 
d="M416 1425h268l-191 -1205h833l-35 -220h-1101zM401 1672l246 339h251l-288 -339h-209z" />
    <glyph glyph-name="lacute" unicode="&#x13a;" horiz-adv-x="584" 
d="M416 1425h269l-226 -1425h-269zM374 1657l246 339h251l-288 -339h-209z" />
    <glyph glyph-name="uni013B" unicode="&#x13b;" horiz-adv-x="1361" 
d="M366 1425h268l-191 -1205h833l-35 -220h-1101zM617 -435h-200l195 371h229z" />
    <glyph glyph-name="uni013C" unicode="&#x13c;" horiz-adv-x="557" 
d="M379 1425h269l-226 -1425h-269zM178 -435h-200l195 371h229z" />
    <glyph glyph-name="Lcaron" unicode="&#x13d;" horiz-adv-x="1361" 
d="M366 1425h268l-191 -1205h833l-35 -220h-1101zM641 1652h-137l-158 339h231l35 -87l64 87h227z" />
    <glyph glyph-name="lcaron" unicode="&#x13e;" horiz-adv-x="569" 
d="M366 1425h269l-226 -1425h-269zM614 1637h-137l-158 339h231l35 -87l64 87h227z" />
    <glyph glyph-name="Nacute" unicode="&#x143;" horiz-adv-x="1448" 
d="M366 1425h227l528 -944l150 944h262l-226 -1425h-222l-531 947l-150 -947h-264zM820 1655l246 339h251l-288 -339h-209z" />
    <glyph glyph-name="nacute" unicode="&#x144;" horiz-adv-x="1265" 
d="M309 1070h208l6 -152q65 79 171.5 126t210.5 47q80 0 142.5 -19.5t103.5 -55.5t68 -83.5t37.5 -107.5t10 -124t-11.5 -135l-90 -566h-267l85 535q7 44 10 76t2 70.5t-11.5 65.5t-29.5 50.5t-53.5 35.5t-82.5 12q-72 0 -131.5 -28.5t-99 -77t-64 -107t-35.5 -124.5
l-80 -508h-268zM675 1257l246 339h251l-288 -339h-209z" />
    <glyph glyph-name="uni0145" unicode="&#x145;" horiz-adv-x="1448" 
d="M366 1425h227l528 -944l150 944h262l-226 -1425h-222l-531 947l-150 -947h-264zM641 -435h-200l195 371h229z" />
    <glyph glyph-name="uni0146" unicode="&#x146;" horiz-adv-x="1265" 
d="M309 1070h208l6 -152q65 79 171.5 126t210.5 47q80 0 142.5 -19.5t103.5 -55.5t68 -83.5t37.5 -107.5t10 -124t-11.5 -135l-90 -566h-267l85 535q7 44 10 76t2 70.5t-11.5 65.5t-29.5 50.5t-53.5 35.5t-82.5 12q-72 0 -131.5 -28.5t-99 -77t-64 -107t-35.5 -124.5
l-80 -508h-268zM560 -435h-200l195 371h229z" />
    <glyph glyph-name="Ncaron" unicode="&#x147;" horiz-adv-x="1448" 
d="M366 1425h227l528 -944l150 944h262l-226 -1425h-222l-531 947l-150 -947h-264zM1110 1635h-137l-158 339h231l35 -87l64 87h227z" />
    <glyph glyph-name="ncaron" unicode="&#x148;" horiz-adv-x="1265" 
d="M309 1070h208l6 -152q65 79 171.5 126t210.5 47q80 0 142.5 -19.5t103.5 -55.5t68 -83.5t37.5 -107.5t10 -124t-11.5 -135l-90 -566h-267l85 535q7 44 10 76t2 70.5t-11.5 65.5t-29.5 50.5t-53.5 35.5t-82.5 12q-72 0 -131.5 -28.5t-99 -77t-64 -107t-35.5 -124.5
l-80 -508h-268zM965 1237h-137l-158 339h231l35 -87l64 87h227z" />
    <glyph glyph-name="Omacron" unicode="&#x14c;" horiz-adv-x="1682" 
d="M211 709q55 342 280.5 540.5t576.5 198.5q352 0 516.5 -199t109.5 -540q-54 -341 -281.5 -540t-578.5 -199q-350 0 -513.5 199.5t-109.5 539.5zM478 709q-21 -114 -7 -209.5t57 -163.5t129.5 -106t211.5 -38q242 0 380.5 139t176.5 378q21 115 7.5 210t-57 163
t-130.5 105.5t-213 37.5t-224 -37t-164 -106.5t-107 -162t-60 -210.5zM861 1728l30 193h450l-30 -193h-450z" />
    <glyph glyph-name="omacron" unicode="&#x14d;" horiz-adv-x="1245" 
d="M163 535q40 254 208.5 405t424.5 151q257 0 376.5 -151t79.5 -405q-40 -255 -207.5 -405.5t-424.5 -150.5q-256 0 -376.5 151t-80.5 405zM979 535q13 67 6.5 127t-29 104t-72.5 70t-124 26q-73 0 -131 -25.5t-96.5 -71.5t-62 -103.5t-34.5 -126.5q-13 -66 -5.5 -125.5
t30 -104t72.5 -70.5t123 -26q143 0 221 89t102 237zM602 1330l30 193h450l-30 -193h-450z" />
    <glyph glyph-name="Ohungarumlaut" unicode="&#x150;" horiz-adv-x="1682" 
d="M211 709q55 342 280.5 540.5t576.5 198.5q352 0 516.5 -199t109.5 -540q-54 -341 -281.5 -540t-578.5 -199q-350 0 -513.5 199.5t-109.5 539.5zM478 709q-21 -114 -7 -209.5t57 -163.5t129.5 -106t211.5 -38q242 0 380.5 139t176.5 378q21 115 7.5 210t-57 163
t-130.5 105.5t-213 37.5t-224 -37t-164 -106.5t-107 -162t-60 -210.5zM767 1655l246 339h251l-288 -339h-209zM1121 1655l245 339h252l-288 -339h-209z" />
    <glyph glyph-name="ohungarumlaut" unicode="&#x151;" horiz-adv-x="1245" 
d="M163 535q40 254 208.5 405t424.5 151q257 0 376.5 -151t79.5 -405q-40 -255 -207.5 -405.5t-424.5 -150.5q-256 0 -376.5 151t-80.5 405zM979 535q13 67 6.5 127t-29 104t-72.5 70t-124 26q-73 0 -131 -25.5t-96.5 -71.5t-62 -103.5t-34.5 -126.5q-13 -66 -5.5 -125.5
t30 -104t72.5 -70.5t123 -26q143 0 221 89t102 237zM554 1257l246 339h251l-288 -339h-209zM908 1257l245 339h252l-288 -339h-209z" />
    <glyph glyph-name="OE" unicode="&#x152;" horiz-adv-x="2561" 
d="M478 709q-21 -114 -7 -209.5t57 -163.5t129.5 -106t211.5 -38q242 0 380.5 139t176.5 378q21 115 7.5 210t-57 163t-130.5 105.5t-213 37.5t-224 -37t-164 -106.5t-107 -162t-60 -210.5zM211 709q55 342 280.5 540.5t576.5 198.5q292 0 459 -141l19 118h1099l-36 -224
h-829l-58 -368h682l-36 -225h-682l-61 -385h851l-35 -223h-1121l18 112q-211 -142 -504 -142q-350 0 -513.5 199.5t-109.5 539.5z" />
    <glyph glyph-name="oe" unicode="&#x153;" horiz-adv-x="2060" 
d="M984 574q7 63 -1.5 113.5t-33 90.5t-72.5 62t-117 22q-73 0 -131 -25.5t-96.5 -71.5t-62 -103.5t-34.5 -126.5q-13 -66 -5.5 -125.5t30 -104t72.5 -70.5t123 -26q134 0 210.5 78t105.5 209l5 39zM1798 672q-20 190 -224 190q-103 0 -175 -51.5t-112 -138.5h511zM163 535
q40 254 208.5 405t424.5 151q263 0 382 -158q172 158 432 158q257 0 378.5 -151.5t78.5 -404.5l-11 -64h-814q-6 -118 48.5 -190t179.5 -72q192 0 276 170h280q-70 -187 -223.5 -293.5t-368.5 -106.5q-260 0 -382 158q-169 -158 -432 -158q-256 0 -376.5 151t-80.5 405z" />
    <glyph glyph-name="Racute" unicode="&#x154;" horiz-adv-x="1448" 
d="M906 792q54 0 101 10t91 33t74 67t39 105q9 56 -5 94.5t-36 58t-72.5 29.5t-82.5 11t-97 1h-20h-300l-65 -409h373zM1304 0h-273l57 362q5 31 6 56t-4 44.5t-10.5 35t-19.5 26t-24 18.5t-31.5 13t-35.5 7.5t-41.5 4t-43 1.5h-47.5h-2h-337l-89 -568h-269l226 1425h616
q52 0 97.5 -3t92.5 -10t85.5 -18.5t76 -28.5t63.5 -40.5t49.5 -54.5t33 -70t14 -87t-7.5 -106q-13 -84 -73.5 -169.5t-159.5 -124.5q82 -53 107 -125t9 -180zM1002 1655h-209l246 339h251z" />
    <glyph glyph-name="racute" unicode="&#x155;" horiz-adv-x="836" 
d="M309 1070h218l6 -152q66 80 167.5 126.5t204.5 46.5q45 0 66 -3l-50 -265q-39 22 -103 22q-72 0 -131.5 -28.5t-99 -77t-64 -107t-35.5 -124.5l-80 -508h-268zM428 1257l246 339h251l-288 -339h-209z" />
    <glyph glyph-name="uni0156" unicode="&#x156;" horiz-adv-x="1448" 
d="M906 792q54 0 101 10t91 33t74 67t39 105q9 56 -5 94.5t-36 58t-72.5 29.5t-82.5 11t-97 1h-20h-300l-65 -409h373zM1304 0h-273l57 362q5 31 6 56t-4 44.5t-10.5 35t-19.5 26t-24 18.5t-31.5 13t-35.5 7.5t-41.5 4t-43 1.5h-47.5h-2h-337l-89 -568h-269l226 1425h616
q52 0 97.5 -3t92.5 -10t85.5 -18.5t76 -28.5t63.5 -40.5t49.5 -54.5t33 -70t14 -87t-7.5 -106q-13 -84 -73.5 -169.5t-159.5 -124.5q82 -53 107 -125t9 -180zM847 -64l-224 -371h-200l195 371h229z" />
    <glyph glyph-name="uni0157" unicode="&#x157;" horiz-adv-x="856" 
d="M329 1070h218l6 -152q66 80 167.5 126.5t204.5 46.5q45 0 66 -3l-50 -265q-39 22 -103 22q-72 0 -131.5 -28.5t-99 -77t-64 -107t-35.5 -124.5l-80 -508h-268zM176 -435h-200l195 371h229z" />
    <glyph glyph-name="Rcaron" unicode="&#x158;" horiz-adv-x="1448" 
d="M906 792q54 0 101 10t91 33t74 67t39 105q9 56 -5 94.5t-36 58t-72.5 29.5t-82.5 11t-97 1h-20h-300l-65 -409h373zM1304 0h-273l57 362q5 31 6 56t-4 44.5t-10.5 35t-19.5 26t-24 18.5t-31.5 13t-35.5 7.5t-41.5 4t-43 1.5h-47.5h-2h-337l-89 -568h-269l226 1425h616
q52 0 97.5 -3t92.5 -10t85.5 -18.5t76 -28.5t63.5 -40.5t49.5 -54.5t33 -70t14 -87t-7.5 -106q-13 -84 -73.5 -169.5t-159.5 -124.5q82 -53 107 -125t9 -180zM1345 1974l-262 -339h-137l-158 339h231l35 -87l64 87h227z" />
    <glyph glyph-name="rcaron" unicode="&#x159;" horiz-adv-x="836" 
d="M309 1070h218l6 -152q66 80 167.5 126.5t204.5 46.5q45 0 66 -3l-50 -265q-39 22 -103 22q-72 0 -131.5 -28.5t-99 -77t-64 -107t-35.5 -124.5l-80 -508h-268zM718 1237h-137l-158 339h231l35 -87l64 87h227z" />
    <glyph glyph-name="Sacute" unicode="&#x15a;" horiz-adv-x="1473" 
d="M769 -30q-146 0 -260 33.5t-193.5 101t-109 178t-0.5 255.5h258q-6 -100 5 -162t49.5 -105.5t107.5 -61t180 -17.5q42 0 82 4.5t86 17t81.5 33t62 55t33.5 79.5q8 53 -16.5 92t-73.5 63.5t-114.5 44t-138 37t-145 38t-136 52.5t-109.5 74.5t-66.5 109t-7.5 152.5
q14 84 62 153.5t115.5 115t150.5 77t164.5 45t159.5 13.5q297 0 413 -139.5t72 -418.5h-252q31 167 -27 251t-242 84q-43 0 -95 -9t-108 -27.5t-96.5 -55t-48.5 -83.5q-8 -52 12.5 -89.5t77 -64t103.5 -40t137 -35.5q98 -23 150 -38t132 -50.5t118 -77t61.5 -113t9.5 -162.5
q-16 -104 -83 -186t-161.5 -129t-196.5 -71t-203 -24zM827 1655l246 339h251l-288 -339h-209z" />
    <glyph glyph-name="sacute" unicode="&#x15b;" horiz-adv-x="1100" 
d="M864 698q9 35 11 61.5t-10.5 45t-28.5 30.5t-42.5 19.5t-52.5 10t-58 2.5q-28 0 -56.5 -3t-64.5 -11t-60 -27.5t-29 -47.5q-6 -36 28 -59t92.5 -36t129 -26t139.5 -36.5t123.5 -59.5t81.5 -102.5t13 -158.5q-15 -90 -70 -156t-134.5 -100t-161.5 -49.5t-169 -15.5
q-100 0 -184.5 25.5t-147 78t-84 132.5t4.5 188h271q-32 -105 18.5 -156t157.5 -51q215 0 231 100q6 37 -13 63t-56.5 41t-86.5 26t-104 21.5t-109.5 23.5t-102 36t-82 55.5t-49.5 86t-4 122.5q13 83 69 148t134.5 100.5t161.5 53.5t163 18q103 0 184 -21.5t140.5 -68.5
t79 -121.5t-0.5 -181.5h-272zM572 1257l246 339h251l-288 -339h-209z" />
    <glyph glyph-name="Scircumflex" unicode="&#x15c;" horiz-adv-x="1473" 
d="M769 -30q-146 0 -260 33.5t-193.5 101t-109 178t-0.5 255.5h258q-6 -100 5 -162t49.5 -105.5t107.5 -61t180 -17.5q42 0 82 4.5t86 17t81.5 33t62 55t33.5 79.5q8 53 -16.5 92t-73.5 63.5t-114.5 44t-138 37t-145 38t-136 52.5t-109.5 74.5t-66.5 109t-7.5 152.5
q14 84 62 153.5t115.5 115t150.5 77t164.5 45t159.5 13.5q297 0 413 -139.5t72 -418.5h-252q31 167 -27 251t-242 84q-43 0 -95 -9t-108 -27.5t-96.5 -55t-48.5 -83.5q-8 -52 12.5 -89.5t77 -64t103.5 -40t137 -35.5q98 -23 150 -38t132 -50.5t118 -77t61.5 -113t9.5 -162.5
q-16 -104 -83 -186t-161.5 -129t-196.5 -71t-203 -24zM1059 1718l-64 -86h-229l265 339h138l154 -339h-230z" />
    <glyph glyph-name="scircumflex" unicode="&#x15d;" horiz-adv-x="1100" 
d="M864 698q9 35 11 61.5t-10.5 45t-28.5 30.5t-42.5 19.5t-52.5 10t-58 2.5q-28 0 -56.5 -3t-64.5 -11t-60 -27.5t-29 -47.5q-6 -36 28 -59t92.5 -36t129 -26t139.5 -36.5t123.5 -59.5t81.5 -102.5t13 -158.5q-15 -90 -70 -156t-134.5 -100t-161.5 -49.5t-169 -15.5
q-100 0 -184.5 25.5t-147 78t-84 132.5t4.5 188h271q-32 -105 18.5 -156t157.5 -51q215 0 231 100q6 37 -13 63t-56.5 41t-86.5 26t-104 21.5t-109.5 23.5t-102 36t-82 55.5t-49.5 86t-4 122.5q13 83 69 148t134.5 100.5t161.5 53.5t163 18q103 0 184 -21.5t140.5 -68.5
t79 -121.5t-0.5 -181.5h-272zM804 1320l-64 -86h-229l265 339h138l154 -339h-230z" />
    <glyph glyph-name="Scedilla" unicode="&#x15e;" horiz-adv-x="1473" 
d="M630 -22q-116 15 -204 55.5t-147.5 109.5t-77.5 167t5 228h258q-6 -100 5 -162t49.5 -105.5t107.5 -61t180 -17.5q42 0 82 4.5t86 17t81.5 33t62 55t33.5 79.5q8 53 -16.5 92t-73.5 63.5t-114.5 44t-138 37t-145 38t-136 52.5t-109.5 74.5t-66.5 109t-7.5 152.5
q14 84 62 153.5t115.5 115t150.5 77t164.5 45t159.5 13.5q297 0 413 -139.5t72 -418.5h-252q31 167 -27 251t-242 84q-43 0 -95 -9t-108 -27.5t-96.5 -55t-48.5 -83.5q-8 -52 12.5 -89.5t77 -64t103.5 -40t137 -35.5q98 -23 150 -38t132 -50.5t118 -77t61.5 -113t9.5 -162.5
q-15 -94 -71 -170.5t-137 -124t-171.5 -75.5t-185.5 -36l-56 -79q119 -50 96 -189q-11 -72 -58 -123.5t-110 -74t-136 -22.5q-77 0 -161 44l32 207q118 -64 161 -64q68 0 73 33q5 30 -23 48.5t-66 23t-73 6.5t-45 -1zM480 -218q1 0 2 1v-1h-2z" />
    <glyph glyph-name="scedilla" unicode="&#x15f;" horiz-adv-x="1100" 
d="M459 -16q-85 10 -153.5 40.5t-117.5 83t-63 126t9 169.5h271q-32 -105 18.5 -156t157.5 -51q215 0 231 100q6 37 -13 63t-56.5 41t-86.5 26t-104 21.5t-109.5 23.5t-102 36t-82 55.5t-49.5 86t-4 122.5q13 83 69 148t134.5 100.5t161.5 53.5t163 18q103 0 184 -21.5
t140.5 -68.5t79 -121.5t-0.5 -181.5h-272q9 35 11 61.5t-10.5 45t-28.5 30.5t-42.5 19.5t-52.5 10t-58 2.5q-28 0 -56.5 -3t-64.5 -11t-60 -27.5t-29 -47.5q-6 -36 28 -59t92.5 -36t129 -26t139.5 -36.5t123.5 -59.5t81.5 -102.5t13 -158.5q-12 -72 -50 -129t-94 -93
t-118.5 -57.5t-135.5 -31.5l-84 -119q119 -50 96 -189q-11 -72 -58 -123.5t-110 -74t-136 -22.5q-77 0 -161 44l32 207q118 -64 161 -64q68 0 73 33q5 30 -23 48.5t-66 23t-73 6.5t-45 -1zM286 -243q1 0 2 1v-1h-2z" />
    <glyph glyph-name="Scaron" unicode="&#x160;" horiz-adv-x="1473" 
d="M769 -30q-146 0 -260 33.5t-193.5 101t-109 178t-0.5 255.5h258q-6 -100 5 -162t49.5 -105.5t107.5 -61t180 -17.5q42 0 82 4.5t86 17t81.5 33t62 55t33.5 79.5q8 53 -16.5 92t-73.5 63.5t-114.5 44t-138 37t-145 38t-136 52.5t-109.5 74.5t-66.5 109t-7.5 152.5
q14 84 62 153.5t115.5 115t150.5 77t164.5 45t159.5 13.5q297 0 413 -139.5t72 -418.5h-252q31 167 -27 251t-242 84q-43 0 -95 -9t-108 -27.5t-96.5 -55t-48.5 -83.5q-8 -52 12.5 -89.5t77 -64t103.5 -40t137 -35.5q98 -23 150 -38t132 -50.5t118 -77t61.5 -113t9.5 -162.5
q-16 -104 -83 -186t-161.5 -129t-196.5 -71t-203 -24zM1117 1635h-137l-158 339h231l35 -87l64 87h227z" />
    <glyph glyph-name="scaron" unicode="&#x161;" horiz-adv-x="1100" 
d="M864 698q9 35 11 61.5t-10.5 45t-28.5 30.5t-42.5 19.5t-52.5 10t-58 2.5q-28 0 -56.5 -3t-64.5 -11t-60 -27.5t-29 -47.5q-6 -36 28 -59t92.5 -36t129 -26t139.5 -36.5t123.5 -59.5t81.5 -102.5t13 -158.5q-15 -90 -70 -156t-134.5 -100t-161.5 -49.5t-169 -15.5
q-100 0 -184.5 25.5t-147 78t-84 132.5t4.5 188h271q-32 -105 18.5 -156t157.5 -51q215 0 231 100q6 37 -13 63t-56.5 41t-86.5 26t-104 21.5t-109.5 23.5t-102 36t-82 55.5t-49.5 86t-4 122.5q13 83 69 148t134.5 100.5t161.5 53.5t163 18q103 0 184 -21.5t140.5 -68.5
t79 -121.5t-0.5 -181.5h-272zM862 1237h-137l-158 339h231l35 -87l64 87h227z" />
    <glyph glyph-name="uni0162" unicode="&#x162;" horiz-adv-x="1402" 
d="M759 1202h-470l36 223h1203l-36 -223h-467l-190 -1202h-28l-72 -102q118 -49 96 -189q-17 -107 -104 -163.5t-201 -56.5q-77 0 -161 44l33 207q118 -64 161 -64q67 0 73 33q5 30 -23 48.5t-66.5 23t-73.5 6.5t-44 -1l161 214h-17z" />
    <glyph glyph-name="uni0163" unicode="&#x163;" horiz-adv-x="831" 
d="M421 20q-52 17 -80 52.5t-38 104.5t9 175l78 496h-167l35 222h167l38 235h266l-38 -235h229l-35 -222h-229l-77 -488q-4 -24 -4.5 -43t3 -33t8.5 -24t16 -16.5t20.5 -10t27 -5.5t31.5 -2.5t37 -0.5h72l-36 -225h-122h-52l-75 -105q119 -50 96 -189q-11 -72 -58 -123.5
t-110 -74t-136 -22.5q-77 0 -161 44l32 207q118 -64 161 -64q69 0 73 33q5 30 -23 48.5t-66 23t-73 6.5t-45 -1l179 237h47zM193 -218q1 0 2 1v-1h-2z" />
    <glyph glyph-name="Tcaron" unicode="&#x164;" horiz-adv-x="1402" 
d="M759 1202h-470l36 223h1203l-36 -223h-467l-190 -1202h-266zM1024 1635h-137l-158 339h231l35 -87l64 87h227z" />
    <glyph glyph-name="tcaron" unicode="&#x165;" horiz-adv-x="831" 
d="M632 0q-41 0 -68 1t-60.5 3.5t-55 8t-46 14.5t-39 22.5t-29.5 33t-21.5 45t-10.5 58.5t-1 74.5t11 91.5l78 496h-167l35 222h167l38 235h266l-38 -235h229l-35 -222h-229l-77 -488q-4 -24 -4.5 -43t3 -33t8.5 -24t16 -16.5t20.5 -10t27 -5.5t31.5 -2.5t37 -0.5h72
l-36 -225h-122zM721 1500h-137l-158 339h231l35 -87l64 87h227z" />
    <glyph glyph-name="Utilde" unicode="&#x168;" horiz-adv-x="1563" 
d="M775 -30q-206 0 -338.5 84t-180.5 229t-18 337l128 805h266l-128 -805q-8 -67 -9 -129.5t19 -117t54.5 -95t96.5 -63.5t145 -23q88 0 158.5 22.5t118.5 60.5t83 94t54.5 116.5t31.5 134.5l128 805h263l-128 -805q-14 -92 -43.5 -176t-87.5 -173t-137.5 -153.5
t-202.5 -106t-273 -41.5zM966 1919q48 0 126 -27l39 -13q-14 9 -11 33h187q-37 -228 -182 -228q-46 0 -127 27l-39 13q14 -8 11 -32h-185q36 227 181 227z" />
    <glyph glyph-name="utilde" unicode="&#x169;" horiz-adv-x="1223" 
d="M1124 0h-218l-6 152q-53 -76 -164 -124.5t-207 -48.5t-167 28t-111 77.5t-62.5 116t-21.5 143.5t12 161l89 565h267l-84 -534q-7 -44 -10 -76.5t-2 -71t11.5 -65.5t29.5 -50.5t53.5 -35.5t82.5 -12q72 0 131 28.5t98.5 77t64 107t35.5 124.5l80 508h268zM774 1521
q48 0 126 -27l39 -13q-14 9 -11 33h187q-37 -228 -182 -228q-46 0 -127 27l-39 13q14 -8 11 -32h-185q36 227 181 227z" />
    <glyph glyph-name="Umacron" unicode="&#x16a;" horiz-adv-x="1563" 
d="M775 -30q-206 0 -338.5 84t-180.5 229t-18 337l128 805h266l-128 -805q-8 -67 -9 -129.5t19 -117t54.5 -95t96.5 -63.5t145 -23q88 0 158.5 22.5t118.5 60.5t83 94t54.5 116.5t31.5 134.5l128 805h263l-128 -805q-14 -92 -43.5 -176t-87.5 -173t-137.5 -153.5
t-202.5 -106t-273 -41.5zM815 1728l30 193h450l-30 -193h-450z" />
    <glyph glyph-name="umacron" unicode="&#x16b;" horiz-adv-x="1223" 
d="M1124 0h-218l-6 152q-53 -76 -164 -124.5t-207 -48.5t-167 28t-111 77.5t-62.5 116t-21.5 143.5t12 161l89 565h267l-84 -534q-7 -44 -10 -76.5t-2 -71t11.5 -65.5t29.5 -50.5t53.5 -35.5t82.5 -12q72 0 131 28.5t98.5 77t64 107t35.5 124.5l80 508h268zM587 1330l30 193
h450l-30 -193h-450z" />
    <glyph glyph-name="Ubreve" unicode="&#x16c;" horiz-adv-x="1563" 
d="M775 -30q-206 0 -338.5 84t-180.5 229t-18 337l128 805h266l-128 -805q-8 -67 -9 -129.5t19 -117t54.5 -95t96.5 -63.5t145 -23q88 0 158.5 22.5t118.5 60.5t83 94t54.5 116.5t31.5 134.5l128 805h263l-128 -805q-14 -92 -43.5 -176t-87.5 -173t-137.5 -153.5
t-202.5 -106t-273 -41.5zM1345 1982q-27 -171 -103 -265t-199 -94t-170 94t-20 265h190q-23 -164 31 -164q52 0 81 164h190z" />
    <glyph glyph-name="ubreve" unicode="&#x16d;" horiz-adv-x="1223" 
d="M1124 0h-218l-6 152q-53 -76 -164 -124.5t-207 -48.5t-167 28t-111 77.5t-62.5 116t-21.5 143.5t12 161l89 565h267l-84 -534q-7 -44 -10 -76.5t-2 -71t11.5 -65.5t29.5 -50.5t53.5 -35.5t82.5 -12q72 0 131 28.5t98.5 77t64 107t35.5 124.5l80 508h268zM1028 1584
q-27 -171 -103 -265t-199 -94t-170 94t-20 265h190q-23 -164 31 -164q52 0 81 164h190z" />
    <glyph glyph-name="Uring" unicode="&#x16e;" horiz-adv-x="1563" 
d="M1108 1832q4 21 -8 33.5t-30 12.5q-17 0 -31 -12t-18 -34q-3 -21 7.5 -32t27.5 -11q19 0 34 11.5t18 31.5zM775 -30q-206 0 -338.5 84t-180.5 229t-18 337l128 805h266l-128 -805q-8 -67 -9 -129.5t19 -117t54.5 -95t96.5 -63.5t145 -23q88 0 158.5 22.5t118.5 60.5
t83 94t54.5 116.5t31.5 134.5l128 805h263l-128 -805q-14 -92 -43.5 -176t-87.5 -173t-137.5 -153.5t-202.5 -106t-273 -41.5zM1097 2024q86 0 134 -52.5t34 -138.5q-13 -86 -78.5 -139.5t-150.5 -53.5q-86 0 -135 53.5t-36 139.5q14 86 79.5 138.5t152.5 52.5z" />
    <glyph glyph-name="uring" unicode="&#x16f;" horiz-adv-x="1223" 
d="M869 1434q4 21 -8 33.5t-30 12.5q-17 0 -31 -12t-18 -34q-3 -21 7.5 -32t27.5 -11q19 0 34 11.5t18 31.5zM1293 1070l-169 -1070h-218l-6 152q-53 -76 -164 -124.5t-207 -48.5t-167 28t-111 77.5t-62.5 116t-21.5 143.5t12 161l89 565h267l-84 -534q-7 -44 -10 -76.5
t-2 -71t11.5 -65.5t29.5 -50.5t53.5 -35.5t82.5 -12q72 0 131 28.5t98.5 77t64 107t35.5 124.5l80 508h268zM858 1626q86 0 134 -52.5t34 -138.5q-13 -86 -78.5 -139.5t-150.5 -53.5q-86 0 -135 53.5t-36 139.5q14 86 79.5 138.5t152.5 52.5z" />
    <glyph glyph-name="Uhungarumlaut" unicode="&#x170;" horiz-adv-x="1563" 
d="M775 -30q-206 0 -338.5 84t-180.5 229t-18 337l128 805h266l-128 -805q-8 -67 -9 -129.5t19 -117t54.5 -95t96.5 -63.5t145 -23q88 0 158.5 22.5t118.5 60.5t83 94t54.5 116.5t31.5 134.5l128 805h263l-128 -805q-14 -92 -43.5 -176t-87.5 -173t-137.5 -153.5
t-202.5 -106t-273 -41.5zM754 1655l246 339h251l-288 -339h-209zM1108 1655l245 339h252l-288 -339h-209z" />
    <glyph glyph-name="uhungarumlaut" unicode="&#x171;" horiz-adv-x="1236" 
d="M1124 0h-218l-6 152q-53 -76 -164 -124.5t-207 -48.5t-167 28t-111 77.5t-62.5 116t-21.5 143.5t12 161l89 565h267l-84 -534q-7 -44 -10 -76.5t-2 -71t11.5 -65.5t29.5 -50.5t53.5 -35.5t82.5 -12q72 0 131 28.5t98.5 77t64 107t35.5 124.5l80 508h268zM539 1257
l246 339h251l-288 -339h-209zM893 1257l245 339h252l-288 -339h-209z" />
    <glyph glyph-name="Uogonek" unicode="&#x172;" horiz-adv-x="1563" 
d="M609 -14q-221 47 -315.5 216t-55.5 418l128 805h266l-128 -805q-8 -67 -9 -129.5t19 -117t54.5 -95t96.5 -63.5t145 -23q88 0 158.5 22.5t118.5 60.5t83 94t54.5 116.5t31.5 134.5l128 805h263l-128 -805q-14 -88 -42.5 -169.5t-78 -165t-129.5 -152.5t-183 -109l10 -5
q-159 -37 -268.5 -104t-120.5 -132q-4 -24 11 -24q32 0 210 140l-39 -245q-119 -86 -222 -86q-91 0 -140 47t-32 155q17 115 114 216z" />
    <glyph glyph-name="uogonek" unicode="&#x173;" horiz-adv-x="1223" 
d="M1124 0q-153 -36 -246.5 -104.5t-103.5 -137.5q-4 -24 11 -24q32 0 210 140l-39 -245q-119 -86 -222 -86q-91 0 -140 47t-32 155q18 116 111.5 213.5t227.5 145.5l-1 48q-53 -76 -164 -124.5t-207 -48.5t-167 28t-111 77.5t-62.5 116t-21.5 143.5t12 161l89 565h267
l-84 -534q-7 -44 -10 -76.5t-2 -71t11.5 -65.5t29.5 -50.5t53.5 -35.5t82.5 -12q72 0 131 28.5t98.5 77t64 107t35.5 124.5l80 508h268z" />
    <glyph glyph-name="Wcircumflex" unicode="&#x174;" horiz-adv-x="2358" 
d="M1323 966l-522 -966h-261l-278 1425h282l198 -1015l547 1015h222l206 -1017l544 1017h286l-764 -1425h-262zM1482 1718l-64 -86h-229l265 339h138l154 -339h-230z" />
    <glyph glyph-name="wcircumflex" unicode="&#x175;" horiz-adv-x="1770" 
d="M247 1070h279l107 -625l314 625h217l122 -624l297 624h277l-518 -1070h-254l-108 580l-291 -580h-249zM1149 1320l-64 -86h-229l265 339h138l154 -339h-230z" />
    <glyph glyph-name="Ycircumflex" unicode="&#x176;" horiz-adv-x="1461" 
d="M680 538l-376 887h293l265 -610l453 610h293l-659 -887l-85 -538h-269zM1033 1718l-64 -86h-229l265 339h138l154 -339h-230z" />
    <glyph glyph-name="ycircumflex" unicode="&#x177;" horiz-adv-x="1371" 
d="M198 -539l354 591l-305 1018h298l202 -698l418 698h297l-988 -1609h-276zM898 1320l-64 -86h-229l265 339h138l154 -339h-230z" />
    <glyph glyph-name="Ydieresis" unicode="&#x178;" horiz-adv-x="1461" 
d="M680 538l-376 887h293l265 -610l453 610h293l-659 -887l-85 -538h-269zM879 1906q48 0 77.5 -35t22.5 -84q-7 -48 -48.5 -83t-89.5 -35q-50 0 -80 35t-22 83q8 49 49 84t91 35zM1199 1905q50 0 80 -34.5t22 -84.5q-8 -48 -49 -82.5t-91 -34.5q-48 0 -78 35t-22 82
q7 49 48.5 84t89.5 35z" />
    <glyph glyph-name="Zacute" unicode="&#x179;" horiz-adv-x="1487" 
d="M125 162l1071 1039h-864l36 224h1245l-26 -162l-1071 -1039h900l-35 -224h-1282zM853 1655l246 339h251l-288 -339h-209z" />
    <glyph glyph-name="zacute" unicode="&#x17a;" horiz-adv-x="1234" 
d="M124 159l743 691h-602l34 220h1005l-26 -166l-744 -684h636l-35 -220h-1036zM633 1257l246 339h251l-288 -339h-209z" />
    <glyph glyph-name="Zdotaccent" unicode="&#x17b;" horiz-adv-x="1487" 
d="M125 162l1071 1039h-864l36 224h1245l-26 -162l-1071 -1039h900l-35 -224h-1282zM1057 1922q51 0 82 -36t23 -87t-50.5 -87t-93.5 -36q-52 0 -83 36t-23 87t50.5 87t94.5 36z" />
    <glyph glyph-name="zdotaccent" unicode="&#x17c;" horiz-adv-x="1234" 
d="M124 159l743 691h-602l34 220h1005l-26 -166l-744 -684h636l-35 -220h-1036zM837 1524q51 0 82 -36t23 -87t-50.5 -87t-93.5 -36q-52 0 -83 36t-23 87t50.5 87t94.5 36z" />
    <glyph glyph-name="Zcaron" unicode="&#x17d;" horiz-adv-x="1487" 
d="M125 162l1071 1039h-864l36 224h1245l-26 -162l-1071 -1039h900l-35 -224h-1282zM1054 1635h-137l-158 339h231l35 -87l64 87h227z" />
    <glyph glyph-name="zcaron" unicode="&#x17e;" horiz-adv-x="1234" 
d="M124 159l743 691h-602l34 220h1005l-26 -166l-744 -684h636l-35 -220h-1036zM923 1237h-137l-158 339h231l35 -87l64 87h227z" />
    <glyph glyph-name="uni01CD" unicode="&#x1cd;" horiz-adv-x="1600" 
d="M960 1014l-295 -513h424zM99 0l814 1425h221l366 -1425h-283l-70 273h-613l-156 -273h-279zM1401 1974l-262 -339h-137l-158 339h231l35 -87l64 87h227z" />
    <glyph glyph-name="uni01CE" unicode="&#x1ce;" horiz-adv-x="1127" 
d="M405 307q-10 -62 21 -85.5t115 -23.5q115 0 191 59.5t94 175.5l5 37q-45 0 -86 -2t-104 -11.5t-109 -25.5t-83 -48.5t-44 -75.5zM126 303q11 66 44.5 120t78.5 89.5t108.5 61.5t123.5 40.5t133.5 23t128 10.5t117.5 2q16 96 -16.5 152t-123.5 56q-83 0 -147.5 -41.5
t-77.5 -119.5h-271q20 125 101.5 216t193 134.5t238.5 43.5q203 0 306.5 -105t72.5 -299l-109 -686h-219l-10 99q-146 -122 -333 -122q-80 0 -146.5 20.5t-114.5 59.5t-69.5 102t-8.5 143zM1158 1586l-262 -339h-137l-158 339h231l35 -87l64 87h227z" />
    <glyph glyph-name="Gcaron" unicode="&#x1e6;" horiz-adv-x="1671" 
d="M1352 182q-203 -212 -518 -212q-350 0 -513.5 199.5t-109.5 539.5q55 342 280.5 540.5t576.5 198.5q311 0 476.5 -156t162.5 -432h-269q-7 365 -405 365q-126 0 -224 -37t-164 -106.5t-107 -162t-60 -210.5q-21 -114 -7 -209.5t57 -163.5t129.5 -106t211.5 -38
q185 0 310 82t190 231h-534l32 203h811l-112 -708h-206zM1234 1635h-137l-158 339h231l35 -87l64 87h227z" />
    <glyph glyph-name="gcaron" unicode="&#x1e7;" horiz-adv-x="1323" 
d="M434 522q-13 -65 -5.5 -123t30 -101.5t72.5 -69t123 -25.5q145 0 231 89t109 230q23 142 -34.5 232.5t-203.5 90.5q-74 0 -132 -25.5t-95.5 -71.5t-60.5 -102t-34 -124zM929 115q-154 -136 -339 -136q-252 0 -360.5 145.5t-68.5 397.5q40 254 201 411.5t414 157.5
q198 0 303 -139l40 118h231l-170 -1078q-42 -261 -200 -397t-413 -136q-205 0 -322.5 99.5t-128.5 296.5h273q11 -91 58.5 -131.5t155.5 -40.5q141 0 212 79.5t96 237.5zM1165 1576l-262 -339h-137l-158 339h231l35 -87l64 87h227z" />
    <glyph glyph-name="uni0218" unicode="&#x218;" horiz-adv-x="1473" 
d="M769 -30q-146 0 -260 33.5t-193.5 101t-109 178t-0.5 255.5h258q-6 -100 5 -162t49.5 -105.5t107.5 -61t180 -17.5q42 0 82 4.5t86 17t81.5 33t62 55t33.5 79.5q8 53 -16.5 92t-73.5 63.5t-114.5 44t-138 37t-145 38t-136 52.5t-109.5 74.5t-66.5 109t-7.5 152.5
q14 84 62 153.5t115.5 115t150.5 77t164.5 45t159.5 13.5q297 0 413 -139.5t72 -418.5h-252q31 167 -27 251t-242 84q-43 0 -95 -9t-108 -27.5t-96.5 -55t-48.5 -83.5q-8 -52 12.5 -89.5t77 -64t103.5 -40t137 -35.5q98 -23 150 -38t132 -50.5t118 -77t61.5 -113t9.5 -162.5
q-16 -104 -83 -186t-161.5 -129t-196.5 -71t-203 -24zM620 -435h-200l195 371h229z" />
    <glyph glyph-name="uni0219" unicode="&#x219;" horiz-adv-x="1100" 
d="M864 698q9 35 11 61.5t-10.5 45t-28.5 30.5t-42.5 19.5t-52.5 10t-58 2.5q-28 0 -56.5 -3t-64.5 -11t-60 -27.5t-29 -47.5q-6 -36 28 -59t92.5 -36t129 -26t139.5 -36.5t123.5 -59.5t81.5 -102.5t13 -158.5q-15 -90 -70 -156t-134.5 -100t-161.5 -49.5t-169 -15.5
q-100 0 -184.5 25.5t-147 78t-84 132.5t4.5 188h271q-32 -105 18.5 -156t157.5 -51q215 0 231 100q6 37 -13 63t-56.5 41t-86.5 26t-104 21.5t-109.5 23.5t-102 36t-82 55.5t-49.5 86t-4 122.5q13 83 69 148t134.5 100.5t161.5 53.5t163 18q103 0 184 -21.5t140.5 -68.5
t79 -121.5t-0.5 -181.5h-272zM407 -435h-200l195 371h229z" />
    <glyph glyph-name="uni021A" unicode="&#x21a;" horiz-adv-x="1402" 
d="M759 1202h-470l36 223h1203l-36 -223h-467l-190 -1202h-266zM586 -435h-200l195 371h229z" />
    <glyph glyph-name="uni021B" unicode="&#x21b;" horiz-adv-x="831" 
d="M632 0q-41 0 -68 1t-60.5 3.5t-55 8t-46 14.5t-39 22.5t-29.5 33t-21.5 45t-10.5 58.5t-1 74.5t11 91.5l78 496h-167l35 222h167l38 235h266l-38 -235h229l-35 -222h-229l-77 -488q-4 -24 -4.5 -43t3 -33t8.5 -24t16 -16.5t20.5 -10t27 -5.5t31.5 -2.5t37 -0.5h72
l-36 -225h-122zM345 -435h-200l195 371h229z" />
    <glyph glyph-name="circumflex" unicode="&#x2c6;" horiz-adv-x="614" 
d="M502 1231l-63 -85h-229l264 339h138l155 -339h-230z" />
    <glyph glyph-name="caron" unicode="&#x2c7;" horiz-adv-x="580" 
d="M542 1146h-137l-159 339h231l35 -87l64 87h227z" />
    <glyph glyph-name="breve" unicode="&#x2d8;" horiz-adv-x="1025" 
d="M993 1485q-27 -171 -103 -265t-199 -94t-170 94t-20 265h190q-23 -164 31 -164q52 0 81 164h190z" />
    <glyph glyph-name="dotaccent" unicode="&#x2d9;" horiz-adv-x="1117" 
d="M787 1441q51 0 82 -36t23 -86q-8 -51 -50.5 -87t-93.5 -36q-52 0 -83 36t-23 87q8 50 50.5 86t94.5 36z" />
    <glyph glyph-name="ring" unicode="&#x2da;" horiz-adv-x="1267" 
d="M885 1321q4 21 -8 33.5t-30 12.5q-17 0 -31 -12t-18 -34q-3 -21 7.5 -32t27.5 -11q19 0 34 11.5t18 31.5zM873 1512q86 0 134.5 -52.5t34.5 -138.5q-13 -86 -78 -139.5t-151 -53.5t-135 53.5t-36 139.5q14 86 79.5 138.5t151.5 52.5z" />
    <glyph glyph-name="ogonek" unicode="&#x2db;" horiz-adv-x="1221" 
d="M899 48q-160 -37 -269.5 -103.5t-120.5 -132.5q-3 -23 12 -23q32 0 210 139l-39 -245q-119 -86 -223 -86q-91 0 -140 47t-32 155q19 123 122.5 224.5t248.5 144.5z" />
    <glyph glyph-name="tilde" unicode="&#x2dc;" horiz-adv-x="1094" 
d="M670 1450q47 0 125 -27l39 -12q-14 8 -10 32h187q-36 -227 -182 -227q-46 0 -127 27q-12 4 -42 13q18 -8 14 -33h-185q35 227 181 227z" />
    <glyph glyph-name="hungarumlaut" unicode="&#x2dd;" horiz-adv-x="959" 
d="M313 1146l245 339h250l-286 -339h-209zM643 1146l244 339h252l-287 -339h-209z" />
    <glyph glyph-name="gravecomb" unicode="&#x300;" 
d="M657 1263l-179 339h250l138 -339h-209z" />
    <glyph glyph-name="acutecomb" unicode="&#x301;" 
d="M423 1257l246 339h251l-288 -339h-209z" />
    <glyph glyph-name="uni0302" unicode="&#x302;" 
d="M516 1320l-64 -86h-229l265 339h138l154 -339h-230z" />
    <glyph glyph-name="tildecomb" unicode="&#x303;" 
d="M714 1521q48 0 126 -27l39 -13q-14 9 -11 33h187q-37 -228 -182 -228q-46 0 -127 27l-39 13q14 -8 11 -32h-185q36 227 181 227z" />
    <glyph glyph-name="uni0304" unicode="&#x304;" 
d="M500 1330l30 193h450l-30 -193h-450z" />
    <glyph glyph-name="uni0306" unicode="&#x306;" 
d="M1009 1584q-27 -171 -103 -265t-199 -94t-170 94t-20 265h190q-23 -164 31 -164q52 0 81 164h190z" />
    <glyph glyph-name="uni0307" unicode="&#x307;" 
d="M800 1524q51 0 82 -36t23 -87t-50.5 -87t-93.5 -36q-52 0 -83 36t-23 87t50.5 87t94.5 36z" />
    <glyph glyph-name="uni0308" unicode="&#x308;" 
d="M793 1508q48 0 77.5 -35t22.5 -84q-7 -48 -48.5 -83t-89.5 -35q-50 0 -80 35t-22 83q8 49 49 84t91 35zM1113 1507q50 0 80 -34.5t22 -84.5q-8 -48 -49 -82.5t-91 -34.5q-48 0 -78 35t-22 82q7 49 48.5 84t89.5 35z" />
    <glyph glyph-name="uni030A" unicode="&#x30a;" 
d="M903 1434q4 21 -8 33.5t-30 12.5q-17 0 -31 -12t-18 -34q-3 -21 7.5 -32t27.5 -11q19 0 34 11.5t18 31.5zM892 1626q86 0 134 -52.5t34 -138.5q-13 -86 -78.5 -139.5t-150.5 -53.5q-86 0 -135 53.5t-36 139.5q14 86 79.5 138.5t152.5 52.5z" />
    <glyph glyph-name="uni030B" unicode="&#x30b;" 
d="M330 1257l246 339h251l-288 -339h-209zM684 1257l245 339h252l-288 -339h-209z" />
    <glyph glyph-name="uni030C" unicode="&#x30c;" 
d="M556 1237h-137l-158 339h231l35 -87l64 87h227z" />
    <glyph glyph-name="uni0326" unicode="&#x326;" 
d="M705 -323h-200l195 371h186l-16 -98z" />
    <glyph glyph-name="uni0327" unicode="&#x327;" 
d="M728 -105q119 -50 96 -189q-11 -72 -58 -123.5t-110 -74t-136 -22.5q-77 0 -161 44l32 207q118 -64 161 -64q68 0 73 33q5 30 -23 48.5t-66 23t-73 6.5t-45 -1l179 237h220zM416 -218q1 0 2 1v-1h-2z" />
    <glyph glyph-name="uni0328" unicode="&#x328;" 
d="M894 20q-159 -37 -268.5 -104t-120.5 -132q-4 -24 11 -24q32 0 210 140l-39 -245q-119 -86 -222 -86q-91 0 -140 47t-32 155q19 123 122 224.5t248 144.5z" />
    <glyph glyph-name="uni1E20" unicode="&#x1e20;" horiz-adv-x="1671" 
d="M1352 182q-203 -212 -518 -212q-350 0 -513.5 199.5t-109.5 539.5q55 342 280.5 540.5t576.5 198.5q311 0 476.5 -156t162.5 -432h-269q-7 365 -405 365q-126 0 -224 -37t-164 -106.5t-107 -162t-60 -210.5q-21 -114 -7 -209.5t57 -163.5t129.5 -106t211.5 -38
q185 0 310 82t190 231h-534l32 203h811l-112 -708h-206zM886 1728l30 193h450l-30 -193h-450z" />
    <glyph glyph-name="uni1E21" unicode="&#x1e21;" horiz-adv-x="1323" 
d="M434 522q-13 -65 -5.5 -123t30 -101.5t72.5 -69t123 -25.5q145 0 231 89t109 230q23 142 -34.5 232.5t-203.5 90.5q-74 0 -132 -25.5t-95.5 -71.5t-60.5 -102t-34 -124zM929 115q-154 -136 -339 -136q-252 0 -360.5 145.5t-68.5 397.5q40 254 201 411.5t414 157.5
q198 0 303 -139l40 118h231l-170 -1078q-42 -261 -200 -397t-413 -136q-205 0 -322.5 99.5t-128.5 296.5h273q11 -91 58.5 -131.5t155.5 -40.5q141 0 212 79.5t96 237.5zM1018 1330h-450l30 193h450z" />
    <glyph glyph-name="Wgrave" unicode="&#x1e80;" horiz-adv-x="2358" 
d="M1323 966l-522 -966h-261l-278 1425h282l198 -1015l547 1015h222l206 -1017l544 1017h286l-764 -1425h-262zM1534 1661l-179 339h250l138 -339h-209z" />
    <glyph glyph-name="wgrave" unicode="&#x1e81;" horiz-adv-x="1770" 
d="M247 1070h279l107 -625l314 625h217l122 -624l297 624h277l-518 -1070h-254l-108 580l-291 -580h-249zM1063 1263l-179 339h250l138 -339h-209z" />
    <glyph glyph-name="Wacute" unicode="&#x1e82;" horiz-adv-x="2358" 
d="M1323 966l-522 -966h-261l-278 1425h282l198 -1015l547 1015h222l206 -1017l544 1017h286l-764 -1425h-262zM1300 1655l246 339h251l-288 -339h-209z" />
    <glyph glyph-name="wacute" unicode="&#x1e83;" horiz-adv-x="1770" 
d="M247 1070h279l107 -625l314 625h217l122 -624l297 624h277l-518 -1070h-254l-108 580l-291 -580h-249zM917 1257l246 339h251l-288 -339h-209z" />
    <glyph glyph-name="Wdieresis" unicode="&#x1e84;" horiz-adv-x="2358" 
d="M1323 966l-522 -966h-261l-278 1425h282l198 -1015l547 1015h222l206 -1017l544 1017h286l-764 -1425h-262zM1328 1906q48 0 77.5 -35t22.5 -84q-7 -48 -48.5 -83t-89.5 -35q-50 0 -80 35t-22 83q8 49 49 84t91 35zM1648 1905q50 0 80 -34.5t22 -84.5q-8 -48 -49 -82.5
t-91 -34.5q-48 0 -78 35t-22 82q7 49 48.5 84t89.5 35z" />
    <glyph glyph-name="wdieresis" unicode="&#x1e85;" horiz-adv-x="1770" 
d="M247 1070h279l107 -625l314 625h217l122 -624l297 624h277l-518 -1070h-254l-108 580l-291 -580h-249zM1019 1508q48 0 77.5 -35t22.5 -84q-7 -48 -48.5 -83t-89.5 -35q-50 0 -80 35t-22 83q8 49 49 84t91 35zM1339 1507q50 0 80 -34.5t22 -84.5q-8 -48 -49 -82.5
t-91 -34.5q-48 0 -78 35t-22 82q7 49 48.5 84t89.5 35z" />
    <glyph glyph-name="uni1EBC" unicode="&#x1ebc;" horiz-adv-x="1381" 
d="M366 1425h1099l-36 -224h-829l-58 -368h682l-36 -225h-682l-61 -385h851l-35 -223h-1121zM907 1919q48 0 126 -27l39 -13q-14 9 -11 33h187q-37 -228 -182 -228q-46 0 -127 27l-39 13q14 -8 11 -32h-185q36 227 181 227z" />
    <glyph glyph-name="uni1EBD" unicode="&#x1ebd;" horiz-adv-x="1246" 
d="M984 672q-20 190 -224 190q-103 0 -175 -51.5t-112 -138.5h511zM163 535q40 254 208.5 405t424.5 151q257 0 378.5 -151.5t78.5 -404.5l-11 -64h-814q-6 -118 48.5 -190t179.5 -72q192 0 276 170h280q-70 -187 -223.5 -293.5t-368.5 -106.5q-256 0 -376.5 151t-80.5 405z
M779 1521q48 0 126 -27l39 -13q-14 9 -11 33h187q-37 -228 -182 -228q-46 0 -127 27l-39 13q14 -8 11 -32h-185q36 227 181 227z" />
    <glyph glyph-name="Ygrave" unicode="&#x1ef2;" horiz-adv-x="1461" 
d="M680 538l-376 887h293l265 -610l453 610h293l-659 -887l-85 -538h-269zM1011 1661l-179 339h250l138 -339h-209z" />
    <glyph glyph-name="ygrave" unicode="&#x1ef3;" horiz-adv-x="1371" 
d="M198 -539l354 591l-305 1018h298l202 -698l418 698h297l-988 -1609h-276zM817 1263l-179 339h250l138 -339h-209z" />
    <glyph glyph-name="uni1EF8" unicode="&#x1ef8;" horiz-adv-x="1461" 
d="M680 538l-376 887h293l265 -610l453 610h293l-659 -887l-85 -538h-269zM906 1919q48 0 126 -27l39 -13q-14 9 -11 33h187q-37 -228 -182 -228q-46 0 -127 27l-39 13q14 -8 11 -32h-185q36 227 181 227z" />
    <glyph glyph-name="uni1EF9" unicode="&#x1ef9;" horiz-adv-x="1371" 
d="M198 -539l354 591l-305 1018h298l202 -698l418 698h297l-988 -1609h-276zM795 1521q48 0 126 -27l39 -13q-14 9 -11 33h187q-37 -228 -182 -228q-46 0 -127 27l-39 13q14 -8 11 -32h-185q36 227 181 227z" />
    <glyph glyph-name="endash" unicode="&#x2013;" horiz-adv-x="1098" 
d="M219 497l31 195h816l-31 -195h-816z" />
    <glyph glyph-name="emdash" unicode="&#x2014;" horiz-adv-x="2035" 
d="M219 497l31 195h1753l-31 -195h-1753z" />
    <glyph glyph-name="quoteleft" unicode="&#x2018;" horiz-adv-x="693" 
d="M576 1466h208l-270 -583h-234z" />
    <glyph glyph-name="quoteright" unicode="&#x2019;" horiz-adv-x="543" 
d="M405 883h-208l270 583h229z" />
    <glyph glyph-name="quotesinglbase" unicode="&#x201a;" horiz-adv-x="534" 
d="M209 -211h-210l219 429h226z" />
    <glyph glyph-name="quotedblleft" unicode="&#x201c;" horiz-adv-x="944" 
d="M632 1468h209l-271 -585h-232zM968 1468h209l-272 -585h-237z" />
    <glyph glyph-name="quotedblright" unicode="&#x201d;" horiz-adv-x="582" 
d="M348 883h-208l270 583h227zM644 883h-208l271 583h240z" />
    <glyph glyph-name="quotedblbase" unicode="&#x201e;" horiz-adv-x="586" 
d="M209 -211h-210l219 429h245zM517 -211h-209l218 429h235z" />
    <glyph glyph-name="dagger" unicode="&#x2020;" horiz-adv-x="1105" 
d="M772 718l-153 -1007h-223l164 1007l-348 -5l33 209l345 -5l68 468h227l-81 -468l347 5l-33 -209z" />
    <glyph glyph-name="daggerdbl" unicode="&#x2021;" horiz-adv-x="1105" 
d="M718 376l347 5l-33 -209l-345 5l-67 -466h-224l78 466l-348 -5l33 209l347 -5l54 342l-348 -5l33 209l345 -5l68 468h227l-81 -468l347 5l-33 -209l-346 5z" />
    <glyph glyph-name="bullet" unicode="&#x2022;" horiz-adv-x="565" 
d="M409 799q76 0 121 -52t33 -127t-73.5 -126.5t-137.5 -51.5q-78 0 -122.5 51t-32.5 127t73 127.5t139 51.5z" />
    <glyph glyph-name="ellipsis" unicode="&#x2026;" horiz-adv-x="1079" 
d="M263 227q56 0 87 -35.5t22 -90.5t-51.5 -91t-97.5 -36q-53 0 -85 36.5t-23 90.5t52 90t96 36zM571 227q56 0 87 -35.5t22 -90.5t-51 -91t-98 -36q-53 0 -85 36.5t-23 90.5t52 90t96 36zM887 227q56 0 86.5 -35.5t21.5 -90.5t-51 -91t-97 -36q-53 0 -85.5 36.5t-23.5 90.5
t52.5 90t96.5 36z" />
    <glyph glyph-name="perthousand" unicode="&#x2030;" horiz-adv-x="2087" 
d="M1072 171q50 0 85.5 44t47.5 117q11 73 -10.5 116.5t-71.5 43.5t-84.5 -43.5t-45.5 -116.5q-12 -73 8.5 -117t70.5 -44zM1661 171q51 0 85.5 43.5t46.5 117.5q11 74 -9.5 117t-71.5 43q-50 0 -84.5 -43.5t-45.5 -116.5q-12 -73 8.5 -117t70.5 -44zM512 1051
q-12 -73 9.5 -116.5t72.5 -43.5q49 0 84 43.5t46 116.5q12 74 -8.5 117.5t-70.5 43.5q-51 0 -86 -43.5t-47 -117.5zM1743 689q147 0 217.5 -100t46.5 -257q-25 -155 -128 -256.5t-249 -101.5q-106 0 -173.5 56.5t-87.5 152.5q-50 -96 -136 -152.5t-192 -56.5
q-146 0 -217 101.5t-46 256.5q24 157 126.5 257t249.5 100q107 0 175 -55t88 -151q49 96 134 151t192 55zM1557 1385l-1152 -1385h-245l1152 1385h245zM938 1051q-25 -155 -128 -256t-247 -101q-147 0 -218 101t-46 256q25 158 127.5 257.5t249.5 99.5q145 0 216 -100
t46 -257z" />
    <glyph glyph-name="guilsinglleft" unicode="&#x2039;" horiz-adv-x="836" 
d="M480 517l259 -369h-260l-257 369l374 370h260z" />
    <glyph glyph-name="guilsinglright" unicode="&#x203a;" horiz-adv-x="838" 
d="M403 148h-260l377 369l-260 370h260l259 -370z" />
    <glyph glyph-name="fraction" unicode="&#x2044;" horiz-adv-x="892" 
d="M1011 1425h315l-1218 -1425h-316z" />
    <glyph glyph-name="Euro" unicode="&#x20ac;" horiz-adv-x="1426" 
d="M1101 1282q-71 0 -136.5 -21t-127.5 -66t-114 -122.5t-88 -182.5h749l-98 -180h-696q0 -6 -2 -18q-2 -8 -4 -22h685l-82 -180h-618q-1 -204 86.5 -298t262.5 -94q103 0 192 32.5t186 106.5l-36 -225q-176 -100 -382 -100q-261 0 -394.5 142.5t-122.5 435.5h-180l90 180
h105l2 13q2 9 4 27h-119l91 180h73q90 283 278.5 430.5t429.5 147.5q142 0 234 -42.5t157 -135.5l-145 -149q-49 79 -111 110t-169 31z" />
    <glyph glyph-name="trademark" unicode="&#x2122;" horiz-adv-x="1202" 
d="M541 1314h-161v-344h-125v344h-163v114h449v-114zM1095 970h-122l2 181l-68 -175h-108l-67 173l2 -179h-124v456h140l105 -278l103 278h137v-456z" />
    <glyph glyph-name="partialdiff" unicode="&#x2202;" horiz-adv-x="1150" 
d="M582 173q134 0 221 114t130 351q-27 74 -83.5 109t-129.5 35q-130 0 -219 -88.5t-112 -232.5q-21 -134 34 -211t159 -77zM781 1507q508 0 374 -842q-53 -337 -206 -514t-402 -177q-198 0 -304 133t-72 349q38 237 196 381t381 144q125 0 216 -59q9 387 -220 387
q-67 0 -135.5 -28t-160.5 -92l-96 154q122 88 223 126t206 38z" />
    <glyph glyph-name="emptyset" unicode="&#x2205;" horiz-adv-x="1740" 
d="M895 160q151 0 290.5 71.5t235 198.5t119.5 280q28 169 -44 310l-910 -760q129 -100 309 -100zM424 710q-27 -171 46 -309l910 759q-131 102 -310 102q-151 0 -290.5 -72t-235 -199.5t-120.5 -280.5zM1663 1159q121 -196 81 -449q-24 -155 -106.5 -294t-201 -238
t-268 -156.5t-304.5 -57.5q-263 0 -446 156l-181 -151l-121 137l186 155q-121 197 -82 449q33 207 163 379t320.5 270t397.5 98q259 0 446 -157l181 151l121 -137z" />
    <glyph glyph-name="product" unicode="&#x220f;" horiz-adv-x="1175" 
d="M1171 1185l-220 -1384h-212l220 1384h-369l-220 -1384h-212l220 1384h-107l31 200h1009l-31 -200h-109z" />
    <glyph glyph-name="summation" unicode="&#x2211;" horiz-adv-x="1173" 
d="M1067 -199h-1030l25 153l619 660l-361 619l24 152h962l-31 -200h-668l336 -575l-576 -609h732z" />
    <glyph glyph-name="minus" unicode="&#x2212;" horiz-adv-x="1097" 
d="M185 546l31 195h899l-31 -195h-899z" />
    <glyph glyph-name="radical" unicode="&#x221a;" horiz-adv-x="1216" 
d="M628 -289h-187l-120 794h-142l31 194h291l83 -591l572 1439h205z" />
    <glyph glyph-name="infinity" unicode="&#x221e;" horiz-adv-x="2087" 
d="M637 173q54 0 106.5 20t104.5 61.5t95 116.5t70 175q0 102 -20.5 177t-57 117.5t-81 62.5t-98.5 20q-122 0 -222.5 -99.5t-129.5 -277.5q-28 -177 41.5 -275t191.5 -98zM1503 173q122 0 223 98t129 275q14 94 2 164.5t-46.5 118t-82.5 71t-106 23.5q-55 0 -108 -20
t-104.5 -62t-95 -116.5t-69.5 -174.5q0 -197 72 -287t186 -90zM1654 1121q156 0 261 -74t145.5 -204t13.5 -297q-40 -253 -204 -412.5t-398 -159.5q-289 0 -393 256q-180 -256 -473 -256q-156 0 -261 73.5t-145.5 202.5t-14.5 296q41 255 204.5 415t398.5 160
q288 0 393 -254q176 254 473 254z" />
    <glyph glyph-name="integral" unicode="&#x222b;" horiz-adv-x="781" 
d="M710 1500q102 0 193 -105l-127 -173q-68 83 -97 83q-55 0 -83 -176q-23 -146 -7 -503q9 -221 7.5 -339.5t-16.5 -211.5q-15 -96 -48.5 -169t-77.5 -114t-92 -61t-99 -20q-103 0 -193 106l126 169q68 -80 98 -80q57 0 85 177q21 134 6 502q-9 220 -8.5 340.5t15.5 212.5
q15 96 48.5 168t77.5 113t92.5 61t99.5 20z" />
    <glyph glyph-name="approxequal" unicode="&#x2248;" horiz-adv-x="1204" 
d="M475 934q58 0 104.5 -16.5t123.5 -60.5q54 -29 83.5 -40t59.5 -11q38 0 77.5 30.5t101.5 107.5l131 -118q-167 -217 -344 -217q-58 0 -103 16.5t-124 60.5q-54 29 -83 40t-59 11q-39 0 -77.5 -29.5t-105.5 -105.5l-128 117q164 215 343 215zM414 549q59 0 105.5 -16.5
t122.5 -59.5q55 -30 84 -41t59 -11q38 0 77.5 30.5t101.5 107.5l131 -118q-166 -216 -343 -216q-58 0 -104.5 16.5t-123.5 59.5q-55 30 -83.5 41t-58.5 11q-39 0 -77.5 -29.5t-105.5 -106.5l-128 118q163 214 343 214z" />
    <glyph glyph-name="notequal" unicode="&#x2260;" horiz-adv-x="1126" 
d="M725 571h392l-30 -193h-509l-149 -194h-230l149 194h-189l30 193h306l109 141h-392l30 193h508l149 195h230l-149 -195h190l-30 -193h-306z" />
    <glyph glyph-name="lessequal" unicode="&#x2264;" horiz-adv-x="1097" 
d="M516 580l537 -230l-34 -217l-840 372l24 151l958 372l-34 -215zM1006 48l-31 -194h-899l31 194h899z" />
    <glyph glyph-name="greaterequal" unicode="&#x2265;" horiz-adv-x="1097" 
d="M1078 505l-958 -372l34 215l614 232l-540 233l34 215l840 -372zM1007 55l-31 -194h-899l31 194h899z" />
    <glyph glyph-name="lozenge" unicode="&#x25ca;" horiz-adv-x="1078" 
d="M851 692l-139 406l-263 -406l136 -406zM1072 692l-459 -692h-148l-239 692l458 693h148z" />
    <glyph glyph-name="NULL" 
 />
    <glyph glyph-name="uni0122" horiz-adv-x="1671" 
d="M1352 182q-203 -212 -518 -212q-350 0 -513.5 199.5t-109.5 539.5q55 342 280.5 540.5t576.5 198.5q311 0 476.5 -156t162.5 -432h-269q-7 365 -405 365q-126 0 -224 -37t-164 -106.5t-107 -162t-60 -210.5q-21 -114 -7 -209.5t57 -163.5t129.5 -106t211.5 -38
q185 0 310 82t190 231h-558l32 203h835l-112 -708h-206zM724 -435h-200l195 371h229z" />
    <glyph glyph-name="Itilde" horiz-adv-x="514" 
d="M376 1419h266l-225 -1419h-266zM461 1919q48 0 126 -27l39 -13q-14 9 -11 33h187q-37 -228 -182 -228q-46 0 -127 27l-39 13q14 -8 11 -32h-185q36 227 181 227z" />
    <glyph glyph-name="Imacron" horiz-adv-x="519" 
d="M409 1419h266l-225 -1419h-266zM307 1728l30 193h450l-30 -193h-450z" />
    <glyph glyph-name="Iogonek" horiz-adv-x="661" 
d="M447 1419h266l-225 -1419h-5l2 -1q-159 -37 -268.5 -104t-120.5 -132q-4 -24 11 -24q32 0 210 140l-39 -245q-119 -86 -222 -86q-91 0 -140 47t-32 155q19 120 117.5 220t238.5 145z" />
    <glyph glyph-name="_Designova" horiz-adv-x="1401" 
d="M172 798q0 -108 42 -206t112.5 -168.5t168.5 -112.5t206 -42q143 0 264.5 70.5t192.5 192t71 265.5t-70.5 266t-191.5 192.5t-265 70.5t-266 -70.5t-193 -192t-71 -265.5zM360 903q8 0 12 -4q53 -20 107 -29q43 -4 76 3q24 4 49 13q4 0 10.5 3.5t7.5 3.5l-17 8.5t-17.5 9
t-15 10t-14.5 13.5h20q37 0 80 18q123 77 208 77q6 0 23 1.5t25 0.5q62 -4 94 -36q7 -5 31 -34v-2q-3 2 -6 2q-28 11 -52 11q-63 0 -104 -62q-6 -11 -15.5 -33.5t-12.5 -29.5q-5 -12 -15 -36.5t-19 -44.5t-17 -37q-31 -65 -69 -111q-28 -40 -84 -72t-111 -48h-6l26 23
q16 15 28 47q8 25 24.5 71t23.5 68q31 89 60 139v1l-10 -12q-8 -8 -10 -15q-21 -24 -35 -60q-3 -5 -9 -5q-110 5 -190 73l-61 58q-5 7 -15 17zM699 197q-162 0 -300 81t-218.5 219.5t-80.5 300.5q1 122 48.5 233t128 191t191.5 127.5t233 47.5t233 -47.5t191.5 -127.5
t128 -191t47.5 -233q0 -163 -80.5 -301.5t-219.5 -219t-302 -80.5z" />
    <glyph glyph-name="_Origin" horiz-adv-x="1874" 
d="M554 504v-30h31q24 0 24 14q0 16 -24 16h-31zM554 449v-31h35q24 0 24 16q0 15 -24 15h-35zM815 499v-43h26q28 0 28 21q0 22 -28 22h-26zM143 878v-625h1588v625h-1588zM1366 499v-79h26q13 0 23 5q19 11 19 35q0 16 -5 21q-9 18 -37 18h-26zM946 674q0 -18 11 -29.5
t28 -11.5q18 0 29 11.5t11 29.5q0 19 -11 30.5t-29 11.5q-17 0 -28 -11.5t-11 -30.5zM1101 714v-44h27q28 0 28 22t-28 22h-27zM293 1227v-172h68q43 0 69 22t26 64q0 55 -44 75q-19 11 -49 11h-70zM472 1119q0 -44 33 -58q13 -7 39 -7q35 0 54 17q9 12 12 22l-38 1
q-3 -9 -16 -13q-2 0 -5.5 -0.5t-6.5 -0.5q-22 0 -29 15q-5 8 -5 15h100v11q0 30 -18.5 47.5t-49.5 17.5q-43 0 -63 -32q-7 -18 -7 -35zM621 1093q6 -39 67 -39q39 0 57 20q7 10 7 21q0 26 -41 35l-28 5q-18 3 -18 13q0 12 23 12t23 -14l38 2q-7 38 -62 38q-38 0 -54 -19
q-8 -8 -8 -21q0 -28 41 -37l26 -5q19 -3 19 -12q0 -14 -23 -14q-24 0 -27 16zM768 1184v-129h41v129h-41zM767 1218q0 -7 7 -12.5t15 -5.5q9 0 15.5 5.5t6.5 12.5t-6.5 12.5t-15.5 5.5q-8 0 -15 -5.5t-7 -12.5zM827 1120q0 -29 16 -45.5t44 -16.5q21 0 33 10q7 5 7 10h2v-23
q0 -24 -30 -24q-18 0 -25 7q-2 1 -5 8l-37 -6q3 -15 20 -25t46 -10q43 0 62 22q10 10 10 27v130h-40v-21h-3q-4 13 -21 19q-10 4 -19 4q-35 0 -52 -29q-8 -16 -8 -37zM993 1184v-129h41v75q0 17 13 23q5 3 14 3q25 0 25 -25v-76h42v82q0 31 -24 42q-11 7 -27 7
q-31 0 -43 -25h-1v23h-40zM1145 1119q0 -32 20 -48.5t52 -16.5q42 0 64 31q8 14 8 34q0 39 -33 59q-19 8 -39 8q-44 0 -63 -32q-9 -18 -9 -35zM1333 1184h-43l51 -129h45l52 129h-42l-31 -91h-1zM1439 1092q0 -26 23 -34q9 -4 25 -4q21 0 34 9l8 11h2v-19h37v88q0 19 -17 33
q-22 10 -43 10q-35 0 -53 -18q-9 -7 -12 -20l39 -4q4 16 25 16t21 -16v-1q0 -7 -15 -10q-2 -1 -9 -1.5t-10 -0.5q-55 -4 -55 -39zM319 395h-30v128h30v-128zM370 395h-31v128h25l64 -77v77h29v-128h-24l-63 79v-79zM524 395v128h63q52 0 52 -32q0 -20 -18 -29q2 0 2 -2
q20 -7 20 -30q0 -35 -51 -35h-68zM762 395h-105v128h107v-24h-78v-27h70v-23h-70v-29h76v-25zM815 395h-31v128h59q24 0 40 -11.5t16 -34.5q0 -14 -7 -24q-11 -13 -21 -18l27 -40h-32l-25 37h-26v-37zM1018 395h-105v128h29v-103h76v-25zM1069 395h-30v128h30v-128z
M1120 395h-30v128h25l63 -77v77h31v-128h-25l-64 79v-79zM1227 413q0 17 19 17q7 0 12 -5t5 -12q0 -6 -5 -19l-11 -27h-18l9 30q-11 4 -11 16zM1336 395v128h57q23 0 38 -8q33 -14 33 -55q0 -22 -9 -35q-16 -30 -62 -30h-57zM1587 395h-105v128h105v-24h-76v-27h69v-23h-69
v-29h76v-25zM419 610h-107v127h107v-23h-77v-28h70v-22h-70v-31h77v-23zM470 610h-30v127h25l64 -76v76h29v-127h-25l-63 78v-78zM621 714h-42v23h112v-23h-41v-104h-29v104zM748 610l-44 127h32l29 -89l30 89h27l29 -90l31 90h28l-41 -127h-33l-28 87l-29 -87h-31z
M1731 212l-1631 -1v1150h1674v-1149l-43 -1v1zM915 674q0 29 20.5 47.5t49.5 18.5q30 0 50.5 -18.5t20.5 -47.5t-20.5 -47.5t-49.5 -18.5t-50 18.5t-21 47.5zM1101 610h-28v127h57q22 0 30 -3q26 -14 26 -42q0 -15 -7 -25q-6 -10 -21 -17l28 -40h-32l-25 36h-28v-36z
M1231 610h-30v127h107v-23h-77v-28h69v-22h-69v-54zM1426 610h-107v127h107v-23h-77v-28h69v-22h-69v-31h77v-23zM1476 610h-28v127h22l66 -76v76h29v-127h-25l-64 78v-78zM333 1087v108h27q37 0 49 -23q7 -19 7 -31q0 -36 -26 -48q-10 -6 -31 -6h-26zM510 1133q1 12 15 22
q8 5 17 5q21 0 26 -16q4 -5 4 -11h-62zM869 1120q0 24 12 33q10 5 18 5q19 0 28 -19q0 -2 1.5 -8.5t1.5 -10.5q0 -36 -31 -36q-18 0 -28 18q-2 10 -2 18zM1187 1120q0 24 13 33q6 5 17 5q30 0 30 -38q0 -24 -13 -34q-8 -5 -17 -5q-19 0 -28 20q-2 10 -2 19zM1477 1093
q0 7 12 14q4 2 12 2q19 2 28 6v-13q0 -15 -15 -21q-12 -3 -16 -3q-21 0 -21 15z" />
    <glyph glyph-name="_Typeface" horiz-adv-x="2648" 
d="M389 795l-128 -321h31l36 89h151l35 -89h33l-130 321h-28zM581 709v-235h31v111q0 46 24 72t65 22l-2 29q-58 4 -89 -42l-4 43h-25zM829 469q43 0 74 24.5t35 63.5h-32q-2 -27 -24 -43t-53 -16q-38 0 -59 22.5t-23 63.5h193v14l-1 7q-3 46 -33 75t-74 29q-51 0 -83 -33.5
t-34 -83.5q-1 -51 29.5 -87t84.5 -36zM981 709v-235h29v111q0 43 22.5 68.5t59.5 25.5t52 -21.5t15 -65.5v-118h30v118q0 117 -98 117q-55 0 -82 -43l-5 43h-23zM1301 469q60 0 86 37l4 -31h25v166q-3 70 -80 70h-16q-38 0 -62.5 -23.5t-22.5 -58.5h30q1 26 16.5 39.5
t38.5 13.5h16q46 0 50 -45v-22h-14q-147 0 -147 -80q0 -32 21 -49t55 -17zM1737 461q65 0 100 37.5t35 107.5v182h-29v-182q0 -116 -106 -116q-50 0 -77 29.5t-27 86.5v182h-30v-182q0 -68 36 -106.5t98 -38.5zM1919 709v-235h29v111q0 43 22.5 68.5t59.5 25.5t52 -21.5
t15 -65.5v-118h30v118q0 117 -98 117q-55 0 -82 -43l-5 43h-23zM2278 470q53 0 81.5 32.5t28.5 85.5q0 55 -29 87.5t-81 32.5t-81.5 -32t-29.5 -88q0 -54 29.5 -86t81.5 -32zM466 593h-125l62 157zM750 612q6 30 28.5 49t53.5 19q32 0 52 -20.5t24 -47.5h-158zM1305 497
q-47 0 -47 39q0 37 63 49q30 3 65 2v-20q0 -70 -81 -70zM2548 355h-2448v540h2448v-540zM2278 500q-42 0 -61 25.5t-19 62.5q0 90 80 90q79 0 79 -90q0 -40 -19.5 -64t-59.5 -24z" />
    <glyph glyph-name="_VendorID" horiz-adv-x="1106" 
d="M116 59q0 -16 12 -16q14 0 14 16v1q0 16 -13 16t-13 -17zM199 62q-3 14 -11 14q-11 0 -12 -14h23zM302 60q0 -17 12 -17q14 0 14 16v1q0 16 -14 16q-12 0 -12 -16zM419 59q0 -16 12 -16q14 0 14 16q0 17 -14 17q-12 0 -12 -17zM529 48q0 -5 8 -5q11 0 11 8v6
q-19 2 -19 -9zM613 59q0 -16 13 -16q12 0 12 16q0 17 -12 17q-13 0 -13 -17zM882 59q0 -16 14 -16q12 0 12 16q0 17 -12 17q-14 0 -14 -17zM255 423q0 -56 39.5 -96t96.5 -40q56 0 94.5 39.5t38.5 96.5q0 58 -37.5 96.5t-95.5 38.5q-11 0 -22 -3l79 112h-60l-90 -128
q-43 -60 -43 -116zM580 423q0 -57 39.5 -96.5t95.5 -39.5t94.5 39.5t38.5 96.5t-38 96t-95 39q-13 0 -23 -3l80 112h-61l-90 -128q-41 -58 -41 -116zM255 861q0 -56 39.5 -95t96.5 -39q56 0 94.5 39t38.5 95q0 58 -37.5 96.5t-95.5 38.5q-15 0 -22 -2l79 114h-60l-90 -132
q-43 -62 -43 -115zM580 861q0 -56 39.5 -95t95.5 -39t94.5 39t38.5 95q0 58 -38 96.5t-95 38.5q-16 0 -24 -2l81 114h-61l-90 -132q-41 -62 -41 -115zM103 59q0 12 7 19t17 7q8 0 11 -3l4 -5v24h12v-67h-12v9l-4 -7q-6 -4 -14 -4q-21 0 -21 27zM163 59q0 11 7 18.5t18 7.5
q10 0 17 -7t7 -18q0 -2 -2 -5h-34q1 -12 12 -12q9 0 11 8h11q-3 -19 -22 -19q-25 0 -25 27zM229 48q3 -8 8 -8q9 0 9 7q0 2 -11 8q-17 5 -17 15q0 15 19 15q20 0 20 -15h-13q-2 6 -7 6q-6 0 -6 -5q0 -4 11 -9q16 -3 16 -14q0 -16 -21 -16q-18 0 -21 16h13zM265 95q0 6 8 6
q7 0 7 -6q0 -8 -7 -8q-8 0 -8 8zM279 34h-13v51h13v-51zM289 32h13v-1q0 -8 12 -8q10 0 14 12v8l-4 -7q-8 -2 -13 -2q-22 0 -22 25q0 26 24 26q8 0 11 -3l4 -5v8h13v-38q0 -8 -2 -11q0 -22 -25 -22t-25 17v1zM364 34h-13v51h13v-10l4 7q4 3 12 3q14 0 18 -14q1 -3 1 -9v-28
h-14v32q0 10 -9 10q-12 0 -12 -19v-23zM406 59q0 11 7 18.5t18 7.5q26 0 26 -26q0 -27 -26 -27q-11 0 -18 7.5t-7 19.5zM478 34l-17 51h14l13 -42l12 42h13l-18 -51h-17zM517 48q0 15 28 15h3v7q0 6 -8 6q-11 0 -11 -8h-12q0 17 23 17q17 0 19 -14v-37h-11v6l-3 -5
q-6 -3 -13 -3q-15 0 -15 16zM573 74h-5v9h5v7q0 14 18 14h5v-10q-10 2 -10 -5v-6h10v-9h-10v-40h-13v40zM600 59q0 26 26 26q25 0 25 -26q0 -27 -25 -27q-26 0 -26 27zM671 34h-11v51h11v-10l5 7q4 3 12 3q14 0 18 -14v-37h-13v32q-3 10 -8 10q-14 0 -14 -19v-23zM720 74h-7
v9h7v12h13v-12h9v-9h-9v-26q2 -9 8 -5v-10h-7q-14 0 -14 10v31zM760 48q2 -8 9 -8q8 0 8 7q0 2 -11 8q-16 4 -16 15q0 15 18 15t23 -15h-15q0 6 -9 6q-4 0 -4 -5t10 -9q18 -4 18 -14q0 -16 -22 -16q-19 0 -23 16h14zM794 39q0 9 9 9q8 0 8 -9q0 -7 -8 -7q-9 0 -9 7zM817 59
q0 11 7.5 18.5t16.5 7.5q23 0 23 -19h-12q-3 10 -11 10q-11 0 -11 -17q0 -16 11 -16q9 0 11 8h12q-1 -19 -23 -19q-24 0 -24 27zM869 59q0 26 27 26q24 0 24 -26q0 -27 -24 -27q-27 0 -27 27zM942 34h-13v51h13v-9l5 6q3 3 8 3q12 0 17 -10l5 7q3 3 10 3q16 0 16 -12
q1 -3 1 -11v-28h-12v26q0 16 -11 16q-8 0 -8 -16v-26h-12v34q-5 8 -9 8q-10 0 -10 -16v-26zM305 423q0 37 24 60.5t62 23.5q36 0 60 -23.5t24 -60.5q0 -39 -24 -63t-60 -24q-38 0 -62 24t-24 63zM629 423q0 37 24 60.5t62 23.5q36 0 58.5 -23.5t22.5 -60.5q0 -39 -22.5 -63
t-58.5 -24q-38 0 -62 24t-24 63zM305 861q0 39 24 62.5t62 23.5q36 0 60 -24.5t24 -61.5t-24 -61.5t-60 -24.5q-38 0 -62 24t-24 62zM1006 143h-906v1104h906v-1104zM629 861q0 38 24 62t62 24q36 0 58.5 -24t22.5 -62t-22.5 -62t-58.5 -24q-38 0 -62 24t-24 62z" />
    </font>
</defs>
</svg>
