<?xml version="1.0" standalone="no"?>
<!DOCTYPE svg PUBLIC "-//W3C//DTD SVG 1.1//EN" "http://www.w3.org/Graphics/SVG/1.1/DTD/svg11.dtd" >
<svg xmlns="http://www.w3.org/2000/svg" xmlns:xlink="http://www.w3.org/1999/xlink" version="1.1">
<metadata>
Created by FontForge 20201107 at Tue Aug 12 14:43:02 2025
 By 
Copyright \(c\) 2025 by Designova\(R\). All rights reserved.
</metadata>
<defs>
<font id="ArenaUno-Bold" horiz-adv-x="0" >
  <font-face 
    font-family="Arena Uno"
    font-weight="700"
    font-stretch="normal"
    units-per-em="2048"
    panose-1="0 0 0 0 0 0 0 0 0 0"
    ascent="1638"
    descent="-410"
    x-height="1070"
    cap-height="1419"
    bbox="-208 -541 2548 2024"
    underline-thickness="100"
    underline-position="-355"
    unicode-range="U+000D-25CA"
  />
<missing-glyph horiz-adv-x="1608" 
d="M399 294v-129h31v83h1l62 -83h29v129h-31v-81h-2l-64 81h-26zM535 213q0 -28 25 -43q18 -6 29 -6q32 0 48 23q6 12 6 26q0 24 -15 37t-39 13q-36 0 -48 -24q-6 -11 -6 -26zM694 230q0 -41 32 -59q19 -7 37 -7q27 0 44.5 14t17.5 40v17h-59v-21h31q0 -16 -16 -22
q-5 -4 -18 -4q-23 0 -33 19q-5 7 -5 23q0 28 18 38q12 5 19 5q28 0 31 -21h31q-1 18 -20 33q-17 11 -42 11q-31 0 -49.5 -18t-18.5 -48zM843 294v-129h29v129h-29zM914 263h-33l40 -99l-2 -5q-2 -11 -22 -7l-7 -19q10 -4 20 -4q20 0 32 14q5 3 8 13l41 107h-31l-22 -71h-2z
M1001 263v-134h31v52q6 -10 18 -14q3 -3 13 -3q27 0 39 23q6 10 6 26q0 31 -21 45q-13 5 -24 5q-17 0 -25 -9q-4 -3 -6 -9h-1v18h-30zM1123 294v-129h28v56q0 14 11 18q4 3 11 3q19 0 19 -19v-58h31v62q0 24 -19 33q-12 3 -19 3q-25 0 -34 -18h-1v49h-27zM690 811l-301 -301
l116 -114l299 298l304 -298l118 114l-301 301l296 301l-113 114l-304 -299l-297 299l-118 -114zM565 213q0 12 6.5 21t17.5 9q23 0 23 -30q0 -17 -10 -25q-10 -2 -13 -2q-17 0 -20 14q-4 5 -4 13zM1031 213q0 17 10 25q5 5 12 5q24 0 24 -30q0 -15 -10 -25q-8 -2 -14 -2
q-14 0 -20 14q-2 8 -2 13zM1419 -1h-1224v1378h1224v-1378z" />
    <glyph glyph-name=".notdef" horiz-adv-x="1608" 
d="M399 294v-129h31v83h1l62 -83h29v129h-31v-81h-2l-64 81h-26zM535 213q0 -28 25 -43q18 -6 29 -6q32 0 48 23q6 12 6 26q0 24 -15 37t-39 13q-36 0 -48 -24q-6 -11 -6 -26zM694 230q0 -41 32 -59q19 -7 37 -7q27 0 44.5 14t17.5 40v17h-59v-21h31q0 -16 -16 -22
q-5 -4 -18 -4q-23 0 -33 19q-5 7 -5 23q0 28 18 38q12 5 19 5q28 0 31 -21h31q-1 18 -20 33q-17 11 -42 11q-31 0 -49.5 -18t-18.5 -48zM843 294v-129h29v129h-29zM914 263h-33l40 -99l-2 -5q-2 -11 -22 -7l-7 -19q10 -4 20 -4q20 0 32 14q5 3 8 13l41 107h-31l-22 -71h-2z
M1001 263v-134h31v52q6 -10 18 -14q3 -3 13 -3q27 0 39 23q6 10 6 26q0 31 -21 45q-13 5 -24 5q-17 0 -25 -9q-4 -3 -6 -9h-1v18h-30zM1123 294v-129h28v56q0 14 11 18q4 3 11 3q19 0 19 -19v-58h31v62q0 24 -19 33q-12 3 -19 3q-25 0 -34 -18h-1v49h-27zM690 811l-301 -301
l116 -114l299 298l304 -298l118 114l-301 301l296 301l-113 114l-304 -299l-297 299l-118 -114zM565 213q0 12 6.5 21t17.5 9q23 0 23 -30q0 -17 -10 -25q-10 -2 -13 -2q-17 0 -20 14q-4 5 -4 13zM1031 213q0 17 10 25q5 5 12 5q24 0 24 -30q0 -15 -10 -25q-8 -2 -14 -2
q-14 0 -20 14q-2 8 -2 13zM1419 -1h-1224v1378h1224v-1378z" />
    <glyph glyph-name=".null" 
 />
    <glyph glyph-name="uni000D" unicode="&#xd;" horiz-adv-x="512" 
 />
    <glyph glyph-name="space" unicode=" " horiz-adv-x="700" 
 />
    <glyph glyph-name="space" unicode="&#xa0;" horiz-adv-x="700" 
 />
    <glyph glyph-name="exclam" unicode="!" horiz-adv-x="497" 
d="M126 250l-12 1135h226l-12 -1135h-202zM227 154q56 0 92.5 -35.5t36.5 -90.5t-36.5 -91t-92.5 -36q-53 0 -90.5 36.5t-37.5 90.5t37.5 90t90.5 36z" />
    <glyph glyph-name="quotedbl" unicode="&#x22;" horiz-adv-x="428" 
d="M110 883l-11 583h215l-10 -583h-194zM379 883l-12 583h216l-10 -583h-194z" />
    <glyph glyph-name="numbersign" unicode="#" horiz-adv-x="1522" 
d="M593 754l-26 -108h361l26 108h-361zM419 0h-233l99 427h-186v219h236l26 108h-204v221h254l99 425h233l-99 -425h360l98 425h232l-98 -425h186v-221h-236l-26 -108h204v-219h-254l-99 -427h-233l99 427h-360z" />
    <glyph glyph-name="dollar" unicode="$" horiz-adv-x="1175" 
d="M703 185q70 18 108 62.5t38 107.5q0 127 -146 197v-367zM378 1017q0 -120 127 -181v357q-58 -21 -92.5 -66t-34.5 -110zM703 780q181 -62 272 -164.5t91 -253.5q0 -146 -97 -250.5t-266 -129.5v-145h-198v146q-168 28 -277.5 152t-128.5 334h214q13 -116 63.5 -188
t128.5 -93v423q-77 24 -136 56t-108 78.5t-75 113.5t-26 152q0 157 95.5 259t249.5 130v147h198v-145q157 -32 252.5 -162t120.5 -315h-216q-27 226 -157 271v-416z" />
    <glyph glyph-name="percent" unicode="%" horiz-adv-x="1431" 
d="M419 1408q145 0 232 -100t87 -257q0 -155 -87.5 -256t-231.5 -101q-147 0 -233.5 101t-86.5 256q0 158 86.5 257.5t233.5 99.5zM126 0l932 1385h246l-933 -1385h-245zM419 1212q-52 0 -79.5 -43.5t-27.5 -117.5q0 -73 28 -116.5t79 -43.5q49 0 77 43.5t28 116.5
q0 74 -27.5 117.5t-77.5 43.5zM1011 689q146 0 233 -100t87 -257q0 -155 -87.5 -256.5t-232.5 -101.5q-146 0 -233 101.5t-87 256.5q0 157 86.5 257t233.5 100zM1011 492q-51 0 -78.5 -43t-27.5 -117t27.5 -117.5t78.5 -43.5q50 0 78 44t28 117t-28 116.5t-78 43.5z" />
    <glyph glyph-name="ampersand" unicode="&#x26;" horiz-adv-x="1643" 
d="M632 198q11 0 17 1q134 5 239 82q-204 169 -376 367q-168 -100 -168 -226q0 -75 43 -127.5t106 -74.5t139 -22zM523 1096q0 -66 70 -180q82 40 145.5 95.5t63.5 107.5q0 43 -39.5 66t-90.5 23q-59 0 -104 -29.5t-45 -82.5zM615 -42q-101 0 -193 30.5t-164.5 87
t-115.5 144.5t-43 195q0 76 21 139.5t61 113t86 87t109 73.5q-93 161 -93 275q0 109 54 189t138.5 118t186.5 38q163 0 271 -89.5t108 -233.5q0 -212 -307 -379q137 -147 295 -271q44 119 50 269h238q-9 -248 -87 -412q149 -95 313 -157l-89 -221q-116 41 -196.5 82.5
t-170.5 100.5q-88 -82 -201 -127.5t-234 -50.5z" />
    <glyph glyph-name="quotesingle" unicode="'" horiz-adv-x="414" 
d="M109 883l-10 583h215l-12 -583h-193z" />
    <glyph glyph-name="parenleft" unicode="(" horiz-adv-x="763" 
d="M642 1557q-133 -210 -206.5 -431.5t-73.5 -424.5q0 -201 73.5 -423t206.5 -433h-244q-118 172 -188 402t-70 454q0 225 70 455t188 401h244z" />
    <glyph glyph-name="parenright" unicode=")" horiz-adv-x="765" 
d="M364 1557q119 -171 189 -401t70 -455t-70 -454.5t-189 -401.5h-244q134 210 207 431.5t73 424.5q0 205 -73 426t-207 430h244z" />
    <glyph glyph-name="asterisk" unicode="*" horiz-adv-x="1018" 
d="M856 777l62 -193l-268 -79l194 -243l-169 -115l-183 252l-181 -251l-170 113l194 244l-268 79l62 193l268 -95l-8 313h207l-8 -313z" />
    <glyph glyph-name="plus" unicode="+" horiz-adv-x="1097" 
d="M648 544v-387h-199v387h-350v195h350v390h199v-390h350v-195h-350z" />
    <glyph glyph-name="comma" unicode="," horiz-adv-x="625" 
d="M308 -211h-209l149 429h236z" />
    <glyph glyph-name="hyphen" unicode="-" horiz-adv-x="816" 
d="M140 481v195h534v-195h-534z" />
    <glyph glyph-name="period" unicode="." horiz-adv-x="497" 
d="M227 227q56 0 92.5 -35.5t36.5 -90.5t-36.5 -91t-92.5 -36q-53 0 -90.5 36.5t-37.5 90.5t37.5 90t90.5 36z" />
    <glyph glyph-name="slash" unicode="/" horiz-adv-x="926" 
d="M99 -54l519 1493h208l-519 -1493h-208z" />
    <glyph glyph-name="zero" unicode="0" horiz-adv-x="1260" 
d="M630 -19q-105 0 -190.5 29t-144 82t-101 121t-66 152.5t-34.5 168.5t-11 177t10.5 177.5t34.5 169t66 152t101 120.5t144.5 82t190.5 29q126 0 223.5 -42.5t157.5 -111.5t98.5 -166.5t53 -196.5t14.5 -213t-14.5 -213t-53 -196.5t-98.5 -166.5t-157.5 -111.5
t-223.5 -42.5zM630 196q52 0 94 20t69.5 51.5t48 77.5t31.5 90.5t17.5 98.5t8.5 93.5t2 83.5t-2 83.5t-8.5 93.5t-17.5 98.5t-31.5 90.5t-48 77.5t-69.5 51.5t-94 20q-272 0 -272 -515q0 -52 3 -99t12 -110.5t28 -114t47.5 -95.5t75 -70.5t106.5 -25.5z" />
    <glyph glyph-name="one" unicode="1" horiz-adv-x="1008" 
d="M564 5v1198h-377v217h633v-1415h-256z" />
    <glyph glyph-name="two" unicode="2" horiz-adv-x="1305" 
d="M104 5v152l488 467q11 10 56 51.5t66.5 62.5t58.5 63t56 72.5t34.5 70.5t15.5 77q0 94 -55.5 148t-153.5 54q-222 0 -255 -330h-267q3 81 22 157.5t60.5 148t100.5 125t147.5 85.5t196.5 32q133 0 239 -47t170.5 -142t64.5 -225q0 -42 -10 -84t-24 -76.5t-40.5 -74.5
t-47.5 -67.5t-58 -67t-59 -61.5t-63 -61.5t-59 -56.5l-258 -258h629v-215h-1055z" />
    <glyph glyph-name="three" unicode="3" horiz-adv-x="1242" 
d="M615 -19q-134 0 -232.5 32.5t-160 95t-94.5 145t-44 191.5h273q9 -56 24.5 -97t44 -77.5t77.5 -55.5t116 -19q116 0 189 54t73 163q0 196 -282 194l-129 -1v215h130q97 0 177 61t80 154q0 90 -55 140t-146 50q-124 0 -178 -65t-65 -180h-268q13 211 141.5 335.5
t374.5 124.5q126 0 231 -44.5t172 -136.5t67 -216q0 -88 -42 -171.5t-113 -136.5q90 -51 136 -134t46 -187q0 -105 -42.5 -189t-117.5 -137t-172.5 -80.5t-210.5 -27.5z" />
    <glyph glyph-name="four" unicode="4" horiz-adv-x="1389" 
d="M431 567h360v461zM104 352v140l738 928h216v-853h184v-215h-184v-347h-267v347h-687z" />
    <glyph glyph-name="five" unicode="5" horiz-adv-x="1284" 
d="M611 -19q-228 0 -359 114t-158 324h268q18 -101 74.5 -157t174.5 -56q122 0 186.5 69.5t64.5 187.5q0 114 -61 190t-177 76q-179 0 -254 -162h-260l136 853h876v-215h-644l-57 -344q53 46 115 65t160 19q214 0 328 -132t114 -347q0 -217 -150.5 -351t-376.5 -134z" />
    <glyph glyph-name="six" unicode="6" horiz-adv-x="1237" 
d="M353 500q0 -125 65.5 -214.5t190.5 -89.5q121 0 194 80.5t73 198.5q0 124 -66.5 209t-191.5 85q-117 0 -191 -77t-74 -192zM350 853q96 131 309 131q211 0 352.5 -141t141.5 -363q0 -145 -74 -260t-198 -177t-274 -62q-119 0 -211.5 34t-152.5 91.5t-99 140.5
t-55.5 175.5t-16.5 201.5q0 84 7 162.5t25.5 162t47 154t73.5 134t103.5 108t139.5 70.5t178 26q399 0 490 -396h-239q-12 36 -21 56.5t-28.5 48t-44 41.5t-65.5 24.5t-95 10.5q-128 0 -202.5 -103t-90.5 -270z" />
    <glyph glyph-name="seven" unicode="7" horiz-adv-x="1205" 
d="M417 5h-293l676 1200h-738v215h1081v-129z" />
    <glyph glyph-name="eight" unicode="8" horiz-adv-x="1292" 
d="M380 403q0 -105 78.5 -157t191.5 -52q108 0 184.5 54t76.5 155q0 110 -70 162t-187 52q-55 0 -102.5 -12t-87 -36.5t-62 -67t-22.5 -98.5zM444 1018q0 -90 60.5 -138t155.5 -48q96 0 157 47.5t61 138.5q0 95 -61.5 151.5t-156.5 56.5t-155.5 -56.5t-60.5 -151.5zM104 405
q0 102 51.5 188t142.5 142q-63 53 -96.5 127t-33.5 156q0 129 71 227t181.5 147t239.5 49q97 0 185.5 -28.5t157 -81t109 -133.5t40.5 -180q0 -83 -36.5 -158t-102.5 -128q85 -56 129.5 -141t44.5 -186q0 -104 -46.5 -187.5t-124 -134.5t-172.5 -77.5t-199 -26.5
q-84 0 -162 15.5t-147.5 49.5t-120.5 83t-81 120.5t-30 157.5z" />
    <glyph glyph-name="nine" unicode="9" horiz-adv-x="1248" 
d="M883 922q0 125 -65.5 214.5t-190.5 89.5q-121 0 -194 -80.5t-73 -198.5q0 -124 66.5 -209.5t191.5 -85.5q117 0 191 78t74 192zM885 568q-96 -130 -308 -130q-211 0 -352.5 141t-141.5 362q0 145 74 260.5t198 177.5t274 62q119 0 211.5 -34t152.5 -91.5t99 -140.5
t55.5 -175.5t16.5 -201.5q0 -84 -7 -162.5t-25.5 -162t-47 -154t-73.5 -134t-103.5 -108t-139.5 -70.5t-178 -26q-399 0 -490 396h239q12 -36 21 -57t28.5 -48t44 -41t65 -24.5t94.5 -10.5q129 0 206 106t87 266z" />
    <glyph glyph-name="colon" unicode=":" horiz-adv-x="497" 
d="M227 1116q56 0 92.5 -35.5t36.5 -90.5q0 -53 -37 -89.5t-92 -36.5q-53 0 -90.5 37t-37.5 89q0 54 37.5 90t90.5 36zM227 227q56 0 92.5 -35.5t36.5 -90.5t-36.5 -91t-92.5 -36q-53 0 -90.5 36.5t-37.5 90.5t37.5 90t90.5 36z" />
    <glyph glyph-name="semicolon" unicode=";" horiz-adv-x="620" 
d="M345 1116q56 0 92.5 -35.5t36.5 -90.5q0 -53 -36.5 -89.5t-92.5 -36.5q-53 0 -90.5 37t-37.5 89q0 54 37.5 90t90.5 36zM311 -211h-212l149 434l230 -4z" />
    <glyph glyph-name="less" unicode="&#x3c;" horiz-adv-x="1090" 
d="M405 550l586 -275v-219l-892 419v146l892 422v-220z" />
    <glyph glyph-name="equal" unicode="=" horiz-adv-x="1126" 
d="M99 712v193h928v-193h-928zM99 378v193h928v-193h-928z" />
    <glyph glyph-name="greater" unicode="&#x3e;" horiz-adv-x="1090" 
d="M991 475l-892 -419v217l587 275l-587 272v223l892 -422v-146z" />
    <glyph glyph-name="question" unicode="?" horiz-adv-x="1151" 
d="M571 1410q207 0 323 -111t116 -282q0 -208 -203 -396q-102 -95 -133 -170t-33 -220h-209q5 193 45.5 293.5t168.5 225.5q75 73 109.5 136.5t34.5 130.5q0 90 -59.5 141.5t-159.5 51.5q-114 0 -182 -85.5t-79 -233.5h-211q9 232 140 375.5t332 143.5zM540 161
q53 0 90.5 -36t37.5 -90t-37.5 -90.5t-90.5 -36.5q-56 0 -92.5 36t-36.5 91t36.5 90.5t92.5 35.5z" />
    <glyph glyph-name="at" unicode="@" horiz-adv-x="1719" 
d="M989 649q9 33 9 60q0 47 -23.5 75.5t-62.5 28.5q-102 0 -175.5 -99.5t-73.5 -237.5q0 -79 28 -118t78 -39q63 0 117.5 66t86.5 192zM1266 -74q-127 -64 -236.5 -89t-230.5 -25q-107 0 -207.5 27t-190.5 83.5t-157 137.5t-106 197t-39 253q0 151 48.5 285t131 231.5
t190 169t228.5 107t243 35.5q302 0 491 -184.5t189 -477.5q0 -131 -36 -236.5t-97 -170.5t-135.5 -99.5t-156.5 -34.5q-141 0 -208 82q-106 -97 -233 -97q-45 0 -86 9.5t-83 34.5t-72.5 63.5t-49.5 100.5t-19 141q0 142 60.5 266t169.5 200t240 76q90 0 155 -44l3 12h216
l-121 -489q-18 -82 -18 -117q0 -43 59 -43q87 0 148 93t61 246q0 222 -135 348t-352 126q-88 0 -176.5 -27t-169.5 -81t-143.5 -128t-100 -176t-37.5 -217q0 -122 41 -220t110.5 -159.5t158.5 -94.5t188 -33q189 0 369 92z" />
    <glyph glyph-name="A" unicode="A" horiz-adv-x="1600" 
d="M799 1014l-213 -513h424zM99 0l588 1425h221l592 -1425h-283l-113 273h-613l-113 -273h-279z" />
    <glyph glyph-name="B" unicode="B" horiz-adv-x="1462" 
d="M733 223h13h50t49.5 2t51 5t46 9t44 15.5t35.5 23.5t29.5 32t17.5 43t7 55q0 38 -9 69t-28.5 52.5t-40 37.5t-53.5 25.5t-58.5 15.5t-65.5 8.5t-64 3t-64 0.5h-318v-397h358zM730 844h15h44t42.5 1.5t42.5 4t38 8.5t36 14t28.5 20t23.5 28t13.5 38t5.5 49
q0 56 -18.5 94.5t-41 58t-70.5 29.5t-79 11t-95 1h-20h-320v-357h355zM107 0v1425h636q96 0 172.5 -10t149.5 -37.5t121.5 -73t78 -121t29.5 -176.5q0 -79 -31 -152.5t-92 -115.5q179 -105 179 -331q0 -98 -32.5 -172t-84.5 -118t-129 -71.5t-153.5 -37t-169.5 -9.5h-674z
" />
    <glyph glyph-name="C" unicode="C" horiz-adv-x="1679" 
d="M1300 860q-65 365 -463 365q-246 0 -359.5 -136.5t-113.5 -379.5q0 -117 26.5 -210t82 -162.5t147.5 -107t217 -37.5q203 0 317.5 98.5t145.5 274.5h270q-40 -278 -231 -436.5t-502 -158.5q-350 0 -545 199.5t-195 539.5q0 342 194.5 540.5t545.5 198.5q310 0 500.5 -156
t231.5 -432h-269z" />
    <glyph glyph-name="D" unicode="D" horiz-adv-x="1551" 
d="M586 1425q218 0 388.5 -53t278.5 -148.5t163.5 -224.5t55.5 -285q0 -165 -45 -290.5t-122.5 -205t-192.5 -129.5t-242 -69.5t-284 -19.5h-446v1425h446zM586 223q85 0 150.5 5t132 18t114.5 36t91 60t69.5 88t41.5 122.5t15 161.5q0 238 -152 363t-462 125h-176v-979h176
z" />
    <glyph glyph-name="E" unicode="E" horiz-adv-x="1381" 
d="M140 1425h1099v-224h-829v-368h682v-225h-682v-385h851v-223h-1121v1425z" />
    <glyph glyph-name="F" unicode="F" horiz-adv-x="1276" 
d="M140 1425h1099v-224h-829v-368h682v-225h-682v-608h-270v1425z" />
    <glyph glyph-name="G" unicode="G" horiz-adv-x="1671" 
d="M1323 182q-168 -212 -484 -212q-350 0 -545 199.5t-195 539.5q0 342 194.5 540.5t545.5 198.5q310 0 500.5 -156t231.5 -432h-269q-65 365 -463 365q-246 0 -359.5 -136.5t-113.5 -379.5q0 -117 26.5 -210t82 -162.5t147.5 -107t217 -37.5q184 0 296 82t154 231h-534v203
h811v-708h-206z" />
    <glyph glyph-name="H" unicode="H" horiz-adv-x="1503" 
d="M140 1425h269v-574h688v574h265v-1425h-265v629h-688v-629h-269v1425z" />
    <glyph glyph-name="I" unicode="I" horiz-adv-x="611" 
d="M172 1419h266v-1419h-266v1419z" />
    <glyph glyph-name="J" unicode="J" horiz-adv-x="1475" 
d="M313 702q0 -82 7.5 -148t32 -136.5t65 -117.5t111 -77.5t166.5 -30.5q88 0 155 22.5t109 60.5t68 94t36 116.5t10 134.5v805h263v-805q0 -92 -16 -176t-60 -173t-113 -153.5t-185.5 -106t-266.5 -41.5q-141 0 -251 36.5t-183.5 101t-120.5 157.5t-66.5 201t-16.5 236h256
z" />
    <glyph glyph-name="K" unicode="K" horiz-adv-x="1535" 
d="M140 1425h271v-588l677 588h390l-746 -641l741 -784h-358l-573 621l-131 -113v-509h-271v1426z" />
    <glyph glyph-name="L" unicode="L" horiz-adv-x="1361" 
d="M140 1425h268v-1205h833v-220h-1101v1425z" />
    <glyph glyph-name="M" unicode="M" horiz-adv-x="1711" 
d="M140 1425h221l493 -1097l488 1097h227v-1425h-246v797l-357 -797h-230l-349 781v-781h-247v1425z" />
    <glyph glyph-name="N" unicode="N" horiz-adv-x="1448" 
d="M140 1425h227l678 -944v944h262v-1425h-222l-681 947v-947h-264v1425z" />
    <glyph glyph-name="O" unicode="O" horiz-adv-x="1682" 
d="M99 709q0 342 194.5 540.5t545.5 198.5q352 0 547.5 -198.5t195.5 -540.5q0 -341 -196 -540t-547 -199q-350 0 -545 199.5t-195 539.5zM366 709q0 -117 26.5 -210t82 -162.5t147.5 -107t217 -37.5q123 0 215.5 38t148.5 108t83.5 162.5t27.5 208.5q0 118 -26.5 210.5
t-82 162t-148 106.5t-218.5 37q-246 0 -359.5 -136.5t-113.5 -379.5z" />
    <glyph glyph-name="P" unicode="P" horiz-adv-x="1367" 
d="M689 729q314 0 314 233q0 123 -77.5 181t-236.5 58h-281v-472h281zM408 501v-501h-268v1425h588q145 0 252.5 -36.5t168.5 -102t89.5 -146t28.5 -178.5q0 -95 -30.5 -175.5t-92.5 -146t-168.5 -102.5t-247.5 -37h-320z" />
    <glyph glyph-name="Q" unicode="Q" horiz-adv-x="1692" 
d="M366 709q0 -117 26.5 -210t82 -162.5t147.5 -107t217 -37.5q123 0 215.5 38t148.5 108t83.5 162.5t27.5 208.5q0 118 -26.5 210.5t-82 162t-148 106.5t-218.5 37q-246 0 -359.5 -136.5t-113.5 -379.5zM839 -30q-350 0 -545 199.5t-195 539.5q0 342 194.5 540.5
t545.5 198.5q352 0 547.5 -198.5t195.5 -540.5q0 -301 -154 -493q24 -13 49 -31t39 -29t42 -35.5t34 -29.5l-155 -178q-47 42 -68 59.5t-63.5 42.5t-83.5 36q-167 -81 -383 -81z" />
    <glyph glyph-name="R" unicode="R" horiz-adv-x="1448" 
d="M781 792q54 0 99.5 10t85.5 33t63 67t23 105q0 29 -4 53t-14.5 42t-20.5 32.5t-29.5 25t-32.5 18t-40 11.5t-41.5 7t-46.5 4t-46 1h-49h-20h-300v-409h373zM1304 0h-273v362q0 38 -5 68t-17.5 51.5t-24.5 36.5t-36 24.5t-40.5 15t-50.5 7.5t-52.5 2.5t-59.5 0.5h-337
l1 -568h-269v1425h616q97 0 174.5 -10t154 -37.5t128 -73t83 -121t31.5 -176.5q0 -53 -18 -107.5t-62 -107.5t-107 -79q91 -53 127.5 -125t36.5 -180v-408z" />
    <glyph glyph-name="S" unicode="S" horiz-adv-x="1473" 
d="M774 -30q-146 0 -265.5 33.5t-209.5 101t-137 178t-41 255.5h258q13 -133 49 -204.5t118 -106.5t230 -35q54 0 103.5 8t100 27t81 58.5t30.5 95.5q0 53 -31 92t-84 63.5t-121.5 44t-144 37t-151 38t-144 52.5t-121.5 74.5t-84 109t-31 152.5q0 84 37.5 153.5t97.5 115
t138.5 77t157.5 45t157 13.5q297 0 435 -139.5t138 -418.5h-252q5 167 -66.5 251t-255.5 84q-43 0 -93.5 -9t-103.5 -27.5t-88 -55t-35 -83.5q0 -53 31 -92t83.5 -62.5t120.5 -42t143.5 -35.5t150.5 -37t143 -52.5t120.5 -76t83.5 -113t31 -159.5q0 -84 -36 -154t-94 -116.5
t-134.5 -79t-155.5 -46.5t-159 -14z" />
    <glyph glyph-name="T" unicode="T" horiz-adv-x="1402" 
d="M569 1202h-470v223h1203v-223h-467v-1202h-266v1202z" />
    <glyph glyph-name="U" unicode="U" horiz-adv-x="1563" 
d="M780 -30q-155 0 -277 48t-201 135t-120.5 205.5t-41.5 261.5v805h266v-805q0 -70 11 -130t38 -116t69 -95.5t107.5 -63t148.5 -23.5q88 0 155 22.5t109 60.5t68 94t36 116.5t10 134.5v805h263v-805q0 -92 -16 -176t-60 -173t-113 -153.5t-185.5 -106t-266.5 -41.5z" />
    <glyph glyph-name="V" unicode="V" horiz-adv-x="1476" 
d="M36 1425h281l418 -1038l420 1038h284l-574 -1425h-258z" />
    <glyph glyph-name="W" unicode="W" horiz-adv-x="2358" 
d="M1170 966l-369 -966h-261l-504 1425h282l359 -1015l386 1015h222l367 -1017l383 1017h286l-538 -1425h-262z" />
    <glyph glyph-name="X" unicode="X" horiz-adv-x="1631" 
d="M655 754l-522 671h327l353 -464l353 464h328l-519 -671l577 -754h-323l-416 547l-418 -547h-317z" />
    <glyph glyph-name="Y" unicode="Y" horiz-adv-x="1461" 
d="M595 538l-517 887h293l362 -610l356 610h293l-518 -887v-538h-269v538z" />
    <glyph glyph-name="Z" unicode="Z" horiz-adv-x="1487" 
d="M99 162l907 1039h-864v224h1245v-162l-906 -1039h900v-224h-1282v162z" />
    <glyph glyph-name="bracketleft" unicode="[" horiz-adv-x="692" 
d="M571 1352h-232v-1302h232v-195h-431v1692h431v-195z" />
    <glyph glyph-name="backslash" unicode="\" horiz-adv-x="926" 
d="M618 -54l-519 1493h208l519 -1493h-208z" />
    <glyph glyph-name="bracketright" unicode="]" horiz-adv-x="695" 
d="M120 -145v195h235v1302h-235v195h433v-1692h-433z" />
    <glyph glyph-name="asciicircum" unicode="^" horiz-adv-x="1127" 
d="M565 952l-246 -565h-220l387 864h161l381 -864h-218z" />
    <glyph glyph-name="underscore" unicode="_" horiz-adv-x="1173" 
d="M140 -148v195h891v-195h-891z" />
    <glyph glyph-name="grave" unicode="`" horiz-adv-x="891" 
d="M457 1146l-233 339h250l192 -339h-209z" />
    <glyph glyph-name="a" unicode="a" horiz-adv-x="1127" 
d="M356 307q0 -62 35 -85.5t119 -23.5q115 0 181 59.5t66 175.5v37q-45 0 -85.5 -2t-102 -11.5t-105.5 -25.5t-76 -48.5t-32 -75.5zM78 303q0 66 25 120t65 89.5t99 61.5t116.5 40.5t130 23t126.5 10.5t117 2q1 96 -40.5 152t-132.5 56q-83 0 -141 -41.5t-58 -119.5h-271
q0 125 67 216t171.5 134.5t231.5 43.5q203 0 323 -105t120 -299v-686h-219l-26 99q-126 -122 -314 -122q-108 0 -194.5 34.5t-141 109.5t-54.5 181z" />
    <glyph glyph-name="b" unicode="b" horiz-adv-x="1322" 
d="M970 549q0 68 -14.5 123.5t-45 100t-84.5 69.5t-127 25q-145 0 -217 -88.5t-72 -229.5q0 -68 16.5 -125t50 -102.5t90.5 -71t132 -25.5q74 0 128 25.5t84.5 71.5t44.5 102t14 125zM1243 549q0 -124 -33.5 -227t-98 -180t-165 -119.5t-228.5 -42.5q-200 0 -325 139
l-22 -119h-231v1425h270v-469q132 135 318 135q252 0 383.5 -145.5t131.5 -396.5z" />
    <glyph glyph-name="c" unicode="c" horiz-adv-x="1241" 
d="M881 642q-46 203 -259 203q-142 0 -206.5 -89.5t-64.5 -233.5q0 -68 14.5 -123.5t45 -100.5t84.5 -70t127 -25q232 0 267 240h273q-23 -215 -163.5 -339.5t-376.5 -124.5q-254 0 -399 147.5t-145 395.5q0 252 145 410.5t399 158.5q221 0 361 -123t173 -326h-275z" />
    <glyph glyph-name="d" unicode="d" horiz-adv-x="1323" 
d="M351 549q0 -69 14 -125t44.5 -102t84.5 -71.5t128 -25.5q75 0 132 25.5t90.5 71t50 102.5t16.5 125q0 141 -72 229.5t-217 88.5q-73 0 -127 -25t-84.5 -69.5t-45 -100t-14.5 -123.5zM78 549q0 251 131.5 396.5t383.5 145.5q186 0 318 -135v469h270v-1425h-231l-22 119
q-125 -139 -325 -139q-128 0 -228.5 42.5t-165 119.5t-98 180t-33.5 227z" />
    <glyph glyph-name="e" unicode="e" horiz-adv-x="1246" 
d="M878 672q-51 190 -255 190q-103 0 -166.5 -51.5t-89.5 -138.5h511zM78 535q0 254 144.5 405t400.5 151q257 0 403 -151.5t142 -404.5l-1 -64h-814q13 -118 79 -190t191 -72q192 0 249 170h280q-40 -187 -177 -293.5t-352 -106.5q-256 0 -400.5 151t-144.5 405z" />
    <glyph glyph-name="f" unicode="f" horiz-adv-x="865" 
d="M235 848h-168v222h171v176q0 103 45.5 141t147.5 38h387v-223h-271q-42 0 -42 -49v-83h312v-222h-310v-848h-272v848z" />
    <glyph glyph-name="g" unicode="g" horiz-adv-x="1323" 
d="M351 522q0 -68 14.5 -123.5t45 -100.5t84.5 -70t127 -25q145 0 217 88.5t72 230.5q0 143 -71.5 233t-217.5 90q-142 0 -206.5 -89.5t-64.5 -233.5zM911 115q-133 -136 -318 -136q-252 0 -383.5 145.5t-131.5 397.5q0 124 33.5 227t98 180t165 119.5t228.5 42.5
q199 0 325 -139l22 118h231v-1078q0 -261 -136.5 -397t-391.5 -136q-205 0 -338.5 99.5t-175.5 296.5h273q25 -91 78.5 -131.5t162.5 -40.5q141 0 199.5 79.5t58.5 237.5v115z" />
    <glyph glyph-name="h" unicode="h" horiz-adv-x="1265" 
d="M140 1425h268v-507q41 77 135.5 125t188.5 48q119 0 205.5 -42.5t134.5 -117.5t70.5 -165.5t22.5 -199.5v-566h-267v535q0 44 -2.5 76t-9 70.5t-21.5 65.5t-38 50.5t-59 35.5t-84 12q-72 0 -126.5 -28.5t-86.5 -77t-47.5 -107t-15.5 -124.5v-508h-268v1425z" />
    <glyph glyph-name="i" unicode="i" horiz-adv-x="618" 
d="M175 1070h268v-1070h-268v1070zM140 1394q0 23 8.5 46.5t27 46t53 36.5t80.5 14q49 0 84 -14t52 -37t24.5 -45.5t7.5 -46.5t-7.5 -47t-24.5 -46t-52 -37t-84 -14q-46 0 -80.5 14t-53 37t-27 46.5t-8.5 46.5z" />
    <glyph glyph-name="j" unicode="j" horiz-adv-x="572" 
d="M-29 -313q38 0 58 1.5t43 8.5t33.5 21.5t18 40t7.5 63.5v1248h266v-1256q0 -56 -5.5 -101t-14.5 -79.5t-25.5 -61t-33 -44.5t-44 -30.5t-51 -19.5t-60.5 -10.5t-66 -4.5t-75 -1h-172v225h121zM432 1391q0 -24 -7.5 -46.5t-24.5 -45.5t-52 -37t-84 -14q-46 0 -80.5 14
t-53 36.5t-27 46t-8.5 46.5t8.5 46.5t27 46.5t53 37t80.5 14q49 0 84 -14t52 -37.5t24.5 -46t7.5 -46.5z" />
    <glyph glyph-name="k" unicode="k" horiz-adv-x="1401" 
d="M409 1425v-794l499 439h372l-554 -489l529 -581h-341l-377 416l-128 -113v-303h-269v1425h269z" />
    <glyph glyph-name="l" unicode="l" horiz-adv-x="551" 
d="M140 1425h269v-1425h-269v1425z" />
    <glyph glyph-name="m" unicode="m" horiz-adv-x="1805" 
d="M140 1070h208l30 -152q54 82 145.5 127.5t205.5 45.5q189 0 266 -150q109 150 324 150q88 0 156 -28.5t111 -76.5t70.5 -116.5t38.5 -142.5t11 -161v-566h-267v535q0 45 -1.5 76t-6.5 71t-15.5 65.5t-28 50t-45.5 36t-66 11.5q-66 0 -117.5 -47t-75.5 -109.5t-24 -122.5
v-566h-266v535q0 45 -1.5 76t-6.5 71t-15.5 65.5t-28 50t-45.5 36t-66 11.5q-71 0 -122.5 -49.5t-75 -124.5t-23.5 -163v-508h-269v1070z" />
    <glyph glyph-name="n" unicode="n" horiz-adv-x="1265" 
d="M140 1070h208l30 -152q52 79 150.5 126t203.5 47q119 0 205.5 -42.5t134.5 -117.5t70.5 -165.5t22.5 -199.5v-566h-267v535q0 44 -2.5 76t-9 70.5t-21.5 65.5t-38 50.5t-59 35.5t-84 12q-72 0 -126.5 -28.5t-86.5 -77t-47.5 -107t-15.5 -124.5v-508h-268v1070z" />
    <glyph glyph-name="o" unicode="o" horiz-adv-x="1245" 
d="M78 535q0 254 144.5 405t400.5 151q257 0 400.5 -151t143.5 -405t-143.5 -405t-400.5 -151q-256 0 -400.5 151t-144.5 405zM894 535q0 71 -14 127.5t-44.5 102.5t-84.5 71.5t-128 25.5q-73 0 -127 -25.5t-85 -71.5t-45.5 -103t-14.5 -127q0 -69 14.5 -126t45.5 -103
t85 -71.5t127 -25.5q74 0 128 25t84.5 71t44.5 103t14 127z" />
    <glyph glyph-name="p" unicode="p" horiz-adv-x="1322" 
d="M970 522q0 144 -64.5 233.5t-206.5 89.5q-75 0 -132 -25.5t-90.5 -70.5t-50 -102t-16.5 -125q0 -142 72 -230.5t217 -88.5q73 0 127 25t84.5 70t45 100.5t14.5 123.5zM1243 522q0 -252 -131.5 -397.5t-383.5 -145.5q-187 0 -318 136v-573h-270v1528h231l22 -118
q126 139 325 139q128 0 228.5 -42.5t165 -119.5t98 -180t33.5 -227z" />
    <glyph glyph-name="q" unicode="q" horiz-adv-x="1323" 
d="M351 522q0 -68 14.5 -123.5t45 -100.5t84.5 -70t127 -25q145 0 217 88.5t72 230.5q0 143 -71.5 233t-217.5 90q-142 0 -206.5 -89.5t-64.5 -233.5zM78 522q0 124 33.5 227t98 180t165 119.5t228.5 42.5q199 0 325 -139l22 118h231v-1528h-270v573q-133 -136 -318 -136
q-252 0 -383.5 145.5t-131.5 397.5z" />
    <glyph glyph-name="r" unicode="r" horiz-adv-x="836" 
d="M140 1070h218l30 -152q53 80 147 126.5t197 46.5q45 0 67 -3l-8 -265q-44 22 -107 22q-72 0 -126.5 -28.5t-86.5 -77t-47.5 -107t-15.5 -124.5v-508h-268v1070z" />
    <glyph glyph-name="s" unicode="s" horiz-adv-x="1100" 
d="M753 698q9 51 -4.5 85.5t-46 52t-69.5 24.5t-87 7q-28 0 -56 -3t-62.5 -11t-56 -27.5t-21.5 -47.5q0 -29 23.5 -49t63 -32t90.5 -22t107.5 -22t113 -27t107.5 -41.5t90.5 -62.5t63 -93t23.5 -129q0 -73 -30.5 -130.5t-78.5 -92.5t-113 -57.5t-129.5 -31.5t-132.5 -9
q-100 0 -189 26.5t-158.5 76.5t-105.5 133.5t-25 187.5h271q-16 -105 43 -156t166 -51q215 0 215 100q0 41 -29.5 69.5t-77.5 42t-109 27t-125 23.5t-125 33.5t-109 55t-77.5 89t-29.5 135.5q0 67 30.5 122.5t79.5 91.5t112.5 60.5t127.5 35t127 10.5q82 0 152.5 -13.5
t131 -43t102 -74.5t63 -112t16.5 -150h-272z" />
    <glyph glyph-name="t" unicode="t" horiz-adv-x="831" 
d="M632 0q-46 0 -75.5 1t-66.5 4.5t-60.5 10.5t-50.5 19.5t-44 31t-33.5 44.5t-25.5 60.5t-14.5 79.5t-5.5 101v496h-167v222h167v235h266v-235h229v-222h-229v-488q0 -38 7.5 -63.5t18 -40t34 -21.5t43.5 -8.5t57 -1.5h72v-225h-122z" />
    <glyph glyph-name="u" unicode="u" horiz-adv-x="1223" 
d="M1124 0h-218l-30 152q-41 -76 -144.5 -124.5t-199.5 -48.5q-119 0 -205.5 42.5t-134.5 117.5t-70.5 166t-22.5 200v565h267v-534q0 -53 3 -91t15.5 -82.5t34.5 -72t63 -46.5t98 -19q72 0 126.5 28.5t86.5 77t47.5 107t15.5 124.5v508h268v-1070z" />
    <glyph glyph-name="v" unicode="v" horiz-adv-x="1371" 
d="M78 1070h298l312 -698l308 698h297l-488 -1070h-237z" />
    <glyph glyph-name="w" unicode="w" horiz-adv-x="1770" 
d="M78 1070h279l206 -625l215 625h217l220 -624l199 624h277l-349 -1070h-254l-200 580l-199 -580h-249z" />
    <glyph glyph-name="x" unicode="x" horiz-adv-x="1371" 
d="M516 549l-405 521h323l245 -314l247 314h325l-410 -521l430 -549h-331l-261 341l-260 -341h-320z" />
    <glyph glyph-name="y" unicode="y" horiz-adv-x="1371" 
d="M283 -539l261 591l-466 1018h298l312 -698l308 698h297l-734 -1609h-276z" />
    <glyph glyph-name="z" unicode="z" horiz-adv-x="1234" 
d="M99 159l633 691h-602v220h1005v-166l-636 -684h636v-220h-1036v159z" />
    <glyph glyph-name="braceleft" unicode="{" horiz-adv-x="788" 
d="M565 1352q-115 0 -115 -72q0 -53 19 -163q22 -162 22 -228q0 -117 -71 -188q71 -71 71 -187q0 -66 -22 -228l-4 -30q-15 -94 -15 -134q0 -72 115 -72h102v-195h-100q-151 0 -234 62t-83 207q0 55 24 200q18 125 18 188q0 37 -36.5 64t-115.5 35v180q79 8 115.5 35.5
t36.5 64.5q0 64 -18 187q-24 147 -24 200q0 145 83 207t234 62h100v-195h-102z" />
    <glyph glyph-name="bar" unicode="|" horiz-adv-x="523" 
d="M161 -361v1944h200v-1944h-200z" />
    <glyph glyph-name="braceright" unicode="}" horiz-adv-x="789" 
d="M496 891q0 -37 36 -64t115 -35v-182q-151 -15 -151 -98q0 -73 18 -188q23 -146 23 -200q0 -145 -83 -207t-234 -62h-100v195h102q116 0 116 72q0 34 -16 134l-4 30q-22 162 -22 228q0 116 72 187q-72 75 -72 188q0 66 22 228q2 9 3.5 23t2.5 18q14 94 14 122
q0 72 -116 72h-102v195h100q151 0 234 -62t83 -207q0 -52 -23 -200q-18 -114 -18 -187z" />
    <glyph glyph-name="asciitilde" unicode="~" horiz-adv-x="1127" 
d="M1028 775q0 -359 -245 -359q-62 0 -113 17t-157 73q-74 40 -110 54.5t-66 14.5q-43 0 -43 -164h-196q0 181 62.5 270t179.5 89q64 0 113.5 -17.5t157.5 -73.5q73 -40 109.5 -54t66.5 -14q44 0 44 164h197z" />
    <glyph glyph-name="exclamdown" unicode="&#xa1;" horiz-adv-x="455" 
d="M227 942q-53 0 -90.5 37t-37.5 89q0 54 37.5 90t90.5 36q56 0 92.5 -35.5t36.5 -90.5q0 -52 -37 -89t-92 -37zM328 842l12 -1131h-226l12 1131h202z" />
    <glyph glyph-name="cent" unicode="&#xa2;" horiz-adv-x="1205" 
d="M316 557q0 -145 53.5 -238t139.5 -127v709q-86 -37 -139.5 -124.5t-53.5 -219.5zM708 189q65 26 112.5 87.5t67.5 152.5h215q-39 -185 -144.5 -301t-250.5 -144v-147h-199v146q-183 33 -296.5 180.5t-113.5 384.5q0 220 115.5 370.5t294.5 190.5v150h199v-145
q158 -27 264 -150.5t133 -309.5h-213q-19 106 -66.5 173t-117.5 87v-725z" />
    <glyph glyph-name="sterling" unicode="&#xa3;" horiz-adv-x="1144" 
d="M1040 0h-941v180q118 31 195 98t77 160q0 80 -56 180h-199v195h94q-38 92 -38 191q0 179 124 292.5t308 113.5q105 0 186 -36.5t133.5 -104t82.5 -155.5t38 -198h-216q-23 294 -228 294q-88 0 -148.5 -56t-60.5 -141q0 -90 59 -200h461v-195h-358q33 -85 33 -173
q0 -143 -82 -245h536v-200z" />
    <glyph glyph-name="currency" unicode="&#xa4;" horiz-adv-x="1132" 
d="M564 413q88 0 144 57t56 143t-56 143t-144 57q-85 0 -141 -57.5t-56 -142.5q0 -86 56 -143t141 -57zM967 613q0 -111 -54 -202l119 -115l-147 -135l-112 111q-98 -54 -209 -54q-112 0 -205 54l-114 -112l-146 139l118 112q-55 97 -55 202q0 112 56 203l-119 113l146 136
l114 -110q98 53 205 53q114 0 208 -54l114 111l146 -136l-119 -114q54 -93 54 -202z" />
    <glyph glyph-name="yen" unicode="&#xa5;" horiz-adv-x="1389" 
d="M1139 283h-340v-283h-211v283h-330v195h330v97l-334 -5v194h241l-396 621h259l338 -551l338 551h255l-396 -621h243v-194l-337 5v-97h340v-195z" />
    <glyph glyph-name="brokenbar" unicode="&#xa6;" horiz-adv-x="481" 
d="M140 631v754h199v-754h-199zM140 -289v754h199v-754h-199z" />
    <glyph glyph-name="section" unicode="&#xa7;" horiz-adv-x="1289" 
d="M736 369q82 7 137.5 46.5t55.5 108.5t-70.5 113.5t-216.5 76.5q-70 15 -111 30q-75 -11 -124 -49.5t-49 -110.5q0 -66 70.5 -113.5t175.5 -68.5q67 -14 132 -33zM1148 532q0 -99 -48 -174t-131 -121q78 -90 78 -223q0 -151 -116.5 -239.5t-296.5 -88.5q-370 0 -459 442
h213q64 -244 252 -244q81 0 135.5 33.5t54.5 91.5q0 70 -60.5 114t-225.5 79q-77 16 -146 46t-128.5 75.5t-94.5 111.5t-35 144q0 200 175 295q-74 87 -74 202q0 153 106.5 243.5t277.5 90.5q179 0 286.5 -115t142.5 -311h-211q-30 114 -84 171t-136 57q-69 0 -116.5 -34
t-47.5 -93q0 -123 241 -171q448 -87 448 -382z" />
    <glyph glyph-name="dieresis" unicode="&#xa8;" horiz-adv-x="1427" 
d="M554 1429q49 0 84.5 -35t35.5 -84q0 -47 -35.5 -82t-84.5 -35t-85 35t-36 82q0 49 35.5 84t85.5 35zM873 1429q50 0 85 -35t35 -84q0 -47 -35.5 -82t-84.5 -35q-48 0 -83.5 35t-35.5 82q0 49 35.5 84t83.5 35z" />
    <glyph glyph-name="copyright" unicode="&#xa9;" horiz-adv-x="1719" 
d="M859 1262q-154 0 -283 -73.5t-202.5 -200t-73.5 -278.5q0 -151 73.5 -277.5t202.5 -199.5t283 -73t283 73t203 199.5t74 277.5q0 152 -74 278.5t-203 200t-283 73.5zM867 1168q157 0 265.5 -104.5t138.5 -295.5h-214q-19 93 -67 146.5t-123 53.5q-95 0 -151.5 -74
t-56.5 -182q0 -111 56.5 -182.5t145.5 -71.5q73 0 123 51t71 147h219q-43 -194 -151.5 -296t-270.5 -102q-174 0 -291 124t-117 328q0 208 120 333t303 125zM859 1459q209 0 384 -99.5t276 -271.5t101 -378q0 -205 -101 -377t-276 -271.5t-384 -99.5q-157 0 -298 58.5
t-242 158.5t-160.5 238.5t-59.5 292.5t59.5 293t160.5 239t242 158.5t298 58.5z" />
    <glyph glyph-name="guillemotleft" unicode="&#xab;" horiz-adv-x="1269" 
d="M862 148l-317 369l317 370h260l-318 -370l318 -369h-260zM462 148l-316 369l316 370h261l-318 -370l318 -369h-261z" />
    <glyph glyph-name="logicalnot" unicode="&#xac;" horiz-adv-x="1005" 
d="M706 378v235h-607v195h806v-430h-199z" />
    <glyph glyph-name="registered" unicode="&#xae;" horiz-adv-x="1058" 
d="M529 775q144 0 234 89t90 229q0 137 -90 225t-234 88t-233.5 -88t-89.5 -225q0 -140 89.5 -229t233.5 -89zM512 1132q29 0 39 1q36 6 36 37q0 25 -17 33t-45 8h-30v-79h17zM529 1524q196 0 323 -121.5t127 -309.5q0 -192 -127 -314.5t-323 -122.5q-197 0 -324 122.5
t-127 314.5q0 188 127 309.5t324 121.5zM661 1076q18 -25 23 -65q7 -41 18.5 -68t22 -36.5t23 -19t17.5 -18.5h-165q-25 45 -40 123q-2 16 -7 21t-21 5h-37v-149h-124v458h143q54 0 95.5 -11.5t72.5 -46t31 -89.5q0 -65 -52 -104z" />
    <glyph glyph-name="macron" unicode="&#xaf;" horiz-adv-x="1029" 
d="M289 1211v193h450v-193h-450z" />
    <glyph glyph-name="degree" unicode="&#xb0;" horiz-adv-x="739" 
d="M370 1410q118 0 194 -72.5t76 -187.5q0 -114 -76.5 -187.5t-193.5 -73.5q-118 0 -194.5 73.5t-76.5 187.5q0 115 76.5 187.5t194.5 72.5zM370 1215q-31 0 -50 -18t-19 -47q0 -30 19 -48t50 -18t49.5 18t18.5 48q0 29 -18.5 47t-49.5 18z" />
    <glyph glyph-name="plusminus" unicode="&#xb1;" horiz-adv-x="1097" 
d="M998 741v-195h-350v-364h-199v364h-350v195h350v362h199v-362h350zM99 -93v194h899v-194h-899z" />
    <glyph glyph-name="acute" unicode="&#xb4;" horiz-adv-x="892" 
d="M224 1146l192 339h251l-234 -339h-209z" />
    <glyph glyph-name="paragraph" unicode="&#xb6;" horiz-adv-x="1120" 
d="M1021 -199h-198v1389h-83v-1389h-199v776l-81 2q-167 13 -264 127.5t-97 274.5q0 159 97 274t264 128l108 2h453v-1584z" />
    <glyph glyph-name="periodcentered" unicode="&#xb7;" horiz-adv-x="464" 
d="M231 752q59 0 96.5 -37t37.5 -95q0 -55 -38 -93.5t-96 -38.5q-57 0 -94.5 38.5t-37.5 93.5q0 58 37 95t95 37z" />
    <glyph glyph-name="cedilla" unicode="&#xb8;" horiz-adv-x="1399" 
d="M433 -221q66 -33 125 -33q71 0 102 42q25 34 -2 61q-23 24 -76 24l-143 -6l155 288h220l-69 -125q139 -54 125 -218q11 -120 -68.5 -183.5t-200.5 -63.5q-38 0 -54 0.5t-50 7.5t-64 21v185z" />
    <glyph glyph-name="guillemotright" unicode="&#xbb;" horiz-adv-x="1226" 
d="M385 148h-260l318 369l-318 370h260l317 -370zM785 148h-261l318 369l-318 370h261l316 -370z" />
    <glyph glyph-name="questiondown" unicode="&#xbf;" horiz-adv-x="1109" 
d="M567 935q-53 0 -91 37t-38 89q0 54 38 90t91 36q55 0 91.5 -35.5t36.5 -90.5q0 -52 -37 -89t-91 -37zM535 -321q-207 0 -321.5 111t-114.5 284q0 207 202 395q101 94 132 169.5t33 221.5h207q-4 -193 -44.5 -294t-168.5 -226q-74 -75 -108 -137t-34 -129q0 -91 59.5 -143
t159.5 -52q112 0 180 85.5t79 233.5h212q-11 -232 -140.5 -375.5t-332.5 -143.5z" />
    <glyph glyph-name="Agrave" unicode="&#xc0;" horiz-adv-x="1600" 
d="M799 1014l-213 -513h424zM99 0l588 1425h221l592 -1425h-283l-113 273h-613l-113 -273h-279zM1029 1661h-209l-233 339h250z" />
    <glyph glyph-name="Aacute" unicode="&#xc1;" horiz-adv-x="1600" 
d="M799 1014l-213 -513h424zM99 0l588 1425h221l592 -1425h-283l-113 273h-613l-113 -273h-279zM796 1655h-209l192 339h251z" />
    <glyph glyph-name="Acircumflex" unicode="&#xc2;" horiz-adv-x="1600" 
d="M799 1014l-213 -513h424zM99 0l588 1425h221l592 -1425h-283l-113 273h-613l-113 -273h-279zM857 1632l-48 86l-50 -86h-229l211 339h138l208 -339h-230z" />
    <glyph glyph-name="Atilde" unicode="&#xc3;" horiz-adv-x="1600" 
d="M799 1014l-213 -513h424zM99 0l588 1425h221l592 -1425h-283l-113 273h-613l-113 -273h-279zM674 1919q48 0 130 -27l41 -13q-16 10 -16 33h187q0 -228 -146 -228q-46 0 -131 27l-41 13q16 -8 16 -32h-185q0 227 145 227z" />
    <glyph glyph-name="Adieresis" unicode="&#xc4;" horiz-adv-x="1600" 
d="M799 1014l-213 -513h424zM99 0l588 1425h221l592 -1425h-283l-113 273h-613l-113 -273h-279zM649 1906q48 0 83.5 -35t35.5 -84q0 -48 -35.5 -83t-83.5 -35q-50 0 -85.5 35t-35.5 83q0 49 35.5 84t85.5 35zM969 1905q50 0 85.5 -35t35.5 -84q0 -48 -35.5 -82.5
t-85.5 -34.5q-48 0 -83.5 35t-35.5 82q0 49 35.5 84t83.5 35z" />
    <glyph glyph-name="Aring" unicode="&#xc5;" horiz-adv-x="1600" 
d="M799 1014l-213 -513h424zM783 1832q0 21 -13.5 33.5t-31.5 12.5q-17 0 -29.5 -12t-12.5 -34q0 -20 12.5 -31.5t29.5 -11.5q18 0 31.5 11.5t13.5 31.5zM99 0l588 1425h221l592 -1425h-283l-113 273h-613l-113 -273h-279zM741 2024q86 0 142.5 -52.5t56.5 -138.5
t-57 -139.5t-142 -53.5q-86 0 -143.5 53.5t-57.5 139.5t57 138.5t144 52.5z" />
    <glyph glyph-name="AE" unicode="&#xc6;" horiz-adv-x="2178" 
d="M944 1215l-74 1l-274 -715h348v714zM2068 0h-1124v273h-443l-113 -273h-279l588 1425h1349v-224h-832v-368h682v-225h-682v-385h854v-223z" />
    <glyph glyph-name="Ccedilla" unicode="&#xc7;" horiz-adv-x="1679" 
d="M739 -26q-306 28 -474 224t-168 511q0 342 194.5 540.5t545.5 198.5q310 0 500.5 -156t231.5 -432h-269q-65 365 -463 365q-246 0 -359.5 -136.5t-113.5 -379.5q0 -117 26.5 -210t82 -162.5t147.5 -107t217 -37.5q203 0 317.5 98.5t145.5 274.5h270q-36 -249 -193 -403
t-415 -185l-45 -82q126 -49 126 -189q0 -107 -78 -163.5t-192 -56.5q-77 0 -168 44v207q128 -64 171 -64q68 0 68 33q0 30 -31 48.5t-69.5 23t-74 6.5t-44.5 -1zM623 -218q1 0 2 1v-1h-2z" />
    <glyph glyph-name="Egrave" unicode="&#xc8;" horiz-adv-x="1381" 
d="M140 1425h1099v-224h-829v-368h682v-225h-682v-385h851v-223h-1121v1425zM749 1661l-233 339h250l192 -339h-209z" />
    <glyph glyph-name="Eacute" unicode="&#xc9;" horiz-adv-x="1381" 
d="M140 1425h1099v-224h-829v-368h682v-225h-682v-385h851v-223h-1121v1425zM516 1655l192 339h251l-234 -339h-209z" />
    <glyph glyph-name="Ecircumflex" unicode="&#xca;" horiz-adv-x="1381" 
d="M140 1425h1099v-224h-829v-368h682v-225h-682v-385h851v-223h-1121v1425zM738 1718l-50 -86h-229l211 339h138l208 -339h-230z" />
    <glyph glyph-name="Edieresis" unicode="&#xcb;" horiz-adv-x="1381" 
d="M140 1425h1099v-224h-829v-368h682v-225h-682v-385h851v-223h-1121v1425zM578 1906q48 0 83.5 -35t35.5 -84q0 -48 -35.5 -83t-83.5 -35q-50 0 -85.5 35t-35.5 83q0 49 35.5 84t85.5 35zM898 1905q50 0 85.5 -35t35.5 -84q0 -48 -35.5 -82.5t-85.5 -34.5q-48 0 -83.5 35
t-35.5 82q0 49 35.5 84t83.5 35z" />
    <glyph glyph-name="Igrave" unicode="&#xcc;" horiz-adv-x="644" 
d="M123 1419h266v-1419h-266v1419zM275 1661l-233 339h250l192 -339h-209z" />
    <glyph glyph-name="Iacute" unicode="&#xcd;" horiz-adv-x="645" 
d="M222 1419h266v-1419h-266v1419zM141 1655l192 339h251l-234 -339h-209z" />
    <glyph glyph-name="Icircumflex" unicode="&#xce;" horiz-adv-x="630" 
d="M173 1419h266v-1419h-266v1419zM314 1718l-50 -86h-229l211 339h138l208 -339h-230z" />
    <glyph glyph-name="Idieresis" unicode="&#xcf;" horiz-adv-x="662" 
d="M189 1419h266v-1419h-266v1419zM170 1906q48 0 83.5 -35t35.5 -84q0 -48 -35.5 -83t-83.5 -35q-50 0 -85.5 35t-35.5 83q0 49 35.5 84t85.5 35zM490 1905q50 0 85.5 -35t35.5 -84q0 -48 -35.5 -82.5t-85.5 -34.5q-48 0 -83.5 35t-35.5 82q0 49 35.5 84t83.5 35z" />
    <glyph glyph-name="Ntilde" unicode="&#xd1;" horiz-adv-x="1448" 
d="M140 1425h227l678 -944v944h262v-1425h-222l-681 947v-947h-264v1425zM645 1919q48 0 130 -27l41 -13q-16 10 -16 33h187q0 -228 -146 -228q-45 0 -131 27l-41 13q16 -8 16 -32h-185q0 227 145 227z" />
    <glyph glyph-name="Ograve" unicode="&#xd2;" horiz-adv-x="1682" 
d="M99 709q0 342 194.5 540.5t545.5 198.5q352 0 547.5 -198.5t195.5 -540.5q0 -341 -196 -540t-547 -199q-350 0 -545 199.5t-195 539.5zM366 709q0 -117 26.5 -210t82 -162.5t147.5 -107t217 -37.5q123 0 215.5 38t148.5 108t83.5 162.5t27.5 208.5q0 118 -26.5 210.5
t-82 162t-148 106.5t-218.5 37q-246 0 -359.5 -136.5t-113.5 -379.5zM765 1661l-233 339h250l192 -339h-209z" />
    <glyph glyph-name="Oacute" unicode="&#xd3;" horiz-adv-x="1682" 
d="M99 709q0 342 194.5 540.5t545.5 198.5q352 0 547.5 -198.5t195.5 -540.5q0 -341 -196 -540t-547 -199q-350 0 -545 199.5t-195 539.5zM366 709q0 -117 26.5 -210t82 -162.5t147.5 -107t217 -37.5q123 0 215.5 38t148.5 108t83.5 162.5t27.5 208.5q0 118 -26.5 210.5
t-82 162t-148 106.5t-218.5 37q-246 0 -359.5 -136.5t-113.5 -379.5zM705 1655l192 339h251l-234 -339h-209z" />
    <glyph glyph-name="Ocircumflex" unicode="&#xd4;" horiz-adv-x="1682" 
d="M366 709q0 -117 26.5 -210t82 -162.5t147.5 -107t217 -37.5q123 0 215.5 38t148.5 108t83.5 162.5t27.5 208.5q0 118 -26.5 210.5t-82 162t-148 106.5t-218.5 37q-246 0 -359.5 -136.5t-113.5 -379.5zM99 709q0 342 194.5 540.5t545.5 198.5q352 0 547.5 -198.5
t195.5 -540.5q0 -341 -196 -540t-547 -199q-350 0 -545 199.5t-195 539.5zM883 1632l-48 86l-50 -86h-229l211 339h138l208 -339h-230z" />
    <glyph glyph-name="Otilde" unicode="&#xd5;" horiz-adv-x="1682" 
d="M366 709q0 -117 26.5 -210t82 -162.5t147.5 -107t217 -37.5q123 0 215.5 38t148.5 108t83.5 162.5t27.5 208.5q0 118 -26.5 210.5t-82 162t-148 106.5t-218.5 37q-246 0 -359.5 -136.5t-113.5 -379.5zM99 709q0 342 194.5 540.5t545.5 198.5q352 0 547.5 -198.5
t195.5 -540.5q0 -341 -196 -540t-547 -199q-350 0 -545 199.5t-195 539.5zM784 1919q48 0 130 -27l41 -13q-16 10 -16 33h187q0 -228 -146 -228q-45 0 -131 27l-41 13q16 -8 16 -32h-185q0 227 145 227z" />
    <glyph glyph-name="Odieresis" unicode="&#xd6;" horiz-adv-x="1682" 
d="M99 709q0 342 194.5 540.5t545.5 198.5q352 0 547.5 -198.5t195.5 -540.5q0 -341 -196 -540t-547 -199q-350 0 -545 199.5t-195 539.5zM366 709q0 -117 26.5 -210t82 -162.5t147.5 -107t217 -37.5q123 0 215.5 38t148.5 108t83.5 162.5t27.5 208.5q0 118 -26.5 210.5
t-82 162t-148 106.5t-218.5 37q-246 0 -359.5 -136.5t-113.5 -379.5zM662 1906q48 0 83.5 -35t35.5 -84q0 -48 -35.5 -83t-83.5 -35q-50 0 -85.5 35t-35.5 83q0 49 35.5 84t85.5 35zM982 1905q50 0 85.5 -35t35.5 -84q0 -48 -35.5 -82.5t-85.5 -34.5q-48 0 -83.5 35
t-35.5 82q0 49 35.5 84t83.5 35z" />
    <glyph glyph-name="multiply" unicode="&#xd7;" horiz-adv-x="1037" 
d="M937 369l-143 -137l-275 267l-278 -267l-142 137l278 267l-278 265l142 137l278 -265l275 265l143 -137l-276 -265z" />
    <glyph glyph-name="Oslash" unicode="&#xd8;" horiz-adv-x="1755" 
d="M638 258q110 -66 274 -66q123 0 215.5 38t148.5 108t83.5 162.5t27.5 208.5q0 204 -76 327zM439 709q0 -155 45 -264l644 744q-94 36 -216 36q-246 0 -359.5 -136.5t-113.5 -379.5zM172 709q0 342 194.5 540.5t545.5 198.5q211 0 374 -76l46 53h315l-169 -195
q177 -195 177 -521q0 -341 -196 -540t-547 -199q-253 0 -430 108l-67 -78h-316l208 240q-135 187 -135 469z" />
    <glyph glyph-name="Ugrave" unicode="&#xd9;" horiz-adv-x="1563" 
d="M780 -30q-155 0 -277 48t-201 135t-120.5 205.5t-41.5 261.5v805h266v-805q0 -70 11 -130t38 -116t69 -95.5t107.5 -63t148.5 -23.5q88 0 155 22.5t109 60.5t68 94t36 116.5t10 134.5v805h263v-805q0 -92 -16 -176t-60 -173t-113 -153.5t-185.5 -106t-266.5 -41.5z
M688 1661l-233 339h250l192 -339h-209z" />
    <glyph glyph-name="Uacute" unicode="&#xda;" horiz-adv-x="1563" 
d="M780 -30q-155 0 -277 48t-201 135t-120.5 205.5t-41.5 261.5v805h266v-805q0 -70 11 -130t38 -116t69 -95.5t107.5 -63t148.5 -23.5q88 0 155 22.5t109 60.5t68 94t36 116.5t10 134.5v805h263v-805q0 -92 -16 -176t-60 -173t-113 -153.5t-185.5 -106t-266.5 -41.5z
M672 1655l192 339h251l-234 -339h-209z" />
    <glyph glyph-name="Ucircumflex" unicode="&#xdb;" horiz-adv-x="1563" 
d="M780 -30q-155 0 -277 48t-201 135t-120.5 205.5t-41.5 261.5v805h266v-805q0 -70 11 -130t38 -116t69 -95.5t107.5 -63t148.5 -23.5q88 0 155 22.5t109 60.5t68 94t36 116.5t10 134.5v805h263v-805q0 -92 -16 -176t-60 -173t-113 -153.5t-185.5 -106t-266.5 -41.5z
M781 1718l-50 -86h-229l211 339h138l208 -339h-230z" />
    <glyph glyph-name="Udieresis" unicode="&#xdc;" horiz-adv-x="1563" 
d="M780 -30q-155 0 -277 48t-201 135t-120.5 205.5t-41.5 261.5v805h266v-805q0 -70 11 -130t38 -116t69 -95.5t107.5 -63t148.5 -23.5q88 0 155 22.5t109 60.5t68 94t36 116.5t10 134.5v805h263v-805q0 -92 -16 -176t-60 -173t-113 -153.5t-185.5 -106t-266.5 -41.5z
M602 1906q48 0 83.5 -35t35.5 -84q0 -48 -35.5 -83t-83.5 -35q-50 0 -85.5 35t-35.5 83q0 49 35.5 84t85.5 35zM922 1905q50 0 85.5 -35t35.5 -84q0 -48 -35.5 -82.5t-85.5 -34.5q-48 0 -83.5 35t-35.5 82q0 49 35.5 84t83.5 35z" />
    <glyph glyph-name="Yacute" unicode="&#xdd;" horiz-adv-x="1461" 
d="M595 538l-517 887h293l362 -610l356 610h293l-518 -887v-538h-269v538zM515 1655l192 339h251l-234 -339h-209z" />
    <glyph glyph-name="germandbls" unicode="&#xdf;" horiz-adv-x="1268" 
d="M362 -456h-260l1 1479q22 219 171.5 347t369.5 128q228 0 360.5 -123t132.5 -313q0 -98 -42 -184t-117 -147q187 -121 187 -361q0 -220 -161 -354t-404 -134l-2 246q138 0 218.5 62.5t80.5 177.5q0 214 -320 214h-125v246h125q117 0 205 63t88 163q0 99 -61.5 148.5
t-170.5 49.5q-117 0 -189.5 -62.5t-86.5 -180.5v-1465z" />
    <glyph glyph-name="agrave" unicode="&#xe0;" horiz-adv-x="1127" 
d="M356 307q0 -62 35 -85.5t119 -23.5q115 0 181 59.5t66 175.5v37q-45 0 -85.5 -2t-102 -11.5t-105.5 -25.5t-76 -48.5t-32 -75.5zM78 303q0 66 25 120t65 89.5t99 61.5t116.5 40.5t130 23t126.5 10.5t117 2q1 96 -40.5 152t-132.5 56q-83 0 -141 -41.5t-58 -119.5h-271
q0 125 67 216t171.5 134.5t231.5 43.5q203 0 323 -105t120 -299v-686h-219l-26 99q-126 -122 -314 -122q-108 0 -194.5 34.5t-141 109.5t-54.5 181zM847 1273h-209l-233 339h250z" />
    <glyph glyph-name="aacute" unicode="&#xe1;" horiz-adv-x="1127" 
d="M356 307q0 -62 35 -85.5t119 -23.5q115 0 181 59.5t66 175.5v37q-45 0 -85.5 -2t-102 -11.5t-105.5 -25.5t-76 -48.5t-32 -75.5zM78 303q0 66 25 120t65 89.5t99 61.5t116.5 40.5t130 23t126.5 10.5t117 2q1 96 -40.5 152t-132.5 56q-83 0 -141 -41.5t-58 -119.5h-271
q0 125 67 216t171.5 134.5t231.5 43.5q203 0 323 -105t120 -299v-686h-219l-26 99q-126 -122 -314 -122q-108 0 -194.5 34.5t-141 109.5t-54.5 181zM614 1267h-209l192 339h251z" />
    <glyph glyph-name="acircumflex" unicode="&#xe2;" horiz-adv-x="1127" 
d="M356 307q0 -62 35 -85.5t119 -23.5q115 0 181 59.5t66 175.5v37q-45 0 -85.5 -2t-102 -11.5t-105.5 -25.5t-76 -48.5t-32 -75.5zM78 303q0 66 25 120t65 89.5t99 61.5t116.5 40.5t130 23t126.5 10.5t117 2q1 96 -40.5 152t-132.5 56q-83 0 -141 -41.5t-58 -119.5h-271
q0 125 67 216t171.5 134.5t231.5 43.5q203 0 323 -105t120 -299v-686h-219l-26 99q-126 -122 -314 -122q-108 0 -194.5 34.5t-141 109.5t-54.5 181zM675 1244l-48 86l-50 -86h-229l211 339h138l208 -339h-230z" />
    <glyph glyph-name="atilde" unicode="&#xe3;" horiz-adv-x="1127" 
d="M356 307q0 -62 35 -85.5t119 -23.5q115 0 181 59.5t66 175.5v37q-45 0 -85.5 -2t-102 -11.5t-105.5 -25.5t-76 -48.5t-32 -75.5zM78 303q0 66 25 120t65 89.5t99 61.5t116.5 40.5t130 23t126.5 10.5t117 2q1 96 -40.5 152t-132.5 56q-83 0 -141 -41.5t-58 -119.5h-271
q0 125 67 216t171.5 134.5t231.5 43.5q203 0 323 -105t120 -299v-686h-219l-26 99q-126 -122 -314 -122q-108 0 -194.5 34.5t-141 109.5t-54.5 181zM492 1531q48 0 130 -27l41 -13q-16 10 -16 33h187q0 -228 -146 -228q-46 0 -131 27l-41 13q16 -8 16 -32h-185
q0 227 145 227z" />
    <glyph glyph-name="adieresis" unicode="&#xe4;" horiz-adv-x="1127" 
d="M356 307q0 -62 35 -85.5t119 -23.5q115 0 181 59.5t66 175.5v37q-45 0 -85.5 -2t-102 -11.5t-105.5 -25.5t-76 -48.5t-32 -75.5zM78 303q0 66 25 120t65 89.5t99 61.5t116.5 40.5t130 23t126.5 10.5t117 2q1 96 -40.5 152t-132.5 56q-83 0 -141 -41.5t-58 -119.5h-271
q0 125 67 216t171.5 134.5t231.5 43.5q203 0 323 -105t120 -299v-686h-219l-26 99q-126 -122 -314 -122q-108 0 -194.5 34.5t-141 109.5t-54.5 181zM467 1518q48 0 83.5 -35t35.5 -84q0 -48 -35.5 -83t-83.5 -35q-50 0 -85.5 35t-35.5 83q0 49 35.5 84t85.5 35zM787 1517
q50 0 85.5 -35t35.5 -84q0 -48 -35.5 -82.5t-85.5 -34.5q-48 0 -83.5 35t-35.5 82q0 49 35.5 84t83.5 35z" />
    <glyph glyph-name="aring" unicode="&#xe5;" horiz-adv-x="1127" 
d="M356 307q0 -62 35 -85.5t119 -23.5q115 0 181 59.5t66 175.5v37q-45 0 -85.5 -2t-102 -11.5t-105.5 -25.5t-76 -48.5t-32 -75.5zM601 1444q0 21 -13.5 33.5t-31.5 12.5q-17 0 -29.5 -12t-12.5 -34q0 -20 12.5 -31.5t29.5 -11.5q18 0 31.5 11.5t13.5 31.5zM78 303
q0 66 25 120t65 89.5t99 61.5t116.5 40.5t130 23t126.5 10.5t117 2q1 96 -40.5 152t-132.5 56q-83 0 -141 -41.5t-58 -119.5h-271q0 125 67 216t171.5 134.5t231.5 43.5q203 0 323 -105t120 -299v-686h-219l-26 99q-126 -122 -314 -122q-108 0 -194.5 34.5t-141 109.5
t-54.5 181zM559 1636q86 0 142.5 -52.5t56.5 -138.5t-57 -139.5t-142 -53.5q-86 0 -143.5 53.5t-57.5 139.5t57 138.5t144 52.5z" />
    <glyph glyph-name="ae" unicode="&#xe6;" horiz-adv-x="1925" 
d="M356 307q0 -62 35 -85.5t119 -23.5q115 0 181 59.5t66 175.5v37q-45 0 -85.5 -2t-102 -11.5t-105.5 -25.5t-76 -48.5t-32 -75.5zM1557 672q-51 190 -255 190q-103 0 -166.5 -51.5t-89.5 -138.5h511zM78 303q0 66 25 120t65 89.5t99 61.5t116.5 40.5t130 23t126.5 10.5
t117 2q1 96 -40.5 152t-132.5 56q-83 0 -141 -41.5t-58 -119.5h-271q0 125 67 216t171.5 134.5t231.5 43.5q226 0 344 -126q143 126 374 126q257 0 403 -151.5t142 -404.5l-1 -64h-814q13 -118 79 -190t191 -72q192 0 249 170h280q-40 -187 -177 -293.5t-352 -106.5
q-157 0 -275 60v-38h-219l-26 99q-126 -122 -314 -122q-108 0 -194.5 34.5t-141 109.5t-54.5 181z" />
    <glyph glyph-name="ccedilla" unicode="&#xe7;" horiz-adv-x="1241" 
d="M544 -17q-220 23 -343 167.5t-123 371.5q0 252 145 410.5t399 158.5q221 0 361 -123t173 -326h-275q-46 203 -259 203q-142 0 -206.5 -89.5t-64.5 -233.5q0 -68 14.5 -123.5t45 -100.5t84.5 -70t127 -25q232 0 267 240h273q-19 -178 -120 -295.5t-272 -153.5l-68 -124
q126 -49 126 -189q0 -107 -78 -163.5t-192 -56.5q-77 0 -168 44v207q128 -64 171 -64q68 0 68 33q0 30 -31 48.5t-69.5 23t-74 6.5t-44.5 -1zM408 -243q1 0 2 1v-1h-2z" />
    <glyph glyph-name="egrave" unicode="&#xe8;" horiz-adv-x="1246" 
d="M878 672q-51 190 -255 190q-103 0 -166.5 -51.5t-89.5 -138.5h511zM78 535q0 254 144.5 405t400.5 151q257 0 403 -151.5t142 -404.5l-1 -64h-814q13 -118 79 -190t191 -72q192 0 249 170h280q-40 -187 -177 -293.5t-352 -106.5q-256 0 -400.5 151t-144.5 405zM893 1263
h-209l-233 339h250z" />
    <glyph glyph-name="eacute" unicode="&#xe9;" horiz-adv-x="1246" 
d="M878 672q-51 190 -255 190q-103 0 -166.5 -51.5t-89.5 -138.5h511zM78 535q0 254 144.5 405t400.5 151q257 0 403 -151.5t142 -404.5l-1 -64h-814q13 -118 79 -190t191 -72q192 0 249 170h280q-40 -187 -177 -293.5t-352 -106.5q-256 0 -400.5 151t-144.5 405zM660 1257
h-209l192 339h251z" />
    <glyph glyph-name="ecircumflex" unicode="&#xea;" horiz-adv-x="1246" 
d="M878 672q-51 190 -255 190q-103 0 -166.5 -51.5t-89.5 -138.5h511zM78 535q0 254 144.5 405t400.5 151q257 0 403 -151.5t142 -404.5l-1 -64h-814q13 -118 79 -190t191 -72q192 0 249 170h280q-40 -187 -177 -293.5t-352 -106.5q-256 0 -400.5 151t-144.5 405zM721 1234
l-48 86l-50 -86h-229l211 339h138l208 -339h-230z" />
    <glyph glyph-name="edieresis" unicode="&#xeb;" horiz-adv-x="1246" 
d="M878 672q-51 190 -255 190q-103 0 -166.5 -51.5t-89.5 -138.5h511zM78 535q0 254 144.5 405t400.5 151q257 0 403 -151.5t142 -404.5l-1 -64h-814q13 -118 79 -190t191 -72q192 0 249 170h280q-40 -187 -177 -293.5t-352 -106.5q-256 0 -400.5 151t-144.5 405zM513 1508
q48 0 83.5 -35t35.5 -84q0 -48 -35.5 -83t-83.5 -35q-50 0 -85.5 35t-35.5 83q0 49 35.5 84t85.5 35zM833 1507q50 0 85.5 -35t35.5 -84q0 -48 -35.5 -82.5t-85.5 -34.5q-48 0 -83.5 35t-35.5 82q0 49 35.5 84t83.5 35z" />
    <glyph glyph-name="igrave" unicode="&#xec;" horiz-adv-x="656" 
d="M128 1018h268v-1018h-268v1018zM282 1263l-233 339h250l192 -339h-209z" />
    <glyph glyph-name="iacute" unicode="&#xed;" horiz-adv-x="657" 
d="M227 1018h268v-1018h-268v1018zM148 1257l192 339h251l-234 -339h-209z" />
    <glyph glyph-name="icircumflex" unicode="&#xee;" horiz-adv-x="642" 
d="M178 1018h268v-1018h-268v1018zM321 1320l-50 -86h-229l211 339h138l208 -339h-230z" />
    <glyph glyph-name="idieresis" unicode="&#xef;" horiz-adv-x="674" 
d="M194 1018h268v-1018h-268v1018zM177 1508q48 0 83.5 -35t35.5 -84q0 -48 -35.5 -83t-83.5 -35q-50 0 -85.5 35t-35.5 83q0 49 35.5 84t85.5 35zM497 1507q50 0 85.5 -35t35.5 -84q0 -48 -35.5 -82.5t-85.5 -34.5q-48 0 -83.5 35t-35.5 82q0 49 35.5 84t83.5 35z" />
    <glyph glyph-name="ntilde" unicode="&#xf1;" horiz-adv-x="1265" 
d="M140 1070h208l30 -152q52 79 150.5 126t203.5 47q119 0 205.5 -42.5t134.5 -117.5t70.5 -165.5t22.5 -199.5v-566h-267v535q0 44 -2.5 76t-9 70.5t-21.5 65.5t-38 50.5t-59 35.5t-84 12q-72 0 -126.5 -28.5t-86.5 -77t-47.5 -107t-15.5 -124.5v-508h-268v1070zM563 1521
q48 0 130 -27l41 -13q-16 10 -16 33h187q0 -228 -146 -228q-45 0 -131 27l-41 13q16 -8 16 -32h-185q0 227 145 227z" />
    <glyph glyph-name="ograve" unicode="&#xf2;" horiz-adv-x="1245" 
d="M78 535q0 254 144.5 405t400.5 151q257 0 400.5 -151t143.5 -405t-143.5 -405t-400.5 -151q-256 0 -400.5 151t-144.5 405zM894 535q0 71 -14 127.5t-44.5 102.5t-84.5 71.5t-128 25.5q-73 0 -127 -25.5t-85 -71.5t-45.5 -103t-14.5 -127q0 -69 14.5 -126t45.5 -103
t85 -71.5t127 -25.5q74 0 128 25t84.5 71t44.5 103t14 127zM694 1263l-233 339h250l192 -339h-209z" />
    <glyph glyph-name="oacute" unicode="&#xf3;" horiz-adv-x="1245" 
d="M78 535q0 254 144.5 405t400.5 151q257 0 400.5 -151t143.5 -405t-143.5 -405t-400.5 -151q-256 0 -400.5 151t-144.5 405zM894 535q0 71 -14 127.5t-44.5 102.5t-84.5 71.5t-128 25.5q-73 0 -127 -25.5t-85 -71.5t-45.5 -103t-14.5 -127q0 -69 14.5 -126t45.5 -103
t85 -71.5t127 -25.5q74 0 128 25t84.5 71t44.5 103t14 127zM461 1257l192 339h251l-234 -339h-209z" />
    <glyph glyph-name="ocircumflex" unicode="&#xf4;" horiz-adv-x="1245" 
d="M894 535q0 71 -14 127.5t-44.5 102.5t-84.5 71.5t-128 25.5q-73 0 -127 -25.5t-85 -71.5t-45.5 -103t-14.5 -127q0 -69 14.5 -126t45.5 -103t85 -71.5t127 -25.5q74 0 128 25t84.5 71t44.5 103t14 127zM78 535q0 254 144.5 405t400.5 151q257 0 400.5 -151t143.5 -405
t-143.5 -405t-400.5 -151q-256 0 -400.5 151t-144.5 405zM731 1234l-48 86l-50 -86h-229l211 339h138l208 -339h-230z" />
    <glyph glyph-name="otilde" unicode="&#xf5;" horiz-adv-x="1245" 
d="M894 535q0 71 -14 127.5t-44.5 102.5t-84.5 71.5t-128 25.5q-73 0 -127 -25.5t-85 -71.5t-45.5 -103t-14.5 -127q0 -69 14.5 -126t45.5 -103t85 -71.5t127 -25.5q74 0 128 25t84.5 71t44.5 103t14 127zM78 535q0 254 144.5 405t400.5 151q257 0 400.5 -151t143.5 -405
t-143.5 -405t-400.5 -151q-256 0 -400.5 151t-144.5 405zM548 1521q48 0 130 -27l41 -13q-16 10 -16 33h187q0 -228 -146 -228q-46 0 -131 27l-41 13q16 -8 16 -32h-185q0 227 145 227z" />
    <glyph glyph-name="odieresis" unicode="&#xf6;" horiz-adv-x="1245" 
d="M78 535q0 254 144.5 405t400.5 151q257 0 400.5 -151t143.5 -405t-143.5 -405t-400.5 -151q-256 0 -400.5 151t-144.5 405zM894 535q0 71 -14 127.5t-44.5 102.5t-84.5 71.5t-128 25.5q-73 0 -127 -25.5t-85 -71.5t-45.5 -103t-14.5 -127q0 -69 14.5 -126t45.5 -103
t85 -71.5t127 -25.5q74 0 128 25t84.5 71t44.5 103t14 127zM523 1508q48 0 83.5 -35t35.5 -84q0 -48 -35.5 -83t-83.5 -35q-50 0 -85.5 35t-35.5 83q0 49 35.5 84t85.5 35zM843 1507q50 0 85.5 -35t35.5 -84q0 -48 -35.5 -82.5t-85.5 -34.5q-48 0 -83.5 35t-35.5 82
q0 49 35.5 84t83.5 35z" />
    <glyph glyph-name="divide" unicode="&#xf7;" horiz-adv-x="1097" 
d="M549 1055q58 0 95.5 -37t37.5 -95q0 -56 -37.5 -93t-95.5 -37q-56 0 -95 37t-39 93q0 58 39 95t95 37zM99 546v195h899v-195h-899zM549 490q58 0 95.5 -37t37.5 -93q0 -55 -38 -93t-95 -38q-56 0 -95 38t-39 93q0 56 39 93t95 37z" />
    <glyph glyph-name="oslash" unicode="&#xf8;" horiz-adv-x="1423" 
d="M958 535q0 60 -11 118l-363 -428q48 -16 103 -16q74 0 128 25t84.5 71t44.5 103t14 127zM415 535q0 -67 13 -122l366 432q-46 17 -107 17q-73 0 -127 -25.5t-85 -71.5t-45.5 -103t-14.5 -127zM142 535q0 254 144.5 405t400.5 151q151 0 269 -56l29 35h315l-162 -192
q93 -139 93 -343q0 -254 -143.5 -405t-400.5 -151q-149 0 -265 54l-28 -33h-316l160 189q-96 140 -96 346z" />
    <glyph glyph-name="ugrave" unicode="&#xf9;" horiz-adv-x="1223" 
d="M1124 0h-218l-30 152q-41 -76 -144.5 -124.5t-199.5 -48.5q-119 0 -205.5 42.5t-134.5 117.5t-70.5 166t-22.5 200v565h267v-534q0 -53 3 -91t15.5 -82.5t34.5 -72t63 -46.5t98 -19q72 0 126.5 28.5t86.5 77t47.5 107t15.5 124.5v508h268v-1070zM596 1263l-233 339h250
l192 -339h-209z" />
    <glyph glyph-name="uacute" unicode="&#xfa;" horiz-adv-x="1223" 
d="M1124 0h-218l-30 152q-41 -76 -144.5 -124.5t-199.5 -48.5q-119 0 -205.5 42.5t-134.5 117.5t-70.5 166t-22.5 200v565h267v-534q0 -53 3 -91t15.5 -82.5t34.5 -72t63 -46.5t98 -19q72 0 126.5 28.5t86.5 77t47.5 107t15.5 124.5v508h268v-1070zM446 1257l192 339h251
l-234 -339h-209z" />
    <glyph glyph-name="ucircumflex" unicode="&#xfb;" horiz-adv-x="1223" 
d="M1124 0h-218l-30 152q-41 -76 -144.5 -124.5t-199.5 -48.5q-119 0 -205.5 42.5t-134.5 117.5t-70.5 166t-22.5 200v565h267v-534q0 -53 3 -91t15.5 -82.5t34.5 -72t63 -46.5t98 -19q72 0 126.5 28.5t86.5 77t47.5 107t15.5 124.5v508h268v-1070zM625 1320l-50 -86h-229
l211 339h138l208 -339h-230z" />
    <glyph glyph-name="udieresis" unicode="&#xfc;" horiz-adv-x="1223" 
d="M1124 0h-218l-30 152q-41 -76 -144.5 -124.5t-199.5 -48.5q-119 0 -205.5 42.5t-134.5 117.5t-70.5 166t-22.5 200v565h267v-534q0 -53 3 -91t15.5 -82.5t34.5 -72t63 -46.5t98 -19q72 0 126.5 28.5t86.5 77t47.5 107t15.5 124.5v508h268v-1070zM456 1508q48 0 83.5 -35
t35.5 -84q0 -48 -35.5 -83t-83.5 -35q-50 0 -85.5 35t-35.5 83q0 49 35.5 84t85.5 35zM776 1507q50 0 85.5 -35t35.5 -84q0 -48 -35.5 -82.5t-85.5 -34.5q-48 0 -83.5 35t-35.5 82q0 49 35.5 84t83.5 35z" />
    <glyph glyph-name="yacute" unicode="&#xfd;" horiz-adv-x="1371" 
d="M283 -539l261 591l-466 1018h298l312 -698l308 698h297l-734 -1609h-276zM467 1257l192 339h251l-234 -339h-209z" />
    <glyph glyph-name="ydieresis" unicode="&#xff;" horiz-adv-x="1371" 
d="M283 -539l261 591l-466 1018h298l312 -698l308 698h297l-734 -1609h-276zM529 1508q48 0 83.5 -35t35.5 -84q0 -48 -35.5 -83t-83.5 -35q-50 0 -85.5 35t-35.5 83q0 49 35.5 84t85.5 35zM849 1507q50 0 85.5 -35t35.5 -84q0 -48 -35.5 -82.5t-85.5 -34.5q-48 0 -83.5 35
t-35.5 82q0 49 35.5 84t83.5 35z" />
    <glyph glyph-name="Amacron" unicode="&#x100;" horiz-adv-x="1600" 
d="M799 1014l-213 -513h424zM99 0l588 1425h221l592 -1425h-283l-113 273h-613l-113 -273h-279zM967 1728h-450v193h450v-193z" />
    <glyph glyph-name="amacron" unicode="&#x101;" horiz-adv-x="1127" 
d="M356 307q0 -62 35 -85.5t119 -23.5q115 0 181 59.5t66 175.5v37q-45 0 -85.5 -2t-102 -11.5t-105.5 -25.5t-76 -48.5t-32 -75.5zM78 303q0 66 25 120t65 89.5t99 61.5t116.5 40.5t130 23t126.5 10.5t117 2q1 96 -40.5 152t-132.5 56q-83 0 -141 -41.5t-58 -119.5h-271
q0 125 67 216t171.5 134.5t231.5 43.5q203 0 323 -105t120 -299v-686h-219l-26 99q-126 -122 -314 -122q-108 0 -194.5 34.5t-141 109.5t-54.5 181zM785 1340h-450v193h450v-193z" />
    <glyph glyph-name="Abreve" unicode="&#x102;" horiz-adv-x="1600" 
d="M799 1014l-213 -513h424zM99 0l588 1425h221l592 -1425h-283l-113 273h-613l-113 -273h-279zM987 1982q0 -171 -61 -265t-184 -94t-185 94t-62 265h190q3 -164 57 -164q52 0 55 164h190z" />
    <glyph glyph-name="abreve" unicode="&#x103;" horiz-adv-x="1127" 
d="M356 307q0 -62 35 -85.5t119 -23.5q115 0 181 59.5t66 175.5v37q-45 0 -85.5 -2t-102 -11.5t-105.5 -25.5t-76 -48.5t-32 -75.5zM78 303q0 66 25 120t65 89.5t99 61.5t116.5 40.5t130 23t126.5 10.5t117 2q1 96 -40.5 152t-132.5 56q-83 0 -141 -41.5t-58 -119.5h-271
q0 125 67 216t171.5 134.5t231.5 43.5q203 0 323 -105t120 -299v-686h-219l-26 99q-126 -122 -314 -122q-108 0 -194.5 34.5t-141 109.5t-54.5 181zM805 1594q0 -171 -61 -265t-184 -94t-185 94t-62 265h190q3 -164 57 -164q52 0 55 164h190z" />
    <glyph glyph-name="Aogonek" unicode="&#x104;" horiz-adv-x="1600" 
d="M799 1014l-213 -513h424zM1104 273h-613l-113 -273h-279l588 1425h221l592 -1425h-5q-154 -37 -253 -104t-99 -132q0 -24 15 -24q32 0 188 140v-245q-106 -86 -209 -86q-91 0 -147.5 47t-56.5 155q0 107 66.5 199t178.5 144z" />
    <glyph glyph-name="aogonek" unicode="&#x105;" horiz-adv-x="1137" 
d="M356 307q0 -62 35 -85.5t119 -23.5q115 0 181 59.5t66 175.5v37q-45 0 -85.5 -2t-102 -11.5t-105.5 -25.5t-76 -48.5t-32 -75.5zM577 -10q-53 -12 -109 -12q-108 0 -194.5 34.5t-141 109.5t-54.5 181q0 66 25 120t65 89.5t99 61.5t116.5 40.5t130 23t126.5 10.5t117 2
q1 96 -40.5 152t-132.5 56q-83 0 -141 -41.5t-58 -119.5h-271q0 125 67 216t171.5 134.5t231.5 43.5q203 0 323 -105t120 -299v-679l10 -4l-10 -3h-1q-148 -37 -242.5 -102t-94.5 -128q0 -24 15 -24q30 0 186 138v-241q-105 -85 -206 -85q-90 0 -146 46t-56 153
q0 127 95 232z" />
    <glyph glyph-name="Cacute" unicode="&#x106;" horiz-adv-x="1679" 
d="M1300 860q-65 365 -463 365q-246 0 -359.5 -136.5t-113.5 -379.5q0 -117 26.5 -210t82 -162.5t147.5 -107t217 -37.5q203 0 317.5 98.5t145.5 274.5h270q-40 -278 -231 -436.5t-502 -158.5q-350 0 -545 199.5t-195 539.5q0 342 194.5 540.5t545.5 198.5q310 0 500.5 -156
t231.5 -432h-269zM673 1655l192 339h251l-234 -339h-209z" />
    <glyph glyph-name="cacute" unicode="&#x107;" horiz-adv-x="1241" 
d="M881 642q-46 203 -259 203q-142 0 -206.5 -89.5t-64.5 -233.5q0 -68 14.5 -123.5t45 -100.5t84.5 -70t127 -25q232 0 267 240h273q-23 -215 -163.5 -339.5t-376.5 -124.5q-254 0 -399 147.5t-145 395.5q0 252 145 410.5t399 158.5q221 0 361 -123t173 -326h-275z
M465 1257l192 339h251l-234 -339h-209z" />
    <glyph glyph-name="Ccircumflex" unicode="&#x108;" horiz-adv-x="1679" 
d="M1300 860q-65 365 -463 365q-246 0 -359.5 -136.5t-113.5 -379.5q0 -117 26.5 -210t82 -162.5t147.5 -107t217 -37.5q203 0 317.5 98.5t145.5 274.5h270q-40 -278 -231 -436.5t-502 -158.5q-350 0 -545 199.5t-195 539.5q0 342 194.5 540.5t545.5 198.5q310 0 500.5 -156
t231.5 -432h-269zM895 1718l-50 -86h-229l211 339h138l208 -339h-230z" />
    <glyph glyph-name="ccircumflex" unicode="&#x109;" horiz-adv-x="1241" 
d="M881 642q-46 203 -259 203q-142 0 -206.5 -89.5t-64.5 -233.5q0 -68 14.5 -123.5t45 -100.5t84.5 -70t127 -25q232 0 267 240h273q-23 -215 -163.5 -339.5t-376.5 -124.5q-254 0 -399 147.5t-145 395.5q0 252 145 410.5t399 158.5q221 0 361 -123t173 -326h-275z
M687 1320l-50 -86h-229l211 339h138l208 -339h-230z" />
    <glyph glyph-name="Cdotaccent" unicode="&#x10a;" horiz-adv-x="1679" 
d="M1300 860q-65 365 -463 365q-246 0 -359.5 -136.5t-113.5 -379.5q0 -117 26.5 -210t82 -162.5t147.5 -107t217 -37.5q203 0 317.5 98.5t145.5 274.5h270q-40 -278 -231 -436.5t-502 -158.5q-350 0 -545 199.5t-195 539.5q0 342 194.5 540.5t545.5 198.5q310 0 500.5 -156
t231.5 -432h-269zM835 1922q51 0 87.5 -36t36.5 -87t-36.5 -87t-87.5 -36q-52 0 -89 36t-37 87t37 87t89 36z" />
    <glyph glyph-name="cdotaccent" unicode="&#x10b;" horiz-adv-x="1241" 
d="M881 642q-46 203 -259 203q-142 0 -206.5 -89.5t-64.5 -233.5q0 -68 14.5 -123.5t45 -100.5t84.5 -70t127 -25q232 0 267 240h273q-23 -215 -163.5 -339.5t-376.5 -124.5q-254 0 -399 147.5t-145 395.5q0 252 145 410.5t399 158.5q221 0 361 -123t173 -326h-275z
M627 1524q51 0 87.5 -36t36.5 -87t-36.5 -87t-87.5 -36q-52 0 -89 36t-37 87t37 87t89 36z" />
    <glyph glyph-name="Ccaron" unicode="&#x10c;" horiz-adv-x="1679" 
d="M1300 860q-65 365 -463 365q-246 0 -359.5 -136.5t-113.5 -379.5q0 -117 26.5 -210t82 -162.5t147.5 -107t217 -37.5q203 0 317.5 98.5t145.5 274.5h270q-40 -278 -231 -436.5t-502 -158.5q-350 0 -545 199.5t-195 539.5q0 342 194.5 540.5t545.5 198.5q310 0 500.5 -156
t231.5 -432h-269zM966 1635h-137l-212 339h231l49 -87l50 87h227z" />
    <glyph glyph-name="ccaron" unicode="&#x10d;" horiz-adv-x="1241" 
d="M881 642q-46 203 -259 203q-142 0 -206.5 -89.5t-64.5 -233.5q0 -68 14.5 -123.5t45 -100.5t84.5 -70t127 -25q232 0 267 240h273q-23 -215 -163.5 -339.5t-376.5 -124.5q-254 0 -399 147.5t-145 395.5q0 252 145 410.5t399 158.5q221 0 361 -123t173 -326h-275z
M758 1237h-137l-212 339h231l49 -87l50 87h227z" />
    <glyph glyph-name="Dcaron" unicode="&#x10e;" horiz-adv-x="1551" 
d="M586 223q85 0 150.5 5t132 18t114.5 36t91 60t69.5 88t41.5 122.5t15 161.5q0 238 -152 363t-462 125h-176v-979h176zM140 0v1425h446q218 0 388.5 -53t278.5 -148.5t163.5 -224.5t55.5 -285q0 -165 -45 -290.5t-122.5 -205t-192.5 -129.5t-242 -69.5t-284 -19.5h-446z
M1035 1974l-208 -339h-137l-212 339h231l49 -87l50 87h227z" />
    <glyph glyph-name="dcaron" unicode="&#x10f;" horiz-adv-x="1260" 
d="M351 549q0 -69 14 -125t44.5 -102t84.5 -71.5t128 -25.5q75 0 132 25.5t90.5 71t50 102.5t16.5 125q0 141 -72 229.5t-217 88.5q-73 0 -127 -25t-84.5 -69.5t-45 -100t-14.5 -123.5zM78 549q0 251 131.5 396.5t383.5 145.5q186 0 318 -135v469h270v-1425h-231l-22 119
q-125 -139 -325 -139q-128 0 -228.5 42.5t-165 119.5t-98 180t-33.5 227zM947 1974l-208 -339h-137l-212 339h231l49 -87l50 87h227z" />
    <glyph glyph-name="Emacron" unicode="&#x112;" horiz-adv-x="1381" 
d="M140 1425h1099v-224h-829v-368h682v-225h-682v-385h851v-223h-1121v1425zM446 1728v193h450v-193h-450z" />
    <glyph glyph-name="emacron" unicode="&#x113;" horiz-adv-x="1246" 
d="M878 672q-51 190 -255 190q-103 0 -166.5 -51.5t-89.5 -138.5h511zM78 535q0 254 144.5 405t400.5 151q257 0 403 -151.5t142 -404.5l-1 -64h-814q13 -118 79 -190t191 -72q192 0 249 170h280q-40 -187 -177 -293.5t-352 -106.5q-256 0 -400.5 151t-144.5 405zM831 1330
h-450v193h450v-193z" />
    <glyph glyph-name="Edotaccent" unicode="&#x116;" horiz-adv-x="1381" 
d="M140 1425h1099v-224h-829v-368h682v-225h-682v-385h851v-223h-1121v1425zM678 1922q51 0 87.5 -36t36.5 -87t-36.5 -87t-87.5 -36q-52 0 -89 36t-37 87t37 87t89 36z" />
    <glyph glyph-name="edotaccent" unicode="&#x117;" horiz-adv-x="1246" 
d="M878 672q-51 190 -255 190q-103 0 -166.5 -51.5t-89.5 -138.5h511zM78 535q0 254 144.5 405t400.5 151q257 0 403 -151.5t142 -404.5l-1 -64h-814q13 -118 79 -190t191 -72q192 0 249 170h280q-40 -187 -177 -293.5t-352 -106.5q-256 0 -400.5 151t-144.5 405zM613 1524
q51 0 87.5 -36t36.5 -87t-36.5 -87t-87.5 -36q-52 0 -89 36t-37 87t37 87t89 36z" />
    <glyph glyph-name="Eogonek" unicode="&#x118;" horiz-adv-x="1381" 
d="M140 0v1425h1099v-224h-829v-368h682v-225h-682v-385h851v-223h-15q-146 -37 -239.5 -101.5t-93.5 -127.5q0 -24 15 -24q30 0 186 138v-241q-105 -85 -206 -85q-90 0 -146 46t-56 153q0 135 105 242h-671z" />
    <glyph glyph-name="eogonek" unicode="&#x119;" horiz-adv-x="1246" 
d="M878 672q-51 190 -255 190q-103 0 -166.5 -51.5t-89.5 -138.5h511zM392 19q-151 58 -232.5 193t-81.5 323q0 254 144.5 405t400.5 151q257 0 403 -151.5t142 -404.5l-1 -64h-814q13 -118 79 -190t191 -72q192 0 249 170h280q-30 -140 -115.5 -236.5t-218.5 -136.5l5 -2
q-152 -38 -250 -103.5t-98 -129.5q0 -24 15 -24q30 0 186 138v-241q-105 -85 -206 -85q-90 0 -146 46t-56 153q0 148 124 261z" />
    <glyph glyph-name="Ecaron" unicode="&#x11a;" horiz-adv-x="1381" 
d="M140 1425h1099v-224h-829v-368h682v-225h-682v-385h851v-223h-1121v1425zM809 1635h-137l-212 339h231l49 -87l50 87h227z" />
    <glyph glyph-name="ecaron" unicode="&#x11b;" horiz-adv-x="1246" 
d="M878 672q-51 190 -255 190q-103 0 -166.5 -51.5t-89.5 -138.5h511zM78 535q0 254 144.5 405t400.5 151q257 0 403 -151.5t142 -404.5l-1 -64h-814q13 -118 79 -190t191 -72q192 0 249 170h280q-40 -187 -177 -293.5t-352 -106.5q-256 0 -400.5 151t-144.5 405zM952 1576
l-208 -339h-137l-212 339h231l49 -87l50 87h227z" />
    <glyph glyph-name="Gcircumflex" unicode="&#x11c;" horiz-adv-x="1671" 
d="M1323 182q-168 -212 -484 -212q-350 0 -545 199.5t-195 539.5q0 342 194.5 540.5t545.5 198.5q310 0 500.5 -156t231.5 -432h-269q-65 365 -463 365q-246 0 -359.5 -136.5t-113.5 -379.5q0 -117 26.5 -210t82 -162.5t147.5 -107t217 -37.5q184 0 296 82t154 231h-534v203
h811v-708h-206zM904 1718l-50 -86h-229l211 339h138l208 -339h-230z" />
    <glyph glyph-name="gcircumflex" unicode="&#x11d;" horiz-adv-x="1323" 
d="M351 522q0 -68 14.5 -123.5t45 -100.5t84.5 -70t127 -25q145 0 217 88.5t72 230.5q0 143 -71.5 233t-217.5 90q-142 0 -206.5 -89.5t-64.5 -233.5zM911 115q-133 -136 -318 -136q-252 0 -383.5 145.5t-131.5 397.5q0 124 33.5 227t98 180t165 119.5t228.5 42.5
q199 0 325 -139l22 118h231v-1078q0 -261 -136.5 -397t-391.5 -136q-205 0 -338.5 99.5t-175.5 296.5h273q25 -91 78.5 -131.5t162.5 -40.5q141 0 199.5 79.5t58.5 237.5v115zM789 1234l-48 86l-50 -86h-229l211 339h138l208 -339h-230z" />
    <glyph glyph-name="Gbreve" unicode="&#x11e;" horiz-adv-x="1671" 
d="M1323 182q-168 -212 -484 -212q-350 0 -545 199.5t-195 539.5q0 342 194.5 540.5t545.5 198.5q310 0 500.5 -156t231.5 -432h-269q-65 365 -463 365q-246 0 -359.5 -136.5t-113.5 -379.5q0 -117 26.5 -210t82 -162.5t147.5 -107t217 -37.5q184 0 296 82t154 231h-534v203
h811v-708h-206zM1082 1982q0 -171 -61 -265t-184 -94t-185 94t-62 265h190q3 -164 57 -164q52 0 55 164h190z" />
    <glyph glyph-name="gbreve" unicode="&#x11f;" horiz-adv-x="1323" 
d="M351 522q0 -68 14.5 -123.5t45 -100.5t84.5 -70t127 -25q145 0 217 88.5t72 230.5q0 143 -71.5 233t-217.5 90q-142 0 -206.5 -89.5t-64.5 -233.5zM911 115q-133 -136 -318 -136q-252 0 -383.5 145.5t-131.5 397.5q0 124 33.5 227t98 180t165 119.5t228.5 42.5
q199 0 325 -139l22 118h231v-1078q0 -261 -136.5 -397t-391.5 -136q-205 0 -338.5 99.5t-175.5 296.5h273q25 -91 78.5 -131.5t162.5 -40.5q141 0 199.5 79.5t58.5 237.5v115zM794 1584q0 -171 -61 -265t-184 -94t-185 94t-62 265h190q3 -164 57 -164q52 0 55 164h190z" />
    <glyph glyph-name="Gdotaccent" unicode="&#x120;" horiz-adv-x="1671" 
d="M1323 182q-168 -212 -484 -212q-350 0 -545 199.5t-195 539.5q0 342 194.5 540.5t545.5 198.5q310 0 500.5 -156t231.5 -432h-269q-65 365 -463 365q-246 0 -359.5 -136.5t-113.5 -379.5q0 -117 26.5 -210t82 -162.5t147.5 -107t217 -37.5q184 0 296 82t154 231h-534v203
h811v-708h-206zM844 1922q51 0 87.5 -36t36.5 -87t-36.5 -87t-87.5 -36q-52 0 -89 36t-37 87t37 87t89 36z" />
    <glyph glyph-name="gdotaccent" unicode="&#x121;" horiz-adv-x="1323" 
d="M351 522q0 -68 14.5 -123.5t45 -100.5t84.5 -70t127 -25q145 0 217 88.5t72 230.5q0 143 -71.5 233t-217.5 90q-142 0 -206.5 -89.5t-64.5 -233.5zM911 115q-133 -136 -318 -136q-252 0 -383.5 145.5t-131.5 397.5q0 124 33.5 227t98 180t165 119.5t228.5 42.5
q199 0 325 -139l22 118h231v-1078q0 -261 -136.5 -397t-391.5 -136q-205 0 -338.5 99.5t-175.5 296.5h273q25 -91 78.5 -131.5t162.5 -40.5q141 0 199.5 79.5t58.5 237.5v115zM681 1524q51 0 87.5 -36t36.5 -87t-36.5 -87t-87.5 -36q-52 0 -89 36t-37 87t37 87t89 36z" />
    <glyph glyph-name="Hcircumflex" unicode="&#x124;" horiz-adv-x="1503" 
d="M140 1425h269v-574h688v574h265v-1425h-265v629h-688v-629h-269v1425zM799 1718l-50 -86h-229l211 339h138l208 -339h-230z" />
    <glyph glyph-name="hcircumflex" unicode="&#x125;" horiz-adv-x="1265" 
d="M140 1425h268v-507q41 77 135.5 125t188.5 48q119 0 205.5 -42.5t134.5 -117.5t70.5 -165.5t22.5 -199.5v-566h-267v535q0 44 -2.5 76t-9 70.5t-21.5 65.5t-38 50.5t-59 35.5t-84 12q-72 0 -126.5 -28.5t-86.5 -77t-47.5 -107t-15.5 -124.5v-508h-268v1425zM698 1718
l-50 -86h-229l211 339h138l208 -339h-230z" />
    <glyph glyph-name="Idotaccent" unicode="&#x130;" horiz-adv-x="602" 
d="M189 1419h266v-1419h-266v1419zM270 1922q51 0 87.5 -36t36.5 -87t-36.5 -87t-87.5 -36q-52 0 -89 36t-37 87t37 87t89 36z" />
    <glyph glyph-name="dotlessi" unicode="&#x131;" horiz-adv-x="623" 
d="M177 1018h268v-1018h-268v1018z" />
    <glyph glyph-name="IJ" unicode="&#x132;" horiz-adv-x="1887" 
d="M172 1419h266v-1419h-266v1419zM725 702q0 -82 7.5 -148t32 -136.5t65 -117.5t111 -77.5t166.5 -30.5q88 0 155 22.5t109 60.5t68 94t36 116.5t10 134.5v805h263v-805q0 -92 -16 -176t-60 -173t-113 -153.5t-185.5 -106t-266.5 -41.5q-141 0 -251 36.5t-183.5 101
t-120.5 157.5t-66.5 201t-16.5 236h256z" />
    <glyph glyph-name="ij" unicode="&#x133;" horiz-adv-x="1180" 
d="M175 1070h268v-1070h-268v1070zM140 1394q0 23 8.5 46.5t27 46t53 36.5t80.5 14q49 0 84 -14t52 -37t24.5 -45.5t7.5 -46.5t-7.5 -47t-24.5 -46t-52 -37t-84 -14q-46 0 -80.5 14t-53 37t-27 46.5t-8.5 46.5zM579 -313q38 0 58 1.5t43 8.5t33.5 21.5t18 40t7.5 63.5v1248
h266v-1256q0 -56 -5.5 -101t-14.5 -79.5t-25.5 -61t-33 -44.5t-44 -30.5t-51 -19.5t-60.5 -10.5t-66 -4.5t-75 -1h-172v225h121zM1040 1391q0 -24 -7.5 -46.5t-24.5 -45.5t-52 -37t-84 -14q-46 0 -80.5 14t-53 36.5t-27 46t-8.5 46.5t8.5 46.5t27 46.5t53 37t80.5 14
q49 0 84 -14t52 -37.5t24.5 -46t7.5 -46.5z" />
    <glyph glyph-name="uni0136" unicode="&#x136;" horiz-adv-x="1535" 
d="M140 1425h271v-588l677 588h390l-746 -641l741 -784h-358l-573 621l-131 -113v-509h-271v1426zM724 -435h-200l136 371h229z" />
    <glyph glyph-name="uni0137" unicode="&#x137;" horiz-adv-x="1401" 
d="M409 1425v-794l499 439h372l-554 -489l529 -581h-341l-377 416l-128 -113v-303h-269v1425h269zM564 -435h-200l136 371h229z" />
    <glyph glyph-name="Lacute" unicode="&#x139;" horiz-adv-x="1411" 
d="M190 1425h268v-1205h833v-220h-1101v1425zM136 1672l192 339h251l-234 -339h-209z" />
    <glyph glyph-name="lacute" unicode="&#x13a;" horiz-adv-x="584" 
d="M190 1425h269v-1425h-269v1425zM112 1657l192 339h251l-234 -339h-209z" />
    <glyph glyph-name="uni013B" unicode="&#x13b;" horiz-adv-x="1361" 
d="M140 1425h268v-1205h833v-220h-1101v1425zM686 -435h-200l136 371h229z" />
    <glyph glyph-name="uni013C" unicode="&#x13c;" horiz-adv-x="557" 
d="M153 1425h269v-1425h-269v1425zM247 -435h-200l136 371h229z" />
    <glyph glyph-name="Lcaron" unicode="&#x13d;" horiz-adv-x="1361" 
d="M140 1425h268v-1205h833v-220h-1101v1425zM379 1652h-137l-212 339h231l49 -87l50 87h227z" />
    <glyph glyph-name="lcaron" unicode="&#x13e;" horiz-adv-x="569" 
d="M140 1425h269v-1425h-269v1425zM355 1637h-137l-212 339h231l49 -87l50 87h227z" />
    <glyph glyph-name="Nacute" unicode="&#x143;" horiz-adv-x="1448" 
d="M140 1425h227l678 -944v944h262v-1425h-222l-681 947v-947h-264v1425zM558 1655l192 339h251l-234 -339h-209z" />
    <glyph glyph-name="nacute" unicode="&#x144;" horiz-adv-x="1265" 
d="M140 1070h208l30 -152q52 79 150.5 126t203.5 47q119 0 205.5 -42.5t134.5 -117.5t70.5 -165.5t22.5 -199.5v-566h-267v535q0 44 -2.5 76t-9 70.5t-21.5 65.5t-38 50.5t-59 35.5t-84 12q-72 0 -126.5 -28.5t-86.5 -77t-47.5 -107t-15.5 -124.5v-508h-268v1070zM476 1257
l192 339h251l-234 -339h-209z" />
    <glyph glyph-name="uni0145" unicode="&#x145;" horiz-adv-x="1448" 
d="M140 1425h227l678 -944v944h262v-1425h-222l-681 947v-947h-264v1425zM710 -435h-200l136 371h229z" />
    <glyph glyph-name="uni0146" unicode="&#x146;" horiz-adv-x="1265" 
d="M140 1070h208l30 -152q52 79 150.5 126t203.5 47q119 0 205.5 -42.5t134.5 -117.5t70.5 -165.5t22.5 -199.5v-566h-267v535q0 44 -2.5 76t-9 70.5t-21.5 65.5t-38 50.5t-59 35.5t-84 12q-72 0 -126.5 -28.5t-86.5 -77t-47.5 -107t-15.5 -124.5v-508h-268v1070zM629 -435
h-200l136 371h229z" />
    <glyph glyph-name="Ncaron" unicode="&#x147;" horiz-adv-x="1448" 
d="M140 1425h227l678 -944v944h262v-1425h-222l-681 947v-947h-264v1425zM851 1635h-137l-212 339h231l49 -87l50 87h227z" />
    <glyph glyph-name="ncaron" unicode="&#x148;" horiz-adv-x="1265" 
d="M140 1070h208l30 -152q52 79 150.5 126t203.5 47q119 0 205.5 -42.5t134.5 -117.5t70.5 -165.5t22.5 -199.5v-566h-267v535q0 44 -2.5 76t-9 70.5t-21.5 65.5t-38 50.5t-59 35.5t-84 12q-72 0 -126.5 -28.5t-86.5 -77t-47.5 -107t-15.5 -124.5v-508h-268v1070zM769 1237
h-137l-212 339h231l49 -87l50 87h227z" />
    <glyph glyph-name="Omacron" unicode="&#x14c;" horiz-adv-x="1682" 
d="M99 709q0 342 194.5 540.5t545.5 198.5q352 0 547.5 -198.5t195.5 -540.5q0 -341 -196 -540t-547 -199q-350 0 -545 199.5t-195 539.5zM366 709q0 -117 26.5 -210t82 -162.5t147.5 -107t217 -37.5q123 0 215.5 38t148.5 108t83.5 162.5t27.5 208.5q0 118 -26.5 210.5
t-82 162t-148 106.5t-218.5 37q-246 0 -359.5 -136.5t-113.5 -379.5zM587 1728v193h450v-193h-450z" />
    <glyph glyph-name="omacron" unicode="&#x14d;" horiz-adv-x="1245" 
d="M78 535q0 254 144.5 405t400.5 151q257 0 400.5 -151t143.5 -405t-143.5 -405t-400.5 -151q-256 0 -400.5 151t-144.5 405zM894 535q0 71 -14 127.5t-44.5 102.5t-84.5 71.5t-128 25.5q-73 0 -127 -25.5t-85 -71.5t-45.5 -103t-14.5 -127q0 -69 14.5 -126t45.5 -103
t85 -71.5t127 -25.5q74 0 128 25t84.5 71t44.5 103t14 127zM391 1330v193h450v-193h-450z" />
    <glyph glyph-name="Ohungarumlaut" unicode="&#x150;" horiz-adv-x="1682" 
d="M99 709q0 342 194.5 540.5t545.5 198.5q352 0 547.5 -198.5t195.5 -540.5q0 -341 -196 -540t-547 -199q-350 0 -545 199.5t-195 539.5zM366 709q0 -117 26.5 -210t82 -162.5t147.5 -107t217 -37.5q123 0 215.5 38t148.5 108t83.5 162.5t27.5 208.5q0 118 -26.5 210.5
t-82 162t-148 106.5t-218.5 37q-246 0 -359.5 -136.5t-113.5 -379.5zM505 1655l192 339h251l-234 -339h-209zM859 1655l191 339h252l-234 -339h-209z" />
    <glyph glyph-name="ohungarumlaut" unicode="&#x151;" horiz-adv-x="1245" 
d="M78 535q0 254 144.5 405t400.5 151q257 0 400.5 -151t143.5 -405t-143.5 -405t-400.5 -151q-256 0 -400.5 151t-144.5 405zM894 535q0 71 -14 127.5t-44.5 102.5t-84.5 71.5t-128 25.5q-73 0 -127 -25.5t-85 -71.5t-45.5 -103t-14.5 -127q0 -69 14.5 -126t45.5 -103
t85 -71.5t127 -25.5q74 0 128 25t84.5 71t44.5 103t14 127zM355 1257l192 339h251l-234 -339h-209zM709 1257l191 339h252l-234 -339h-209z" />
    <glyph glyph-name="OE" unicode="&#x152;" horiz-adv-x="2561" 
d="M366 709q0 -117 26.5 -210t82 -162.5t147.5 -107t217 -37.5q123 0 215.5 38t148.5 108t83.5 162.5t27.5 208.5q0 118 -26.5 210.5t-82 162t-148 106.5t-218.5 37q-246 0 -359.5 -136.5t-113.5 -379.5zM99 709q0 342 194.5 540.5t545.5 198.5q292 0 481 -141v118h1099
v-224h-829v-368h682v-225h-682v-385h851v-223h-1121v112q-188 -142 -481 -142q-350 0 -545 199.5t-195 539.5z" />
    <glyph glyph-name="oe" unicode="&#x153;" horiz-adv-x="2060" 
d="M893 574q-7 132 -71.5 210t-198.5 78q-73 0 -127 -25.5t-85 -71.5t-45.5 -103t-14.5 -127q0 -69 14.5 -126t45.5 -103t85 -71.5t127 -25.5q134 0 198.5 78t71.5 209l-1 39zM1692 672q-51 190 -255 190q-103 0 -166.5 -51.5t-89.5 -138.5h511zM78 535q0 254 144.5 405
t400.5 151q263 0 407 -158q147 158 407 158q257 0 403 -151.5t142 -404.5l-1 -64h-814q13 -118 79 -190t191 -72q192 0 249 170h280q-40 -187 -177 -293.5t-352 -106.5q-260 0 -407 158q-144 -158 -407 -158q-256 0 -400.5 151t-144.5 405z" />
    <glyph glyph-name="Racute" unicode="&#x154;" horiz-adv-x="1448" 
d="M781 792q54 0 99.5 10t85.5 33t63 67t23 105q0 29 -4 53t-14.5 42t-20.5 32.5t-29.5 25t-32.5 18t-40 11.5t-41.5 7t-46.5 4t-46 1h-49h-20h-300v-409h373zM1304 0h-273v362q0 38 -5 68t-17.5 51.5t-24.5 36.5t-36 24.5t-40.5 15t-50.5 7.5t-52.5 2.5t-59.5 0.5h-337
l1 -568h-269v1425h616q97 0 174.5 -10t154 -37.5t128 -73t83 -121t31.5 -176.5q0 -53 -18 -107.5t-62 -107.5t-107 -79q91 -53 127.5 -125t36.5 -180v-408zM740 1655h-209l192 339h251z" />
    <glyph glyph-name="racute" unicode="&#x155;" horiz-adv-x="836" 
d="M140 1070h218l30 -152q53 80 147 126.5t197 46.5q45 0 67 -3l-8 -265q-44 22 -107 22q-72 0 -126.5 -28.5t-86.5 -77t-47.5 -107t-15.5 -124.5v-508h-268v1070zM229 1257l192 339h251l-234 -339h-209z" />
    <glyph glyph-name="uni0156" unicode="&#x156;" horiz-adv-x="1448" 
d="M781 792q54 0 99.5 10t85.5 33t63 67t23 105q0 29 -4 53t-14.5 42t-20.5 32.5t-29.5 25t-32.5 18t-40 11.5t-41.5 7t-46.5 4t-46 1h-49h-20h-300v-409h373zM1304 0h-273v362q0 38 -5 68t-17.5 51.5t-24.5 36.5t-36 24.5t-40.5 15t-50.5 7.5t-52.5 2.5t-59.5 0.5h-337
l1 -568h-269v1425h616q97 0 174.5 -10t154 -37.5t128 -73t83 -121t31.5 -176.5q0 -53 -18 -107.5t-62 -107.5t-107 -79q91 -53 127.5 -125t36.5 -180v-408zM857 -64l-165 -371h-200l136 371h229z" />
    <glyph glyph-name="uni0157" unicode="&#x157;" horiz-adv-x="856" 
d="M160 1070h218l30 -152q53 80 147 126.5t197 46.5q45 0 67 -3l-8 -265q-44 22 -107 22q-72 0 -126.5 -28.5t-86.5 -77t-47.5 -107t-15.5 -124.5v-508h-268v1070zM245 -435h-200l136 371h229z" />
    <glyph glyph-name="Rcaron" unicode="&#x158;" horiz-adv-x="1448" 
d="M781 792q54 0 99.5 10t85.5 33t63 67t23 105q0 29 -4 53t-14.5 42t-20.5 32.5t-29.5 25t-32.5 18t-40 11.5t-41.5 7t-46.5 4t-46 1h-49h-20h-300v-409h373zM1304 0h-273v362q0 38 -5 68t-17.5 51.5t-24.5 36.5t-36 24.5t-40.5 15t-50.5 7.5t-52.5 2.5t-59.5 0.5h-337
l1 -568h-269v1425h616q97 0 174.5 -10t154 -37.5t128 -73t83 -121t31.5 -176.5q0 -53 -18 -107.5t-62 -107.5t-107 -79q91 -53 127.5 -125t36.5 -180v-408zM1032 1974l-208 -339h-137l-212 339h231l49 -87l50 87h227z" />
    <glyph glyph-name="rcaron" unicode="&#x159;" horiz-adv-x="836" 
d="M140 1070h218l30 -152q53 80 147 126.5t197 46.5q45 0 67 -3l-8 -265q-44 22 -107 22q-72 0 -126.5 -28.5t-86.5 -77t-47.5 -107t-15.5 -124.5v-508h-268v1070zM522 1237h-137l-212 339h231l49 -87l50 87h227z" />
    <glyph glyph-name="Sacute" unicode="&#x15a;" horiz-adv-x="1473" 
d="M774 -30q-146 0 -265.5 33.5t-209.5 101t-137 178t-41 255.5h258q13 -133 49 -204.5t118 -106.5t230 -35q54 0 103.5 8t100 27t81 58.5t30.5 95.5q0 53 -31 92t-84 63.5t-121.5 44t-144 37t-151 38t-144 52.5t-121.5 74.5t-84 109t-31 152.5q0 84 37.5 153.5t97.5 115
t138.5 77t157.5 45t157 13.5q297 0 435 -139.5t138 -418.5h-252q5 167 -66.5 251t-255.5 84q-43 0 -93.5 -9t-103.5 -27.5t-88 -55t-35 -83.5q0 -53 31 -92t83.5 -62.5t120.5 -42t143.5 -35.5t150.5 -37t143 -52.5t120.5 -76t83.5 -113t31 -159.5q0 -84 -36 -154t-94 -116.5
t-134.5 -79t-155.5 -46.5t-159 -14zM565 1655l192 339h251l-234 -339h-209z" />
    <glyph glyph-name="sacute" unicode="&#x15b;" horiz-adv-x="1100" 
d="M753 698q9 51 -4.5 85.5t-46 52t-69.5 24.5t-87 7q-28 0 -56 -3t-62.5 -11t-56 -27.5t-21.5 -47.5q0 -29 23.5 -49t63 -32t90.5 -22t107.5 -22t113 -27t107.5 -41.5t90.5 -62.5t63 -93t23.5 -129q0 -73 -30.5 -130.5t-78.5 -92.5t-113 -57.5t-129.5 -31.5t-132.5 -9
q-100 0 -189 26.5t-158.5 76.5t-105.5 133.5t-25 187.5h271q-16 -105 43 -156t166 -51q215 0 215 100q0 41 -29.5 69.5t-77.5 42t-109 27t-125 23.5t-125 33.5t-109 55t-77.5 89t-29.5 135.5q0 67 30.5 122.5t79.5 91.5t112.5 60.5t127.5 35t127 10.5q82 0 152.5 -13.5
t131 -43t102 -74.5t63 -112t16.5 -150h-272zM373 1257l192 339h251l-234 -339h-209z" />
    <glyph glyph-name="Scircumflex" unicode="&#x15c;" horiz-adv-x="1473" 
d="M774 -30q-146 0 -265.5 33.5t-209.5 101t-137 178t-41 255.5h258q13 -133 49 -204.5t118 -106.5t230 -35q54 0 103.5 8t100 27t81 58.5t30.5 95.5q0 53 -31 92t-84 63.5t-121.5 44t-144 37t-151 38t-144 52.5t-121.5 74.5t-84 109t-31 152.5q0 84 37.5 153.5t97.5 115
t138.5 77t157.5 45t157 13.5q297 0 435 -139.5t138 -418.5h-252q5 167 -66.5 251t-255.5 84q-43 0 -93.5 -9t-103.5 -27.5t-88 -55t-35 -83.5q0 -53 31 -92t83.5 -62.5t120.5 -42t143.5 -35.5t150.5 -37t143 -52.5t120.5 -76t83.5 -113t31 -159.5q0 -84 -36 -154t-94 -116.5
t-134.5 -79t-155.5 -46.5t-159 -14zM787 1718l-50 -86h-229l211 339h138l208 -339h-230z" />
    <glyph glyph-name="scircumflex" unicode="&#x15d;" horiz-adv-x="1100" 
d="M753 698q9 51 -4.5 85.5t-46 52t-69.5 24.5t-87 7q-28 0 -56 -3t-62.5 -11t-56 -27.5t-21.5 -47.5q0 -29 23.5 -49t63 -32t90.5 -22t107.5 -22t113 -27t107.5 -41.5t90.5 -62.5t63 -93t23.5 -129q0 -73 -30.5 -130.5t-78.5 -92.5t-113 -57.5t-129.5 -31.5t-132.5 -9
q-100 0 -189 26.5t-158.5 76.5t-105.5 133.5t-25 187.5h271q-16 -105 43 -156t166 -51q215 0 215 100q0 41 -29.5 69.5t-77.5 42t-109 27t-125 23.5t-125 33.5t-109 55t-77.5 89t-29.5 135.5q0 67 30.5 122.5t79.5 91.5t112.5 60.5t127.5 35t127 10.5q82 0 152.5 -13.5
t131 -43t102 -74.5t63 -112t16.5 -150h-272zM595 1320l-50 -86h-229l211 339h138l208 -339h-230z" />
    <glyph glyph-name="Scedilla" unicode="&#x15e;" horiz-adv-x="1473" 
d="M633 -22q-118 15 -212.5 56t-164 108.5t-105 168t-30.5 227.5h258q13 -133 49 -204.5t118 -106.5t230 -35q54 0 103.5 8t100 27t81 58.5t30.5 95.5q0 53 -31 92t-84 63.5t-121.5 44t-144 37t-151 38t-144 52.5t-121.5 74.5t-84 109t-31 152.5q0 84 37.5 153.5t97.5 115
t138.5 77t157.5 45t157 13.5q297 0 435 -139.5t138 -418.5h-252q5 167 -66.5 251t-255.5 84q-43 0 -93.5 -9t-103.5 -27.5t-88 -55t-35 -83.5q0 -53 31 -92t83.5 -62.5t120.5 -42t143.5 -35.5t150.5 -37t143 -52.5t120.5 -76t83.5 -113t31 -159.5q0 -76 -29.5 -141t-78 -110
t-114 -78.5t-135.5 -51.5t-144 -25l-43 -79q126 -49 126 -189q0 -107 -78 -163.5t-192 -56.5q-77 0 -168 44v207q128 -64 171 -64q68 0 68 33q0 30 -31 48.5t-69.5 23t-74 6.5t-44.5 -1zM515 -218q1 0 2 1v-1h-2z" />
    <glyph glyph-name="scedilla" unicode="&#x15f;" horiz-adv-x="1100" 
d="M462 -16q-87 10 -161 41t-130 81.5t-83.5 127t-17.5 169.5h271q-16 -105 43 -156t166 -51q215 0 215 100q0 41 -29.5 69.5t-77.5 42t-109 27t-125 23.5t-125 33.5t-109 55t-77.5 89t-29.5 135.5q0 67 30.5 122.5t79.5 91.5t112.5 60.5t127.5 35t127 10.5
q82 0 152.5 -13.5t131 -43t102 -74.5t63 -112t16.5 -150h-272q9 51 -4.5 85.5t-46 52t-69.5 24.5t-87 7q-28 0 -56 -3t-62.5 -11t-56 -27.5t-21.5 -47.5q0 -29 23.5 -49t63 -32t90.5 -22t107.5 -22t113 -27t107.5 -41.5t90.5 -62.5t63 -93t23.5 -129q0 -58 -19.5 -106.5
t-51.5 -82.5t-78 -59t-94 -40t-104 -23l-66 -119q126 -49 126 -189q0 -107 -78 -163.5t-192 -56.5q-77 0 -168 44v207q128 -64 171 -64q68 0 68 33q0 30 -31 48.5t-69.5 23t-74 6.5t-44.5 -1zM325 -243q1 0 2 1v-1h-2z" />
    <glyph glyph-name="Scaron" unicode="&#x160;" horiz-adv-x="1473" 
d="M774 -30q-146 0 -265.5 33.5t-209.5 101t-137 178t-41 255.5h258q13 -133 49 -204.5t118 -106.5t230 -35q54 0 103.5 8t100 27t81 58.5t30.5 95.5q0 53 -31 92t-84 63.5t-121.5 44t-144 37t-151 38t-144 52.5t-121.5 74.5t-84 109t-31 152.5q0 84 37.5 153.5t97.5 115
t138.5 77t157.5 45t157 13.5q297 0 435 -139.5t138 -418.5h-252q5 167 -66.5 251t-255.5 84q-43 0 -93.5 -9t-103.5 -27.5t-88 -55t-35 -83.5q0 -53 31 -92t83.5 -62.5t120.5 -42t143.5 -35.5t150.5 -37t143 -52.5t120.5 -76t83.5 -113t31 -159.5q0 -84 -36 -154t-94 -116.5
t-134.5 -79t-155.5 -46.5t-159 -14zM858 1635h-137l-212 339h231l49 -87l50 87h227z" />
    <glyph glyph-name="scaron" unicode="&#x161;" horiz-adv-x="1100" 
d="M753 698q9 51 -4.5 85.5t-46 52t-69.5 24.5t-87 7q-28 0 -56 -3t-62.5 -11t-56 -27.5t-21.5 -47.5q0 -29 23.5 -49t63 -32t90.5 -22t107.5 -22t113 -27t107.5 -41.5t90.5 -62.5t63 -93t23.5 -129q0 -73 -30.5 -130.5t-78.5 -92.5t-113 -57.5t-129.5 -31.5t-132.5 -9
q-100 0 -189 26.5t-158.5 76.5t-105.5 133.5t-25 187.5h271q-16 -105 43 -156t166 -51q215 0 215 100q0 41 -29.5 69.5t-77.5 42t-109 27t-125 23.5t-125 33.5t-109 55t-77.5 89t-29.5 135.5q0 67 30.5 122.5t79.5 91.5t112.5 60.5t127.5 35t127 10.5q82 0 152.5 -13.5
t131 -43t102 -74.5t63 -112t16.5 -150h-272zM666 1237h-137l-212 339h231l49 -87l50 87h227z" />
    <glyph glyph-name="uni0162" unicode="&#x162;" horiz-adv-x="1402" 
d="M569 1202h-470v223h1203v-223h-467v-1202h-28l-56 -102q126 -49 126 -189q0 -107 -78 -163.5t-192 -56.5q-77 0 -168 44v207q128 -64 171 -64q68 0 68 33q0 30 -31 48.5t-69.5 23t-74 6.5t-44.5 -1l127 214h-17v1202z" />
    <glyph glyph-name="uni0163" unicode="&#x163;" horiz-adv-x="831" 
d="M417 20q-81 25 -121 101t-40 231v496h-167v222h167v235h266v-235h229v-222h-229v-488q0 -38 7.5 -63.5t18 -40t34 -21.5t43.5 -8.5t57 -1.5h72v-225h-122h-52l-58 -105q126 -49 126 -189q0 -107 -78 -163.5t-192 -56.5q-77 0 -168 44v207q128 -64 171 -64q68 0 68 33
q0 30 -31 48.5t-69.5 23t-74 6.5t-44.5 -1l141 237h46zM228 -218q1 0 2 1v-1h-2z" />
    <glyph glyph-name="Tcaron" unicode="&#x164;" horiz-adv-x="1402" 
d="M569 1202h-470v223h1203v-223h-467v-1202h-266v1202zM765 1635h-137l-212 339h231l49 -87l50 87h227z" />
    <glyph glyph-name="tcaron" unicode="&#x165;" horiz-adv-x="831" 
d="M632 0q-46 0 -75.5 1t-66.5 4.5t-60.5 10.5t-50.5 19.5t-44 31t-33.5 44.5t-25.5 60.5t-14.5 79.5t-5.5 101v496h-167v222h167v235h266v-235h229v-222h-229v-488q0 -38 7.5 -63.5t18 -40t34 -21.5t43.5 -8.5t57 -1.5h72v-225h-122zM483 1500h-137l-212 339h231l49 -87
l50 87h227z" />
    <glyph glyph-name="Utilde" unicode="&#x168;" horiz-adv-x="1563" 
d="M780 -30q-155 0 -277 48t-201 135t-120.5 205.5t-41.5 261.5v805h266v-805q0 -70 11 -130t38 -116t69 -95.5t107.5 -63t148.5 -23.5q88 0 155 22.5t109 60.5t68 94t36 116.5t10 134.5v805h263v-805q0 -92 -16 -176t-60 -173t-113 -153.5t-185.5 -106t-266.5 -41.5z
M662 1919q48 0 130 -27l41 -13q-16 10 -16 33h187q0 -228 -146 -228q-46 0 -131 27l-41 13q16 -8 16 -32h-185q0 227 145 227z" />
    <glyph glyph-name="utilde" unicode="&#x169;" horiz-adv-x="1223" 
d="M1124 0h-218l-30 152q-41 -76 -144.5 -124.5t-199.5 -48.5q-119 0 -205.5 42.5t-134.5 117.5t-70.5 166t-22.5 200v565h267v-534q0 -53 3 -91t15.5 -82.5t34.5 -72t63 -46.5t98 -19q72 0 126.5 28.5t86.5 77t47.5 107t15.5 124.5v508h268v-1070zM533 1521q48 0 130 -27
l41 -13q-16 10 -16 33h187q0 -228 -146 -228q-45 0 -131 27l-41 13q16 -8 16 -32h-185q0 227 145 227z" />
    <glyph glyph-name="Umacron" unicode="&#x16a;" horiz-adv-x="1563" 
d="M780 -30q-155 0 -277 48t-201 135t-120.5 205.5t-41.5 261.5v805h266v-805q0 -70 11 -130t38 -116t69 -95.5t107.5 -63t148.5 -23.5q88 0 155 22.5t109 60.5t68 94t36 116.5t10 134.5v805h263v-805q0 -92 -16 -176t-60 -173t-113 -153.5t-185.5 -106t-266.5 -41.5z
M541 1728v193h450v-193h-450z" />
    <glyph glyph-name="umacron" unicode="&#x16b;" horiz-adv-x="1223" 
d="M1124 0h-218l-30 152q-41 -76 -144.5 -124.5t-199.5 -48.5q-119 0 -205.5 42.5t-134.5 117.5t-70.5 166t-22.5 200v565h267v-534q0 -53 3 -91t15.5 -82.5t34.5 -72t63 -46.5t98 -19q72 0 126.5 28.5t86.5 77t47.5 107t15.5 124.5v508h268v-1070zM376 1330v193h450v-193
h-450z" />
    <glyph glyph-name="Ubreve" unicode="&#x16c;" horiz-adv-x="1563" 
d="M780 -30q-155 0 -277 48t-201 135t-120.5 205.5t-41.5 261.5v805h266v-805q0 -70 11 -130t38 -116t69 -95.5t107.5 -63t148.5 -23.5q88 0 155 22.5t109 60.5t68 94t36 116.5t10 134.5v805h263v-805q0 -92 -16 -176t-60 -173t-113 -153.5t-185.5 -106t-266.5 -41.5z
M1031 1982q0 -171 -61 -265t-184 -94t-185 94t-62 265h190q3 -164 57 -164q52 0 55 164h190z" />
    <glyph glyph-name="ubreve" unicode="&#x16d;" horiz-adv-x="1223" 
d="M1124 0h-218l-30 152q-41 -76 -144.5 -124.5t-199.5 -48.5q-119 0 -205.5 42.5t-134.5 117.5t-70.5 166t-22.5 200v565h267v-534q0 -53 3 -91t15.5 -82.5t34.5 -72t63 -46.5t98 -19q72 0 126.5 28.5t86.5 77t47.5 107t15.5 124.5v508h268v-1070zM777 1584
q0 -171 -61 -265t-184 -94t-185 94t-62 265h190q3 -164 57 -164q52 0 55 164h190z" />
    <glyph glyph-name="Uring" unicode="&#x16e;" horiz-adv-x="1563" 
d="M818 1832q0 21 -13.5 33.5t-31.5 12.5q-17 0 -29.5 -12t-12.5 -34q0 -20 12.5 -31.5t29.5 -11.5q18 0 31.5 11.5t13.5 31.5zM780 -30q-155 0 -277 48t-201 135t-120.5 205.5t-41.5 261.5v805h266v-805q0 -70 11 -130t38 -116t69 -95.5t107.5 -63t148.5 -23.5
q88 0 155 22.5t109 60.5t68 94t36 116.5t10 134.5v805h263v-805q0 -92 -16 -176t-60 -173t-113 -153.5t-185.5 -106t-266.5 -41.5zM776 2024q86 0 142.5 -52.5t56.5 -138.5t-57 -139.5t-142 -53.5q-86 0 -143.5 53.5t-57.5 139.5t57 138.5t144 52.5z" />
    <glyph glyph-name="uring" unicode="&#x16f;" horiz-adv-x="1223" 
d="M642 1434q0 21 -13.5 33.5t-31.5 12.5q-17 0 -29.5 -12t-12.5 -34q0 -20 12.5 -31.5t29.5 -11.5q18 0 31.5 11.5t13.5 31.5zM1124 1070v-1070h-218l-30 152q-41 -76 -144.5 -124.5t-199.5 -48.5q-119 0 -205.5 42.5t-134.5 117.5t-70.5 166t-22.5 200v565h267v-534
q0 -53 3 -91t15.5 -82.5t34.5 -72t63 -46.5t98 -19q72 0 126.5 28.5t86.5 77t47.5 107t15.5 124.5v508h268zM600 1626q86 0 142.5 -52.5t56.5 -138.5t-57 -139.5t-142 -53.5q-86 0 -143.5 53.5t-57.5 139.5t57 138.5t144 52.5z" />
    <glyph glyph-name="Uhungarumlaut" unicode="&#x170;" horiz-adv-x="1563" 
d="M780 -30q-155 0 -277 48t-201 135t-120.5 205.5t-41.5 261.5v805h266v-805q0 -70 11 -130t38 -116t69 -95.5t107.5 -63t148.5 -23.5q88 0 155 22.5t109 60.5t68 94t36 116.5t10 134.5v805h263v-805q0 -92 -16 -176t-60 -173t-113 -153.5t-185.5 -106t-266.5 -41.5z
M492 1655l192 339h251l-234 -339h-209zM846 1655l191 339h252l-234 -339h-209z" />
    <glyph glyph-name="uhungarumlaut" unicode="&#x171;" horiz-adv-x="1236" 
d="M1124 0h-218l-30 152q-41 -76 -144.5 -124.5t-199.5 -48.5q-119 0 -205.5 42.5t-134.5 117.5t-70.5 166t-22.5 200v565h267v-534q0 -53 3 -91t15.5 -82.5t34.5 -72t63 -46.5t98 -19q72 0 126.5 28.5t86.5 77t47.5 107t15.5 124.5v508h268v-1070zM340 1257l192 339h251
l-234 -339h-209zM694 1257l191 339h252l-234 -339h-209z" />
    <glyph glyph-name="Uogonek" unicode="&#x172;" horiz-adv-x="1563" 
d="M611 -14q-228 47 -349.5 216t-121.5 418v805h266v-805q0 -70 11 -130t38 -116t69 -95.5t107.5 -63t148.5 -23.5q88 0 155 22.5t109 60.5t68 94t36 116.5t10 134.5v805h263v-805q0 -88 -16 -169.5t-52 -165t-105.5 -152.5t-165.5 -109l11 -5q-154 -37 -253 -104t-99 -132
q0 -24 15 -24q32 0 188 140v-245q-106 -86 -209 -86q-91 0 -147.5 47t-56.5 155q0 119 80 216z" />
    <glyph glyph-name="uogonek" unicode="&#x173;" horiz-adv-x="1223" 
d="M1124 0q-147 -36 -229.5 -104.5t-82.5 -137.5q0 -24 15 -24q32 0 188 140v-245q-106 -86 -209 -86q-91 0 -147.5 47t-56.5 155q0 116 78 213.5t205 145.5l-9 48q-41 -76 -144.5 -124.5t-199.5 -48.5q-119 0 -205.5 42.5t-134.5 117.5t-70.5 166t-22.5 200v565h267v-534
q0 -53 3 -91t15.5 -82.5t34.5 -72t63 -46.5t98 -19q72 0 126.5 28.5t86.5 77t47.5 107t15.5 124.5v508h268v-1070z" />
    <glyph glyph-name="Wcircumflex" unicode="&#x174;" horiz-adv-x="2358" 
d="M1170 966l-369 -966h-261l-504 1425h282l359 -1015l386 1015h222l367 -1017l383 1017h286l-538 -1425h-262zM1210 1718l-50 -86h-229l211 339h138l208 -339h-230z" />
    <glyph glyph-name="wcircumflex" unicode="&#x175;" horiz-adv-x="1770" 
d="M78 1070h279l206 -625l215 625h217l220 -624l199 624h277l-349 -1070h-254l-200 580l-199 -580h-249zM940 1320l-50 -86h-229l211 339h138l208 -339h-230z" />
    <glyph glyph-name="Ycircumflex" unicode="&#x176;" horiz-adv-x="1461" 
d="M595 538l-517 887h293l362 -610l356 610h293l-518 -887v-538h-269v538zM761 1718l-50 -86h-229l211 339h138l208 -339h-230z" />
    <glyph glyph-name="ycircumflex" unicode="&#x177;" horiz-adv-x="1371" 
d="M283 -539l261 591l-466 1018h298l312 -698l308 698h297l-734 -1609h-276zM689 1320l-50 -86h-229l211 339h138l208 -339h-230z" />
    <glyph glyph-name="Ydieresis" unicode="&#x178;" horiz-adv-x="1461" 
d="M595 538l-517 887h293l362 -610l356 610h293l-518 -887v-538h-269v538zM577 1906q48 0 83.5 -35t35.5 -84q0 -48 -35.5 -83t-83.5 -35q-50 0 -85.5 35t-35.5 83q0 49 35.5 84t85.5 35zM897 1905q50 0 85.5 -35t35.5 -84q0 -48 -35.5 -82.5t-85.5 -34.5q-48 0 -83.5 35
t-35.5 82q0 49 35.5 84t83.5 35z" />
    <glyph glyph-name="Zacute" unicode="&#x179;" horiz-adv-x="1487" 
d="M99 162l907 1039h-864v224h1245v-162l-906 -1039h900v-224h-1282v162zM591 1655l192 339h251l-234 -339h-209z" />
    <glyph glyph-name="zacute" unicode="&#x17a;" horiz-adv-x="1234" 
d="M99 159l633 691h-602v220h1005v-166l-636 -684h636v-220h-1036v159zM434 1257l192 339h251l-234 -339h-209z" />
    <glyph glyph-name="Zdotaccent" unicode="&#x17b;" horiz-adv-x="1487" 
d="M99 162l907 1039h-864v224h1245v-162l-906 -1039h900v-224h-1282v162zM753 1922q51 0 87.5 -36t36.5 -87t-36.5 -87t-87.5 -36q-52 0 -89 36t-37 87t37 87t89 36z" />
    <glyph glyph-name="zdotaccent" unicode="&#x17c;" horiz-adv-x="1234" 
d="M99 159l633 691h-602v220h1005v-166l-636 -684h636v-220h-1036v159zM596 1524q51 0 87.5 -36t36.5 -87t-36.5 -87t-87.5 -36q-52 0 -89 36t-37 87t37 87t89 36z" />
    <glyph glyph-name="Zcaron" unicode="&#x17d;" horiz-adv-x="1487" 
d="M99 162l907 1039h-864v224h1245v-162l-906 -1039h900v-224h-1282v162zM795 1635h-137l-212 339h231l49 -87l50 87h227z" />
    <glyph glyph-name="zcaron" unicode="&#x17e;" horiz-adv-x="1234" 
d="M99 159l633 691h-602v220h1005v-166l-636 -684h636v-220h-1036v159zM727 1237h-137l-212 339h231l49 -87l50 87h227z" />
    <glyph glyph-name="uni01CD" unicode="&#x1cd;" horiz-adv-x="1600" 
d="M799 1014l-213 -513h424zM99 0l588 1425h221l592 -1425h-283l-113 273h-613l-113 -273h-279zM1088 1974l-208 -339h-137l-212 339h231l49 -87l50 87h227z" />
    <glyph glyph-name="uni01CE" unicode="&#x1ce;" horiz-adv-x="1127" 
d="M356 307q0 -62 35 -85.5t119 -23.5q115 0 181 59.5t66 175.5v37q-45 0 -85.5 -2t-102 -11.5t-105.5 -25.5t-76 -48.5t-32 -75.5zM78 303q0 66 25 120t65 89.5t99 61.5t116.5 40.5t130 23t126.5 10.5t117 2q1 96 -40.5 152t-132.5 56q-83 0 -141 -41.5t-58 -119.5h-271
q0 125 67 216t171.5 134.5t231.5 43.5q203 0 323 -105t120 -299v-686h-219l-26 99q-126 -122 -314 -122q-108 0 -194.5 34.5t-141 109.5t-54.5 181zM906 1586l-208 -339h-137l-212 339h231l49 -87l50 87h227z" />
    <glyph glyph-name="Gcaron" unicode="&#x1e6;" horiz-adv-x="1671" 
d="M1323 182q-168 -212 -484 -212q-350 0 -545 199.5t-195 539.5q0 342 194.5 540.5t545.5 198.5q310 0 500.5 -156t231.5 -432h-269q-65 365 -463 365q-246 0 -359.5 -136.5t-113.5 -379.5q0 -117 26.5 -210t82 -162.5t147.5 -107t217 -37.5q184 0 296 82t154 231h-534v203
h811v-708h-206zM975 1635h-137l-212 339h231l49 -87l50 87h227z" />
    <glyph glyph-name="gcaron" unicode="&#x1e7;" horiz-adv-x="1323" 
d="M351 522q0 -68 14.5 -123.5t45 -100.5t84.5 -70t127 -25q145 0 217 88.5t72 230.5q0 143 -71.5 233t-217.5 90q-142 0 -206.5 -89.5t-64.5 -233.5zM911 115q-133 -136 -318 -136q-252 0 -383.5 145.5t-131.5 397.5q0 124 33.5 227t98 180t165 119.5t228.5 42.5
q199 0 325 -139l22 118h231v-1078q0 -261 -136.5 -397t-391.5 -136q-205 0 -338.5 99.5t-175.5 296.5h273q25 -91 78.5 -131.5t162.5 -40.5q141 0 199.5 79.5t58.5 237.5v115zM915 1576l-208 -339h-137l-212 339h231l49 -87l50 87h227z" />
    <glyph glyph-name="uni0218" unicode="&#x218;" horiz-adv-x="1473" 
d="M774 -30q-146 0 -265.5 33.5t-209.5 101t-137 178t-41 255.5h258q13 -133 49 -204.5t118 -106.5t230 -35q54 0 103.5 8t100 27t81 58.5t30.5 95.5q0 53 -31 92t-84 63.5t-121.5 44t-144 37t-151 38t-144 52.5t-121.5 74.5t-84 109t-31 152.5q0 84 37.5 153.5t97.5 115
t138.5 77t157.5 45t157 13.5q297 0 435 -139.5t138 -418.5h-252q5 167 -66.5 251t-255.5 84q-43 0 -93.5 -9t-103.5 -27.5t-88 -55t-35 -83.5q0 -53 31 -92t83.5 -62.5t120.5 -42t143.5 -35.5t150.5 -37t143 -52.5t120.5 -76t83.5 -113t31 -159.5q0 -84 -36 -154t-94 -116.5
t-134.5 -79t-155.5 -46.5t-159 -14zM689 -435h-200l136 371h229z" />
    <glyph glyph-name="uni0219" unicode="&#x219;" horiz-adv-x="1100" 
d="M753 698q9 51 -4.5 85.5t-46 52t-69.5 24.5t-87 7q-28 0 -56 -3t-62.5 -11t-56 -27.5t-21.5 -47.5q0 -29 23.5 -49t63 -32t90.5 -22t107.5 -22t113 -27t107.5 -41.5t90.5 -62.5t63 -93t23.5 -129q0 -73 -30.5 -130.5t-78.5 -92.5t-113 -57.5t-129.5 -31.5t-132.5 -9
q-100 0 -189 26.5t-158.5 76.5t-105.5 133.5t-25 187.5h271q-16 -105 43 -156t166 -51q215 0 215 100q0 41 -29.5 69.5t-77.5 42t-109 27t-125 23.5t-125 33.5t-109 55t-77.5 89t-29.5 135.5q0 67 30.5 122.5t79.5 91.5t112.5 60.5t127.5 35t127 10.5q82 0 152.5 -13.5
t131 -43t102 -74.5t63 -112t16.5 -150h-272zM476 -435h-200l136 371h229z" />
    <glyph glyph-name="uni021A" unicode="&#x21a;" horiz-adv-x="1402" 
d="M569 1202h-470v223h1203v-223h-467v-1202h-266v1202zM655 -435h-200l136 371h229z" />
    <glyph glyph-name="uni021B" unicode="&#x21b;" horiz-adv-x="831" 
d="M632 0q-46 0 -75.5 1t-66.5 4.5t-60.5 10.5t-50.5 19.5t-44 31t-33.5 44.5t-25.5 60.5t-14.5 79.5t-5.5 101v496h-167v222h167v235h266v-235h229v-222h-229v-488q0 -38 7.5 -63.5t18 -40t34 -21.5t43.5 -8.5t57 -1.5h72v-225h-122zM414 -435h-200l136 371h229z" />
    <glyph glyph-name="circumflex" unicode="&#x2c6;" horiz-adv-x="614" 
d="M307 1231l-50 -85h-229l211 339h138l208 -339h-230z" />
    <glyph glyph-name="caron" unicode="&#x2c7;" horiz-adv-x="580" 
d="M360 1146h-137l-212 339h231l49 -87l50 87h227z" />
    <glyph glyph-name="breve" unicode="&#x2d8;" horiz-adv-x="1025" 
d="M758 1485q0 -171 -61 -265t-184 -94t-185 94t-62 265h190q3 -164 57 -164q52 0 55 164h190z" />
    <glyph glyph-name="dotaccent" unicode="&#x2d9;" horiz-adv-x="1117" 
d="M559 1441q51 0 87.5 -36t36.5 -86q0 -51 -36.5 -87t-87.5 -36q-52 0 -89 36t-37 87q0 50 37 86t89 36z" />
    <glyph glyph-name="ring" unicode="&#x2da;" horiz-adv-x="1267" 
d="M676 1321q0 21 -13.5 33.5t-31.5 12.5q-17 0 -29.5 -12t-12.5 -34q0 -21 12.5 -32t29.5 -11q18 0 31.5 11.5t13.5 31.5zM634 1512q86 0 142.5 -52.5t56.5 -138.5t-56.5 -139.5t-142.5 -53.5t-143.5 53.5t-57.5 139.5t57 138.5t144 52.5z" />
    <glyph glyph-name="ogonek" unicode="&#x2db;" horiz-adv-x="1221" 
d="M891 48q-154 -37 -253 -103.5t-99 -132.5q0 -23 15 -23q33 0 188 139v-245q-106 -86 -209 -86q-91 0 -147.5 47t-56.5 155q0 123 87 224.5t225 144.5z" />
    <glyph glyph-name="tilde" unicode="&#x2dc;" horiz-adv-x="1094" 
d="M440 1450q48 0 130 -27l40 -12q-15 9 -15 32h187q0 -227 -146 -227q-46 0 -131 27l-44 13q19 -8 19 -33h-185q0 227 145 227z" />
    <glyph glyph-name="hungarumlaut" unicode="&#x2dd;" horiz-adv-x="959" 
d="M131 1146l192 339h250l-233 -339h-209zM461 1146l191 339h252l-234 -339h-209z" />
    <glyph glyph-name="gravecomb" unicode="&#x300;" 
d="M457 1263l-233 339h250l192 -339h-209z" />
    <glyph glyph-name="acutecomb" unicode="&#x301;" 
d="M224 1257l192 339h251l-234 -339h-209z" />
    <glyph glyph-name="uni0302" unicode="&#x302;" 
d="M307 1320l-50 -86h-229l211 339h138l208 -339h-230z" />
    <glyph glyph-name="tildecomb" unicode="&#x303;" 
d="M473 1521q48 0 130 -27l41 -13q-16 10 -16 33h187q0 -228 -146 -228q-45 0 -131 27l-41 13q16 -8 16 -32h-185q0 227 145 227z" />
    <glyph glyph-name="uni0304" unicode="&#x304;" 
d="M289 1330v193h450v-193h-450z" />
    <glyph glyph-name="uni0306" unicode="&#x306;" 
d="M758 1584q0 -171 -61 -265t-184 -94t-185 94t-62 265h190q3 -164 57 -164q52 0 55 164h190z" />
    <glyph glyph-name="uni0307" unicode="&#x307;" 
d="M559 1524q51 0 87.5 -36t36.5 -87t-36.5 -87t-87.5 -36q-52 0 -89 36t-37 87t37 87t89 36z" />
    <glyph glyph-name="uni0308" unicode="&#x308;" 
d="M554 1508q48 0 83.5 -35t35.5 -84q0 -48 -35.5 -83t-83.5 -35q-50 0 -85.5 35t-35.5 83q0 49 35.5 84t85.5 35zM874 1507q50 0 85.5 -35t35.5 -84q0 -48 -35.5 -82.5t-85.5 -34.5q-48 0 -83.5 35t-35.5 82q0 49 35.5 84t83.5 35z" />
    <glyph glyph-name="uni030A" unicode="&#x30a;" 
d="M676 1434q0 21 -13.5 33.5t-31.5 12.5q-17 0 -29.5 -12t-12.5 -34q0 -20 12.5 -31.5t29.5 -11.5q18 0 31.5 11.5t13.5 31.5zM634 1626q86 0 142.5 -52.5t56.5 -138.5t-57 -139.5t-142 -53.5q-86 0 -143.5 53.5t-57.5 139.5t57 138.5t144 52.5z" />
    <glyph glyph-name="uni030B" unicode="&#x30b;" 
d="M131 1257l192 339h251l-234 -339h-209zM485 1257l191 339h252l-234 -339h-209z" />
    <glyph glyph-name="uni030C" unicode="&#x30c;" 
d="M360 1237h-137l-212 339h231l49 -87l50 87h227z" />
    <glyph glyph-name="uni0326" unicode="&#x326;" 
d="M756 -323h-200l136 371h186v-98z" />
    <glyph glyph-name="uni0327" unicode="&#x327;" 
d="M745 -105q126 -49 126 -189q0 -107 -78 -163.5t-192 -56.5q-77 0 -168 44v207q128 -64 171 -64q68 0 68 33q0 30 -31 48.5t-69.5 23t-74 6.5t-44.5 -1l141 237h220zM451 -218q1 0 2 1v-1h-2z" />
    <glyph glyph-name="uni0328" unicode="&#x328;" 
d="M891 20q-154 -37 -253 -104t-99 -132q0 -24 15 -24q32 0 188 140v-245q-106 -86 -209 -86q-91 0 -147.5 47t-56.5 155q0 123 87 224.5t225 144.5z" />
    <glyph glyph-name="uni1E20" unicode="&#x1e20;" horiz-adv-x="1671" 
d="M1323 182q-168 -212 -484 -212q-350 0 -545 199.5t-195 539.5q0 342 194.5 540.5t545.5 198.5q310 0 500.5 -156t231.5 -432h-269q-65 365 -463 365q-246 0 -359.5 -136.5t-113.5 -379.5q0 -117 26.5 -210t82 -162.5t147.5 -107t217 -37.5q184 0 296 82t154 231h-534v203
h811v-708h-206zM612 1728v193h450v-193h-450z" />
    <glyph glyph-name="uni1E21" unicode="&#x1e21;" horiz-adv-x="1323" 
d="M351 522q0 -68 14.5 -123.5t45 -100.5t84.5 -70t127 -25q145 0 217 88.5t72 230.5q0 143 -71.5 233t-217.5 90q-142 0 -206.5 -89.5t-64.5 -233.5zM911 115q-133 -136 -318 -136q-252 0 -383.5 145.5t-131.5 397.5q0 124 33.5 227t98 180t165 119.5t228.5 42.5
q199 0 325 -139l22 118h231v-1078q0 -261 -136.5 -397t-391.5 -136q-205 0 -338.5 99.5t-175.5 296.5h273q25 -91 78.5 -131.5t162.5 -40.5q141 0 199.5 79.5t58.5 237.5v115zM807 1330h-450v193h450v-193z" />
    <glyph glyph-name="Wgrave" unicode="&#x1e80;" horiz-adv-x="2358" 
d="M1170 966l-369 -966h-261l-504 1425h282l359 -1015l386 1015h222l367 -1017l383 1017h286l-538 -1425h-262zM1271 1661l-233 339h250l192 -339h-209z" />
    <glyph glyph-name="wgrave" unicode="&#x1e81;" horiz-adv-x="1770" 
d="M78 1070h279l206 -625l215 625h217l220 -624l199 624h277l-349 -1070h-254l-200 580l-199 -580h-249zM863 1263l-233 339h250l192 -339h-209z" />
    <glyph glyph-name="Wacute" unicode="&#x1e82;" horiz-adv-x="2358" 
d="M1170 966l-369 -966h-261l-504 1425h282l359 -1015l386 1015h222l367 -1017l383 1017h286l-538 -1425h-262zM1038 1655l192 339h251l-234 -339h-209z" />
    <glyph glyph-name="wacute" unicode="&#x1e83;" horiz-adv-x="1770" 
d="M78 1070h279l206 -625l215 625h217l220 -624l199 624h277l-349 -1070h-254l-200 580l-199 -580h-249zM718 1257l192 339h251l-234 -339h-209z" />
    <glyph glyph-name="Wdieresis" unicode="&#x1e84;" horiz-adv-x="2358" 
d="M1170 966l-369 -966h-261l-504 1425h282l359 -1015l386 1015h222l367 -1017l383 1017h286l-538 -1425h-262zM1026 1906q48 0 83.5 -35t35.5 -84q0 -48 -35.5 -83t-83.5 -35q-50 0 -85.5 35t-35.5 83q0 49 35.5 84t85.5 35zM1346 1905q50 0 85.5 -35t35.5 -84
q0 -48 -35.5 -82.5t-85.5 -34.5q-48 0 -83.5 35t-35.5 82q0 49 35.5 84t83.5 35z" />
    <glyph glyph-name="wdieresis" unicode="&#x1e85;" horiz-adv-x="1770" 
d="M78 1070h279l206 -625l215 625h217l220 -624l199 624h277l-349 -1070h-254l-200 580l-199 -580h-249zM780 1508q48 0 83.5 -35t35.5 -84q0 -48 -35.5 -83t-83.5 -35q-50 0 -85.5 35t-35.5 83q0 49 35.5 84t85.5 35zM1100 1507q50 0 85.5 -35t35.5 -84q0 -48 -35.5 -82.5
t-85.5 -34.5q-48 0 -83.5 35t-35.5 82q0 49 35.5 84t83.5 35z" />
    <glyph glyph-name="uni1EBC" unicode="&#x1ebc;" horiz-adv-x="1381" 
d="M140 1425h1099v-224h-829v-368h682v-225h-682v-385h851v-223h-1121v1425zM603 1919q48 0 130 -27l41 -13q-16 10 -16 33h187q0 -228 -146 -228q-45 0 -131 27l-41 13q16 -8 16 -32h-185q0 227 145 227z" />
    <glyph glyph-name="uni1EBD" unicode="&#x1ebd;" horiz-adv-x="1246" 
d="M878 672q-51 190 -255 190q-103 0 -166.5 -51.5t-89.5 -138.5h511zM78 535q0 254 144.5 405t400.5 151q257 0 403 -151.5t142 -404.5l-1 -64h-814q13 -118 79 -190t191 -72q192 0 249 170h280q-40 -187 -177 -293.5t-352 -106.5q-256 0 -400.5 151t-144.5 405zM538 1521
q48 0 130 -27l41 -13q-16 10 -16 33h187q0 -228 -146 -228q-46 0 -131 27l-41 13q16 -8 16 -32h-185q0 227 145 227z" />
    <glyph glyph-name="Ygrave" unicode="&#x1ef2;" horiz-adv-x="1461" 
d="M595 538l-517 887h293l362 -610l356 610h293l-518 -887v-538h-269v538zM748 1661l-233 339h250l192 -339h-209z" />
    <glyph glyph-name="ygrave" unicode="&#x1ef3;" horiz-adv-x="1371" 
d="M283 -539l261 591l-466 1018h298l312 -698l308 698h297l-734 -1609h-276zM700 1263l-233 339h250l192 -339h-209z" />
    <glyph glyph-name="uni1EF8" unicode="&#x1ef8;" horiz-adv-x="1461" 
d="M595 538l-517 887h293l362 -610l356 610h293l-518 -887v-538h-269v538zM602 1919q48 0 130 -27l41 -13q-16 10 -16 33h187q0 -228 -146 -228q-46 0 -131 27l-41 13q16 -8 16 -32h-185q0 227 145 227z" />
    <glyph glyph-name="uni1EF9" unicode="&#x1ef9;" horiz-adv-x="1371" 
d="M283 -539l261 591l-466 1018h298l312 -698l308 698h297l-734 -1609h-276zM554 1521q48 0 130 -27l41 -13q-16 10 -16 33h187q0 -228 -146 -228q-46 0 -131 27l-41 13q16 -8 16 -32h-185q0 227 145 227z" />
    <glyph glyph-name="endash" unicode="&#x2013;" horiz-adv-x="1098" 
d="M140 497v195h816v-195h-816z" />
    <glyph glyph-name="emdash" unicode="&#x2014;" horiz-adv-x="2035" 
d="M140 497v195h1753v-195h-1753z" />
    <glyph glyph-name="quoteleft" unicode="&#x2018;" horiz-adv-x="693" 
d="M344 1466h208l-178 -583h-234z" />
    <glyph glyph-name="quoteright" unicode="&#x2019;" horiz-adv-x="543" 
d="M265 883h-208l178 583h229z" />
    <glyph glyph-name="quotesinglbase" unicode="&#x201a;" horiz-adv-x="534" 
d="M242 -211h-210l151 429h226z" />
    <glyph glyph-name="quotedblleft" unicode="&#x201c;" horiz-adv-x="944" 
d="M399 1468h209l-178 -585h-232zM735 1468h209l-179 -585h-237z" />
    <glyph glyph-name="quotedblright" unicode="&#x201d;" horiz-adv-x="582" 
d="M208 883h-208l178 583h227zM504 883h-208l179 583h240z" />
    <glyph glyph-name="quotedblbase" unicode="&#x201e;" horiz-adv-x="586" 
d="M242 -211h-210l151 429h245zM550 -211h-209l150 429h235z" />
    <glyph glyph-name="dagger" unicode="&#x2020;" horiz-adv-x="1105" 
d="M658 718l7 -1007h-223l4 1007l-347 -5v209l346 -5l-6 468h227l-7 -468l346 5v-209z" />
    <glyph glyph-name="daggerdbl" unicode="&#x2021;" horiz-adv-x="1105" 
d="M658 376l347 5v-209l-346 5l7 -466h-224l4 466l-347 -5v209l347 -5v342l-347 -5v209l346 -5l-6 468h227l-7 -468l346 5v-209l-347 5v-342z" />
    <glyph glyph-name="bullet" unicode="&#x2022;" horiz-adv-x="565" 
d="M282 799q76 0 129.5 -52t53.5 -127t-53.5 -126.5t-129.5 -51.5q-78 0 -130.5 51t-52.5 127t52.5 127.5t130.5 51.5z" />
    <glyph glyph-name="ellipsis" unicode="&#x2026;" horiz-adv-x="1079" 
d="M227 227q56 0 92.5 -35.5t36.5 -90.5t-36.5 -91t-92.5 -36q-53 0 -90.5 36.5t-37.5 90.5t37.5 90t90.5 36zM535 227q56 0 92.5 -35.5t36.5 -90.5t-36.5 -91t-92.5 -36q-53 0 -90.5 36.5t-37.5 90.5t37.5 90t90.5 36zM851 227q56 0 92 -35.5t36 -90.5t-36.5 -91t-91.5 -36
q-53 0 -91 36.5t-38 90.5t38 90t91 36z" />
    <glyph glyph-name="perthousand" unicode="&#x2030;" horiz-adv-x="2087" 
d="M1045 171q50 0 78.5 44t28.5 117t-28.5 116.5t-78.5 43.5t-77.5 -43.5t-27.5 -116.5q0 -74 27.5 -117.5t77.5 -43.5zM1634 171q51 0 78.5 43.5t27.5 117.5t-27.5 117t-78.5 43q-50 0 -77.5 -43.5t-27.5 -116.5q0 -74 27.5 -117.5t77.5 -43.5zM346 1051q0 -73 28 -116.5
t79 -43.5q49 0 77 43.5t28 116.5q0 74 -27.5 117.5t-77.5 43.5q-52 0 -79.5 -43.5t-27.5 -117.5zM1634 689q147 0 233.5 -100t86.5 -257q0 -155 -87 -256.5t-233 -101.5q-106 0 -182.5 56.5t-111.5 152.5q-35 -96 -112 -152.5t-183 -56.5q-146 0 -233 101.5t-87 256.5
q0 157 86.5 257t233.5 100q107 0 184 -55t111 -151q34 96 110.5 151t183.5 55zM1338 1385l-933 -1385h-245l933 1385h245zM772 1051q0 -155 -87.5 -256t-231.5 -101q-147 0 -233.5 101t-86.5 256q0 158 86.5 257.5t233.5 99.5q145 0 232 -100t87 -257z" />
    <glyph glyph-name="guilsinglleft" unicode="&#x2039;" horiz-adv-x="836" 
d="M398 517l318 -369h-260l-316 369l316 370h260z" />
    <glyph glyph-name="guilsinglright" unicode="&#x203a;" horiz-adv-x="838" 
d="M380 148h-260l318 369l-318 370h260l317 -370z" />
    <glyph glyph-name="fraction" unicode="&#x2044;" horiz-adv-x="892" 
d="M785 1425h315l-992 -1425h-316z" />
    <glyph glyph-name="Euro" unicode="&#x20ac;" horiz-adv-x="1426" 
d="M898 1282q-150 0 -258.5 -94t-145.5 -298h749l-69 -180h-696v-18v-22h685l-54 -180h-618q32 -204 134 -298t277 -94q103 0 187 32.5t169 106.5v-225q-161 -100 -366 -100q-261 0 -417 142.5t-192 435.5h-180l62 180h105v13v27h-119l62 180h73q45 283 210 430.5t406 147.5
q142 0 241 -42.5t179 -135.5l-122 -149q-62 80 -128.5 110.5t-173.5 30.5z" />
    <glyph glyph-name="trademark" unicode="&#x2122;" horiz-adv-x="1202" 
d="M541 1314h-161v-344h-125v344h-163v114h449v-114zM1095 970h-122l2 181l-68 -175h-108l-67 173l2 -179h-124v456h140l105 -278l103 278h137v-456z" />
    <glyph glyph-name="partialdiff" unicode="&#x2202;" horiz-adv-x="1150" 
d="M555 173q134 0 202.5 113.5t74.5 351.5q-39 74 -101.5 109t-134.5 35q-130 0 -205 -88.5t-75 -232.5q0 -134 67.5 -211t171.5 -77zM542 1507q508 0 508 -842q0 -337 -125 -514t-374 -177q-198 0 -325 133t-127 349q0 237 135.5 381t358.5 144q125 0 225 -59
q-52 387 -281 387q-67 0 -131.5 -28t-145.5 -92l-121 154q108 88 203 126t200 38z" />
    <glyph glyph-name="emptyset" unicode="&#x2205;" horiz-adv-x="1740" 
d="M870 160q151 0 279 71.5t203.5 198.5t75.5 280q0 170 -94 310l-789 -760q144 -100 325 -100zM312 710q0 -170 94 -309l790 759q-147 102 -326 102q-151 0 -279 -72t-203.5 -199.5t-75.5 -280.5zM1479 1159q153 -196 153 -449q0 -104 -27.5 -201.5t-77 -179.5t-120 -150
t-154 -115.5t-182 -73.5t-201.5 -26q-262 0 -471 156l-157 -151l-143 137l162 155q-153 198 -153 449q0 207 103 379t277.5 270t381.5 98q260 0 471 -157l157 151l143 -137z" />
    <glyph glyph-name="product" unicode="&#x220f;" horiz-adv-x="1175" 
d="M983 1185v-1384h-212v1384h-369v-1384h-212v1384h-107v200h1009v-200h-109z" />
    <glyph glyph-name="summation" unicode="&#x2211;" horiz-adv-x="1173" 
d="M1099 -199h-1030v153l515 660l-459 619v152h962v-200h-668l427 -575l-479 -609h732v-200z" />
    <glyph glyph-name="minus" unicode="&#x2212;" horiz-adv-x="1097" 
d="M99 546v195h899v-195h-899z" />
    <glyph glyph-name="radical" unicode="&#x221a;" horiz-adv-x="1216" 
d="M674 -289h-187l-246 794h-142v194h291l177 -591l344 1439h205z" />
    <glyph glyph-name="infinity" unicode="&#x221e;" horiz-adv-x="2087" 
d="M610 173q54 0 103.5 20t94.5 61.5t76.5 116.5t42.5 175q-32 197 -118 287t-199 90q-122 0 -207 -99.5t-85 -277.5q0 -177 85 -275t207 -98zM1476 173q122 0 207.5 98t85.5 275q0 178 -85.5 277.5t-207.5 99.5q-55 0 -104.5 -20t-95 -62t-77 -116.5t-41.5 -174.5
q31 -197 117.5 -287t200.5 -90zM1476 1121q234 0 373 -160t139 -415q0 -254 -139 -413t-373 -159q-290 0 -433 256q-139 -256 -433 -256q-235 0 -373 159t-138 413q0 255 138 415t373 160q289 0 434 -254q135 254 432 254z" />
    <glyph glyph-name="integral" unicode="&#x222b;" horiz-adv-x="781" 
d="M472 1500q102 0 210 -105l-100 -173q-81 83 -110 83q-55 0 -55 -176q0 -144 73 -503q45 -234 61.5 -346t16.5 -205q0 -186 -75 -275t-184 -89q-103 0 -210 106l99 169q81 -80 111 -80q57 0 57 177q0 133 -74 502q-48 248 -64 354.5t-16 198.5q0 96 22 168t59.5 113
t82.5 61t96 20z" />
    <glyph glyph-name="approxequal" unicode="&#x2248;" horiz-adv-x="1204" 
d="M327 934q58 0 107 -16.5t133 -60.5q58 -29 89.5 -40t61.5 -11q38 0 72.5 30.5t84.5 107.5l150 -118q-133 -217 -309 -217q-58 0 -106 16.5t-134 60.5q-59 29 -89.5 40t-60.5 11q-39 0 -73 -29.5t-88 -105.5l-147 117q131 215 309 215zM327 549q59 0 108 -16.5t132 -59.5
q60 -30 90.5 -41t60.5 -11q38 0 72.5 30.5t84.5 107.5l150 -118q-132 -216 -309 -216q-58 0 -106.5 16.5t-133.5 59.5q-60 30 -90 41t-60 11q-39 0 -73 -29.5t-88 -106.5l-147 118q130 214 309 214z" />
    <glyph glyph-name="notequal" unicode="&#x2260;" horiz-adv-x="1126" 
d="M635 571h392v-193h-509l-118 -194h-230l118 194h-189v193h306l86 141h-392v193h508l118 195h230l-118 -195h190v-193h-306z" />
    <glyph glyph-name="lessequal" unicode="&#x2264;" horiz-adv-x="1097" 
d="M424 580l574 -230v-217l-899 372v151l899 372v-215zM998 48v-194h-899v194h899z" />
    <glyph glyph-name="greaterequal" unicode="&#x2265;" horiz-adv-x="1097" 
d="M998 505l-899 -372v215l577 232l-577 233v215l899 -372v-151zM998 55v-194h-899v194h899z" />
    <glyph glyph-name="lozenge" unicode="&#x25ca;" horiz-adv-x="1078" 
d="M741 692l-203 406l-199 -406l201 -406zM962 692l-349 -692h-148l-349 692l349 693h148z" />
    <glyph glyph-name="NULL" 
 />
    <glyph glyph-name="uni0122" horiz-adv-x="1671" 
d="M1323 182q-168 -212 -484 -212q-350 0 -545 199.5t-195 539.5q0 342 194.5 540.5t545.5 198.5q310 0 500.5 -156t231.5 -432h-269q-65 365 -463 365q-246 0 -359.5 -136.5t-113.5 -379.5q0 -117 26.5 -210t82 -162.5t147.5 -107t217 -37.5q184 0 296 82t154 231h-558v203
h835v-708h-206zM793 -435h-200l136 371h229z" />
    <glyph glyph-name="Itilde" horiz-adv-x="514" 
d="M151 1419h266v-1419h-266v1419zM157 1919q48 0 130 -27l41 -13q-16 10 -16 33h187q0 -228 -146 -228q-45 0 -131 27l-41 13q16 -8 16 -32h-185q0 227 145 227z" />
    <glyph glyph-name="Imacron" horiz-adv-x="519" 
d="M184 1419h266v-1419h-266v1419zM33 1728v193h450v-193h-450z" />
    <glyph glyph-name="Iogonek" horiz-adv-x="661" 
d="M222 1419h266v-1419h-5l2 -1q-154 -37 -253 -104t-99 -132q0 -24 15 -24q32 0 188 140v-245q-106 -86 -209 -86q-91 0 -147.5 47t-56.5 155q0 120 83 220t216 145v1304z" />
    <glyph glyph-name="_Designova" horiz-adv-x="1401" 
d="M172 798q0 -108 42 -206t112.5 -168.5t168.5 -112.5t206 -42q143 0 264.5 70.5t192.5 192t71 265.5t-70.5 266t-191.5 192.5t-265 70.5t-266 -70.5t-193 -192t-71 -265.5zM360 903q8 0 12 -4q53 -20 107 -29q43 -4 76 3q24 4 49 13q4 0 10.5 3.5t7.5 3.5l-17 8.5t-17.5 9
t-15 10t-14.5 13.5h20q37 0 80 18q123 77 208 77q6 0 23 1.5t25 0.5q62 -4 94 -36q7 -5 31 -34v-2q-3 2 -6 2q-28 11 -52 11q-63 0 -104 -62q-6 -11 -15.5 -33.5t-12.5 -29.5q-5 -12 -15 -36.5t-19 -44.5t-17 -37q-31 -65 -69 -111q-28 -40 -84 -72t-111 -48h-6l26 23
q16 15 28 47q8 25 24.5 71t23.5 68q31 89 60 139v1l-10 -12q-8 -8 -10 -15q-21 -24 -35 -60q-3 -5 -9 -5q-110 5 -190 73l-61 58q-5 7 -15 17zM699 197q-162 0 -300 81t-218.5 219.5t-80.5 300.5q1 122 48.5 233t128 191t191.5 127.5t233 47.5t233 -47.5t191.5 -127.5
t128 -191t47.5 -233q0 -163 -80.5 -301.5t-219.5 -219t-302 -80.5z" />
    <glyph glyph-name="_Origin" horiz-adv-x="1874" 
d="M554 504v-30h31q24 0 24 14q0 16 -24 16h-31zM554 449v-31h35q24 0 24 16q0 15 -24 15h-35zM815 499v-43h26q28 0 28 21q0 22 -28 22h-26zM143 878v-625h1588v625h-1588zM1366 499v-79h26q13 0 23 5q19 11 19 35q0 16 -5 21q-9 18 -37 18h-26zM946 674q0 -18 11 -29.5
t28 -11.5q18 0 29 11.5t11 29.5q0 19 -11 30.5t-29 11.5q-17 0 -28 -11.5t-11 -30.5zM1101 714v-44h27q28 0 28 22t-28 22h-27zM293 1227v-172h68q43 0 69 22t26 64q0 55 -44 75q-19 11 -49 11h-70zM472 1119q0 -44 33 -58q13 -7 39 -7q35 0 54 17q9 12 12 22l-38 1
q-3 -9 -16 -13q-2 0 -5.5 -0.5t-6.5 -0.5q-22 0 -29 15q-5 8 -5 15h100v11q0 30 -18.5 47.5t-49.5 17.5q-43 0 -63 -32q-7 -18 -7 -35zM621 1093q6 -39 67 -39q39 0 57 20q7 10 7 21q0 26 -41 35l-28 5q-18 3 -18 13q0 12 23 12t23 -14l38 2q-7 38 -62 38q-38 0 -54 -19
q-8 -8 -8 -21q0 -28 41 -37l26 -5q19 -3 19 -12q0 -14 -23 -14q-24 0 -27 16zM768 1184v-129h41v129h-41zM767 1218q0 -7 7 -12.5t15 -5.5q9 0 15.5 5.5t6.5 12.5t-6.5 12.5t-15.5 5.5q-8 0 -15 -5.5t-7 -12.5zM827 1120q0 -29 16 -45.5t44 -16.5q21 0 33 10q7 5 7 10h2v-23
q0 -24 -30 -24q-18 0 -25 7q-2 1 -5 8l-37 -6q3 -15 20 -25t46 -10q43 0 62 22q10 10 10 27v130h-40v-21h-3q-4 13 -21 19q-10 4 -19 4q-35 0 -52 -29q-8 -16 -8 -37zM993 1184v-129h41v75q0 17 13 23q5 3 14 3q25 0 25 -25v-76h42v82q0 31 -24 42q-11 7 -27 7
q-31 0 -43 -25h-1v23h-40zM1145 1119q0 -32 20 -48.5t52 -16.5q42 0 64 31q8 14 8 34q0 39 -33 59q-19 8 -39 8q-44 0 -63 -32q-9 -18 -9 -35zM1333 1184h-43l51 -129h45l52 129h-42l-31 -91h-1zM1439 1092q0 -26 23 -34q9 -4 25 -4q21 0 34 9l8 11h2v-19h37v88q0 19 -17 33
q-22 10 -43 10q-35 0 -53 -18q-9 -7 -12 -20l39 -4q4 16 25 16t21 -16v-1q0 -7 -15 -10q-2 -1 -9 -1.5t-10 -0.5q-55 -4 -55 -39zM319 395h-30v128h30v-128zM370 395h-31v128h25l64 -77v77h29v-128h-24l-63 79v-79zM524 395v128h63q52 0 52 -32q0 -20 -18 -29q2 0 2 -2
q20 -7 20 -30q0 -35 -51 -35h-68zM762 395h-105v128h107v-24h-78v-27h70v-23h-70v-29h76v-25zM815 395h-31v128h59q24 0 40 -11.5t16 -34.5q0 -14 -7 -24q-11 -13 -21 -18l27 -40h-32l-25 37h-26v-37zM1018 395h-105v128h29v-103h76v-25zM1069 395h-30v128h30v-128z
M1120 395h-30v128h25l63 -77v77h31v-128h-25l-64 79v-79zM1227 413q0 17 19 17q7 0 12 -5t5 -12q0 -6 -5 -19l-11 -27h-18l9 30q-11 4 -11 16zM1336 395v128h57q23 0 38 -8q33 -14 33 -55q0 -22 -9 -35q-16 -30 -62 -30h-57zM1587 395h-105v128h105v-24h-76v-27h69v-23h-69
v-29h76v-25zM419 610h-107v127h107v-23h-77v-28h70v-22h-70v-31h77v-23zM470 610h-30v127h25l64 -76v76h29v-127h-25l-63 78v-78zM621 714h-42v23h112v-23h-41v-104h-29v104zM748 610l-44 127h32l29 -89l30 89h27l29 -90l31 90h28l-41 -127h-33l-28 87l-29 -87h-31z
M1731 212l-1631 -1v1150h1674v-1149l-43 -1v1zM915 674q0 29 20.5 47.5t49.5 18.5q30 0 50.5 -18.5t20.5 -47.5t-20.5 -47.5t-49.5 -18.5t-50 18.5t-21 47.5zM1101 610h-28v127h57q22 0 30 -3q26 -14 26 -42q0 -15 -7 -25q-6 -10 -21 -17l28 -40h-32l-25 36h-28v-36z
M1231 610h-30v127h107v-23h-77v-28h69v-22h-69v-54zM1426 610h-107v127h107v-23h-77v-28h69v-22h-69v-31h77v-23zM1476 610h-28v127h22l66 -76v76h29v-127h-25l-64 78v-78zM333 1087v108h27q37 0 49 -23q7 -19 7 -31q0 -36 -26 -48q-10 -6 -31 -6h-26zM510 1133q1 12 15 22
q8 5 17 5q21 0 26 -16q4 -5 4 -11h-62zM869 1120q0 24 12 33q10 5 18 5q19 0 28 -19q0 -2 1.5 -8.5t1.5 -10.5q0 -36 -31 -36q-18 0 -28 18q-2 10 -2 18zM1187 1120q0 24 13 33q6 5 17 5q30 0 30 -38q0 -24 -13 -34q-8 -5 -17 -5q-19 0 -28 20q-2 10 -2 19zM1477 1093
q0 7 12 14q4 2 12 2q19 2 28 6v-13q0 -15 -15 -21q-12 -3 -16 -3q-21 0 -21 15z" />
    <glyph glyph-name="_Typeface" horiz-adv-x="2648" 
d="M389 795l-128 -321h31l36 89h151l35 -89h33l-130 321h-28zM581 709v-235h31v111q0 46 24 72t65 22l-2 29q-58 4 -89 -42l-4 43h-25zM829 469q43 0 74 24.5t35 63.5h-32q-2 -27 -24 -43t-53 -16q-38 0 -59 22.5t-23 63.5h193v14l-1 7q-3 46 -33 75t-74 29q-51 0 -83 -33.5
t-34 -83.5q-1 -51 29.5 -87t84.5 -36zM981 709v-235h29v111q0 43 22.5 68.5t59.5 25.5t52 -21.5t15 -65.5v-118h30v118q0 117 -98 117q-55 0 -82 -43l-5 43h-23zM1301 469q60 0 86 37l4 -31h25v166q-3 70 -80 70h-16q-38 0 -62.5 -23.5t-22.5 -58.5h30q1 26 16.5 39.5
t38.5 13.5h16q46 0 50 -45v-22h-14q-147 0 -147 -80q0 -32 21 -49t55 -17zM1737 461q65 0 100 37.5t35 107.5v182h-29v-182q0 -116 -106 -116q-50 0 -77 29.5t-27 86.5v182h-30v-182q0 -68 36 -106.5t98 -38.5zM1919 709v-235h29v111q0 43 22.5 68.5t59.5 25.5t52 -21.5
t15 -65.5v-118h30v118q0 117 -98 117q-55 0 -82 -43l-5 43h-23zM2278 470q53 0 81.5 32.5t28.5 85.5q0 55 -29 87.5t-81 32.5t-81.5 -32t-29.5 -88q0 -54 29.5 -86t81.5 -32zM466 593h-125l62 157zM750 612q6 30 28.5 49t53.5 19q32 0 52 -20.5t24 -47.5h-158zM1305 497
q-47 0 -47 39q0 37 63 49q30 3 65 2v-20q0 -70 -81 -70zM2548 355h-2448v540h2448v-540zM2278 500q-42 0 -61 25.5t-19 62.5q0 90 80 90q79 0 79 -90q0 -40 -19.5 -64t-59.5 -24z" />
    <glyph glyph-name="_VendorID" horiz-adv-x="1106" 
d="M116 59q0 -16 12 -16q14 0 14 16v1q0 16 -13 16t-13 -17zM199 62q-3 14 -11 14q-11 0 -12 -14h23zM302 60q0 -17 12 -17q14 0 14 16v1q0 16 -14 16q-12 0 -12 -16zM419 59q0 -16 12 -16q14 0 14 16q0 17 -14 17q-12 0 -12 -17zM529 48q0 -5 8 -5q11 0 11 8v6
q-19 2 -19 -9zM613 59q0 -16 13 -16q12 0 12 16q0 17 -12 17q-13 0 -13 -17zM882 59q0 -16 14 -16q12 0 12 16q0 17 -12 17q-14 0 -14 -17zM255 423q0 -56 39.5 -96t96.5 -40q56 0 94.5 39.5t38.5 96.5q0 58 -37.5 96.5t-95.5 38.5q-11 0 -22 -3l79 112h-60l-90 -128
q-43 -60 -43 -116zM580 423q0 -57 39.5 -96.5t95.5 -39.5t94.5 39.5t38.5 96.5t-38 96t-95 39q-13 0 -23 -3l80 112h-61l-90 -128q-41 -58 -41 -116zM255 861q0 -56 39.5 -95t96.5 -39q56 0 94.5 39t38.5 95q0 58 -37.5 96.5t-95.5 38.5q-15 0 -22 -2l79 114h-60l-90 -132
q-43 -62 -43 -115zM580 861q0 -56 39.5 -95t95.5 -39t94.5 39t38.5 95q0 58 -38 96.5t-95 38.5q-16 0 -24 -2l81 114h-61l-90 -132q-41 -62 -41 -115zM103 59q0 12 7 19t17 7q8 0 11 -3l4 -5v24h12v-67h-12v9l-4 -7q-6 -4 -14 -4q-21 0 -21 27zM163 59q0 11 7 18.5t18 7.5
q10 0 17 -7t7 -18q0 -2 -2 -5h-34q1 -12 12 -12q9 0 11 8h11q-3 -19 -22 -19q-25 0 -25 27zM229 48q3 -8 8 -8q9 0 9 7q0 2 -11 8q-17 5 -17 15q0 15 19 15q20 0 20 -15h-13q-2 6 -7 6q-6 0 -6 -5q0 -4 11 -9q16 -3 16 -14q0 -16 -21 -16q-18 0 -21 16h13zM265 95q0 6 8 6
q7 0 7 -6q0 -8 -7 -8q-8 0 -8 8zM279 34h-13v51h13v-51zM289 32h13v-1q0 -8 12 -8q10 0 14 12v8l-4 -7q-8 -2 -13 -2q-22 0 -22 25q0 26 24 26q8 0 11 -3l4 -5v8h13v-38q0 -8 -2 -11q0 -22 -25 -22t-25 17v1zM364 34h-13v51h13v-10l4 7q4 3 12 3q14 0 18 -14q1 -3 1 -9v-28
h-14v32q0 10 -9 10q-12 0 -12 -19v-23zM406 59q0 11 7 18.5t18 7.5q26 0 26 -26q0 -27 -26 -27q-11 0 -18 7.5t-7 19.5zM478 34l-17 51h14l13 -42l12 42h13l-18 -51h-17zM517 48q0 15 28 15h3v7q0 6 -8 6q-11 0 -11 -8h-12q0 17 23 17q17 0 19 -14v-37h-11v6l-3 -5
q-6 -3 -13 -3q-15 0 -15 16zM573 74h-5v9h5v7q0 14 18 14h5v-10q-10 2 -10 -5v-6h10v-9h-10v-40h-13v40zM600 59q0 26 26 26q25 0 25 -26q0 -27 -25 -27q-26 0 -26 27zM671 34h-11v51h11v-10l5 7q4 3 12 3q14 0 18 -14v-37h-13v32q-3 10 -8 10q-14 0 -14 -19v-23zM720 74h-7
v9h7v12h13v-12h9v-9h-9v-26q2 -9 8 -5v-10h-7q-14 0 -14 10v31zM760 48q2 -8 9 -8q8 0 8 7q0 2 -11 8q-16 4 -16 15q0 15 18 15t23 -15h-15q0 6 -9 6q-4 0 -4 -5t10 -9q18 -4 18 -14q0 -16 -22 -16q-19 0 -23 16h14zM794 39q0 9 9 9q8 0 8 -9q0 -7 -8 -7q-9 0 -9 7zM817 59
q0 11 7.5 18.5t16.5 7.5q23 0 23 -19h-12q-3 10 -11 10q-11 0 -11 -17q0 -16 11 -16q9 0 11 8h12q-1 -19 -23 -19q-24 0 -24 27zM869 59q0 26 27 26q24 0 24 -26q0 -27 -24 -27q-27 0 -27 27zM942 34h-13v51h13v-9l5 6q3 3 8 3q12 0 17 -10l5 7q3 3 10 3q16 0 16 -12
q1 -3 1 -11v-28h-12v26q0 16 -11 16q-8 0 -8 -16v-26h-12v34q-5 8 -9 8q-10 0 -10 -16v-26zM305 423q0 37 24 60.5t62 23.5q36 0 60 -23.5t24 -60.5q0 -39 -24 -63t-60 -24q-38 0 -62 24t-24 63zM629 423q0 37 24 60.5t62 23.5q36 0 58.5 -23.5t22.5 -60.5q0 -39 -22.5 -63
t-58.5 -24q-38 0 -62 24t-24 63zM305 861q0 39 24 62.5t62 23.5q36 0 60 -24.5t24 -61.5t-24 -61.5t-60 -24.5q-38 0 -62 24t-24 62zM1006 143h-906v1104h906v-1104zM629 861q0 38 24 62t62 24q36 0 58.5 -24t22.5 -62t-22.5 -62t-58.5 -24q-38 0 -62 24t-24 62z" />
    </font>
</defs>
</svg>
