<?xml version="1.0" standalone="no"?>
<!DOCTYPE svg PUBLIC "-//W3C//DTD SVG 1.1//EN" "http://www.w3.org/Graphics/SVG/1.1/DTD/svg11.dtd" >
<svg xmlns="http://www.w3.org/2000/svg" xmlns:xlink="http://www.w3.org/1999/xlink" version="1.1">
<metadata>
Created by FontForge 20201107 at Tue Aug 12 14:25:38 2025
 By 
Copyright (c) 2025 by Designova. All rights reserved.
</metadata>
<defs>
<font id="ArenaUno-Light" horiz-adv-x="1091" >
  <font-face 
    font-family="Arena Uno Light"
    font-weight="300"
    font-stretch="normal"
    units-per-em="2048"
    panose-1="0 0 0 0 0 0 0 0 0 0"
    ascent="1638"
    descent="-410"
    x-height="1023"
    cap-height="1403"
    bbox="-208 -541 2548 1907"
    underline-thickness="50"
    underline-position="-125"
    unicode-range="U+000D-25CA"
  />
<missing-glyph horiz-adv-x="1608" 
d="M425 294h-26v-129h31v83h1l62 -83h29v129h-31v-81h-2zM535 213q0 -28 25 -43q18 -6 29 -6q32 0 48 23q6 12 6 26q0 24 -15 37t-39 13q-36 0 -48 -24q-6 -11 -6 -26zM694 230q0 -41 32 -59q19 -7 37 -7q27 0 44.5 14t17.5 40v17h-59v-21h31q0 -16 -16 -22q-5 -4 -18 -4
q-23 0 -33 19q-5 7 -5 23q0 28 18 38q12 5 19 5q28 0 31 -21h31q-1 18 -20 33q-17 11 -42 11q-31 0 -49.5 -18t-18.5 -48zM872 294h-29v-129h29v129zM936 192l-22 71h-33l40 -99l-2 -5q-2 -11 -22 -7l-7 -19q10 -4 20 -4q20 0 32 14q5 3 8 13l41 107h-31l-22 -71h-2z
M1031 263h-30v-134h31v52q6 -10 18 -14q3 -3 13 -3q27 0 39 23q6 10 6 26q0 31 -21 45q-13 5 -24 5q-17 0 -25 -9q-4 -3 -6 -9h-1v18zM1150 294h-27v-129h28v56q0 14 11 18q4 3 11 3q19 0 19 -19v-58h31v62q0 24 -19 33q-12 3 -19 3q-25 0 -34 -18h-1v49zM389 1112l301 -301
l-301 -301l116 -114l299 298l304 -298l118 114l-301 301l296 301l-113 114l-304 -299l-297 299zM565 213q0 12 6.5 21t17.5 9q23 0 23 -30q0 -17 -10 -25q-10 -2 -13 -2q-17 0 -20 14q-4 5 -4 13zM1031 213q0 17 10 25q5 5 12 5q24 0 24 -30q0 -15 -10 -25q-8 -2 -14 -2
q-14 0 -20 14q-2 8 -2 13zM1419 1377v-1378h-1224v1378h1224z" />
    <glyph glyph-name=".notdef" horiz-adv-x="1608" 
d="M425 294h-26v-129h31v83h1l62 -83h29v129h-31v-81h-2zM535 213q0 -28 25 -43q18 -6 29 -6q32 0 48 23q6 12 6 26q0 24 -15 37t-39 13q-36 0 -48 -24q-6 -11 -6 -26zM694 230q0 -41 32 -59q19 -7 37 -7q27 0 44.5 14t17.5 40v17h-59v-21h31q0 -16 -16 -22q-5 -4 -18 -4
q-23 0 -33 19q-5 7 -5 23q0 28 18 38q12 5 19 5q28 0 31 -21h31q-1 18 -20 33q-17 11 -42 11q-31 0 -49.5 -18t-18.5 -48zM872 294h-29v-129h29v129zM936 192l-22 71h-33l40 -99l-2 -5q-2 -11 -22 -7l-7 -19q10 -4 20 -4q20 0 32 14q5 3 8 13l41 107h-31l-22 -71h-2z
M1031 263h-30v-134h31v52q6 -10 18 -14q3 -3 13 -3q27 0 39 23q6 10 6 26q0 31 -21 45q-13 5 -24 5q-17 0 -25 -9q-4 -3 -6 -9h-1v18zM1150 294h-27v-129h28v56q0 14 11 18q4 3 11 3q19 0 19 -19v-58h31v62q0 24 -19 33q-12 3 -19 3q-25 0 -34 -18h-1v49zM389 1112l301 -301
l-301 -301l116 -114l299 298l304 -298l118 114l-301 301l296 301l-113 114l-304 -299l-297 299zM565 213q0 12 6.5 21t17.5 9q23 0 23 -30q0 -17 -10 -25q-10 -2 -13 -2q-17 0 -20 14q-4 5 -4 13zM1031 213q0 17 10 25q5 5 12 5q24 0 24 -30q0 -15 -10 -25q-8 -2 -14 -2
q-14 0 -20 14q-2 8 -2 13zM1419 1377v-1378h-1224v1378h1224z" />
    <glyph glyph-name="uni0000" horiz-adv-x="0" 
 />
    <glyph glyph-name="uni0000" horiz-adv-x="0" 
 />
    <glyph glyph-name="uni000D" unicode="&#xd;" horiz-adv-x="512" 
 />
    <glyph glyph-name="space" unicode=" " horiz-adv-x="682" 
 />
    <glyph glyph-name="exclam" unicode="!" horiz-adv-x="404" 
d="M235 249h-108l-12 1134h132zM181 132q35 0 58.5 -22.5t23.5 -56.5t-23.5 -57t-58.5 -23q-34 0 -58 22.5t-24 57.5q0 34 24 56.5t58 22.5z" />
    <glyph glyph-name="quotedbl" unicode="&#x22;" horiz-adv-x="243" 
d="M210 955h-100l-11 516h119zM390 955h-100l-10 516h118z" />
    <glyph glyph-name="numbersign" unicode="#" horiz-adv-x="1476" 
d="M1034 820h-533l-60 -260h533zM420 465l-106 -465h-104l107 465h-218v95h239l60 260h-237v97h258l106 463h104l-106 -463h532l106 463h103l-106 -463h218v-97h-239l-60 -260h237v-95h-258l-106 -465h-104l106 465h-532z" />
    <glyph glyph-name="dollar" unicode="$" horiz-adv-x="1127" 
d="M634 622v-545q128 12 198.5 78.5t70.5 171.5q0 107 -65.5 178.5t-203.5 116.5zM282 1042q0 -112 63 -174t187 -102v537q-110 -14 -180 -81t-70 -180zM634 1306v-561q195 -58 293 -158.5t98 -251.5q0 -145 -106 -246t-285 -115v-149h-102v149q-183 14 -303 122.5
t-130 296.5h120q10 -137 93.5 -218t219.5 -95v566q-81 23 -143.5 52.5t-117 75t-83.5 112t-29 150.5q0 157 105 256t268 115v151h102v-149q177 -14 277 -128t117 -282h-119q-12 135 -82.5 214.5t-192.5 92.5z" />
    <glyph glyph-name="percent" unicode="%" horiz-adv-x="1417" 
d="M388 1408q131 0 209.5 -92.5t78.5 -236.5q0 -141 -78.5 -235t-209.5 -94q-132 0 -210.5 93.5t-78.5 235.5q0 145 78 237t211 92zM307 0h-130l931 1383h131zM388 1309q-82 0 -126.5 -61t-44.5 -169q0 -106 44.5 -168t126.5 -62q80 0 125.5 62.5t45.5 167.5
q0 107 -45.5 168.5t-125.5 61.5zM1028 631q131 0 210 -92.5t79 -236.5q0 -142 -79 -235.5t-210 -93.5q-132 0 -210.5 93.5t-78.5 235.5q0 144 78 236.5t211 92.5zM1028 532q-82 0 -126.5 -61.5t-44.5 -168.5t44.5 -168.5t126.5 -61.5q81 0 125.5 62t44.5 168
q0 107 -44.5 168.5t-125.5 61.5z" />
    <glyph glyph-name="ampersand" unicode="&#x26;" horiz-adv-x="1580" 
d="M595 80q115 0 219.5 44.5t178.5 128.5q-133 99 -272 235.5t-236 254.5q-131 -68 -204 -148t-73 -196q0 -79 33 -142t88.5 -100.5t123 -57t142.5 -19.5zM526 835l23 10q49 20 99 50t99.5 69.5t80.5 89t31 98.5q0 86 -65.5 130t-154.5 44q-97 0 -167.5 -52t-70.5 -146
q0 -114 125 -293zM1078 193q-93 -107 -223 -161.5t-277 -54.5q-127 0 -234 46t-176 142.5t-69 227.5q0 77 26 141t76 114.5t103 87t127 75.5q-132 193 -132 324q0 93 47 161.5t121 101t163 32.5q143 0 237 -75t94 -196q0 -40 -15.5 -80t-38 -72t-59.5 -65t-66.5 -55
t-73 -47.5t-66.5 -37.5t-58 -30q79 -97 220 -227t253 -208q88 152 96 332h102q-2 -91 -32 -200t-82 -191q108 -74 181 -115.5t158 -73.5l-39 -96q-91 32 -166 74.5t-197 125.5z" />
    <glyph glyph-name="quotesingle" unicode="'" horiz-adv-x="317" 
d="M207 955h-100l-8 516h118z" />
    <glyph glyph-name="parenleft" unicode="(" horiz-adv-x="615" 
d="M386 1558h108q-118 -179 -183.5 -400.5t-65.5 -456.5q0 -233 65.5 -455.5t183.5 -401.5h-108q-113 160 -179.5 391t-66.5 466q0 236 66.5 466t179.5 391z" />
    <glyph glyph-name="parenright" unicode=")" horiz-adv-x="617" 
d="M120 1558h108q113 -161 180 -391.5t67 -465.5t-67 -465.5t-180 -391.5h-108q119 177 184 399.5t65 457.5q0 237 -65 458t-184 399z" />
    <glyph glyph-name="asterisk" unicode="*" horiz-adv-x="944" 
d="M500 600l313 111l31 -99l-314 -93l224 -280l-88 -59l-211 291l-209 -291l-89 59l224 280l-314 93l31 99l313 -111l-10 362h109z" />
    <glyph glyph-name="plus" unicode="+" horiz-adv-x="1057" 
d="M958 588h-379v-419h-101v419h-379v98h379v420h101v-420h379v-98z" />
    <glyph glyph-name="comma" unicode="," horiz-adv-x="494" 
d="M353 123l-144 -351h-110l123 351h131z" />
    <glyph glyph-name="hyphen" unicode="-" horiz-adv-x="745" 
d="M603 520h-463v98h463v-98z" />
    <glyph glyph-name="period" unicode="." horiz-adv-x="404" 
d="M181 132q35 0 58.5 -22.5t23.5 -56.5t-23.5 -57t-58.5 -23q-34 0 -58 22.5t-24 57.5q0 34 24 56.5t58 22.5z" />
    <glyph glyph-name="slash" unicode="/" horiz-adv-x="827" 
d="M205 -58h-106l522 1500h106z" />
    <glyph glyph-name="zero" unicode="0" horiz-adv-x="1148" 
d="M574 1407q106 0 189.5 -35.5t140 -98t93 -153t52.5 -196.5t16 -232q0 -127 -16 -232.5t-52.5 -196.5t-93 -153.5t-140 -98t-189.5 -35.5q-131 0 -227.5 53.5t-153 152t-83.5 225t-27 285.5q0 160 27 286.5t83.5 224.5t153 151t227.5 53zM574 73q372 0 372 619
q0 618 -372 618q-373 0 -373 -618q0 -140 20 -249.5t63 -194t116 -130t174 -45.5z" />
    <glyph glyph-name="one" unicode="1" horiz-adv-x="870" 
d="M682 1380v-1377h-97v1278h-398v99h495z" />
    <glyph glyph-name="two" unicode="2" horiz-adv-x="1189" 
d="M1043 100v-97h-939v71l495 468q184 174 251.5 274t67.5 203q0 127 -80 209t-224 82t-235.5 -87.5t-108.5 -240.5l-4 -34h-110l4 38q21 193 146 307t313 114q199 0 308 -108.5t109 -273.5q0 -130 -84 -252.5t-278 -301.5l-396 -371h765z" />
    <glyph glyph-name="three" unicode="3" horiz-adv-x="1126" 
d="M776 723q127 -37 196.5 -123t69.5 -220q0 -123 -65.5 -216t-175 -140.5t-244.5 -47.5q-198 0 -322.5 107t-146.5 312l-4 38h110l4 -34q17 -150 112 -238t251 -88q161 0 261.5 80.5t100.5 224.5q0 129 -95 204.5t-288 75.5h-50v97h50q90 0 170 33.5t133.5 101.5t53.5 156
q0 128 -82 196t-215 68q-142 0 -233 -80t-107 -225l-4 -34h-110l4 38q18 185 143 291.5t312 106.5q192 0 300.5 -98.5t108.5 -254.5q0 -112 -65.5 -200.5t-172.5 -130.5z" />
    <glyph glyph-name="four" unicode="4" horiz-adv-x="1278" 
d="M256 478h572v727q-63 -86 -137 -177zM1131 478v-97h-194v-378h-109v378h-724v65l739 934h94v-902h194z" />
    <glyph glyph-name="five" unicode="5" horiz-adv-x="1172" 
d="M580 889q207 0 326.5 -127.5t119.5 -325.5q0 -140 -67.5 -246.5t-175.5 -160t-237 -53.5q-115 0 -208.5 39.5t-159.5 129.5t-80 221l-4 38h110l4 -34q18 -136 105.5 -216.5t232.5 -80.5q71 0 135 22.5t115 65t81.5 113t30.5 158.5q0 165 -92.5 262.5t-245.5 97.5
q-245 0 -346 -216h-104l128 798h760v-97h-668l-86 -506q147 118 326 118z" />
    <glyph glyph-name="six" unicode="6" horiz-adv-x="1123" 
d="M552 73q164 0 266 106.5t102 266.5q0 172 -96.5 280.5t-261.5 108.5q-155 0 -261 -101.5t-106 -260.5q0 -113 41 -203t123.5 -143.5t192.5 -53.5zM572 932q110 0 199 -38t147 -103.5t89.5 -152.5t31.5 -186q0 -203 -138 -339.5t-351 -136.5q-229 0 -353.5 153.5
t-124.5 478.5q0 207 37 361.5t106.5 249.5t163.5 141.5t212 46.5q183 0 287.5 -94.5t135.5 -265.5l8 -39h-112l-8 33q-28 137 -105.5 203t-208.5 66q-80 0 -143.5 -26t-120 -88t-93 -180t-46.5 -286q137 202 387 202z" />
    <glyph glyph-name="seven" unicode="7" 
d="M1029 1380v-56l-735 -1321h-122l713 1280h-823v97h967z" />
    <glyph glyph-name="eight" unicode="8" horiz-adv-x="1178" 
d="M593 71q70 0 134 18.5t115.5 54t82 93.5t30.5 131q0 136 -91 218.5t-267 82.5q-178 0 -276.5 -83.5t-98.5 -217.5q0 -96 53 -165t135.5 -100.5t182.5 -31.5zM289 1038q0 -88 44.5 -151t114.5 -92t156 -29q134 0 225 70.5t91 201.5q0 124 -84 198t-232 74q-147 0 -231 -74
t-84 -198zM825 723q119 -44 183.5 -136.5t64.5 -216.5q0 -96 -40 -173t-108 -125t-154.5 -73t-182.5 -25q-137 0 -244.5 42.5t-173.5 134t-66 219.5q0 123 72.5 216t196.5 137q-95 41 -148.5 123.5t-53.5 191.5q0 160 116.5 264.5t316.5 104.5q205 0 318.5 -103.5
t113.5 -265.5q0 -110 -56.5 -192.5t-154.5 -122.5z" />
    <glyph glyph-name="nine" unicode="9" horiz-adv-x="1134" 
d="M560 548q155 0 259.5 101.5t104.5 260.5q0 174 -94.5 287t-259.5 113q-166 0 -267.5 -106t-101.5 -267q0 -170 97 -279.5t262 -109.5zM570 1407q230 0 355 -153.5t125 -478.5q0 -399 -138.5 -599t-380.5 -200q-356 0 -425 362l-4 39h111l6 -33q29 -138 107 -204.5
t209 -66.5q359 0 399 580q-134 -202 -384 -202q-146 0 -253.5 66t-160.5 173.5t-53 240.5q0 203 137.5 339.5t349.5 136.5z" />
    <glyph glyph-name="colon" unicode=":" horiz-adv-x="404" 
d="M181 1093q35 0 58.5 -23t23.5 -57q0 -33 -23.5 -56.5t-58.5 -23.5q-34 0 -58 23.5t-24 56.5q0 34 24 57t58 23zM181 132q35 0 58.5 -22.5t23.5 -56.5t-23.5 -57t-58.5 -23q-34 0 -58 22.5t-24 57.5q0 34 24 56.5t58 22.5z" />
    <glyph glyph-name="semicolon" unicode=";" horiz-adv-x="511" 
d="M286 1093q35 0 59 -23t24 -57q0 -33 -23.5 -56.5t-59.5 -23.5q-33 0 -57.5 23.5t-24.5 56.5q0 34 24 57t58 23zM357 129l-146 -357h-112l123 357h135z" />
    <glyph glyph-name="less" unicode="&#x3c;" horiz-adv-x="1049" 
d="M950 868l-709 -330l709 -333v-113l-851 400v87l851 402v-113z" />
    <glyph glyph-name="equal" unicode="=" horiz-adv-x="1088" 
d="M989 769h-890v96h890v-96zM989 409h-890v96h890v-96z" />
    <glyph glyph-name="greater" unicode="&#x3e;" horiz-adv-x="1049" 
d="M950 579v-87l-851 -400v111l711 333l-711 330v115z" />
    <glyph glyph-name="question" unicode="?" horiz-adv-x="1109" 
d="M551 1410q196 0 306.5 -104t110.5 -264q0 -200 -201 -386q-127 -117 -162 -192.5t-35 -214.5h-112q1 112 16 177t59 131t138 156q92 91 132 167t40 162q0 124 -79 194.5t-213 70.5q-154 0 -240.5 -91.5t-94.5 -253.5h-117q1 199 127 323.5t325 124.5zM517 132
q34 0 58 -22.5t24 -56.5q0 -35 -24 -57.5t-58 -22.5q-36 0 -59.5 22.5t-23.5 57.5q0 34 23.5 56.5t59.5 22.5z" />
    <glyph glyph-name="at" unicode="@" horiz-adv-x="1728" 
d="M1041 554l19 78q26 110 -14 178.5t-125 68.5q-132 0 -228.5 -124t-96.5 -297q0 -115 45 -170.5t126 -55.5q88 0 161.5 80.5t112.5 241.5zM1137 945h118l-113 -459q-21 -89 -21 -139q0 -103 119 -103q118 0 200.5 115.5t82.5 306.5q0 178 -75.5 308t-206.5 195.5
t-301 65.5q-102 0 -206 -31.5t-198.5 -95t-168 -150t-117 -206t-43.5 -253.5q0 -145 48.5 -262t131.5 -190.5t189 -112.5t225 -39q156 0 283.5 39.5t265.5 136.5l51 -87q-163 -108 -301.5 -147.5t-300.5 -39.5q-106 0 -206.5 27t-190.5 83.5t-157 137.5t-106.5 197
t-39.5 253q0 153 49 288t133 234t193 171t231 108t246 36q198 0 352.5 -83t240 -233t85.5 -342q0 -127 -34 -230t-91.5 -166.5t-128.5 -97.5t-148 -34q-76 0 -134.5 32t-79.5 103l-11 -23q-109 -127 -252 -127q-50 0 -95.5 15.5t-88.5 49.5t-68.5 99.5t-25.5 154.5
q0 139 57.5 260t162.5 195.5t231 74.5q119 0 177 -74l15 -44z" />
    <glyph glyph-name="A" unicode="A" horiz-adv-x="1433" 
d="M1019 504l-303 760l-306 -760h609zM99 0l563 1410h104l567 -1410h-112l-160 398h-693l-161 -398h-108z" />
    <glyph glyph-name="B" unicode="B" horiz-adv-x="1352" 
d="M636 675h-423v-575h465q53 0 91.5 1.5t89 7.5t86 17t72.5 31.5t60 48.5t37.5 70.5t14.5 96.5q0 63 -18 112.5t-52.5 81.5t-77.5 54t-102 33.5t-115.5 16t-127.5 4.5zM638 1308h-425v-531h423q69 0 105 1.5t96.5 7.5t93.5 22t69.5 42.5t52.5 71t16 104.5q0 75 -22 127.5
t-57 82.5t-94.5 46.5t-116.5 21t-141 4.5zM678 0h-571v1410h531q63 0 115 -3.5t109.5 -14t102.5 -28t87 -46.5t69.5 -68.5t44 -96.5t16.5 -127q0 -84 -33 -154q-21 -50 -66.5 -85.5t-126.5 -57.5q284 -68 284 -356q0 -67 -18 -122t-47.5 -93.5t-73.5 -67t-91.5 -45.5
t-106 -27.5t-111.5 -14t-114 -3.5z" />
    <glyph glyph-name="C" unicode="C" horiz-adv-x="1565" 
d="M793 -24q-198 0 -353 83q-164 84 -253.5 248.5t-89.5 398.5q0 154 37.5 278t102 207t155 139t193 80.5t218.5 24.5q257 0 427.5 -138.5t214.5 -395.5h-111q-37 209 -175 322.5t-356 113.5q-278 0 -438 -163.5t-160 -467.5q0 -308 157 -470.5t431 -162.5q237 0 377 113
t174 316h112q-41 -257 -214.5 -391.5t-448.5 -134.5z" />
    <glyph glyph-name="D" unicode="D" horiz-adv-x="1446" 
d="M522 1310h-274v-1210h274q145 0 253 15.5t202.5 56t153.5 108t92.5 174t33.5 252.5q0 299 -192 451.5t-543 152.5zM522 0h-382v1410h382q394 0 619.5 -182.5t225.5 -521.5q0 -517 -407 -647q-188 -59 -438 -59z" />
    <glyph glyph-name="E" unicode="E" horiz-adv-x="1264" 
d="M1144 0h-1004v1410h982v-102h-874v-543h719v-103h-719v-562h896v-100z" />
    <glyph glyph-name="F" unicode="F" horiz-adv-x="1159" 
d="M248 0h-108v1410h982v-102h-874v-543h719v-103h-719v-662z" />
    <glyph glyph-name="G" unicode="G" horiz-adv-x="1568" 
d="M780 -34q-315 0 -498 197t-183 536q0 346 185.5 541t512.5 195q267 0 438 -131.5t206 -378.5h-102q-83 409 -542 409q-288 0 -443.5 -167t-155.5 -468q0 -299 156 -467.5t431 -168.5q241 0 385.5 129.5t161.5 357.5h-567v101h703v-651h-94l-16 295q-21 -46 -51 -88.5
t-80.5 -87.5t-111.5 -78t-148 -54t-187 -21z" />
    <glyph glyph-name="H" unicode="H" horiz-adv-x="1393" 
d="M246 0h-106v1410h106v-626h903v626h103v-1410h-103v685h-903v-685z" />
    <glyph glyph-name="I" unicode="I" horiz-adv-x="449" 
d="M276 0h-104v1403h104v-1403z" />
    <glyph glyph-name="J" unicode="J" horiz-adv-x="1369" 
d="M57 623h102q-4 -269 124 -413t360 -144q487 0 487 538v806h100v-806q0 -308 -151.5 -473t-435.5 -165q-280 0 -435.5 174t-150.5 483z" />
    <glyph glyph-name="K" unicode="K" horiz-adv-x="1339" 
d="M249 -2h-109v1412h109v-755l842 755h171l-701 -623l721 -787h-157l-642 718l-234 -208v-512z" />
    <glyph glyph-name="L" unicode="L" horiz-adv-x="1244" 
d="M140 0v1410h105v-1313h879v-97h-984z" />
    <glyph glyph-name="M" unicode="M" horiz-adv-x="1633" 
d="M244 1144v-1144h-104v1405h99l576 -1306l571 1306h105v-1405h-104v1161l-510 -1161h-131z" />
    <glyph glyph-name="N" unicode="N" horiz-adv-x="1334" 
d="M241 0h-101v1404h99l855 -1223v1223h99v-1404h-93l-859 1233v-1233z" />
    <glyph glyph-name="O" unicode="O" horiz-adv-x="1585" 
d="M791 -34q-332 0 -512 197t-180 538q0 343 179 538.5t513 195.5q335 0 514.5 -196.5t179.5 -537.5q0 -345 -183 -540t-511 -195zM791 66q285 0 437 166.5t152 468.5q0 307 -150 470t-439 163t-438.5 -163t-149.5 -470q0 -306 151 -470.5t437 -164.5z" />
    <glyph glyph-name="P" unicode="P" horiz-adv-x="1251" 
d="M671 1308h-426v-657h426q191 0 285 80t94 246q0 172 -91.5 251.5t-287.5 79.5zM245 545v-545h-105v1410h531q238 0 359 -109.5t121 -323.5q0 -208 -125 -320t-355 -112h-426z" />
    <glyph glyph-name="Q" unicode="Q" horiz-adv-x="1585" 
d="M791 66q285 0 437 166.5t152 468.5q0 307 -150 470t-439 163q-288 0 -438 -163t-150 -470q0 -306 151 -470.5t437 -164.5zM791 -34q-332 0 -512 197t-180 538q0 343 179 538.5t513 195.5q335 0 514.5 -196.5t179.5 -537.5q0 -373 -211 -567q92 -24 197 -113l-65 -77
q-78 58 -134 80t-120 23q-153 -81 -361 -81z" />
    <glyph glyph-name="R" unicode="R" horiz-adv-x="1314" 
d="M623 1308h-375v-592h439q212 0 307.5 66.5t95.5 228.5q0 58 -12 103.5t-31.5 76.5t-54 53t-69 34.5t-87.5 19t-99 8.5t-114 2zM248 617v-617h-108v1410h483q188 0 307 -32q131 -35 197 -123.5t66 -243.5q0 -122 -60 -215t-172 -129q34 -12 62.5 -31.5t49 -41.5
t36.5 -54.5t26.5 -61t18 -71.5t11 -74.5t6 -81.5t2.5 -82t0.5 -85.5t1.5 -83.5h-100q0 79 -1 130t-4 111.5t-9 99t-16.5 81.5t-26.5 69t-38 51t-51.5 39.5t-67.5 22.5q-65 12 -177 14q-109 2 -271 0q-55 -1 -165 -1z" />
    <glyph glyph-name="S" unicode="S" horiz-adv-x="1363" 
d="M722 -34q-125 0 -233 30t-191.5 88t-131 150.5t-46.5 208.5h105l7 -61q10 -88 57.5 -152t119.5 -98.5t150 -50t165 -15.5q86 0 156 14.5t114 38.5t75.5 52t46.5 59.5t21.5 55.5t6.5 45q3 95 -44 154q-81 101 -319 158q-223 54 -291 77q-199 67 -266 180q-45 76 -42 180
q5 107 78 189t191.5 124t263.5 42q158 0 277.5 -54t183.5 -161t54 -251h-108q7 83 -18.5 149t-69.5 105.5t-103 65.5t-113 35.5t-105 9.5q-183 0 -301 -73.5t-124 -182.5q-3 -89 44 -147q84 -100 316 -152q224 -51 312 -84q199 -75 257 -210q28 -68 26 -154
q-4 -164 -152 -264.5t-369 -100.5z" />
    <glyph glyph-name="T" unicode="T" horiz-adv-x="1290" 
d="M698 0h-104v1310h-495v100h1091v-100h-492v-1310z" />
    <glyph glyph-name="U" unicode="U" horiz-adv-x="1456" 
d="M726 -34q-276 0 -431 168.5t-155 469.5v806h103v-806q0 -261 127.5 -399.5t355.5 -138.5q487 0 487 538v806h101v-806q0 -308 -151.5 -473t-436.5 -165z" />
    <glyph glyph-name="V" unicode="V" horiz-adv-x="1313" 
d="M726 0h-143l-547 1410h112l506 -1298l506 1298h116z" />
    <glyph glyph-name="W" unicode="W" horiz-adv-x="2248" 
d="M1697 0h-144l-434 1236l-457 -1236h-143l-483 1410h115l443 -1293l476 1293h101l453 -1294l470 1294h117z" />
    <glyph glyph-name="X" unicode="X" horiz-adv-x="1400" 
d="M206 0h-128l556 750l-498 660h138l423 -574l423 574h138l-493 -660l556 -750h-135l-489 664z" />
    <glyph glyph-name="Y" unicode="Y" horiz-adv-x="1258" 
d="M682 0h-107v533l-497 877h116l438 -764l432 764h115l-497 -877v-533z" />
    <glyph glyph-name="Z" unicode="Z" horiz-adv-x="1380" 
d="M1273 0h-1174v83l1034 1225h-938v102h1085v-83l-1034 -1225h1027v-102z" />
    <glyph glyph-name="bracketleft" unicode="[" horiz-adv-x="613" 
d="M492 1558v-97h-251v-1519h251v-98h-352v1714h352z" />
    <glyph glyph-name="backslash" unicode="\" horiz-adv-x="827" 
d="M727 -58h-106l-522 1500h106z" />
    <glyph glyph-name="bracketright" unicode="]" horiz-adv-x="617" 
d="M475 -156h-355v98h254v1519h-254v97h355v-1714z" />
    <glyph glyph-name="asciicircum" unicode="^" horiz-adv-x="1030" 
d="M818 419l-302 693l-303 -693h-114l368 820h101l363 -820h-113z" />
    <glyph glyph-name="underscore" unicode="_" horiz-adv-x="1131" 
d="M989 -160h-849v98h849v-98z" />
    <glyph glyph-name="grave" unicode="`" horiz-adv-x="724" 
d="M499 1130h-100l-175 253h131z" />
    <glyph glyph-name="a" unicode="a" horiz-adv-x="1002" 
d="M417 73q185 0 281 78t96 249v107q-86 4 -110 4q-57 0 -114.5 -5t-128 -21.5t-123 -42t-88.5 -72t-36 -107.5q0 -92 56 -141t167 -49zM401 -25q-147 0 -235 73.5t-88 210.5q0 92 54 162t143 110.5t209 58.5q114 16 234 14h76v109q-10 116 -66.5 169t-165.5 53h-75
q-106 0 -179 -60t-82 -181h-110q2 147 106.5 243t264.5 96h75q164 0 249.5 -79t90.5 -224v-729h-88l-13 148q-28 -47 -64.5 -80.5t-72.5 -51.5t-84.5 -27.5t-86 -12t-92.5 -2.5z" />
    <glyph glyph-name="b" unicode="b" horiz-adv-x="1205" 
d="M645 83q177 0 275.5 118t98.5 301q0 180 -107 297t-287 117q-158 0 -264 -111.5t-106 -302.5q0 -99 32 -180t87 -132.5t124.5 -79t146.5 -27.5zM639 -24q-79 0 -146.5 22.5t-115 61.5t-78.5 75.5t-55 78.5l-13 -214h-91v1410h110v-611q125 224 386 224q148 0 260.5 -70
t171 -187.5t58.5 -263.5q0 -229 -136 -377.5t-351 -148.5z" />
    <glyph glyph-name="c" unicode="c" horiz-adv-x="1138" 
d="M579 -24q-230 0 -365.5 139.5t-135.5 371.5q8 244 147.5 390t360.5 146q186 0 315 -100t158 -267h-106q-23 121 -122 191.5t-245 70.5q-175 0 -286.5 -117.5t-114.5 -315.5q0 -185 107 -294.5t287 -109.5q148 0 249.5 70.5t124.5 192.5h106q-30 -163 -161.5 -265.5
t-318.5 -102.5z" />
    <glyph glyph-name="d" unicode="d" horiz-adv-x="1204" 
d="M559 83q77 0 147 27.5t124.5 79t86.5 132.5t32 180q0 192 -106 303t-264 111q-179 0 -285.5 -117t-106.5 -297q0 -183 98 -301t274 -118zM567 -24q-215 0 -352 149.5t-137 376.5q0 146 60 264t172.5 187.5t258.5 69.5q264 0 386 -226v613h107v-1410h-89l-12 215
q-137 -239 -394 -239z" />
    <glyph glyph-name="e" unicode="e" horiz-adv-x="1129" 
d="M197 589h743q-6 58 -30.5 114.5t-66 107t-109 81.5t-150.5 31q-153 0 -257.5 -92.5t-129.5 -241.5zM572 -24q-120 0 -216.5 45t-156.5 120.5t-91.5 171t-29.5 199.5q5 222 144.5 366.5t361.5 144.5q195 0 322.5 -124t142.5 -328l2 -30v-51h-864q5 -192 105 -303t280 -111
q142 0 242.5 73t118.5 195h108q-24 -164 -156 -266t-313 -102z" />
    <glyph glyph-name="f" unicode="f" horiz-adv-x="729" 
d="M354 0h-110v923h-177v100h180v115q0 69 7.5 117t23 78.5t40 46.5t57.5 23.5t76.5 8t96.5 -0.5q54 -1 84 -1h50v-100h-50q-170 2 -197 -1q-56 -7 -71 -42q-12 -28 -12 -129v-115h329v-100h-327v-923z" />
    <glyph glyph-name="g" unicode="g" horiz-adv-x="1207" 
d="M560 83q77 0 146.5 27.5t124.5 79t87 132.5t32 180q0 192 -106.5 303t-264.5 111q-179 0 -285.5 -117t-106.5 -297q0 -183 98.5 -301t274.5 -118zM978 1023h87v-1052q0 -289 -135 -413q-103 -98 -332 -98q-231 0 -332 98q-109 97 -131 299h110q15 -83 19 -100
q19 -63 55 -104.5t105.5 -66t173.5 -24.5q152 0 228.5 49.5t104.5 146.5q27 96 27 213v238q-24 -42 -55 -77.5t-78.5 -73.5t-114 -60t-143.5 -22q-215 0 -352 149.5t-137 376.5q0 228 136 374.5t355 146.5q81 0 148.5 -21.5t114 -58t76 -73t51.5 -78.5z" />
    <glyph glyph-name="h" unicode="h" horiz-adv-x="1143" 
d="M245 0h-105v1410h105v-606q119 219 375 219q121 0 205 -36.5t131 -107t67 -159.5t20 -209v-511h-104v511q0 204 -71.5 306.5t-242.5 102.5q-174 0 -277 -118.5t-103 -319.5v-482z" />
    <glyph glyph-name="i" unicode="i" horiz-adv-x="459" 
d="M282 0h-106v1023h106v-1023zM230 1152q-47 0 -68.5 25t-21.5 63q0 37 22 61t68 24q88 0 88 -85q0 -88 -88 -88z" />
    <glyph glyph-name="j" unicode="j" horiz-adv-x="430" 
d="M149 -266v1289h108l-2 -1289q0 -75 -7.5 -123.5t-21 -79.5t-42 -46.5t-62 -20.5t-89.5 -5q-22 0 -83 1t-100 1v99h98h64.5t48 3.5t37 6t23 13t16.5 20t7 31.5t5 42v58zM203 1152q-48 0 -69.5 25t-21.5 63q0 36 22 60.5t69 24.5q87 0 87 -85q0 -88 -87 -88z" />
    <glyph glyph-name="k" unicode="k" horiz-adv-x="1181" 
d="M246 -2h-106v1412h106v-981l655 594h156l-501 -457l504 -571h-143l-439 501l-232 -210v-288z" />
    <glyph glyph-name="l" unicode="l" horiz-adv-x="388" 
d="M246 0h-106v1410h106v-1410z" />
    <glyph glyph-name="m" unicode="m" horiz-adv-x="1737" 
d="M245 0h-105v1023h92l9 -214q19 40 45 74t66.5 67.5t99.5 53t131 19.5q249 0 326 -241q19 42 47 80.5t72 76.5t108.5 61t141.5 23q84 0 148 -27t103.5 -72t64.5 -112t34.5 -139.5t9.5 -161.5v-511h-105v511q0 39 -1 68t-7 74t-15.5 78.5t-29.5 71t-47 61.5t-69 40t-95 16
q-151 0 -239.5 -118.5t-88.5 -319.5v-482h-104v511q0 38 -1 67.5t-7 74.5t-16 78.5t-30 71t-47 61.5t-69 40t-95 16q-149 0 -238 -119t-89 -319v-482z" />
    <glyph glyph-name="n" unicode="n" horiz-adv-x="1143" 
d="M245 0h-105v1023h92l10 -225q118 225 378 225q121 0 205 -36.5t131 -107t67 -159.5t20 -209v-511h-104v511q0 204 -71.5 306.5t-242.5 102.5q-174 0 -277 -118.5t-103 -319.5v-482z" />
    <glyph glyph-name="o" unicode="o" horiz-adv-x="1126" 
d="M564 -24q-229 0 -357.5 139t-128.5 382q0 247 128.5 386.5t357.5 139.5q230 0 357 -143t127 -383q0 -238 -124.5 -379.5t-359.5 -141.5zM564 78q99 0 173 32.5t117 91.5t63.5 132.5t20.5 162.5q0 91 -20.5 165.5t-63.5 133.5t-117 91.5t-173 32.5q-188 -1 -281.5 -115.5
t-93.5 -307.5q0 -84 20 -156t62 -132.5t117 -95.5t176 -35z" />
    <glyph glyph-name="p" unicode="p" horiz-adv-x="1205" 
d="M645 83q177 0 275.5 118t98.5 301q0 180 -107 297t-287 117q-158 0 -264 -111.5t-106 -302.5q0 -99 32 -180t87 -132.5t124.5 -79t146.5 -27.5zM248 208v-748h-108v1563h93l13 -231q124 231 390 231q147 0 259.5 -69.5t171.5 -188t59 -265.5q0 -226 -135.5 -375
t-351.5 -149q-77 0 -143.5 22t-114 59t-78.5 73t-55 78z" />
    <glyph glyph-name="q" unicode="q" horiz-adv-x="1207" 
d="M560 83q77 0 146.5 27.5t124.5 79t87 132.5t32 180q0 192 -106.5 303t-264.5 111q-179 0 -286 -117t-107 -297q0 -119 41.5 -212.5t127.5 -150t205 -56.5zM1065 1023v-1563h-108v748q-24 -41 -55.5 -77.5t-78.5 -73.5t-113.5 -59t-143.5 -22q-216 0 -352 148.5
t-136 375.5q0 228 137.5 375.5t353.5 147.5q265 0 390 -232l13 232h93z" />
    <glyph glyph-name="r" unicode="r" horiz-adv-x="683" 
d="M638 1022l8 -102q-182 8 -291.5 -111.5t-109.5 -326.5v-482h-105v1023h92l10 -225q123 232 396 224z" />
    <glyph glyph-name="s" unicode="s" horiz-adv-x="975" 
d="M484 -24q-45 0 -90.5 6t-97.5 20t-94 40.5t-76 64t-49 95.5t-7 130h109q-7 -62 10 -110t48.5 -76t76.5 -45.5t87 -23.5t86 -6q91 0 160.5 18t113 60.5t41.5 106.5q0 78 -47 119q-45 39 -116 60.5t-186 42.5q-93 18 -174 44q-96 32 -147.5 92.5t-48.5 163.5q2 117 118 193
t296 76q38 0 76 -4t81.5 -14.5t81 -27t71.5 -44.5t56.5 -64t32.5 -87.5t3 -113.5h-109q6 52 -4.5 94t-35 68.5t-55 45t-69.5 28t-73 13.5t-71 4q-129 0 -212 -43.5t-83 -124.5q0 -69 45 -104q31 -25 83.5 -44t95 -28.5t120.5 -23.5q49 -10 80 -17.5t75 -22t72 -29.5
t59 -39.5t48.5 -53.5t29.5 -69.5t12 -89.5q0 -98 -58.5 -162.5t-150 -91t-214.5 -26.5z" />
    <glyph glyph-name="t" unicode="t" horiz-adv-x="689" 
d="M612 100v-100q-94 -2 -160 0t-108 24t-61 80t-19 169v650h-175v100h175v256h104v-256h241v-100h-241v-650q0 -131 31 -154.5t184 -19.5q19 1 29 1z" />
    <glyph glyph-name="u" unicode="u" 
d="M527 -24q-428 0 -428 511v536h108v-536q0 -74 8 -131.5t29 -111.5t56.5 -89t92.5 -56t134 -21q166 0 254.5 106.5t102.5 283.5v555h108v-1023h-84l-16 201q-51 -96 -145 -160.5t-220 -64.5z" />
    <glyph glyph-name="v" unicode="v" horiz-adv-x="1188" 
d="M984 1023h126l-452 -1023h-126l-454 1023h127l393 -908z" />
    <glyph glyph-name="w" unicode="w" horiz-adv-x="1630" 
d="M78 1023h111l283 -890l297 890h94l302 -891l276 891h110l-323 -1023h-132l-279 833l-278 -833h-127z" />
    <glyph glyph-name="x" unicode="x" horiz-adv-x="1122" 
d="M231 0h-132l389 526l-374 497h134l308 -408l309 408h136l-378 -497l399 -526h-140l-326 438z" />
    <glyph glyph-name="y" unicode="y" horiz-adv-x="1188" 
d="M984 1023h126l-690 -1561h-99l220 516l-463 1045h127l393 -908z" />
    <glyph glyph-name="z" unicode="z" horiz-adv-x="1113" 
d="M1014 0h-915v78l750 847h-718v98h883v-86l-756 -840h756v-97z" />
    <glyph glyph-name="braceleft" unicode="{" horiz-adv-x="717" 
d="M596 1461h-54q-91 0 -136 -30.5t-45 -103.5q0 -40 22 -185q23 -167 23 -238q0 -64 -29 -118.5t-90 -82.5q61 -30 90 -85.5t29 -118.5q0 -72 -23 -239q-22 -141 -22 -184q0 -73 44.5 -103.5t136.5 -30.5h54v-98h-52q-285 0 -285 234q0 59 24 207q20 131 20 212
q0 68 -38.5 110.5t-124.5 46.5v95q86 3 124.5 46t38.5 111q0 82 -20 211q-24 150 -24 208q0 233 285 233h52v-97z" />
    <glyph glyph-name="bar" unicode="|" horiz-adv-x="425" 
d="M263 -390h-102v1987h102v-1987z" />
    <glyph glyph-name="braceright" unicode="}" horiz-adv-x="718" 
d="M412 906q0 -68 38.5 -111t125.5 -46v-95q-86 -4 -125 -46.5t-39 -110.5q0 -75 21 -212q24 -155 24 -207q0 -234 -285 -234h-52v98h54q92 0 136.5 30.5t44.5 103.5q0 34 -22 184q-23 159 -23 239q0 63 29 118t90 83q-60 30 -89.5 86t-29.5 118q0 79 23 238q22 154 22 185
q0 73 -45 103.5t-136 30.5h-54v97h52q285 0 285 -233q0 -50 -24 -208q-21 -136 -21 -211z" />
    <glyph glyph-name="asciitilde" unicode="~" horiz-adv-x="1089" 
d="M889 725h101q4 -138 -50 -206.5t-158 -68.5q-59 0 -110.5 17.5t-154.5 72.5q-89 48 -132.5 64.5t-85.5 16.5q-56 0 -80 -43t-21 -134h-100q-4 136 50 205.5t155 69.5q60 0 110 -18t157 -74q89 -47 132 -63.5t84 -16.5q58 0 82 43t21 135z" />
    <glyph glyph-name="exclamdown" unicode="&#xa1;" horiz-adv-x="362" 
d="M181 939q-34 0 -58 23.5t-24 56.5q0 34 24 57t58 23q35 0 58.5 -23t23.5 -57q0 -33 -23.5 -56.5t-58.5 -23.5zM127 824h108l12 -1136h-132z" />
    <glyph glyph-name="cent" unicode="&#xa2;" horiz-adv-x="1164" 
d="M221 545q0 -207 91.5 -327t229.5 -140v916q-63 -12 -119 -46.5t-102 -88.5t-73 -135.5t-27 -178.5zM644 998v-922q115 14 193.5 85t101.5 190h118q-27 -163 -138 -262t-275 -113v-151h-102v149q-194 18 -318.5 166.5t-124.5 395.5q0 230 126 381.5t317 177.5v152h102
v-149q176 -10 289.5 -116.5t130.5 -274.5h-118q-19 129 -96.5 205t-205.5 86z" />
    <glyph glyph-name="sterling" unicode="&#xa3;" horiz-adv-x="1103" 
d="M1003 103v-103h-904v95q128 29 211 112.5t83 209.5q0 62 -20 119t-65 132h-191v98h135q-74 136 -74 263q0 168 118 274.5t293 106.5q199 0 301.5 -115t111.5 -305h-120q-17 317 -298 317q-120 0 -201.5 -76t-81.5 -193q0 -69 21 -129.5t67 -142.5h474v-98h-417
q67 -125 67 -243q0 -206 -180 -322h670z" />
    <glyph glyph-name="currency" unicode="&#xa4;" horiz-adv-x="1044" 
d="M520 333q119 0 196 78t77 195t-77 195t-196 78q-117 0 -193.5 -78t-76.5 -195t76.5 -195t193.5 -78zM899 606q0 -127 -75 -226l120 -115l-76 -70l-116 114q-102 -73 -232 -73t-230 73l-116 -114l-75 72l120 113q-77 96 -77 226t77 226l-120 115l75 69l117 -112
q102 72 229 72q132 0 230 -74l118 114l76 -69l-120 -115q75 -101 75 -226z" />
    <glyph glyph-name="yen" unicode="&#xa5;" horiz-adv-x="1279" 
d="M1179 1383l-428 -670h309v-97h-364v-108h364v-97h-364v-411h-116v411h-360v97h360v108h-360v97h306l-427 670h146l396 -646l396 646h142z" />
    <glyph glyph-name="brokenbar" unicode="&#xa6;" horiz-adv-x="383" 
d="M241 682h-101v701h101v-701zM241 -312h-101v702h101v-702z" />
    <glyph glyph-name="section" unicode="&#xa7;" horiz-adv-x="1256" 
d="M721 285q74 4 133.5 29.5t98.5 76t39 119.5q0 98 -86 159t-269 101q-80 18 -126 34q-50 -6 -92 -20t-79 -40t-58 -69t-21 -100q0 -93 88.5 -158.5t222.5 -93.5q85 -17 149 -38zM1115 518q0 -112 -66.5 -189.5t-174.5 -113.5q133 -90 133 -256q0 -137 -111 -217.5
t-279 -80.5q-176 0 -286 89.5t-141 274.5h118q61 -263 315 -263q113 0 187.5 51.5t74.5 139.5q0 67 -28 112t-106.5 83.5t-219.5 68.5q-74 16 -140.5 44t-124.5 70.5t-92 104t-34 133.5q0 116 64 192t171 111q-126 90 -126 234q0 139 99.5 221.5t257.5 82.5
q176 0 275.5 -94.5t120.5 -251.5h-117q-30 124 -98 184.5t-183 60.5q-100 0 -166.5 -51.5t-66.5 -141.5q0 -99 81.5 -155t224.5 -85q438 -87 438 -358z" />
    <glyph glyph-name="dieresis" unicode="&#xa8;" horiz-adv-x="1210" 
d="M507 1323q30 0 51.5 -21t21.5 -51q0 -28 -22 -49.5t-51 -21.5q-31 0 -52.5 21t-21.5 50q0 30 21.5 51t52.5 21zM702 1323q30 0 52 -21t22 -51q0 -29 -22 -50t-52 -21q-29 0 -50.5 21t-21.5 50q0 30 21.5 51t50.5 21z" />
    <glyph glyph-name="copyright" unicode="&#xa9;" horiz-adv-x="1728" 
d="M863 1364q-136 0 -258.5 -51.5t-210.5 -138.5t-139.5 -208t-51.5 -255t51.5 -254.5t139.5 -207.5t210.5 -138t258.5 -51q183 0 335 86.5t239.5 236t87.5 328.5t-87.5 329t-240 237t-334.5 87zM872 1149q152 0 253 -84t117 -235h-119q-16 101 -78.5 158.5t-172.5 57.5
q-128 0 -204 -96t-76 -237q0 -145 76.5 -238t196.5 -93q106 0 172 55t84 159h121q-27 -153 -127 -235t-259 -82q-163 0 -273.5 118.5t-110.5 313.5q0 198 113.5 318t286.5 120zM863 1463q158 0 300 -59t244 -159t162 -239.5t60 -294.5t-60 -294.5t-162 -239.5t-244 -159
t-300 -59q-157 0 -299 59t-243.5 159t-161.5 239.5t-60 294.5t60 294.5t161.5 239.5t243.5 159t299 59z" />
    <glyph glyph-name="guillemotleft" unicode="&#xab;" horiz-adv-x="972" 
d="M549 838l-294 -342l294 -342h-110l-293 342l293 342h110zM825 838l-294 -342l294 -342h-110l-293 342l293 342h110z" />
    <glyph glyph-name="logicalnot" unicode="&#xac;" horiz-adv-x="957" 
d="M857 409h-102v253h-656v98h758v-351z" />
    <glyph glyph-name="registered" unicode="&#xae;" horiz-adv-x="1048" 
d="M524 762q153 0 249.5 95t96.5 244q0 147 -96.5 241t-249.5 94t-249 -94t-96 -241q0 -149 96 -244t249 -95zM474 1237v-111h33q20 0 31.5 1t27.5 5.5t24 16.5t8 31q0 57 -78 57h-46zM524 1527q194 0 319.5 -120t125.5 -306q0 -189 -125 -310t-320 -121t-320.5 121
t-125.5 310q0 186 125.5 306t320.5 120zM637 1087q25 -25 31 -71q14 -92 59 -128h-122q-20 39 -34 112q-2 22 -12 31t-32 9h-53v-152h-96v437h131q188 0 188 -135q0 -67 -60 -103z" />
    <glyph glyph-name="macron" unicode="&#xaf;" horiz-adv-x="952" 
d="M662 1200h-373v95h373v-95z" />
    <glyph glyph-name="degree" unicode="&#xb0;" horiz-adv-x="670" 
d="M336 1410q101 0 168 -63t67 -161t-67 -162t-168 -64q-102 0 -169.5 64t-67.5 162t67 161t170 63zM336 1313q-60 0 -95.5 -34.5t-35.5 -92.5q0 -59 35.5 -93.5t95.5 -34.5q59 0 94 35t35 93t-35 92.5t-94 34.5z" />
    <glyph glyph-name="plusminus" unicode="&#xb1;" horiz-adv-x="1057" 
d="M579 688h379v-98h-379v-393h-101v393h-379v98h379v391h101v-391zM958 0h-859v97h859v-97z" />
    <glyph glyph-name="acute" unicode="&#xb4;" horiz-adv-x="725" 
d="M325 1130h-101l144 253h132z" />
    <glyph glyph-name="paragraph" unicode="&#xb6;" horiz-adv-x="1081" 
d="M982 1383v-1597h-101v1500h-203v-1500h-101v837h-27q-80 0 -114 2q-158 9 -247.5 117.5t-89.5 260.5q0 153 89.5 261t247.5 117q34 2 114 2h432z" />
    <glyph glyph-name="periodcentered" unicode="&#xb7;" horiz-adv-x="372" 
d="M186 699q38 0 62.5 -24t24.5 -61q0 -36 -25 -61t-62 -25t-62 25t-25 61q0 37 24.5 61t62.5 24z" />
    <glyph glyph-name="cedilla" unicode="&#xb8;" horiz-adv-x="1320" 
d="M692 55l-63 -114q163 -28 163 -169q0 -88 -68.5 -134.5t-166.5 -46.5q-79 0 -124 27v99q51 -36 127 -36q62 0 96 23.5t34 67.5q0 90 -150 90q-28 0 -62 -3l105 196h109z" />
    <glyph glyph-name="guillemotright" unicode="&#xbb;" horiz-adv-x="930" 
d="M528 496l-293 -342h-110l294 342l-294 342h110zM805 496l-293 -342h-111l294 342l-294 342h111z" />
    <glyph glyph-name="questiondown" unicode="&#xbf;" horiz-adv-x="1066" 
d="M548 931q-33 0 -58 23.5t-25 56.5q0 34 24.5 57t58.5 23q35 0 58.5 -23t23.5 -57q0 -33 -23.5 -56.5t-58.5 -23.5zM514 -347q-196 0 -305.5 104.5t-109.5 265.5q0 200 201 387q86 80 126.5 138t54 114.5t14.5 153.5h111q-2 -161 -40.5 -248t-172.5 -218
q-92 -91 -131 -165.5t-39 -161.5q0 -125 79 -196t214 -71q152 0 238 92t93 253h118q-2 -199 -127 -323.5t-324 -124.5z" />
    <glyph glyph-name="Agrave" unicode="&#xc0;" horiz-adv-x="1433" 
d="M1019 504l-303 760l-306 -760h609zM99 0l563 1410h104l567 -1410h-112l-160 398h-693l-161 -398h-108zM706 1898l144 -254h-100l-175 254h131z" />
    <glyph glyph-name="Aacute" unicode="&#xc1;" horiz-adv-x="1433" 
d="M1019 504l-303 760l-306 -760h609zM99 0l563 1410h104l567 -1410h-112l-160 398h-693l-161 -398h-108zM894 1891l-175 -253h-101l144 253h132z" />
    <glyph glyph-name="Acircumflex" unicode="&#xc2;" horiz-adv-x="1433" 
d="M1019 504l-303 760l-306 -760h609zM99 0l563 1410h104l567 -1410h-112l-160 398h-693l-161 -398h-108zM913 1622h-115l-85 148l-86 -148h-114l158 254h87z" />
    <glyph glyph-name="Atilde" unicode="&#xc3;" horiz-adv-x="1433" 
d="M1019 504l-303 760l-306 -760h609zM99 0l563 1410h104l567 -1410h-112l-160 398h-693l-161 -398h-108zM607 1810q43 0 124 -26q69 -23 86 -23q10 0 12.5 7.5t0.5 33.5h90q5 -65 -21.5 -98.5t-79.5 -33.5q-46 0 -125 26q-66 21 -87 21q-9 0 -11 -4.5t-2 -24.5v-10h-87
q-4 65 22 98.5t78 33.5z" />
    <glyph glyph-name="Adieresis" unicode="&#xc4;" horiz-adv-x="1433" 
d="M1019 504l-303 760l-306 -760h609zM99 0l563 1410h104l567 -1410h-112l-160 398h-693l-161 -398h-108zM617 1795q30 0 51.5 -21t21.5 -51q0 -28 -22 -49t-51 -21q-31 0 -52.5 20.5t-21.5 49.5q0 30 21.5 51t52.5 21zM812 1795q30 0 52 -21t22 -51q0 -28 -22 -49t-52 -21
q-29 0 -50.5 21t-21.5 49q0 30 21.5 51t50.5 21z" />
    <glyph glyph-name="Aring" unicode="&#xc5;" horiz-adv-x="1433" 
d="M1019 504l-303 760l-306 -760h609zM714 1799q-29 0 -44.5 -17.5t-15.5 -46.5t15.5 -46.5t44.5 -17.5q28 0 44.5 18t16.5 46t-16.5 46t-44.5 18zM99 0l563 1410h104l567 -1410h-112l-160 398h-693l-161 -398h-108zM714 1885q68 0 113 -41t45 -109q0 -67 -45.5 -109.5
t-112.5 -42.5q-68 0 -114 42.5t-46 109.5q0 68 46 109t114 41z" />
    <glyph glyph-name="AE" unicode="&#xc6;" horiz-adv-x="1808" 
d="M694 504v681l-275 -681h275zM1698 100v-100h-1004v398h-316l-161 -398h-108l563 1410h1003v-102h-873v-543h719v-103h-719v-562h896z" />
    <glyph glyph-name="Ccedilla" unicode="&#xc7;" horiz-adv-x="1565" 
d="M654 -141l64 120q-152 13 -278 80q-164 84 -253.5 248.5t-89.5 398.5q0 154 37.5 278t102 207t155 139t193 80.5t218.5 24.5q257 0 427.5 -138.5t214.5 -395.5h-111q-37 209 -175 322.5t-356 113.5q-278 0 -438 -163.5t-160 -467.5q0 -308 157 -470.5t431 -162.5
q237 0 377 113t174 316h112q-39 -249 -204.5 -383.5t-426.5 -142.5l-20 -35q163 -28 163 -169q0 -88 -68.5 -134.5t-166.5 -46.5q-79 0 -124 27v99q51 -36 127 -36q62 0 96 23.5t34 67.5q0 90 -150 90q-28 0 -62 -3z" />
    <glyph glyph-name="Egrave" unicode="&#xc8;" horiz-adv-x="1264" 
d="M1144 0h-1004v1410h982v-102h-874v-543h719v-103h-719v-562h896v-100zM773 1644h-100l-175 254h131z" />
    <glyph glyph-name="Eacute" unicode="&#xc9;" horiz-adv-x="1264" 
d="M1144 0h-1004v1410h982v-102h-874v-543h719v-103h-719v-562h896v-100zM642 1638h-101l144 253h132z" />
    <glyph glyph-name="Ecircumflex" unicode="&#xca;" horiz-adv-x="1264" 
d="M1144 0h-1004v1410h982v-102h-874v-543h719v-103h-719v-562h896v-100zM721 1622l-85 148l-86 -148h-114l158 254h87l155 -254h-115z" />
    <glyph glyph-name="Edieresis" unicode="&#xcb;" horiz-adv-x="1264" 
d="M1144 0h-1004v1410h982v-102h-874v-543h719v-103h-719v-562h896v-100zM540 1795q30 0 51.5 -21t21.5 -51q0 -28 -22 -49t-51 -21q-31 0 -52.5 20.5t-21.5 49.5q0 30 21.5 51t52.5 21zM735 1795q30 0 52 -21t22 -51q0 -28 -22 -49t-52 -21q-29 0 -50.5 21t-21.5 49
q0 30 21.5 51t50.5 21z" />
    <glyph glyph-name="Igrave" unicode="&#xcc;" horiz-adv-x="477" 
d="M233 0h-104v1403h104v-1403zM317 1644h-100l-175 254h131z" />
    <glyph glyph-name="Iacute" unicode="&#xcd;" horiz-adv-x="478" 
d="M289 0h-104v1403h104v-1403zM242 1638h-101l144 253h132z" />
    <glyph glyph-name="Icircumflex" unicode="&#xce;" horiz-adv-x="473" 
d="M288 0h-104v1403h104v-1403zM320 1622l-85 148l-86 -148h-114l158 254h87l155 -254h-115z" />
    <glyph glyph-name="Idieresis" unicode="&#xcf;" horiz-adv-x="443" 
d="M272 0h-104v1403h104v-1403zM123 1795q30 0 51.5 -21t21.5 -51q0 -28 -22 -49t-51 -21q-31 0 -52.5 20.5t-21.5 49.5q0 30 21.5 51t52.5 21zM318 1795q30 0 52 -21t22 -51q0 -28 -22 -49t-52 -21q-29 0 -50.5 21t-21.5 49q0 30 21.5 51t50.5 21z" />
    <glyph glyph-name="Ntilde" unicode="&#xd1;" horiz-adv-x="1334" 
d="M241 0h-101v1404h99l855 -1223v1223h99v-1404h-93l-859 1233v-1233zM571 1810q43 0 124 -26q69 -23 86 -23q10 0 12.5 7.5t0.5 33.5h90q5 -65 -21.5 -98.5t-79.5 -33.5q-46 0 -125 26q-66 21 -87 21q-9 0 -11 -4.5t-2 -24.5v-10h-87q-4 65 22 98.5t78 33.5z" />
    <glyph glyph-name="Ograve" unicode="&#xd2;" horiz-adv-x="1585" 
d="M791 -34q-332 0 -512 197t-180 538q0 343 179 538.5t513 195.5q335 0 514.5 -196.5t179.5 -537.5q0 -345 -183 -540t-511 -195zM791 66q285 0 437 166.5t152 468.5q0 307 -150 470t-439 163t-438.5 -163t-149.5 -470q0 -306 151 -470.5t437 -164.5zM948 1644h-100
l-175 254h131z" />
    <glyph glyph-name="Oacute" unicode="&#xd3;" horiz-adv-x="1585" 
d="M791 -34q-332 0 -512 197t-180 538q0 343 179 538.5t513 195.5q335 0 514.5 -196.5t179.5 -537.5q0 -345 -183 -540t-511 -195zM791 66q285 0 437 166.5t152 468.5q0 307 -150 470t-439 163t-438.5 -163t-149.5 -470q0 -306 151 -470.5t437 -164.5zM817 1638h-101
l144 253h132z" />
    <glyph glyph-name="Ocircumflex" unicode="&#xd4;" horiz-adv-x="1585" 
d="M791 66q285 0 437 166.5t152 468.5q0 307 -150 470t-439 163t-438.5 -163t-149.5 -470q0 -306 151 -470.5t437 -164.5zM791 -34q-332 0 -512 197t-180 538q0 343 179 538.5t513 195.5q335 0 514.5 -196.5t179.5 -537.5q0 -345 -183 -540t-511 -195zM1011 1622h-115
l-85 148l-86 -148h-114l158 254h87z" />
    <glyph glyph-name="Otilde" unicode="&#xd5;" horiz-adv-x="1585" 
d="M791 66q285 0 437 166.5t152 468.5q0 307 -150 470t-439 163t-438.5 -163t-149.5 -470q0 -306 151 -470.5t437 -164.5zM791 -34q-332 0 -512 197t-180 538q0 343 179 538.5t513 195.5q335 0 514.5 -196.5t179.5 -537.5q0 -345 -183 -540t-511 -195zM705 1810
q43 0 124 -26q69 -23 86 -23q10 0 12.5 7.5t0.5 33.5h90q5 -65 -21.5 -98.5t-79.5 -33.5q-46 0 -125 26q-66 21 -87 21q-9 0 -11 -4.5t-2 -24.5v-10h-87q-4 65 22 98.5t78 33.5z" />
    <glyph glyph-name="Odieresis" unicode="&#xd6;" horiz-adv-x="1585" 
d="M791 -34q-332 0 -512 197t-180 538q0 343 179 538.5t513 195.5q335 0 514.5 -196.5t179.5 -537.5q0 -345 -183 -540t-511 -195zM791 66q285 0 437 166.5t152 468.5q0 307 -150 470t-439 163t-438.5 -163t-149.5 -470q0 -306 151 -470.5t437 -164.5zM715 1795
q30 0 51.5 -21t21.5 -51q0 -28 -22 -49t-51 -21q-31 0 -52.5 20.5t-21.5 49.5q0 30 21.5 51t52.5 21zM910 1795q30 0 52 -21t22 -51q0 -28 -22 -49t-52 -21q-29 0 -50.5 21t-21.5 49q0 30 21.5 51t50.5 21z" />
    <glyph glyph-name="multiply" unicode="&#xd7;" horiz-adv-x="942" 
d="M544 631l298 -288l-73 -70l-297 288l-300 -288l-73 70l300 288l-300 286l73 70l300 -286l297 286l73 -69z" />
    <glyph glyph-name="Oslash" unicode="&#xd8;" horiz-adv-x="1585" 
d="M203 701q0 -290 135 -451l852 960q-148 124 -399 124q-289 0 -438.5 -163t-149.5 -470zM791 66q285 0 437 166.5t152 468.5q0 284 -129 446l-851 -960q149 -121 391 -121zM791 -34q-281 0 -457 146l-102 -114h-117l155 175q-171 192 -171 528q0 343 179 538.5t513 195.5
q288 0 466 -150l108 122h118l-164 -184q166 -192 166 -522q0 -345 -183 -540t-511 -195z" />
    <glyph glyph-name="Ugrave" unicode="&#xd9;" horiz-adv-x="1456" 
d="M726 -34q-276 0 -431 168.5t-155 469.5v806h103v-806q0 -261 127.5 -399.5t355.5 -138.5q487 0 487 538v806h101v-806q0 -308 -151.5 -473t-436.5 -165zM821 1644h-100l-175 254h131z" />
    <glyph glyph-name="Uacute" unicode="&#xda;" horiz-adv-x="1456" 
d="M726 -34q-276 0 -431 168.5t-155 469.5v806h103v-806q0 -261 127.5 -399.5t355.5 -138.5q487 0 487 538v806h101v-806q0 -308 -151.5 -473t-436.5 -165zM745 1638h-101l144 253h132z" />
    <glyph glyph-name="Ucircumflex" unicode="&#xdb;" horiz-adv-x="1456" 
d="M726 -34q-276 0 -431 168.5t-155 469.5v806h103v-806q0 -261 127.5 -399.5t355.5 -138.5q487 0 487 538v806h101v-806q0 -308 -151.5 -473t-436.5 -165zM779 1622l-85 148l-86 -148h-114l158 254h87l155 -254h-115z" />
    <glyph glyph-name="Udieresis" unicode="&#xdc;" horiz-adv-x="1456" 
d="M726 -34q-276 0 -431 168.5t-155 469.5v806h103v-806q0 -261 127.5 -399.5t355.5 -138.5q487 0 487 538v806h101v-806q0 -308 -151.5 -473t-436.5 -165zM643 1795q30 0 51.5 -21t21.5 -51q0 -28 -22 -49t-51 -21q-31 0 -52.5 20.5t-21.5 49.5q0 30 21.5 51t52.5 21z
M838 1795q30 0 52 -21t22 -51q0 -28 -22 -49t-52 -21q-29 0 -50.5 21t-21.5 49q0 30 21.5 51t50.5 21z" />
    <glyph glyph-name="Yacute" unicode="&#xdd;" horiz-adv-x="1258" 
d="M682 0h-107v533l-497 877h116l438 -764l432 764h115l-497 -877v-533zM653 1638h-101l144 253h132z" />
    <glyph glyph-name="germandbls" unicode="&#xdf;" horiz-adv-x="1104" 
d="M219 1006v-1362h-117v1383h3q24 178 148.5 280.5t308.5 102.5q193 0 302.5 -99.5t109.5 -256.5q0 -110 -64 -198.5t-169 -132.5q124 -38 192 -124t68 -219q0 -190 -143 -301t-358 -106l-3 103q168 -5 273.5 75t105.5 227q0 127 -94.5 202t-285.5 75h-53v103h53
q89 0 168.5 33.5t132.5 100.5t53 154q0 126 -81 193.5t-213 67.5q-141 0 -231 -78.5t-106 -222.5z" />
    <glyph glyph-name="agrave" unicode="&#xe0;" horiz-adv-x="1002" 
d="M417 73q185 0 281 78t96 249v107q-86 4 -110 4q-57 0 -114.5 -5t-128 -21.5t-123 -42t-88.5 -72t-36 -107.5q0 -92 56 -141t167 -49zM401 -25q-147 0 -235 73.5t-88 210.5q0 92 54 162t143 110.5t209 58.5q114 16 234 14h76v109q-10 116 -66.5 169t-165.5 53h-75
q-106 0 -179 -60t-82 -181h-110q2 147 106.5 243t264.5 96h75q164 0 249.5 -79t90.5 -224v-729h-88l-13 148q-28 -47 -64.5 -80.5t-72.5 -51.5t-84.5 -27.5t-86 -12t-92.5 -2.5zM520 1520l144 -254h-100l-175 254h131z" />
    <glyph glyph-name="aacute" unicode="&#xe1;" horiz-adv-x="1002" 
d="M417 73q185 0 281 78t96 249v107q-86 4 -110 4q-57 0 -114.5 -5t-128 -21.5t-123 -42t-88.5 -72t-36 -107.5q0 -92 56 -141t167 -49zM401 -25q-147 0 -235 73.5t-88 210.5q0 92 54 162t143 110.5t209 58.5q114 16 234 14h76v109q-10 116 -66.5 169t-165.5 53h-75
q-106 0 -179 -60t-82 -181h-110q2 147 106.5 243t264.5 96h75q164 0 249.5 -79t90.5 -224v-729h-88l-13 148q-28 -47 -64.5 -80.5t-72.5 -51.5t-84.5 -27.5t-86 -12t-92.5 -2.5zM708 1513l-175 -253h-101l144 253h132z" />
    <glyph glyph-name="acircumflex" unicode="&#xe2;" horiz-adv-x="1002" 
d="M417 73q185 0 281 78t96 249v107q-86 4 -110 4q-57 0 -114.5 -5t-128 -21.5t-123 -42t-88.5 -72t-36 -107.5q0 -92 56 -141t167 -49zM401 -25q-147 0 -235 73.5t-88 210.5q0 92 54 162t143 110.5t209 58.5q114 16 234 14h76v109q-10 116 -66.5 169t-165.5 53h-75
q-106 0 -179 -60t-82 -181h-110q2 147 106.5 243t264.5 96h75q164 0 249.5 -79t90.5 -224v-729h-88l-13 148q-28 -47 -64.5 -80.5t-72.5 -51.5t-84.5 -27.5t-86 -12t-92.5 -2.5zM727 1244h-115l-85 148l-86 -148h-114l158 254h87z" />
    <glyph glyph-name="atilde" unicode="&#xe3;" horiz-adv-x="1002" 
d="M417 73q185 0 281 78t96 249v107q-86 4 -110 4q-57 0 -114.5 -5t-128 -21.5t-123 -42t-88.5 -72t-36 -107.5q0 -92 56 -141t167 -49zM401 -25q-147 0 -235 73.5t-88 210.5q0 92 54 162t143 110.5t209 58.5q114 16 234 14h76v109q-10 116 -66.5 169t-165.5 53h-75
q-106 0 -179 -60t-82 -181h-110q2 147 106.5 243t264.5 96h75q164 0 249.5 -79t90.5 -224v-729h-88l-13 148q-28 -47 -64.5 -80.5t-72.5 -51.5t-84.5 -27.5t-86 -12t-92.5 -2.5zM421 1432q43 0 124 -26q69 -23 86 -23q10 0 12.5 7.5t0.5 33.5h90q5 -65 -21.5 -98.5
t-79.5 -33.5q-46 0 -125 26q-66 21 -87 21q-9 0 -11 -4.5t-2 -24.5v-10h-87q-4 65 22 98.5t78 33.5z" />
    <glyph glyph-name="adieresis" unicode="&#xe4;" horiz-adv-x="1002" 
d="M417 73q185 0 281 78t96 249v107q-86 4 -110 4q-57 0 -114.5 -5t-128 -21.5t-123 -42t-88.5 -72t-36 -107.5q0 -92 56 -141t167 -49zM401 -25q-147 0 -235 73.5t-88 210.5q0 92 54 162t143 110.5t209 58.5q114 16 234 14h76v109q-10 116 -66.5 169t-165.5 53h-75
q-106 0 -179 -60t-82 -181h-110q2 147 106.5 243t264.5 96h75q164 0 249.5 -79t90.5 -224v-729h-88l-13 148q-28 -47 -64.5 -80.5t-72.5 -51.5t-84.5 -27.5t-86 -12t-92.5 -2.5zM431 1417q30 0 51.5 -21t21.5 -51q0 -28 -22 -49t-51 -21q-31 0 -52.5 20.5t-21.5 49.5
q0 30 21.5 51t52.5 21zM626 1417q30 0 52 -21t22 -51q0 -28 -22 -49t-52 -21q-29 0 -50.5 21t-21.5 49q0 30 21.5 51t50.5 21z" />
    <glyph glyph-name="aring" unicode="&#xe5;" horiz-adv-x="1002" 
d="M417 73q185 0 281 78t96 249v107q-86 4 -110 4q-57 0 -114.5 -5t-128 -21.5t-123 -42t-88.5 -72t-36 -107.5q0 -92 56 -141t167 -49zM528 1421q-29 0 -44.5 -17.5t-15.5 -46.5t15.5 -46.5t44.5 -17.5q28 0 44.5 18t16.5 46t-16.5 46t-44.5 18zM401 -25q-147 0 -235 73.5
t-88 210.5q0 92 54 162t143 110.5t209 58.5q114 16 234 14h76v109q-10 116 -66.5 169t-165.5 53h-75q-106 0 -179 -60t-82 -181h-110q2 147 106.5 243t264.5 96h75q164 0 249.5 -79t90.5 -224v-729h-88l-13 148q-28 -47 -64.5 -80.5t-72.5 -51.5t-84.5 -27.5t-86 -12
t-92.5 -2.5zM528 1507q68 0 113 -41t45 -109q0 -67 -45.5 -109.5t-112.5 -42.5q-68 0 -114 42.5t-46 109.5q0 68 46 109t114 41z" />
    <glyph glyph-name="ae" unicode="&#xe6;" horiz-adv-x="1837" 
d="M794 400v107q-86 4 -110 4q-57 0 -114.5 -5t-128 -21.5t-123 -42t-88.5 -72t-36 -107.5q0 -92 56 -141t167 -49q185 0 281 78t96 249zM915 589h732q-6 58 -30.5 114.5t-66 107t-109 81.5t-150.5 31q-151 0 -250.5 -92t-125.5 -242zM562 935h-75q-106 0 -179 -60t-82 -181
h-110q2 147 106.5 243t264.5 96h75q136 0 218 -55t109 -157q64 96 167 149t235 53q194 0 321.5 -123.5t143.5 -328.5l2 -30v-51h-852q5 -192 105 -303t280 -111q142 0 242 73t119 195h107q-23 -164 -154.5 -266t-313.5 -102q-251 0 -389 186v-161h-92l-9 148
q-28 -47 -64.5 -80.5t-72.5 -51.5t-84.5 -27.5t-86 -12t-92.5 -2.5q-147 0 -235 73.5t-88 210.5q0 92 54 162t143 110.5t209 58.5q114 16 234 14h76v24q0 82 -3 121q-8 91 -65.5 138.5t-163.5 47.5z" />
    <glyph glyph-name="ccedilla" unicode="&#xe7;" horiz-adv-x="1138" 
d="M444 -184l87 162q-209 15 -331 152.5t-122 356.5q8 244 147.5 390t360.5 146q186 0 315 -100t158 -267h-106q-23 121 -122 191.5t-245 70.5q-175 0 -286.5 -117.5t-114.5 -315.5q0 -185 107 -294.5t287 -109.5q148 0 249.5 70.5t124.5 192.5h106q-27 -148 -140.5 -248
t-278.5 -117l-45 -81q163 -28 163 -169q0 -88 -68.5 -134.5t-166.5 -46.5q-79 0 -124 27v99q51 -36 127 -36q62 0 96 23.5t34 67.5q0 90 -150 90q-28 0 -62 -3z" />
    <glyph glyph-name="egrave" unicode="&#xe8;" horiz-adv-x="1129" 
d="M197 589h743q-6 58 -30.5 114.5t-66 107t-109 81.5t-150.5 31q-153 0 -257.5 -92.5t-129.5 -241.5zM572 -24q-120 0 -216.5 45t-156.5 120.5t-91.5 171t-29.5 199.5q5 222 144.5 366.5t361.5 144.5q195 0 322.5 -124t142.5 -328l2 -30v-51h-864q5 -192 105 -303t280 -111
q142 0 242.5 73t118.5 195h108q-24 -164 -156 -266t-313 -102zM564 1530l144 -254h-100l-175 254h131z" />
    <glyph glyph-name="eacute" unicode="&#xe9;" horiz-adv-x="1129" 
d="M197 589h743q-6 58 -30.5 114.5t-66 107t-109 81.5t-150.5 31q-153 0 -257.5 -92.5t-129.5 -241.5zM572 -24q-120 0 -216.5 45t-156.5 120.5t-91.5 171t-29.5 199.5q5 222 144.5 366.5t361.5 144.5q195 0 322.5 -124t142.5 -328l2 -30v-51h-864q5 -192 105 -303t280 -111
q142 0 242.5 73t118.5 195h108q-24 -164 -156 -266t-313 -102zM752 1523l-175 -253h-101l144 253h132z" />
    <glyph glyph-name="ecircumflex" unicode="&#xea;" horiz-adv-x="1129" 
d="M197 589h743q-6 58 -30.5 114.5t-66 107t-109 81.5t-150.5 31q-153 0 -257.5 -92.5t-129.5 -241.5zM572 -24q-120 0 -216.5 45t-156.5 120.5t-91.5 171t-29.5 199.5q5 222 144.5 366.5t361.5 144.5q195 0 322.5 -124t142.5 -328l2 -30v-51h-864q5 -192 105 -303t280 -111
q142 0 242.5 73t118.5 195h108q-24 -164 -156 -266t-313 -102zM771 1254h-115l-85 148l-86 -148h-114l158 254h87z" />
    <glyph glyph-name="edieresis" unicode="&#xeb;" horiz-adv-x="1129" 
d="M197 589h743q-6 58 -30.5 114.5t-66 107t-109 81.5t-150.5 31q-153 0 -257.5 -92.5t-129.5 -241.5zM572 -24q-120 0 -216.5 45t-156.5 120.5t-91.5 171t-29.5 199.5q5 222 144.5 366.5t361.5 144.5q195 0 322.5 -124t142.5 -328l2 -30v-51h-864q5 -192 105 -303t280 -111
q142 0 242.5 73t118.5 195h108q-24 -164 -156 -266t-313 -102zM475 1427q30 0 51.5 -21t21.5 -51q0 -28 -22 -49t-51 -21q-31 0 -52.5 20.5t-21.5 49.5q0 30 21.5 51t52.5 21zM670 1427q30 0 52 -21t22 -51q0 -28 -22 -49t-52 -21q-29 0 -50.5 21t-21.5 49q0 30 21.5 51
t50.5 21z" />
    <glyph glyph-name="igrave" unicode="&#xec;" horiz-adv-x="506" 
d="M341 0h-106v1023h106v-1023zM324 1256h-100l-175 254h131z" />
    <glyph glyph-name="iacute" unicode="&#xed;" horiz-adv-x="498" 
d="M254 0h-106v1023h106v-1023zM257 1250h-101l144 253h132z" />
    <glyph glyph-name="icircumflex" unicode="&#xee;" horiz-adv-x="485" 
d="M296 0h-106v1023h106v-1023zM327 1234l-85 148l-86 -148h-114l158 254h87l155 -254h-115z" />
    <glyph glyph-name="idieresis" unicode="&#xef;" horiz-adv-x="455" 
d="M280 0h-106v1023h106v-1023zM130 1407q30 0 51.5 -21t21.5 -51q0 -28 -22 -49t-51 -21q-31 0 -52.5 20.5t-21.5 49.5q0 30 21.5 51t52.5 21zM325 1407q30 0 52 -21t22 -51q0 -28 -22 -49t-52 -21q-29 0 -50.5 21t-21.5 49q0 30 21.5 51t50.5 21z" />
    <glyph glyph-name="ntilde" unicode="&#xf1;" horiz-adv-x="1143" 
d="M245 0h-105v1023h92l10 -225q118 225 378 225q121 0 205 -36.5t131 -107t67 -159.5t20 -209v-511h-104v511q0 204 -71.5 306.5t-242.5 102.5q-174 0 -277 -118.5t-103 -319.5v-482zM491 1422q43 0 124 -26q69 -23 86 -23q10 0 12.5 7.5t0.5 33.5h90q5 -65 -21.5 -98.5
t-79.5 -33.5q-46 0 -125 26q-66 21 -87 21q-9 0 -11 -4.5t-2 -24.5v-10h-87q-4 65 22 98.5t78 33.5z" />
    <glyph glyph-name="ograve" unicode="&#xf2;" horiz-adv-x="1126" 
d="M564 -24q-229 0 -357.5 139t-128.5 382q0 247 128.5 386.5t357.5 139.5q230 0 357 -143t127 -383q0 -238 -124.5 -379.5t-359.5 -141.5zM564 78q99 0 173 32.5t117 91.5t63.5 132.5t20.5 162.5q0 91 -20.5 165.5t-63.5 133.5t-117 91.5t-173 32.5q-188 -1 -281.5 -115.5
t-93.5 -307.5q0 -84 20 -156t62 -132.5t117 -95.5t176 -35zM607 1256h-100l-175 254h131z" />
    <glyph glyph-name="oacute" unicode="&#xf3;" horiz-adv-x="1126" 
d="M564 -24q-229 0 -357.5 139t-128.5 382q0 247 128.5 386.5t357.5 139.5q230 0 357 -143t127 -383q0 -238 -124.5 -379.5t-359.5 -141.5zM564 78q99 0 173 32.5t117 91.5t63.5 132.5t20.5 162.5q0 91 -20.5 165.5t-63.5 133.5t-117 91.5t-173 32.5q-188 -1 -281.5 -115.5
t-93.5 -307.5q0 -84 20 -156t62 -132.5t117 -95.5t176 -35zM587 1250h-101l144 253h132z" />
    <glyph glyph-name="ocircumflex" unicode="&#xf4;" horiz-adv-x="1126" 
d="M564 78q99 0 173 32.5t117 91.5t63.5 132.5t20.5 162.5q0 91 -20.5 165.5t-63.5 133.5t-117 91.5t-173 32.5q-188 -1 -281.5 -115.5t-93.5 -307.5q0 -84 20 -156t62 -132.5t117 -95.5t176 -35zM564 -24q-229 0 -357.5 139t-128.5 382q0 247 128.5 386.5t357.5 139.5
q230 0 357 -143t127 -383q0 -238 -124.5 -379.5t-359.5 -141.5zM752 1234h-115l-85 148l-86 -148h-114l158 254h87z" />
    <glyph glyph-name="otilde" unicode="&#xf5;" horiz-adv-x="1126" 
d="M564 78q99 0 173 32.5t117 91.5t63.5 132.5t20.5 162.5q0 91 -20.5 165.5t-63.5 133.5t-117 91.5t-173 32.5q-188 -1 -281.5 -115.5t-93.5 -307.5q0 -84 20 -156t62 -132.5t117 -95.5t176 -35zM564 -24q-229 0 -357.5 139t-128.5 382q0 247 128.5 386.5t357.5 139.5
q230 0 357 -143t127 -383q0 -238 -124.5 -379.5t-359.5 -141.5zM475 1422q43 0 124 -26q69 -23 86 -23q10 0 12.5 7.5t0.5 33.5h90q5 -65 -21.5 -98.5t-79.5 -33.5q-46 0 -125 26q-66 21 -87 21q-9 0 -11 -4.5t-2 -24.5v-10h-87q-4 65 22 98.5t78 33.5z" />
    <glyph glyph-name="odieresis" unicode="&#xf6;" horiz-adv-x="1126" 
d="M564 -24q-229 0 -357.5 139t-128.5 382q0 247 128.5 386.5t357.5 139.5q230 0 357 -143t127 -383q0 -238 -124.5 -379.5t-359.5 -141.5zM564 78q99 0 173 32.5t117 91.5t63.5 132.5t20.5 162.5q0 91 -20.5 165.5t-63.5 133.5t-117 91.5t-173 32.5q-188 -1 -281.5 -115.5
t-93.5 -307.5q0 -84 20 -156t62 -132.5t117 -95.5t176 -35zM485 1407q30 0 51.5 -21t21.5 -51q0 -28 -22 -49t-51 -21q-31 0 -52.5 20.5t-21.5 49.5q0 30 21.5 51t52.5 21zM680 1407q30 0 52 -21t22 -51q0 -28 -22 -49t-52 -21q-29 0 -50.5 21t-21.5 49q0 30 21.5 51
t50.5 21z" />
    <glyph glyph-name="divide" unicode="&#xf7;" horiz-adv-x="1057" 
d="M529 1027q38 0 62.5 -24.5t24.5 -61.5q0 -36 -25 -60t-62 -24q-36 0 -62 24.5t-26 59.5q0 37 26 61.5t62 24.5zM958 590h-859v98h859v-98zM529 417q37 0 62 -24t25 -60t-25 -61t-62 -25q-36 0 -62 25t-26 61q0 35 26 59.5t62 24.5z" />
    <glyph glyph-name="oslash" unicode="&#xf8;" horiz-adv-x="1171" 
d="M189 497q0 -77 21.5 -158.5t62.5 -135.5l483 675q-79 42 -192 42q-144 0 -223 -61q-152 -115 -152 -362zM564 78q99 0 173 32.5t117 91.5t63.5 132.5t20.5 162.5q0 215 -109 327l-489 -685q88 -61 224 -61zM564 -24q-168 0 -285 77l-32 -44h-113l75 104
q-131 139 -131 384q0 247 128.5 386.5t357.5 139.5q145 0 253 -60l42 60h114l-81 -113q156 -141 156 -413q0 -238 -124.5 -379.5t-359.5 -141.5z" />
    <glyph glyph-name="ugrave" unicode="&#xf9;" 
d="M527 -24q-428 0 -428 511v536h108v-536q0 -74 8 -131.5t29 -111.5t56.5 -89t92.5 -56t134 -21q166 0 254.5 106.5t102.5 283.5v555h108v-1023h-84l-16 201q-51 -96 -145 -160.5t-220 -64.5zM703 1256h-100l-175 254h131z" />
    <glyph glyph-name="uacute" unicode="&#xfa;" 
d="M527 -24q-428 0 -428 511v536h108v-536q0 -74 8 -131.5t29 -111.5t56.5 -89t92.5 -56t134 -21q166 0 254.5 106.5t102.5 283.5v555h108v-1023h-84l-16 201q-51 -96 -145 -160.5t-220 -64.5zM572 1250h-101l144 253h132z" />
    <glyph glyph-name="ucircumflex" unicode="&#xfb;" 
d="M527 -24q-428 0 -428 511v536h108v-536q0 -74 8 -131.5t29 -111.5t56.5 -89t92.5 -56t134 -21q166 0 254.5 106.5t102.5 283.5v555h108v-1023h-84l-16 201q-51 -96 -145 -160.5t-220 -64.5zM651 1234l-85 148l-86 -148h-114l158 254h87l155 -254h-115z" />
    <glyph glyph-name="udieresis" unicode="&#xfc;" 
d="M527 -24q-428 0 -428 511v536h108v-536q0 -74 8 -131.5t29 -111.5t56.5 -89t92.5 -56t134 -21q166 0 254.5 106.5t102.5 283.5v555h108v-1023h-84l-16 201q-51 -96 -145 -160.5t-220 -64.5zM470 1407q30 0 51.5 -21t21.5 -51q0 -28 -22 -49t-51 -21q-31 0 -52.5 20.5
t-21.5 49.5q0 30 21.5 51t52.5 21zM665 1407q30 0 52 -21t22 -51q0 -28 -22 -49t-52 -21q-29 0 -50.5 21t-21.5 49q0 30 21.5 51t50.5 21z" />
    <glyph glyph-name="yacute" unicode="&#xfd;" horiz-adv-x="1188" 
d="M984 1023h126l-690 -1561h-99l220 516l-463 1045h127l393 -908zM744 1250h-101l144 253h132z" />
    <glyph glyph-name="ydieresis" unicode="&#xff;" horiz-adv-x="1188" 
d="M984 1023h126l-690 -1561h-99l220 516l-463 1045h127l393 -908zM642 1407q30 0 51.5 -21t21.5 -51q0 -28 -22 -49t-51 -21q-31 0 -52.5 20.5t-21.5 49.5q0 30 21.5 51t52.5 21zM837 1407q30 0 52 -21t22 -51q0 -28 -22 -49t-52 -21q-29 0 -50.5 21t-21.5 49q0 30 21.5 51
t50.5 21z" />
    <glyph glyph-name="Amacron" unicode="&#x100;" horiz-adv-x="1433" 
d="M1019 504l-303 760l-306 -760h609zM99 0l563 1410h104l567 -1410h-112l-160 398h-693l-161 -398h-108zM900 1778v-95h-373v95h373z" />
    <glyph glyph-name="amacron" unicode="&#x101;" horiz-adv-x="1002" 
d="M417 73q185 0 281 78t96 249v107q-86 4 -110 4q-57 0 -114.5 -5t-128 -21.5t-123 -42t-88.5 -72t-36 -107.5q0 -92 56 -141t167 -49zM401 -25q-147 0 -235 73.5t-88 210.5q0 92 54 162t143 110.5t209 58.5q114 16 234 14h76v109q-10 116 -66.5 169t-165.5 53h-75
q-106 0 -179 -60t-82 -181h-110q2 147 106.5 243t264.5 96h75q164 0 249.5 -79t90.5 -224v-729h-88l-13 148q-28 -47 -64.5 -80.5t-72.5 -51.5t-84.5 -27.5t-86 -12t-92.5 -2.5zM714 1400v-95h-373v95h373z" />
    <glyph glyph-name="Abreve" unicode="&#x102;" horiz-adv-x="1433" 
d="M1019 504l-303 760l-306 -760h609zM99 0l563 1410h104l567 -1410h-112l-160 398h-693l-161 -398h-108zM828 1869h94q4 -128 -48 -201.5t-160 -73.5q-109 0 -161.5 73.5t-47.5 201.5h93q-4 -177 116 -177q117 0 114 177z" />
    <glyph glyph-name="abreve" unicode="&#x103;" horiz-adv-x="1002" 
d="M417 73q185 0 281 78t96 249v107q-86 4 -110 4q-57 0 -114.5 -5t-128 -21.5t-123 -42t-88.5 -72t-36 -107.5q0 -92 56 -141t167 -49zM401 -25q-147 0 -235 73.5t-88 210.5q0 92 54 162t143 110.5t209 58.5q114 16 234 14h76v109q-10 116 -66.5 169t-165.5 53h-75
q-106 0 -179 -60t-82 -181h-110q2 147 106.5 243t264.5 96h75q164 0 249.5 -79t90.5 -224v-729h-88l-13 148q-28 -47 -64.5 -80.5t-72.5 -51.5t-84.5 -27.5t-86 -12t-92.5 -2.5zM642 1491h94q4 -128 -48 -201.5t-160 -73.5q-109 0 -161.5 73.5t-47.5 201.5h93
q-4 -177 116 -177q117 0 114 177z" />
    <glyph glyph-name="Aogonek" unicode="&#x104;" horiz-adv-x="1433" 
d="M1019 504l-303 760l-306 -760h609zM1197 59l-136 339h-693l-161 -398h-108l563 1410h104l567 -1410h-56q-99 -20 -164 -94.5t-65 -167.5q0 -82 72 -82q70 0 147 85v-115q-72 -63 -170 -63q-71 0 -117 38t-46 123q0 113 73 205t190 130z" />
    <glyph glyph-name="aogonek" unicode="&#x105;" horiz-adv-x="1002" 
d="M417 73q185 0 281 78t96 249v107q-86 4 -110 4q-57 0 -114.5 -5t-128 -21.5t-123 -42t-88.5 -72t-36 -107.5q0 -92 56 -141t167 -49zM808 37l3 -1l-10 113q-28 -47 -64.5 -80.5t-72.5 -51.5t-84.5 -27.5t-86 -12t-92.5 -2.5q-147 0 -235 73.5t-88 210.5q0 92 54 162
t143 110.5t209 58.5q114 16 234 14h76v109q-10 116 -66.5 169t-165.5 53h-75q-106 0 -179 -60t-82 -181h-110q2 147 106.5 243t264.5 96h75q164 0 249.5 -79t90.5 -224v-729q-113 -4 -184.5 -91.5t-71.5 -197.5q0 -82 72 -82q70 0 147 85v-115q-72 -63 -170 -63
q-71 0 -117 38t-46 123q0 116 77 209.5t199 129.5z" />
    <glyph glyph-name="Cacute" unicode="&#x106;" horiz-adv-x="1565" 
d="M793 -24q-198 0 -353 83q-164 84 -253.5 248.5t-89.5 398.5q0 154 37.5 278t102 207t155 139t193 80.5t218.5 24.5q257 0 427.5 -138.5t214.5 -395.5h-111q-37 209 -175 322.5t-356 113.5q-278 0 -438 -163.5t-160 -467.5q0 -308 157 -470.5t431 -162.5q237 0 377 113
t174 316h112q-41 -257 -214.5 -391.5t-448.5 -134.5zM794 1638h-101l144 253h132z" />
    <glyph glyph-name="cacute" unicode="&#x107;" horiz-adv-x="1138" 
d="M579 -24q-230 0 -365.5 139.5t-135.5 371.5q8 244 147.5 390t360.5 146q186 0 315 -100t158 -267h-106q-23 121 -122 191.5t-245 70.5q-175 0 -286.5 -117.5t-114.5 -315.5q0 -185 107 -294.5t287 -109.5q148 0 249.5 70.5t124.5 192.5h106q-30 -163 -161.5 -265.5
t-318.5 -102.5zM591 1270h-101l144 253h132z" />
    <glyph glyph-name="Ccircumflex" unicode="&#x108;" horiz-adv-x="1565" 
d="M793 -24q-198 0 -353 83q-164 84 -253.5 248.5t-89.5 398.5q0 154 37.5 278t102 207t155 139t193 80.5t218.5 24.5q257 0 427.5 -138.5t214.5 -395.5h-111q-37 209 -175 322.5t-356 113.5q-278 0 -438 -163.5t-160 -467.5q0 -308 157 -470.5t431 -162.5q237 0 377 113
t174 316h112q-41 -257 -214.5 -391.5t-448.5 -134.5zM873 1622l-85 148l-86 -148h-114l158 254h87l155 -254h-115z" />
    <glyph glyph-name="ccircumflex" unicode="&#x109;" horiz-adv-x="1138" 
d="M579 -24q-230 0 -365.5 139.5t-135.5 371.5q8 244 147.5 390t360.5 146q186 0 315 -100t158 -267h-106q-23 121 -122 191.5t-245 70.5q-175 0 -286.5 -117.5t-114.5 -315.5q0 -185 107 -294.5t287 -109.5q148 0 249.5 70.5t124.5 192.5h106q-30 -163 -161.5 -265.5
t-318.5 -102.5zM670 1254l-85 148l-86 -148h-114l158 254h87l155 -254h-115z" />
    <glyph glyph-name="Cdotaccent" unicode="&#x10a;" horiz-adv-x="1565" 
d="M793 -24q-198 0 -353 83q-164 84 -253.5 248.5t-89.5 398.5q0 154 37.5 278t102 207t155 139t193 80.5t218.5 24.5q257 0 427.5 -138.5t214.5 -395.5h-111q-37 209 -175 322.5t-356 113.5q-278 0 -438 -163.5t-160 -467.5q0 -308 157 -470.5t431 -162.5q237 0 377 113
t174 316h112q-41 -257 -214.5 -391.5t-448.5 -134.5zM789 1813q32 0 55 -22.5t23 -53.5t-23 -53.5t-55 -22.5q-33 0 -56 22t-23 54t23 54t56 22z" />
    <glyph glyph-name="cdotaccent" unicode="&#x10b;" horiz-adv-x="1138" 
d="M579 -24q-230 0 -365.5 139.5t-135.5 371.5q8 244 147.5 390t360.5 146q186 0 315 -100t158 -267h-106q-23 121 -122 191.5t-245 70.5q-175 0 -286.5 -117.5t-114.5 -315.5q0 -185 107 -294.5t287 -109.5q148 0 249.5 70.5t124.5 192.5h106q-30 -163 -161.5 -265.5
t-318.5 -102.5zM586 1445q32 0 55 -22.5t23 -53.5t-23 -53.5t-55 -22.5q-33 0 -56 22t-23 54t23 54t56 22z" />
    <glyph glyph-name="Ccaron" unicode="&#x10c;" horiz-adv-x="1565" 
d="M793 -24q-198 0 -353 83q-164 84 -253.5 248.5t-89.5 398.5q0 154 37.5 278t102 207t155 139t193 80.5t218.5 24.5q257 0 427.5 -138.5t214.5 -395.5h-111q-37 209 -175 322.5t-356 113.5q-278 0 -438 -163.5t-160 -467.5q0 -308 157 -470.5t431 -162.5q237 0 377 113
t174 316h112q-41 -257 -214.5 -391.5t-448.5 -134.5zM989 1876l-156 -253h-86l-159 253h116l86 -148l86 148h113z" />
    <glyph glyph-name="ccaron" unicode="&#x10d;" horiz-adv-x="1138" 
d="M579 -24q-230 0 -365.5 139.5t-135.5 371.5q8 244 147.5 390t360.5 146q186 0 315 -100t158 -267h-106q-23 121 -122 191.5t-245 70.5q-175 0 -286.5 -117.5t-114.5 -315.5q0 -185 107 -294.5t287 -109.5q148 0 249.5 70.5t124.5 192.5h106q-30 -163 -161.5 -265.5
t-318.5 -102.5zM786 1508l-156 -253h-86l-159 253h116l86 -148l86 148h113z" />
    <glyph glyph-name="Dcaron" unicode="&#x10e;" horiz-adv-x="1446" 
d="M522 1310h-274v-1210h274q145 0 253 15.5t202.5 56t153.5 108t92.5 174t33.5 252.5q0 299 -192 451.5t-543 152.5zM522 0h-382v1410h382q394 0 619.5 -182.5t225.5 -521.5q0 -517 -407 -647q-188 -59 -438 -59zM741 1876h113l-156 -253h-86l-159 253h116l86 -148z" />
    <glyph glyph-name="dcaron" unicode="&#x10f;" horiz-adv-x="1141" 
d="M559 83q77 0 147 27.5t124.5 79t86.5 132.5t32 180q0 192 -106 303t-264 111q-179 0 -285.5 -117t-106.5 -297q0 -183 98 -301t274 -118zM567 -24q-215 0 -352 149.5t-137 376.5q0 146 60 264t172.5 187.5t258.5 69.5q264 0 386 -226v613h107v-1410h-89l-12 215
q-137 -239 -394 -239zM654 1516h113l-156 -253h-86l-159 253h116l86 -148z" />
    <glyph glyph-name="Emacron" unicode="&#x112;" horiz-adv-x="1264" 
d="M1144 0h-1004v1410h982v-102h-874v-543h719v-103h-719v-562h896v-100zM823 1683h-373v95h373v-95z" />
    <glyph glyph-name="emacron" unicode="&#x113;" horiz-adv-x="1129" 
d="M197 589h743q-6 58 -30.5 114.5t-66 107t-109 81.5t-150.5 31q-153 0 -257.5 -92.5t-129.5 -241.5zM572 -24q-120 0 -216.5 45t-156.5 120.5t-91.5 171t-29.5 199.5q5 222 144.5 366.5t361.5 144.5q195 0 322.5 -124t142.5 -328l2 -30v-51h-864q5 -192 105 -303t280 -111
q142 0 242.5 73t118.5 195h108q-24 -164 -156 -266t-313 -102zM758 1410v-95h-373v95h373z" />
    <glyph glyph-name="Edotaccent" unicode="&#x116;" horiz-adv-x="1264" 
d="M1144 0h-1004v1410h982v-102h-874v-543h719v-103h-719v-562h896v-100zM637 1813q32 0 55 -22.5t23 -53.5t-23 -53.5t-55 -22.5q-33 0 -56 22t-23 54t23 54t56 22z" />
    <glyph glyph-name="edotaccent" unicode="&#x117;" horiz-adv-x="1129" 
d="M197 589h743q-6 58 -30.5 114.5t-66 107t-109 81.5t-150.5 31q-153 0 -257.5 -92.5t-129.5 -241.5zM572 -24q-120 0 -216.5 45t-156.5 120.5t-91.5 171t-29.5 199.5q5 222 144.5 366.5t361.5 144.5q195 0 322.5 -124t142.5 -328l2 -30v-51h-864q5 -192 105 -303t280 -111
q142 0 242.5 73t118.5 195h108q-24 -164 -156 -266t-313 -102zM572 1445q32 0 55 -22.5t23 -53.5t-23 -53.5t-55 -22.5q-33 0 -56 22t-23 54t23 54t56 22z" />
    <glyph glyph-name="Eogonek" unicode="&#x118;" horiz-adv-x="1264" 
d="M897 0h-757v1410h982v-102h-874v-543h719v-103h-719v-562h896v-100h-24q-111 -10 -187 -88t-76 -179q0 -82 72 -82q71 0 147 85v-115q-72 -63 -170 -63q-71 0 -117 38t-46 123q0 83 41 157t113 124z" />
    <glyph glyph-name="eogonek" unicode="&#x119;" horiz-adv-x="1129" 
d="M197 589h743q-6 58 -30.5 114.5t-66 107t-109 81.5t-150.5 31q-153 0 -257.5 -92.5t-129.5 -241.5zM508 -21q-105 12 -189 60.5t-136.5 122t-79.5 163.5t-25 187q5 222 144.5 366.5t361.5 144.5q195 0 322.5 -124t142.5 -328l2 -30v-51h-864q5 -192 105 -303t280 -111
q142 0 242.5 73t118.5 195h108q-16 -111 -84 -195.5t-172 -129.5l6 -3q-3 0 -8 -0.5t-7 -0.5q-57 -23 -111 -31q-70 -36 -111.5 -99.5t-41.5 -136.5q0 -82 72 -82q70 0 147 85v-115q-72 -63 -170 -63q-71 0 -117 38t-46 123q0 141 110 245z" />
    <glyph glyph-name="Ecaron" unicode="&#x11a;" horiz-adv-x="1264" 
d="M1144 0h-1004v1410h982v-102h-874v-543h719v-103h-719v-562h896v-100zM837 1876l-156 -253h-86l-159 253h116l86 -148l86 148h113z" />
    <glyph glyph-name="ecaron" unicode="&#x11b;" horiz-adv-x="1129" 
d="M197 589h743q-6 58 -30.5 114.5t-66 107t-109 81.5t-150.5 31q-153 0 -257.5 -92.5t-129.5 -241.5zM572 -24q-120 0 -216.5 45t-156.5 120.5t-91.5 171t-29.5 199.5q5 222 144.5 366.5t361.5 144.5q195 0 322.5 -124t142.5 -328l2 -30v-51h-864q5 -192 105 -303t280 -111
q142 0 242.5 73t118.5 195h108q-24 -164 -156 -266t-313 -102zM659 1508h113l-156 -253h-86l-159 253h116l86 -148z" />
    <glyph glyph-name="Gcircumflex" unicode="&#x11c;" horiz-adv-x="1568" 
d="M780 -34q-315 0 -498 197t-183 536q0 346 185.5 541t512.5 195q267 0 438 -131.5t206 -378.5h-102q-83 409 -542 409q-288 0 -443.5 -167t-155.5 -468q0 -299 156 -467.5t431 -168.5q241 0 385.5 129.5t161.5 357.5h-567v101h703v-651h-94l-16 295q-21 -46 -51 -88.5
t-80.5 -87.5t-111.5 -78t-148 -54t-187 -21zM996 1622h-115l-85 148l-86 -148h-114l158 254h87z" />
    <glyph glyph-name="gcircumflex" unicode="&#x11d;" horiz-adv-x="1207" 
d="M560 83q77 0 146.5 27.5t124.5 79t87 132.5t32 180q0 192 -106.5 303t-264.5 111q-179 0 -285.5 -117t-106.5 -297q0 -183 98.5 -301t274.5 -118zM978 1023h87v-1052q0 -289 -135 -413q-103 -98 -332 -98q-231 0 -332 98q-109 97 -131 299h110q15 -83 19 -100
q19 -63 55 -104.5t105.5 -66t173.5 -24.5q152 0 228.5 49.5t104.5 146.5q27 96 27 213v238q-24 -42 -55 -77.5t-78.5 -73.5t-114 -60t-143.5 -22q-215 0 -352 149.5t-137 376.5q0 228 136 374.5t355 146.5q81 0 148.5 -21.5t114 -58t76 -73t51.5 -78.5zM838 1234h-115
l-85 148l-86 -148h-114l158 254h87z" />
    <glyph glyph-name="Gbreve" unicode="&#x11e;" horiz-adv-x="1568" 
d="M780 -34q-315 0 -498 197t-183 536q0 346 185.5 541t512.5 195q267 0 438 -131.5t206 -378.5h-102q-83 409 -542 409q-288 0 -443.5 -167t-155.5 -468q0 -299 156 -467.5t431 -168.5q241 0 385.5 129.5t161.5 357.5h-567v101h703v-651h-94l-16 295q-21 -46 -51 -88.5
t-80.5 -87.5t-111.5 -78t-148 -54t-187 -21zM911 1869h94q4 -128 -48 -201.5t-160 -73.5q-109 0 -161.5 73.5t-47.5 201.5h93q-2 -88 28 -132.5t88 -44.5q117 0 114 177z" />
    <glyph glyph-name="gbreve" unicode="&#x11f;" horiz-adv-x="1207" 
d="M560 83q77 0 146.5 27.5t124.5 79t87 132.5t32 180q0 192 -106.5 303t-264.5 111q-179 0 -285.5 -117t-106.5 -297q0 -183 98.5 -301t274.5 -118zM978 1023h87v-1052q0 -289 -135 -413q-103 -98 -332 -98q-231 0 -332 98q-109 97 -131 299h110q15 -83 19 -100
q19 -63 55 -104.5t105.5 -66t173.5 -24.5q152 0 228.5 49.5t104.5 146.5q27 96 27 213v238q-24 -42 -55 -77.5t-78.5 -73.5t-114 -60t-143.5 -22q-215 0 -352 149.5t-137 376.5q0 228 136 374.5t355 146.5q81 0 148.5 -21.5t114 -58t76 -73t51.5 -78.5zM753 1481h94
q4 -128 -48 -201.5t-160 -73.5q-109 0 -161.5 73.5t-47.5 201.5h93q-2 -88 28 -132.5t88 -44.5q117 0 114 177z" />
    <glyph glyph-name="Gdotaccent" unicode="&#x120;" horiz-adv-x="1568" 
d="M780 -34q-315 0 -498 197t-183 536q0 346 185.5 541t512.5 195q267 0 438 -131.5t206 -378.5h-102q-83 409 -542 409q-288 0 -443.5 -167t-155.5 -468q0 -299 156 -467.5t431 -168.5q241 0 385.5 129.5t161.5 357.5h-567v101h703v-651h-94l-16 295q-21 -46 -51 -88.5
t-80.5 -87.5t-111.5 -78t-148 -54t-187 -21zM797 1813q32 0 55 -22.5t23 -53.5t-23 -53.5t-55 -22.5q-33 0 -56 22t-23 54t23 54t56 22z" />
    <glyph glyph-name="gdotaccent" unicode="&#x121;" horiz-adv-x="1207" 
d="M560 83q77 0 146.5 27.5t124.5 79t87 132.5t32 180q0 192 -106.5 303t-264.5 111q-179 0 -285.5 -117t-106.5 -297q0 -183 98.5 -301t274.5 -118zM978 1023h87v-1052q0 -289 -135 -413q-103 -98 -332 -98q-231 0 -332 98q-109 97 -131 299h110q15 -83 19 -100
q19 -63 55 -104.5t105.5 -66t173.5 -24.5q152 0 228.5 49.5t104.5 146.5q27 96 27 213v238q-24 -42 -55 -77.5t-78.5 -73.5t-114 -60t-143.5 -22q-215 0 -352 149.5t-137 376.5q0 228 136 374.5t355 146.5q81 0 148.5 -21.5t114 -58t76 -73t51.5 -78.5zM639 1425
q32 0 55 -22.5t23 -53.5t-23 -53.5t-55 -22.5q-33 0 -56 22t-23 54t23 54t56 22z" />
    <glyph glyph-name="Hcircumflex" unicode="&#x124;" horiz-adv-x="1393" 
d="M246 0h-106v1410h106v-626h903v626h103v-1410h-103v685h-903v-685zM780 1622l-85 148l-86 -148h-114l158 254h87l155 -254h-115z" />
    <glyph glyph-name="hcircumflex" unicode="&#x125;" horiz-adv-x="1143" 
d="M245 0h-105v1410h105v-606q119 219 375 219q121 0 205 -36.5t131 -107t67 -159.5t20 -209v-511h-104v511q0 204 -71.5 306.5t-242.5 102.5q-174 0 -277 -118.5t-103 -319.5v-482zM682 1252l-85 148l-86 -148h-114l158 254h87l155 -254h-115z" />
    <glyph glyph-name="Idotaccent" unicode="&#x130;" horiz-adv-x="448" 
d="M275 0h-104v1403h104v-1403zM223 1813q32 0 55 -22.5t23 -53.5t-23 -53.5t-55 -22.5q-33 0 -56 22t-23 54t23 54t56 22z" />
    <glyph glyph-name="dotlessi" unicode="&#x131;" horiz-adv-x="461" 
d="M283 0h-106v1023h106v-1023z" />
    <glyph glyph-name="IJ" unicode="&#x132;" horiz-adv-x="1818" 
d="M276 0h-104v1403h104v-1403zM506 623h102q-4 -269 124 -413t360 -144q487 0 487 538v806h100v-806q0 -308 -151.5 -473t-435.5 -165q-280 0 -435.5 174t-150.5 483z" />
    <glyph glyph-name="ij" unicode="&#x133;" horiz-adv-x="909" 
d="M282 0h-106v1023h106v-1023zM230 1152q-47 0 -68.5 25t-21.5 63q0 37 22 61t68 24q88 0 88 -85q0 -88 -88 -88zM628 -266v1289h108l-2 -1289q0 -75 -7.5 -123.5t-21 -79.5t-42 -46.5t-62 -20.5t-89.5 -5q-22 0 -83 1t-100 1v99h98h64.5t48 3.5t37 6t23 13t16.5 20t7 31.5
t5 42v58zM682 1152q-48 0 -69.5 25t-21.5 63q0 36 22 60.5t69 24.5q87 0 87 -85q0 -88 -87 -88z" />
    <glyph glyph-name="uni0136" unicode="&#x136;" horiz-adv-x="1339" 
d="M249 -2h-109v1412h109v-755l842 755h171l-701 -623l721 -787h-157l-642 718l-234 -208v-512zM764 -84l-127 -289h-100l106 289h121z" />
    <glyph glyph-name="uni0137" unicode="&#x137;" horiz-adv-x="1181" 
d="M246 -2h-106v1412h106v-981l655 594h156l-501 -457l504 -571h-143l-439 501l-232 -210v-288zM693 -84l-127 -289h-100l106 289h121z" />
    <glyph glyph-name="Lacute" unicode="&#x139;" horiz-adv-x="1258" 
d="M154 0v1410h105v-1313h879v-97h-984zM237 1654h-101l144 253h132z" />
    <glyph glyph-name="lacute" unicode="&#x13a;" horiz-adv-x="417" 
d="M260 0h-106v1410h106v-1410zM213 1640h-101l144 253h132z" />
    <glyph glyph-name="uni013B" unicode="&#x13b;" horiz-adv-x="1244" 
d="M140 0v1410h105v-1313h879v-97h-984zM693 -84l-127 -289h-100l106 289h121z" />
    <glyph glyph-name="uni013C" unicode="&#x13c;" horiz-adv-x="409" 
d="M250 0h-106v1410h106v-1410zM274 -84l-127 -289h-100l106 289h121z" />
    <glyph glyph-name="Lcaron" unicode="&#x13d;" horiz-adv-x="1257" 
d="M153 0v1410h105v-1313h879v-97h-984zM431 1892l-156 -253h-86l-159 253h116l86 -148l86 148h113z" />
    <glyph glyph-name="lcaron" unicode="&#x13e;" horiz-adv-x="413" 
d="M259 0h-106v1410h106v-1410zM407 1878l-156 -253h-86l-159 253h116l86 -148l86 148h113z" />
    <glyph glyph-name="Nacute" unicode="&#x143;" horiz-adv-x="1334" 
d="M241 0h-101v1404h99l855 -1223v1223h99v-1404h-93l-859 1233v-1233zM683 1638h-101l144 253h132z" />
    <glyph glyph-name="nacute" unicode="&#x144;" horiz-adv-x="1143" 
d="M245 0h-105v1023h92l10 -225q118 225 378 225q121 0 205 -36.5t131 -107t67 -159.5t20 -209v-511h-104v511q0 204 -71.5 306.5t-242.5 102.5q-174 0 -277 -118.5t-103 -319.5v-482zM603 1250h-101l144 253h132z" />
    <glyph glyph-name="uni0145" unicode="&#x145;" horiz-adv-x="1334" 
d="M241 0h-101v1404h99l855 -1223v1223h99v-1404h-93l-859 1233v-1233zM693 -84l-127 -289h-100l106 289h121z" />
    <glyph glyph-name="uni0146" unicode="&#x146;" horiz-adv-x="1143" 
d="M245 0h-105v1023h92l10 -225q118 225 378 225q121 0 205 -36.5t131 -107t67 -159.5t20 -209v-511h-104v511q0 204 -71.5 306.5t-242.5 102.5q-174 0 -277 -118.5t-103 -319.5v-482zM693 -84l-127 -289h-100l106 289h121z" />
    <glyph glyph-name="Ncaron" unicode="&#x147;" horiz-adv-x="1334" 
d="M241 0h-101v1404h99l855 -1223v1223h99v-1404h-93l-859 1233v-1233zM878 1876l-156 -253h-86l-159 253h116l86 -148l86 148h113z" />
    <glyph glyph-name="ncaron" unicode="&#x148;" horiz-adv-x="1143" 
d="M245 0h-105v1023h92l10 -225q118 225 378 225q121 0 205 -36.5t131 -107t67 -159.5t20 -209v-511h-104v511q0 204 -71.5 306.5t-242.5 102.5q-174 0 -277 -118.5t-103 -319.5v-482zM798 1488l-156 -253h-86l-159 253h116l86 -148l86 148h113z" />
    <glyph glyph-name="Omacron" unicode="&#x14c;" horiz-adv-x="1585" 
d="M791 -34q-332 0 -512 197t-180 538q0 343 179 538.5t513 195.5q335 0 514.5 -196.5t179.5 -537.5q0 -345 -183 -540t-511 -195zM791 66q285 0 437 166.5t152 468.5q0 307 -150 470t-439 163t-438.5 -163t-149.5 -470q0 -306 151 -470.5t437 -164.5zM961 1683h-373v95h373
v-95z" />
    <glyph glyph-name="omacron" unicode="&#x14d;" horiz-adv-x="1126" 
d="M564 -24q-229 0 -357.5 139t-128.5 382q0 247 128.5 386.5t357.5 139.5q230 0 357 -143t127 -383q0 -238 -124.5 -379.5t-359.5 -141.5zM564 78q99 0 173 32.5t117 91.5t63.5 132.5t20.5 162.5q0 91 -20.5 165.5t-63.5 133.5t-117 91.5t-173 32.5q-188 -1 -281.5 -115.5
t-93.5 -307.5q0 -84 20 -156t62 -132.5t117 -95.5t176 -35zM768 1295h-373v95h373v-95z" />
    <glyph glyph-name="Ohungarumlaut" unicode="&#x150;" horiz-adv-x="1585" 
d="M791 -34q-332 0 -512 197t-180 538q0 343 179 538.5t513 195.5q335 0 514.5 -196.5t179.5 -537.5q0 -345 -183 -540t-511 -195zM791 66q285 0 437 166.5t152 468.5q0 307 -150 470t-439 163t-438.5 -163t-149.5 -470q0 -306 151 -470.5t437 -164.5zM669 1624h-100
l144 253h131zM882 1624h-100l143 253h132z" />
    <glyph glyph-name="ohungarumlaut" unicode="&#x151;" horiz-adv-x="1126" 
d="M564 -24q-229 0 -357.5 139t-128.5 382q0 247 128.5 386.5t357.5 139.5q230 0 357 -143t127 -383q0 -238 -124.5 -379.5t-359.5 -141.5zM564 78q99 0 173 32.5t117 91.5t63.5 132.5t20.5 162.5q0 91 -20.5 165.5t-63.5 133.5t-117 91.5t-173 32.5q-188 -1 -281.5 -115.5
t-93.5 -307.5q0 -84 20 -156t62 -132.5t117 -95.5t176 -35zM439 1236h-100l144 253h131zM652 1236h-100l143 253h132z" />
    <glyph glyph-name="OE" unicode="&#x152;" horiz-adv-x="2511" 
d="M791 66q285 0 437 166.5t152 468.5q0 307 -150 470t-439 163t-438.5 -163t-149.5 -470q0 -306 151 -470.5t437 -164.5zM791 -34q-332 0 -512 197t-180 538q0 343 179 538.5t513 195.5q210 0 361 -79.5t235 -227.5v282h981v-102h-873v-543h719v-103h-719v-562h896v-100
h-1004v277q-86 -151 -237.5 -231t-358.5 -80z" />
    <glyph glyph-name="oe" unicode="&#x153;" horiz-adv-x="1978" 
d="M564 78q98 0 171.5 32t116.5 89.5t64 130t22 160.5v17q-1 89 -22.5 162t-64.5 130.5t-116 89t-171 31.5q-144 0 -223 -61q-152 -115 -152 -362q0 -99 34 -198q78 -221 341 -221zM1056 589h731q-6 58 -30.5 114.5t-66 107t-109 81.5t-150.5 31q-152 0 -251 -92t-124 -242z
M564 -24q-229 0 -357.5 139t-128.5 382q0 247 128.5 386.5t357.5 139.5q156 0 266 -68t166 -191q60 121 172.5 190t262.5 69q195 0 322.5 -124t142.5 -328l2 -30v-51h-850v6l-1 -31q11 -182 110.5 -285.5t273.5 -103.5q142 0 242.5 73t118.5 195h108q-24 -164 -156 -266
t-313 -102q-153 0 -263.5 70t-169.5 188q-55 -123 -164.5 -190.5t-269.5 -67.5z" />
    <glyph glyph-name="Racute" unicode="&#x154;" horiz-adv-x="1314" 
d="M623 1308h-375v-592h439q212 0 307.5 66.5t95.5 228.5q0 58 -12 103.5t-31.5 76.5t-54 53t-69 34.5t-87.5 19t-99 8.5t-114 2zM248 617v-617h-108v1410h483q188 0 307 -32q131 -35 197 -123.5t66 -243.5q0 -122 -60 -215t-172 -129q34 -12 62.5 -31.5t49 -41.5
t36.5 -54.5t26.5 -61t18 -71.5t11 -74.5t6 -81.5t2.5 -82t0.5 -85.5t1.5 -83.5h-100q0 79 -1 130t-4 111.5t-9 99t-16.5 81.5t-26.5 69t-38 51t-51.5 39.5t-67.5 22.5q-65 12 -177 14q-109 2 -271 0q-55 -1 -165 -1zM831 1891l-175 -253h-101l144 253h132z" />
    <glyph glyph-name="racute" unicode="&#x155;" horiz-adv-x="683" 
d="M638 1022l8 -102q-182 8 -291.5 -111.5t-109.5 -326.5v-482h-105v1023h92l10 -225q123 232 396 224zM362 1250h-101l144 253h132z" />
    <glyph glyph-name="uni0156" unicode="&#x156;" horiz-adv-x="1314" 
d="M623 1308h-375v-592h439q212 0 307.5 66.5t95.5 228.5q0 58 -12 103.5t-31.5 76.5t-54 53t-69 34.5t-87.5 19t-99 8.5t-114 2zM248 617v-617h-108v1410h483q188 0 307 -32q131 -35 197 -123.5t66 -243.5q0 -122 -60 -215t-172 -129q34 -12 62.5 -31.5t49 -41.5
t36.5 -54.5t26.5 -61t18 -71.5t11 -74.5t6 -81.5t2.5 -82t0.5 -85.5t1.5 -83.5h-100q0 79 -1 130t-4 111.5t-9 99t-16.5 81.5t-26.5 69t-38 51t-51.5 39.5t-67.5 22.5q-65 12 -177 14q-109 2 -271 0q-55 -1 -165 -1zM572 -84h121l-127 -289h-100z" />
    <glyph glyph-name="uni0157" unicode="&#x157;" horiz-adv-x="709" 
d="M664 1022l8 -102q-182 8 -291.5 -111.5t-109.5 -326.5v-482h-105v1023h92l10 -225q123 232 396 224zM272 -84l-127 -289h-100l106 289h121z" />
    <glyph glyph-name="Rcaron" unicode="&#x158;" horiz-adv-x="1314" 
d="M623 1308h-375v-592h439q212 0 307.5 66.5t95.5 228.5q0 58 -12 103.5t-31.5 76.5t-54 53t-69 34.5t-87.5 19t-99 8.5t-114 2zM248 617v-617h-108v1410h483q188 0 307 -32q131 -35 197 -123.5t66 -243.5q0 -122 -60 -215t-172 -129q34 -12 62.5 -31.5t49 -41.5
t36.5 -54.5t26.5 -61t18 -71.5t11 -74.5t6 -81.5t2.5 -82t0.5 -85.5t1.5 -83.5h-100q0 79 -1 130t-4 111.5t-9 99t-16.5 81.5t-26.5 69t-38 51t-51.5 39.5t-67.5 22.5q-65 12 -177 14q-109 2 -271 0q-55 -1 -165 -1zM738 1876h113l-156 -253h-86l-159 253h116l86 -148z" />
    <glyph glyph-name="rcaron" unicode="&#x159;" horiz-adv-x="683" 
d="M638 1022l8 -102q-182 8 -291.5 -111.5t-109.5 -326.5v-482h-105v1023h92l10 -225q123 232 396 224zM557 1488l-156 -253h-86l-159 253h116l86 -148l86 148h113z" />
    <glyph glyph-name="Sacute" unicode="&#x15a;" horiz-adv-x="1363" 
d="M722 -34q-125 0 -233 30t-191.5 88t-131 150.5t-46.5 208.5h105l7 -61q10 -88 57.5 -152t119.5 -98.5t150 -50t165 -15.5q86 0 156 14.5t114 38.5t75.5 52t46.5 59.5t21.5 55.5t6.5 45q3 95 -44 154q-81 101 -319 158q-223 54 -291 77q-199 67 -266 180q-45 76 -42 180
q5 107 78 189t191.5 124t263.5 42q158 0 277.5 -54t183.5 -161t54 -251h-108q7 83 -18.5 149t-69.5 105.5t-103 65.5t-113 35.5t-105 9.5q-183 0 -301 -73.5t-124 -182.5q-3 -89 44 -147q84 -100 316 -152q224 -51 312 -84q199 -75 257 -210q28 -68 26 -154
q-4 -164 -152 -264.5t-369 -100.5zM689 1638h-101l144 253h132z" />
    <glyph glyph-name="sacute" unicode="&#x15b;" horiz-adv-x="975" 
d="M484 -24q-45 0 -90.5 6t-97.5 20t-94 40.5t-76 64t-49 95.5t-7 130h109q-7 -62 10 -110t48.5 -76t76.5 -45.5t87 -23.5t86 -6q91 0 160.5 18t113 60.5t41.5 106.5q0 78 -47 119q-45 39 -116 60.5t-186 42.5q-93 18 -174 44q-96 32 -147.5 92.5t-48.5 163.5q2 117 118 193
t296 76q38 0 76 -4t81.5 -14.5t81 -27t71.5 -44.5t56.5 -64t32.5 -87.5t3 -113.5h-109q6 52 -4.5 94t-35 68.5t-55 45t-69.5 28t-73 13.5t-71 4q-129 0 -212 -43.5t-83 -124.5q0 -69 45 -104q31 -25 83.5 -44t95 -28.5t120.5 -23.5q49 -10 80 -17.5t75 -22t72 -29.5
t59 -39.5t48.5 -53.5t29.5 -69.5t12 -89.5q0 -98 -58.5 -162.5t-150 -91t-214.5 -26.5zM487 1250h-101l144 253h132z" />
    <glyph glyph-name="Scircumflex" unicode="&#x15c;" horiz-adv-x="1363" 
d="M722 -34q-125 0 -233 30t-191.5 88t-131 150.5t-46.5 208.5h105l7 -61q10 -88 57.5 -152t119.5 -98.5t150 -50t165 -15.5q86 0 156 14.5t114 38.5t75.5 52t46.5 59.5t21.5 55.5t6.5 45q3 95 -44 154q-81 101 -319 158q-223 54 -291 77q-199 67 -266 180q-45 76 -42 180
q5 107 78 189t191.5 124t263.5 42q158 0 277.5 -54t183.5 -161t54 -251h-108q7 83 -18.5 149t-69.5 105.5t-103 65.5t-113 35.5t-105 9.5q-183 0 -301 -73.5t-124 -182.5q-3 -89 44 -147q84 -100 316 -152q224 -51 312 -84q199 -75 257 -210q28 -68 26 -154
q-4 -164 -152 -264.5t-369 -100.5zM768 1622l-85 148l-86 -148h-114l158 254h87l155 -254h-115z" />
    <glyph glyph-name="scircumflex" unicode="&#x15d;" horiz-adv-x="975" 
d="M484 -24q-45 0 -90.5 6t-97.5 20t-94 40.5t-76 64t-49 95.5t-7 130h109q-7 -62 10 -110t48.5 -76t76.5 -45.5t87 -23.5t86 -6q91 0 160.5 18t113 60.5t41.5 106.5q0 78 -47 119q-45 39 -116 60.5t-186 42.5q-93 18 -174 44q-96 32 -147.5 92.5t-48.5 163.5q2 117 118 193
t296 76q38 0 76 -4t81.5 -14.5t81 -27t71.5 -44.5t56.5 -64t32.5 -87.5t3 -113.5h-109q6 52 -4.5 94t-35 68.5t-55 45t-69.5 28t-73 13.5t-71 4q-129 0 -212 -43.5t-83 -124.5q0 -69 45 -104q31 -25 83.5 -44t95 -28.5t120.5 -23.5q49 -10 80 -17.5t75 -22t72 -29.5
t59 -39.5t48.5 -53.5t29.5 -69.5t12 -89.5q0 -98 -58.5 -162.5t-150 -91t-214.5 -26.5zM566 1234l-85 148l-86 -148h-114l158 254h87l155 -254h-115z" />
    <glyph glyph-name="Scedilla" unicode="&#x15e;" horiz-adv-x="1363" 
d="M737 -34l-37 -66q163 -28 163 -169q0 -88 -68.5 -134.5t-166.5 -46.5q-79 0 -124 27v99q51 -36 127 -36q62 0 96 23.5t34 67.5q0 90 -150 90q-27 0 -62 -3l82 152q-109 10 -201.5 45t-162.5 92.5t-109 143.5t-38 192h105l7 -61q10 -88 57.5 -152t119.5 -98.5t150 -50
t165 -15.5q86 0 156 14.5t114 38.5t75.5 52t46.5 59.5t21.5 55.5t6.5 45q3 95 -44 154q-81 101 -319 158q-223 54 -291 77q-199 67 -266 180q-45 76 -42 180q5 107 78 189t191.5 124t263.5 42q158 0 277.5 -54t183.5 -161t54 -251h-108q7 83 -18.5 149t-69.5 105.5
t-103 65.5t-113 35.5t-105 9.5q-183 0 -301 -73.5t-124 -182.5q-3 -89 44 -147q84 -100 316 -152q224 -51 312 -84q199 -75 257 -210q28 -68 26 -154q-4 -161 -147 -261t-359 -104z" />
    <glyph glyph-name="scedilla" unicode="&#x15f;" horiz-adv-x="975" 
d="M349 -184l87 162q-55 4 -105.5 15t-104 37t-90 63.5t-56 99t-10.5 139.5h109q-7 -62 10 -110t48.5 -76t76.5 -45.5t87 -23.5t86 -6q91 0 160.5 18t113 60.5t41.5 106.5q0 78 -47 119q-45 39 -116 60.5t-186 42.5q-93 18 -174 44q-96 32 -147.5 92.5t-48.5 163.5
q2 117 118 193t296 76q38 0 76 -4t81.5 -14.5t81 -27t71.5 -44.5t56.5 -64t32.5 -87.5t3 -113.5h-109q6 52 -4.5 94t-35 68.5t-55 45t-69.5 28t-73 13.5t-71 4q-129 0 -212 -43.5t-83 -124.5q0 -69 45 -104q31 -25 83.5 -44t95 -28.5t120.5 -23.5q49 -10 80 -17.5t75 -22
t72 -29.5t59 -39.5t48.5 -53.5t29.5 -69.5t12 -89.5q0 -132 -99 -200t-264 -78l-44 -80q163 -28 163 -169q0 -88 -68.5 -134.5t-166.5 -46.5q-79 0 -124 27v99q51 -36 127 -36q62 0 96 23.5t34 67.5q0 90 -150 90q-28 0 -62 -3z" />
    <glyph glyph-name="Scaron" unicode="&#x160;" horiz-adv-x="1363" 
d="M722 -34q-125 0 -233 30t-191.5 88t-131 150.5t-46.5 208.5h105l7 -61q10 -88 57.5 -152t119.5 -98.5t150 -50t165 -15.5q86 0 156 14.5t114 38.5t75.5 52t46.5 59.5t21.5 55.5t6.5 45q3 95 -44 154q-81 101 -319 158q-223 54 -291 77q-199 67 -266 180q-45 76 -42 180
q5 107 78 189t191.5 124t263.5 42q158 0 277.5 -54t183.5 -161t54 -251h-108q7 83 -18.5 149t-69.5 105.5t-103 65.5t-113 35.5t-105 9.5q-183 0 -301 -73.5t-124 -182.5q-3 -89 44 -147q84 -100 316 -152q224 -51 312 -84q199 -75 257 -210q28 -68 26 -154
q-4 -164 -152 -264.5t-369 -100.5zM884 1876l-156 -253h-86l-159 253h116l86 -148l86 148h113z" />
    <glyph glyph-name="scaron" unicode="&#x161;" horiz-adv-x="975" 
d="M484 -24q-45 0 -90.5 6t-97.5 20t-94 40.5t-76 64t-49 95.5t-7 130h109q-7 -62 10 -110t48.5 -76t76.5 -45.5t87 -23.5t86 -6q91 0 160.5 18t113 60.5t41.5 106.5q0 78 -47 119q-45 39 -116 60.5t-186 42.5q-93 18 -174 44q-96 32 -147.5 92.5t-48.5 163.5q2 117 118 193
t296 76q38 0 76 -4t81.5 -14.5t81 -27t71.5 -44.5t56.5 -64t32.5 -87.5t3 -113.5h-109q6 52 -4.5 94t-35 68.5t-55 45t-69.5 28t-73 13.5t-71 4q-129 0 -212 -43.5t-83 -124.5q0 -69 45 -104q31 -25 83.5 -44t95 -28.5t120.5 -23.5q49 -10 80 -17.5t75 -22t72 -29.5
t59 -39.5t48.5 -53.5t29.5 -69.5t12 -89.5q0 -98 -58.5 -162.5t-150 -91t-214.5 -26.5zM682 1488l-156 -253h-86l-159 253h116l86 -148l86 148h113z" />
    <glyph glyph-name="uni0162" unicode="&#x162;" horiz-adv-x="1290" 
d="M687 0l-49 -89q163 -28 163 -169q0 -88 -68.5 -134.5t-166.5 -46.5q-79 0 -124 27v99q51 -36 127 -36q62 0 96 23.5t34 67.5q0 90 -150 90q-27 0 -62 -3l105 196h2v1285h-495v100h1091v-100h-492v-1285z" />
    <glyph glyph-name="uni0163" unicode="&#x163;" horiz-adv-x="689" 
d="M269 -160l94 175q-53 20 -76 78t-23 180v650h-175v100h175v256h104v-256h241v-100h-241v-650q0 -131 31 -154.5t184 -19.5q19 1 29 1v-100q-23 0 -74.5 -1t-74.5 0l-43 -77q163 -28 163 -169q0 -88 -68.5 -134.5t-166.5 -46.5q-79 0 -124 27v99q51 -36 127 -36
q62 0 96 23.5t34 67.5q0 90 -150 90q-27 0 -62 -3z" />
    <glyph glyph-name="Tcaron" unicode="&#x164;" horiz-adv-x="1290" 
d="M698 0h-104v1310h-495v100h1091v-100h-492v-1310zM843 1876l-156 -253h-86l-159 253h116l86 -148l86 148h113z" />
    <glyph glyph-name="tcaron" unicode="&#x165;" horiz-adv-x="689" 
d="M612 100v-100q-94 -2 -160 0t-108 24t-61 80t-19 169v650h-175v100h175v256h104v-256h241v-100h-241v-650q0 -131 31 -154.5t184 -19.5q19 1 29 1zM518 1744l-156 -253h-86l-159 253h116l86 -148l86 148h113z" />
    <glyph glyph-name="Utilde" unicode="&#x168;" horiz-adv-x="1456" 
d="M726 -34q-276 0 -431 168.5t-155 469.5v806h103v-806q0 -261 127.5 -399.5t355.5 -138.5q487 0 487 538v806h101v-806q0 -308 -151.5 -473t-436.5 -165zM633 1810q43 0 124 -26q69 -23 86 -23q10 0 12.5 7.5t0.5 33.5h90q5 -65 -21.5 -98.5t-79.5 -33.5q-46 0 -125 26
q-66 21 -87 21q-9 0 -11 -4.5t-2 -24.5v-10h-87q-4 65 22 98.5t78 33.5z" />
    <glyph glyph-name="utilde" unicode="&#x169;" 
d="M527 -24q-428 0 -428 511v536h108v-536q0 -74 8 -131.5t29 -111.5t56.5 -89t92.5 -56t134 -21q166 0 254.5 106.5t102.5 283.5v555h108v-1023h-84l-16 201q-51 -96 -145 -160.5t-220 -64.5zM460 1422q43 0 124 -26q69 -23 86 -23q10 0 12.5 7.5t0.5 33.5h90
q5 -65 -21.5 -98.5t-79.5 -33.5q-46 0 -125 26q-66 21 -87 21q-9 0 -11 -4.5t-2 -24.5v-10h-87q-4 65 22 98.5t78 33.5z" />
    <glyph glyph-name="Umacron" unicode="&#x16a;" horiz-adv-x="1456" 
d="M726 -34q-276 0 -431 168.5t-155 469.5v806h103v-806q0 -261 127.5 -399.5t355.5 -138.5q487 0 487 538v806h101v-806q0 -308 -151.5 -473t-436.5 -165zM926 1683h-373v95h373v-95z" />
    <glyph glyph-name="umacron" unicode="&#x16b;" 
d="M527 -24q-428 0 -428 511v536h108v-536q0 -74 8 -131.5t29 -111.5t56.5 -89t92.5 -56t134 -21q166 0 254.5 106.5t102.5 283.5v555h108v-1023h-84l-16 201q-51 -96 -145 -160.5t-220 -64.5zM753 1295h-373v95h373v-95z" />
    <glyph glyph-name="Ubreve" unicode="&#x16c;" horiz-adv-x="1456" 
d="M726 -34q-276 0 -431 168.5t-155 469.5v806h103v-806q0 -261 127.5 -399.5t355.5 -138.5q487 0 487 538v806h101v-806q0 -308 -151.5 -473t-436.5 -165zM854 1869h94q4 -128 -48 -201.5t-160 -73.5q-109 0 -161.5 73.5t-47.5 201.5h93q-4 -177 116 -177q117 0 114 177z
" />
    <glyph glyph-name="ubreve" unicode="&#x16d;" 
d="M527 -24q-428 0 -428 511v536h108v-536q0 -74 8 -131.5t29 -111.5t56.5 -89t92.5 -56t134 -21q166 0 254.5 106.5t102.5 283.5v555h108v-1023h-84l-16 201q-51 -96 -145 -160.5t-220 -64.5zM681 1481h94q4 -128 -48 -201.5t-160 -73.5q-109 0 -161.5 73.5t-47.5 201.5h93
q-4 -177 116 -177q117 0 114 177z" />
    <glyph glyph-name="Uring" unicode="&#x16e;" horiz-adv-x="1456" 
d="M740 1799q-29 0 -44.5 -17.5t-15.5 -46.5t15.5 -46.5t44.5 -17.5q28 0 44.5 18t16.5 46t-16.5 46t-44.5 18zM726 -34q-276 0 -431 168.5t-155 469.5v806h103v-806q0 -261 127.5 -399.5t355.5 -138.5q487 0 487 538v806h101v-806q0 -308 -151.5 -473t-436.5 -165z
M740 1885q68 0 113 -41t45 -109q0 -67 -45.5 -109.5t-112.5 -42.5q-68 0 -114 42.5t-46 109.5q0 68 46 109t114 41z" />
    <glyph glyph-name="uring" unicode="&#x16f;" 
d="M567 1411q-29 0 -44.5 -17.5t-15.5 -46.5t15.5 -46.5t44.5 -17.5q28 0 44.5 18t16.5 46t-16.5 46t-44.5 18zM527 -24q-428 0 -428 511v536h108v-536q0 -74 8 -131.5t29 -111.5t56.5 -89t92.5 -56t134 -21q166 0 254.5 106.5t102.5 283.5v555h108v-1023h-84l-16 201
q-51 -96 -145 -160.5t-220 -64.5zM567 1497q68 0 113 -41t45 -109q0 -67 -45.5 -109.5t-112.5 -42.5q-68 0 -114 42.5t-46 109.5q0 68 46 109t114 41z" />
    <glyph glyph-name="Uhungarumlaut" unicode="&#x170;" horiz-adv-x="1456" 
d="M726 -34q-276 0 -431 168.5t-155 469.5v806h103v-806q0 -261 127.5 -399.5t355.5 -138.5q487 0 487 538v806h101v-806q0 -308 -151.5 -473t-436.5 -165zM597 1624h-100l144 253h131zM810 1624h-100l143 253h132z" />
    <glyph glyph-name="uhungarumlaut" unicode="&#x171;" 
d="M527 -24q-428 0 -428 511v536h108v-536q0 -74 8 -131.5t29 -111.5t56.5 -89t92.5 -56t134 -21q166 0 254.5 106.5t102.5 283.5v555h108v-1023h-84l-16 201q-51 -96 -145 -160.5t-220 -64.5zM424 1236h-100l144 253h131zM637 1236h-100l143 253h132z" />
    <glyph glyph-name="Uogonek" unicode="&#x172;" horiz-adv-x="1456" 
d="M711 -34q-269 5 -420 173t-151 465v806h103v-806q0 -261 127.5 -399.5t355.5 -138.5q487 0 487 538v806h101v-806q0 -123 -25 -225t-77.5 -185t-140 -139t-206.5 -78q-60 -37 -95 -96.5t-35 -125.5q0 -82 72 -82q71 0 147 85v-115q-72 -63 -170 -63q-71 0 -117 38
t-46 123q0 125 90 225z" />
    <glyph glyph-name="uogonek" unicode="&#x173;" 
d="M905 40l-13 161q-51 -96 -145 -160.5t-220 -64.5q-428 0 -428 511v536h108v-536q0 -74 8 -131.5t29 -111.5t56.5 -89t92.5 -56t134 -21q166 0 254.5 106.5t102.5 283.5v555h108v-1023h-13l3 -2q-117 -4 -198 -83.5t-81 -184.5q0 -82 72 -82q71 0 147 85v-115
q-72 -63 -170 -63q-71 0 -117 38t-46 123q0 110 93 197.5t223 126.5z" />
    <glyph glyph-name="Wcircumflex" unicode="&#x174;" horiz-adv-x="2248" 
d="M1697 0h-144l-434 1236l-457 -1236h-143l-483 1410h115l443 -1293l476 1293h101l453 -1294l470 1294h117zM1205 1622l-85 148l-86 -148h-114l158 254h87l155 -254h-115z" />
    <glyph glyph-name="wcircumflex" unicode="&#x175;" horiz-adv-x="1630" 
d="M78 1023h111l283 -890l297 890h94l302 -891l276 891h110l-323 -1023h-132l-279 833l-278 -833h-127zM891 1234l-85 148l-86 -148h-114l158 254h87l155 -254h-115z" />
    <glyph glyph-name="Ycircumflex" unicode="&#x176;" horiz-adv-x="1258" 
d="M682 0h-107v533l-497 877h116l438 -764l432 764h115l-497 -877v-533zM689 1622l-85 148l-86 -148h-114l158 254h87l155 -254h-115z" />
    <glyph glyph-name="ycircumflex" unicode="&#x177;" horiz-adv-x="1122" 
d="M291 -541l-110 2l309 656l-412 906h117l355 -782l375 782h119zM627 1234l-85 148l-86 -148h-114l158 254h87l155 -254h-115z" />
    <glyph glyph-name="Ydieresis" unicode="&#x178;" horiz-adv-x="1258" 
d="M682 0h-107v533l-497 877h116l438 -764l432 764h115l-497 -877v-533zM551 1795q30 0 51.5 -21t21.5 -51q0 -28 -22 -49t-51 -21q-31 0 -52.5 20.5t-21.5 49.5q0 30 21.5 51t52.5 21zM746 1795q30 0 52 -21t22 -51q0 -28 -22 -49t-52 -21q-29 0 -50.5 21t-21.5 49
q0 30 21.5 51t50.5 21z" />
    <glyph glyph-name="Zacute" unicode="&#x179;" horiz-adv-x="1380" 
d="M1273 0h-1174v83l1034 1225h-938v102h1085v-83l-1034 -1225h1027v-102zM714 1638h-101l144 253h132z" />
    <glyph glyph-name="zacute" unicode="&#x17a;" horiz-adv-x="1113" 
d="M1014 0h-915v78l750 847h-718v98h883v-86l-756 -840h756v-97zM561 1250h-101l144 253h132z" />
    <glyph glyph-name="Zdotaccent" unicode="&#x17b;" horiz-adv-x="1380" 
d="M1273 0h-1174v83l1034 1225h-938v102h1085v-83l-1034 -1225h1027v-102zM709 1813q32 0 55 -22.5t23 -53.5t-23 -53.5t-55 -22.5q-33 0 -56 22t-23 54t23 54t56 22z" />
    <glyph glyph-name="zdotaccent" unicode="&#x17c;" horiz-adv-x="1113" 
d="M1014 0h-915v78l750 847h-718v98h883v-86l-756 -840h756v-97zM556 1425q32 0 55 -22.5t23 -53.5t-23 -53.5t-55 -22.5q-33 0 -56 22t-23 54t23 54t56 22z" />
    <glyph glyph-name="Zcaron" unicode="&#x17d;" horiz-adv-x="1380" 
d="M1273 0h-1174v83l1034 1225h-938v102h1085v-83l-1034 -1225h1027v-102zM909 1876l-156 -253h-86l-159 253h116l86 -148l86 148h113z" />
    <glyph glyph-name="zcaron" unicode="&#x17e;" horiz-adv-x="1113" 
d="M1014 0h-915v78l750 847h-718v98h883v-86l-756 -840h756v-97zM756 1488l-156 -253h-86l-159 253h116l86 -148l86 148h113z" />
    <glyph glyph-name="uni01CD" unicode="&#x1cd;" horiz-adv-x="1433" 
d="M1019 504l-303 760l-306 -760h609zM99 0l563 1410h104l567 -1410h-112l-160 398h-693l-161 -398h-108zM801 1876h113l-156 -253h-86l-159 253h116l86 -148z" />
    <glyph glyph-name="uni01CE" unicode="&#x1ce;" horiz-adv-x="1002" 
d="M417 73q185 0 281 78t96 249v107q-86 4 -110 4q-57 0 -114.5 -5t-128 -21.5t-123 -42t-88.5 -72t-36 -107.5q0 -92 56 -141t167 -49zM401 -25q-147 0 -235 73.5t-88 210.5q0 92 54 162t143 110.5t209 58.5q114 16 234 14h76v109q-10 116 -66.5 169t-165.5 53h-75
q-106 0 -179 -60t-82 -181h-110q2 147 106.5 243t264.5 96h75q164 0 249.5 -79t90.5 -224v-729h-88l-13 148q-28 -47 -64.5 -80.5t-72.5 -51.5t-84.5 -27.5t-86 -12t-92.5 -2.5zM615 1498h113l-156 -253h-86l-159 253h116l86 -148z" />
    <glyph glyph-name="Gcaron" unicode="&#x1e6;" horiz-adv-x="1568" 
d="M780 -34q-315 0 -498 197t-183 536q0 346 185.5 541t512.5 195q267 0 438 -131.5t206 -378.5h-102q-83 409 -542 409q-288 0 -443.5 -167t-155.5 -468q0 -299 156 -467.5t431 -168.5q241 0 385.5 129.5t161.5 357.5h-567v101h703v-651h-94l-16 295q-21 -46 -51 -88.5
t-80.5 -87.5t-111.5 -78t-148 -54t-187 -21zM884 1876h113l-156 -253h-86l-159 253h116l86 -148z" />
    <glyph glyph-name="gcaron" unicode="&#x1e7;" horiz-adv-x="1207" 
d="M560 83q77 0 146.5 27.5t124.5 79t87 132.5t32 180q0 192 -106.5 303t-264.5 111q-179 0 -285.5 -117t-106.5 -297q0 -183 98.5 -301t274.5 -118zM978 1023h87v-1052q0 -289 -135 -413q-103 -98 -332 -98q-231 0 -332 98q-109 97 -131 299h110q15 -83 19 -100
q19 -63 55 -104.5t105.5 -66t173.5 -24.5q152 0 228.5 49.5t104.5 146.5q27 96 27 213v238q-24 -42 -55 -77.5t-78.5 -73.5t-114 -60t-143.5 -22q-215 0 -352 149.5t-137 376.5q0 228 136 374.5t355 146.5q81 0 148.5 -21.5t114 -58t76 -73t51.5 -78.5zM726 1488h113
l-156 -253h-86l-159 253h116l86 -148z" />
    <glyph glyph-name="uni0218" unicode="&#x218;" horiz-adv-x="1363" 
d="M722 -34q-125 0 -233 30t-191.5 88t-131 150.5t-46.5 208.5h105l7 -61q10 -88 57.5 -152t119.5 -98.5t150 -50t165 -15.5q86 0 156 14.5t114 38.5t75.5 52t46.5 59.5t21.5 55.5t6.5 45q3 95 -44 154q-81 101 -319 158q-223 54 -291 77q-199 67 -266 180q-45 76 -42 180
q5 107 78 189t191.5 124t263.5 42q158 0 277.5 -54t183.5 -161t54 -251h-108q7 83 -18.5 149t-69.5 105.5t-103 65.5t-113 35.5t-105 9.5q-183 0 -301 -73.5t-124 -182.5q-3 -89 44 -147q84 -100 316 -152q224 -51 312 -84q199 -75 257 -210q28 -68 26 -154
q-4 -164 -152 -264.5t-369 -100.5zM693 -84l-127 -289h-100l106 289h121z" />
    <glyph glyph-name="uni0219" unicode="&#x219;" horiz-adv-x="975" 
d="M484 -24q-45 0 -90.5 6t-97.5 20t-94 40.5t-76 64t-49 95.5t-7 130h109q-7 -62 10 -110t48.5 -76t76.5 -45.5t87 -23.5t86 -6q91 0 160.5 18t113 60.5t41.5 106.5q0 78 -47 119q-45 39 -116 60.5t-186 42.5q-93 18 -174 44q-96 32 -147.5 92.5t-48.5 163.5q2 117 118 193
t296 76q38 0 76 -4t81.5 -14.5t81 -27t71.5 -44.5t56.5 -64t32.5 -87.5t3 -113.5h-109q6 52 -4.5 94t-35 68.5t-55 45t-69.5 28t-73 13.5t-71 4q-129 0 -212 -43.5t-83 -124.5q0 -69 45 -104q31 -25 83.5 -44t95 -28.5t120.5 -23.5q49 -10 80 -17.5t75 -22t72 -29.5
t59 -39.5t48.5 -53.5t29.5 -69.5t12 -89.5q0 -98 -58.5 -162.5t-150 -91t-214.5 -26.5zM517 -84l-127 -289h-100l106 289h121z" />
    <glyph glyph-name="uni021A" unicode="&#x21a;" horiz-adv-x="1290" 
d="M698 0h-104v1310h-495v100h1091v-100h-492v-1310zM693 -84l-127 -289h-100l106 289h121z" />
    <glyph glyph-name="uni021B" unicode="&#x21b;" horiz-adv-x="689" 
d="M612 100v-100q-94 -2 -160 0t-108 24t-61 80t-19 169v650h-175v100h175v256h104v-256h241v-100h-241v-650q0 -131 31 -154.5t184 -19.5q19 1 29 1zM516 -84l-127 -289h-100l106 289h121z" />
    <glyph glyph-name="circumflex" unicode="&#x2c6;" horiz-adv-x="457" 
d="M313 1130l-85 148l-86 -148h-114l158 253h87l155 -253h-115z" />
    <glyph glyph-name="caron" unicode="&#x2c7;" horiz-adv-x="424" 
d="M412 1383l-156 -253h-86l-159 253h116l86 -148l86 148h113z" />
    <glyph glyph-name="breve" unicode="&#x2d8;" horiz-adv-x="950" 
d="M589 1383h94q4 -128 -48 -201.5t-160 -73.5q-109 0 -161.5 73.5t-47.5 201.5h93q-2 -88 28 -132.5t88 -44.5q117 0 114 177z" />
    <glyph glyph-name="dotaccent" unicode="&#x2d9;" horiz-adv-x="1024" 
d="M512 1336q32 0 55 -22.5t23 -53.5t-23 -53.5t-55 -22.5q-33 0 -56 22t-23 54t23 54t56 22z" />
    <glyph glyph-name="ring" unicode="&#x2da;" horiz-adv-x="1185" 
d="M593 1412q68 0 113 -41t45 -109q0 -67 -45.5 -109.5t-112.5 -42.5q-68 0 -114 42.5t-46 109.5q0 68 46 109t114 41zM593 1327q-29 0 -44.5 -18t-15.5 -47t16 -46.5t44 -17.5t44.5 18t16.5 46q0 29 -16.5 47t-44.5 18z" />
    <glyph glyph-name="ogonek" unicode="&#x2db;" horiz-adv-x="1052" 
d="M605 66l117 -57q-117 -4 -198 -83.5t-81 -184.5q0 -82 72 -82q71 0 147 85v-115q-72 -63 -170 -63q-71 0 -117 38t-46 123q0 116 77 209.5t199 129.5z" />
    <glyph glyph-name="tilde" unicode="&#x2dc;" horiz-adv-x="1022" 
d="M396 1346q43 0 124 -26q69 -23 86 -23q10 0 12.5 7.5t0.5 33.5h90q5 -65 -21.5 -98.5t-79.5 -33.5q-46 0 -125 26q-66 21 -87 21q-9 0 -11 -4.5t-2 -24.5v-10h-87q-4 65 22 98.5t78 33.5z" />
    <glyph glyph-name="hungarumlaut" unicode="&#x2dd;" horiz-adv-x="674" 
d="M231 1130h-100l144 253h131zM444 1130h-100l143 253h132z" />
    <glyph glyph-name="gravecomb" unicode="&#x300;" horiz-adv-x="160" 
d="M499 1256h-100l-175 254h131z" />
    <glyph glyph-name="acutecomb" unicode="&#x301;" horiz-adv-x="161" 
d="M325 1250h-101l144 253h132z" />
    <glyph glyph-name="uni0302" unicode="&#x302;" horiz-adv-x="61" 
d="M313 1234l-85 148l-86 -148h-114l158 254h87l155 -254h-115z" />
    <glyph glyph-name="tildecomb" unicode="&#x303;" horiz-adv-x="30" 
d="M429 1422q43 0 124 -26q69 -23 86 -23q10 0 12.5 7.5t0.5 33.5h90q5 -65 -21.5 -98.5t-79.5 -33.5q-46 0 -125 26q-66 21 -87 21q-9 0 -11 -4.5t-2 -24.5v-10h-87q-4 65 22 98.5t78 33.5z" />
    <glyph glyph-name="uni0304" unicode="&#x304;" horiz-adv-x="30" 
d="M662 1295h-373v95h373v-95z" />
    <glyph glyph-name="uni0306" unicode="&#x306;" horiz-adv-x="28" 
d="M589 1481h94q4 -128 -48 -201.5t-160 -73.5q-109 0 -161.5 73.5t-47.5 201.5h93q-2 -88 28 -132.5t88 -44.5q117 0 114 177z" />
    <glyph glyph-name="uni0307" unicode="&#x307;" horiz-adv-x="94" 
d="M512 1425q32 0 55 -22.5t23 -53.5t-23 -53.5t-55 -22.5q-33 0 -56 22t-23 54t23 54t56 22z" />
    <glyph glyph-name="uni0308" unicode="&#x308;" horiz-adv-x="31" 
d="M507 1407q30 0 51.5 -21t21.5 -51q0 -28 -22 -49t-51 -21q-31 0 -52.5 20.5t-21.5 49.5q0 30 21.5 51t52.5 21zM702 1407q30 0 52 -21t22 -51q0 -28 -22 -49t-52 -21q-29 0 -50.5 21t-21.5 49q0 30 21.5 51t50.5 21z" />
    <glyph glyph-name="uni030A" unicode="&#x30a;" horiz-adv-x="60" 
d="M593 1497q68 0 113 -41t45 -109q0 -67 -45.5 -109.5t-112.5 -42.5q-68 0 -114 42.5t-46 109.5q0 68 46 109t114 41zM593 1411q-29 0 -44.5 -17.5t-15.5 -46.5t15.5 -46.5t44.5 -17.5q28 0 44.5 18t16.5 46t-16.5 46t-44.5 18z" />
    <glyph glyph-name="uni030B" unicode="&#x30b;" horiz-adv-x="59" 
d="M231 1236h-100l144 253h131zM444 1236h-100l143 253h132z" />
    <glyph glyph-name="uni030C" unicode="&#x30c;" horiz-adv-x="62" 
d="M412 1488l-156 -253h-86l-159 253h116l86 -148l86 148h113z" />
    <glyph glyph-name="uni0326" unicode="&#x326;" horiz-adv-x="1297" 
d="M768 -98l-112 -251h-100l106 289h106v-38z" />
    <glyph glyph-name="uni0327" unicode="&#x327;" horiz-adv-x="94" 
d="M692 55l-63 -114q163 -28 163 -169q0 -88 -68.5 -134.5t-166.5 -46.5q-79 0 -124 27v99q51 -36 127 -36q62 0 96 23.5t34 67.5q0 90 -150 90q-28 0 -62 -3l105 196h109z" />
    <glyph glyph-name="uni0328" unicode="&#x328;" horiz-adv-x="101" 
d="M605 81l117 -57q-117 -4 -198 -83.5t-81 -184.5q0 -82 72 -82q71 0 147 85v-115q-72 -63 -170 -63q-71 0 -117 38t-46 123q0 116 77 209.5t199 129.5z" />
    <glyph glyph-name="uni1E20" unicode="&#x1e20;" horiz-adv-x="1568" 
d="M780 -34q-315 0 -498 197t-183 536q0 346 185.5 541t512.5 195q267 0 438 -131.5t206 -378.5h-102q-83 409 -542 409q-288 0 -443.5 -167t-155.5 -468q0 -299 156 -467.5t431 -168.5q241 0 385.5 129.5t161.5 357.5h-567v101h703v-651h-94l-16 295q-21 -46 -51 -88.5
t-80.5 -87.5t-111.5 -78t-148 -54t-187 -21zM983 1778v-95h-373v95h373z" />
    <glyph glyph-name="uni1E21" unicode="&#x1e21;" horiz-adv-x="1207" 
d="M560 83q77 0 146.5 27.5t124.5 79t87 132.5t32 180q0 192 -106.5 303t-264.5 111q-179 0 -285.5 -117t-106.5 -297q0 -183 98.5 -301t274.5 -118zM978 1023h87v-1052q0 -289 -135 -413q-103 -98 -332 -98q-231 0 -332 98q-109 97 -131 299h110q15 -83 19 -100
q19 -63 55 -104.5t105.5 -66t173.5 -24.5q152 0 228.5 49.5t104.5 146.5q27 96 27 213v238q-24 -42 -55 -77.5t-78.5 -73.5t-114 -60t-143.5 -22q-215 0 -352 149.5t-137 376.5q0 228 136 374.5t355 146.5q81 0 148.5 -21.5t114 -58t76 -73t51.5 -78.5zM768 1390v-95h-373
v95h373z" />
    <glyph glyph-name="Wgrave" unicode="&#x1e80;" horiz-adv-x="2248" 
d="M1697 0h-144l-434 1236l-457 -1236h-143l-483 1410h115l443 -1293l476 1293h101l453 -1294l470 1294h117zM1185 1644h-100l-175 254h131z" />
    <glyph glyph-name="wgrave" unicode="&#x1e81;" horiz-adv-x="1630" 
d="M78 1023h111l283 -890l297 890h94l302 -891l276 891h110l-323 -1023h-132l-279 833l-278 -833h-127zM875 1256h-100l-175 254h131z" />
    <glyph glyph-name="Wacute" unicode="&#x1e82;" horiz-adv-x="2248" 
d="M1697 0h-144l-434 1236l-457 -1236h-143l-483 1410h115l443 -1293l476 1293h101l453 -1294l470 1294h117zM1155 1638h-101l144 253h132z" />
    <glyph glyph-name="wacute" unicode="&#x1e83;" horiz-adv-x="1630" 
d="M78 1023h111l283 -890l297 890h94l302 -891l276 891h110l-323 -1023h-132l-279 833l-278 -833h-127zM871 1250h-101l144 253h132z" />
    <glyph glyph-name="Wdieresis" unicode="&#x1e84;" horiz-adv-x="2248" 
d="M1697 0h-144l-434 1236l-457 -1236h-143l-483 1410h115l443 -1293l476 1293h101l453 -1294l470 1294h117zM1020 1795q30 0 51.5 -21t21.5 -51q0 -28 -22 -49t-51 -21q-31 0 -52.5 20.5t-21.5 49.5q0 30 21.5 51t52.5 21zM1215 1795q30 0 52 -21t22 -51q0 -28 -22 -49
t-52 -21q-29 0 -50.5 21t-21.5 49q0 30 21.5 51t50.5 21z" />
    <glyph glyph-name="wdieresis" unicode="&#x1e85;" horiz-adv-x="1630" 
d="M78 1023h111l283 -890l297 890h94l302 -891l276 891h110l-323 -1023h-132l-279 833l-278 -833h-127zM717 1407q30 0 51.5 -21t21.5 -51q0 -28 -22 -49t-51 -21q-31 0 -52.5 20.5t-21.5 49.5q0 30 21.5 51t52.5 21zM912 1407q30 0 52 -21t22 -51q0 -28 -22 -49t-52 -21
q-29 0 -50.5 21t-21.5 49q0 30 21.5 51t50.5 21z" />
    <glyph glyph-name="uni1EBC" unicode="&#x1ebc;" horiz-adv-x="1264" 
d="M1144 0h-1004v1410h982v-102h-874v-543h719v-103h-719v-562h896v-100zM530 1810q43 0 124 -26q69 -23 86 -23q10 0 12.5 7.5t0.5 33.5h90q5 -65 -21.5 -98.5t-79.5 -33.5q-46 0 -125 26q-66 21 -87 21q-9 0 -11 -4.5t-2 -24.5v-10h-87q-4 65 22 98.5t78 33.5z" />
    <glyph glyph-name="uni1EBD" unicode="&#x1ebd;" horiz-adv-x="1129" 
d="M197 589h743q-6 58 -30.5 114.5t-66 107t-109 81.5t-150.5 31q-153 0 -257.5 -92.5t-129.5 -241.5zM572 -24q-120 0 -216.5 45t-156.5 120.5t-91.5 171t-29.5 199.5q5 222 144.5 366.5t361.5 144.5q195 0 322.5 -124t142.5 -328l2 -30v-51h-864q5 -192 105 -303t280 -111
q142 0 242.5 73t118.5 195h108q-24 -164 -156 -266t-313 -102zM465 1442q43 0 124 -26q69 -23 86 -23q10 0 12.5 7.5t0.5 33.5h90q5 -65 -21.5 -98.5t-79.5 -33.5q-46 0 -125 26q-66 21 -87 21q-9 0 -11 -4.5t-2 -24.5v-10h-87q-4 65 22 98.5t78 33.5z" />
    <glyph glyph-name="Ygrave" unicode="&#x1ef2;" horiz-adv-x="1258" 
d="M682 0h-107v533l-497 877h116l438 -764l432 764h115l-497 -877v-533zM684 1644h-100l-175 254h131z" />
    <glyph glyph-name="ygrave" unicode="&#x1ef3;" horiz-adv-x="1122" 
d="M291 -541l-110 2l309 656l-412 906h117l355 -782l375 782h119zM614 1256h-100l-175 254h131z" />
    <glyph glyph-name="uni1EF8" unicode="&#x1ef8;" horiz-adv-x="1258" 
d="M682 0h-107v533l-497 877h116l438 -764l432 764h115l-497 -877v-533zM505 1810q43 0 124 -26q69 -23 86 -23q10 0 12.5 7.5t0.5 33.5h90q5 -65 -21.5 -98.5t-79.5 -33.5q-46 0 -125 26q-66 21 -87 21q-9 0 -11 -4.5t-2 -24.5v-10h-87q-4 65 22 98.5t78 33.5z" />
    <glyph glyph-name="uni1EF9" unicode="&#x1ef9;" horiz-adv-x="1188" 
d="M984 1023h126l-690 -1561h-99l220 516l-463 1045h127l393 -908zM632 1422q43 0 124 -26q69 -23 86 -23q10 0 12.5 7.5t0.5 33.5h90q5 -65 -21.5 -98.5t-79.5 -33.5q-46 0 -125 26q-66 21 -87 21q-9 0 -11 -4.5t-2 -24.5v-10h-87q-4 65 22 98.5t78 33.5z" />
    <glyph glyph-name="endash" unicode="&#x2013;" horiz-adv-x="1049" 
d="M907 538h-767v97h767v-97z" />
    <glyph glyph-name="emdash" unicode="&#x2014;" horiz-adv-x="2062" 
d="M1920 538h-1780v97h1780v-97z" />
    <glyph glyph-name="quoteleft" unicode="&#x2018;" horiz-adv-x="571" 
d="M140 957l181 514h109l-158 -516z" />
    <glyph glyph-name="quoteright" unicode="&#x2019;" horiz-adv-x="420" 
d="M341 1471l-174 -516h-110l158 516h126z" />
    <glyph glyph-name="quotesinglbase" unicode="&#x201a;" horiz-adv-x="415" 
d="M290 123l-149 -351h-109l123 351h135z" />
    <glyph glyph-name="quotedblleft" unicode="&#x201c;" horiz-adv-x="717" 
d="M198 955l186 518h110l-158 -518h-138zM424 955l183 518h110l-158 -518h-135z" />
    <glyph glyph-name="quotedblright" unicode="&#x201d;" horiz-adv-x="384" 
d="M289 1471l-179 -516h-110l158 516h131zM517 1471l-184 -516h-110l158 516h136z" />
    <glyph glyph-name="quotedblbase" unicode="&#x201e;" horiz-adv-x="342" 
d="M288 123l-147 -351h-109l123 351h133zM482 123l-148 -351h-109l122 351h135z" />
    <glyph glyph-name="dagger" unicode="&#x2020;" horiz-adv-x="1065" 
d="M965 771l-375 6l8 -1089h-128l4 1089l-375 -6v112l375 -6l-6 506h130l-8 -506l375 6v-112z" />
    <glyph glyph-name="daggerdbl" unicode="&#x2021;" horiz-adv-x="1065" 
d="M590 777v-484l375 5v-111l-375 6l8 -505h-128l4 505l-375 -6v111l375 -5v484l-375 -6v112l375 -6l-6 506h130l-8 -506l375 6v-112z" />
    <glyph glyph-name="bullet" unicode="&#x2022;" horiz-adv-x="481" 
d="M240 750q59 0 100 -39t41 -97t-41 -97.5t-100 -39.5t-100 39.5t-41 97.5t41 97t100 39z" />
    <glyph glyph-name="ellipsis" unicode="&#x2026;" horiz-adv-x="870" 
d="M181 132q35 0 58.5 -22.5t23.5 -56.5t-23.5 -57t-58.5 -23q-34 0 -58 22.5t-24 57.5q0 34 24 56.5t58 22.5zM434 132q35 0 59 -22.5t24 -56.5t-24 -57t-59 -23q-34 0 -58 22.5t-24 57.5q0 34 24 56.5t58 22.5zM687 132q36 0 59.5 -22.5t23.5 -56.5q0 -35 -23.5 -57.5
t-59.5 -22.5q-34 0 -58 22.5t-24 57.5q0 34 24 56.5t58 22.5z" />
    <glyph glyph-name="perthousand" unicode="&#x2030;" horiz-adv-x="2121" 
d="M711 1079q0 -141 -79 -235t-210 -94q-132 0 -210.5 93.5t-78.5 235.5q0 145 78 237t211 92q131 0 210 -92.5t79 -236.5zM1273 1383l-932 -1383h-130l932 1383h130zM251 1079q0 -106 45 -168t126 -62t126 62t45 168q0 107 -45 168.5t-126 61.5q-82 0 -126.5 -61
t-44.5 -169zM1062 631q132 0 211 -92.5t79 -236.5q0 -142 -79.5 -235.5t-210.5 -93.5q-132 0 -210.5 93.5t-78.5 235.5q0 144 78.5 236.5t210.5 92.5zM1698 631q133 0 211.5 -92.5t78.5 -236.5q0 -142 -79 -235.5t-211 -93.5q-130 0 -209 93.5t-79 235.5q0 144 78.5 236.5
t209.5 92.5zM1062 72q81 0 126.5 62.5t45.5 167.5q0 107 -45.5 168.5t-126.5 61.5q-82 0 -126 -61t-44 -169q0 -107 44.5 -168.5t125.5 -61.5zM1698 72q82 0 127 61.5t45 168.5t-45 168.5t-127 61.5q-81 0 -125.5 -61.5t-44.5 -168.5q0 -106 44.5 -168t125.5 -62z" />
    <glyph glyph-name="guilsinglleft" unicode="&#x2039;" horiz-adv-x="686" 
d="M566 845l-294 -342l294 -343h-132l-294 343l294 342h132z" />
    <glyph glyph-name="guilsinglright" unicode="&#x203a;" horiz-adv-x="688" 
d="M547 503l-294 -343h-133l295 343l-295 342h133z" />
    <glyph glyph-name="fraction" unicode="&#x2044;" horiz-adv-x="648" 
d="M-76 0h-132l934 1383h130z" />
    <glyph glyph-name="Euro" unicode="&#x20ac;" horiz-adv-x="1289" 
d="M828 1332q-84 0 -157.5 -26.5t-137.5 -83t-108 -154t-60 -228.5h736l-31 -80h-711q-1 -23 -1 -68q0 -49 1 -72h667l-24 -80h-637q50 -492 467 -492q170 0 306 88v-96q-139 -78 -316 -78q-514 0 -564 578h-155l28 80h122l-3 64q0 51 2 76h-101l28 80h81
q22 191 102.5 322.5t199 193.5t270.5 62q119 0 202.5 -30.5t150.5 -98.5l-56 -70q-59 62 -129.5 87.5t-171.5 25.5z" />
    <glyph glyph-name="trademark" unicode="&#x2122;" horiz-adv-x="1161" 
d="M520 1413v-86h-164v-351h-98v351h-166v86h428zM1054 1411v-435h-94l3 252l-96 -246h-90l-94 244l2 -250h-96v435h118l117 -311l116 311h114z" />
    <glyph glyph-name="partialdiff" unicode="&#x2202;" horiz-adv-x="1113" 
d="M535 74q174 0 262.5 139t93.5 433q-50 102 -132 150.5t-179 48.5q-166 0 -262.5 -111t-96.5 -292q0 -172 88.5 -270t225.5 -98zM522 1516q491 0 491 -854q0 -335 -121 -512t-361 -177q-189 0 -310.5 128t-121.5 335q0 229 131 370t346 141q98 0 178 -36.5t134 -99.5
q-7 132 -30.5 237.5t-66.5 189.5t-112.5 130t-162.5 46q-88 0 -153.5 -24.5t-136.5 -82.5l-62 79q81 69 166 99.5t192 30.5z" />
    <glyph glyph-name="emptyset" unicode="&#x2205;" horiz-adv-x="1732" 
d="M865 60q179 0 330.5 85t240.5 235t89 331q0 238 -151 418l-945 -908q187 -161 436 -161zM207 711q0 -238 151 -418l945 908q-185 163 -438 163q-178 0 -329 -85.5t-240 -236t-89 -331.5zM1544 1433l73 -69l-169 -163q88 -100 136.5 -225.5t48.5 -264.5q0 -156 -61 -295.5
t-164.5 -239t-245 -157.5t-297.5 -58q-143 0 -274 49.5t-237 138.5l-166 -160l-73 69l169 163q-88 100 -136.5 225.5t-48.5 264.5q0 156 61 295.5t164.5 239t244.5 157.5t296 58q144 0 276 -49.5t237 -138.5z" />
    <glyph glyph-name="product" unicode="&#x220f;" horiz-adv-x="1143" 
d="M1060 1280h-117v-1494h-116v1494h-512v-1494h-116v1494h-116v103h977v-103z" />
    <glyph glyph-name="summation" unicode="&#x2211;" horiz-adv-x="1142" 
d="M1068 -111v-103h-999v88l569 732l-509 689v88h926v-103h-776l502 -676l-562 -715h849z" />
    <glyph glyph-name="minus" unicode="&#x2212;" horiz-adv-x="1057" 
d="M958 590h-859v98h859v-98z" />
    <glyph glyph-name="radical" unicode="&#x221a;" horiz-adv-x="1169" 
d="M1069 1558l-449 -1870h-117l-266 857h-138v98h216l240 -798l409 1713h105z" />
    <glyph glyph-name="infinity" unicode="&#x221e;" horiz-adv-x="2125" 
d="M595 74q69 0 132 24.5t119.5 76t96 144t51.5 216.5q-19 125 -59.5 217.5t-95 144t-115 76t-129.5 24.5q-74 0 -140 -29.5t-118 -85.5t-83 -146t-31 -202q0 -111 31 -200.5t83 -145t118 -85t140 -29.5zM1531 74q73 0 139.5 29.5t119 85t83.5 145t31 200.5q0 112 -31 202
t-83.5 146t-119 85.5t-139.5 29.5q-70 0 -133.5 -24.5t-120.5 -76t-96 -144t-51 -216.5q19 -125 59 -217t95 -144t116.5 -76.5t130.5 -24.5zM1531 1099q227 0 361 -158t134 -407q0 -163 -59 -289.5t-172 -199t-264 -72.5q-165 0 -284.5 89.5t-185.5 266.5
q-63 -177 -181 -266.5t-285 -89.5q-227 0 -361.5 156.5t-134.5 404.5q0 250 134.5 407.5t361.5 157.5q164 0 284 -89t185 -265q62 173 181 263.5t286 90.5z" />
    <glyph glyph-name="integral" unicode="&#x222b;" horiz-adv-x="686" 
d="M431 1508q97 0 156 -68l-50 -85q-23 32 -47.5 43.5t-58.5 11.5q-52 0 -84 -60.5t-32 -186.5q0 -80 16 -195t65 -358q48 -247 65.5 -367t17.5 -218q0 -172 -64.5 -254.5t-159.5 -82.5q-97 0 -156 68l49 84q44 -54 107 -54q53 0 86 60.5t33 186.5q0 75 -16.5 189.5
t-65.5 363.5q-50 259 -67.5 374.5t-17.5 212.5q0 170 64.5 252.5t159.5 82.5z" />
    <glyph glyph-name="approxequal" unicode="&#x2248;" horiz-adv-x="1137" 
d="M278 896q55 0 103.5 -16.5t130.5 -59.5q74 -37 110 -49.5t78 -12.5q63 0 101.5 26.5t81.5 97.5l75 -59q-94 -165 -260 -165q-54 0 -101 16.5t-133 60.5q-76 37 -111 49.5t-77 12.5q-62 0 -99.5 -26t-84.5 -96l-74 59q92 162 260 162zM278 555q55 0 103.5 -16.5
t130.5 -59.5q76 -37 111 -49.5t77 -12.5q63 0 101.5 26.5t81.5 97.5l75 -59q-93 -164 -260 -164q-54 0 -101.5 16.5t-132.5 59.5q-76 37 -111 49.5t-77 12.5q-62 0 -99.5 -26t-84.5 -96l-74 59q92 162 260 162z" />
    <glyph glyph-name="notequal" unicode="&#x2260;" horiz-adv-x="1088" 
d="M683 769l-161 -264h467v-96h-526l-127 -210h-117l128 210h-248v96h306l161 264h-467v96h525l127 210h117l-128 -210h249v-96h-306z" />
    <glyph glyph-name="lessequal" unicode="&#x2264;" horiz-adv-x="1057" 
d="M958 860l-714 -289l714 -287v-112l-859 355v88l859 355v-110zM99 97h859v-97h-859v97z" />
    <glyph glyph-name="greaterequal" unicode="&#x2265;" horiz-adv-x="1057" 
d="M958 615v-88l-859 -355v110l717 289l-717 289v110zM99 97h859v-97h-859v97z" />
    <glyph glyph-name="lozenge" unicode="&#x25ca;" horiz-adv-x="1020" 
d="M511 126l280 565l-282 565l-278 -564zM555 1383l349 -691l-349 -692h-90l-349 692l349 691h90z" />
    <glyph glyph-name="Gcommaaccent" horiz-adv-x="1568" 
d="M780 -34q-315 0 -498 197t-183 536q0 346 185.5 541t512.5 195q267 0 438 -131.5t206 -378.5h-102q-83 409 -542 409q-288 0 -443.5 -167t-155.5 -468q0 -299 156 -467.5t431 -168.5q241 0 385.5 129.5t161.5 357.5h-567v101h703v-651h-94l-16 295q-21 -46 -51 -88.5
t-80.5 -87.5t-111.5 -78t-148 -54t-187 -21zM749 -84h121l-127 -289h-100z" />
    <glyph glyph-name="Itilde" horiz-adv-x="442" 
d="M272 0h-104v1403h104v-1403zM113 1810q43 0 124 -26q69 -23 86 -23q10 0 12.5 7.5t0.5 33.5h90q5 -65 -21.5 -98.5t-79.5 -33.5q-46 0 -125 26q-66 21 -87 21q-9 0 -11 -4.5t-2 -24.5v-10h-87q-4 65 22 98.5t78 33.5z" />
    <glyph glyph-name="Imacron" horiz-adv-x="442" 
d="M272 0h-104v1403h104v-1403zM406 1683h-373v95h373v-95z" />
    <glyph glyph-name="Iogonek" horiz-adv-x="489" 
d="M189 52v1351h104v-1394l23 -11q-117 -4 -198 -83.5t-81 -184.5q0 -82 72 -82q71 0 147 85v-115q-72 -63 -170 -63q-71 0 -117 38t-46 123q0 114 74 206t192 130z" />
    <glyph glyph-name="_Designova" horiz-adv-x="1401" 
d="M172 798q0 -108 42 -206t112.5 -168.5t168.5 -112.5t206 -42q143 0 264.5 70.5t192.5 192t71 265.5t-70.5 266t-191.5 192.5t-265 70.5t-266 -70.5t-193 -192t-71 -265.5zM360 903q8 0 12 -4q53 -20 107 -29q43 -4 76 3q24 4 49 13q4 0 10.5 3.5t7.5 3.5l-17 8.5t-17.5 9
t-15 10t-14.5 13.5h20q37 0 80 18q123 77 208 77q6 0 23 1.5t25 0.5q62 -4 94 -36q7 -5 31 -34v-2q-3 2 -6 2q-28 11 -52 11q-63 0 -104 -62q-6 -11 -15.5 -33.5t-12.5 -29.5q-5 -12 -15 -36.5t-19 -44.5t-17 -37q-31 -65 -69 -111q-28 -40 -84 -72t-111 -48h-6l26 23
q16 15 28 47q8 25 24.5 71t23.5 68q31 89 60 139v1q-1 -2 -4.5 -6t-5.5 -6q-8 -8 -10 -15q-21 -24 -35 -60q-3 -5 -9 -5q-110 5 -190 73q-1 1 -61 58q-5 7 -15 17zM699 197q-162 0 -300 81t-218.5 219.5t-80.5 300.5q1 122 48.5 233t128 191t191.5 127.5t233 47.5t233 -47.5
t191.5 -127.5t128 -191t47.5 -233q0 -163 -80.5 -301.5t-219.5 -219t-302 -80.5z" />
    <glyph glyph-name="_Origin" horiz-adv-x="1874" 
d="M585 504h-31v-30h31q24 0 24 14q0 16 -24 16zM589 449h-35v-31h35q24 0 24 16q0 15 -24 15zM841 499h-26v-43h26q28 0 28 21q0 22 -28 22zM1731 878h-1588v-625h1588v625zM1392 499h-26v-79h26q13 0 23 5q19 11 19 35q0 16 -5 21q-9 18 -37 18zM946 674q0 -18 11 -29.5
t28 -11.5q18 0 29 11.5t11 29.5q0 19 -11 30.5t-29 11.5q-17 0 -28 -11.5t-11 -30.5zM1128 714h-27v-44h27q28 0 28 22t-28 22zM363 1227h-70v-172h68q43 0 69 22t26 64q0 55 -44 75q-19 11 -49 11zM472 1119q0 -44 33 -58q13 -7 39 -7q35 0 54 17q9 12 12 22l-38 1
q-3 -9 -16 -13q-2 0 -5.5 -0.5t-6.5 -0.5q-22 0 -29 15q-5 8 -5 15h100v11q0 30 -18.5 47.5t-49.5 17.5q-43 0 -63 -32q-7 -18 -7 -35zM661 1094l-40 -1q6 -39 67 -39q39 0 57 20q7 10 7 21q0 26 -41 35l-28 5q-18 3 -18 13q0 12 23 12t23 -14l38 2q-7 38 -62 38
q-38 0 -54 -19q-8 -8 -8 -21q0 -28 41 -37l26 -5q19 -3 19 -12q0 -14 -23 -14q-24 0 -27 16zM809 1184h-41v-129h41v129zM767 1218q0 -7 7 -12.5t15 -5.5q9 0 15.5 5.5t6.5 12.5t-6.5 12.5t-15.5 5.5q-8 0 -15 -5.5t-7 -12.5zM827 1120q0 -29 16 -45.5t44 -16.5q21 0 33 10
q7 5 7 10h2v-23q0 -24 -30 -24q-18 0 -25 7q-2 1 -5 8l-37 -6q3 -15 20 -25t46 -10q43 0 62 22q10 10 10 27v130h-40v-21h-3q-4 13 -21 19q-10 4 -19 4q-35 0 -52 -29q-8 -16 -8 -37zM1033 1184h-40v-129h41v75q0 17 13 23q5 3 14 3q25 0 25 -25v-76h42v82q0 31 -24 42
q-11 7 -27 7q-31 0 -43 -25h-1v23zM1145 1119q0 -32 20 -48.5t52 -16.5q42 0 64 31q8 14 8 34q0 39 -33 59q-19 8 -39 8q-44 0 -63 -32q-9 -18 -9 -35zM1364 1093l-31 91h-43l51 -129h45l52 129h-42l-31 -91h-1zM1439 1092q0 -26 23 -34q9 -4 25 -4q21 0 34 9l8 11h2v-19h37
v88q0 19 -17 33q-22 10 -43 10q-35 0 -53 -18q-9 -7 -12 -20l39 -4q4 16 25 16t21 -16v-1q0 -7 -15 -10q-2 -1 -9 -1.5t-10 -0.5q-55 -4 -55 -39zM319 523v-128h-30v128h30zM370 474v-79h-31v128h25l64 -77v77h29v-128h-24zM592 395h-68v128h63q52 0 52 -32q0 -20 -18 -29
q2 0 2 -2q20 -7 20 -30q0 -35 -51 -35zM762 420v-25h-105v128h107v-24h-78v-27h70v-23h-70v-29h76zM815 432v-37h-31v128h59q24 0 40 -11.5t16 -34.5q0 -14 -7 -24q-11 -13 -21 -18l27 -40h-32l-25 37h-26zM1018 420v-25h-105v128h29v-103h76zM1069 523v-128h-30v128h30z
M1120 474v-79h-30v128h25l63 -77v77h31v-128h-25zM1227 413q0 17 19 17q7 0 12 -5t5 -12q0 -6 -5 -19l-11 -27h-18l9 30q-11 4 -11 16zM1393 395h-57v128h57q23 0 38 -8q33 -14 33 -55q0 -22 -9 -35q-16 -30 -62 -30zM1587 420v-25h-105v128h105v-24h-76v-27h69v-23h-69v-29
h76zM419 633v-23h-107v127h107v-23h-77v-28h70v-22h-70v-31h77zM470 688v-78h-30v127h25l64 -76v76h29v-127h-25zM621 610v104h-42v23h112v-23h-41v-104h-29zM779 610h-31l-44 127h32l29 -89l30 89h27l29 -90l31 90h28l-41 -127h-33l-28 87zM1731 211v1l-1631 -1v1150h1674
v-1149zM915 674q0 29 20.5 47.5t49.5 18.5q30 0 50.5 -18.5t20.5 -47.5t-20.5 -47.5t-49.5 -18.5t-50 18.5t-21 47.5zM1101 646v-36h-28v127h57q22 0 30 -3q26 -14 26 -42q0 -15 -7 -25q-6 -10 -21 -17l28 -40h-32l-25 36h-28zM1231 664v-54h-30v127h107v-23h-77v-28h69v-22
h-69zM1426 633v-23h-107v127h107v-23h-77v-28h69v-22h-69v-31h77zM1476 688v-78h-28v127h22l66 -76v76h29v-127h-25zM359 1087h-26v108h27q37 0 49 -23q7 -19 7 -31q0 -36 -26 -48q-10 -6 -31 -6zM572 1133h-62q1 12 15 22q8 5 17 5q21 0 26 -16q4 -5 4 -11zM869 1120
q0 24 12 33q10 5 18 5q19 0 28 -19q0 -2 1.5 -8.5t1.5 -10.5q0 -36 -31 -36q-18 0 -28 18q-2 10 -2 18zM1187 1120q0 24 13 33q6 5 17 5q30 0 30 -38q0 -24 -13 -34q-8 -5 -17 -5q-19 0 -28 20q-2 10 -2 19zM1477 1093q0 7 12 14q4 2 12 2q19 2 28 6v-13q0 -15 -15 -21
q-12 -3 -16 -3q-21 0 -21 15z" />
    <glyph glyph-name="_Typeface" horiz-adv-x="2648" 
d="M417 795h-28l-128 -321h31l36 89h151l35 -89h33zM606 709h-25v-235h31v111q0 46 24 72t65 22l-2 29q-58 4 -89 -42zM829 469q43 0 74 24.5t35 63.5h-32q-2 -27 -24 -43t-53 -16q-38 0 -59 22.5t-23 63.5h193v14l-1 7q-3 46 -33 75t-74 29q-51 0 -83 -33.5t-34 -83.5
q-1 -51 29.5 -87t84.5 -36zM1004 709h-23v-235h29v111q0 43 22.5 68.5t59.5 25.5t52 -21.5t15 -65.5v-118h30v118q0 117 -98 117q-55 0 -82 -43zM1301 469q60 0 86 37l4 -31h25v166q-3 70 -80 70h-16q-38 0 -62.5 -23.5t-22.5 -58.5h30q1 26 16.5 39.5t38.5 13.5h16
q46 0 50 -45v-22h-14q-147 0 -147 -80q0 -32 21 -49t55 -17zM1737 461q65 0 100 37.5t35 107.5v182h-29v-182q0 -116 -106 -116q-50 0 -77 29.5t-27 86.5v182h-30v-182q0 -68 36 -106.5t98 -38.5zM1942 709h-23v-235h29v111q0 43 22.5 68.5t59.5 25.5t52 -21.5t15 -65.5
v-118h30v118q0 117 -98 117q-55 0 -82 -43zM2278 470q53 0 81.5 32.5t28.5 85.5q0 55 -29 87.5t-81 32.5t-81.5 -32t-29.5 -88q0 -54 29.5 -86t81.5 -32zM403 750l63 -157h-125zM908 612h-158q6 30 28.5 49t53.5 19q32 0 52 -20.5t24 -47.5zM1305 497q-47 0 -47 39
q0 37 63 49q30 3 65 2v-20q0 -70 -81 -70zM2548 895v-540h-2448v540h2448zM2278 500q-42 0 -61 25.5t-19 62.5q0 90 80 90q79 0 79 -90q0 -40 -19.5 -64t-59.5 -24z" />
    <glyph glyph-name="_VendorID" horiz-adv-x="1106" 
d="M116 59q0 -16 12 -16q14 0 14 16v1q0 16 -13 16t-13 -17zM176 62h23q-3 14 -11 14q-11 0 -12 -14zM302 60q0 -17 12 -17q14 0 14 16v1q0 16 -14 16q-12 0 -12 -16zM419 59q0 -16 12 -16q14 0 14 16q0 17 -14 17q-12 0 -12 -17zM529 48q0 -5 8 -5q11 0 11 8v6
q-19 2 -19 -9zM613 59q0 -16 13 -16q12 0 12 16q0 17 -12 17q-13 0 -13 -17zM882 59q0 -16 14 -16q12 0 12 16q0 17 -12 17q-14 0 -14 -17zM255 423q0 -56 39.5 -96t96.5 -40q56 0 94.5 39.5t38.5 96.5q0 58 -37.5 96.5t-95.5 38.5q-11 0 -22 -3l79 112h-60l-90 -128
q-43 -60 -43 -116zM580 423q0 -57 39.5 -96.5t95.5 -39.5t94.5 39.5t38.5 96.5t-38 96t-95 39q-13 0 -23 -3l80 112h-61l-90 -128q-41 -58 -41 -116zM255 861q0 -56 39.5 -95t96.5 -39q56 0 94.5 39t38.5 95q0 58 -37.5 96.5t-95.5 38.5q-15 0 -22 -2l79 114h-60l-90 -132
q-43 -62 -43 -115zM580 861q0 -56 39.5 -95t95.5 -39t94.5 39t38.5 95q0 58 -38 96.5t-95 38.5q-16 0 -24 -2l81 114h-61l-90 -132q-41 -62 -41 -115zM103 59q0 12 7 19t17 7q8 0 11 -3l4 -5v24h12v-67h-12v9l-4 -7q-6 -4 -14 -4q-21 0 -21 27zM163 59q0 11 7 18.5t18 7.5
q10 0 17 -7t7 -18q0 -2 -2 -5h-34q1 -12 12 -12q9 0 11 8h11q-3 -19 -22 -19q-25 0 -25 27zM216 48h13q3 -8 8 -8q9 0 9 7q0 2 -11 8q-17 5 -17 15q0 15 19 15q20 0 20 -15h-13q-2 6 -7 6q-6 0 -6 -5q0 -4 11 -9q16 -3 16 -14q0 -16 -21 -16q-18 0 -21 16zM265 95q0 6 8 6
q7 0 7 -6q0 -8 -7 -8q-8 0 -8 8zM279 85v-51h-13v51h13zM289 31v1h13v-1q0 -8 12 -8q10 0 14 12v8l-4 -7q-8 -2 -13 -2q-22 0 -22 25q0 26 24 26q8 0 11 -3l4 -5v8h13v-38q0 -8 -2 -11q0 -22 -25 -22t-25 17zM364 57v-23h-13v51h13v-10l4 7q4 3 12 3q14 0 18 -14q1 -3 1 -9
v-28h-14v32q0 10 -9 10q-12 0 -12 -19zM406 59q0 11 7 18.5t18 7.5q26 0 26 -26q0 -27 -26 -27q-11 0 -18 7.5t-7 19.5zM495 34h-17l-17 51h14l13 -42l12 42h13zM517 48q0 15 28 15h3v7q0 6 -8 6q-11 0 -11 -8h-12q0 17 23 17q17 0 19 -14v-37h-11v6l-3 -5q-6 -3 -13 -3
q-15 0 -15 16zM573 34v40h-5v9h5v7q0 14 18 14h5v-10q-10 2 -10 -5v-6h10v-9h-10v-40h-13zM600 59q0 26 26 26q25 0 25 -26q0 -27 -25 -27q-26 0 -26 27zM671 57v-23h-11v51h11v-10l5 7q4 3 12 3q14 0 18 -14v-37h-13v32q-3 10 -8 10q-14 0 -14 -19zM720 43v31h-7v9h7v12h13
v-12h9v-9h-9v-26q2 -9 8 -5v-10h-7q-14 0 -14 10zM746 48h14q2 -8 9 -8q8 0 8 7q0 2 -11 8q-16 4 -16 15q0 15 18 15t23 -15h-15q0 6 -9 6q-4 0 -4 -5t10 -9q18 -4 18 -14q0 -16 -22 -16q-19 0 -23 16zM794 39q0 9 9 9q8 0 8 -9q0 -7 -8 -7q-9 0 -9 7zM817 59q0 11 7.5 18.5
t16.5 7.5q23 0 23 -19h-12q-3 10 -11 10q-11 0 -11 -17q0 -16 11 -16q9 0 11 8h12q-1 -19 -23 -19q-24 0 -24 27zM869 59q0 26 27 26q24 0 24 -26q0 -27 -24 -27q-27 0 -27 27zM942 60v-26h-13v51h13v-9l5 6q3 3 8 3q12 0 17 -10l5 7q3 3 10 3q16 0 16 -12q1 -3 1 -11v-28
h-12v26q0 16 -11 16q-8 0 -8 -16v-26h-12v34q-5 8 -9 8q-10 0 -10 -16zM305 423q0 37 24 60.5t62 23.5q36 0 60 -23.5t24 -60.5q0 -39 -24 -63t-60 -24q-38 0 -62 24t-24 63zM629 423q0 37 24 60.5t62 23.5q36 0 58.5 -23.5t22.5 -60.5q0 -39 -22.5 -63t-58.5 -24
q-38 0 -62 24t-24 63zM305 861q0 39 24 62.5t62 23.5q36 0 60 -24.5t24 -61.5t-24 -61.5t-60 -24.5q-38 0 -62 24t-24 62zM1006 1247v-1104h-906v1104h906zM629 861q0 38 24 62t62 24q36 0 58.5 -24t22.5 -62t-22.5 -62t-58.5 -24q-38 0 -62 24t-24 62z" />
    </font>
</defs>
</svg>
